<?xml version="1.0" encoding="utf-8" standalone="no"?>
<!DOCTYPE svg PUBLIC "-//W3C//DTD SVG 1.1//EN"
  "http://www.w3.org/Graphics/SVG/1.1/DTD/svg11.dtd">
<svg height="720pt" version="1.1" viewBox="0 0 1008 720" width="1008pt" xmlns="http://www.w3.org/2000/svg" xmlns:xlink="http://www.w3.org/1999/xlink">
 <metadata>
  <rdf:RDF xmlns:cc="http://creativecommons.org/ns#" xmlns:dc="http://purl.org/dc/elements/1.1/" xmlns:rdf="http://www.w3.org/1999/02/22-rdf-syntax-ns#">
   <cc:Work>
    <dc:type rdf:resource="http://purl.org/dc/dcmitype/StillImage"/>
    <dc:date>2022-06-02T02:40:07.137550</dc:date>
    <dc:format>image/svg+xml</dc:format>
    <dc:creator>
     <cc:Agent>
      <dc:title>Matplotlib v3.4.2, https://matplotlib.org/</dc:title>
     </cc:Agent>
    </dc:creator>
   </cc:Work>
  </rdf:RDF>
 </metadata>
 <defs>
  <style type="text/css">*{stroke-linecap:butt;stroke-linejoin:round;}</style>
 </defs>
 <g id="figure_1">
  <g id="axes_1">
   <g id="line2d_1">
    <path clip-path="url(#pbb3ffef241)" d="M 161.509091 263.105399 
L 161.509091 528.933651 
" style="fill:none;stroke:#000000;stroke-dasharray:3.7,1.6;stroke-dashoffset:0;"/>
   </g>
   <g id="line2d_2">
    <path clip-path="url(#pbb3ffef241)" d="M 170.498734 260.258442 
L 170.498734 523.886872 
" style="fill:none;stroke:#000000;stroke-dasharray:3.7,1.6;stroke-dashoffset:0;"/>
   </g>
   <g id="line2d_3">
    <path clip-path="url(#pbb3ffef241)" d="M 179.488377 261.039189 
L 179.488377 529.098063 
" style="fill:none;stroke:#000000;stroke-dasharray:3.7,1.6;stroke-dashoffset:0;"/>
   </g>
   <g id="line2d_4">
    <path clip-path="url(#pbb3ffef241)" d="M 188.478021 262.179546 
L 188.478021 528.70161 
" style="fill:none;stroke:#000000;stroke-dasharray:3.7,1.6;stroke-dashoffset:0;"/>
   </g>
   <g id="line2d_5">
    <path clip-path="url(#pbb3ffef241)" d="M 197.467664 260.996183 
L 197.467664 528.554566 
" style="fill:none;stroke:#000000;stroke-dasharray:3.7,1.6;stroke-dashoffset:0;"/>
   </g>
   <g id="line2d_6">
    <path clip-path="url(#pbb3ffef241)" d="M 206.457307 262.413485 
L 206.457307 529.17049 
" style="fill:none;stroke:#000000;stroke-dasharray:3.7,1.6;stroke-dashoffset:0;"/>
   </g>
   <g id="line2d_7">
    <path clip-path="url(#pbb3ffef241)" d="M 215.446951 261.973247 
L 215.446951 533.165917 
" style="fill:none;stroke:#000000;stroke-dasharray:3.7,1.6;stroke-dashoffset:0;"/>
   </g>
   <g id="line2d_8">
    <path clip-path="url(#pbb3ffef241)" d="M 224.436594 263.838399 
L 224.436594 535.57266 
" style="fill:none;stroke:#000000;stroke-dasharray:3.7,1.6;stroke-dashoffset:0;"/>
   </g>
   <g id="line2d_9">
    <path clip-path="url(#pbb3ffef241)" d="M 233.426237 262.734392 
L 233.426237 537.918762 
" style="fill:none;stroke:#000000;stroke-dasharray:3.7,1.6;stroke-dashoffset:0;"/>
   </g>
   <g id="line2d_10">
    <path clip-path="url(#pbb3ffef241)" d="M 242.41588 263.028539 
L 242.41588 537.719085 
" style="fill:none;stroke:#000000;stroke-dasharray:3.7,1.6;stroke-dashoffset:0;"/>
   </g>
   <g id="line2d_11">
    <path clip-path="url(#pbb3ffef241)" d="M 251.405524 262.770949 
L 251.405524 538.807914 
" style="fill:none;stroke:#000000;stroke-dasharray:3.7,1.6;stroke-dashoffset:0;"/>
   </g>
   <g id="line2d_12">
    <path clip-path="url(#pbb3ffef241)" d="M 260.395167 257.690959 
L 260.395167 542.290512 
" style="fill:none;stroke:#000000;stroke-dasharray:3.7,1.6;stroke-dashoffset:0;"/>
   </g>
   <g id="line2d_13">
    <path clip-path="url(#pbb3ffef241)" d="M 269.38481 258.533708 
L 269.38481 543.393635 
" style="fill:none;stroke:#000000;stroke-dasharray:3.7,1.6;stroke-dashoffset:0;"/>
   </g>
   <g id="line2d_14">
    <path clip-path="url(#pbb3ffef241)" d="M 278.374453 259.748086 
L 278.374453 545.019368 
" style="fill:none;stroke:#000000;stroke-dasharray:3.7,1.6;stroke-dashoffset:0;"/>
   </g>
   <g id="line2d_15">
    <path clip-path="url(#pbb3ffef241)" d="M 287.364097 265.598729 
L 287.364097 546.780719 
" style="fill:none;stroke:#000000;stroke-dasharray:3.7,1.6;stroke-dashoffset:0;"/>
   </g>
   <g id="line2d_16">
    <path clip-path="url(#pbb3ffef241)" d="M 296.35374 253.968465 
L 296.35374 544.270641 
" style="fill:none;stroke:#000000;stroke-dasharray:3.7,1.6;stroke-dashoffset:0;"/>
   </g>
   <g id="line2d_17">
    <path clip-path="url(#pbb3ffef241)" d="M 305.343383 262.415404 
L 305.343383 539.305897 
" style="fill:none;stroke:#000000;stroke-dasharray:3.7,1.6;stroke-dashoffset:0;"/>
   </g>
   <g id="line2d_18">
    <path clip-path="url(#pbb3ffef241)" d="M 314.333026 269.211247 
L 314.333026 535.700269 
" style="fill:none;stroke:#000000;stroke-dasharray:3.7,1.6;stroke-dashoffset:0;"/>
   </g>
   <g id="line2d_19">
    <path clip-path="url(#pbb3ffef241)" d="M 323.32267 270.148191 
L 323.32267 529.429599 
" style="fill:none;stroke:#000000;stroke-dasharray:3.7,1.6;stroke-dashoffset:0;"/>
   </g>
   <g id="line2d_20">
    <path clip-path="url(#pbb3ffef241)" d="M 332.312313 264.754841 
L 332.312313 524.781961 
" style="fill:none;stroke:#000000;stroke-dasharray:3.7,1.6;stroke-dashoffset:0;"/>
   </g>
   <g id="line2d_21">
    <path clip-path="url(#pbb3ffef241)" d="M 341.301956 267.932382 
L 341.301956 531.816957 
" style="fill:none;stroke:#000000;stroke-dasharray:3.7,1.6;stroke-dashoffset:0;"/>
   </g>
   <g id="line2d_22">
    <path clip-path="url(#pbb3ffef241)" d="M 350.2916 273.452866 
L 350.2916 534.50706 
" style="fill:none;stroke:#000000;stroke-dasharray:3.7,1.6;stroke-dashoffset:0;"/>
   </g>
   <g id="line2d_23">
    <path clip-path="url(#pbb3ffef241)" d="M 359.281243 272.975742 
L 359.281243 547.351531 
" style="fill:none;stroke:#000000;stroke-dasharray:3.7,1.6;stroke-dashoffset:0;"/>
   </g>
   <g id="line2d_24">
    <path clip-path="url(#pbb3ffef241)" d="M 368.270886 273.814036 
L 368.270886 555.669345 
" style="fill:none;stroke:#000000;stroke-dasharray:3.7,1.6;stroke-dashoffset:0;"/>
   </g>
   <g id="line2d_25">
    <path clip-path="url(#pbb3ffef241)" d="M 377.260529 272.649228 
L 377.260529 558.519063 
" style="fill:none;stroke:#000000;stroke-dasharray:3.7,1.6;stroke-dashoffset:0;"/>
   </g>
   <g id="line2d_26">
    <path clip-path="url(#pbb3ffef241)" d="M 386.250173 275.281446 
L 386.250173 558.89202 
" style="fill:none;stroke:#000000;stroke-dasharray:3.7,1.6;stroke-dashoffset:0;"/>
   </g>
   <g id="line2d_27">
    <path clip-path="url(#pbb3ffef241)" d="M 395.239816 272.428867 
L 395.239816 566.468473 
" style="fill:none;stroke:#000000;stroke-dasharray:3.7,1.6;stroke-dashoffset:0;"/>
   </g>
   <g id="line2d_28">
    <path clip-path="url(#pbb3ffef241)" d="M 404.229459 273.075089 
L 404.229459 553.300116 
" style="fill:none;stroke:#000000;stroke-dasharray:3.7,1.6;stroke-dashoffset:0;"/>
   </g>
   <g id="line2d_29">
    <path clip-path="url(#pbb3ffef241)" d="M 413.219102 272.542921 
L 413.219102 459.219458 
" style="fill:none;stroke:#000000;stroke-dasharray:3.7,1.6;stroke-dashoffset:0;"/>
   </g>
   <g id="line2d_30">
    <path clip-path="url(#pbb3ffef241)" d="M 422.208746 255.279872 
L 422.208746 345.197748 
" style="fill:none;stroke:#000000;stroke-dasharray:3.7,1.6;stroke-dashoffset:0;"/>
   </g>
   <g id="line2d_31">
    <path clip-path="url(#pbb3ffef241)" d="M 431.198389 222.29466 
L 431.198389 469.596667 
" style="fill:none;stroke:#000000;stroke-dasharray:3.7,1.6;stroke-dashoffset:0;"/>
   </g>
   <g id="line2d_32">
    <path clip-path="url(#pbb3ffef241)" d="M 440.188032 171.385137 
L 440.188032 580.513002 
" style="fill:none;stroke:#000000;stroke-dasharray:3.7,1.6;stroke-dashoffset:0;"/>
   </g>
   <g id="line2d_33">
    <path clip-path="url(#pbb3ffef241)" d="M 449.177675 111.109091 
L 449.177675 585.726077 
" style="fill:none;stroke:#000000;stroke-dasharray:3.7,1.6;stroke-dashoffset:0;"/>
   </g>
   <g id="line2d_34">
    <path clip-path="url(#pbb3ffef241)" d="M 458.167319 188.810802 
L 458.167319 580.786665 
" style="fill:none;stroke:#000000;stroke-dasharray:3.7,1.6;stroke-dashoffset:0;"/>
   </g>
   <g id="line2d_35">
    <path clip-path="url(#pbb3ffef241)" d="M 467.156962 329.469545 
L 467.156962 572.786167 
" style="fill:none;stroke:#000000;stroke-dasharray:3.7,1.6;stroke-dashoffset:0;"/>
   </g>
   <g id="line2d_36">
    <path clip-path="url(#pbb3ffef241)" d="M 476.146605 358.895054 
L 476.146605 573.689424 
" style="fill:none;stroke:#000000;stroke-dasharray:3.7,1.6;stroke-dashoffset:0;"/>
   </g>
   <g id="line2d_37">
    <path clip-path="url(#pbb3ffef241)" d="M 485.136249 350.512449 
L 485.136249 573.651447 
" style="fill:none;stroke:#000000;stroke-dasharray:3.7,1.6;stroke-dashoffset:0;"/>
   </g>
   <g id="line2d_38">
    <path clip-path="url(#pbb3ffef241)" d="M 494.125892 324.438685 
L 494.125892 575.917804 
" style="fill:none;stroke:#000000;stroke-dasharray:3.7,1.6;stroke-dashoffset:0;"/>
   </g>
   <g id="line2d_39">
    <path clip-path="url(#pbb3ffef241)" d="M 494.125892 324.438685 
L 494.125892 575.917804 
" style="fill:none;stroke:#000000;stroke-dasharray:3.7,1.6;stroke-dashoffset:0;"/>
   </g>
   <g id="line2d_40">
    <path clip-path="url(#pbb3ffef241)" d="M 494.125892 324.438685 
L 494.125892 575.917804 
" style="fill:none;stroke:#000000;stroke-dasharray:3.7,1.6;stroke-dashoffset:0;"/>
   </g>
   <g id="line2d_41">
    <path clip-path="url(#pbb3ffef241)" d="M 494.125892 324.438685 
L 494.125892 575.917804 
" style="fill:none;stroke:#000000;stroke-dasharray:3.7,1.6;stroke-dashoffset:0;"/>
   </g>
   <g id="line2d_42">
    <path clip-path="url(#pbb3ffef241)" d="M 494.125892 324.438685 
L 494.125892 575.917804 
" style="fill:none;stroke:#000000;stroke-dasharray:3.7,1.6;stroke-dashoffset:0;"/>
   </g>
   <g id="line2d_43">
    <path clip-path="url(#pbb3ffef241)" d="M 494.125892 324.438685 
L 494.125892 575.917804 
" style="fill:none;stroke:#000000;stroke-dasharray:3.7,1.6;stroke-dashoffset:0;"/>
   </g>
   <g id="line2d_44">
    <path clip-path="url(#pbb3ffef241)" d="M 494.125892 324.438685 
L 494.125892 575.917804 
" style="fill:none;stroke:#000000;stroke-dasharray:3.7,1.6;stroke-dashoffset:0;"/>
   </g>
   <g id="line2d_45">
    <path clip-path="url(#pbb3ffef241)" d="M 494.125892 324.438685 
L 494.125892 575.917804 
" style="fill:none;stroke:#000000;stroke-dasharray:3.7,1.6;stroke-dashoffset:0;"/>
   </g>
   <g id="line2d_46">
    <path clip-path="url(#pbb3ffef241)" d="M 494.125892 324.438685 
L 494.125892 575.917804 
" style="fill:none;stroke:#000000;stroke-dasharray:3.7,1.6;stroke-dashoffset:0;"/>
   </g>
   <g id="line2d_47">
    <path clip-path="url(#pbb3ffef241)" d="M 494.125892 324.438685 
L 494.125892 575.917804 
" style="fill:none;stroke:#000000;stroke-dasharray:3.7,1.6;stroke-dashoffset:0;"/>
   </g>
   <g id="line2d_48">
    <path clip-path="url(#pbb3ffef241)" d="M 494.125892 324.438685 
L 494.125892 575.917804 
" style="fill:none;stroke:#000000;stroke-dasharray:3.7,1.6;stroke-dashoffset:0;"/>
   </g>
   <g id="line2d_49">
    <path clip-path="url(#pbb3ffef241)" d="M 503.115535 280.488221 
L 503.115535 572.762011 
" style="fill:none;stroke:#000000;stroke-dasharray:3.7,1.6;stroke-dashoffset:0;"/>
   </g>
   <g id="line2d_50">
    <path clip-path="url(#pbb3ffef241)" d="M 503.115535 280.488221 
L 503.115535 572.762011 
" style="fill:none;stroke:#000000;stroke-dasharray:3.7,1.6;stroke-dashoffset:0;"/>
   </g>
   <g id="line2d_51">
    <path clip-path="url(#pbb3ffef241)" d="M 512.105178 262.00986 
L 512.105178 572.960092 
" style="fill:none;stroke:#000000;stroke-dasharray:3.7,1.6;stroke-dashoffset:0;"/>
   </g>
   <g id="line2d_52">
    <path clip-path="url(#pbb3ffef241)" d="M 521.094822 259.691983 
L 521.094822 568.774397 
" style="fill:none;stroke:#000000;stroke-dasharray:3.7,1.6;stroke-dashoffset:0;"/>
   </g>
   <g id="line2d_53">
    <path clip-path="url(#pbb3ffef241)" d="M 530.084465 255.122723 
L 530.084465 567.326692 
" style="fill:none;stroke:#000000;stroke-dasharray:3.7,1.6;stroke-dashoffset:0;"/>
   </g>
   <g id="line2d_54">
    <path clip-path="url(#pbb3ffef241)" d="M 539.074108 252.390548 
L 539.074108 562.834824 
" style="fill:none;stroke:#000000;stroke-dasharray:3.7,1.6;stroke-dashoffset:0;"/>
   </g>
   <g id="line2d_55">
    <path clip-path="url(#pbb3ffef241)" d="M 548.063751 250.729929 
L 548.063751 558.501332 
" style="fill:none;stroke:#000000;stroke-dasharray:3.7,1.6;stroke-dashoffset:0;"/>
   </g>
   <g id="line2d_56">
    <path clip-path="url(#pbb3ffef241)" d="M 557.053395 247.157208 
L 557.053395 552.191572 
" style="fill:none;stroke:#000000;stroke-dasharray:3.7,1.6;stroke-dashoffset:0;"/>
   </g>
   <g id="line2d_57">
    <path clip-path="url(#pbb3ffef241)" d="M 566.043038 246.022574 
L 566.043038 541.704369 
" style="fill:none;stroke:#000000;stroke-dasharray:3.7,1.6;stroke-dashoffset:0;"/>
   </g>
   <g id="line2d_58">
    <path clip-path="url(#pbb3ffef241)" d="M 575.032681 241.650696 
L 575.032681 529.57657 
" style="fill:none;stroke:#000000;stroke-dasharray:3.7,1.6;stroke-dashoffset:0;"/>
   </g>
   <g id="line2d_59">
    <path clip-path="url(#pbb3ffef241)" d="M 584.022325 240.608746 
L 584.022325 513.030092 
" style="fill:none;stroke:#000000;stroke-dasharray:3.7,1.6;stroke-dashoffset:0;"/>
   </g>
   <g id="line2d_60">
    <path clip-path="url(#pbb3ffef241)" d="M 593.011968 236.584967 
L 593.011968 498.649724 
" style="fill:none;stroke:#000000;stroke-dasharray:3.7,1.6;stroke-dashoffset:0;"/>
   </g>
   <g id="line2d_61">
    <path clip-path="url(#pbb3ffef241)" d="M 602.001611 236.087138 
L 602.001611 489.35182 
" style="fill:none;stroke:#000000;stroke-dasharray:3.7,1.6;stroke-dashoffset:0;"/>
   </g>
   <g id="line2d_62">
    <path clip-path="url(#pbb3ffef241)" d="M 610.991254 232.610085 
L 610.991254 482.639616 
" style="fill:none;stroke:#000000;stroke-dasharray:3.7,1.6;stroke-dashoffset:0;"/>
   </g>
   <g id="line2d_63">
    <path clip-path="url(#pbb3ffef241)" d="M 619.980898 229.477067 
L 619.980898 491.257734 
" style="fill:none;stroke:#000000;stroke-dasharray:3.7,1.6;stroke-dashoffset:0;"/>
   </g>
   <g id="line2d_64">
    <path clip-path="url(#pbb3ffef241)" d="M 628.970541 226.466816 
L 628.970541 505.617253 
" style="fill:none;stroke:#000000;stroke-dasharray:3.7,1.6;stroke-dashoffset:0;"/>
   </g>
   <g id="line2d_65">
    <path clip-path="url(#pbb3ffef241)" d="M 637.960184 221.189186 
L 637.960184 529.104118 
" style="fill:none;stroke:#000000;stroke-dasharray:3.7,1.6;stroke-dashoffset:0;"/>
   </g>
   <g id="line2d_66">
    <path clip-path="url(#pbb3ffef241)" d="M 646.949827 220.528158 
L 646.949827 549.437156 
" style="fill:none;stroke:#000000;stroke-dasharray:3.7,1.6;stroke-dashoffset:0;"/>
   </g>
   <g id="line2d_67">
    <path clip-path="url(#pbb3ffef241)" d="M 655.939471 213.828773 
L 655.939471 565.694299 
" style="fill:none;stroke:#000000;stroke-dasharray:3.7,1.6;stroke-dashoffset:0;"/>
   </g>
   <g id="line2d_68">
    <path clip-path="url(#pbb3ffef241)" d="M 664.929114 210.272815 
L 664.929114 575.219258 
" style="fill:none;stroke:#000000;stroke-dasharray:3.7,1.6;stroke-dashoffset:0;"/>
   </g>
   <g id="line2d_69">
    <path clip-path="url(#pbb3ffef241)" d="M 673.918757 203.216684 
L 673.918757 581.735581 
" style="fill:none;stroke:#000000;stroke-dasharray:3.7,1.6;stroke-dashoffset:0;"/>
   </g>
   <g id="line2d_70">
    <path clip-path="url(#pbb3ffef241)" d="M 682.9084 200.725245 
L 682.9084 581.963359 
" style="fill:none;stroke:#000000;stroke-dasharray:3.7,1.6;stroke-dashoffset:0;"/>
   </g>
   <g id="line2d_71">
    <path clip-path="url(#pbb3ffef241)" d="M 691.898044 193.999585 
L 691.898044 586.362692 
" style="fill:none;stroke:#000000;stroke-dasharray:3.7,1.6;stroke-dashoffset:0;"/>
   </g>
   <g id="line2d_72">
    <path clip-path="url(#pbb3ffef241)" d="M 700.887687 190.03462 
L 700.887687 585.559281 
" style="fill:none;stroke:#000000;stroke-dasharray:3.7,1.6;stroke-dashoffset:0;"/>
   </g>
   <g id="line2d_73">
    <path clip-path="url(#pbb3ffef241)" d="M 709.87733 186.735655 
L 709.87733 586.79151 
" style="fill:none;stroke:#000000;stroke-dasharray:3.7,1.6;stroke-dashoffset:0;"/>
   </g>
   <g id="line2d_74">
    <path clip-path="url(#pbb3ffef241)" d="M 718.866974 182.411542 
L 718.866974 588.98912 
" style="fill:none;stroke:#000000;stroke-dasharray:3.7,1.6;stroke-dashoffset:0;"/>
   </g>
   <g id="line2d_75">
    <path clip-path="url(#pbb3ffef241)" d="M 727.856617 181.678471 
L 727.856617 590.186879 
" style="fill:none;stroke:#000000;stroke-dasharray:3.7,1.6;stroke-dashoffset:0;"/>
   </g>
   <g id="line2d_76">
    <path clip-path="url(#pbb3ffef241)" d="M 736.84626 180.524795 
L 736.84626 591.377229 
" style="fill:none;stroke:#000000;stroke-dasharray:3.7,1.6;stroke-dashoffset:0;"/>
   </g>
   <g id="line2d_77">
    <path clip-path="url(#pbb3ffef241)" d="M 745.835903 184.448099 
L 745.835903 590.30592 
" style="fill:none;stroke:#000000;stroke-dasharray:3.7,1.6;stroke-dashoffset:0;"/>
   </g>
   <g id="line2d_78">
    <path clip-path="url(#pbb3ffef241)" d="M 754.825547 190.730738 
L 754.825547 590.733382 
" style="fill:none;stroke:#000000;stroke-dasharray:3.7,1.6;stroke-dashoffset:0;"/>
   </g>
   <g id="line2d_79">
    <path clip-path="url(#pbb3ffef241)" d="M 763.81519 202.111733 
L 763.81519 592.810019 
" style="fill:none;stroke:#000000;stroke-dasharray:3.7,1.6;stroke-dashoffset:0;"/>
   </g>
   <g id="line2d_80">
    <path clip-path="url(#pbb3ffef241)" d="M 772.804833 213.75921 
L 772.804833 593.660166 
" style="fill:none;stroke:#000000;stroke-dasharray:3.7,1.6;stroke-dashoffset:0;"/>
   </g>
   <g id="line2d_81">
    <path clip-path="url(#pbb3ffef241)" d="M 781.794476 228.6102 
L 781.794476 595.538885 
" style="fill:none;stroke:#000000;stroke-dasharray:3.7,1.6;stroke-dashoffset:0;"/>
   </g>
   <g id="line2d_82">
    <path clip-path="url(#pbb3ffef241)" d="M 790.78412 238.625745 
L 790.78412 596.443426 
" style="fill:none;stroke:#000000;stroke-dasharray:3.7,1.6;stroke-dashoffset:0;"/>
   </g>
   <g id="line2d_83">
    <path clip-path="url(#pbb3ffef241)" d="M 799.773763 248.190746 
L 799.773763 597.633712 
" style="fill:none;stroke:#000000;stroke-dasharray:3.7,1.6;stroke-dashoffset:0;"/>
   </g>
   <g id="line2d_84">
    <path clip-path="url(#pbb3ffef241)" d="M 808.763406 255.681048 
L 808.763406 599.323859 
" style="fill:none;stroke:#000000;stroke-dasharray:3.7,1.6;stroke-dashoffset:0;"/>
   </g>
   <g id="line2d_85">
    <path clip-path="url(#pbb3ffef241)" d="M 817.753049 259.039859 
L 817.753049 601.12771 
" style="fill:none;stroke:#000000;stroke-dasharray:3.7,1.6;stroke-dashoffset:0;"/>
   </g>
   <g id="line2d_86">
    <path clip-path="url(#pbb3ffef241)" d="M 826.742693 265.248681 
L 826.742693 602.073645 
" style="fill:none;stroke:#000000;stroke-dasharray:3.7,1.6;stroke-dashoffset:0;"/>
   </g>
   <g id="line2d_87">
    <path clip-path="url(#pbb3ffef241)" d="M 835.732336 264.769827 
L 835.732336 604.563872 
" style="fill:none;stroke:#000000;stroke-dasharray:3.7,1.6;stroke-dashoffset:0;"/>
   </g>
   <g id="line2d_88">
    <path clip-path="url(#pbb3ffef241)" d="M 844.721979 269.77085 
L 844.721979 603.868013 
" style="fill:none;stroke:#000000;stroke-dasharray:3.7,1.6;stroke-dashoffset:0;"/>
   </g>
   <g id="line2d_89">
    <path clip-path="url(#pbb3ffef241)" d="M 853.711623 267.860475 
L 853.711623 605.290909 
" style="fill:none;stroke:#000000;stroke-dasharray:3.7,1.6;stroke-dashoffset:0;"/>
   </g>
   <g id="line2d_90">
    <path clip-path="url(#pbb3ffef241)" d="M 862.701266 270.119001 
L 862.701266 604.145942 
" style="fill:none;stroke:#000000;stroke-dasharray:3.7,1.6;stroke-dashoffset:0;"/>
   </g>
   <g id="line2d_91">
    <path clip-path="url(#pbb3ffef241)" d="M 862.701266 270.119001 
L 862.701266 604.145942 
" style="fill:none;stroke:#000000;stroke-dasharray:3.7,1.6;stroke-dashoffset:0;"/>
   </g>
   <g id="line2d_92">
    <path clip-path="url(#pbb3ffef241)" d="M 862.701266 270.119001 
L 862.701266 604.145942 
" style="fill:none;stroke:#000000;stroke-dasharray:3.7,1.6;stroke-dashoffset:0;"/>
   </g>
   <g id="line2d_93">
    <path clip-path="url(#pbb3ffef241)" d="M 862.701266 270.119001 
L 862.701266 604.145942 
" style="fill:none;stroke:#000000;stroke-dasharray:3.7,1.6;stroke-dashoffset:0;"/>
   </g>
   <g id="line2d_94">
    <path clip-path="url(#pbb3ffef241)" d="M 862.701266 270.119001 
L 862.701266 604.145942 
" style="fill:none;stroke:#000000;stroke-dasharray:3.7,1.6;stroke-dashoffset:0;"/>
   </g>
   <g id="line2d_95">
    <path clip-path="url(#pbb3ffef241)" d="M 862.701266 270.119001 
L 862.701266 604.145942 
" style="fill:none;stroke:#000000;stroke-dasharray:3.7,1.6;stroke-dashoffset:0;"/>
   </g>
   <g id="line2d_96">
    <path clip-path="url(#pbb3ffef241)" d="M 862.701266 270.119001 
L 862.701266 604.145942 
" style="fill:none;stroke:#000000;stroke-dasharray:3.7,1.6;stroke-dashoffset:0;"/>
   </g>
   <g id="line2d_97">
    <path clip-path="url(#pbb3ffef241)" d="M 862.701266 270.119001 
L 862.701266 604.145942 
" style="fill:none;stroke:#000000;stroke-dasharray:3.7,1.6;stroke-dashoffset:0;"/>
   </g>
   <g id="line2d_98">
    <path clip-path="url(#pbb3ffef241)" d="M 862.701266 270.119001 
L 862.701266 604.145942 
" style="fill:none;stroke:#000000;stroke-dasharray:3.7,1.6;stroke-dashoffset:0;"/>
   </g>
   <g id="line2d_99">
    <path clip-path="url(#pbb3ffef241)" d="M 862.701266 270.119001 
L 862.701266 604.145942 
" style="fill:none;stroke:#000000;stroke-dasharray:3.7,1.6;stroke-dashoffset:0;"/>
   </g>
   <g id="line2d_100">
    <path clip-path="url(#pbb3ffef241)" d="M 862.701266 270.119001 
L 862.701266 604.145942 
" style="fill:none;stroke:#000000;stroke-dasharray:3.7,1.6;stroke-dashoffset:0;"/>
   </g>
   <g id="line2d_101">
    <path clip-path="url(#pbb3ffef241)" d="M 862.701266 270.119001 
L 862.701266 604.145942 
" style="fill:none;stroke:#000000;stroke-dasharray:3.7,1.6;stroke-dashoffset:0;"/>
   </g>
   <g id="line2d_102">
    <path clip-path="url(#pbb3ffef241)" d="M 862.701266 270.119001 
L 862.701266 604.145942 
" style="fill:none;stroke:#000000;stroke-dasharray:3.7,1.6;stroke-dashoffset:0;"/>
   </g>
   <g id="line2d_103">
    <path clip-path="url(#pbb3ffef241)" d="M 862.701266 270.119001 
L 862.701266 604.145942 
" style="fill:none;stroke:#000000;stroke-dasharray:3.7,1.6;stroke-dashoffset:0;"/>
   </g>
   <g id="line2d_104">
    <path clip-path="url(#pbb3ffef241)" d="M 862.701266 270.119001 
L 862.701266 604.145942 
" style="fill:none;stroke:#000000;stroke-dasharray:3.7,1.6;stroke-dashoffset:0;"/>
   </g>
   <g id="line2d_105">
    <path clip-path="url(#pbb3ffef241)" d="M 862.701266 270.119001 
L 862.701266 604.145942 
" style="fill:none;stroke:#000000;stroke-dasharray:3.7,1.6;stroke-dashoffset:0;"/>
   </g>
   <g id="line2d_106">
    <path clip-path="url(#pbb3ffef241)" d="M 862.701266 270.119001 
L 862.701266 604.145942 
" style="fill:none;stroke:#000000;stroke-dasharray:3.7,1.6;stroke-dashoffset:0;"/>
   </g>
   <g id="line2d_107">
    <path clip-path="url(#pbb3ffef241)" d="M 862.701266 270.119001 
L 862.701266 604.145942 
" style="fill:none;stroke:#000000;stroke-dasharray:3.7,1.6;stroke-dashoffset:0;"/>
   </g>
   <g id="line2d_108">
    <path clip-path="url(#pbb3ffef241)" d="M 862.701266 270.119001 
L 862.701266 604.145942 
" style="fill:none;stroke:#000000;stroke-dasharray:3.7,1.6;stroke-dashoffset:0;"/>
   </g>
   <g id="line2d_109">
    <path clip-path="url(#pbb3ffef241)" d="M 862.701266 270.119001 
L 862.701266 604.145942 
" style="fill:none;stroke:#000000;stroke-dasharray:3.7,1.6;stroke-dashoffset:0;"/>
   </g>
   <g id="line2d_110">
    <path clip-path="url(#pbb3ffef241)" d="M 862.701266 270.119001 
L 862.701266 604.145942 
" style="fill:none;stroke:#000000;stroke-dasharray:3.7,1.6;stroke-dashoffset:0;"/>
   </g>
   <g id="line2d_111">
    <path clip-path="url(#pbb3ffef241)" d="M 862.701266 270.119001 
L 862.701266 604.145942 
" style="fill:none;stroke:#000000;stroke-dasharray:3.7,1.6;stroke-dashoffset:0;"/>
   </g>
   <g id="line2d_112">
    <path clip-path="url(#pbb3ffef241)" d="M 871.690909 269.779658 
L 871.690909 600.4184 
" style="fill:none;stroke:#000000;stroke-dasharray:3.7,1.6;stroke-dashoffset:0;"/>
   </g>
   <g id="line2d_113">
    <path clip-path="url(#pbb3ffef241)" d="M 161.509091 263.105399 
L 170.498734 260.258442 
L 179.488377 261.039189 
L 188.478021 262.179546 
L 197.467664 260.996183 
L 206.457307 262.413485 
L 215.446951 261.973247 
L 224.436594 263.838399 
L 233.426237 262.734392 
L 242.41588 263.028539 
L 251.405524 262.770949 
L 260.395167 257.690959 
L 269.38481 258.533708 
L 278.374453 259.748086 
L 287.364097 265.598729 
L 296.35374 253.968465 
L 305.343383 262.415404 
L 314.333026 269.211247 
L 323.32267 270.148191 
L 332.312313 264.754841 
L 341.301956 267.932382 
L 350.2916 273.452866 
L 359.281243 272.975742 
L 368.270886 273.814036 
L 377.260529 272.649228 
L 386.250173 275.281446 
L 395.239816 272.428867 
L 404.229459 273.075089 
L 413.219102 272.542921 
L 422.208746 255.279872 
L 431.198389 222.29466 
L 440.188032 171.385137 
L 449.177675 111.109091 
L 458.167319 188.810802 
L 467.156962 329.469545 
L 476.146605 358.895054 
L 485.136249 350.512449 
L 494.125892 324.438685 
L 503.115535 280.488221 
L 512.105178 262.00986 
L 521.094822 259.691983 
L 530.084465 255.122723 
L 539.074108 252.390548 
L 548.063751 250.729929 
L 557.053395 247.157208 
L 566.043038 246.022574 
L 575.032681 241.650696 
L 584.022325 240.608746 
L 593.011968 236.584967 
L 602.001611 236.087138 
L 610.991254 232.610085 
L 619.980898 229.477067 
L 628.970541 226.466816 
L 637.960184 221.189186 
L 646.949827 220.528158 
L 655.939471 213.828773 
L 664.929114 210.272815 
L 673.918757 203.216684 
L 682.9084 200.725245 
L 691.898044 193.999585 
L 700.887687 190.03462 
L 709.87733 186.735655 
L 718.866974 182.411542 
L 727.856617 181.678471 
L 736.84626 180.524795 
L 745.835903 184.448099 
L 754.825547 190.730738 
L 763.81519 202.111733 
L 772.804833 213.75921 
L 781.794476 228.6102 
L 790.78412 238.625745 
L 799.773763 248.190746 
L 808.763406 255.681048 
L 817.753049 259.039859 
L 826.742693 265.248681 
L 835.732336 264.769827 
L 844.721979 269.77085 
L 853.711623 267.860475 
L 862.701266 270.119001 
L 871.690909 269.779658 
" style="fill:none;stroke:#1f77b4;stroke-linecap:square;stroke-width:10;"/>
   </g>
   <g id="line2d_114">
    <path clip-path="url(#pbb3ffef241)" d="M 161.509091 528.933651 
L 170.498734 523.886872 
L 179.488377 529.098063 
L 188.478021 528.70161 
L 197.467664 528.554566 
L 206.457307 529.17049 
L 215.446951 533.165917 
L 224.436594 535.57266 
L 233.426237 537.918762 
L 242.41588 537.719085 
L 251.405524 538.807914 
L 260.395167 542.290512 
L 269.38481 543.393635 
L 278.374453 545.019368 
L 287.364097 546.780719 
L 296.35374 544.270641 
L 305.343383 539.305897 
L 314.333026 535.700269 
L 323.32267 529.429599 
L 332.312313 524.781961 
L 341.301956 531.816957 
L 350.2916 534.50706 
L 359.281243 547.351531 
L 368.270886 555.669345 
L 377.260529 558.519063 
L 386.250173 558.89202 
L 395.239816 566.468473 
L 404.229459 553.300116 
L 413.219102 459.219458 
L 422.208746 345.197748 
L 431.198389 469.596667 
L 440.188032 580.513002 
L 449.177675 585.726077 
L 458.167319 580.786665 
L 467.156962 572.786167 
L 476.146605 573.689424 
L 485.136249 573.651447 
L 494.125892 575.917804 
L 503.115535 572.762011 
L 512.105178 572.960092 
L 521.094822 568.774397 
L 530.084465 567.326692 
L 539.074108 562.834824 
L 548.063751 558.501332 
L 557.053395 552.191572 
L 566.043038 541.704369 
L 575.032681 529.57657 
L 584.022325 513.030092 
L 593.011968 498.649724 
L 602.001611 489.35182 
L 610.991254 482.639616 
L 619.980898 491.257734 
L 628.970541 505.617253 
L 637.960184 529.104118 
L 646.949827 549.437156 
L 655.939471 565.694299 
L 664.929114 575.219258 
L 673.918757 581.735581 
L 682.9084 581.963359 
L 691.898044 586.362692 
L 700.887687 585.559281 
L 709.87733 586.79151 
L 718.866974 588.98912 
L 727.856617 590.186879 
L 736.84626 591.377229 
L 745.835903 590.30592 
L 754.825547 590.733382 
L 763.81519 592.810019 
L 772.804833 593.660166 
L 781.794476 595.538885 
L 790.78412 596.443426 
L 799.773763 597.633712 
L 808.763406 599.323859 
L 817.753049 601.12771 
L 826.742693 602.073645 
L 835.732336 604.563872 
L 844.721979 603.868013 
L 853.711623 605.290909 
L 862.701266 604.145942 
L 871.690909 600.4184 
" style="fill:none;stroke:#ff7f0e;stroke-linecap:square;stroke-width:10;"/>
   </g>
   <g id="text_1">
    <!-- ED Distance -->
    <g transform="translate(421.885625 80.4)scale(0.28 -0.28)">
     <defs>
      <path d="M 588 4666 
L 3834 4666 
L 3834 3756 
L 1791 3756 
L 1791 2888 
L 3713 2888 
L 3713 1978 
L 1791 1978 
L 1791 909 
L 3903 909 
L 3903 0 
L 588 0 
L 588 4666 
z
" id="DejaVuSans-Bold-45" transform="scale(0.015625)"/>
      <path d="M 1791 3756 
L 1791 909 
L 2222 909 
Q 2959 909 3348 1275 
Q 3738 1641 3738 2338 
Q 3738 3031 3350 3393 
Q 2963 3756 2222 3756 
L 1791 3756 
z
M 588 4666 
L 1856 4666 
Q 2919 4666 3439 4514 
Q 3959 4363 4331 4000 
Q 4659 3684 4818 3271 
Q 4978 2859 4978 2338 
Q 4978 1809 4818 1395 
Q 4659 981 4331 666 
Q 3956 303 3431 151 
Q 2906 0 1856 0 
L 588 0 
L 588 4666 
z
" id="DejaVuSans-Bold-44" transform="scale(0.015625)"/>
      <path id="DejaVuSans-Bold-20" transform="scale(0.015625)"/>
      <path d="M 538 3500 
L 1656 3500 
L 1656 0 
L 538 0 
L 538 3500 
z
M 538 4863 
L 1656 4863 
L 1656 3950 
L 538 3950 
L 538 4863 
z
" id="DejaVuSans-Bold-69" transform="scale(0.015625)"/>
      <path d="M 3272 3391 
L 3272 2541 
Q 2913 2691 2578 2766 
Q 2244 2841 1947 2841 
Q 1628 2841 1473 2761 
Q 1319 2681 1319 2516 
Q 1319 2381 1436 2309 
Q 1553 2238 1856 2203 
L 2053 2175 
Q 2913 2066 3209 1816 
Q 3506 1566 3506 1031 
Q 3506 472 3093 190 
Q 2681 -91 1863 -91 
Q 1516 -91 1145 -36 
Q 775 19 384 128 
L 384 978 
Q 719 816 1070 734 
Q 1422 653 1784 653 
Q 2113 653 2278 743 
Q 2444 834 2444 1013 
Q 2444 1163 2330 1236 
Q 2216 1309 1875 1350 
L 1678 1375 
Q 931 1469 631 1722 
Q 331 1975 331 2491 
Q 331 3047 712 3315 
Q 1094 3584 1881 3584 
Q 2191 3584 2531 3537 
Q 2872 3491 3272 3391 
z
" id="DejaVuSans-Bold-73" transform="scale(0.015625)"/>
      <path d="M 1759 4494 
L 1759 3500 
L 2913 3500 
L 2913 2700 
L 1759 2700 
L 1759 1216 
Q 1759 972 1856 886 
Q 1953 800 2241 800 
L 2816 800 
L 2816 0 
L 1856 0 
Q 1194 0 917 276 
Q 641 553 641 1216 
L 641 2700 
L 84 2700 
L 84 3500 
L 641 3500 
L 641 4494 
L 1759 4494 
z
" id="DejaVuSans-Bold-74" transform="scale(0.015625)"/>
      <path d="M 2106 1575 
Q 1756 1575 1579 1456 
Q 1403 1338 1403 1106 
Q 1403 894 1545 773 
Q 1688 653 1941 653 
Q 2256 653 2472 879 
Q 2688 1106 2688 1447 
L 2688 1575 
L 2106 1575 
z
M 3816 1997 
L 3816 0 
L 2688 0 
L 2688 519 
Q 2463 200 2181 54 
Q 1900 -91 1497 -91 
Q 953 -91 614 226 
Q 275 544 275 1050 
Q 275 1666 698 1953 
Q 1122 2241 2028 2241 
L 2688 2241 
L 2688 2328 
Q 2688 2594 2478 2717 
Q 2269 2841 1825 2841 
Q 1466 2841 1156 2769 
Q 847 2697 581 2553 
L 581 3406 
Q 941 3494 1303 3539 
Q 1666 3584 2028 3584 
Q 2975 3584 3395 3211 
Q 3816 2838 3816 1997 
z
" id="DejaVuSans-Bold-61" transform="scale(0.015625)"/>
      <path d="M 4056 2131 
L 4056 0 
L 2931 0 
L 2931 347 
L 2931 1631 
Q 2931 2084 2911 2256 
Q 2891 2428 2841 2509 
Q 2775 2619 2662 2680 
Q 2550 2741 2406 2741 
Q 2056 2741 1856 2470 
Q 1656 2200 1656 1722 
L 1656 0 
L 538 0 
L 538 3500 
L 1656 3500 
L 1656 2988 
Q 1909 3294 2193 3439 
Q 2478 3584 2822 3584 
Q 3428 3584 3742 3212 
Q 4056 2841 4056 2131 
z
" id="DejaVuSans-Bold-6e" transform="scale(0.015625)"/>
      <path d="M 3366 3391 
L 3366 2478 
Q 3138 2634 2908 2709 
Q 2678 2784 2431 2784 
Q 1963 2784 1702 2511 
Q 1441 2238 1441 1747 
Q 1441 1256 1702 982 
Q 1963 709 2431 709 
Q 2694 709 2930 787 
Q 3166 866 3366 1019 
L 3366 103 
Q 3103 6 2833 -42 
Q 2563 -91 2291 -91 
Q 1344 -91 809 395 
Q 275 881 275 1747 
Q 275 2613 809 3098 
Q 1344 3584 2291 3584 
Q 2566 3584 2833 3536 
Q 3100 3488 3366 3391 
z
" id="DejaVuSans-Bold-63" transform="scale(0.015625)"/>
      <path d="M 4031 1759 
L 4031 1441 
L 1416 1441 
Q 1456 1047 1700 850 
Q 1944 653 2381 653 
Q 2734 653 3104 758 
Q 3475 863 3866 1075 
L 3866 213 
Q 3469 63 3072 -14 
Q 2675 -91 2278 -91 
Q 1328 -91 801 392 
Q 275 875 275 1747 
Q 275 2603 792 3093 
Q 1309 3584 2216 3584 
Q 3041 3584 3536 3087 
Q 4031 2591 4031 1759 
z
M 2881 2131 
Q 2881 2450 2695 2645 
Q 2509 2841 2209 2841 
Q 1884 2841 1681 2658 
Q 1478 2475 1428 2131 
L 2881 2131 
z
" id="DejaVuSans-Bold-65" transform="scale(0.015625)"/>
     </defs>
     <use xlink:href="#DejaVuSans-Bold-45"/>
     <use x="68.310547" xlink:href="#DejaVuSans-Bold-44"/>
     <use x="151.318359" xlink:href="#DejaVuSans-Bold-20"/>
     <use x="186.132812" xlink:href="#DejaVuSans-Bold-44"/>
     <use x="269.140625" xlink:href="#DejaVuSans-Bold-69"/>
     <use x="303.417969" xlink:href="#DejaVuSans-Bold-73"/>
     <use x="362.939453" xlink:href="#DejaVuSans-Bold-74"/>
     <use x="410.742188" xlink:href="#DejaVuSans-Bold-61"/>
     <use x="478.222656" xlink:href="#DejaVuSans-Bold-6e"/>
     <use x="549.414062" xlink:href="#DejaVuSans-Bold-63"/>
     <use x="608.691406" xlink:href="#DejaVuSans-Bold-65"/>
    </g>
   </g>
  </g>
 </g>
 <defs>
  <clipPath id="pbb3ffef241">
   <rect height="543.6" width="781.2" x="126" y="86.4"/>
  </clipPath>
 </defs>
</svg>
