<?xml version="1.0" encoding="utf-8" standalone="no"?>
<!DOCTYPE svg PUBLIC "-//W3C//DTD SVG 1.1//EN"
  "http://www.w3.org/Graphics/SVG/1.1/DTD/svg11.dtd">
<svg height="288pt" version="1.1" viewBox="0 0 432 288" width="432pt" xmlns="http://www.w3.org/2000/svg" xmlns:xlink="http://www.w3.org/1999/xlink">
 <metadata>
  <rdf:RDF xmlns:cc="http://creativecommons.org/ns#" xmlns:dc="http://purl.org/dc/elements/1.1/" xmlns:rdf="http://www.w3.org/1999/02/22-rdf-syntax-ns#">
   <cc:Work>
    <dc:type rdf:resource="http://purl.org/dc/dcmitype/StillImage"/>
    <dc:date>2022-06-02T00:54:12.395673</dc:date>
    <dc:format>image/svg+xml</dc:format>
    <dc:creator>
     <cc:Agent>
      <dc:title>Matplotlib v3.4.2, https://matplotlib.org/</dc:title>
     </cc:Agent>
    </dc:creator>
   </cc:Work>
  </rdf:RDF>
 </metadata>
 <defs>
  <style type="text/css">*{stroke-linecap:butt;stroke-linejoin:round;}</style>
 </defs>
 <g id="figure_1">
  <g id="patch_1">
   <path d="M 0 288 
L 432 288 
L 432 0 
L 0 0 
z
" style="fill:none;"/>
  </g>
  <g id="axes_1">
   <g id="patch_2">
    <path d="M 54 252 
L 388.8 252 
L 388.8 34.56 
L 54 34.56 
z
" style="fill:#ffffff;"/>
   </g>
   <g id="matplotlib.axis_1">
    <g id="xtick_1">
     <g id="line2d_1">
      <defs>
       <path d="M 0 0 
L 0 3.5 
" id="m03a0173f84" style="stroke:#000000;stroke-width:0.8;"/>
      </defs>
      <g>
       <use style="stroke:#000000;stroke-width:0.8;" x="69.218182" xlink:href="#m03a0173f84" y="252"/>
      </g>
     </g>
     <g id="text_1">
      <!-- 0 -->
      <g transform="translate(66.036932 266.598437)scale(0.1 -0.1)">
       <defs>
        <path d="M 2034 4250 
Q 1547 4250 1301 3770 
Q 1056 3291 1056 2328 
Q 1056 1369 1301 889 
Q 1547 409 2034 409 
Q 2525 409 2770 889 
Q 3016 1369 3016 2328 
Q 3016 3291 2770 3770 
Q 2525 4250 2034 4250 
z
M 2034 4750 
Q 2819 4750 3233 4129 
Q 3647 3509 3647 2328 
Q 3647 1150 3233 529 
Q 2819 -91 2034 -91 
Q 1250 -91 836 529 
Q 422 1150 422 2328 
Q 422 3509 836 4129 
Q 1250 4750 2034 4750 
z
" id="DejaVuSans-30" transform="scale(0.015625)"/>
       </defs>
       <use xlink:href="#DejaVuSans-30"/>
      </g>
     </g>
    </g>
    <g id="xtick_2">
     <g id="line2d_2">
      <g>
       <use style="stroke:#000000;stroke-width:0.8;" x="130.151843" xlink:href="#m03a0173f84" y="252"/>
      </g>
     </g>
     <g id="text_2">
      <!-- 200 -->
      <g transform="translate(120.608093 266.598437)scale(0.1 -0.1)">
       <defs>
        <path d="M 1228 531 
L 3431 531 
L 3431 0 
L 469 0 
L 469 531 
Q 828 903 1448 1529 
Q 2069 2156 2228 2338 
Q 2531 2678 2651 2914 
Q 2772 3150 2772 3378 
Q 2772 3750 2511 3984 
Q 2250 4219 1831 4219 
Q 1534 4219 1204 4116 
Q 875 4013 500 3803 
L 500 4441 
Q 881 4594 1212 4672 
Q 1544 4750 1819 4750 
Q 2544 4750 2975 4387 
Q 3406 4025 3406 3419 
Q 3406 3131 3298 2873 
Q 3191 2616 2906 2266 
Q 2828 2175 2409 1742 
Q 1991 1309 1228 531 
z
" id="DejaVuSans-32" transform="scale(0.015625)"/>
       </defs>
       <use xlink:href="#DejaVuSans-32"/>
       <use x="63.623047" xlink:href="#DejaVuSans-30"/>
       <use x="127.246094" xlink:href="#DejaVuSans-30"/>
      </g>
     </g>
    </g>
    <g id="xtick_3">
     <g id="line2d_3">
      <g>
       <use style="stroke:#000000;stroke-width:0.8;" x="191.085504" xlink:href="#m03a0173f84" y="252"/>
      </g>
     </g>
     <g id="text_3">
      <!-- 400 -->
      <g transform="translate(181.541754 266.598437)scale(0.1 -0.1)">
       <defs>
        <path d="M 2419 4116 
L 825 1625 
L 2419 1625 
L 2419 4116 
z
M 2253 4666 
L 3047 4666 
L 3047 1625 
L 3713 1625 
L 3713 1100 
L 3047 1100 
L 3047 0 
L 2419 0 
L 2419 1100 
L 313 1100 
L 313 1709 
L 2253 4666 
z
" id="DejaVuSans-34" transform="scale(0.015625)"/>
       </defs>
       <use xlink:href="#DejaVuSans-34"/>
       <use x="63.623047" xlink:href="#DejaVuSans-30"/>
       <use x="127.246094" xlink:href="#DejaVuSans-30"/>
      </g>
     </g>
    </g>
    <g id="xtick_4">
     <g id="line2d_4">
      <g>
       <use style="stroke:#000000;stroke-width:0.8;" x="252.019165" xlink:href="#m03a0173f84" y="252"/>
      </g>
     </g>
     <g id="text_4">
      <!-- 600 -->
      <g transform="translate(242.475415 266.598437)scale(0.1 -0.1)">
       <defs>
        <path d="M 2113 2584 
Q 1688 2584 1439 2293 
Q 1191 2003 1191 1497 
Q 1191 994 1439 701 
Q 1688 409 2113 409 
Q 2538 409 2786 701 
Q 3034 994 3034 1497 
Q 3034 2003 2786 2293 
Q 2538 2584 2113 2584 
z
M 3366 4563 
L 3366 3988 
Q 3128 4100 2886 4159 
Q 2644 4219 2406 4219 
Q 1781 4219 1451 3797 
Q 1122 3375 1075 2522 
Q 1259 2794 1537 2939 
Q 1816 3084 2150 3084 
Q 2853 3084 3261 2657 
Q 3669 2231 3669 1497 
Q 3669 778 3244 343 
Q 2819 -91 2113 -91 
Q 1303 -91 875 529 
Q 447 1150 447 2328 
Q 447 3434 972 4092 
Q 1497 4750 2381 4750 
Q 2619 4750 2861 4703 
Q 3103 4656 3366 4563 
z
" id="DejaVuSans-36" transform="scale(0.015625)"/>
       </defs>
       <use xlink:href="#DejaVuSans-36"/>
       <use x="63.623047" xlink:href="#DejaVuSans-30"/>
       <use x="127.246094" xlink:href="#DejaVuSans-30"/>
      </g>
     </g>
    </g>
    <g id="xtick_5">
     <g id="line2d_5">
      <g>
       <use style="stroke:#000000;stroke-width:0.8;" x="312.952826" xlink:href="#m03a0173f84" y="252"/>
      </g>
     </g>
     <g id="text_5">
      <!-- 800 -->
      <g transform="translate(303.409076 266.598437)scale(0.1 -0.1)">
       <defs>
        <path d="M 2034 2216 
Q 1584 2216 1326 1975 
Q 1069 1734 1069 1313 
Q 1069 891 1326 650 
Q 1584 409 2034 409 
Q 2484 409 2743 651 
Q 3003 894 3003 1313 
Q 3003 1734 2745 1975 
Q 2488 2216 2034 2216 
z
M 1403 2484 
Q 997 2584 770 2862 
Q 544 3141 544 3541 
Q 544 4100 942 4425 
Q 1341 4750 2034 4750 
Q 2731 4750 3128 4425 
Q 3525 4100 3525 3541 
Q 3525 3141 3298 2862 
Q 3072 2584 2669 2484 
Q 3125 2378 3379 2068 
Q 3634 1759 3634 1313 
Q 3634 634 3220 271 
Q 2806 -91 2034 -91 
Q 1263 -91 848 271 
Q 434 634 434 1313 
Q 434 1759 690 2068 
Q 947 2378 1403 2484 
z
M 1172 3481 
Q 1172 3119 1398 2916 
Q 1625 2713 2034 2713 
Q 2441 2713 2670 2916 
Q 2900 3119 2900 3481 
Q 2900 3844 2670 4047 
Q 2441 4250 2034 4250 
Q 1625 4250 1398 4047 
Q 1172 3844 1172 3481 
z
" id="DejaVuSans-38" transform="scale(0.015625)"/>
       </defs>
       <use xlink:href="#DejaVuSans-38"/>
       <use x="63.623047" xlink:href="#DejaVuSans-30"/>
       <use x="127.246094" xlink:href="#DejaVuSans-30"/>
      </g>
     </g>
    </g>
    <g id="xtick_6">
     <g id="line2d_6">
      <g>
       <use style="stroke:#000000;stroke-width:0.8;" x="373.886486" xlink:href="#m03a0173f84" y="252"/>
      </g>
     </g>
     <g id="text_6">
      <!-- 1000 -->
      <g transform="translate(361.161486 266.598437)scale(0.1 -0.1)">
       <defs>
        <path d="M 794 531 
L 1825 531 
L 1825 4091 
L 703 3866 
L 703 4441 
L 1819 4666 
L 2450 4666 
L 2450 531 
L 3481 531 
L 3481 0 
L 794 0 
L 794 531 
z
" id="DejaVuSans-31" transform="scale(0.015625)"/>
       </defs>
       <use xlink:href="#DejaVuSans-31"/>
       <use x="63.623047" xlink:href="#DejaVuSans-30"/>
       <use x="127.246094" xlink:href="#DejaVuSans-30"/>
       <use x="190.869141" xlink:href="#DejaVuSans-30"/>
      </g>
     </g>
    </g>
   </g>
   <g id="matplotlib.axis_2">
    <g id="ytick_1">
     <g id="line2d_7">
      <defs>
       <path d="M 0 0 
L -3.5 0 
" id="m0633dad4ca" style="stroke:#000000;stroke-width:0.8;"/>
      </defs>
      <g>
       <use style="stroke:#000000;stroke-width:0.8;" x="54" xlink:href="#m0633dad4ca" y="230.979872"/>
      </g>
     </g>
     <g id="text_7">
      <!-- 4000 -->
      <g transform="translate(21.55 234.779091)scale(0.1 -0.1)">
       <use xlink:href="#DejaVuSans-34"/>
       <use x="63.623047" xlink:href="#DejaVuSans-30"/>
       <use x="127.246094" xlink:href="#DejaVuSans-30"/>
       <use x="190.869141" xlink:href="#DejaVuSans-30"/>
      </g>
     </g>
    </g>
    <g id="ytick_2">
     <g id="line2d_8">
      <g>
       <use style="stroke:#000000;stroke-width:0.8;" x="54" xlink:href="#m0633dad4ca" y="199.342112"/>
      </g>
     </g>
     <g id="text_8">
      <!-- 4500 -->
      <g transform="translate(21.55 203.14133)scale(0.1 -0.1)">
       <defs>
        <path d="M 691 4666 
L 3169 4666 
L 3169 4134 
L 1269 4134 
L 1269 2991 
Q 1406 3038 1543 3061 
Q 1681 3084 1819 3084 
Q 2600 3084 3056 2656 
Q 3513 2228 3513 1497 
Q 3513 744 3044 326 
Q 2575 -91 1722 -91 
Q 1428 -91 1123 -41 
Q 819 9 494 109 
L 494 744 
Q 775 591 1075 516 
Q 1375 441 1709 441 
Q 2250 441 2565 725 
Q 2881 1009 2881 1497 
Q 2881 1984 2565 2268 
Q 2250 2553 1709 2553 
Q 1456 2553 1204 2497 
Q 953 2441 691 2322 
L 691 4666 
z
" id="DejaVuSans-35" transform="scale(0.015625)"/>
       </defs>
       <use xlink:href="#DejaVuSans-34"/>
       <use x="63.623047" xlink:href="#DejaVuSans-35"/>
       <use x="127.246094" xlink:href="#DejaVuSans-30"/>
       <use x="190.869141" xlink:href="#DejaVuSans-30"/>
      </g>
     </g>
    </g>
    <g id="ytick_3">
     <g id="line2d_9">
      <g>
       <use style="stroke:#000000;stroke-width:0.8;" x="54" xlink:href="#m0633dad4ca" y="167.704351"/>
      </g>
     </g>
     <g id="text_9">
      <!-- 5000 -->
      <g transform="translate(21.55 171.50357)scale(0.1 -0.1)">
       <use xlink:href="#DejaVuSans-35"/>
       <use x="63.623047" xlink:href="#DejaVuSans-30"/>
       <use x="127.246094" xlink:href="#DejaVuSans-30"/>
       <use x="190.869141" xlink:href="#DejaVuSans-30"/>
      </g>
     </g>
    </g>
    <g id="ytick_4">
     <g id="line2d_10">
      <g>
       <use style="stroke:#000000;stroke-width:0.8;" x="54" xlink:href="#m0633dad4ca" y="136.066591"/>
      </g>
     </g>
     <g id="text_10">
      <!-- 5500 -->
      <g transform="translate(21.55 139.865809)scale(0.1 -0.1)">
       <use xlink:href="#DejaVuSans-35"/>
       <use x="63.623047" xlink:href="#DejaVuSans-35"/>
       <use x="127.246094" xlink:href="#DejaVuSans-30"/>
       <use x="190.869141" xlink:href="#DejaVuSans-30"/>
      </g>
     </g>
    </g>
    <g id="ytick_5">
     <g id="line2d_11">
      <g>
       <use style="stroke:#000000;stroke-width:0.8;" x="54" xlink:href="#m0633dad4ca" y="104.42883"/>
      </g>
     </g>
     <g id="text_11">
      <!-- 6000 -->
      <g transform="translate(21.55 108.228049)scale(0.1 -0.1)">
       <use xlink:href="#DejaVuSans-36"/>
       <use x="63.623047" xlink:href="#DejaVuSans-30"/>
       <use x="127.246094" xlink:href="#DejaVuSans-30"/>
       <use x="190.869141" xlink:href="#DejaVuSans-30"/>
      </g>
     </g>
    </g>
    <g id="ytick_6">
     <g id="line2d_12">
      <g>
       <use style="stroke:#000000;stroke-width:0.8;" x="54" xlink:href="#m0633dad4ca" y="72.79107"/>
      </g>
     </g>
     <g id="text_12">
      <!-- 6500 -->
      <g transform="translate(21.55 76.590288)scale(0.1 -0.1)">
       <use xlink:href="#DejaVuSans-36"/>
       <use x="63.623047" xlink:href="#DejaVuSans-35"/>
       <use x="127.246094" xlink:href="#DejaVuSans-30"/>
       <use x="190.869141" xlink:href="#DejaVuSans-30"/>
      </g>
     </g>
    </g>
    <g id="ytick_7">
     <g id="line2d_13">
      <g>
       <use style="stroke:#000000;stroke-width:0.8;" x="54" xlink:href="#m0633dad4ca" y="41.153309"/>
      </g>
     </g>
     <g id="text_13">
      <!-- 7000 -->
      <g transform="translate(21.55 44.952528)scale(0.1 -0.1)">
       <defs>
        <path d="M 525 4666 
L 3525 4666 
L 3525 4397 
L 1831 0 
L 1172 0 
L 2766 4134 
L 525 4134 
L 525 4666 
z
" id="DejaVuSans-37" transform="scale(0.015625)"/>
       </defs>
       <use xlink:href="#DejaVuSans-37"/>
       <use x="63.623047" xlink:href="#DejaVuSans-30"/>
       <use x="127.246094" xlink:href="#DejaVuSans-30"/>
       <use x="190.869141" xlink:href="#DejaVuSans-30"/>
      </g>
     </g>
    </g>
   </g>
   <g id="line2d_14">
    <path clip-path="url(#p6d31b1163c)" d="M 69.218182 242.116364 
L 69.827518 239.838445 
L 70.132187 238.826037 
L 70.741523 233.004689 
L 71.35086 222.121299 
L 71.960197 205.163459 
L 73.483538 140.369326 
L 74.702211 89.495807 
L 75.311548 72.79107 
L 75.920885 62.160782 
L 76.225553 58.870455 
L 76.530221 58.111149 
L 77.139558 60.64217 
L 77.444226 63.932497 
L 78.662899 85.952378 
L 79.881572 111.768791 
L 80.795577 128.72663 
L 82.318919 149.481001 
L 82.928256 154.543043 
L 83.232924 155.555451 
L 83.84226 159.09888 
L 84.146929 159.351982 
L 84.451597 160.111289 
L 84.756265 159.605084 
L 85.365602 159.605084 
L 85.67027 159.351982 
L 85.974939 158.845778 
L 86.279607 158.086472 
L 86.584275 156.820961 
L 86.888943 157.074064 
L 87.193612 155.808553 
L 87.49828 155.302349 
L 87.802948 155.808553 
L 88.107617 154.289941 
L 88.412285 155.302349 
L 88.716953 155.049247 
L 89.021622 156.061655 
L 89.630958 159.858186 
L 90.240295 163.90782 
L 90.849631 169.222964 
L 91.1543 170.235372 
L 92.372973 178.081536 
L 92.677641 178.587741 
L 92.98231 179.853251 
L 93.286978 180.359455 
L 93.591646 179.347047 
L 93.896314 180.106353 
L 94.200983 180.359455 
L 94.810319 178.840843 
L 95.114988 179.600149 
L 95.419656 179.347047 
L 95.724324 179.347047 
L 96.028993 178.334639 
L 96.333661 177.828434 
L 96.638329 176.05672 
L 96.942998 176.816026 
L 97.247666 177.069128 
L 97.552334 175.803618 
L 97.857002 176.562924 
L 98.161671 176.816026 
L 98.771007 175.803618 
L 99.380344 178.840843 
L 99.685012 179.347047 
L 99.989681 180.612557 
L 100.294349 181.118761 
L 100.599017 183.143578 
L 100.903686 184.155986 
L 101.81769 189.977334 
L 102.122359 190.483539 
L 102.731695 195.039376 
L 103.036364 196.051784 
L 103.341032 198.582805 
L 105.47371 207.441378 
L 105.778378 209.213093 
L 106.387715 210.984807 
L 106.692383 210.731705 
L 106.997052 211.997216 
L 107.30172 214.528237 
L 107.606388 214.528237 
L 107.911057 215.540645 
L 108.215725 216.046849 
L 109.12973 218.57787 
L 109.434398 218.324768 
L 109.739066 218.830972 
L 110.043735 219.084074 
L 110.348403 219.084074 
L 110.95774 221.361993 
L 111.262408 221.615095 
L 111.567076 222.374401 
L 112.176413 222.880605 
L 112.481081 223.386809 
L 112.785749 223.133707 
L 113.395086 223.639912 
L 113.699754 224.146116 
L 114.004423 224.905422 
L 114.309091 224.65232 
L 114.613759 225.158524 
L 114.918428 224.905422 
L 115.223096 226.170932 
L 115.527764 226.677137 
L 115.832432 226.677137 
L 116.137101 226.424034 
L 116.441769 226.677137 
L 116.746437 226.424034 
L 117.051106 225.91783 
L 117.355774 226.677137 
L 117.660442 226.170932 
L 117.965111 226.424034 
L 118.269779 225.664728 
L 118.574447 227.436443 
L 119.183784 227.436443 
L 119.488452 227.689545 
L 119.79312 228.701953 
L 120.097789 227.942647 
L 120.402457 227.942647 
L 120.707125 228.195749 
L 121.011794 229.461259 
L 121.316462 228.701953 
L 121.62113 228.448851 
L 121.925799 227.942647 
L 122.230467 229.461259 
L 122.535135 228.701953 
L 122.839803 229.208157 
L 123.144472 229.208157 
L 123.44914 230.220566 
L 123.753808 229.714362 
L 124.363145 231.232974 
L 124.667813 230.979872 
L 124.972482 231.739178 
L 125.27715 231.739178 
L 125.581818 231.99228 
L 125.886486 233.257791 
L 126.191155 233.257791 
L 126.495823 234.523301 
L 126.800491 234.523301 
L 127.10516 234.776403 
L 127.409828 235.282607 
L 128.019165 236.80122 
L 128.323833 237.054322 
L 128.628501 238.319832 
L 128.93317 238.06673 
L 129.237838 238.319832 
L 129.542506 239.079139 
L 129.847174 239.332241 
L 130.151843 240.344649 
L 130.456511 240.850853 
L 131.065848 241.357057 
L 131.370516 240.344649 
L 131.675184 241.103955 
L 132.284521 237.054322 
L 132.893857 230.220566 
L 133.503194 218.830972 
L 133.807862 211.237909 
L 134.721867 177.069128 
L 137.159214 81.396541 
L 137.76855 68.235232 
L 138.073219 64.185599 
L 138.377887 62.413884 
L 138.682555 63.426293 
L 138.987224 64.944905 
L 139.59656 70.006947 
L 140.205897 79.877928 
L 141.729238 113.034301 
L 143.25258 141.887939 
L 144.166585 154.289941 
L 144.471253 156.567859 
L 145.08059 162.642309 
L 145.385258 165.17333 
L 146.603931 168.463657 
L 146.9086 168.210555 
L 147.213268 168.463657 
L 147.517936 168.463657 
L 147.822604 168.210555 
L 148.127273 167.451249 
L 148.431941 166.185739 
L 148.736609 165.932636 
L 149.041278 165.426432 
L 149.345946 164.667126 
L 149.650614 164.667126 
L 149.955283 164.160922 
L 150.259951 165.426432 
L 150.564619 165.426432 
L 150.869287 166.691943 
L 151.173956 166.438841 
L 151.478624 168.210555 
L 151.783292 170.994678 
L 152.087961 172.007086 
L 152.697297 176.562924 
L 153.306634 179.347047 
L 153.611302 179.853251 
L 153.915971 181.118761 
L 154.220639 181.118761 
L 154.829975 183.39668 
L 155.74398 181.118761 
L 156.048649 180.865659 
L 156.353317 181.118761 
L 156.657985 179.347047 
L 156.962654 179.347047 
L 157.267322 178.587741 
L 157.57199 178.334639 
L 158.181327 175.044311 
L 158.485995 174.791209 
L 158.790663 174.791209 
L 159.4 173.778801 
L 159.704668 173.525699 
L 160.009337 173.019495 
L 160.314005 174.031903 
L 160.923342 174.031903 
L 161.22801 174.285005 
L 162.142015 178.081536 
L 162.751351 182.384272 
L 163.05602 183.39668 
L 163.665356 187.193212 
L 164.579361 192.255253 
L 164.884029 195.54558 
L 165.188698 196.051784 
L 165.493366 197.064193 
L 165.798034 199.595214 
L 166.102703 200.607622 
L 167.626044 207.947582 
L 167.930713 208.706889 
L 168.235381 208.959991 
L 168.540049 210.225501 
L 169.149386 213.262726 
L 169.454054 213.009624 
L 169.758722 214.528237 
L 170.063391 214.781339 
L 170.368059 215.793747 
L 170.672727 215.540645 
L 171.8914 219.590278 
L 172.196069 219.084074 
L 173.110074 221.108891 
L 173.414742 221.361993 
L 173.71941 221.361993 
L 174.024079 222.880605 
L 174.328747 222.627503 
L 174.633415 223.386809 
L 174.938084 223.133707 
L 175.242752 222.627503 
L 175.54742 223.639912 
L 175.852088 223.133707 
L 176.156757 224.905422 
L 176.461425 224.399218 
L 176.766093 224.905422 
L 177.37543 224.399218 
L 177.984767 225.411626 
L 178.289435 224.65232 
L 178.594103 224.399218 
L 178.898771 224.905422 
L 179.20344 224.399218 
L 179.508108 225.664728 
L 179.812776 225.91783 
L 180.117445 225.91783 
L 180.422113 224.905422 
L 180.726781 225.664728 
L 181.03145 225.158524 
L 181.336118 225.664728 
L 181.640786 225.664728 
L 181.945455 225.91783 
L 182.250123 226.424034 
L 182.554791 226.170932 
L 182.859459 226.424034 
L 183.164128 225.664728 
L 183.468796 226.677137 
L 183.773464 226.930239 
L 184.078133 226.424034 
L 184.382801 227.436443 
L 184.687469 226.930239 
L 184.992138 226.677137 
L 185.296806 227.689545 
L 185.601474 227.436443 
L 185.906143 227.942647 
L 186.210811 229.208157 
L 186.515479 228.955055 
L 186.820147 229.714362 
L 187.124816 230.979872 
L 187.734152 231.99228 
L 188.038821 232.245382 
L 188.648157 234.270199 
L 188.952826 233.510893 
L 189.257494 235.535709 
L 189.562162 236.80122 
L 189.86683 236.80122 
L 190.171499 237.307424 
L 190.476167 236.80122 
L 190.780835 238.06673 
L 191.085504 238.572934 
L 191.390172 238.06673 
L 191.69484 236.80122 
L 191.999509 237.560526 
L 192.913514 229.714362 
L 193.52285 218.071666 
L 194.132187 199.848316 
L 194.741523 177.069128 
L 197.17887 77.346907 
L 197.788206 63.932497 
L 198.092875 59.629761 
L 198.702211 56.592536 
L 199.311548 59.123557 
L 200.530221 77.600009 
L 201.748894 104.935034 
L 202.358231 116.071526 
L 202.967568 127.46112 
L 204.186241 144.418959 
L 205.100246 151.252716 
L 205.709582 155.049247 
L 206.014251 155.555451 
L 206.318919 155.808553 
L 206.623587 157.580268 
L 206.928256 157.580268 
L 207.232924 156.314757 
L 207.537592 156.061655 
L 207.84226 155.302349 
L 208.146929 154.036839 
L 208.451597 153.530634 
L 208.756265 152.265124 
L 209.060934 152.265124 
L 209.365602 150.746511 
L 209.67027 150.240307 
L 209.974939 150.493409 
L 210.279607 150.999614 
L 210.584275 150.493409 
L 210.888943 151.75892 
L 211.193612 152.518226 
L 211.49828 153.783736 
L 212.107617 158.086472 
L 212.412285 161.883003 
L 212.716953 163.148514 
L 213.021622 165.679534 
L 213.32629 166.945045 
L 213.630958 168.969861 
L 213.935627 171.753984 
L 214.240295 172.260189 
L 214.544963 174.031903 
L 214.849631 174.538107 
L 215.1543 174.538107 
L 215.458968 175.044311 
L 215.763636 175.044311 
L 216.372973 174.031903 
L 216.98231 174.538107 
L 217.286978 172.766393 
L 217.591646 173.525699 
L 217.896314 172.260189 
L 218.200983 171.753984 
L 218.505651 170.488474 
L 218.810319 170.488474 
L 219.114988 169.729168 
L 219.419656 169.98227 
L 219.724324 169.729168 
L 220.028993 169.98227 
L 220.333661 169.98227 
L 220.638329 170.994678 
L 220.942998 171.24778 
L 221.247666 172.260189 
L 221.552334 172.513291 
L 221.857002 173.272597 
L 222.466339 176.309822 
L 222.771007 177.575332 
L 223.075676 180.106353 
L 223.380344 181.118761 
L 224.294349 186.940109 
L 224.599017 187.952518 
L 226.427027 198.076601 
L 227.341032 201.366928 
L 228.255037 205.163459 
L 228.559705 205.922766 
L 228.864373 207.947582 
L 229.169042 208.200684 
L 230.083047 210.984807 
L 230.387715 211.237909 
L 230.692383 211.744114 
L 231.30172 213.009624 
L 231.606388 215.034441 
L 231.911057 213.76893 
L 232.520393 215.540645 
L 232.825061 215.287543 
L 233.12973 216.299951 
L 233.434398 216.299951 
L 233.739066 217.059257 
L 234.043735 217.312359 
L 234.348403 217.312359 
L 234.653071 217.818564 
L 234.95774 219.084074 
L 235.567076 217.818564 
L 235.871744 217.818564 
L 236.785749 219.337176 
L 237.090418 219.590278 
L 237.395086 220.096482 
L 237.699754 220.349584 
L 238.004423 220.349584 
L 238.309091 220.855789 
L 238.613759 220.096482 
L 238.918428 220.349584 
L 239.223096 221.108891 
L 239.527764 220.349584 
L 239.832432 220.096482 
L 240.137101 220.602687 
L 240.441769 220.096482 
L 240.746437 220.096482 
L 241.051106 220.602687 
L 241.355774 220.349584 
L 241.660442 220.855789 
L 241.965111 221.108891 
L 242.269779 221.615095 
L 242.574447 221.868197 
L 242.879115 221.361993 
L 243.183784 222.374401 
L 243.488452 221.868197 
L 243.79312 222.121299 
L 244.097789 222.121299 
L 244.402457 222.627503 
L 244.707125 222.627503 
L 245.011794 223.133707 
L 245.316462 223.893014 
L 245.62113 223.893014 
L 245.925799 223.639912 
L 246.230467 225.158524 
L 246.535135 225.411626 
L 246.839803 224.905422 
L 247.144472 225.664728 
L 247.44914 225.664728 
L 247.753808 226.677137 
L 248.058477 228.195749 
L 248.363145 228.195749 
L 248.667813 228.448851 
L 249.581818 231.486076 
L 249.886486 231.232974 
L 250.191155 233.004689 
L 250.495823 232.498484 
L 250.800491 233.004689 
L 251.10516 234.523301 
L 251.409828 234.270199 
L 251.714496 235.029505 
L 252.019165 234.523301 
L 252.93317 231.232974 
L 253.237838 228.955055 
L 253.542506 225.664728 
L 254.151843 214.275134 
L 254.761179 196.304887 
L 255.675184 158.086472 
L 257.198526 88.483399 
L 257.807862 67.98213 
L 258.417199 55.073924 
L 259.026536 49.252576 
L 259.331204 47.227759 
L 259.635872 47.733963 
L 259.940541 49.505678 
L 260.245209 52.036699 
L 263.901229 120.374261 
L 265.119902 134.294876 
L 265.729238 138.344509 
L 266.643243 141.887939 
L 266.947912 142.141041 
L 267.25258 142.141041 
L 267.557248 142.394143 
L 268.471253 138.091407 
L 268.775921 138.344509 
L 269.08059 136.066591 
L 269.385258 135.307284 
L 269.994595 132.776264 
L 270.299263 133.53557 
L 270.603931 133.029366 
L 271.213268 132.523161 
L 271.517936 133.029366 
L 271.822604 134.294876 
L 273.650614 150.999614 
L 273.955283 152.518226 
L 274.564619 158.845778 
L 275.173956 163.401616 
L 275.478624 163.654718 
L 275.783292 164.160922 
L 276.087961 163.90782 
L 276.392629 164.414024 
L 276.697297 165.17333 
L 277.001966 166.438841 
L 277.306634 166.691943 
L 277.611302 164.920228 
L 278.220639 163.148514 
L 278.525307 163.148514 
L 279.134644 161.883003 
L 279.439312 161.883003 
L 279.74398 161.376799 
L 280.048649 161.376799 
L 280.353317 160.617493 
L 280.657985 160.870595 
L 280.962654 159.858186 
L 281.267322 160.870595 
L 281.57199 161.376799 
L 281.876658 162.389207 
L 282.181327 162.389207 
L 282.485995 164.667126 
L 283.095332 166.945045 
L 283.4 167.451249 
L 283.704668 168.969861 
L 284.009337 172.260189 
L 284.923342 175.297414 
L 285.22801 179.093945 
L 285.532678 180.106353 
L 286.142015 183.39668 
L 286.446683 183.902884 
L 287.665356 190.989743 
L 287.970025 190.230437 
L 288.274693 192.255253 
L 288.579361 193.014559 
L 288.884029 194.786274 
L 289.188698 195.292478 
L 289.493366 196.304887 
L 290.407371 200.35452 
L 290.712039 200.860724 
L 291.016708 200.607622 
L 291.626044 202.379337 
L 291.930713 202.379337 
L 292.235381 204.657255 
L 292.540049 204.404153 
L 292.844717 205.922766 
L 293.149386 205.416562 
L 293.454054 205.163459 
L 294.063391 206.935174 
L 294.368059 206.682072 
L 294.672727 207.188276 
L 294.977396 208.200684 
L 295.282064 208.200684 
L 295.586732 207.69448 
L 297.110074 211.491012 
L 297.414742 210.731705 
L 297.71941 211.491012 
L 298.024079 211.744114 
L 298.328747 211.237909 
L 298.633415 211.237909 
L 298.938084 211.491012 
L 299.242752 213.009624 
L 299.54742 212.50342 
L 299.852088 212.756522 
L 300.156757 214.022032 
L 300.461425 213.262726 
L 300.766093 213.515828 
L 301.070762 212.250318 
L 301.37543 212.756522 
L 301.680098 214.528237 
L 301.984767 214.022032 
L 302.289435 213.76893 
L 302.594103 213.76893 
L 302.898771 215.034441 
L 303.20344 213.76893 
L 303.508108 214.781339 
L 303.812776 215.034441 
L 304.117445 214.781339 
L 304.422113 214.781339 
L 304.726781 215.540645 
L 305.03145 215.793747 
L 305.640786 215.793747 
L 306.250123 217.565462 
L 306.554791 217.312359 
L 306.859459 216.806155 
L 307.164128 217.059257 
L 307.468796 218.830972 
L 307.773464 218.324768 
L 308.078133 219.084074 
L 308.382801 220.349584 
L 308.687469 220.349584 
L 309.296806 221.361993 
L 309.601474 221.615095 
L 310.210811 223.893014 
L 310.515479 224.146116 
L 310.820147 225.158524 
L 311.124816 225.411626 
L 311.429484 225.411626 
L 311.734152 225.664728 
L 312.343489 227.183341 
L 312.648157 226.930239 
L 312.952826 227.436443 
L 313.257494 228.701953 
L 313.86683 228.195749 
L 314.171499 226.170932 
L 314.476167 225.411626 
L 314.780835 223.893014 
L 315.69484 209.466195 
L 316.608845 181.371864 
L 318.132187 112.274995 
L 318.741523 85.699276 
L 319.35086 64.944905 
L 319.960197 52.036699 
L 320.874201 44.443636 
L 321.17887 45.962249 
L 321.788206 51.783597 
L 322.397543 60.895272 
L 324.225553 98.607482 
L 325.139558 113.540505 
L 325.748894 121.639772 
L 326.053563 124.676997 
L 326.358231 128.979732 
L 326.662899 129.739039 
L 327.272236 135.054182 
L 328.186241 137.585203 
L 328.490909 137.332101 
L 328.795577 138.344509 
L 329.100246 138.091407 
L 329.404914 136.825897 
L 329.709582 138.091407 
L 330.014251 136.572795 
L 330.318919 136.066591 
L 330.623587 135.054182 
L 330.928256 134.80108 
L 331.537592 131.510753 
L 331.84226 130.498345 
L 332.756265 131.257651 
L 333.060934 132.016957 
L 333.365602 133.282468 
L 333.67027 134.041774 
L 334.279607 138.597611 
L 334.584275 143.153449 
L 335.193612 148.215491 
L 335.49828 151.75892 
L 335.802948 153.277532 
L 336.412285 157.327166 
L 337.021622 160.870595 
L 337.32629 160.870595 
L 337.630958 162.389207 
L 337.935627 162.895411 
L 338.544963 162.895411 
L 338.849631 162.136105 
L 339.1543 162.895411 
L 339.458968 161.883003 
L 339.763636 161.883003 
L 340.068305 161.376799 
L 340.372973 160.364391 
L 340.677641 161.123697 
L 341.286978 157.83337 
L 341.591646 158.339574 
L 341.896314 158.592676 
L 342.200983 158.592676 
L 342.505651 158.086472 
L 342.810319 159.09888 
L 343.114988 158.845778 
L 343.419656 160.617493 
L 343.724324 159.858186 
L 344.028993 162.389207 
L 344.942998 165.679534 
L 347.685012 181.624966 
L 347.989681 181.624966 
L 348.294349 184.155986 
L 348.599017 185.168395 
L 349.208354 189.218028 
L 349.81769 190.483539 
L 350.122359 190.736641 
L 350.731695 193.773866 
L 351.036364 194.533172 
L 351.341032 196.557989 
L 351.6457 196.811091 
L 352.255037 198.076601 
L 352.559705 200.35452 
L 352.864373 200.101418 
L 353.169042 201.113826 
L 353.47371 201.113826 
L 353.778378 202.632439 
L 354.387715 202.126234 
L 354.692383 203.897949 
L 354.997052 204.657255 
L 355.30172 204.151051 
L 355.911057 205.922766 
L 356.215725 206.175868 
L 356.825061 207.441378 
L 357.12973 207.441378 
L 357.434398 209.213093 
L 357.739066 209.213093 
L 358.043735 209.972399 
L 358.348403 209.719297 
L 358.653071 208.959991 
L 358.95774 209.719297 
L 359.262408 210.984807 
L 359.567076 210.984807 
L 359.871744 210.478603 
L 360.176413 211.491012 
L 360.481081 210.731705 
L 361.395086 212.250318 
L 361.699754 211.491012 
L 362.309091 212.756522 
L 362.613759 212.50342 
L 362.918428 212.756522 
L 363.223096 212.756522 
L 363.527764 213.009624 
L 363.832432 213.515828 
L 364.137101 212.756522 
L 364.441769 213.009624 
L 364.746437 214.022032 
L 365.051106 213.515828 
L 365.355774 214.528237 
L 365.660442 214.528237 
L 366.269779 214.022032 
L 366.574447 213.262726 
L 367.183784 216.046849 
L 367.488452 215.287543 
L 367.79312 216.553053 
L 368.097789 217.059257 
L 368.402457 217.818564 
L 368.707125 217.565462 
L 369.011794 217.565462 
L 369.925799 219.084074 
L 370.230467 219.84338 
L 370.535135 221.108891 
L 370.839803 221.108891 
L 371.144472 221.615095 
L 371.44914 222.627503 
L 371.753808 223.133707 
L 372.058477 222.627503 
L 372.363145 225.158524 
L 372.667813 224.905422 
L 372.972482 225.411626 
L 373.581818 227.942647 
L 373.581818 227.942647 
" style="fill:none;stroke:#1f77b4;stroke-linecap:square;stroke-width:1.5;"/>
   </g>
   <g id="patch_3">
    <path d="M 54 252 
L 54 34.56 
" style="fill:none;stroke:#000000;stroke-linecap:square;stroke-linejoin:miter;stroke-width:0.8;"/>
   </g>
   <g id="patch_4">
    <path d="M 388.8 252 
L 388.8 34.56 
" style="fill:none;stroke:#000000;stroke-linecap:square;stroke-linejoin:miter;stroke-width:0.8;"/>
   </g>
   <g id="patch_5">
    <path d="M 54 252 
L 388.8 252 
" style="fill:none;stroke:#000000;stroke-linecap:square;stroke-linejoin:miter;stroke-width:0.8;"/>
   </g>
   <g id="patch_6">
    <path d="M 54 34.56 
L 388.8 34.56 
" style="fill:none;stroke:#000000;stroke-linecap:square;stroke-linejoin:miter;stroke-width:0.8;"/>
   </g>
  </g>
 </g>
 <defs>
  <clipPath id="p6d31b1163c">
   <rect height="217.44" width="334.8" x="54" y="34.56"/>
  </clipPath>
 </defs>
</svg>
