<?xml version="1.0" encoding="utf-8" standalone="no"?>
<!DOCTYPE svg PUBLIC "-//W3C//DTD SVG 1.1//EN"
  "http://www.w3.org/Graphics/SVG/1.1/DTD/svg11.dtd">
<svg height="358.56pt" version="1.1" viewBox="0 0 1337.04 358.56" width="1337.04pt" xmlns="http://www.w3.org/2000/svg" xmlns:xlink="http://www.w3.org/1999/xlink">
 <metadata>
  <rdf:RDF xmlns:cc="http://creativecommons.org/ns#" xmlns:dc="http://purl.org/dc/elements/1.1/" xmlns:rdf="http://www.w3.org/1999/02/22-rdf-syntax-ns#">
   <cc:Work>
    <dc:type rdf:resource="http://purl.org/dc/dcmitype/StillImage"/>
    <dc:date>2022-06-19T15:55:41.526350</dc:date>
    <dc:format>image/svg+xml</dc:format>
    <dc:creator>
     <cc:Agent>
      <dc:title>Matplotlib v3.4.2, https://matplotlib.org/</dc:title>
     </cc:Agent>
    </dc:creator>
   </cc:Work>
  </rdf:RDF>
 </metadata>
 <defs>
  <style type="text/css">*{stroke-linecap:butt;stroke-linejoin:round;}</style>
 </defs>
 <g id="figure_1">
  <g id="patch_1">
   <path d="M 0 358.56 
L 1337.04 358.56 
L 1337.04 0 
L 0 0 
z
" style="fill:#ffffff;"/>
  </g>
  <g id="axes_1">
   <g id="patch_2">
    <path d="M 38.86 330.68 
L 1326.24 330.68 
L 1326.24 10.8 
L 38.86 10.8 
z
" style="fill:#ffffff;"/>
   </g>
   <g id="matplotlib.axis_1">
    <g id="xtick_1">
     <g id="line2d_1">
      <defs>
       <path d="M 0 0 
L 0 3.5 
" id="m591217bcae" style="stroke:#000000;stroke-width:0.8;"/>
      </defs>
      <g>
       <use style="stroke:#000000;stroke-width:0.8;" x="111.264839" xlink:href="#m591217bcae" y="330.68"/>
      </g>
     </g>
     <g id="text_1">
      <!-- 46600 -->
      <g transform="translate(95.358589 345.278438)scale(0.1 -0.1)">
       <defs>
        <path d="M 2419 4116 
L 825 1625 
L 2419 1625 
L 2419 4116 
z
M 2253 4666 
L 3047 4666 
L 3047 1625 
L 3713 1625 
L 3713 1100 
L 3047 1100 
L 3047 0 
L 2419 0 
L 2419 1100 
L 313 1100 
L 313 1709 
L 2253 4666 
z
" id="DejaVuSans-34" transform="scale(0.015625)"/>
        <path d="M 2113 2584 
Q 1688 2584 1439 2293 
Q 1191 2003 1191 1497 
Q 1191 994 1439 701 
Q 1688 409 2113 409 
Q 2538 409 2786 701 
Q 3034 994 3034 1497 
Q 3034 2003 2786 2293 
Q 2538 2584 2113 2584 
z
M 3366 4563 
L 3366 3988 
Q 3128 4100 2886 4159 
Q 2644 4219 2406 4219 
Q 1781 4219 1451 3797 
Q 1122 3375 1075 2522 
Q 1259 2794 1537 2939 
Q 1816 3084 2150 3084 
Q 2853 3084 3261 2657 
Q 3669 2231 3669 1497 
Q 3669 778 3244 343 
Q 2819 -91 2113 -91 
Q 1303 -91 875 529 
Q 447 1150 447 2328 
Q 447 3434 972 4092 
Q 1497 4750 2381 4750 
Q 2619 4750 2861 4703 
Q 3103 4656 3366 4563 
z
" id="DejaVuSans-36" transform="scale(0.015625)"/>
        <path d="M 2034 4250 
Q 1547 4250 1301 3770 
Q 1056 3291 1056 2328 
Q 1056 1369 1301 889 
Q 1547 409 2034 409 
Q 2525 409 2770 889 
Q 3016 1369 3016 2328 
Q 3016 3291 2770 3770 
Q 2525 4250 2034 4250 
z
M 2034 4750 
Q 2819 4750 3233 4129 
Q 3647 3509 3647 2328 
Q 3647 1150 3233 529 
Q 2819 -91 2034 -91 
Q 1250 -91 836 529 
Q 422 1150 422 2328 
Q 422 3509 836 4129 
Q 1250 4750 2034 4750 
z
" id="DejaVuSans-30" transform="scale(0.015625)"/>
       </defs>
       <use xlink:href="#DejaVuSans-34"/>
       <use x="63.623047" xlink:href="#DejaVuSans-36"/>
       <use x="127.246094" xlink:href="#DejaVuSans-36"/>
       <use x="190.869141" xlink:href="#DejaVuSans-30"/>
       <use x="254.492188" xlink:href="#DejaVuSans-30"/>
      </g>
     </g>
    </g>
    <g id="xtick_2">
     <g id="line2d_2">
      <g>
       <use style="stroke:#000000;stroke-width:0.8;" x="300.153633" xlink:href="#m591217bcae" y="330.68"/>
      </g>
     </g>
     <g id="text_2">
      <!-- 46800 -->
      <g transform="translate(284.247383 345.278438)scale(0.1 -0.1)">
       <defs>
        <path d="M 2034 2216 
Q 1584 2216 1326 1975 
Q 1069 1734 1069 1313 
Q 1069 891 1326 650 
Q 1584 409 2034 409 
Q 2484 409 2743 651 
Q 3003 894 3003 1313 
Q 3003 1734 2745 1975 
Q 2488 2216 2034 2216 
z
M 1403 2484 
Q 997 2584 770 2862 
Q 544 3141 544 3541 
Q 544 4100 942 4425 
Q 1341 4750 2034 4750 
Q 2731 4750 3128 4425 
Q 3525 4100 3525 3541 
Q 3525 3141 3298 2862 
Q 3072 2584 2669 2484 
Q 3125 2378 3379 2068 
Q 3634 1759 3634 1313 
Q 3634 634 3220 271 
Q 2806 -91 2034 -91 
Q 1263 -91 848 271 
Q 434 634 434 1313 
Q 434 1759 690 2068 
Q 947 2378 1403 2484 
z
M 1172 3481 
Q 1172 3119 1398 2916 
Q 1625 2713 2034 2713 
Q 2441 2713 2670 2916 
Q 2900 3119 2900 3481 
Q 2900 3844 2670 4047 
Q 2441 4250 2034 4250 
Q 1625 4250 1398 4047 
Q 1172 3844 1172 3481 
z
" id="DejaVuSans-38" transform="scale(0.015625)"/>
       </defs>
       <use xlink:href="#DejaVuSans-34"/>
       <use x="63.623047" xlink:href="#DejaVuSans-36"/>
       <use x="127.246094" xlink:href="#DejaVuSans-38"/>
       <use x="190.869141" xlink:href="#DejaVuSans-30"/>
       <use x="254.492188" xlink:href="#DejaVuSans-30"/>
      </g>
     </g>
    </g>
    <g id="xtick_3">
     <g id="line2d_3">
      <g>
       <use style="stroke:#000000;stroke-width:0.8;" x="489.042427" xlink:href="#m591217bcae" y="330.68"/>
      </g>
     </g>
     <g id="text_3">
      <!-- 47000 -->
      <g transform="translate(473.136177 345.278438)scale(0.1 -0.1)">
       <defs>
        <path d="M 525 4666 
L 3525 4666 
L 3525 4397 
L 1831 0 
L 1172 0 
L 2766 4134 
L 525 4134 
L 525 4666 
z
" id="DejaVuSans-37" transform="scale(0.015625)"/>
       </defs>
       <use xlink:href="#DejaVuSans-34"/>
       <use x="63.623047" xlink:href="#DejaVuSans-37"/>
       <use x="127.246094" xlink:href="#DejaVuSans-30"/>
       <use x="190.869141" xlink:href="#DejaVuSans-30"/>
       <use x="254.492188" xlink:href="#DejaVuSans-30"/>
      </g>
     </g>
    </g>
    <g id="xtick_4">
     <g id="line2d_4">
      <g>
       <use style="stroke:#000000;stroke-width:0.8;" x="677.93122" xlink:href="#m591217bcae" y="330.68"/>
      </g>
     </g>
     <g id="text_4">
      <!-- 47200 -->
      <g transform="translate(662.02497 345.278438)scale(0.1 -0.1)">
       <defs>
        <path d="M 1228 531 
L 3431 531 
L 3431 0 
L 469 0 
L 469 531 
Q 828 903 1448 1529 
Q 2069 2156 2228 2338 
Q 2531 2678 2651 2914 
Q 2772 3150 2772 3378 
Q 2772 3750 2511 3984 
Q 2250 4219 1831 4219 
Q 1534 4219 1204 4116 
Q 875 4013 500 3803 
L 500 4441 
Q 881 4594 1212 4672 
Q 1544 4750 1819 4750 
Q 2544 4750 2975 4387 
Q 3406 4025 3406 3419 
Q 3406 3131 3298 2873 
Q 3191 2616 2906 2266 
Q 2828 2175 2409 1742 
Q 1991 1309 1228 531 
z
" id="DejaVuSans-32" transform="scale(0.015625)"/>
       </defs>
       <use xlink:href="#DejaVuSans-34"/>
       <use x="63.623047" xlink:href="#DejaVuSans-37"/>
       <use x="127.246094" xlink:href="#DejaVuSans-32"/>
       <use x="190.869141" xlink:href="#DejaVuSans-30"/>
       <use x="254.492188" xlink:href="#DejaVuSans-30"/>
      </g>
     </g>
    </g>
    <g id="xtick_5">
     <g id="line2d_5">
      <g>
       <use style="stroke:#000000;stroke-width:0.8;" x="866.820014" xlink:href="#m591217bcae" y="330.68"/>
      </g>
     </g>
     <g id="text_5">
      <!-- 47400 -->
      <g transform="translate(850.913764 345.278438)scale(0.1 -0.1)">
       <use xlink:href="#DejaVuSans-34"/>
       <use x="63.623047" xlink:href="#DejaVuSans-37"/>
       <use x="127.246094" xlink:href="#DejaVuSans-34"/>
       <use x="190.869141" xlink:href="#DejaVuSans-30"/>
       <use x="254.492188" xlink:href="#DejaVuSans-30"/>
      </g>
     </g>
    </g>
    <g id="xtick_6">
     <g id="line2d_6">
      <g>
       <use style="stroke:#000000;stroke-width:0.8;" x="1055.708807" xlink:href="#m591217bcae" y="330.68"/>
      </g>
     </g>
     <g id="text_6">
      <!-- 47600 -->
      <g transform="translate(1039.802557 345.278438)scale(0.1 -0.1)">
       <use xlink:href="#DejaVuSans-34"/>
       <use x="63.623047" xlink:href="#DejaVuSans-37"/>
       <use x="127.246094" xlink:href="#DejaVuSans-36"/>
       <use x="190.869141" xlink:href="#DejaVuSans-30"/>
       <use x="254.492188" xlink:href="#DejaVuSans-30"/>
      </g>
     </g>
    </g>
    <g id="xtick_7">
     <g id="line2d_7">
      <g>
       <use style="stroke:#000000;stroke-width:0.8;" x="1244.597601" xlink:href="#m591217bcae" y="330.68"/>
      </g>
     </g>
     <g id="text_7">
      <!-- 47800 -->
      <g transform="translate(1228.691351 345.278438)scale(0.1 -0.1)">
       <use xlink:href="#DejaVuSans-34"/>
       <use x="63.623047" xlink:href="#DejaVuSans-37"/>
       <use x="127.246094" xlink:href="#DejaVuSans-38"/>
       <use x="190.869141" xlink:href="#DejaVuSans-30"/>
       <use x="254.492188" xlink:href="#DejaVuSans-30"/>
      </g>
     </g>
    </g>
   </g>
   <g id="matplotlib.axis_2">
    <g id="ytick_1">
     <g id="line2d_8">
      <defs>
       <path d="M 0 0 
L -3.5 0 
" id="m185bfe74bb" style="stroke:#000000;stroke-width:0.8;"/>
      </defs>
      <g>
       <use style="stroke:#000000;stroke-width:0.8;" x="38.86" xlink:href="#m185bfe74bb" y="320.52106"/>
      </g>
     </g>
     <g id="text_8">
      <!-- −8 -->
      <g transform="translate(17.117812 324.320279)scale(0.1 -0.1)">
       <defs>
        <path d="M 678 2272 
L 4684 2272 
L 4684 1741 
L 678 1741 
L 678 2272 
z
" id="DejaVuSans-2212" transform="scale(0.015625)"/>
       </defs>
       <use xlink:href="#DejaVuSans-2212"/>
       <use x="83.789062" xlink:href="#DejaVuSans-38"/>
      </g>
     </g>
    </g>
    <g id="ytick_2">
     <g id="line2d_9">
      <g>
       <use style="stroke:#000000;stroke-width:0.8;" x="38.86" xlink:href="#m185bfe74bb" y="261.3883"/>
      </g>
     </g>
     <g id="text_9">
      <!-- −7 -->
      <g transform="translate(17.117812 265.187519)scale(0.1 -0.1)">
       <use xlink:href="#DejaVuSans-2212"/>
       <use x="83.789062" xlink:href="#DejaVuSans-37"/>
      </g>
     </g>
    </g>
    <g id="ytick_3">
     <g id="line2d_10">
      <g>
       <use style="stroke:#000000;stroke-width:0.8;" x="38.86" xlink:href="#m185bfe74bb" y="202.255541"/>
      </g>
     </g>
     <g id="text_10">
      <!-- −6 -->
      <g transform="translate(17.117812 206.05476)scale(0.1 -0.1)">
       <use xlink:href="#DejaVuSans-2212"/>
       <use x="83.789062" xlink:href="#DejaVuSans-36"/>
      </g>
     </g>
    </g>
    <g id="ytick_4">
     <g id="line2d_11">
      <g>
       <use style="stroke:#000000;stroke-width:0.8;" x="38.86" xlink:href="#m185bfe74bb" y="143.122781"/>
      </g>
     </g>
     <g id="text_11">
      <!-- −5 -->
      <g transform="translate(17.117812 146.922)scale(0.1 -0.1)">
       <defs>
        <path d="M 691 4666 
L 3169 4666 
L 3169 4134 
L 1269 4134 
L 1269 2991 
Q 1406 3038 1543 3061 
Q 1681 3084 1819 3084 
Q 2600 3084 3056 2656 
Q 3513 2228 3513 1497 
Q 3513 744 3044 326 
Q 2575 -91 1722 -91 
Q 1428 -91 1123 -41 
Q 819 9 494 109 
L 494 744 
Q 775 591 1075 516 
Q 1375 441 1709 441 
Q 2250 441 2565 725 
Q 2881 1009 2881 1497 
Q 2881 1984 2565 2268 
Q 2250 2553 1709 2553 
Q 1456 2553 1204 2497 
Q 953 2441 691 2322 
L 691 4666 
z
" id="DejaVuSans-35" transform="scale(0.015625)"/>
       </defs>
       <use xlink:href="#DejaVuSans-2212"/>
       <use x="83.789062" xlink:href="#DejaVuSans-35"/>
      </g>
     </g>
    </g>
    <g id="ytick_5">
     <g id="line2d_12">
      <g>
       <use style="stroke:#000000;stroke-width:0.8;" x="38.86" xlink:href="#m185bfe74bb" y="83.990022"/>
      </g>
     </g>
     <g id="text_12">
      <!-- −4 -->
      <g transform="translate(17.117812 87.789241)scale(0.1 -0.1)">
       <use xlink:href="#DejaVuSans-2212"/>
       <use x="83.789062" xlink:href="#DejaVuSans-34"/>
      </g>
     </g>
    </g>
    <g id="ytick_6">
     <g id="line2d_13">
      <g>
       <use style="stroke:#000000;stroke-width:0.8;" x="38.86" xlink:href="#m185bfe74bb" y="24.857262"/>
      </g>
     </g>
     <g id="text_13">
      <!-- −3 -->
      <g transform="translate(17.117812 28.656481)scale(0.1 -0.1)">
       <defs>
        <path d="M 2597 2516 
Q 3050 2419 3304 2112 
Q 3559 1806 3559 1356 
Q 3559 666 3084 287 
Q 2609 -91 1734 -91 
Q 1441 -91 1130 -33 
Q 819 25 488 141 
L 488 750 
Q 750 597 1062 519 
Q 1375 441 1716 441 
Q 2309 441 2620 675 
Q 2931 909 2931 1356 
Q 2931 1769 2642 2001 
Q 2353 2234 1838 2234 
L 1294 2234 
L 1294 2753 
L 1863 2753 
Q 2328 2753 2575 2939 
Q 2822 3125 2822 3475 
Q 2822 3834 2567 4026 
Q 2313 4219 1838 4219 
Q 1578 4219 1281 4162 
Q 984 4106 628 3988 
L 628 4550 
Q 988 4650 1302 4700 
Q 1616 4750 1894 4750 
Q 2613 4750 3031 4423 
Q 3450 4097 3450 3541 
Q 3450 3153 3228 2886 
Q 3006 2619 2597 2516 
z
" id="DejaVuSans-33" transform="scale(0.015625)"/>
       </defs>
       <use xlink:href="#DejaVuSans-2212"/>
       <use x="83.789062" xlink:href="#DejaVuSans-33"/>
      </g>
     </g>
    </g>
   </g>
   <g id="line2d_14">
    <path clip-path="url(#pe674b1708c)" d="M 38.542654 199.298903 
L 40.431542 198.707575 
L 44.209318 195.15961 
L 45.153762 195.455274 
L 46.098206 195.455274 
L 47.04265 196.342265 
L 47.987093 196.046601 
L 48.931537 197.52492 
L 51.764869 198.411912 
L 52.709313 197.820584 
L 53.653757 196.933593 
L 54.598201 196.933593 
L 55.542645 196.342265 
L 56.487089 197.820584 
L 57.431533 197.820584 
L 58.375977 197.229256 
L 60.264865 197.229256 
L 61.209309 198.116248 
L 62.153753 199.890231 
L 63.098197 199.890231 
L 64.042641 201.072886 
L 65.931529 199.298903 
L 66.875973 198.116248 
L 69.709305 199.003239 
L 70.653749 198.411912 
L 71.598193 199.003239 
L 72.542637 199.003239 
L 73.487081 199.298903 
L 74.431525 200.481558 
L 75.375969 199.594567 
L 76.320413 199.298903 
L 77.264856 199.298903 
L 78.2093 199.594567 
L 79.153744 198.411912 
L 81.042632 199.003239 
L 81.987076 199.890231 
L 82.93152 199.594567 
L 83.875964 200.185894 
L 84.820408 199.890231 
L 85.764852 200.481558 
L 86.709296 199.003239 
L 87.65374 198.707575 
L 88.598184 197.229256 
L 89.542628 196.046601 
L 90.487072 195.455274 
L 91.431516 196.342265 
L 92.37596 196.933593 
L 93.320404 197.229256 
L 94.264848 198.411912 
L 95.209292 199.298903 
L 96.153736 200.481558 
L 97.09818 200.481558 
L 98.042624 199.298903 
L 98.987068 198.707575 
L 99.931512 196.933593 
L 100.875956 196.342265 
L 101.8204 196.046601 
L 102.764844 196.637929 
L 104.653732 199.594567 
L 105.598176 199.890231 
L 106.542619 199.890231 
L 107.487063 198.707575 
L 108.431507 197.820584 
L 109.375951 197.52492 
L 111.264839 195.750937 
L 112.209283 195.455274 
L 114.098171 196.637929 
L 115.042615 196.933593 
L 116.931503 196.933593 
L 118.820391 195.15961 
L 119.764835 195.455274 
L 120.709279 193.976955 
L 121.653723 191.907308 
L 122.598167 191.020317 
L 123.542611 189.837661 
L 124.487055 190.724653 
L 125.431499 191.020317 
L 126.375943 191.907308 
L 127.320387 192.202972 
L 128.264831 191.020317 
L 129.209275 188.95067 
L 130.153719 186.58536 
L 131.098163 184.811377 
L 132.042607 183.628722 
L 132.987051 183.628722 
L 133.931495 184.220049 
L 134.875939 185.402704 
L 136.764826 188.359342 
L 137.70927 188.655006 
L 138.653714 190.133325 
L 139.598158 189.246334 
L 140.542602 188.655006 
L 141.487046 185.698368 
L 142.43149 185.107041 
L 143.375934 183.037394 
L 144.320378 184.220049 
L 145.264822 185.107041 
L 146.209266 186.881023 
L 148.098154 192.498636 
L 149.042598 194.568282 
L 149.987042 196.342265 
L 150.931486 196.933593 
L 152.820374 197.52492 
L 153.764818 198.411912 
L 154.709262 198.411912 
L 155.653706 198.707575 
L 156.59815 199.890231 
L 157.542594 199.890231 
L 158.487038 201.36855 
L 160.375926 200.185894 
L 161.32037 199.890231 
L 162.264814 199.890231 
L 163.209258 199.298903 
L 164.153702 200.185894 
L 165.098146 201.959877 
L 166.042589 202.846869 
L 166.987033 201.959877 
L 167.931477 201.664213 
L 168.875921 201.072886 
L 170.764809 199.298903 
L 173.598141 201.959877 
L 174.542585 200.777222 
L 175.487029 201.36855 
L 176.431473 200.481558 
L 177.375917 199.890231 
L 179.264805 199.298903 
L 180.209249 198.707575 
L 181.153693 199.003239 
L 182.098137 200.481558 
L 183.042581 200.481558 
L 183.987025 201.664213 
L 184.931469 202.255541 
L 185.875913 201.959877 
L 186.820357 202.846869 
L 187.764801 201.664213 
L 188.709245 198.411912 
L 189.653689 193.089963 
L 191.542577 173.871816 
L 192.487021 163.22792 
L 193.431465 154.358006 
L 194.375909 149.036057 
L 195.320352 147.853402 
L 197.20924 151.992695 
L 198.153684 152.584023 
L 199.098128 149.331721 
L 200.987016 132.478885 
L 201.93146 126.269945 
L 202.875904 127.748264 
L 203.820348 142.23579 
L 204.764792 167.367213 
L 206.65368 228.865283 
L 207.598124 252.222723 
L 208.542568 266.710249 
L 209.487012 273.80618 
L 210.431456 277.058482 
L 211.3759 277.649809 
L 212.320344 274.397508 
L 213.264788 273.214852 
L 214.209232 272.623525 
L 215.153676 272.623525 
L 217.987008 274.397508 
L 218.931452 273.214852 
L 219.875896 271.44087 
L 220.82034 268.484232 
L 221.764784 264.936266 
L 222.709228 259.02299 
L 223.653672 251.631395 
L 224.598115 242.170154 
L 227.431447 219.699705 
L 228.375891 214.969084 
L 229.320335 212.012446 
L 230.264779 210.829791 
L 231.209223 210.238463 
L 232.153667 209.9428 
L 233.098111 209.055808 
L 234.042555 208.464481 
L 234.986999 206.986162 
L 235.931443 205.803506 
L 236.875887 205.803506 
L 237.820331 204.620851 
L 238.764775 204.916515 
L 239.709219 204.325187 
L 241.598107 204.325187 
L 242.542551 204.916515 
L 243.486995 204.916515 
L 245.375883 205.507843 
L 246.320327 204.325187 
L 247.264771 204.916515 
L 248.209215 203.438196 
L 249.153659 203.73386 
L 250.098103 204.916515 
L 251.042547 205.803506 
L 251.986991 206.09917 
L 252.931435 207.281825 
L 253.875879 207.577489 
L 254.820322 208.464481 
L 255.764766 209.647136 
L 256.70921 208.760144 
L 258.598098 209.9428 
L 259.542542 209.647136 
L 261.43143 212.012446 
L 262.375874 212.30811 
L 263.320318 212.899438 
L 264.264762 212.899438 
L 265.209206 213.490765 
L 266.15365 213.786429 
L 267.098094 214.969084 
L 268.042538 214.67342 
L 268.986982 214.969084 
L 269.931426 214.969084 
L 272.764758 215.856076 
L 274.653646 217.630058 
L 276.542534 218.812714 
L 277.486978 218.51705 
L 278.431422 218.812714 
L 279.375866 218.51705 
L 280.32031 217.334395 
L 281.264754 215.856076 
L 282.209198 215.264748 
L 283.153642 214.969084 
L 284.098085 214.969084 
L 285.986973 214.377757 
L 286.931417 215.264748 
L 287.875861 214.67342 
L 288.820305 212.899438 
L 289.764749 212.012446 
L 290.709193 210.829791 
L 291.653637 209.9428 
L 292.598081 207.281825 
L 293.542525 206.394834 
L 294.486969 204.916515 
L 295.431413 204.029524 
L 296.375857 203.73386 
L 298.264745 201.959877 
L 300.153633 201.36855 
L 301.098077 200.185894 
L 302.042521 198.707575 
L 302.986965 198.116248 
L 304.875853 197.52492 
L 305.820297 197.820584 
L 306.764741 196.637929 
L 307.709185 197.52492 
L 308.653629 197.820584 
L 310.542517 196.637929 
L 312.431405 196.637929 
L 313.375848 195.15961 
L 314.320292 195.15961 
L 316.20918 193.385627 
L 317.153624 193.976955 
L 318.098068 193.681291 
L 319.042512 195.15961 
L 319.986956 194.863946 
L 321.875844 196.046601 
L 322.820288 195.455274 
L 323.764732 196.046601 
L 324.709176 195.455274 
L 325.65362 194.272618 
L 327.542508 193.089963 
L 328.486952 193.089963 
L 330.37584 194.272618 
L 331.320284 195.455274 
L 332.264728 195.750937 
L 333.209172 195.750937 
L 335.09806 196.342265 
L 336.042504 195.455274 
L 336.986948 195.455274 
L 337.931392 194.568282 
L 339.82028 195.750937 
L 340.764724 195.455274 
L 341.709168 196.342265 
L 342.653612 195.750937 
L 343.598055 196.046601 
L 344.542499 195.15961 
L 345.486943 196.342265 
L 346.431387 196.933593 
L 347.375831 197.229256 
L 348.320275 196.637929 
L 349.264719 196.637929 
L 350.209163 197.52492 
L 351.153607 196.933593 
L 352.098051 196.933593 
L 353.042495 195.455274 
L 353.986939 196.046601 
L 354.931383 196.342265 
L 355.875827 196.342265 
L 356.820271 196.637929 
L 357.764715 196.046601 
L 358.709159 196.637929 
L 359.653603 196.342265 
L 360.598047 194.568282 
L 361.542491 194.568282 
L 362.486935 193.976955 
L 363.431379 194.863946 
L 364.375823 194.568282 
L 365.320267 194.863946 
L 366.264711 194.863946 
L 367.209155 195.455274 
L 368.153599 195.750937 
L 369.098043 195.455274 
L 370.042487 195.750937 
L 371.931375 193.385627 
L 372.875818 191.907308 
L 373.820262 192.202972 
L 374.764706 193.089963 
L 375.70915 193.385627 
L 376.653594 193.089963 
L 377.598038 194.568282 
L 380.43137 193.681291 
L 382.320258 192.498636 
L 383.264702 192.202972 
L 384.209146 192.498636 
L 385.15359 193.089963 
L 386.098034 192.498636 
L 387.042478 192.794299 
L 387.986922 192.498636 
L 388.931366 193.681291 
L 389.87581 192.794299 
L 391.764698 192.202972 
L 392.709142 191.611644 
L 393.653586 190.428989 
L 394.59803 189.837661 
L 395.542474 188.95067 
L 396.486918 188.655006 
L 397.431362 189.541998 
L 398.375806 189.246334 
L 399.32025 189.541998 
L 400.264694 189.541998 
L 401.209138 189.837661 
L 402.153581 189.246334 
L 403.098025 188.95067 
L 404.042469 188.063679 
L 404.986913 186.58536 
L 405.931357 185.698368 
L 406.875801 183.628722 
L 407.820245 180.672084 
L 408.764689 179.489428 
L 409.709133 178.011109 
L 410.653577 178.898101 
L 413.486909 185.107041 
L 414.431353 185.994032 
L 415.375797 187.176687 
L 416.320241 187.472351 
L 417.264685 186.58536 
L 418.209129 184.515713 
L 419.153573 183.037394 
L 420.098017 180.967747 
L 421.042461 179.785092 
L 421.986905 180.37642 
L 422.931349 181.559075 
L 423.875793 183.628722 
L 424.820237 185.402704 
L 425.764681 188.655006 
L 426.709125 188.655006 
L 427.653569 189.837661 
L 428.598013 190.428989 
L 429.542457 189.541998 
L 430.486901 190.428989 
L 431.431344 191.907308 
L 432.375788 192.794299 
L 433.320232 194.272618 
L 434.264676 195.15961 
L 435.20912 195.750937 
L 436.153564 196.637929 
L 437.098008 196.637929 
L 438.042452 195.750937 
L 438.986896 196.046601 
L 439.93134 195.455274 
L 440.875784 194.272618 
L 441.820228 194.568282 
L 442.764672 195.750937 
L 443.709116 196.046601 
L 444.65356 196.637929 
L 445.598004 196.046601 
L 448.431336 196.046601 
L 449.37578 197.229256 
L 450.320224 195.750937 
L 451.264668 195.15961 
L 452.209112 194.272618 
L 453.153556 193.976955 
L 454.098 194.568282 
L 455.042444 195.750937 
L 455.986888 195.750937 
L 456.931332 195.15961 
L 458.82022 196.342265 
L 459.764664 197.229256 
L 460.709108 196.342265 
L 461.653551 196.046601 
L 462.597995 194.863946 
L 463.542439 194.272618 
L 464.486883 195.15961 
L 466.375771 195.750937 
L 467.320215 195.455274 
L 468.264659 195.455274 
L 469.209103 191.907308 
L 470.153547 186.289696 
L 471.097991 178.602437 
L 473.931323 149.331721 
L 474.875767 142.531454 
L 475.820211 140.461807 
L 476.764655 141.053135 
L 477.709099 142.827118 
L 478.653543 144.896764 
L 479.597987 141.644462 
L 481.486875 126.861272 
L 482.431319 120.947997 
L 483.375763 121.834988 
L 484.320207 134.548531 
L 485.264651 158.792963 
L 487.153539 217.038731 
L 488.097983 240.396171 
L 489.042427 254.883697 
L 489.986871 262.275292 
L 490.931314 265.23193 
L 491.875758 264.640602 
L 492.820202 265.527594 
L 493.764646 265.527594 
L 494.70909 265.23193 
L 495.653534 265.527594 
L 496.597978 265.23193 
L 497.542422 264.640602 
L 499.43131 266.414585 
L 500.375754 265.823257 
L 501.320198 264.936266 
L 502.264642 263.162283 
L 503.209086 261.683964 
L 504.15353 258.135999 
L 505.097974 252.518387 
L 506.042418 244.831128 
L 507.931306 225.317317 
L 508.87575 216.743067 
L 510.764638 205.803506 
L 511.709082 202.255541 
L 512.653526 201.36855 
L 513.59797 201.664213 
L 514.542414 201.072886 
L 515.486858 201.664213 
L 516.431302 200.481558 
L 517.375746 199.890231 
L 518.32019 199.003239 
L 519.264634 196.933593 
L 520.209077 195.750937 
L 521.153521 196.342265 
L 522.097965 196.637929 
L 523.986853 196.637929 
L 524.931297 197.229256 
L 525.875741 197.229256 
L 526.820185 198.116248 
L 527.764629 197.820584 
L 528.709073 196.933593 
L 529.653517 196.933593 
L 530.597961 196.342265 
L 531.542405 196.046601 
L 532.486849 197.229256 
L 533.431293 197.820584 
L 534.375737 199.003239 
L 535.320181 200.481558 
L 536.264625 200.777222 
L 537.209069 200.777222 
L 538.153513 201.664213 
L 539.097957 201.36855 
L 540.042401 202.551205 
L 540.986845 201.664213 
L 541.931289 201.664213 
L 542.875733 202.255541 
L 543.820177 202.551205 
L 544.764621 203.73386 
L 545.709065 204.325187 
L 546.653509 207.281825 
L 547.597953 207.577489 
L 548.542397 207.577489 
L 549.486841 209.055808 
L 550.431284 209.351472 
L 551.375728 208.760144 
L 552.320172 209.055808 
L 554.20906 208.464481 
L 555.153504 209.351472 
L 556.097948 210.829791 
L 557.042392 210.238463 
L 557.986836 211.716782 
L 558.93128 212.012446 
L 559.875724 211.125455 
L 560.820168 211.421119 
L 561.764612 211.125455 
L 562.709056 210.238463 
L 563.6535 209.9428 
L 564.597944 208.464481 
L 565.542388 207.577489 
L 566.486832 207.577489 
L 567.431276 206.690498 
L 568.37572 206.09917 
L 569.320164 206.09917 
L 570.264608 205.803506 
L 571.209052 203.73386 
L 572.153496 204.029524 
L 573.09794 203.142532 
L 574.042384 201.36855 
L 574.986828 199.003239 
L 575.931272 197.820584 
L 576.875716 196.933593 
L 577.82016 196.342265 
L 578.764604 196.342265 
L 580.653491 194.568282 
L 581.597935 193.385627 
L 582.542379 192.794299 
L 583.486823 191.907308 
L 584.431267 191.611644 
L 585.375711 191.020317 
L 586.320155 189.246334 
L 587.264599 187.768015 
L 588.209043 187.472351 
L 591.042375 188.359342 
L 591.986819 187.472351 
L 592.931263 188.359342 
L 593.875707 187.472351 
L 594.820151 189.246334 
L 595.764595 187.176687 
L 596.709039 186.881023 
L 597.653483 185.994032 
L 598.597927 185.402704 
L 599.542371 184.220049 
L 601.431259 185.402704 
L 602.375703 185.402704 
L 603.320147 187.472351 
L 604.264591 187.176687 
L 605.209035 186.58536 
L 606.153479 187.176687 
L 608.98681 186.289696 
L 609.931254 185.402704 
L 611.820142 184.811377 
L 612.764586 185.994032 
L 613.70903 186.289696 
L 614.653474 186.881023 
L 615.597918 186.289696 
L 616.542362 187.472351 
L 617.486806 187.472351 
L 618.43125 188.063679 
L 619.375694 187.176687 
L 620.320138 186.881023 
L 621.264582 187.176687 
L 622.209026 186.881023 
L 623.15347 187.472351 
L 624.097914 187.176687 
L 625.042358 187.768015 
L 625.986802 188.655006 
L 626.931246 188.359342 
L 627.87569 189.837661 
L 628.820134 189.246334 
L 629.764578 188.95067 
L 630.709022 188.063679 
L 631.653466 188.359342 
L 632.59791 187.768015 
L 633.542354 186.58536 
L 634.486798 187.472351 
L 635.431242 186.881023 
L 636.375686 188.063679 
L 637.32013 187.472351 
L 638.264574 188.063679 
L 639.209017 188.063679 
L 640.153461 188.95067 
L 641.097905 190.133325 
L 642.042349 188.95067 
L 642.986793 187.472351 
L 643.931237 186.289696 
L 644.875681 186.289696 
L 645.820125 186.881023 
L 646.764569 186.289696 
L 648.653457 188.655006 
L 649.597901 188.359342 
L 650.542345 189.541998 
L 651.486789 190.133325 
L 652.431233 188.655006 
L 653.375677 188.95067 
L 654.320121 188.359342 
L 655.264565 186.881023 
L 656.209009 186.289696 
L 657.153453 186.58536 
L 658.097897 186.289696 
L 659.042341 187.176687 
L 659.986785 188.95067 
L 660.931229 188.95067 
L 661.875673 188.655006 
L 662.820117 187.768015 
L 663.764561 188.359342 
L 665.653449 187.768015 
L 667.542337 186.58536 
L 668.48678 185.107041 
L 669.431224 185.994032 
L 671.320112 185.402704 
L 672.264556 184.811377 
L 673.209 185.402704 
L 674.153444 185.107041 
L 675.097888 183.628722 
L 676.042332 183.333058 
L 676.986776 182.446066 
L 677.93122 180.967747 
L 678.875664 180.080756 
L 679.820108 180.080756 
L 680.764552 179.785092 
L 681.708996 180.967747 
L 682.65344 180.37642 
L 683.597884 180.37642 
L 684.542328 178.306773 
L 685.486772 177.419782 
L 686.431216 176.237127 
L 687.37566 174.463144 
L 688.320104 173.280489 
L 689.264548 175.054472 
L 690.208992 175.350135 
L 691.153436 176.828454 
L 692.09788 178.898101 
L 693.042324 180.080756 
L 693.986768 181.559075 
L 694.931212 182.74173 
L 695.875656 180.080756 
L 696.8201 179.193765 
L 697.764543 177.124118 
L 698.708987 175.645799 
L 699.653431 175.054472 
L 700.597875 174.758808 
L 701.542319 175.054472 
L 702.486763 177.124118 
L 703.431207 180.672084 
L 704.375651 181.854739 
L 705.320095 183.924385 
L 706.264539 185.107041 
L 707.208983 185.994032 
L 708.153427 186.289696 
L 709.097871 188.359342 
L 710.042315 188.359342 
L 710.986759 188.655006 
L 711.931203 189.541998 
L 712.875647 190.133325 
L 713.820091 189.837661 
L 714.764535 189.837661 
L 715.708979 190.133325 
L 716.653423 190.133325 
L 717.597867 190.724653 
L 718.542311 191.907308 
L 719.486755 192.202972 
L 720.431199 191.907308 
L 721.375643 191.31598 
L 722.320087 190.133325 
L 723.264531 190.724653 
L 724.208975 189.837661 
L 726.097863 191.611644 
L 727.042307 191.907308 
L 727.98675 192.498636 
L 728.931194 192.498636 
L 729.875638 193.385627 
L 730.820082 193.681291 
L 731.764526 192.498636 
L 732.70897 191.907308 
L 733.653414 190.724653 
L 734.597858 190.724653 
L 735.542302 189.837661 
L 736.486746 190.428989 
L 737.43119 190.724653 
L 738.375634 190.724653 
L 740.264522 192.498636 
L 741.208966 193.089963 
L 742.15341 194.272618 
L 743.097854 195.15961 
L 744.042298 193.976955 
L 744.986742 193.681291 
L 745.931186 190.428989 
L 746.87563 185.107041 
L 747.820074 178.306773 
L 748.764518 170.323851 
L 749.708962 160.566945 
L 750.653406 152.584023 
L 751.59785 146.670747 
L 752.542294 146.079419 
L 754.431182 149.036057 
L 755.375626 145.488092 
L 756.32007 137.800833 
L 758.208957 117.104367 
L 759.153401 113.852065 
L 760.097845 122.130652 
L 761.042289 141.940126 
L 763.875621 223.543334 
L 764.820065 240.987498 
L 765.764509 252.222723 
L 766.708953 256.953344 
L 767.653397 259.318654 
L 768.597841 260.796973 
L 769.542285 260.796973 
L 770.486729 261.979628 
L 771.431173 262.866619 
L 772.375617 263.162283 
L 773.320061 264.640602 
L 774.264505 264.936266 
L 775.208949 264.049275 
L 776.153393 264.049275 
L 777.097837 262.275292 
L 778.986725 255.179361 
L 779.931169 249.266085 
L 780.875613 242.170154 
L 783.708945 217.038731 
L 784.653389 211.125455 
L 785.597833 206.986162 
L 786.542276 203.438196 
L 787.48672 202.255541 
L 788.431164 200.777222 
L 789.375608 198.707575 
L 790.320052 198.411912 
L 791.264496 197.52492 
L 792.20894 195.455274 
L 795.042272 194.568282 
L 795.986716 195.15961 
L 796.93116 196.342265 
L 797.875604 195.750937 
L 798.820048 196.933593 
L 799.764492 196.933593 
L 800.708936 196.046601 
L 801.65338 195.750937 
L 802.597824 194.272618 
L 803.542268 193.385627 
L 804.486712 194.272618 
L 805.431156 194.863946 
L 806.3756 195.750937 
L 807.320044 196.342265 
L 808.264488 197.229256 
L 809.208932 198.411912 
L 810.153376 199.003239 
L 811.09782 199.298903 
L 812.042264 199.890231 
L 812.986708 199.298903 
L 813.931152 199.890231 
L 814.875596 199.298903 
L 815.820039 201.36855 
L 816.764483 202.551205 
L 817.708927 203.142532 
L 818.653371 203.438196 
L 819.597815 204.620851 
L 820.542259 204.620851 
L 821.486703 206.690498 
L 822.431147 206.09917 
L 823.375591 206.394834 
L 824.320035 206.394834 
L 825.264479 207.577489 
L 827.153367 206.394834 
L 828.097811 207.281825 
L 829.042255 207.873153 
L 829.986699 209.055808 
L 830.931143 210.534127 
L 831.875587 210.534127 
L 832.820031 210.238463 
L 834.708919 210.238463 
L 835.653363 209.647136 
L 836.597807 208.464481 
L 837.542251 208.168817 
L 838.486695 208.168817 
L 839.431139 207.577489 
L 840.375583 208.168817 
L 841.320027 207.873153 
L 842.264471 207.873153 
L 843.208915 207.577489 
L 844.153359 206.986162 
L 845.097803 205.212179 
L 846.042246 204.325187 
L 846.98669 201.959877 
L 847.931134 200.481558 
L 849.820022 198.707575 
L 850.764466 198.116248 
L 852.653354 196.342265 
L 853.597798 195.750937 
L 854.542242 194.863946 
L 856.43113 194.272618 
L 858.320018 193.089963 
L 859.264462 191.611644 
L 860.208906 189.541998 
L 861.15335 189.541998 
L 862.097794 190.428989 
L 863.042238 189.246334 
L 863.986682 189.541998 
L 864.931126 188.655006 
L 865.87557 188.655006 
L 866.820014 190.133325 
L 867.764458 188.95067 
L 868.708902 188.95067 
L 869.653346 188.063679 
L 870.59779 187.472351 
L 871.542234 187.472351 
L 872.486678 186.881023 
L 873.431122 188.063679 
L 874.375566 188.063679 
L 875.320009 188.95067 
L 876.264453 189.541998 
L 878.153341 188.95067 
L 879.097785 188.95067 
L 880.042229 188.359342 
L 880.986673 188.95067 
L 882.875561 187.176687 
L 883.820005 187.472351 
L 884.764449 188.655006 
L 885.708893 189.246334 
L 886.653337 190.133325 
L 890.431113 191.31598 
L 891.375557 191.31598 
L 892.320001 191.611644 
L 893.264445 190.428989 
L 894.208889 189.541998 
L 896.097777 190.724653 
L 897.042221 190.428989 
L 897.986665 191.020317 
L 898.931109 191.907308 
L 899.875553 193.681291 
L 900.819997 194.863946 
L 901.764441 194.568282 
L 902.708885 193.089963 
L 903.653329 192.498636 
L 904.597772 192.498636 
L 905.542216 190.724653 
L 906.48666 191.31598 
L 907.431104 191.020317 
L 908.375548 191.31598 
L 909.319992 191.907308 
L 910.264436 192.202972 
L 911.20888 192.794299 
L 912.153324 193.089963 
L 913.097768 192.202972 
L 914.042212 192.498636 
L 914.986656 192.202972 
L 915.9311 191.31598 
L 916.875544 191.31598 
L 917.819988 190.724653 
L 918.764432 191.31598 
L 919.708876 191.020317 
L 920.65332 192.202972 
L 921.597764 192.202972 
L 923.486652 192.794299 
L 925.37554 192.794299 
L 927.264428 191.020317 
L 928.208872 190.724653 
L 929.153316 189.837661 
L 931.042204 191.020317 
L 931.986648 192.498636 
L 932.931092 193.089963 
L 933.875536 191.907308 
L 934.819979 192.794299 
L 935.764423 192.794299 
L 936.708867 192.202972 
L 938.597755 189.837661 
L 939.542199 190.428989 
L 940.486643 189.837661 
L 941.431087 188.655006 
L 942.375531 189.246334 
L 943.319975 189.541998 
L 944.264419 188.95067 
L 945.208863 188.063679 
L 946.153307 187.472351 
L 947.097751 187.176687 
L 948.042195 185.698368 
L 948.986639 186.289696 
L 949.931083 184.811377 
L 950.875527 184.515713 
L 951.819971 184.515713 
L 952.764415 183.628722 
L 953.708859 183.924385 
L 954.653303 182.150403 
L 955.597747 180.967747 
L 956.542191 179.489428 
L 957.486635 179.193765 
L 958.431079 178.011109 
L 959.375523 179.489428 
L 960.319967 179.193765 
L 962.208855 181.559075 
L 963.153299 183.333058 
L 965.042186 185.107041 
L 965.98663 185.402704 
L 966.931074 183.924385 
L 967.875518 182.74173 
L 968.819962 181.854739 
L 969.764406 181.263411 
L 970.70885 180.080756 
L 972.597738 181.263411 
L 973.542182 183.037394 
L 974.486626 187.176687 
L 975.43107 189.246334 
L 976.375514 191.020317 
L 977.319958 191.611644 
L 979.208846 193.976955 
L 980.15329 194.568282 
L 981.097734 194.863946 
L 982.042178 194.863946 
L 982.986622 195.455274 
L 983.931066 194.863946 
L 985.819954 194.272618 
L 986.764398 194.863946 
L 987.708842 195.15961 
L 988.653286 195.750937 
L 989.59773 197.229256 
L 990.542174 197.820584 
L 991.486618 197.52492 
L 992.431062 198.411912 
L 993.375505 198.411912 
L 994.319949 198.116248 
L 995.264393 198.116248 
L 996.208837 196.637929 
L 997.153281 196.342265 
L 999.042169 196.933593 
L 999.986613 196.637929 
L 1000.931057 197.52492 
L 1001.875501 197.52492 
L 1003.764389 198.116248 
L 1004.708833 198.116248 
L 1005.653277 197.229256 
L 1006.597721 196.637929 
L 1009.431053 196.637929 
L 1010.375497 199.298903 
L 1011.319941 200.481558 
L 1012.264385 201.072886 
L 1014.153273 196.933593 
L 1015.097717 192.794299 
L 1016.042161 185.107041 
L 1017.931049 165.297566 
L 1018.875493 158.201635 
L 1019.819937 152.288359 
L 1020.764381 151.697031 
L 1021.708825 154.358006 
L 1022.653269 156.427652 
L 1023.597712 155.244997 
L 1024.542156 149.923049 
L 1025.4866 140.166143 
L 1026.431044 128.635255 
L 1027.375488 120.356669 
L 1028.319932 119.765341 
L 1029.264376 132.478885 
L 1030.20882 156.723316 
L 1032.097708 217.334395 
L 1033.042152 240.100507 
L 1033.986596 254.588033 
L 1034.93104 263.162283 
L 1035.875484 266.414585 
L 1036.819928 268.779895 
L 1038.708816 270.553878 
L 1039.65326 271.145206 
L 1040.597704 271.44087 
L 1041.542148 272.327861 
L 1044.37548 270.553878 
L 1045.319924 271.44087 
L 1046.264368 269.666887 
L 1047.208812 267.59724 
L 1048.153256 265.23193 
L 1049.0977 260.796973 
L 1050.986588 246.605111 
L 1052.875475 228.865283 
L 1053.819919 221.769352 
L 1054.764363 216.447403 
L 1055.708807 212.603774 
L 1056.653251 209.351472 
L 1057.597695 207.873153 
L 1058.542139 207.577489 
L 1059.486583 205.803506 
L 1060.431027 205.212179 
L 1061.375471 203.73386 
L 1063.264359 201.36855 
L 1064.208803 200.481558 
L 1065.153247 201.072886 
L 1066.097691 200.777222 
L 1067.042135 201.072886 
L 1067.986579 200.777222 
L 1069.875467 201.959877 
L 1070.819911 201.664213 
L 1071.764355 202.255541 
L 1072.708799 202.551205 
L 1073.653243 202.255541 
L 1074.597687 200.481558 
L 1075.542131 199.890231 
L 1077.431019 200.481558 
L 1078.375463 202.255541 
L 1079.319907 202.255541 
L 1080.264351 203.73386 
L 1082.153238 205.507843 
L 1083.097682 205.803506 
L 1084.042126 206.986162 
L 1085.931014 205.803506 
L 1086.875458 206.394834 
L 1087.819902 206.690498 
L 1088.764346 207.577489 
L 1089.70879 207.873153 
L 1090.653234 209.647136 
L 1091.597678 211.125455 
L 1092.542122 211.716782 
L 1093.486566 212.012446 
L 1094.43101 212.012446 
L 1095.375454 211.716782 
L 1096.319898 211.716782 
L 1097.264342 212.603774 
L 1098.208786 212.899438 
L 1099.15323 212.899438 
L 1100.097674 213.490765 
L 1101.986562 214.082093 
L 1102.931006 214.969084 
L 1105.764338 214.969084 
L 1106.708782 214.377757 
L 1107.653226 213.490765 
L 1110.486558 213.490765 
L 1111.431001 212.899438 
L 1112.375445 212.603774 
L 1113.319889 212.899438 
L 1114.264333 212.899438 
L 1115.208777 212.30811 
L 1116.153221 210.829791 
L 1117.097665 209.9428 
L 1118.042109 207.873153 
L 1118.986553 206.09917 
L 1119.930997 205.212179 
L 1120.875441 203.438196 
L 1121.819885 202.846869 
L 1122.764329 201.959877 
L 1123.708773 201.664213 
L 1124.653217 202.255541 
L 1125.597661 201.959877 
L 1126.542105 201.959877 
L 1127.486549 200.185894 
L 1128.430993 198.707575 
L 1129.375437 198.707575 
L 1130.319881 196.933593 
L 1131.264325 196.637929 
L 1132.208769 196.637929 
L 1133.153213 196.046601 
L 1134.097657 195.750937 
L 1135.042101 194.863946 
L 1135.986545 195.455274 
L 1136.930989 194.863946 
L 1137.875433 195.15961 
L 1138.819877 194.863946 
L 1139.764321 194.272618 
L 1141.653208 194.272618 
L 1142.597652 193.681291 
L 1143.542096 192.794299 
L 1144.48654 192.794299 
L 1145.430984 192.498636 
L 1146.375428 193.385627 
L 1147.319872 193.089963 
L 1148.264316 194.272618 
L 1149.20876 194.272618 
L 1150.153204 194.568282 
L 1151.097648 194.272618 
L 1152.042092 194.568282 
L 1152.986536 193.976955 
L 1153.93098 193.089963 
L 1155.819868 193.089963 
L 1156.764312 193.681291 
L 1157.708756 193.681291 
L 1159.597644 194.272618 
L 1160.542088 195.750937 
L 1161.486532 195.15961 
L 1162.430976 195.455274 
L 1163.37542 194.863946 
L 1165.264308 195.455274 
L 1166.208752 194.863946 
L 1167.153196 194.568282 
L 1168.09764 194.863946 
L 1169.042084 195.455274 
L 1169.986528 197.229256 
L 1170.930971 197.820584 
L 1171.875415 197.820584 
L 1172.819859 198.411912 
L 1173.764303 197.820584 
L 1174.708747 197.820584 
L 1176.597635 196.637929 
L 1177.542079 195.455274 
L 1179.430967 194.272618 
L 1180.375411 195.455274 
L 1181.319855 196.342265 
L 1182.264299 196.637929 
L 1183.208743 198.116248 
L 1184.153187 197.52492 
L 1186.042075 197.52492 
L 1186.986519 196.933593 
L 1187.930963 196.933593 
L 1188.875407 195.750937 
L 1189.819851 195.750937 
L 1190.764295 196.342265 
L 1191.708739 196.046601 
L 1192.653183 196.933593 
L 1193.597627 196.933593 
L 1194.542071 197.52492 
L 1195.486515 196.933593 
L 1196.430959 196.046601 
L 1197.375403 194.863946 
L 1198.319847 196.342265 
L 1199.264291 195.455274 
L 1201.153178 195.455274 
L 1203.042066 194.272618 
L 1203.98651 196.046601 
L 1204.930954 196.342265 
L 1205.875398 197.52492 
L 1206.819842 197.229256 
L 1207.764286 197.820584 
L 1208.70873 197.229256 
L 1209.653174 196.342265 
L 1210.597618 196.046601 
L 1211.542062 194.568282 
L 1212.486506 193.681291 
L 1213.43095 193.681291 
L 1214.375394 193.385627 
L 1215.319838 194.568282 
L 1216.264282 194.272618 
L 1217.208726 194.272618 
L 1218.15317 194.568282 
L 1219.097614 193.089963 
L 1220.042058 192.498636 
L 1220.986502 191.31598 
L 1221.930946 191.020317 
L 1222.87539 190.133325 
L 1223.819834 190.133325 
L 1225.708722 188.95067 
L 1226.653166 188.063679 
L 1227.59761 188.655006 
L 1229.486498 185.698368 
L 1230.430941 185.107041 
L 1231.375385 183.037394 
L 1232.319829 182.446066 
L 1233.264273 182.74173 
L 1234.208717 183.628722 
L 1235.153161 184.220049 
L 1236.097605 185.698368 
L 1237.042049 187.768015 
L 1237.986493 189.541998 
L 1238.930937 189.541998 
L 1239.875381 189.246334 
L 1240.819825 188.359342 
L 1241.764269 186.58536 
L 1242.708713 184.515713 
L 1243.653157 183.333058 
L 1244.597601 182.74173 
L 1245.542045 183.628722 
L 1246.486489 186.289696 
L 1247.430933 189.541998 
L 1249.319821 194.568282 
L 1250.264265 196.342265 
L 1251.208709 197.820584 
L 1252.153153 197.229256 
L 1253.097597 197.52492 
L 1254.986485 198.707575 
L 1256.875373 198.116248 
L 1257.819817 199.594567 
L 1259.708704 200.777222 
L 1260.653148 200.481558 
L 1262.542036 202.255541 
L 1263.48648 202.255541 
L 1264.430924 203.142532 
L 1265.375368 201.959877 
L 1266.319812 201.664213 
L 1267.264256 200.777222 
L 1268.2087 200.185894 
L 1269.153144 200.777222 
L 1270.097588 200.777222 
L 1271.042032 199.890231 
L 1271.986476 200.777222 
L 1272.93092 201.36855 
L 1273.875364 201.664213 
L 1275.764252 202.846869 
L 1276.708696 202.846869 
L 1278.597584 201.664213 
L 1280.486472 201.072886 
L 1281.430916 200.481558 
L 1282.37536 201.072886 
L 1283.319804 200.481558 
L 1284.264248 201.36855 
L 1285.208692 201.959877 
L 1287.09758 203.73386 
L 1288.042024 203.142532 
L 1288.986467 202.846869 
L 1289.930911 202.255541 
L 1290.875355 198.116248 
L 1291.819799 192.498636 
L 1292.764243 185.107041 
L 1294.653131 167.367213 
L 1295.597575 162.045264 
L 1296.542019 159.38429 
L 1297.486463 159.975618 
L 1298.430907 161.158273 
L 1299.375351 160.862609 
L 1300.319795 155.540661 
L 1301.264239 146.375083 
L 1302.208683 134.548531 
L 1303.153127 124.200298 
L 1304.097571 120.652333 
L 1305.042015 126.861272 
L 1305.986459 144.6011 
L 1306.930903 170.915178 
L 1307.875347 202.551205 
L 1308.819791 230.343602 
L 1309.764235 249.266085 
L 1310.708679 260.796973 
L 1311.653123 265.23193 
L 1312.597567 267.005913 
L 1313.542011 268.188568 
L 1314.486455 270.258214 
L 1316.375343 273.80618 
L 1317.319787 275.284499 
L 1320.153118 276.17149 
L 1321.097562 275.580163 
L 1322.042006 274.693171 
L 1322.98645 272.327861 
L 1323.930894 269.075559 
L 1325.819782 260.205645 
L 1326.764226 253.405378 
L 1326.764226 253.405378 
" style="fill:none;stroke:#1f77b4;stroke-linecap:square;stroke-width:1.5;"/>
   </g>
   <g id="line2d_15">
    <path clip-path="url(#pe674b1708c)" d="M 38.542654 182.446066 
L 39.487098 181.559075 
L 40.431542 180.967747 
L 41.375986 178.898101 
L 42.32043 178.011109 
L 43.264874 177.715446 
L 45.153762 177.715446 
L 46.098206 178.306773 
L 47.04265 179.785092 
L 47.987093 179.489428 
L 48.931537 180.080756 
L 49.875981 180.080756 
L 50.820425 179.193765 
L 51.764869 178.898101 
L 52.709313 176.828454 
L 53.653757 175.941463 
L 54.598201 174.463144 
L 55.542645 173.871816 
L 56.487089 175.054472 
L 57.431533 175.941463 
L 58.375977 178.011109 
L 60.264865 181.559075 
L 61.209309 181.263411 
L 62.153753 181.559075 
L 63.098197 180.672084 
L 64.042641 179.489428 
L 64.987085 176.828454 
L 65.931529 175.645799 
L 66.875973 175.350135 
L 67.820417 176.237127 
L 68.764861 176.53279 
L 69.709305 178.306773 
L 70.653749 180.37642 
L 72.542637 181.559075 
L 73.487081 179.489428 
L 74.431525 177.715446 
L 76.320413 174.758808 
L 78.2093 175.941463 
L 79.153744 177.124118 
L 80.098188 179.785092 
L 81.042632 179.489428 
L 81.987076 180.080756 
L 82.93152 179.193765 
L 83.875964 178.898101 
L 84.820408 178.898101 
L 85.764852 177.419782 
L 86.709296 176.237127 
L 87.65374 177.124118 
L 88.598184 177.419782 
L 89.542628 179.489428 
L 90.487072 180.080756 
L 91.431516 181.559075 
L 92.37596 180.080756 
L 93.320404 179.193765 
L 94.264848 177.715446 
L 95.209292 177.124118 
L 98.042624 176.237127 
L 98.987068 177.419782 
L 99.931512 178.898101 
L 100.875956 179.193765 
L 101.8204 180.37642 
L 102.764844 179.785092 
L 103.709288 180.37642 
L 104.653732 181.263411 
L 105.598176 180.37642 
L 106.542619 178.898101 
L 107.487063 178.306773 
L 108.431507 176.237127 
L 109.375951 174.758808 
L 110.320395 174.16748 
L 111.264839 174.16748 
L 112.209283 174.758808 
L 113.153727 177.124118 
L 114.098171 178.306773 
L 115.042615 180.37642 
L 116.931503 181.559075 
L 117.875947 181.559075 
L 118.820391 179.489428 
L 119.764835 179.193765 
L 120.709279 176.828454 
L 121.653723 176.53279 
L 123.542611 175.350135 
L 124.487055 177.419782 
L 125.431499 178.306773 
L 126.375943 180.37642 
L 127.320387 181.559075 
L 128.264831 181.854739 
L 129.209275 179.489428 
L 130.153719 178.602437 
L 131.098163 176.237127 
L 132.042607 175.054472 
L 132.987051 173.280489 
L 133.931495 172.393497 
L 134.875939 173.280489 
L 135.820382 175.350135 
L 136.764826 175.350135 
L 137.70927 175.645799 
L 138.653714 176.53279 
L 139.598158 175.941463 
L 141.487046 171.80217 
L 142.43149 169.436859 
L 143.375934 167.95854 
L 144.320378 167.071549 
L 145.264822 167.95854 
L 146.209266 170.619515 
L 147.15371 172.393497 
L 148.098154 174.463144 
L 149.042598 175.941463 
L 149.987042 177.715446 
L 150.931486 177.124118 
L 151.87593 176.237127 
L 152.820374 174.758808 
L 153.764818 174.758808 
L 154.709262 174.16748 
L 155.653706 173.871816 
L 156.59815 174.16748 
L 157.542594 173.576153 
L 158.487038 174.463144 
L 159.431482 176.828454 
L 160.375926 177.715446 
L 161.32037 178.011109 
L 162.264814 178.898101 
L 163.209258 179.489428 
L 164.153702 178.011109 
L 165.098146 178.306773 
L 166.042589 176.53279 
L 166.987033 175.645799 
L 167.931477 175.645799 
L 169.820365 176.237127 
L 170.764809 178.011109 
L 171.709253 177.419782 
L 172.653697 177.419782 
L 173.598141 177.715446 
L 174.542585 176.53279 
L 175.487029 175.941463 
L 176.431473 177.124118 
L 177.375917 177.419782 
L 178.320361 176.828454 
L 179.264805 176.828454 
L 180.209249 178.306773 
L 181.153693 178.306773 
L 182.098137 178.898101 
L 183.042581 179.193765 
L 183.987025 178.898101 
L 184.931469 180.37642 
L 185.875913 182.446066 
L 187.764801 188.95067 
L 188.709245 195.15961 
L 189.653689 200.481558 
L 191.542577 213.490765 
L 192.487021 221.473688 
L 193.431465 225.908645 
L 194.375909 228.273955 
L 195.320352 225.317317 
L 196.264796 220.88236 
L 198.153684 203.142532 
L 200.042572 181.854739 
L 200.987016 165.888894 
L 202.875904 128.635255 
L 203.820348 116.217376 
L 204.764792 113.852065 
L 205.709236 125.08729 
L 207.598124 164.410575 
L 208.542568 180.967747 
L 209.487012 188.95067 
L 210.431456 190.724653 
L 211.3759 191.020317 
L 212.320344 190.133325 
L 213.264788 191.31598 
L 214.209232 193.089963 
L 215.153676 194.568282 
L 216.09812 196.637929 
L 217.987008 196.637929 
L 218.931452 195.15961 
L 219.875896 196.046601 
L 220.82034 196.046601 
L 221.764784 194.568282 
L 222.709228 192.794299 
L 223.653672 191.611644 
L 227.431447 180.672084 
L 228.375891 178.898101 
L 229.320335 175.645799 
L 230.264779 175.054472 
L 231.209223 174.16748 
L 232.153667 174.463144 
L 233.098111 175.645799 
L 234.042555 175.350135 
L 234.986999 173.576153 
L 235.931443 171.506506 
L 236.875887 171.506506 
L 237.820331 170.915178 
L 238.764775 171.80217 
L 239.709219 173.871816 
L 241.598107 176.237127 
L 242.542551 176.237127 
L 243.486995 176.53279 
L 244.431439 175.054472 
L 245.375883 174.463144 
L 246.320327 172.984825 
L 247.264771 173.576153 
L 248.209215 175.941463 
L 249.153659 176.828454 
L 250.098103 179.193765 
L 251.042547 178.898101 
L 251.986991 179.785092 
L 252.931435 179.785092 
L 254.820322 180.37642 
L 255.764766 181.854739 
L 257.653654 183.037394 
L 258.598098 183.924385 
L 260.486986 186.289696 
L 261.43143 187.768015 
L 262.375874 188.655006 
L 263.320318 190.133325 
L 264.264762 190.724653 
L 265.209206 192.498636 
L 266.15365 192.794299 
L 267.098094 193.976955 
L 268.042538 193.681291 
L 268.986982 193.089963 
L 269.931426 193.385627 
L 270.87587 193.385627 
L 272.764758 195.15961 
L 273.709202 197.229256 
L 274.653646 197.52492 
L 275.59809 198.411912 
L 276.542534 197.820584 
L 277.486978 198.707575 
L 278.431422 197.820584 
L 279.375866 196.637929 
L 280.32031 197.52492 
L 281.264754 196.933593 
L 282.209198 197.52492 
L 283.153642 196.637929 
L 284.098085 197.229256 
L 285.042529 198.411912 
L 285.986973 197.820584 
L 287.875861 199.003239 
L 288.820305 197.229256 
L 289.764749 196.342265 
L 290.709193 195.15961 
L 291.653637 193.681291 
L 292.598081 191.907308 
L 293.542525 191.907308 
L 294.486969 192.202972 
L 295.431413 191.907308 
L 296.375857 190.428989 
L 297.320301 190.724653 
L 299.209189 188.95067 
L 300.153633 187.176687 
L 301.098077 184.811377 
L 303.931409 181.263411 
L 304.875853 180.37642 
L 305.820297 180.672084 
L 306.764741 179.193765 
L 307.709185 180.080756 
L 308.653629 179.489428 
L 309.598073 180.37642 
L 310.542517 180.37642 
L 311.486961 178.602437 
L 312.431405 178.306773 
L 313.375848 176.828454 
L 314.320292 175.941463 
L 315.264736 174.758808 
L 316.20918 174.758808 
L 317.153624 175.350135 
L 318.098068 175.054472 
L 319.042512 175.054472 
L 320.9314 175.645799 
L 322.820288 175.645799 
L 323.764732 174.16748 
L 324.709176 174.16748 
L 325.65362 173.871816 
L 326.598064 173.280489 
L 327.542508 173.280489 
L 328.486952 172.984825 
L 329.431396 174.463144 
L 330.37584 174.758808 
L 331.320284 175.941463 
L 332.264728 176.828454 
L 333.209172 176.237127 
L 334.153616 175.054472 
L 335.09806 175.941463 
L 336.042504 175.941463 
L 336.986948 175.645799 
L 338.875836 173.871816 
L 339.82028 175.054472 
L 340.764724 175.350135 
L 341.709168 176.53279 
L 342.653612 177.419782 
L 343.598055 177.715446 
L 344.542499 177.419782 
L 345.486943 177.715446 
L 346.431387 177.715446 
L 347.375831 175.350135 
L 348.320275 175.941463 
L 349.264719 174.758808 
L 350.209163 175.350135 
L 351.153607 175.054472 
L 352.098051 175.941463 
L 353.042495 176.237127 
L 353.986939 175.941463 
L 354.931383 176.237127 
L 355.875827 175.941463 
L 356.820271 175.941463 
L 357.764715 175.350135 
L 358.709159 175.350135 
L 359.653603 174.463144 
L 360.598047 174.463144 
L 361.542491 175.054472 
L 362.486935 175.054472 
L 363.431379 175.941463 
L 364.375823 176.53279 
L 365.320267 176.828454 
L 366.264711 177.419782 
L 367.209155 177.419782 
L 369.098043 175.645799 
L 370.986931 174.463144 
L 371.931375 173.280489 
L 372.875818 172.689161 
L 373.820262 174.16748 
L 374.764706 176.237127 
L 375.70915 175.645799 
L 377.598038 178.011109 
L 378.542482 178.306773 
L 379.486926 176.828454 
L 380.43137 175.054472 
L 381.375814 173.871816 
L 382.320258 171.80217 
L 383.264702 171.210842 
L 384.209146 169.732523 
L 385.15359 172.097834 
L 386.098034 172.984825 
L 387.042478 174.463144 
L 387.986922 175.350135 
L 388.931366 175.645799 
L 389.87581 176.53279 
L 390.820254 175.645799 
L 391.764698 175.941463 
L 392.709142 174.463144 
L 393.653586 173.871816 
L 394.59803 172.984825 
L 395.542474 174.463144 
L 396.486918 174.16748 
L 397.431362 176.53279 
L 398.375806 176.237127 
L 399.32025 177.419782 
L 400.264694 177.124118 
L 401.209138 178.602437 
L 402.153581 178.306773 
L 403.098025 177.715446 
L 404.042469 176.828454 
L 404.986913 176.237127 
L 405.931357 175.350135 
L 406.875801 175.054472 
L 407.820245 175.645799 
L 408.764689 174.16748 
L 409.709133 173.871816 
L 410.653577 172.097834 
L 411.598021 172.097834 
L 413.486909 171.506506 
L 414.431353 171.80217 
L 415.375797 171.80217 
L 416.320241 172.097834 
L 417.264685 170.323851 
L 418.209129 168.254204 
L 419.153573 166.775885 
L 420.098017 164.706239 
L 421.042461 163.22792 
L 421.986905 163.819247 
L 422.931349 163.523583 
L 423.875793 164.114911 
L 424.820237 165.297566 
L 425.764681 166.184558 
L 426.709125 167.95854 
L 427.653569 167.662877 
L 428.598013 167.95854 
L 429.542457 168.549868 
L 430.486901 168.845532 
L 431.431344 168.845532 
L 432.375788 170.028187 
L 433.320232 169.141196 
L 434.264676 170.915178 
L 435.20912 170.323851 
L 436.153564 171.80217 
L 437.098008 172.393497 
L 438.042452 171.506506 
L 438.986896 170.915178 
L 439.93134 170.028187 
L 440.875784 170.915178 
L 441.820228 171.210842 
L 442.764672 171.80217 
L 443.709116 171.80217 
L 444.65356 172.393497 
L 445.598004 172.097834 
L 446.542448 170.915178 
L 447.486892 171.506506 
L 448.431336 171.80217 
L 449.37578 171.210842 
L 450.320224 172.393497 
L 451.264668 171.80217 
L 452.209112 172.393497 
L 454.098 171.210842 
L 455.042444 170.915178 
L 455.986888 171.80217 
L 456.931332 172.984825 
L 457.875776 171.506506 
L 458.82022 172.393497 
L 460.709108 171.210842 
L 461.653551 170.028187 
L 462.597995 170.323851 
L 463.542439 171.506506 
L 464.486883 172.097834 
L 467.320215 181.263411 
L 469.209103 191.020317 
L 472.986879 212.30811 
L 473.931323 215.856076 
L 474.875767 217.334395 
L 475.820211 215.856076 
L 476.764655 210.238463 
L 479.597987 185.698368 
L 480.542431 175.350135 
L 481.486875 162.045264 
L 483.375763 123.904634 
L 484.320207 109.417108 
L 485.264651 104.09516 
L 486.209095 111.782419 
L 487.153539 128.339591 
L 489.042427 166.480221 
L 489.986871 177.419782 
L 490.931314 183.333058 
L 491.875758 185.994032 
L 492.820202 185.698368 
L 493.764646 186.289696 
L 494.70909 186.289696 
L 495.653534 188.063679 
L 496.597978 188.359342 
L 497.542422 189.246334 
L 498.486866 189.246334 
L 499.43131 187.176687 
L 500.375754 186.58536 
L 501.320198 187.176687 
L 502.264642 186.881023 
L 504.15353 187.472351 
L 505.097974 187.176687 
L 506.042418 187.176687 
L 506.986862 183.037394 
L 507.931306 180.672084 
L 508.87575 176.237127 
L 511.709082 167.662877 
L 512.653526 166.775885 
L 513.59797 166.184558 
L 514.542414 166.184558 
L 515.486858 167.367213 
L 516.431302 166.775885 
L 517.375746 166.775885 
L 518.32019 165.297566 
L 519.264634 165.001902 
L 520.209077 164.114911 
L 522.097965 165.297566 
L 523.042409 165.297566 
L 523.986853 166.775885 
L 524.931297 167.071549 
L 525.875741 167.95854 
L 526.820185 167.367213 
L 528.709073 167.95854 
L 529.653517 167.662877 
L 530.597961 168.254204 
L 531.542405 168.549868 
L 532.486849 169.732523 
L 533.431293 171.210842 
L 535.320181 175.350135 
L 536.264625 176.237127 
L 538.153513 178.602437 
L 540.042401 178.602437 
L 540.986845 179.785092 
L 541.931289 178.898101 
L 542.875733 179.785092 
L 544.764621 182.150403 
L 545.709065 184.220049 
L 546.653509 184.515713 
L 547.597953 186.58536 
L 548.542397 187.176687 
L 549.486841 188.655006 
L 550.431284 189.541998 
L 551.375728 188.359342 
L 552.320172 188.95067 
L 553.264616 188.359342 
L 554.20906 188.95067 
L 555.153504 189.246334 
L 556.097948 190.428989 
L 557.042392 191.907308 
L 557.986836 191.907308 
L 558.93128 193.089963 
L 559.875724 192.498636 
L 561.764612 192.498636 
L 562.709056 192.794299 
L 563.6535 191.31598 
L 564.597944 191.611644 
L 566.486832 191.020317 
L 567.431276 191.020317 
L 568.37572 190.428989 
L 569.320164 191.31598 
L 570.264608 190.724653 
L 571.209052 190.428989 
L 572.153496 189.541998 
L 573.09794 187.472351 
L 574.986828 185.698368 
L 575.931272 183.924385 
L 576.875716 183.628722 
L 577.82016 182.74173 
L 578.764604 182.446066 
L 579.709047 181.854739 
L 580.653491 182.150403 
L 581.597935 182.150403 
L 587.264599 175.054472 
L 588.209043 174.463144 
L 589.153487 173.576153 
L 590.097931 173.576153 
L 591.042375 173.871816 
L 591.986819 172.689161 
L 592.931263 173.280489 
L 593.875707 173.576153 
L 594.820151 172.097834 
L 595.764595 171.80217 
L 596.709039 170.619515 
L 597.653483 168.845532 
L 598.597927 169.141196 
L 599.542371 169.141196 
L 600.486815 168.549868 
L 601.431259 169.732523 
L 602.375703 168.845532 
L 603.320147 169.436859 
L 604.264591 170.323851 
L 605.209035 170.028187 
L 606.153479 168.845532 
L 607.097923 168.549868 
L 608.042367 167.367213 
L 608.98681 167.071549 
L 610.875698 167.071549 
L 612.764586 167.662877 
L 613.70903 168.845532 
L 614.653474 169.436859 
L 615.597918 168.845532 
L 616.542362 169.436859 
L 618.43125 167.662877 
L 619.375694 167.367213 
L 620.320138 166.480221 
L 621.264582 166.184558 
L 622.209026 166.775885 
L 623.15347 167.662877 
L 624.097914 167.071549 
L 625.042358 167.95854 
L 625.986802 168.254204 
L 626.931246 169.436859 
L 627.87569 168.549868 
L 628.820134 169.436859 
L 629.764578 168.845532 
L 630.709022 167.95854 
L 631.653466 168.254204 
L 632.59791 168.254204 
L 635.431242 169.141196 
L 636.375686 170.619515 
L 637.32013 170.323851 
L 638.264574 171.506506 
L 639.209017 170.028187 
L 640.153461 170.323851 
L 641.097905 170.028187 
L 642.042349 168.549868 
L 642.986793 169.141196 
L 643.931237 168.549868 
L 644.875681 168.845532 
L 645.820125 169.436859 
L 646.764569 169.436859 
L 647.709013 169.732523 
L 648.653457 170.323851 
L 649.597901 170.028187 
L 650.542345 170.028187 
L 651.486789 169.141196 
L 652.431233 169.141196 
L 653.375677 168.845532 
L 654.320121 168.254204 
L 655.264565 167.367213 
L 656.209009 168.254204 
L 657.153453 168.254204 
L 658.097897 169.732523 
L 659.042341 169.141196 
L 659.986785 169.732523 
L 660.931229 170.915178 
L 661.875673 171.506506 
L 662.820117 169.732523 
L 663.764561 169.141196 
L 664.709005 168.845532 
L 665.653449 167.071549 
L 666.597893 167.95854 
L 667.542337 167.367213 
L 668.48678 167.071549 
L 670.375668 170.028187 
L 671.320112 170.323851 
L 672.264556 170.323851 
L 673.209 170.915178 
L 674.153444 170.323851 
L 675.097888 170.323851 
L 676.042332 170.028187 
L 676.986776 170.323851 
L 677.93122 171.210842 
L 678.875664 170.915178 
L 680.764552 172.689161 
L 681.708996 173.280489 
L 682.65344 172.984825 
L 683.597884 173.576153 
L 684.542328 172.689161 
L 685.486772 172.393497 
L 686.431216 170.915178 
L 687.37566 168.845532 
L 688.320104 167.071549 
L 689.264548 165.888894 
L 691.153436 167.071549 
L 692.09788 168.254204 
L 693.042324 170.028187 
L 693.986768 170.619515 
L 694.931212 170.915178 
L 695.875656 169.141196 
L 696.8201 167.071549 
L 697.764543 164.706239 
L 698.708987 161.453937 
L 699.653431 159.975618 
L 700.597875 159.679954 
L 701.542319 159.679954 
L 702.486763 161.453937 
L 704.375651 167.662877 
L 705.320095 169.436859 
L 707.208983 170.619515 
L 708.153427 169.141196 
L 709.097871 169.141196 
L 710.042315 168.254204 
L 712.875647 168.254204 
L 713.820091 169.732523 
L 714.764535 170.028187 
L 715.708979 171.506506 
L 716.653423 171.506506 
L 717.597867 172.393497 
L 718.542311 172.097834 
L 719.486755 172.097834 
L 720.431199 172.393497 
L 721.375643 170.323851 
L 722.320087 170.619515 
L 723.264531 170.028187 
L 724.208975 170.619515 
L 725.153419 170.323851 
L 726.097863 172.097834 
L 727.042307 172.097834 
L 727.98675 173.280489 
L 728.931194 173.576153 
L 729.875638 173.576153 
L 730.820082 173.280489 
L 731.764526 172.393497 
L 732.70897 172.689161 
L 733.653414 172.393497 
L 734.597858 172.984825 
L 735.542302 172.393497 
L 736.486746 172.984825 
L 737.43119 173.871816 
L 738.375634 174.16748 
L 739.320078 175.645799 
L 740.264522 177.715446 
L 741.208966 178.011109 
L 742.15341 180.080756 
L 743.097854 181.559075 
L 744.986742 187.472351 
L 745.931186 193.385627 
L 747.820074 209.647136 
L 749.708962 226.499972 
L 750.653406 232.413248 
L 751.59785 235.074222 
L 752.542294 231.230593 
L 753.486738 224.72599 
L 754.431182 216.151739 
L 756.32007 196.342265 
L 757.264513 182.446066 
L 758.208957 164.114911 
L 760.097845 123.313307 
L 761.042289 113.556402 
L 761.986733 113.852065 
L 762.931177 124.200298 
L 764.820065 156.427652 
L 765.764509 168.845532 
L 766.708953 176.237127 
L 767.653397 180.37642 
L 768.597841 180.672084 
L 769.542285 183.037394 
L 770.486729 184.811377 
L 771.431173 186.881023 
L 772.375617 187.176687 
L 773.320061 188.063679 
L 774.264505 187.472351 
L 775.208949 186.58536 
L 776.153393 187.472351 
L 777.097837 186.289696 
L 778.042281 186.58536 
L 778.986725 187.472351 
L 779.931169 187.176687 
L 780.875613 187.176687 
L 781.820057 185.402704 
L 782.764501 182.446066 
L 783.708945 178.898101 
L 784.653389 177.124118 
L 785.597833 174.16748 
L 786.542276 172.984825 
L 787.48672 171.506506 
L 788.431164 169.141196 
L 790.320052 169.141196 
L 791.264496 168.845532 
L 792.20894 167.95854 
L 795.042272 168.845532 
L 795.986716 169.436859 
L 796.93116 170.323851 
L 797.875604 171.80217 
L 798.820048 170.323851 
L 799.764492 170.028187 
L 801.65338 170.619515 
L 802.597824 170.028187 
L 803.542268 170.619515 
L 804.486712 171.506506 
L 805.431156 172.689161 
L 806.3756 173.576153 
L 807.320044 175.350135 
L 808.264488 176.53279 
L 810.153376 177.124118 
L 811.09782 178.602437 
L 812.042264 178.306773 
L 814.875596 179.193765 
L 815.820039 181.263411 
L 816.764483 181.854739 
L 817.708927 183.333058 
L 818.653371 184.220049 
L 819.597815 185.994032 
L 820.542259 186.58536 
L 821.486703 187.472351 
L 822.431147 186.58536 
L 823.375591 186.881023 
L 824.320035 188.063679 
L 825.264479 187.472351 
L 826.208923 188.359342 
L 827.153367 189.837661 
L 829.042255 192.202972 
L 829.986699 193.681291 
L 830.931143 192.794299 
L 831.875587 193.976955 
L 832.820031 194.272618 
L 833.764475 194.863946 
L 834.708919 193.681291 
L 835.653363 193.976955 
L 837.542251 193.976955 
L 839.431139 194.568282 
L 840.375583 194.568282 
L 841.320027 195.455274 
L 842.264471 195.455274 
L 843.208915 195.750937 
L 844.153359 195.455274 
L 845.097803 193.385627 
L 846.042246 191.907308 
L 846.98669 190.133325 
L 847.931134 190.724653 
L 848.875578 188.95067 
L 849.820022 188.95067 
L 850.764466 187.768015 
L 851.70891 188.063679 
L 852.653354 187.472351 
L 853.597798 186.58536 
L 854.542242 186.881023 
L 855.486686 184.515713 
L 856.43113 183.924385 
L 857.375574 182.446066 
L 860.208906 178.898101 
L 861.15335 179.193765 
L 862.097794 179.193765 
L 863.042238 178.306773 
L 864.931126 177.715446 
L 865.87557 178.306773 
L 867.764458 175.941463 
L 869.653346 174.16748 
L 870.59779 173.576153 
L 871.542234 172.393497 
L 872.486678 173.576153 
L 873.431122 172.984825 
L 874.375566 174.16748 
L 875.320009 174.16748 
L 876.264453 174.758808 
L 877.208897 175.054472 
L 878.153341 174.16748 
L 879.097785 174.758808 
L 880.042229 173.576153 
L 880.986673 172.984825 
L 881.931117 172.097834 
L 882.875561 172.097834 
L 883.820005 172.984825 
L 884.764449 173.280489 
L 886.653337 174.463144 
L 887.597781 176.237127 
L 888.542225 175.054472 
L 889.486669 174.758808 
L 890.431113 174.16748 
L 891.375557 174.463144 
L 892.320001 173.280489 
L 893.264445 173.280489 
L 894.208889 172.393497 
L 895.153333 173.576153 
L 896.097777 173.871816 
L 897.042221 174.758808 
L 897.986665 175.054472 
L 898.931109 176.237127 
L 899.875553 175.941463 
L 900.819997 175.941463 
L 901.764441 175.054472 
L 903.653329 174.463144 
L 904.597772 173.280489 
L 906.48666 173.280489 
L 907.431104 174.463144 
L 908.375548 175.350135 
L 909.319992 175.054472 
L 912.153324 175.054472 
L 913.097768 174.758808 
L 914.042212 173.576153 
L 914.986656 174.16748 
L 915.9311 174.16748 
L 916.875544 172.689161 
L 917.819988 173.576153 
L 920.65332 174.463144 
L 921.597764 175.350135 
L 922.542208 175.350135 
L 923.486652 175.645799 
L 924.431096 175.645799 
L 925.37554 173.871816 
L 926.319984 174.758808 
L 927.264428 172.984825 
L 928.208872 174.16748 
L 929.153316 174.16748 
L 930.09776 174.463144 
L 931.042204 175.350135 
L 931.986648 175.645799 
L 932.931092 176.828454 
L 933.875536 177.419782 
L 934.819979 176.828454 
L 937.653311 174.16748 
L 940.486643 175.054472 
L 941.431087 174.758808 
L 942.375531 174.758808 
L 945.208863 175.645799 
L 946.153307 176.53279 
L 947.097751 175.645799 
L 948.042195 176.237127 
L 948.986639 175.941463 
L 950.875527 176.53279 
L 952.764415 176.53279 
L 953.708859 177.419782 
L 954.653303 178.602437 
L 955.597747 177.715446 
L 956.542191 175.941463 
L 957.486635 175.645799 
L 958.431079 172.984825 
L 959.375523 171.506506 
L 960.319967 169.732523 
L 961.264411 169.436859 
L 962.208855 169.732523 
L 963.153299 171.80217 
L 965.042186 173.576153 
L 965.98663 172.984825 
L 966.931074 172.984825 
L 967.875518 171.210842 
L 968.819962 168.845532 
L 969.764406 165.59323 
L 970.70885 164.410575 
L 971.653294 163.819247 
L 972.597738 164.114911 
L 973.542182 165.888894 
L 975.43107 171.506506 
L 977.319958 175.054472 
L 978.264402 175.941463 
L 981.097734 175.054472 
L 982.042178 173.280489 
L 982.986622 174.758808 
L 983.931066 174.463144 
L 984.87551 173.871816 
L 985.819954 175.645799 
L 986.764398 175.054472 
L 987.708842 176.828454 
L 988.653286 176.53279 
L 989.59773 177.124118 
L 990.542174 177.419782 
L 991.486618 178.011109 
L 992.431062 175.645799 
L 994.319949 175.645799 
L 995.264393 174.463144 
L 996.208837 174.463144 
L 997.153281 175.054472 
L 998.097725 176.237127 
L 999.042169 176.237127 
L 1001.875501 178.011109 
L 1002.819945 178.306773 
L 1003.764389 177.419782 
L 1004.708833 177.419782 
L 1005.653277 176.237127 
L 1007.542165 176.237127 
L 1008.486609 177.124118 
L 1009.431053 178.602437 
L 1010.375497 180.37642 
L 1011.319941 182.446066 
L 1013.208829 191.020317 
L 1014.153273 197.229256 
L 1016.042161 212.012446 
L 1016.986605 221.473688 
L 1017.931049 229.752274 
L 1018.875493 235.66555 
L 1019.819937 238.03086 
L 1020.764381 236.552541 
L 1021.708825 230.934929 
L 1022.653269 222.360679 
L 1023.597712 216.447403 
L 1024.542156 208.760144 
L 1025.4866 198.707575 
L 1026.431044 183.924385 
L 1028.319932 142.531454 
L 1029.264376 125.678617 
L 1030.20882 119.469678 
L 1031.153264 123.904634 
L 1032.097708 135.435523 
L 1033.042152 153.17535 
L 1033.986596 167.367213 
L 1034.93104 179.193765 
L 1035.875484 184.220049 
L 1037.764372 188.359342 
L 1038.708816 190.133325 
L 1039.65326 191.31598 
L 1040.597704 191.31598 
L 1042.486592 191.907308 
L 1043.431036 191.31598 
L 1044.37548 190.428989 
L 1045.319924 190.428989 
L 1046.264368 190.724653 
L 1048.153256 191.907308 
L 1049.0977 191.611644 
L 1050.042144 191.020317 
L 1050.986588 188.95067 
L 1051.931032 185.698368 
L 1052.875475 183.333058 
L 1054.764363 175.941463 
L 1057.597695 171.506506 
L 1058.542139 171.506506 
L 1059.486583 170.915178 
L 1060.431027 171.80217 
L 1061.375471 170.619515 
L 1063.264359 168.845532 
L 1064.208803 169.732523 
L 1065.153247 169.141196 
L 1066.097691 170.028187 
L 1067.042135 170.323851 
L 1067.986579 170.323851 
L 1068.931023 172.097834 
L 1069.875467 172.393497 
L 1071.764355 172.393497 
L 1072.708799 172.097834 
L 1073.653243 173.280489 
L 1074.597687 171.80217 
L 1075.542131 172.984825 
L 1076.486575 174.463144 
L 1077.431019 175.645799 
L 1078.375463 177.419782 
L 1079.319907 178.011109 
L 1080.264351 178.898101 
L 1081.208795 180.37642 
L 1082.153238 180.967747 
L 1083.097682 181.263411 
L 1084.042126 180.672084 
L 1084.98657 181.559075 
L 1085.931014 181.854739 
L 1088.764346 184.515713 
L 1089.70879 185.994032 
L 1091.597678 187.768015 
L 1092.542122 188.95067 
L 1093.486566 188.655006 
L 1094.43101 188.95067 
L 1095.375454 189.541998 
L 1096.319898 189.246334 
L 1097.264342 189.541998 
L 1098.208786 189.541998 
L 1099.15323 190.724653 
L 1100.097674 190.724653 
L 1101.042118 192.202972 
L 1101.986562 193.976955 
L 1102.931006 193.976955 
L 1103.87545 194.568282 
L 1105.764338 195.15961 
L 1106.708782 194.568282 
L 1107.653226 193.681291 
L 1108.59767 193.681291 
L 1109.542114 192.794299 
L 1110.486558 193.385627 
L 1111.431001 194.272618 
L 1112.375445 194.863946 
L 1113.319889 194.863946 
L 1114.264333 195.455274 
L 1115.208777 194.568282 
L 1116.153221 194.272618 
L 1117.097665 193.089963 
L 1118.042109 192.498636 
L 1118.986553 191.020317 
L 1119.930997 190.428989 
L 1120.875441 188.655006 
L 1121.819885 188.655006 
L 1122.764329 187.472351 
L 1123.708773 188.655006 
L 1124.653217 187.768015 
L 1126.542105 187.768015 
L 1127.486549 186.289696 
L 1128.430993 185.402704 
L 1129.375437 184.220049 
L 1130.319881 183.333058 
L 1131.264325 181.854739 
L 1132.208769 180.967747 
L 1134.097657 180.967747 
L 1135.042101 180.080756 
L 1135.986545 180.672084 
L 1136.930989 180.37642 
L 1137.875433 180.672084 
L 1138.819877 179.785092 
L 1139.764321 177.715446 
L 1140.708765 176.828454 
L 1141.653208 176.53279 
L 1142.597652 174.758808 
L 1143.542096 174.463144 
L 1144.48654 173.576153 
L 1146.375428 173.576153 
L 1147.319872 174.463144 
L 1148.264316 174.758808 
L 1149.20876 174.16748 
L 1151.097648 174.758808 
L 1152.042092 172.984825 
L 1152.986536 172.689161 
L 1153.93098 171.506506 
L 1155.819868 171.506506 
L 1156.764312 173.280489 
L 1157.708756 172.984825 
L 1158.6532 172.984825 
L 1159.597644 173.280489 
L 1160.542088 174.758808 
L 1161.486532 173.576153 
L 1162.430976 172.984825 
L 1163.37542 172.984825 
L 1164.319864 171.506506 
L 1165.264308 172.393497 
L 1166.208752 172.097834 
L 1167.153196 172.097834 
L 1169.042084 172.689161 
L 1169.986528 174.463144 
L 1170.930971 175.054472 
L 1171.875415 175.350135 
L 1172.819859 175.054472 
L 1173.764303 175.350135 
L 1175.653191 174.16748 
L 1176.597635 172.984825 
L 1177.542079 172.984825 
L 1178.486523 173.871816 
L 1179.430967 173.871816 
L 1180.375411 174.463144 
L 1182.264299 176.237127 
L 1183.208743 175.645799 
L 1184.153187 175.645799 
L 1185.097631 176.53279 
L 1186.042075 175.350135 
L 1186.986519 174.463144 
L 1187.930963 174.758808 
L 1188.875407 173.576153 
L 1189.819851 173.576153 
L 1190.764295 174.16748 
L 1191.708739 173.576153 
L 1192.653183 175.054472 
L 1195.486515 175.054472 
L 1196.430959 175.350135 
L 1197.375403 174.758808 
L 1198.319847 173.576153 
L 1199.264291 172.689161 
L 1200.208734 172.097834 
L 1201.153178 172.984825 
L 1202.097622 172.984825 
L 1203.042066 173.576153 
L 1203.98651 174.463144 
L 1204.930954 175.054472 
L 1205.875398 174.758808 
L 1206.819842 174.16748 
L 1207.764286 173.871816 
L 1208.70873 172.393497 
L 1209.653174 172.984825 
L 1210.597618 172.689161 
L 1211.542062 171.80217 
L 1212.486506 171.80217 
L 1213.43095 172.393497 
L 1214.375394 173.576153 
L 1215.319838 172.984825 
L 1216.264282 174.16748 
L 1218.15317 174.16748 
L 1219.097614 173.280489 
L 1220.042058 173.280489 
L 1220.986502 173.576153 
L 1222.87539 173.576153 
L 1223.819834 175.350135 
L 1224.764278 175.645799 
L 1225.708722 175.350135 
L 1226.653166 176.53279 
L 1227.59761 176.828454 
L 1228.542054 176.53279 
L 1229.486498 174.758808 
L 1230.430941 175.054472 
L 1231.375385 171.506506 
L 1233.264273 169.732523 
L 1234.208717 168.549868 
L 1236.097605 169.732523 
L 1237.042049 171.80217 
L 1238.930937 173.576153 
L 1239.875381 172.689161 
L 1240.819825 170.915178 
L 1243.653157 164.114911 
L 1244.597601 162.340928 
L 1245.542045 162.932256 
L 1246.486489 164.114911 
L 1248.375377 168.549868 
L 1250.264265 172.689161 
L 1251.208709 174.463144 
L 1252.153153 172.984825 
L 1253.097597 172.689161 
L 1254.042041 171.506506 
L 1254.986485 170.915178 
L 1255.930929 171.506506 
L 1256.875373 170.915178 
L 1257.819817 171.80217 
L 1258.764261 173.280489 
L 1259.708704 173.280489 
L 1260.653148 173.871816 
L 1261.597592 174.16748 
L 1262.542036 173.871816 
L 1263.48648 174.16748 
L 1264.430924 173.871816 
L 1265.375368 173.871816 
L 1269.153144 171.506506 
L 1270.097588 172.689161 
L 1271.042032 172.984825 
L 1271.986476 174.758808 
L 1272.93092 175.350135 
L 1273.875364 175.645799 
L 1274.819808 175.645799 
L 1275.764252 174.758808 
L 1276.708696 174.463144 
L 1277.65314 174.463144 
L 1278.597584 174.16748 
L 1279.542028 173.576153 
L 1281.430916 175.350135 
L 1282.37536 176.53279 
L 1283.319804 176.53279 
L 1284.264248 177.715446 
L 1285.208692 178.306773 
L 1286.153136 180.37642 
L 1287.09758 180.672084 
L 1288.042024 183.628722 
L 1288.986467 185.994032 
L 1289.930911 191.020317 
L 1290.875355 197.52492 
L 1291.819799 205.212179 
L 1292.764243 217.334395 
L 1294.653131 236.256878 
L 1295.597575 240.987498 
L 1296.542019 241.578826 
L 1297.486463 236.848205 
L 1300.319795 210.238463 
L 1302.208683 187.768015 
L 1305.042015 131.296229 
L 1305.986459 119.469678 
L 1306.930903 116.51304 
L 1307.875347 124.791626 
L 1308.819791 139.279152 
L 1309.764235 155.836325 
L 1310.708679 167.662877 
L 1311.653123 175.350135 
L 1312.597567 178.898101 
L 1313.542011 180.967747 
L 1314.486455 183.924385 
L 1315.430899 185.402704 
L 1317.319787 191.020317 
L 1318.264231 192.202972 
L 1319.208674 192.202972 
L 1320.153118 189.837661 
L 1321.097562 188.95067 
L 1322.042006 186.881023 
L 1322.98645 187.176687 
L 1323.930894 188.063679 
L 1324.875338 187.768015 
L 1325.819782 188.655006 
L 1326.764226 189.246334 
L 1326.764226 189.246334 
" style="fill:none;stroke:#ff7f0e;stroke-linecap:square;stroke-width:1.5;"/>
   </g>
   <g id="patch_3">
    <path d="M 38.86 330.68 
L 38.86 10.8 
" style="fill:none;stroke:#000000;stroke-linecap:square;stroke-linejoin:miter;stroke-width:0.8;"/>
   </g>
   <g id="patch_4">
    <path d="M 1326.24 330.68 
L 1326.24 10.8 
" style="fill:none;stroke:#000000;stroke-linecap:square;stroke-linejoin:miter;stroke-width:0.8;"/>
   </g>
   <g id="patch_5">
    <path d="M 38.86 330.68 
L 1326.24 330.68 
" style="fill:none;stroke:#000000;stroke-linecap:square;stroke-linejoin:miter;stroke-width:0.8;"/>
   </g>
   <g id="patch_6">
    <path d="M 38.86 10.8 
L 1326.24 10.8 
" style="fill:none;stroke:#000000;stroke-linecap:square;stroke-linejoin:miter;stroke-width:0.8;"/>
   </g>
  </g>
 </g>
 <defs>
  <clipPath id="pe674b1708c">
   <rect height="319.88" width="1287.38" x="38.86" y="10.8"/>
  </clipPath>
 </defs>
</svg>
