<?xml version="1.0" encoding="utf-8" standalone="no"?>
<!DOCTYPE svg PUBLIC "-//W3C//DTD SVG 1.1//EN"
  "http://www.w3.org/Graphics/SVG/1.1/DTD/svg11.dtd">
<svg height="288pt" version="1.1" viewBox="0 0 720 288" width="720pt" xmlns="http://www.w3.org/2000/svg" xmlns:xlink="http://www.w3.org/1999/xlink">
 <metadata>
  <rdf:RDF xmlns:cc="http://creativecommons.org/ns#" xmlns:dc="http://purl.org/dc/elements/1.1/" xmlns:rdf="http://www.w3.org/1999/02/22-rdf-syntax-ns#">
   <cc:Work>
    <dc:type rdf:resource="http://purl.org/dc/dcmitype/StillImage"/>
    <dc:date>2022-05-27T17:37:43.485255</dc:date>
    <dc:format>image/svg+xml</dc:format>
    <dc:creator>
     <cc:Agent>
      <dc:title>Matplotlib v3.4.2, https://matplotlib.org/</dc:title>
     </cc:Agent>
    </dc:creator>
   </cc:Work>
  </rdf:RDF>
 </metadata>
 <defs>
  <style type="text/css">*{stroke-linecap:butt;stroke-linejoin:round;}</style>
 </defs>
 <g id="figure_1">
  <g id="patch_1">
   <path d="M 0 288 
L 720 288 
L 720 0 
L 0 0 
z
" style="fill:#ffffff;"/>
  </g>
  <g id="axes_1">
   <g id="patch_2">
    <path d="M 90 252 
L 343.636364 252 
L 343.636364 34.56 
L 90 34.56 
z
" style="fill:none;opacity:0;"/>
   </g>
   <g id="matplotlib.axis_1">
    <g id="xtick_1">
     <g id="line2d_1">
      <path clip-path="url(#p14cb9763f3)" d="M 101.528926 252 
L 101.528926 34.56 
" style="fill:none;stroke:#ffffff;stroke-linecap:round;"/>
     </g>
    </g>
    <g id="xtick_2">
     <g id="line2d_2">
      <path clip-path="url(#p14cb9763f3)" d="M 143.605296 252 
L 143.605296 34.56 
" style="fill:none;stroke:#ffffff;stroke-linecap:round;"/>
     </g>
    </g>
    <g id="xtick_3">
     <g id="line2d_3">
      <path clip-path="url(#p14cb9763f3)" d="M 185.681667 252 
L 185.681667 34.56 
" style="fill:none;stroke:#ffffff;stroke-linecap:round;"/>
     </g>
    </g>
    <g id="xtick_4">
     <g id="line2d_4">
      <path clip-path="url(#p14cb9763f3)" d="M 227.758038 252 
L 227.758038 34.56 
" style="fill:none;stroke:#ffffff;stroke-linecap:round;"/>
     </g>
    </g>
    <g id="xtick_5">
     <g id="line2d_5">
      <path clip-path="url(#p14cb9763f3)" d="M 269.834409 252 
L 269.834409 34.56 
" style="fill:none;stroke:#ffffff;stroke-linecap:round;"/>
     </g>
    </g>
    <g id="xtick_6">
     <g id="line2d_6">
      <path clip-path="url(#p14cb9763f3)" d="M 311.91078 252 
L 311.91078 34.56 
" style="fill:none;stroke:#ffffff;stroke-linecap:round;"/>
     </g>
    </g>
   </g>
   <g id="matplotlib.axis_2">
    <g id="ytick_1">
     <g id="line2d_7">
      <path clip-path="url(#p14cb9763f3)" d="M 90 235.677646 
L 343.636364 235.677646 
" style="fill:none;stroke:#ffffff;stroke-linecap:round;"/>
     </g>
    </g>
    <g id="ytick_2">
     <g id="line2d_8">
      <path clip-path="url(#p14cb9763f3)" d="M 90 201.834829 
L 343.636364 201.834829 
" style="fill:none;stroke:#ffffff;stroke-linecap:round;"/>
     </g>
    </g>
    <g id="ytick_3">
     <g id="line2d_9">
      <path clip-path="url(#p14cb9763f3)" d="M 90 167.992012 
L 343.636364 167.992012 
" style="fill:none;stroke:#ffffff;stroke-linecap:round;"/>
     </g>
    </g>
    <g id="ytick_4">
     <g id="line2d_10">
      <path clip-path="url(#p14cb9763f3)" d="M 90 134.149195 
L 343.636364 134.149195 
" style="fill:none;stroke:#ffffff;stroke-linecap:round;"/>
     </g>
    </g>
    <g id="ytick_5">
     <g id="line2d_11">
      <path clip-path="url(#p14cb9763f3)" d="M 90 100.306378 
L 343.636364 100.306378 
" style="fill:none;stroke:#ffffff;stroke-linecap:round;"/>
     </g>
    </g>
    <g id="ytick_6">
     <g id="line2d_12">
      <path clip-path="url(#p14cb9763f3)" d="M 90 66.463561 
L 343.636364 66.463561 
" style="fill:none;stroke:#ffffff;stroke-linecap:round;"/>
     </g>
    </g>
   </g>
   <g id="line2d_13">
    <path clip-path="url(#p14cb9763f3)" d="M 101.528926 48.430092 
L 102.370453 58.027774 
L 103.21198 50.06692 
L 104.053508 55.077374 
L 104.895035 48.45123 
L 105.736563 50.849502 
L 106.57809 55.964895 
L 107.419618 50.941222 
L 108.261145 51.325589 
L 109.102672 52.735713 
L 109.9442 49.12469 
L 110.785727 52.898191 
L 111.627255 54.123836 
L 112.468782 52.321118 
L 113.310309 52.478239 
L 114.151837 47.591566 
L 114.993364 49.568009 
L 115.834892 51.114503 
L 116.676419 46.650905 
L 117.517947 51.22368 
L 118.359474 50.622596 
L 119.201001 53.266062 
L 120.042529 51.498469 
L 120.884056 52.839994 
L 121.725584 53.5861 
L 122.567111 46.952419 
L 124.250166 49.79974 
L 125.091693 53.766494 
L 125.933221 48.949535 
L 126.774748 52.972541 
L 127.616276 49.511212 
L 128.457803 51.144572 
L 129.29933 53.314979 
L 130.140858 54.877286 
L 130.982385 53.811107 
L 131.823913 46.948725 
L 132.66544 51.576078 
L 133.506967 54.230418 
L 134.348495 55.239318 
L 135.190022 48.958552 
L 136.03155 50.739516 
L 136.873077 45.391307 
L 137.714605 49.857383 
L 138.556132 51.095642 
L 139.397659 53.14054 
L 140.239187 57.522766 
L 141.080714 52.090454 
L 141.922242 53.721561 
L 142.763769 52.285292 
L 144.446824 52.697664 
L 145.288351 50.941668 
L 146.129879 53.135101 
L 146.971406 52.652972 
L 147.812934 53.82237 
L 148.654461 51.182914 
L 149.495988 49.916733 
L 150.337516 52.378892 
L 151.179043 55.700767 
L 152.020571 55.91956 
L 152.862098 54.049466 
L 153.703626 46.36634 
L 154.545153 50.444221 
L 155.38668 51.947658 
L 156.228208 49.65758 
L 157.069735 53.210165 
L 158.75279 47.520123 
L 159.594317 49.797868 
L 160.435845 50.18245 
L 161.277372 53.084302 
L 162.1189 50.331023 
L 162.960427 51.83315 
L 163.801955 48.255438 
L 164.643482 50.540045 
L 165.485009 56.240653 
L 166.326537 51.935065 
L 167.168064 53.34544 
L 168.009592 47.451644 
L 168.851119 46.941079 
L 169.692646 51.532158 
L 170.534174 53.046253 
L 171.375701 46.075502 
L 172.217229 48.245193 
L 173.058756 48.81594 
L 173.900284 52.189729 
L 174.741811 50.662767 
L 175.583338 47.462873 
L 176.424866 55.319298 
L 177.266393 49.582298 
L 178.107921 51.679447 
L 179.790975 49.986281 
L 180.632503 50.284144 
L 181.47403 54.468451 
L 182.315558 49.534257 
L 183.157085 49.847437 
L 183.998613 47.253771 
L 184.84014 48.892193 
L 185.681667 46.549942 
L 186.523195 49.494395 
L 187.364722 45.298659 
L 188.20625 48.244196 
L 189.047777 47.749648 
L 189.889304 44.443636 
L 190.730832 53.490523 
L 191.572359 70.34764 
L 193.255414 220.425751 
L 194.096942 236.744182 
L 194.938469 241.472538 
L 195.779996 241.069463 
L 196.621524 241.688766 
L 197.463051 241.943224 
L 198.304579 241.635945 
L 199.146106 242.116364 
L 199.987633 241.539445 
L 200.829161 239.400085 
L 201.670688 235.598738 
L 202.512216 241.539493 
L 204.195271 230.938663 
L 205.036798 238.392896 
L 205.878325 238.720812 
L 206.719853 236.030356 
L 207.56138 239.150427 
L 208.402908 233.916723 
L 209.244435 231.04007 
L 210.085962 231.649247 
L 210.92749 227.908364 
L 211.769017 233.308547 
L 212.610545 225.985632 
L 213.452072 231.967465 
L 214.2936 231.356778 
L 215.135127 224.824952 
L 215.976654 227.915539 
L 216.818182 225.040253 
L 217.659709 226.28267 
L 218.501237 221.742995 
L 219.342764 223.109757 
L 220.184291 221.643943 
L 221.025819 219.105103 
L 221.867346 219.418988 
L 222.708874 215.600902 
L 223.550401 214.493213 
L 224.391929 216.719699 
L 225.233456 213.543205 
L 226.074983 213.454916 
L 226.916511 205.357027 
L 227.758038 206.95675 
L 228.599566 207.260279 
L 229.441093 204.698608 
L 230.28262 200.877402 
L 231.124148 199.491823 
L 231.965675 195.298495 
L 232.807203 197.284161 
L 233.64873 191.178105 
L 234.490258 191.084665 
L 235.331785 190.38818 
L 237.01484 182.796945 
L 237.856367 183.661744 
L 238.697895 178.894245 
L 239.539422 180.133231 
L 240.38095 172.538558 
L 242.064004 175.020549 
L 242.905532 171.438233 
L 243.747059 167.094328 
L 245.430114 163.115077 
L 246.271641 158.846594 
L 247.113169 158.718303 
L 247.954696 156.283165 
L 248.796224 154.531778 
L 249.637751 147.232145 
L 250.479279 146.586991 
L 251.320806 143.037008 
L 252.162333 143.937198 
L 253.003861 142.030401 
L 253.845388 143.09555 
L 254.686916 135.092522 
L 255.528443 134.189082 
L 257.211498 127.937964 
L 258.053025 121.09228 
L 258.894553 119.431831 
L 259.73608 123.473819 
L 260.577608 119.819195 
L 261.419135 114.970545 
L 262.260662 112.327093 
L 263.10219 112.502003 
L 263.943717 106.533825 
L 264.785245 102.838989 
L 265.626772 104.780403 
L 266.468299 100.810721 
L 267.309827 99.965473 
L 268.151354 99.80256 
L 268.992882 93.904006 
L 269.834409 91.721763 
L 270.675937 90.669446 
L 271.517464 95.408434 
L 272.358991 94.719904 
L 273.200519 90.081621 
L 274.042046 87.311254 
L 274.883574 85.683983 
L 275.725101 82.968739 
L 276.566628 80.727245 
L 277.408156 83.677948 
L 278.249683 80.041381 
L 279.091211 79.650009 
L 279.932738 80.277386 
L 280.774266 72.92455 
L 281.615793 74.054321 
L 282.45732 72.59314 
L 283.298848 74.562778 
L 284.140375 68.07569 
L 284.981903 72.677865 
L 285.82343 69.830109 
L 286.664957 69.638377 
L 287.506485 69.704981 
L 288.348012 68.610975 
L 289.18954 68.401217 
L 290.031067 67.4723 
L 290.872595 64.927756 
L 291.714122 63.643525 
L 292.555649 66.473097 
L 293.397177 64.530554 
L 294.238704 63.107573 
L 295.080232 67.115892 
L 295.921759 61.532046 
L 296.763286 62.735367 
L 297.604814 64.746777 
L 298.446341 59.630743 
L 299.287869 60.617386 
L 300.129396 56.243437 
L 300.970924 63.662833 
L 301.812451 58.27519 
L 302.653978 56.124177 
L 303.495506 58.128166 
L 304.337033 62.01491 
L 305.178561 58.293054 
L 306.020088 58.72854 
L 306.861615 58.849749 
L 307.703143 56.823346 
L 308.54467 56.870558 
L 309.386198 57.085262 
L 310.227725 53.254837 
L 311.069253 52.569848 
L 311.91078 53.785844 
L 312.752307 57.085361 
L 313.593835 56.999462 
L 314.435362 52.367187 
L 316.118417 54.703524 
L 316.959945 53.855996 
L 317.801472 57.639436 
L 318.642999 50.864604 
L 319.484527 56.107452 
L 320.326054 54.005909 
L 321.167582 57.48283 
L 322.009109 55.917325 
L 322.850636 55.447318 
L 323.692164 55.116782 
L 324.533691 53.860893 
L 325.375219 53.942003 
L 326.216746 56.039515 
L 327.058274 53.604554 
L 327.899801 56.864827 
L 328.741328 54.767566 
L 329.582856 58.562562 
L 330.424383 51.42503 
L 331.265911 55.102107 
L 332.107438 51.271764 
L 332.107438 51.271764 
" style="fill:none;stroke:#4c72b0;stroke-linecap:round;stroke-width:1.5;"/>
   </g>
  </g>
  <g id="axes_2">
   <g id="patch_3">
    <path d="M 394.363636 252 
L 648 252 
L 648 34.56 
L 394.363636 34.56 
z
" style="fill:none;opacity:0;"/>
   </g>
   <g id="matplotlib.axis_3">
    <g id="xtick_7">
     <g id="line2d_14">
      <path clip-path="url(#p3b8f8d3095)" d="M 407.063011 252 
L 407.063011 34.56 
" style="fill:none;stroke:#ffffff;stroke-linecap:round;"/>
     </g>
    </g>
    <g id="xtick_8">
     <g id="line2d_15">
      <path clip-path="url(#p3b8f8d3095)" d="M 465.585476 252 
L 465.585476 34.56 
" style="fill:none;stroke:#ffffff;stroke-linecap:round;"/>
     </g>
    </g>
    <g id="xtick_9">
     <g id="line2d_16">
      <path clip-path="url(#p3b8f8d3095)" d="M 524.107941 252 
L 524.107941 34.56 
" style="fill:none;stroke:#ffffff;stroke-linecap:round;"/>
     </g>
    </g>
    <g id="xtick_10">
     <g id="line2d_17">
      <path clip-path="url(#p3b8f8d3095)" d="M 582.630407 252 
L 582.630407 34.56 
" style="fill:none;stroke:#ffffff;stroke-linecap:round;"/>
     </g>
    </g>
    <g id="xtick_11">
     <g id="line2d_18">
      <path clip-path="url(#p3b8f8d3095)" d="M 641.152872 252 
L 641.152872 34.56 
" style="fill:none;stroke:#ffffff;stroke-linecap:round;"/>
     </g>
    </g>
   </g>
   <g id="matplotlib.axis_4">
    <g id="ytick_7">
     <g id="line2d_19">
      <path clip-path="url(#p3b8f8d3095)" d="M 394.363636 252 
L 648 252 
" style="fill:none;stroke:#ffffff;stroke-linecap:round;"/>
     </g>
    </g>
    <g id="ytick_8">
     <g id="line2d_20">
      <path clip-path="url(#p3b8f8d3095)" d="M 394.363636 212.145047 
L 648 212.145047 
" style="fill:none;stroke:#ffffff;stroke-linecap:round;"/>
     </g>
    </g>
    <g id="ytick_9">
     <g id="line2d_21">
      <path clip-path="url(#p3b8f8d3095)" d="M 394.363636 172.290094 
L 648 172.290094 
" style="fill:none;stroke:#ffffff;stroke-linecap:round;"/>
     </g>
    </g>
    <g id="ytick_10">
     <g id="line2d_22">
      <path clip-path="url(#p3b8f8d3095)" d="M 394.363636 132.435141 
L 648 132.435141 
" style="fill:none;stroke:#ffffff;stroke-linecap:round;"/>
     </g>
    </g>
    <g id="ytick_11">
     <g id="line2d_23">
      <path clip-path="url(#p3b8f8d3095)" d="M 394.363636 92.580188 
L 648 92.580188 
" style="fill:none;stroke:#ffffff;stroke-linecap:round;"/>
     </g>
    </g>
    <g id="ytick_12">
     <g id="line2d_24">
      <path clip-path="url(#p3b8f8d3095)" d="M 394.363636 52.725235 
L 648 52.725235 
" style="fill:none;stroke:#ffffff;stroke-linecap:round;"/>
     </g>
    </g>
   </g>
   <g id="PolyCollection_1">
    <defs>
     <path d="M 407.063011 -36 
L 407.063011 -106.135427 
L 409.989135 -91.657513 
L 412.915258 -77.296792 
L 415.841381 -63.232814 
L 418.767504 -51.700006 
L 421.693628 -43.74843 
L 424.619751 -38.193725 
L 427.545874 -36 
L 430.471997 -36 
L 433.398121 -36 
L 436.324244 -36 
L 439.250367 -39.000442 
L 442.17649 -46.597826 
L 445.102614 -56.601665 
L 448.028737 -69.912248 
L 450.95486 -84.518195 
L 453.880983 -93.585219 
L 456.807107 -92.87076 
L 459.73323 -82.70912 
L 462.659353 -67.855045 
L 465.585476 -54.955428 
L 468.5116 -49.742652 
L 471.437723 -53.291421 
L 474.363846 -63.743234 
L 477.289969 -77.37399 
L 480.216093 -87.805707 
L 483.142216 -90.157268 
L 486.068339 -83.328353 
L 488.994462 -70.514286 
L 491.920586 -57.233934 
L 494.846709 -52.224788 
L 497.772832 -60.831122 
L 500.698955 -73.642733 
L 503.625079 -80.867433 
L 506.551202 -80.710421 
L 509.477325 -73.245163 
L 512.403448 -61.964738 
L 515.329572 -52.14738 
L 518.255695 -46.16677 
L 521.181818 -43.79461 
L 524.107941 -45.334145 
L 527.034065 -53.765647 
L 529.960188 -67.258847 
L 532.886311 -77.914412 
L 535.812434 -80.746485 
L 538.738558 -74.429906 
L 541.664681 -61.920275 
L 544.590804 -49.070985 
L 547.516927 -39.700639 
L 550.443051 -36 
L 553.369174 -36 
L 556.295297 -36 
L 559.22142 -36 
L 562.147544 -36 
L 565.073667 -36 
L 567.99979 -36 
L 570.925913 -36 
L 573.852037 -36 
L 576.77816 -36 
L 579.704283 -36 
L 582.630407 -36 
L 585.55653 -36 
L 588.482653 -36 
L 591.408776 -36 
L 594.3349 -36 
L 597.261023 -36 
L 600.187146 -36 
L 603.113269 -36 
L 606.039393 -36 
L 608.965516 -36 
L 611.891639 -36 
L 614.817762 -36 
L 617.743886 -36 
L 620.670009 -36 
L 623.596132 -36 
L 626.522255 -36 
L 629.448379 -36 
L 632.374502 -36 
L 635.300625 -36 
L 635.300625 -36 
L 635.300625 -36 
L 632.374502 -36 
L 629.448379 -36 
L 626.522255 -36 
L 623.596132 -36 
L 620.670009 -36 
L 617.743886 -36 
L 614.817762 -36 
L 611.891639 -36 
L 608.965516 -36 
L 606.039393 -36 
L 603.113269 -36 
L 600.187146 -36 
L 597.261023 -36 
L 594.3349 -36 
L 591.408776 -36 
L 588.482653 -36 
L 585.55653 -36 
L 582.630407 -36 
L 579.704283 -36 
L 576.77816 -36 
L 573.852037 -36 
L 570.925913 -36 
L 567.99979 -36 
L 565.073667 -36 
L 562.147544 -36 
L 559.22142 -36 
L 556.295297 -36 
L 553.369174 -36 
L 550.443051 -36 
L 547.516927 -36 
L 544.590804 -36 
L 541.664681 -36 
L 538.738558 -36 
L 535.812434 -36 
L 532.886311 -36 
L 529.960188 -36 
L 527.034065 -36 
L 524.107941 -36 
L 521.181818 -36 
L 518.255695 -36 
L 515.329572 -36 
L 512.403448 -36 
L 509.477325 -36 
L 506.551202 -36 
L 503.625079 -36 
L 500.698955 -36 
L 497.772832 -36 
L 494.846709 -36 
L 491.920586 -36 
L 488.994462 -36 
L 486.068339 -36 
L 483.142216 -36 
L 480.216093 -36 
L 477.289969 -36 
L 474.363846 -36 
L 471.437723 -36 
L 468.5116 -36 
L 465.585476 -36 
L 462.659353 -36 
L 459.73323 -36 
L 456.807107 -36 
L 453.880983 -36 
L 450.95486 -36 
L 448.028737 -36 
L 445.102614 -36 
L 442.17649 -36 
L 439.250367 -36 
L 436.324244 -36 
L 433.398121 -36 
L 430.471997 -36 
L 427.545874 -36 
L 424.619751 -36 
L 421.693628 -36 
L 418.767504 -36 
L 415.841381 -36 
L 412.915258 -36 
L 409.989135 -36 
L 407.063011 -36 
z
" id="ma58a7baf96" style="stroke:#4881d6;stroke-opacity:0.3;"/>
    </defs>
    <g clip-path="url(#p3b8f8d3095)">
     <use style="fill:#4881d6;fill-opacity:0.3;stroke:#4881d6;stroke-opacity:0.3;" x="0" xlink:href="#ma58a7baf96" y="288"/>
    </g>
   </g>
   <g id="patch_4">
    <path clip-path="url(#p3b8f8d3095)" d="M 405.892562 252 
L 408.233461 252 
L 408.233461 189.10353 
L 405.892562 189.10353 
z
" style="fill:#4881d6;opacity:0.25;stroke:#ffffff;stroke-linejoin:miter;"/>
   </g>
   <g id="patch_5">
    <path clip-path="url(#p3b8f8d3095)" d="M 408.818685 252 
L 411.159584 252 
L 411.159584 252 
L 408.818685 252 
z
" style="fill:#4881d6;opacity:0.25;stroke:#ffffff;stroke-linejoin:miter;"/>
   </g>
   <g id="patch_6">
    <path clip-path="url(#p3b8f8d3095)" d="M 411.744808 252 
L 414.085707 252 
L 414.085707 167.609949 
L 411.744808 167.609949 
z
" style="fill:#4881d6;opacity:0.25;stroke:#ffffff;stroke-linejoin:miter;"/>
   </g>
   <g id="patch_7">
    <path clip-path="url(#p3b8f8d3095)" d="M 414.670932 252 
L 417.01183 252 
L 417.01183 252 
L 414.670932 252 
z
" style="fill:#4881d6;opacity:0.25;stroke:#ffffff;stroke-linejoin:miter;"/>
   </g>
   <g id="patch_8">
    <path clip-path="url(#p3b8f8d3095)" d="M 417.597055 252 
L 419.937954 252 
L 419.937954 252 
L 417.597055 252 
z
" style="fill:#4881d6;opacity:0.25;stroke:#ffffff;stroke-linejoin:miter;"/>
   </g>
   <g id="patch_9">
    <path clip-path="url(#p3b8f8d3095)" d="M 420.523178 252 
L 422.864077 252 
L 422.864077 252 
L 420.523178 252 
z
" style="fill:#4881d6;opacity:0.25;stroke:#ffffff;stroke-linejoin:miter;"/>
   </g>
   <g id="patch_10">
    <path clip-path="url(#p3b8f8d3095)" d="M 423.449302 252 
L 425.7902 252 
L 425.7902 252 
L 423.449302 252 
z
" style="fill:#4881d6;opacity:0.25;stroke:#ffffff;stroke-linejoin:miter;"/>
   </g>
   <g id="patch_11">
    <path clip-path="url(#p3b8f8d3095)" d="M 426.375425 252 
L 428.716323 252 
L 428.716323 252 
L 426.375425 252 
z
" style="fill:#4881d6;opacity:0.25;stroke:#ffffff;stroke-linejoin:miter;"/>
   </g>
   <g id="patch_12">
    <path clip-path="url(#p3b8f8d3095)" d="M 429.301548 252 
L 431.642447 252 
L 431.642447 252 
L 429.301548 252 
z
" style="fill:#4881d6;opacity:0.25;stroke:#ffffff;stroke-linejoin:miter;"/>
   </g>
   <g id="patch_13">
    <path clip-path="url(#p3b8f8d3095)" d="M 432.227671 252 
L 434.56857 252 
L 434.56857 252 
L 432.227671 252 
z
" style="fill:#4881d6;opacity:0.25;stroke:#ffffff;stroke-linejoin:miter;"/>
   </g>
   <g id="patch_14">
    <path clip-path="url(#p3b8f8d3095)" d="M 435.153795 252 
L 437.494693 252 
L 437.494693 252 
L 435.153795 252 
z
" style="fill:#4881d6;opacity:0.25;stroke:#ffffff;stroke-linejoin:miter;"/>
   </g>
   <g id="patch_15">
    <path clip-path="url(#p3b8f8d3095)" d="M 438.079918 252 
L 440.420816 252 
L 440.420816 252 
L 438.079918 252 
z
" style="fill:#4881d6;opacity:0.25;stroke:#ffffff;stroke-linejoin:miter;"/>
   </g>
   <g id="patch_16">
    <path clip-path="url(#p3b8f8d3095)" d="M 441.006041 252 
L 443.34694 252 
L 443.34694 252 
L 441.006041 252 
z
" style="fill:#4881d6;opacity:0.25;stroke:#ffffff;stroke-linejoin:miter;"/>
   </g>
   <g id="patch_17">
    <path clip-path="url(#p3b8f8d3095)" d="M 443.932164 252 
L 446.273063 252 
L 446.273063 252 
L 443.932164 252 
z
" style="fill:#4881d6;opacity:0.25;stroke:#ffffff;stroke-linejoin:miter;"/>
   </g>
   <g id="patch_18">
    <path clip-path="url(#p3b8f8d3095)" d="M 446.858288 252 
L 449.199186 252 
L 449.199186 136.576481 
L 446.858288 136.576481 
z
" style="fill:#4881d6;opacity:0.25;stroke:#ffffff;stroke-linejoin:miter;"/>
   </g>
   <g id="patch_19">
    <path clip-path="url(#p3b8f8d3095)" d="M 449.784411 252 
L 452.125309 252 
L 452.125309 252 
L 449.784411 252 
z
" style="fill:#4881d6;opacity:0.25;stroke:#ffffff;stroke-linejoin:miter;"/>
   </g>
   <g id="patch_20">
    <path clip-path="url(#p3b8f8d3095)" d="M 452.710534 252 
L 455.051433 252 
L 455.051433 199.512669 
L 452.710534 199.512669 
z
" style="fill:#4881d6;opacity:0.25;stroke:#ffffff;stroke-linejoin:miter;"/>
   </g>
   <g id="patch_21">
    <path clip-path="url(#p3b8f8d3095)" d="M 455.636657 252 
L 457.977556 252 
L 457.977556 89.785064 
L 455.636657 89.785064 
z
" style="fill:#4881d6;opacity:0.25;stroke:#ffffff;stroke-linejoin:miter;"/>
   </g>
   <g id="patch_22">
    <path clip-path="url(#p3b8f8d3095)" d="M 458.562781 252 
L 460.903679 252 
L 460.903679 252 
L 458.562781 252 
z
" style="fill:#4881d6;opacity:0.25;stroke:#ffffff;stroke-linejoin:miter;"/>
   </g>
   <g id="patch_23">
    <path clip-path="url(#p3b8f8d3095)" d="M 461.488904 252 
L 463.829802 252 
L 463.829802 252 
L 461.488904 252 
z
" style="fill:#4881d6;opacity:0.25;stroke:#ffffff;stroke-linejoin:miter;"/>
   </g>
   <g id="patch_24">
    <path clip-path="url(#p3b8f8d3095)" d="M 464.415027 252 
L 466.755926 252 
L 466.755926 252 
L 464.415027 252 
z
" style="fill:#4881d6;opacity:0.25;stroke:#ffffff;stroke-linejoin:miter;"/>
   </g>
   <g id="patch_25">
    <path clip-path="url(#p3b8f8d3095)" d="M 467.34115 252 
L 469.682049 252 
L 469.682049 252 
L 467.34115 252 
z
" style="fill:#4881d6;opacity:0.25;stroke:#ffffff;stroke-linejoin:miter;"/>
   </g>
   <g id="patch_26">
    <path clip-path="url(#p3b8f8d3095)" d="M 470.267274 252 
L 472.608172 252 
L 472.608172 252 
L 470.267274 252 
z
" style="fill:#4881d6;opacity:0.25;stroke:#ffffff;stroke-linejoin:miter;"/>
   </g>
   <g id="patch_27">
    <path clip-path="url(#p3b8f8d3095)" d="M 473.193397 252 
L 475.534295 252 
L 475.534295 148.251475 
L 473.193397 148.251475 
z
" style="fill:#4881d6;opacity:0.25;stroke:#ffffff;stroke-linejoin:miter;"/>
   </g>
   <g id="patch_28">
    <path clip-path="url(#p3b8f8d3095)" d="M 476.11952 252 
L 478.460419 252 
L 478.460419 252 
L 476.11952 252 
z
" style="fill:#4881d6;opacity:0.25;stroke:#ffffff;stroke-linejoin:miter;"/>
   </g>
   <g id="patch_29">
    <path clip-path="url(#p3b8f8d3095)" d="M 479.045643 252 
L 481.386542 252 
L 481.386542 252 
L 479.045643 252 
z
" style="fill:#4881d6;opacity:0.25;stroke:#ffffff;stroke-linejoin:miter;"/>
   </g>
   <g id="patch_30">
    <path clip-path="url(#p3b8f8d3095)" d="M 481.971767 252 
L 484.312665 252 
L 484.312665 44.914286 
L 481.971767 44.914286 
z
" style="fill:#4881d6;opacity:0.25;stroke:#ffffff;stroke-linejoin:miter;"/>
   </g>
   <g id="patch_31">
    <path clip-path="url(#p3b8f8d3095)" d="M 484.89789 252 
L 487.238788 252 
L 487.238788 252 
L 484.89789 252 
z
" style="fill:#4881d6;opacity:0.25;stroke:#ffffff;stroke-linejoin:miter;"/>
   </g>
   <g id="patch_32">
    <path clip-path="url(#p3b8f8d3095)" d="M 487.824013 252 
L 490.164912 252 
L 490.164912 252 
L 487.824013 252 
z
" style="fill:#4881d6;opacity:0.25;stroke:#ffffff;stroke-linejoin:miter;"/>
   </g>
   <g id="patch_33">
    <path clip-path="url(#p3b8f8d3095)" d="M 490.750136 252 
L 493.091035 252 
L 493.091035 252 
L 490.750136 252 
z
" style="fill:#4881d6;opacity:0.25;stroke:#ffffff;stroke-linejoin:miter;"/>
   </g>
   <g id="patch_34">
    <path clip-path="url(#p3b8f8d3095)" d="M 493.67626 252 
L 496.017158 252 
L 496.017158 252 
L 493.67626 252 
z
" style="fill:#4881d6;opacity:0.25;stroke:#ffffff;stroke-linejoin:miter;"/>
   </g>
   <g id="patch_35">
    <path clip-path="url(#p3b8f8d3095)" d="M 496.602383 252 
L 498.943281 252 
L 498.943281 252 
L 496.602383 252 
z
" style="fill:#4881d6;opacity:0.25;stroke:#ffffff;stroke-linejoin:miter;"/>
   </g>
   <g id="patch_36">
    <path clip-path="url(#p3b8f8d3095)" d="M 499.528506 252 
L 501.869405 252 
L 501.869405 166.600222 
L 499.528506 166.600222 
z
" style="fill:#4881d6;opacity:0.25;stroke:#ffffff;stroke-linejoin:miter;"/>
   </g>
   <g id="patch_37">
    <path clip-path="url(#p3b8f8d3095)" d="M 502.454629 252 
L 504.795528 252 
L 504.795528 136.576481 
L 502.454629 136.576481 
z
" style="fill:#4881d6;opacity:0.25;stroke:#ffffff;stroke-linejoin:miter;"/>
   </g>
   <g id="patch_38">
    <path clip-path="url(#p3b8f8d3095)" d="M 505.380753 252 
L 507.721651 252 
L 507.721651 252 
L 505.380753 252 
z
" style="fill:#4881d6;opacity:0.25;stroke:#ffffff;stroke-linejoin:miter;"/>
   </g>
   <g id="patch_39">
    <path clip-path="url(#p3b8f8d3095)" d="M 508.306876 252 
L 510.647774 252 
L 510.647774 252 
L 508.306876 252 
z
" style="fill:#4881d6;opacity:0.25;stroke:#ffffff;stroke-linejoin:miter;"/>
   </g>
   <g id="patch_40">
    <path clip-path="url(#p3b8f8d3095)" d="M 511.232999 252 
L 513.573898 252 
L 513.573898 190.999381 
L 511.232999 190.999381 
z
" style="fill:#4881d6;opacity:0.25;stroke:#ffffff;stroke-linejoin:miter;"/>
   </g>
   <g id="patch_41">
    <path clip-path="url(#p3b8f8d3095)" d="M 514.159122 252 
L 516.500021 252 
L 516.500021 252 
L 514.159122 252 
z
" style="fill:#4881d6;opacity:0.25;stroke:#ffffff;stroke-linejoin:miter;"/>
   </g>
   <g id="patch_42">
    <path clip-path="url(#p3b8f8d3095)" d="M 517.085246 252 
L 519.426144 252 
L 519.426144 252 
L 517.085246 252 
z
" style="fill:#4881d6;opacity:0.25;stroke:#ffffff;stroke-linejoin:miter;"/>
   </g>
   <g id="patch_43">
    <path clip-path="url(#p3b8f8d3095)" d="M 520.011369 252 
L 522.352267 252 
L 522.352267 252 
L 520.011369 252 
z
" style="fill:#4881d6;opacity:0.25;stroke:#ffffff;stroke-linejoin:miter;"/>
   </g>
   <g id="patch_44">
    <path clip-path="url(#p3b8f8d3095)" d="M 522.937492 252 
L 525.278391 252 
L 525.278391 252 
L 522.937492 252 
z
" style="fill:#4881d6;opacity:0.25;stroke:#ffffff;stroke-linejoin:miter;"/>
   </g>
   <g id="patch_45">
    <path clip-path="url(#p3b8f8d3095)" d="M 525.863615 252 
L 528.204514 252 
L 528.204514 252 
L 525.863615 252 
z
" style="fill:#4881d6;opacity:0.25;stroke:#ffffff;stroke-linejoin:miter;"/>
   </g>
   <g id="patch_46">
    <path clip-path="url(#p3b8f8d3095)" d="M 528.789739 252 
L 531.130637 252 
L 531.130637 167.609949 
L 528.789739 167.609949 
z
" style="fill:#4881d6;opacity:0.25;stroke:#ffffff;stroke-linejoin:miter;"/>
   </g>
   <g id="patch_47">
    <path clip-path="url(#p3b8f8d3095)" d="M 531.715862 252 
L 534.05676 252 
L 534.05676 252 
L 531.715862 252 
z
" style="fill:#4881d6;opacity:0.25;stroke:#ffffff;stroke-linejoin:miter;"/>
   </g>
   <g id="patch_48">
    <path clip-path="url(#p3b8f8d3095)" d="M 534.641985 252 
L 536.982884 252 
L 536.982884 109.6407 
L 534.641985 109.6407 
z
" style="fill:#4881d6;opacity:0.25;stroke:#ffffff;stroke-linejoin:miter;"/>
   </g>
   <g id="patch_49">
    <path clip-path="url(#p3b8f8d3095)" d="M 537.568108 252 
L 539.909007 252 
L 539.909007 252 
L 537.568108 252 
z
" style="fill:#4881d6;opacity:0.25;stroke:#ffffff;stroke-linejoin:miter;"/>
   </g>
   <g id="patch_50">
    <path clip-path="url(#p3b8f8d3095)" d="M 540.494232 252 
L 542.83513 252 
L 542.83513 252 
L 540.494232 252 
z
" style="fill:#4881d6;opacity:0.25;stroke:#ffffff;stroke-linejoin:miter;"/>
   </g>
   <g id="patch_51">
    <path clip-path="url(#p3b8f8d3095)" d="M 543.420355 252 
L 545.761254 252 
L 545.761254 252 
L 543.420355 252 
z
" style="fill:#4881d6;opacity:0.25;stroke:#ffffff;stroke-linejoin:miter;"/>
   </g>
   <g id="patch_52">
    <path clip-path="url(#p3b8f8d3095)" d="M 546.346478 252 
L 548.687377 252 
L 548.687377 252 
L 546.346478 252 
z
" style="fill:#4881d6;opacity:0.25;stroke:#ffffff;stroke-linejoin:miter;"/>
   </g>
   <g id="patch_53">
    <path clip-path="url(#p3b8f8d3095)" d="M 549.272601 252 
L 551.6135 252 
L 551.6135 252 
L 549.272601 252 
z
" style="fill:#4881d6;opacity:0.25;stroke:#ffffff;stroke-linejoin:miter;"/>
   </g>
   <g id="patch_54">
    <path clip-path="url(#p3b8f8d3095)" d="M 552.198725 252 
L 554.539623 252 
L 554.539623 252 
L 552.198725 252 
z
" style="fill:#4881d6;opacity:0.25;stroke:#ffffff;stroke-linejoin:miter;"/>
   </g>
   <g id="patch_55">
    <path clip-path="url(#p3b8f8d3095)" d="M 555.124848 252 
L 557.465747 252 
L 557.465747 252 
L 555.124848 252 
z
" style="fill:#4881d6;opacity:0.25;stroke:#ffffff;stroke-linejoin:miter;"/>
   </g>
   <g id="patch_56">
    <path clip-path="url(#p3b8f8d3095)" d="M 558.050971 252 
L 560.39187 252 
L 560.39187 252 
L 558.050971 252 
z
" style="fill:#4881d6;opacity:0.25;stroke:#ffffff;stroke-linejoin:miter;"/>
   </g>
   <g id="patch_57">
    <path clip-path="url(#p3b8f8d3095)" d="M 560.977094 252 
L 563.317993 252 
L 563.317993 252 
L 560.977094 252 
z
" style="fill:#4881d6;opacity:0.25;stroke:#ffffff;stroke-linejoin:miter;"/>
   </g>
   <g id="patch_58">
    <path clip-path="url(#p3b8f8d3095)" d="M 563.903218 252 
L 566.244116 252 
L 566.244116 252 
L 563.903218 252 
z
" style="fill:#4881d6;opacity:0.25;stroke:#ffffff;stroke-linejoin:miter;"/>
   </g>
   <g id="patch_59">
    <path clip-path="url(#p3b8f8d3095)" d="M 566.829341 252 
L 569.17024 252 
L 569.17024 252 
L 566.829341 252 
z
" style="fill:#4881d6;opacity:0.25;stroke:#ffffff;stroke-linejoin:miter;"/>
   </g>
   <g id="patch_60">
    <path clip-path="url(#p3b8f8d3095)" d="M 569.755464 252 
L 572.096363 252 
L 572.096363 252 
L 569.755464 252 
z
" style="fill:#4881d6;opacity:0.25;stroke:#ffffff;stroke-linejoin:miter;"/>
   </g>
   <g id="patch_61">
    <path clip-path="url(#p3b8f8d3095)" d="M 572.681587 252 
L 575.022486 252 
L 575.022486 252 
L 572.681587 252 
z
" style="fill:#4881d6;opacity:0.25;stroke:#ffffff;stroke-linejoin:miter;"/>
   </g>
   <g id="patch_62">
    <path clip-path="url(#p3b8f8d3095)" d="M 575.607711 252 
L 577.948609 252 
L 577.948609 252 
L 575.607711 252 
z
" style="fill:#4881d6;opacity:0.25;stroke:#ffffff;stroke-linejoin:miter;"/>
   </g>
   <g id="patch_63">
    <path clip-path="url(#p3b8f8d3095)" d="M 578.533834 252 
L 580.874733 252 
L 580.874733 252 
L 578.533834 252 
z
" style="fill:#4881d6;opacity:0.25;stroke:#ffffff;stroke-linejoin:miter;"/>
   </g>
   <g id="patch_64">
    <path clip-path="url(#p3b8f8d3095)" d="M 581.459957 252 
L 583.800856 252 
L 583.800856 252 
L 581.459957 252 
z
" style="fill:#4881d6;opacity:0.25;stroke:#ffffff;stroke-linejoin:miter;"/>
   </g>
   <g id="patch_65">
    <path clip-path="url(#p3b8f8d3095)" d="M 584.38608 252 
L 586.726979 252 
L 586.726979 252 
L 584.38608 252 
z
" style="fill:#4881d6;opacity:0.25;stroke:#ffffff;stroke-linejoin:miter;"/>
   </g>
   <g id="patch_66">
    <path clip-path="url(#p3b8f8d3095)" d="M 587.312204 252 
L 589.653102 252 
L 589.653102 252 
L 587.312204 252 
z
" style="fill:#4881d6;opacity:0.25;stroke:#ffffff;stroke-linejoin:miter;"/>
   </g>
   <g id="patch_67">
    <path clip-path="url(#p3b8f8d3095)" d="M 590.238327 252 
L 592.579226 252 
L 592.579226 252 
L 590.238327 252 
z
" style="fill:#4881d6;opacity:0.25;stroke:#ffffff;stroke-linejoin:miter;"/>
   </g>
   <g id="patch_68">
    <path clip-path="url(#p3b8f8d3095)" d="M 593.16445 252 
L 595.505349 252 
L 595.505349 252 
L 593.16445 252 
z
" style="fill:#4881d6;opacity:0.25;stroke:#ffffff;stroke-linejoin:miter;"/>
   </g>
   <g id="patch_69">
    <path clip-path="url(#p3b8f8d3095)" d="M 596.090573 252 
L 598.431472 252 
L 598.431472 252 
L 596.090573 252 
z
" style="fill:#4881d6;opacity:0.25;stroke:#ffffff;stroke-linejoin:miter;"/>
   </g>
   <g id="patch_70">
    <path clip-path="url(#p3b8f8d3095)" d="M 599.016697 252 
L 601.357595 252 
L 601.357595 252 
L 599.016697 252 
z
" style="fill:#4881d6;opacity:0.25;stroke:#ffffff;stroke-linejoin:miter;"/>
   </g>
   <g id="patch_71">
    <path clip-path="url(#p3b8f8d3095)" d="M 601.94282 252 
L 604.283719 252 
L 604.283719 252 
L 601.94282 252 
z
" style="fill:#4881d6;opacity:0.25;stroke:#ffffff;stroke-linejoin:miter;"/>
   </g>
   <g id="patch_72">
    <path clip-path="url(#p3b8f8d3095)" d="M 604.868943 252 
L 607.209842 252 
L 607.209842 252 
L 604.868943 252 
z
" style="fill:#4881d6;opacity:0.25;stroke:#ffffff;stroke-linejoin:miter;"/>
   </g>
   <g id="patch_73">
    <path clip-path="url(#p3b8f8d3095)" d="M 607.795066 252 
L 610.135965 252 
L 610.135965 252 
L 607.795066 252 
z
" style="fill:#4881d6;opacity:0.25;stroke:#ffffff;stroke-linejoin:miter;"/>
   </g>
   <g id="patch_74">
    <path clip-path="url(#p3b8f8d3095)" d="M 610.72119 252 
L 613.062088 252 
L 613.062088 252 
L 610.72119 252 
z
" style="fill:#4881d6;opacity:0.25;stroke:#ffffff;stroke-linejoin:miter;"/>
   </g>
   <g id="patch_75">
    <path clip-path="url(#p3b8f8d3095)" d="M 613.647313 252 
L 615.988212 252 
L 615.988212 252 
L 613.647313 252 
z
" style="fill:#4881d6;opacity:0.25;stroke:#ffffff;stroke-linejoin:miter;"/>
   </g>
   <g id="patch_76">
    <path clip-path="url(#p3b8f8d3095)" d="M 616.573436 252 
L 618.914335 252 
L 618.914335 252 
L 616.573436 252 
z
" style="fill:#4881d6;opacity:0.25;stroke:#ffffff;stroke-linejoin:miter;"/>
   </g>
   <g id="patch_77">
    <path clip-path="url(#p3b8f8d3095)" d="M 619.49956 252 
L 621.840458 252 
L 621.840458 252 
L 619.49956 252 
z
" style="fill:#4881d6;opacity:0.25;stroke:#ffffff;stroke-linejoin:miter;"/>
   </g>
   <g id="patch_78">
    <path clip-path="url(#p3b8f8d3095)" d="M 622.425683 252 
L 624.766581 252 
L 624.766581 252 
L 622.425683 252 
z
" style="fill:#4881d6;opacity:0.25;stroke:#ffffff;stroke-linejoin:miter;"/>
   </g>
   <g id="patch_79">
    <path clip-path="url(#p3b8f8d3095)" d="M 625.351806 252 
L 627.692705 252 
L 627.692705 252 
L 625.351806 252 
z
" style="fill:#4881d6;opacity:0.25;stroke:#ffffff;stroke-linejoin:miter;"/>
   </g>
   <g id="patch_80">
    <path clip-path="url(#p3b8f8d3095)" d="M 628.277929 252 
L 630.618828 252 
L 630.618828 252 
L 628.277929 252 
z
" style="fill:#4881d6;opacity:0.25;stroke:#ffffff;stroke-linejoin:miter;"/>
   </g>
   <g id="patch_81">
    <path clip-path="url(#p3b8f8d3095)" d="M 631.204053 252 
L 633.544951 252 
L 633.544951 252 
L 631.204053 252 
z
" style="fill:#4881d6;opacity:0.25;stroke:#ffffff;stroke-linejoin:miter;"/>
   </g>
   <g id="patch_82">
    <path clip-path="url(#p3b8f8d3095)" d="M 634.130176 252 
L 636.471074 252 
L 636.471074 252 
L 634.130176 252 
z
" style="fill:#4881d6;opacity:0.25;stroke:#ffffff;stroke-linejoin:miter;"/>
   </g>
  </g>
 </g>
 <defs>
  <clipPath id="p14cb9763f3">
   <rect height="217.44" width="253.636364" x="90" y="34.56"/>
  </clipPath>
  <clipPath id="p3b8f8d3095">
   <rect height="217.44" width="253.636364" x="394.363636" y="34.56"/>
  </clipPath>
 </defs>
</svg>
