<?xml version="1.0" encoding="utf-8" standalone="no"?>
<!DOCTYPE svg PUBLIC "-//W3C//DTD SVG 1.1//EN"
  "http://www.w3.org/Graphics/SVG/1.1/DTD/svg11.dtd">
<svg height="288pt" version="1.1" viewBox="0 0 720 288" width="720pt" xmlns="http://www.w3.org/2000/svg" xmlns:xlink="http://www.w3.org/1999/xlink">
 <metadata>
  <rdf:RDF xmlns:cc="http://creativecommons.org/ns#" xmlns:dc="http://purl.org/dc/elements/1.1/" xmlns:rdf="http://www.w3.org/1999/02/22-rdf-syntax-ns#">
   <cc:Work>
    <dc:type rdf:resource="http://purl.org/dc/dcmitype/StillImage"/>
    <dc:date>2022-05-29T00:14:54.418209</dc:date>
    <dc:format>image/svg+xml</dc:format>
    <dc:creator>
     <cc:Agent>
      <dc:title>Matplotlib v3.4.2, https://matplotlib.org/</dc:title>
     </cc:Agent>
    </dc:creator>
   </cc:Work>
  </rdf:RDF>
 </metadata>
 <defs>
  <style type="text/css">*{stroke-linecap:butt;stroke-linejoin:round;}</style>
 </defs>
 <g id="figure_1">
  <g id="patch_1">
   <path d="M 0 288 
L 720 288 
L 720 0 
L 0 0 
z
" style="fill:#ffffff;"/>
  </g>
  <g id="axes_1">
   <g id="patch_2">
    <path d="M 90 252 
L 343.636364 252 
L 343.636364 34.56 
L 90 34.56 
z
" style="fill:none;opacity:0;"/>
   </g>
   <g id="matplotlib.axis_1">
    <g id="xtick_1">
     <g id="line2d_1">
      <path clip-path="url(#p3e2242ddae)" d="M 101.528926 252 
L 101.528926 34.56 
" style="fill:none;stroke:#ffffff;stroke-linecap:round;"/>
     </g>
    </g>
    <g id="xtick_2">
     <g id="line2d_2">
      <path clip-path="url(#p3e2242ddae)" d="M 143.605296 252 
L 143.605296 34.56 
" style="fill:none;stroke:#ffffff;stroke-linecap:round;"/>
     </g>
    </g>
    <g id="xtick_3">
     <g id="line2d_3">
      <path clip-path="url(#p3e2242ddae)" d="M 185.681667 252 
L 185.681667 34.56 
" style="fill:none;stroke:#ffffff;stroke-linecap:round;"/>
     </g>
    </g>
    <g id="xtick_4">
     <g id="line2d_4">
      <path clip-path="url(#p3e2242ddae)" d="M 227.758038 252 
L 227.758038 34.56 
" style="fill:none;stroke:#ffffff;stroke-linecap:round;"/>
     </g>
    </g>
    <g id="xtick_5">
     <g id="line2d_5">
      <path clip-path="url(#p3e2242ddae)" d="M 269.834409 252 
L 269.834409 34.56 
" style="fill:none;stroke:#ffffff;stroke-linecap:round;"/>
     </g>
    </g>
    <g id="xtick_6">
     <g id="line2d_6">
      <path clip-path="url(#p3e2242ddae)" d="M 311.91078 252 
L 311.91078 34.56 
" style="fill:none;stroke:#ffffff;stroke-linecap:round;"/>
     </g>
    </g>
   </g>
   <g id="matplotlib.axis_2">
    <g id="ytick_1">
     <g id="line2d_7">
      <path clip-path="url(#p3e2242ddae)" d="M 90 219.770156 
L 343.636364 219.770156 
" style="fill:none;stroke:#ffffff;stroke-linecap:round;"/>
     </g>
    </g>
    <g id="ytick_2">
     <g id="line2d_8">
      <path clip-path="url(#p3e2242ddae)" d="M 90 186.319041 
L 343.636364 186.319041 
" style="fill:none;stroke:#ffffff;stroke-linecap:round;"/>
     </g>
    </g>
    <g id="ytick_3">
     <g id="line2d_9">
      <path clip-path="url(#p3e2242ddae)" d="M 90 152.867926 
L 343.636364 152.867926 
" style="fill:none;stroke:#ffffff;stroke-linecap:round;"/>
     </g>
    </g>
    <g id="ytick_4">
     <g id="line2d_10">
      <path clip-path="url(#p3e2242ddae)" d="M 90 119.416811 
L 343.636364 119.416811 
" style="fill:none;stroke:#ffffff;stroke-linecap:round;"/>
     </g>
    </g>
    <g id="ytick_5">
     <g id="line2d_11">
      <path clip-path="url(#p3e2242ddae)" d="M 90 85.965696 
L 343.636364 85.965696 
" style="fill:none;stroke:#ffffff;stroke-linecap:round;"/>
     </g>
    </g>
    <g id="ytick_6">
     <g id="line2d_12">
      <path clip-path="url(#p3e2242ddae)" d="M 90 52.514581 
L 343.636364 52.514581 
" style="fill:none;stroke:#ffffff;stroke-linecap:round;"/>
     </g>
    </g>
   </g>
   <g id="line2d_13">
    <path clip-path="url(#p3e2242ddae)" d="M 101.528926 238.819469 
L 102.370453 236.520869 
L 104.053508 238.530056 
L 104.895035 239.099093 
L 105.736563 239.173415 
L 106.57809 237.397789 
L 107.419618 238.753095 
L 108.261145 237.699766 
L 109.102672 242.116364 
L 109.9442 241.338224 
L 110.785727 241.011293 
L 112.468782 238.98172 
L 113.310309 238.276015 
L 114.151837 238.541028 
L 114.993364 240.08552 
L 115.834892 242.081835 
L 116.676419 232.406094 
L 117.517947 238.356967 
L 118.359474 239.164383 
L 119.201001 238.304863 
L 120.042529 236.160821 
L 120.884056 239.250821 
L 121.725584 239.745402 
L 122.567111 238.829805 
L 123.408638 238.322378 
L 124.250166 238.684661 
L 125.091693 239.513225 
L 125.933221 239.126804 
L 126.774748 241.372759 
L 128.457803 237.667165 
L 129.29933 239.400247 
L 130.140858 236.010839 
L 130.982385 238.007463 
L 131.823913 236.509401 
L 132.66544 238.958839 
L 133.506967 238.882524 
L 134.348495 238.232602 
L 135.190022 240.208018 
L 136.03155 238.103381 
L 136.873077 238.94952 
L 137.714605 236.166909 
L 138.556132 237.869852 
L 139.397659 237.6998 
L 140.239187 240.167582 
L 141.080714 234.763267 
L 141.922242 237.705881 
L 142.763769 232.542748 
L 143.605296 236.599967 
L 144.446824 231.614246 
L 145.288351 231.228233 
L 146.129879 227.843857 
L 146.971406 233.129421 
L 147.812934 235.048839 
L 148.654461 224.97147 
L 149.495988 223.956549 
L 150.337516 222.001151 
L 151.179043 221.901775 
L 152.020571 216.598702 
L 152.862098 212.507865 
L 153.703626 209.121883 
L 155.38668 203.551884 
L 156.228208 193.883837 
L 158.75279 174.105429 
L 159.594317 164.210072 
L 160.435845 161.091941 
L 161.277372 153.725352 
L 162.1189 140.878026 
L 162.960427 137.960984 
L 163.801955 127.286093 
L 164.643482 124.533001 
L 165.485009 118.501343 
L 166.326537 113.688648 
L 167.168064 105.072189 
L 168.851119 96.497548 
L 169.692646 98.110836 
L 170.534174 89.226089 
L 171.375701 88.188227 
L 172.217229 91.425616 
L 173.058756 85.894092 
L 173.900284 87.043414 
L 174.741811 80.547836 
L 175.583338 85.438192 
L 176.424866 80.853292 
L 177.266393 83.393971 
L 178.107921 78.71441 
L 178.949448 78.476446 
L 179.790975 80.350024 
L 180.632503 78.416009 
L 181.47403 79.458502 
L 182.315558 82.419143 
L 183.157085 77.637502 
L 183.998613 77.551447 
L 184.84014 77.222148 
L 185.681667 77.312259 
L 187.364722 78.045417 
L 188.20625 79.36149 
L 189.047777 78.233554 
L 189.889304 76.172946 
L 190.730832 80.536769 
L 191.572359 77.144466 
L 192.413887 78.764175 
L 194.096942 79.354022 
L 194.938469 79.446718 
L 195.779996 82.871275 
L 196.621524 81.230715 
L 197.463051 80.976449 
L 198.304579 79.140177 
L 199.146106 78.109152 
L 199.987633 79.868172 
L 200.829161 80.382622 
L 201.670688 84.218736 
L 202.512216 80.177895 
L 203.353743 78.545528 
L 204.195271 78.550811 
L 205.036798 76.949024 
L 205.878325 79.27848 
L 206.719853 77.175064 
L 207.56138 76.768365 
L 208.402908 78.471578 
L 209.244435 82.683356 
L 210.085962 81.383126 
L 210.92749 72.699516 
L 211.769017 76.964367 
L 212.610545 74.448614 
L 213.452072 82.623556 
L 214.2936 75.719896 
L 215.135127 79.573486 
L 215.976654 77.03588 
L 216.818182 78.661945 
L 217.659709 74.973078 
L 218.501237 76.338903 
L 219.342764 78.704458 
L 220.184291 76.989822 
L 221.025819 78.062141 
L 221.867346 77.674001 
L 222.708874 78.271321 
L 223.550401 79.513455 
L 224.391929 83.474951 
L 225.233456 76.857338 
L 226.074983 80.546797 
L 226.916511 75.919984 
L 227.758038 80.149985 
L 228.599566 76.379307 
L 229.441093 81.39233 
L 230.28262 77.644308 
L 231.124148 79.917066 
L 231.965675 79.795854 
L 232.807203 83.53839 
L 233.64873 78.394067 
L 234.490258 78.251585 
L 235.331785 80.138411 
L 236.173312 79.699373 
L 237.01484 80.883887 
L 237.856367 78.500287 
L 238.697895 79.920221 
L 239.539422 79.242601 
L 240.38095 79.184004 
L 241.222477 75.885726 
L 242.064004 74.48035 
L 242.905532 70.910835 
L 245.430114 44.443636 
L 247.113169 46.101066 
L 247.954696 45.77293 
L 249.637751 55.779619 
L 250.479279 64.948945 
L 251.320806 69.539542 
L 252.162333 75.070496 
L 254.686916 104.389085 
L 255.528443 114.386293 
L 256.36997 111.249892 
L 257.211498 107.644696 
L 258.053025 106.021102 
L 258.894553 96.961645 
L 259.73608 85.664125 
L 260.577608 85.165308 
L 261.419135 77.904707 
L 262.260662 77.42201 
L 263.10219 77.619828 
L 263.943717 79.96209 
L 264.785245 80.366439 
L 265.626772 74.486517 
L 266.468299 77.866968 
L 267.309827 78.934312 
L 268.151354 77.187096 
L 268.992882 77.33079 
L 269.834409 79.863668 
L 270.675937 80.672422 
L 271.517464 78.75197 
L 272.358991 78.750118 
L 273.200519 76.479049 
L 274.042046 79.444204 
L 274.883574 80.338666 
L 275.725101 79.44571 
L 276.566628 77.171446 
L 277.408156 80.644113 
L 279.932738 80.512399 
L 280.774266 83.164249 
L 281.615793 80.339704 
L 282.45732 78.311879 
L 283.298848 78.280463 
L 284.140375 77.271793 
L 284.981903 76.447992 
L 286.664957 81.019286 
L 287.506485 79.191103 
L 288.348012 79.895868 
L 289.18954 80.077792 
L 290.031067 75.3829 
L 290.872595 79.536479 
L 291.714122 78.34869 
L 292.555649 76.696176 
L 293.397177 76.953755 
L 294.238704 79.752148 
L 295.080232 73.855588 
L 295.921759 78.922521 
L 296.763286 79.888066 
L 297.604814 77.960179 
L 298.446341 80.601968 
L 299.287869 77.883284 
L 300.129396 75.986654 
L 300.970924 82.750157 
L 301.812451 79.254318 
L 302.653978 78.522152 
L 303.495506 81.656111 
L 305.178561 75.177643 
L 306.020088 74.044277 
L 306.861615 81.463581 
L 307.703143 79.816071 
L 308.54467 76.40296 
L 309.386198 76.766046 
L 310.227725 82.112627 
L 311.069253 79.755304 
L 311.91078 79.899141 
L 312.752307 77.183423 
L 313.593835 80.925065 
L 315.27689 73.461919 
L 316.118417 77.461183 
L 316.959945 76.528923 
L 317.801472 78.150859 
L 318.642999 76.473779 
L 319.484527 80.149268 
L 320.326054 75.448323 
L 321.167582 80.818871 
L 322.009109 76.877192 
L 322.850636 78.009175 
L 323.692164 78.641032 
L 324.533691 80.175346 
L 325.375219 79.975522 
L 326.216746 78.301568 
L 327.058274 81.454911 
L 327.899801 75.286635 
L 328.741328 81.16209 
L 329.582856 80.578109 
L 330.424383 81.903328 
L 332.107438 77.405047 
L 332.107438 77.405047 
" style="fill:none;stroke:#4c72b0;stroke-linecap:round;stroke-width:1.5;"/>
   </g>
  </g>
  <g id="axes_2">
   <g id="patch_3">
    <path d="M 394.363636 252 
L 648 252 
L 648 34.56 
L 394.363636 34.56 
z
" style="fill:none;opacity:0;"/>
   </g>
   <g id="matplotlib.axis_3">
    <g id="xtick_7">
     <g id="line2d_14">
      <path clip-path="url(#pe7785e7cc3)" d="M 407.063011 252 
L 407.063011 34.56 
" style="fill:none;stroke:#ffffff;stroke-linecap:round;"/>
     </g>
    </g>
    <g id="xtick_8">
     <g id="line2d_15">
      <path clip-path="url(#pe7785e7cc3)" d="M 465.585476 252 
L 465.585476 34.56 
" style="fill:none;stroke:#ffffff;stroke-linecap:round;"/>
     </g>
    </g>
    <g id="xtick_9">
     <g id="line2d_16">
      <path clip-path="url(#pe7785e7cc3)" d="M 524.107941 252 
L 524.107941 34.56 
" style="fill:none;stroke:#ffffff;stroke-linecap:round;"/>
     </g>
    </g>
    <g id="xtick_10">
     <g id="line2d_17">
      <path clip-path="url(#pe7785e7cc3)" d="M 582.630407 252 
L 582.630407 34.56 
" style="fill:none;stroke:#ffffff;stroke-linecap:round;"/>
     </g>
    </g>
    <g id="xtick_11">
     <g id="line2d_18">
      <path clip-path="url(#pe7785e7cc3)" d="M 641.152872 252 
L 641.152872 34.56 
" style="fill:none;stroke:#ffffff;stroke-linecap:round;"/>
     </g>
    </g>
   </g>
   <g id="matplotlib.axis_4">
    <g id="ytick_7">
     <g id="line2d_19">
      <path clip-path="url(#pe7785e7cc3)" d="M 394.363636 252 
L 648 252 
" style="fill:none;stroke:#ffffff;stroke-linecap:round;"/>
     </g>
    </g>
    <g id="ytick_8">
     <g id="line2d_20">
      <path clip-path="url(#pe7785e7cc3)" d="M 394.363636 216.736552 
L 648 216.736552 
" style="fill:none;stroke:#ffffff;stroke-linecap:round;"/>
     </g>
    </g>
    <g id="ytick_9">
     <g id="line2d_21">
      <path clip-path="url(#pe7785e7cc3)" d="M 394.363636 181.473105 
L 648 181.473105 
" style="fill:none;stroke:#ffffff;stroke-linecap:round;"/>
     </g>
    </g>
    <g id="ytick_10">
     <g id="line2d_22">
      <path clip-path="url(#pe7785e7cc3)" d="M 394.363636 146.209657 
L 648 146.209657 
" style="fill:none;stroke:#ffffff;stroke-linecap:round;"/>
     </g>
    </g>
    <g id="ytick_11">
     <g id="line2d_23">
      <path clip-path="url(#pe7785e7cc3)" d="M 394.363636 110.946209 
L 648 110.946209 
" style="fill:none;stroke:#ffffff;stroke-linecap:round;"/>
     </g>
    </g>
    <g id="ytick_12">
     <g id="line2d_24">
      <path clip-path="url(#pe7785e7cc3)" d="M 394.363636 75.682761 
L 648 75.682761 
" style="fill:none;stroke:#ffffff;stroke-linecap:round;"/>
     </g>
    </g>
    <g id="ytick_13">
     <g id="line2d_25">
      <path clip-path="url(#pe7785e7cc3)" d="M 394.363636 40.419314 
L 648 40.419314 
" style="fill:none;stroke:#ffffff;stroke-linecap:round;"/>
     </g>
    </g>
   </g>
   <g id="PolyCollection_1">
    <defs>
     <path d="M 407.063011 -36 
L 407.063011 -130.63757 
L 409.989135 -108.668664 
L 412.915258 -87.490371 
L 415.841381 -71.231658 
L 418.767504 -65.91777 
L 421.693628 -73.283408 
L 424.619751 -90.024433 
L 427.545874 -105.302301 
L 430.471997 -108.219983 
L 433.398121 -97.412263 
L 436.324244 -77.936194 
L 439.250367 -58.904844 
L 442.17649 -46.305512 
L 445.102614 -42.547052 
L 448.028737 -48.819256 
L 450.95486 -59.269609 
L 453.880983 -66.090593 
L 456.807107 -66.090593 
L 459.73323 -63.791282 
L 462.659353 -64.790206 
L 465.585476 -72.206935 
L 468.5116 -86.158076 
L 471.437723 -101.298995 
L 474.363846 -111.728346 
L 477.289969 -112.56612 
L 480.216093 -103.420313 
L 483.142216 -88.570351 
L 486.068339 -70.443022 
L 488.994462 -52.998632 
L 491.920586 -40.812629 
L 494.846709 -36 
L 497.772832 -36 
L 500.698955 -36 
L 503.625079 -38.109021 
L 506.551202 -43.449251 
L 509.477325 -49.521935 
L 512.403448 -53.485599 
L 515.329572 -57.350754 
L 518.255695 -63.174008 
L 521.181818 -68.230594 
L 524.107941 -70.154481 
L 527.034065 -68.04546 
L 529.960188 -60.781344 
L 532.886311 -49.652072 
L 535.812434 -39.865155 
L 538.738558 -36 
L 541.664681 -36 
L 544.590804 -36 
L 547.516927 -36 
L 550.443051 -40.198201 
L 553.369174 -55.641049 
L 556.295297 -79.915291 
L 559.22142 -101.662741 
L 562.147544 -114.513267 
L 565.073667 -116.259709 
L 567.99979 -106.084887 
L 570.925913 -88.749714 
L 573.852037 -76.56371 
L 576.77816 -75.228843 
L 579.704283 -76.358882 
L 582.630407 -74.61244 
L 585.55653 -70.806696 
L 588.482653 -67.11486 
L 591.408776 -65.65684 
L 594.3349 -67.11486 
L 597.261023 -70.806696 
L 600.187146 -76.189902 
L 603.113269 -81.930621 
L 606.039393 -85.342706 
L 608.965516 -89.027806 
L 611.891639 -95.459824 
L 614.817762 -97.430945 
L 617.743886 -89.820658 
L 620.670009 -80.803115 
L 623.596132 -83.409138 
L 626.522255 -99.432536 
L 629.448379 -124.38898 
L 632.374502 -154.582464 
L 635.300625 -183.866512 
L 635.300625 -36 
L 635.300625 -36 
L 632.374502 -36 
L 629.448379 -36 
L 626.522255 -36 
L 623.596132 -36 
L 620.670009 -36 
L 617.743886 -36 
L 614.817762 -36 
L 611.891639 -36 
L 608.965516 -36 
L 606.039393 -36 
L 603.113269 -36 
L 600.187146 -36 
L 597.261023 -36 
L 594.3349 -36 
L 591.408776 -36 
L 588.482653 -36 
L 585.55653 -36 
L 582.630407 -36 
L 579.704283 -36 
L 576.77816 -36 
L 573.852037 -36 
L 570.925913 -36 
L 567.99979 -36 
L 565.073667 -36 
L 562.147544 -36 
L 559.22142 -36 
L 556.295297 -36 
L 553.369174 -36 
L 550.443051 -36 
L 547.516927 -36 
L 544.590804 -36 
L 541.664681 -36 
L 538.738558 -36 
L 535.812434 -36 
L 532.886311 -36 
L 529.960188 -36 
L 527.034065 -36 
L 524.107941 -36 
L 521.181818 -36 
L 518.255695 -36 
L 515.329572 -36 
L 512.403448 -36 
L 509.477325 -36 
L 506.551202 -36 
L 503.625079 -36 
L 500.698955 -36 
L 497.772832 -36 
L 494.846709 -36 
L 491.920586 -36 
L 488.994462 -36 
L 486.068339 -36 
L 483.142216 -36 
L 480.216093 -36 
L 477.289969 -36 
L 474.363846 -36 
L 471.437723 -36 
L 468.5116 -36 
L 465.585476 -36 
L 462.659353 -36 
L 459.73323 -36 
L 456.807107 -36 
L 453.880983 -36 
L 450.95486 -36 
L 448.028737 -36 
L 445.102614 -36 
L 442.17649 -36 
L 439.250367 -36 
L 436.324244 -36 
L 433.398121 -36 
L 430.471997 -36 
L 427.545874 -36 
L 424.619751 -36 
L 421.693628 -36 
L 418.767504 -36 
L 415.841381 -36 
L 412.915258 -36 
L 409.989135 -36 
L 407.063011 -36 
z
" id="md8029c20be" style="stroke:#33c2df;stroke-opacity:0.3;"/>
    </defs>
    <g clip-path="url(#pe7785e7cc3)">
     <use style="fill:#33c2df;fill-opacity:0.3;stroke:#33c2df;stroke-opacity:0.3;" x="0" xlink:href="#md8029c20be" y="288"/>
    </g>
   </g>
   <g id="patch_4">
    <path clip-path="url(#pe7785e7cc3)" d="M 405.892562 252 
L 408.233461 252 
L 408.233461 168.346883 
L 405.892562 168.346883 
z
" style="fill:#33c2df;opacity:0.8;stroke:#ffffff;stroke-linejoin:miter;"/>
   </g>
   <g id="patch_5">
    <path clip-path="url(#pe7785e7cc3)" d="M 408.818685 252 
L 411.159584 252 
L 411.159584 107.805496 
L 408.818685 107.805496 
z
" style="fill:#33c2df;opacity:0.8;stroke:#ffffff;stroke-linejoin:miter;"/>
   </g>
   <g id="patch_6">
    <path clip-path="url(#pe7785e7cc3)" d="M 411.744808 252 
L 414.085707 252 
L 414.085707 252 
L 411.744808 252 
z
" style="fill:#33c2df;opacity:0.8;stroke:#ffffff;stroke-linejoin:miter;"/>
   </g>
   <g id="patch_7">
    <path clip-path="url(#pe7785e7cc3)" d="M 414.670932 252 
L 417.01183 252 
L 417.01183 252 
L 414.670932 252 
z
" style="fill:#33c2df;opacity:0.8;stroke:#ffffff;stroke-linejoin:miter;"/>
   </g>
   <g id="patch_8">
    <path clip-path="url(#pe7785e7cc3)" d="M 417.597055 252 
L 419.937954 252 
L 419.937954 252 
L 417.597055 252 
z
" style="fill:#33c2df;opacity:0.8;stroke:#ffffff;stroke-linejoin:miter;"/>
   </g>
   <g id="patch_9">
    <path clip-path="url(#pe7785e7cc3)" d="M 420.523178 252 
L 422.864077 252 
L 422.864077 252 
L 420.523178 252 
z
" style="fill:#33c2df;opacity:0.8;stroke:#ffffff;stroke-linejoin:miter;"/>
   </g>
   <g id="patch_10">
    <path clip-path="url(#pe7785e7cc3)" d="M 423.449302 252 
L 425.7902 252 
L 425.7902 139.760141 
L 423.449302 139.760141 
z
" style="fill:#33c2df;opacity:0.8;stroke:#ffffff;stroke-linejoin:miter;"/>
   </g>
   <g id="patch_11">
    <path clip-path="url(#pe7785e7cc3)" d="M 426.375425 252 
L 428.716323 252 
L 428.716323 90.500046 
L 426.375425 90.500046 
z
" style="fill:#33c2df;opacity:0.8;stroke:#ffffff;stroke-linejoin:miter;"/>
   </g>
   <g id="patch_12">
    <path clip-path="url(#pe7785e7cc3)" d="M 429.301548 252 
L 431.642447 252 
L 431.642447 252 
L 429.301548 252 
z
" style="fill:#33c2df;opacity:0.8;stroke:#ffffff;stroke-linejoin:miter;"/>
   </g>
   <g id="patch_13">
    <path clip-path="url(#pe7785e7cc3)" d="M 432.227671 252 
L 434.56857 252 
L 434.56857 139.760141 
L 432.227671 139.760141 
z
" style="fill:#33c2df;opacity:0.8;stroke:#ffffff;stroke-linejoin:miter;"/>
   </g>
   <g id="patch_14">
    <path clip-path="url(#pe7785e7cc3)" d="M 435.153795 252 
L 437.494693 252 
L 437.494693 252 
L 435.153795 252 
z
" style="fill:#33c2df;opacity:0.8;stroke:#ffffff;stroke-linejoin:miter;"/>
   </g>
   <g id="patch_15">
    <path clip-path="url(#pe7785e7cc3)" d="M 438.079918 252 
L 440.420816 252 
L 440.420816 252 
L 438.079918 252 
z
" style="fill:#33c2df;opacity:0.8;stroke:#ffffff;stroke-linejoin:miter;"/>
   </g>
   <g id="patch_16">
    <path clip-path="url(#pe7785e7cc3)" d="M 441.006041 252 
L 443.34694 252 
L 443.34694 252 
L 441.006041 252 
z
" style="fill:#33c2df;opacity:0.8;stroke:#ffffff;stroke-linejoin:miter;"/>
   </g>
   <g id="patch_17">
    <path clip-path="url(#pe7785e7cc3)" d="M 443.932164 252 
L 446.273063 252 
L 446.273063 252 
L 443.932164 252 
z
" style="fill:#33c2df;opacity:0.8;stroke:#ffffff;stroke-linejoin:miter;"/>
   </g>
   <g id="patch_18">
    <path clip-path="url(#pe7785e7cc3)" d="M 446.858288 252 
L 449.199186 252 
L 449.199186 252 
L 446.858288 252 
z
" style="fill:#33c2df;opacity:0.8;stroke:#ffffff;stroke-linejoin:miter;"/>
   </g>
   <g id="patch_19">
    <path clip-path="url(#pe7785e7cc3)" d="M 449.784411 252 
L 452.125309 252 
L 452.125309 252 
L 449.784411 252 
z
" style="fill:#33c2df;opacity:0.8;stroke:#ffffff;stroke-linejoin:miter;"/>
   </g>
   <g id="patch_20">
    <path clip-path="url(#pe7785e7cc3)" d="M 452.710534 252 
L 455.051433 252 
L 455.051433 112.382344 
L 452.710534 112.382344 
z
" style="fill:#33c2df;opacity:0.8;stroke:#ffffff;stroke-linejoin:miter;"/>
   </g>
   <g id="patch_21">
    <path clip-path="url(#pe7785e7cc3)" d="M 455.636657 252 
L 457.977556 252 
L 457.977556 252 
L 455.636657 252 
z
" style="fill:#33c2df;opacity:0.8;stroke:#ffffff;stroke-linejoin:miter;"/>
   </g>
   <g id="patch_22">
    <path clip-path="url(#pe7785e7cc3)" d="M 458.562781 252 
L 460.903679 252 
L 460.903679 252 
L 458.562781 252 
z
" style="fill:#33c2df;opacity:0.8;stroke:#ffffff;stroke-linejoin:miter;"/>
   </g>
   <g id="patch_23">
    <path clip-path="url(#pe7785e7cc3)" d="M 461.488904 252 
L 463.829802 252 
L 463.829802 252 
L 461.488904 252 
z
" style="fill:#33c2df;opacity:0.8;stroke:#ffffff;stroke-linejoin:miter;"/>
   </g>
   <g id="patch_24">
    <path clip-path="url(#pe7785e7cc3)" d="M 464.415027 252 
L 466.755926 252 
L 466.755926 252 
L 464.415027 252 
z
" style="fill:#33c2df;opacity:0.8;stroke:#ffffff;stroke-linejoin:miter;"/>
   </g>
   <g id="patch_25">
    <path clip-path="url(#pe7785e7cc3)" d="M 467.34115 252 
L 469.682049 252 
L 469.682049 78.056473 
L 467.34115 78.056473 
z
" style="fill:#33c2df;opacity:0.8;stroke:#ffffff;stroke-linejoin:miter;"/>
   </g>
   <g id="patch_26">
    <path clip-path="url(#pe7785e7cc3)" d="M 470.267274 252 
L 472.608172 252 
L 472.608172 252 
L 470.267274 252 
z
" style="fill:#33c2df;opacity:0.8;stroke:#ffffff;stroke-linejoin:miter;"/>
   </g>
   <g id="patch_27">
    <path clip-path="url(#pe7785e7cc3)" d="M 473.193397 252 
L 475.534295 252 
L 475.534295 114.013121 
L 473.193397 114.013121 
z
" style="fill:#33c2df;opacity:0.8;stroke:#ffffff;stroke-linejoin:miter;"/>
   </g>
   <g id="patch_28">
    <path clip-path="url(#pe7785e7cc3)" d="M 476.11952 252 
L 478.460419 252 
L 478.460419 252 
L 476.11952 252 
z
" style="fill:#33c2df;opacity:0.8;stroke:#ffffff;stroke-linejoin:miter;"/>
   </g>
   <g id="patch_29">
    <path clip-path="url(#pe7785e7cc3)" d="M 479.045643 252 
L 481.386542 252 
L 481.386542 66.863734 
L 479.045643 66.863734 
z
" style="fill:#33c2df;opacity:0.8;stroke:#ffffff;stroke-linejoin:miter;"/>
   </g>
   <g id="patch_30">
    <path clip-path="url(#pe7785e7cc3)" d="M 481.971767 252 
L 484.312665 252 
L 484.312665 252 
L 481.971767 252 
z
" style="fill:#33c2df;opacity:0.8;stroke:#ffffff;stroke-linejoin:miter;"/>
   </g>
   <g id="patch_31">
    <path clip-path="url(#pe7785e7cc3)" d="M 484.89789 252 
L 487.238788 252 
L 487.238788 252 
L 484.89789 252 
z
" style="fill:#33c2df;opacity:0.8;stroke:#ffffff;stroke-linejoin:miter;"/>
   </g>
   <g id="patch_32">
    <path clip-path="url(#pe7785e7cc3)" d="M 487.824013 252 
L 490.164912 252 
L 490.164912 252 
L 487.824013 252 
z
" style="fill:#33c2df;opacity:0.8;stroke:#ffffff;stroke-linejoin:miter;"/>
   </g>
   <g id="patch_33">
    <path clip-path="url(#pe7785e7cc3)" d="M 490.750136 252 
L 493.091035 252 
L 493.091035 252 
L 490.750136 252 
z
" style="fill:#33c2df;opacity:0.8;stroke:#ffffff;stroke-linejoin:miter;"/>
   </g>
   <g id="patch_34">
    <path clip-path="url(#pe7785e7cc3)" d="M 493.67626 252 
L 496.017158 252 
L 496.017158 252 
L 493.67626 252 
z
" style="fill:#33c2df;opacity:0.8;stroke:#ffffff;stroke-linejoin:miter;"/>
   </g>
   <g id="patch_35">
    <path clip-path="url(#pe7785e7cc3)" d="M 496.602383 252 
L 498.943281 252 
L 498.943281 252 
L 496.602383 252 
z
" style="fill:#33c2df;opacity:0.8;stroke:#ffffff;stroke-linejoin:miter;"/>
   </g>
   <g id="patch_36">
    <path clip-path="url(#pe7785e7cc3)" d="M 499.528506 252 
L 501.869405 252 
L 501.869405 252 
L 499.528506 252 
z
" style="fill:#33c2df;opacity:0.8;stroke:#ffffff;stroke-linejoin:miter;"/>
   </g>
   <g id="patch_37">
    <path clip-path="url(#pe7785e7cc3)" d="M 502.454629 252 
L 504.795528 252 
L 504.795528 252 
L 502.454629 252 
z
" style="fill:#33c2df;opacity:0.8;stroke:#ffffff;stroke-linejoin:miter;"/>
   </g>
   <g id="patch_38">
    <path clip-path="url(#pe7785e7cc3)" d="M 505.380753 252 
L 507.721651 252 
L 507.721651 252 
L 505.380753 252 
z
" style="fill:#33c2df;opacity:0.8;stroke:#ffffff;stroke-linejoin:miter;"/>
   </g>
   <g id="patch_39">
    <path clip-path="url(#pe7785e7cc3)" d="M 508.306876 252 
L 510.647774 252 
L 510.647774 252 
L 508.306876 252 
z
" style="fill:#33c2df;opacity:0.8;stroke:#ffffff;stroke-linejoin:miter;"/>
   </g>
   <g id="patch_40">
    <path clip-path="url(#pe7785e7cc3)" d="M 511.232999 252 
L 513.573898 252 
L 513.573898 170.868389 
L 511.232999 170.868389 
z
" style="fill:#33c2df;opacity:0.8;stroke:#ffffff;stroke-linejoin:miter;"/>
   </g>
   <g id="patch_41">
    <path clip-path="url(#pe7785e7cc3)" d="M 514.159122 252 
L 516.500021 252 
L 516.500021 252 
L 514.159122 252 
z
" style="fill:#33c2df;opacity:0.8;stroke:#ffffff;stroke-linejoin:miter;"/>
   </g>
   <g id="patch_42">
    <path clip-path="url(#pe7785e7cc3)" d="M 517.085246 252 
L 519.426144 252 
L 519.426144 252 
L 517.085246 252 
z
" style="fill:#33c2df;opacity:0.8;stroke:#ffffff;stroke-linejoin:miter;"/>
   </g>
   <g id="patch_43">
    <path clip-path="url(#pe7785e7cc3)" d="M 520.011369 252 
L 522.352267 252 
L 522.352267 252 
L 520.011369 252 
z
" style="fill:#33c2df;opacity:0.8;stroke:#ffffff;stroke-linejoin:miter;"/>
   </g>
   <g id="patch_44">
    <path clip-path="url(#pe7785e7cc3)" d="M 522.937492 252 
L 525.278391 252 
L 525.278391 103.311938 
L 522.937492 103.311938 
z
" style="fill:#33c2df;opacity:0.8;stroke:#ffffff;stroke-linejoin:miter;"/>
   </g>
   <g id="patch_45">
    <path clip-path="url(#pe7785e7cc3)" d="M 525.863615 252 
L 528.204514 252 
L 528.204514 252 
L 525.863615 252 
z
" style="fill:#33c2df;opacity:0.8;stroke:#ffffff;stroke-linejoin:miter;"/>
   </g>
   <g id="patch_46">
    <path clip-path="url(#pe7785e7cc3)" d="M 528.789739 252 
L 531.130637 252 
L 531.130637 252 
L 528.789739 252 
z
" style="fill:#33c2df;opacity:0.8;stroke:#ffffff;stroke-linejoin:miter;"/>
   </g>
   <g id="patch_47">
    <path clip-path="url(#pe7785e7cc3)" d="M 531.715862 252 
L 534.05676 252 
L 534.05676 252 
L 531.715862 252 
z
" style="fill:#33c2df;opacity:0.8;stroke:#ffffff;stroke-linejoin:miter;"/>
   </g>
   <g id="patch_48">
    <path clip-path="url(#pe7785e7cc3)" d="M 534.641985 252 
L 536.982884 252 
L 536.982884 252 
L 534.641985 252 
z
" style="fill:#33c2df;opacity:0.8;stroke:#ffffff;stroke-linejoin:miter;"/>
   </g>
   <g id="patch_49">
    <path clip-path="url(#pe7785e7cc3)" d="M 537.568108 252 
L 539.909007 252 
L 539.909007 252 
L 537.568108 252 
z
" style="fill:#33c2df;opacity:0.8;stroke:#ffffff;stroke-linejoin:miter;"/>
   </g>
   <g id="patch_50">
    <path clip-path="url(#pe7785e7cc3)" d="M 540.494232 252 
L 542.83513 252 
L 542.83513 252 
L 540.494232 252 
z
" style="fill:#33c2df;opacity:0.8;stroke:#ffffff;stroke-linejoin:miter;"/>
   </g>
   <g id="patch_51">
    <path clip-path="url(#pe7785e7cc3)" d="M 543.420355 252 
L 545.761254 252 
L 545.761254 252 
L 543.420355 252 
z
" style="fill:#33c2df;opacity:0.8;stroke:#ffffff;stroke-linejoin:miter;"/>
   </g>
   <g id="patch_52">
    <path clip-path="url(#pe7785e7cc3)" d="M 546.346478 252 
L 548.687377 252 
L 548.687377 252 
L 546.346478 252 
z
" style="fill:#33c2df;opacity:0.8;stroke:#ffffff;stroke-linejoin:miter;"/>
   </g>
   <g id="patch_53">
    <path clip-path="url(#pe7785e7cc3)" d="M 549.272601 252 
L 551.6135 252 
L 551.6135 252 
L 549.272601 252 
z
" style="fill:#33c2df;opacity:0.8;stroke:#ffffff;stroke-linejoin:miter;"/>
   </g>
   <g id="patch_54">
    <path clip-path="url(#pe7785e7cc3)" d="M 552.198725 252 
L 554.539623 252 
L 554.539623 252 
L 552.198725 252 
z
" style="fill:#33c2df;opacity:0.8;stroke:#ffffff;stroke-linejoin:miter;"/>
   </g>
   <g id="patch_55">
    <path clip-path="url(#pe7785e7cc3)" d="M 555.124848 252 
L 557.465747 252 
L 557.465747 252 
L 555.124848 252 
z
" style="fill:#33c2df;opacity:0.8;stroke:#ffffff;stroke-linejoin:miter;"/>
   </g>
   <g id="patch_56">
    <path clip-path="url(#pe7785e7cc3)" d="M 558.050971 252 
L 560.39187 252 
L 560.39187 90.500046 
L 558.050971 90.500046 
z
" style="fill:#33c2df;opacity:0.8;stroke:#ffffff;stroke-linejoin:miter;"/>
   </g>
   <g id="patch_57">
    <path clip-path="url(#pe7785e7cc3)" d="M 560.977094 252 
L 563.317993 252 
L 563.317993 66.863734 
L 560.977094 66.863734 
z
" style="fill:#33c2df;opacity:0.8;stroke:#ffffff;stroke-linejoin:miter;"/>
   </g>
   <g id="patch_58">
    <path clip-path="url(#pe7785e7cc3)" d="M 563.903218 252 
L 566.244116 252 
L 566.244116 252 
L 563.903218 252 
z
" style="fill:#33c2df;opacity:0.8;stroke:#ffffff;stroke-linejoin:miter;"/>
   </g>
   <g id="patch_59">
    <path clip-path="url(#pe7785e7cc3)" d="M 566.829341 252 
L 569.17024 252 
L 569.17024 252 
L 566.829341 252 
z
" style="fill:#33c2df;opacity:0.8;stroke:#ffffff;stroke-linejoin:miter;"/>
   </g>
   <g id="patch_60">
    <path clip-path="url(#pe7785e7cc3)" d="M 569.755464 252 
L 572.096363 252 
L 572.096363 105.597462 
L 569.755464 105.597462 
z
" style="fill:#33c2df;opacity:0.8;stroke:#ffffff;stroke-linejoin:miter;"/>
   </g>
   <g id="patch_61">
    <path clip-path="url(#pe7785e7cc3)" d="M 572.681587 252 
L 575.022486 252 
L 575.022486 252 
L 572.681587 252 
z
" style="fill:#33c2df;opacity:0.8;stroke:#ffffff;stroke-linejoin:miter;"/>
   </g>
   <g id="patch_62">
    <path clip-path="url(#pe7785e7cc3)" d="M 575.607711 252 
L 577.948609 252 
L 577.948609 252 
L 575.607711 252 
z
" style="fill:#33c2df;opacity:0.8;stroke:#ffffff;stroke-linejoin:miter;"/>
   </g>
   <g id="patch_63">
    <path clip-path="url(#pe7785e7cc3)" d="M 578.533834 252 
L 580.874733 252 
L 580.874733 252 
L 578.533834 252 
z
" style="fill:#33c2df;opacity:0.8;stroke:#ffffff;stroke-linejoin:miter;"/>
   </g>
   <g id="patch_64">
    <path clip-path="url(#pe7785e7cc3)" d="M 581.459957 252 
L 583.800856 252 
L 583.800856 90.500046 
L 581.459957 90.500046 
z
" style="fill:#33c2df;opacity:0.8;stroke:#ffffff;stroke-linejoin:miter;"/>
   </g>
   <g id="patch_65">
    <path clip-path="url(#pe7785e7cc3)" d="M 584.38608 252 
L 586.726979 252 
L 586.726979 252 
L 584.38608 252 
z
" style="fill:#33c2df;opacity:0.8;stroke:#ffffff;stroke-linejoin:miter;"/>
   </g>
   <g id="patch_66">
    <path clip-path="url(#pe7785e7cc3)" d="M 587.312204 252 
L 589.653102 252 
L 589.653102 252 
L 587.312204 252 
z
" style="fill:#33c2df;opacity:0.8;stroke:#ffffff;stroke-linejoin:miter;"/>
   </g>
   <g id="patch_67">
    <path clip-path="url(#pe7785e7cc3)" d="M 590.238327 252 
L 592.579226 252 
L 592.579226 252 
L 590.238327 252 
z
" style="fill:#33c2df;opacity:0.8;stroke:#ffffff;stroke-linejoin:miter;"/>
   </g>
   <g id="patch_68">
    <path clip-path="url(#pe7785e7cc3)" d="M 593.16445 252 
L 595.505349 252 
L 595.505349 252 
L 593.16445 252 
z
" style="fill:#33c2df;opacity:0.8;stroke:#ffffff;stroke-linejoin:miter;"/>
   </g>
   <g id="patch_69">
    <path clip-path="url(#pe7785e7cc3)" d="M 596.090573 252 
L 598.431472 252 
L 598.431472 90.500046 
L 596.090573 90.500046 
z
" style="fill:#33c2df;opacity:0.8;stroke:#ffffff;stroke-linejoin:miter;"/>
   </g>
   <g id="patch_70">
    <path clip-path="url(#pe7785e7cc3)" d="M 599.016697 252 
L 601.357595 252 
L 601.357595 252 
L 599.016697 252 
z
" style="fill:#33c2df;opacity:0.8;stroke:#ffffff;stroke-linejoin:miter;"/>
   </g>
   <g id="patch_71">
    <path clip-path="url(#pe7785e7cc3)" d="M 601.94282 252 
L 604.283719 252 
L 604.283719 252 
L 601.94282 252 
z
" style="fill:#33c2df;opacity:0.8;stroke:#ffffff;stroke-linejoin:miter;"/>
   </g>
   <g id="patch_72">
    <path clip-path="url(#pe7785e7cc3)" d="M 604.868943 252 
L 607.209842 252 
L 607.209842 252 
L 604.868943 252 
z
" style="fill:#33c2df;opacity:0.8;stroke:#ffffff;stroke-linejoin:miter;"/>
   </g>
   <g id="patch_73">
    <path clip-path="url(#pe7785e7cc3)" d="M 607.795066 252 
L 610.135965 252 
L 610.135965 44.914286 
L 607.795066 44.914286 
z
" style="fill:#33c2df;opacity:0.8;stroke:#ffffff;stroke-linejoin:miter;"/>
   </g>
   <g id="patch_74">
    <path clip-path="url(#pe7785e7cc3)" d="M 610.72119 252 
L 613.062088 252 
L 613.062088 252 
L 610.72119 252 
z
" style="fill:#33c2df;opacity:0.8;stroke:#ffffff;stroke-linejoin:miter;"/>
   </g>
   <g id="patch_75">
    <path clip-path="url(#pe7785e7cc3)" d="M 613.647313 252 
L 615.988212 252 
L 615.988212 252 
L 613.647313 252 
z
" style="fill:#33c2df;opacity:0.8;stroke:#ffffff;stroke-linejoin:miter;"/>
   </g>
   <g id="patch_76">
    <path clip-path="url(#pe7785e7cc3)" d="M 616.573436 252 
L 618.914335 252 
L 618.914335 90.500046 
L 616.573436 90.500046 
z
" style="fill:#33c2df;opacity:0.8;stroke:#ffffff;stroke-linejoin:miter;"/>
   </g>
   <g id="patch_77">
    <path clip-path="url(#pe7785e7cc3)" d="M 619.49956 252 
L 621.840458 252 
L 621.840458 252 
L 619.49956 252 
z
" style="fill:#33c2df;opacity:0.8;stroke:#ffffff;stroke-linejoin:miter;"/>
   </g>
   <g id="patch_78">
    <path clip-path="url(#pe7785e7cc3)" d="M 622.425683 252 
L 624.766581 252 
L 624.766581 252 
L 622.425683 252 
z
" style="fill:#33c2df;opacity:0.8;stroke:#ffffff;stroke-linejoin:miter;"/>
   </g>
   <g id="patch_79">
    <path clip-path="url(#pe7785e7cc3)" d="M 625.351806 252 
L 627.692705 252 
L 627.692705 252 
L 625.351806 252 
z
" style="fill:#33c2df;opacity:0.8;stroke:#ffffff;stroke-linejoin:miter;"/>
   </g>
   <g id="patch_80">
    <path clip-path="url(#pe7785e7cc3)" d="M 628.277929 252 
L 630.618828 252 
L 630.618828 74.535033 
L 628.277929 74.535033 
z
" style="fill:#33c2df;opacity:0.8;stroke:#ffffff;stroke-linejoin:miter;"/>
   </g>
   <g id="patch_81">
    <path clip-path="url(#pe7785e7cc3)" d="M 631.204053 252 
L 633.544951 252 
L 633.544951 90.500046 
L 631.204053 90.500046 
z
" style="fill:#33c2df;opacity:0.8;stroke:#ffffff;stroke-linejoin:miter;"/>
   </g>
   <g id="patch_82">
    <path clip-path="url(#pe7785e7cc3)" d="M 634.130176 252 
L 636.471074 252 
L 636.471074 90.500046 
L 634.130176 90.500046 
z
" style="fill:#33c2df;opacity:0.8;stroke:#ffffff;stroke-linejoin:miter;"/>
   </g>
  </g>
 </g>
 <defs>
  <clipPath id="p3e2242ddae">
   <rect height="217.44" width="253.636364" x="90" y="34.56"/>
  </clipPath>
  <clipPath id="pe7785e7cc3">
   <rect height="217.44" width="253.636364" x="394.363636" y="34.56"/>
  </clipPath>
 </defs>
</svg>
