<?xml version="1.0" encoding="utf-8" standalone="no"?>
<!DOCTYPE svg PUBLIC "-//W3C//DTD SVG 1.1//EN"
  "http://www.w3.org/Graphics/SVG/1.1/DTD/svg11.dtd">
<svg height="288pt" version="1.1" viewBox="0 0 720 288" width="720pt" xmlns="http://www.w3.org/2000/svg" xmlns:xlink="http://www.w3.org/1999/xlink">
 <metadata>
  <rdf:RDF xmlns:cc="http://creativecommons.org/ns#" xmlns:dc="http://purl.org/dc/elements/1.1/" xmlns:rdf="http://www.w3.org/1999/02/22-rdf-syntax-ns#">
   <cc:Work>
    <dc:type rdf:resource="http://purl.org/dc/dcmitype/StillImage"/>
    <dc:date>2022-05-29T00:13:46.816341</dc:date>
    <dc:format>image/svg+xml</dc:format>
    <dc:creator>
     <cc:Agent>
      <dc:title>Matplotlib v3.4.2, https://matplotlib.org/</dc:title>
     </cc:Agent>
    </dc:creator>
   </cc:Work>
  </rdf:RDF>
 </metadata>
 <defs>
  <style type="text/css">*{stroke-linecap:butt;stroke-linejoin:round;}</style>
 </defs>
 <g id="figure_1">
  <g id="patch_1">
   <path d="M 0 288 
L 720 288 
L 720 0 
L 0 0 
z
" style="fill:#ffffff;"/>
  </g>
  <g id="axes_1">
   <g id="patch_2">
    <path d="M 90 252 
L 343.636364 252 
L 343.636364 34.56 
L 90 34.56 
z
" style="fill:none;opacity:0;"/>
   </g>
   <g id="matplotlib.axis_1">
    <g id="xtick_1">
     <g id="line2d_1">
      <path clip-path="url(#p1700eaab10)" d="M 101.528926 252 
L 101.528926 34.56 
" style="fill:none;stroke:#ffffff;stroke-linecap:round;"/>
     </g>
    </g>
    <g id="xtick_2">
     <g id="line2d_2">
      <path clip-path="url(#p1700eaab10)" d="M 143.605296 252 
L 143.605296 34.56 
" style="fill:none;stroke:#ffffff;stroke-linecap:round;"/>
     </g>
    </g>
    <g id="xtick_3">
     <g id="line2d_3">
      <path clip-path="url(#p1700eaab10)" d="M 185.681667 252 
L 185.681667 34.56 
" style="fill:none;stroke:#ffffff;stroke-linecap:round;"/>
     </g>
    </g>
    <g id="xtick_4">
     <g id="line2d_4">
      <path clip-path="url(#p1700eaab10)" d="M 227.758038 252 
L 227.758038 34.56 
" style="fill:none;stroke:#ffffff;stroke-linecap:round;"/>
     </g>
    </g>
    <g id="xtick_5">
     <g id="line2d_5">
      <path clip-path="url(#p1700eaab10)" d="M 269.834409 252 
L 269.834409 34.56 
" style="fill:none;stroke:#ffffff;stroke-linecap:round;"/>
     </g>
    </g>
    <g id="xtick_6">
     <g id="line2d_6">
      <path clip-path="url(#p1700eaab10)" d="M 311.91078 252 
L 311.91078 34.56 
" style="fill:none;stroke:#ffffff;stroke-linecap:round;"/>
     </g>
    </g>
   </g>
   <g id="matplotlib.axis_2">
    <g id="ytick_1">
     <g id="line2d_7">
      <path clip-path="url(#p1700eaab10)" d="M 90 241.96403 
L 343.636364 241.96403 
" style="fill:none;stroke:#ffffff;stroke-linecap:round;"/>
     </g>
    </g>
    <g id="ytick_2">
     <g id="line2d_8">
      <path clip-path="url(#p1700eaab10)" d="M 90 207.751663 
L 343.636364 207.751663 
" style="fill:none;stroke:#ffffff;stroke-linecap:round;"/>
     </g>
    </g>
    <g id="ytick_3">
     <g id="line2d_9">
      <path clip-path="url(#p1700eaab10)" d="M 90 173.539297 
L 343.636364 173.539297 
" style="fill:none;stroke:#ffffff;stroke-linecap:round;"/>
     </g>
    </g>
    <g id="ytick_4">
     <g id="line2d_10">
      <path clip-path="url(#p1700eaab10)" d="M 90 139.326931 
L 343.636364 139.326931 
" style="fill:none;stroke:#ffffff;stroke-linecap:round;"/>
     </g>
    </g>
    <g id="ytick_5">
     <g id="line2d_11">
      <path clip-path="url(#p1700eaab10)" d="M 90 105.114565 
L 343.636364 105.114565 
" style="fill:none;stroke:#ffffff;stroke-linecap:round;"/>
     </g>
    </g>
    <g id="ytick_6">
     <g id="line2d_12">
      <path clip-path="url(#p1700eaab10)" d="M 90 70.902199 
L 343.636364 70.902199 
" style="fill:none;stroke:#ffffff;stroke-linecap:round;"/>
     </g>
    </g>
    <g id="ytick_7">
     <g id="line2d_13">
      <path clip-path="url(#p1700eaab10)" d="M 90 36.689833 
L 343.636364 36.689833 
" style="fill:none;stroke:#ffffff;stroke-linecap:round;"/>
     </g>
    </g>
   </g>
   <g id="line2d_14">
    <path clip-path="url(#p1700eaab10)" d="M 101.528926 52.421556 
L 102.370453 52.723538 
L 103.21198 51.296409 
L 104.053508 56.174314 
L 104.895035 51.019102 
L 105.736563 58.212422 
L 106.57809 49.951863 
L 107.419618 49.989233 
L 108.261145 54.024015 
L 109.102672 52.527676 
L 109.9442 54.006411 
L 110.785727 51.961174 
L 111.627255 55.252661 
L 112.468782 51.86344 
L 113.310309 52.014132 
L 114.151837 51.164571 
L 114.993364 53.768964 
L 115.834892 55.860256 
L 116.676419 52.276091 
L 117.517947 54.703126 
L 118.359474 55.667646 
L 120.042529 50.393913 
L 120.884056 50.028265 
L 121.725584 55.147218 
L 122.567111 54.088571 
L 123.408638 49.689258 
L 124.250166 50.490897 
L 125.091693 55.685139 
L 125.933221 47.057686 
L 126.774748 50.800111 
L 127.616276 56.172017 
L 128.457803 53.937052 
L 129.29933 53.121873 
L 130.140858 54.693178 
L 130.982385 53.779139 
L 131.823913 53.97526 
L 132.66544 52.922336 
L 133.506967 48.732011 
L 134.348495 55.747772 
L 135.190022 51.429994 
L 136.03155 52.535404 
L 136.873077 57.061174 
L 137.714605 52.163976 
L 138.556132 48.680735 
L 139.397659 54.896025 
L 140.239187 50.966045 
L 141.080714 53.314635 
L 141.922242 49.027552 
L 142.763769 55.459328 
L 143.605296 52.804333 
L 144.446824 55.20214 
L 145.288351 52.874973 
L 146.129879 51.528755 
L 146.971406 50.69282 
L 147.812934 52.425744 
L 148.654461 51.840154 
L 149.495988 54.803425 
L 150.337516 50.324108 
L 151.179043 52.432104 
L 152.020571 50.365848 
L 152.862098 44.443636 
L 153.703626 47.317965 
L 154.545153 50.712231 
L 155.38668 48.518889 
L 156.228208 48.450159 
L 157.069735 51.177043 
L 157.911263 50.71333 
L 158.75279 51.181763 
L 159.594317 51.389655 
L 161.277372 47.720528 
L 162.1189 48.960371 
L 162.960427 44.780149 
L 163.801955 55.009135 
L 164.643482 72.149881 
L 166.326537 220.389486 
L 167.168064 238.163405 
L 168.009592 240.887914 
L 168.851119 241.050443 
L 169.692646 241.071716 
L 170.534174 239.078422 
L 172.217229 242.116364 
L 173.058756 238.365457 
L 173.900284 241.786351 
L 175.583338 236.740561 
L 176.424866 238.292406 
L 177.266393 237.605319 
L 178.107921 241.918254 
L 178.949448 239.014616 
L 179.790975 237.55487 
L 180.632503 234.328931 
L 181.47403 240.919827 
L 182.315558 233.119175 
L 183.157085 235.585387 
L 183.998613 236.182003 
L 184.84014 233.323238 
L 185.681667 234.344594 
L 186.523195 229.51885 
L 187.364722 228.068273 
L 188.20625 225.72758 
L 189.047777 230.598935 
L 189.889304 226.328431 
L 190.730832 228.830292 
L 192.413887 222.92363 
L 193.255414 226.193627 
L 194.096942 227.399134 
L 194.938469 221.286055 
L 195.779996 222.965725 
L 196.621524 219.787293 
L 197.463051 218.180332 
L 198.304579 215.190089 
L 199.146106 218.374542 
L 199.987633 218.354958 
L 200.829161 213.155212 
L 201.670688 212.256296 
L 202.512216 210.018992 
L 203.353743 209.589641 
L 204.195271 210.251007 
L 205.036798 205.451251 
L 205.878325 205.842196 
L 206.719853 200.108799 
L 207.56138 201.278663 
L 208.402908 192.428232 
L 209.244435 197.936437 
L 210.085962 192.464949 
L 210.92749 192.991915 
L 211.769017 186.903038 
L 212.610545 187.035829 
L 213.452072 182.255554 
L 214.2936 190.778909 
L 215.135127 184.548686 
L 215.976654 176.902599 
L 216.818182 175.68663 
L 217.659709 176.129392 
L 218.501237 169.754664 
L 219.342764 170.712291 
L 220.184291 169.777947 
L 221.025819 157.92315 
L 221.867346 163.307363 
L 222.708874 160.352884 
L 223.550401 159.30947 
L 224.391929 161.18015 
L 225.233456 152.768854 
L 226.074983 153.328824 
L 226.916511 146.988394 
L 227.758038 145.592309 
L 229.441093 144.4419 
L 230.28262 139.992604 
L 231.124148 139.111264 
L 231.965675 134.972396 
L 232.807203 137.206486 
L 234.490258 129.523391 
L 235.331785 128.257197 
L 236.173312 130.178552 
L 237.01484 119.983863 
L 237.856367 125.658562 
L 238.697895 114.822671 
L 239.539422 114.628884 
L 240.38095 113.148528 
L 241.222477 109.389717 
L 242.064004 111.922305 
L 242.905532 104.226176 
L 243.747059 103.775196 
L 244.588587 102.483178 
L 245.430114 98.082807 
L 246.271641 100.857422 
L 247.113169 97.107813 
L 247.954696 98.426819 
L 248.796224 96.534199 
L 250.479279 97.516984 
L 251.320806 96.020819 
L 252.162333 86.242999 
L 253.003861 91.074363 
L 253.845388 87.883041 
L 254.686916 91.667162 
L 255.528443 89.228444 
L 256.36997 87.647547 
L 257.211498 85.070429 
L 258.053025 81.096339 
L 258.894553 82.013556 
L 259.73608 76.484884 
L 260.577608 78.122575 
L 261.419135 75.658659 
L 262.260662 77.851583 
L 263.10219 77.430265 
L 263.943717 73.884116 
L 264.785245 74.228065 
L 265.626772 70.17933 
L 266.468299 70.007762 
L 267.309827 68.371857 
L 268.151354 72.640322 
L 268.992882 68.183608 
L 269.834409 70.660025 
L 270.675937 67.310237 
L 271.517464 68.95638 
L 272.358991 66.58636 
L 273.200519 63.604302 
L 274.042046 61.848928 
L 274.883574 62.676689 
L 275.725101 65.530851 
L 276.566628 66.063831 
L 277.408156 61.956563 
L 278.249683 63.397672 
L 279.091211 61.921543 
L 279.932738 60.936247 
L 280.774266 61.796461 
L 281.615793 58.123725 
L 282.45732 65.557998 
L 283.298848 59.770024 
L 284.140375 58.889116 
L 285.82343 61.777731 
L 286.664957 58.415367 
L 287.506485 59.021468 
L 288.348012 58.041348 
L 289.18954 63.4793 
L 290.031067 58.325615 
L 290.872595 54.326918 
L 291.714122 54.778502 
L 293.397177 58.065722 
L 294.238704 52.444964 
L 295.921759 55.024065 
L 296.763286 57.606859 
L 297.604814 56.712147 
L 298.446341 56.108074 
L 299.287869 59.453201 
L 300.129396 57.799807 
L 300.970924 58.956827 
L 301.812451 56.890563 
L 302.653978 57.288065 
L 303.495506 57.377539 
L 304.337033 57.879114 
L 305.178561 53.647315 
L 306.020088 56.472622 
L 306.861615 60.34346 
L 307.703143 55.07174 
L 308.54467 52.993524 
L 309.386198 57.672093 
L 310.227725 54.830033 
L 311.069253 55.35685 
L 312.752307 53.81392 
L 313.593835 58.206023 
L 314.435362 51.166383 
L 315.27689 57.88718 
L 316.118417 59.535516 
L 316.959945 53.894107 
L 317.801472 60.675261 
L 318.642999 55.810007 
L 320.326054 56.10743 
L 321.167582 53.063965 
L 322.009109 58.504603 
L 322.850636 53.23481 
L 323.692164 55.379579 
L 324.533691 52.350545 
L 326.216746 47.786048 
L 327.058274 50.448954 
L 327.899801 51.78931 
L 328.741328 54.268874 
L 329.582856 51.288299 
L 330.424383 54.190158 
L 331.265911 54.64323 
L 332.107438 52.158034 
L 332.107438 52.158034 
" style="fill:none;stroke:#4c72b0;stroke-linecap:round;stroke-width:1.5;"/>
   </g>
  </g>
  <g id="axes_2">
   <g id="patch_3">
    <path d="M 394.363636 252 
L 648 252 
L 648 34.56 
L 394.363636 34.56 
z
" style="fill:none;opacity:0;"/>
   </g>
   <g id="matplotlib.axis_3">
    <g id="xtick_7">
     <g id="line2d_15">
      <path clip-path="url(#pda5da5f26b)" d="M 407.063011 252 
L 407.063011 34.56 
" style="fill:none;stroke:#ffffff;stroke-linecap:round;"/>
     </g>
    </g>
    <g id="xtick_8">
     <g id="line2d_16">
      <path clip-path="url(#pda5da5f26b)" d="M 465.585476 252 
L 465.585476 34.56 
" style="fill:none;stroke:#ffffff;stroke-linecap:round;"/>
     </g>
    </g>
    <g id="xtick_9">
     <g id="line2d_17">
      <path clip-path="url(#pda5da5f26b)" d="M 524.107941 252 
L 524.107941 34.56 
" style="fill:none;stroke:#ffffff;stroke-linecap:round;"/>
     </g>
    </g>
    <g id="xtick_10">
     <g id="line2d_18">
      <path clip-path="url(#pda5da5f26b)" d="M 582.630407 252 
L 582.630407 34.56 
" style="fill:none;stroke:#ffffff;stroke-linecap:round;"/>
     </g>
    </g>
    <g id="xtick_11">
     <g id="line2d_19">
      <path clip-path="url(#pda5da5f26b)" d="M 641.152872 252 
L 641.152872 34.56 
" style="fill:none;stroke:#ffffff;stroke-linecap:round;"/>
     </g>
    </g>
   </g>
   <g id="matplotlib.axis_4">
    <g id="ytick_8">
     <g id="line2d_20">
      <path clip-path="url(#pda5da5f26b)" d="M 394.363636 252 
L 648 252 
" style="fill:none;stroke:#ffffff;stroke-linecap:round;"/>
     </g>
    </g>
    <g id="ytick_9">
     <g id="line2d_21">
      <path clip-path="url(#pda5da5f26b)" d="M 394.363636 207.03893 
L 648 207.03893 
" style="fill:none;stroke:#ffffff;stroke-linecap:round;"/>
     </g>
    </g>
    <g id="ytick_10">
     <g id="line2d_22">
      <path clip-path="url(#pda5da5f26b)" d="M 394.363636 162.07786 
L 648 162.07786 
" style="fill:none;stroke:#ffffff;stroke-linecap:round;"/>
     </g>
    </g>
    <g id="ytick_11">
     <g id="line2d_23">
      <path clip-path="url(#pda5da5f26b)" d="M 394.363636 117.11679 
L 648 117.11679 
" style="fill:none;stroke:#ffffff;stroke-linecap:round;"/>
     </g>
    </g>
    <g id="ytick_12">
     <g id="line2d_24">
      <path clip-path="url(#pda5da5f26b)" d="M 394.363636 72.155721 
L 648 72.155721 
" style="fill:none;stroke:#ffffff;stroke-linecap:round;"/>
     </g>
    </g>
   </g>
   <g id="PolyCollection_1">
    <defs>
     <path d="M 407.063011 -36 
L 407.063011 -135.658679 
L 409.989135 -115.08634 
L 412.915258 -94.680526 
L 415.841381 -74.696368 
L 418.767504 -58.308867 
L 421.693628 -47.010104 
L 424.619751 -39.117165 
L 427.545874 -36 
L 430.471997 -36 
L 433.398121 -36 
L 436.324244 -36 
L 439.250367 -40.263466 
L 442.17649 -51.058942 
L 445.102614 -65.27386 
L 448.028737 -78.195657 
L 450.95486 -83.778081 
L 453.880983 -84.792259 
L 456.807107 -86.146853 
L 459.73323 -87.208032 
L 462.659353 -87.47926 
L 465.585476 -82.570159 
L 468.5116 -70.514286 
L 471.437723 -55.013962 
L 474.363846 -41.383206 
L 477.289969 -36 
L 480.216093 -36 
L 483.142216 -36 
L 486.068339 -36 
L 488.994462 -36 
L 491.920586 -39.154462 
L 494.846709 -51.405306 
L 497.772832 -71.283693 
L 500.698955 -89.488305 
L 503.625079 -99.754216 
L 506.551202 -99.53111 
L 509.477325 -88.923379 
L 512.403448 -72.894499 
L 515.329572 -58.944562 
L 518.255695 -50.446435 
L 521.181818 -47.075723 
L 524.107941 -49.26332 
L 527.034065 -61.244032 
L 529.960188 -80.417146 
L 532.886311 -95.558132 
L 535.812434 -99.582354 
L 538.738558 -90.606836 
L 541.664681 -72.83132 
L 544.590804 -54.573169 
L 547.516927 -41.258409 
L 550.443051 -36 
L 553.369174 -36 
L 556.295297 -36 
L 559.22142 -36 
L 562.147544 -36 
L 565.073667 -36 
L 567.99979 -36 
L 570.925913 -36 
L 573.852037 -36 
L 576.77816 -36 
L 579.704283 -36 
L 582.630407 -36 
L 585.55653 -36 
L 588.482653 -36 
L 591.408776 -36 
L 594.3349 -36 
L 597.261023 -36 
L 600.187146 -36 
L 603.113269 -36 
L 606.039393 -36 
L 608.965516 -36 
L 611.891639 -36 
L 614.817762 -36 
L 617.743886 -36 
L 620.670009 -36 
L 623.596132 -36 
L 626.522255 -36 
L 629.448379 -36 
L 632.374502 -36 
L 635.300625 -36 
L 635.300625 -36 
L 635.300625 -36 
L 632.374502 -36 
L 629.448379 -36 
L 626.522255 -36 
L 623.596132 -36 
L 620.670009 -36 
L 617.743886 -36 
L 614.817762 -36 
L 611.891639 -36 
L 608.965516 -36 
L 606.039393 -36 
L 603.113269 -36 
L 600.187146 -36 
L 597.261023 -36 
L 594.3349 -36 
L 591.408776 -36 
L 588.482653 -36 
L 585.55653 -36 
L 582.630407 -36 
L 579.704283 -36 
L 576.77816 -36 
L 573.852037 -36 
L 570.925913 -36 
L 567.99979 -36 
L 565.073667 -36 
L 562.147544 -36 
L 559.22142 -36 
L 556.295297 -36 
L 553.369174 -36 
L 550.443051 -36 
L 547.516927 -36 
L 544.590804 -36 
L 541.664681 -36 
L 538.738558 -36 
L 535.812434 -36 
L 532.886311 -36 
L 529.960188 -36 
L 527.034065 -36 
L 524.107941 -36 
L 521.181818 -36 
L 518.255695 -36 
L 515.329572 -36 
L 512.403448 -36 
L 509.477325 -36 
L 506.551202 -36 
L 503.625079 -36 
L 500.698955 -36 
L 497.772832 -36 
L 494.846709 -36 
L 491.920586 -36 
L 488.994462 -36 
L 486.068339 -36 
L 483.142216 -36 
L 480.216093 -36 
L 477.289969 -36 
L 474.363846 -36 
L 471.437723 -36 
L 468.5116 -36 
L 465.585476 -36 
L 462.659353 -36 
L 459.73323 -36 
L 456.807107 -36 
L 453.880983 -36 
L 450.95486 -36 
L 448.028737 -36 
L 445.102614 -36 
L 442.17649 -36 
L 439.250367 -36 
L 436.324244 -36 
L 433.398121 -36 
L 430.471997 -36 
L 427.545874 -36 
L 424.619751 -36 
L 421.693628 -36 
L 418.767504 -36 
L 415.841381 -36 
L 412.915258 -36 
L 409.989135 -36 
L 407.063011 -36 
z
" id="m93a35766b5" style="stroke:#4881d6;stroke-opacity:0.3;"/>
    </defs>
    <g clip-path="url(#pda5da5f26b)">
     <use style="fill:#4881d6;fill-opacity:0.3;stroke:#4881d6;stroke-opacity:0.3;" x="0" xlink:href="#m93a35766b5" y="288"/>
    </g>
   </g>
   <g id="patch_4">
    <path clip-path="url(#pda5da5f26b)" d="M 405.892562 252 
L 408.233461 252 
L 408.233461 162.62749 
L 405.892562 162.62749 
z
" style="fill:#4881d6;opacity:0.8;stroke:#ffffff;stroke-linejoin:miter;"/>
   </g>
   <g id="patch_5">
    <path clip-path="url(#pda5da5f26b)" d="M 408.818685 252 
L 411.159584 252 
L 411.159584 252 
L 408.818685 252 
z
" style="fill:#4881d6;opacity:0.8;stroke:#ffffff;stroke-linejoin:miter;"/>
   </g>
   <g id="patch_6">
    <path clip-path="url(#pda5da5f26b)" d="M 411.744808 252 
L 414.085707 252 
L 414.085707 132.086264 
L 411.744808 132.086264 
z
" style="fill:#4881d6;opacity:0.8;stroke:#ffffff;stroke-linejoin:miter;"/>
   </g>
   <g id="patch_7">
    <path clip-path="url(#pda5da5f26b)" d="M 414.670932 252 
L 417.01183 252 
L 417.01183 252 
L 414.670932 252 
z
" style="fill:#4881d6;opacity:0.8;stroke:#ffffff;stroke-linejoin:miter;"/>
   </g>
   <g id="patch_8">
    <path clip-path="url(#pda5da5f26b)" d="M 417.597055 252 
L 419.937954 252 
L 419.937954 252 
L 417.597055 252 
z
" style="fill:#4881d6;opacity:0.8;stroke:#ffffff;stroke-linejoin:miter;"/>
   </g>
   <g id="patch_9">
    <path clip-path="url(#pda5da5f26b)" d="M 420.523178 252 
L 422.864077 252 
L 422.864077 252 
L 420.523178 252 
z
" style="fill:#4881d6;opacity:0.8;stroke:#ffffff;stroke-linejoin:miter;"/>
   </g>
   <g id="patch_10">
    <path clip-path="url(#pda5da5f26b)" d="M 423.449302 252 
L 425.7902 252 
L 425.7902 252 
L 423.449302 252 
z
" style="fill:#4881d6;opacity:0.8;stroke:#ffffff;stroke-linejoin:miter;"/>
   </g>
   <g id="patch_11">
    <path clip-path="url(#pda5da5f26b)" d="M 426.375425 252 
L 428.716323 252 
L 428.716323 252 
L 426.375425 252 
z
" style="fill:#4881d6;opacity:0.8;stroke:#ffffff;stroke-linejoin:miter;"/>
   </g>
   <g id="patch_12">
    <path clip-path="url(#pda5da5f26b)" d="M 429.301548 252 
L 431.642447 252 
L 431.642447 252 
L 429.301548 252 
z
" style="fill:#4881d6;opacity:0.8;stroke:#ffffff;stroke-linejoin:miter;"/>
   </g>
   <g id="patch_13">
    <path clip-path="url(#pda5da5f26b)" d="M 432.227671 252 
L 434.56857 252 
L 434.56857 252 
L 432.227671 252 
z
" style="fill:#4881d6;opacity:0.8;stroke:#ffffff;stroke-linejoin:miter;"/>
   </g>
   <g id="patch_14">
    <path clip-path="url(#pda5da5f26b)" d="M 435.153795 252 
L 437.494693 252 
L 437.494693 252 
L 435.153795 252 
z
" style="fill:#4881d6;opacity:0.8;stroke:#ffffff;stroke-linejoin:miter;"/>
   </g>
   <g id="patch_15">
    <path clip-path="url(#pda5da5f26b)" d="M 438.079918 252 
L 440.420816 252 
L 440.420816 252 
L 438.079918 252 
z
" style="fill:#4881d6;opacity:0.8;stroke:#ffffff;stroke-linejoin:miter;"/>
   </g>
   <g id="patch_16">
    <path clip-path="url(#pda5da5f26b)" d="M 441.006041 252 
L 443.34694 252 
L 443.34694 252 
L 441.006041 252 
z
" style="fill:#4881d6;opacity:0.8;stroke:#ffffff;stroke-linejoin:miter;"/>
   </g>
   <g id="patch_17">
    <path clip-path="url(#pda5da5f26b)" d="M 443.932164 252 
L 446.273063 252 
L 446.273063 252 
L 443.932164 252 
z
" style="fill:#4881d6;opacity:0.8;stroke:#ffffff;stroke-linejoin:miter;"/>
   </g>
   <g id="patch_18">
    <path clip-path="url(#pda5da5f26b)" d="M 446.858288 252 
L 449.199186 252 
L 449.199186 87.989371 
L 446.858288 87.989371 
z
" style="fill:#4881d6;opacity:0.8;stroke:#ffffff;stroke-linejoin:miter;"/>
   </g>
   <g id="patch_19">
    <path clip-path="url(#pda5da5f26b)" d="M 449.784411 252 
L 452.125309 252 
L 452.125309 252 
L 449.784411 252 
z
" style="fill:#4881d6;opacity:0.8;stroke:#ffffff;stroke-linejoin:miter;"/>
   </g>
   <g id="patch_20">
    <path clip-path="url(#pda5da5f26b)" d="M 452.710534 252 
L 455.051433 252 
L 455.051433 177.418318 
L 452.710534 177.418318 
z
" style="fill:#4881d6;opacity:0.8;stroke:#ffffff;stroke-linejoin:miter;"/>
   </g>
   <g id="patch_21">
    <path clip-path="url(#pda5da5f26b)" d="M 455.636657 252 
L 457.977556 252 
L 457.977556 252 
L 455.636657 252 
z
" style="fill:#4881d6;opacity:0.8;stroke:#ffffff;stroke-linejoin:miter;"/>
   </g>
   <g id="patch_22">
    <path clip-path="url(#pda5da5f26b)" d="M 458.562781 252 
L 460.903679 252 
L 460.903679 252 
L 458.562781 252 
z
" style="fill:#4881d6;opacity:0.8;stroke:#ffffff;stroke-linejoin:miter;"/>
   </g>
   <g id="patch_23">
    <path clip-path="url(#pda5da5f26b)" d="M 461.488904 252 
L 463.829802 252 
L 463.829802 44.914286 
L 461.488904 44.914286 
z
" style="fill:#4881d6;opacity:0.8;stroke:#ffffff;stroke-linejoin:miter;"/>
   </g>
   <g id="patch_24">
    <path clip-path="url(#pda5da5f26b)" d="M 464.415027 252 
L 466.755926 252 
L 466.755926 252 
L 464.415027 252 
z
" style="fill:#4881d6;opacity:0.8;stroke:#ffffff;stroke-linejoin:miter;"/>
   </g>
   <g id="patch_25">
    <path clip-path="url(#pda5da5f26b)" d="M 467.34115 252 
L 469.682049 252 
L 469.682049 252 
L 467.34115 252 
z
" style="fill:#4881d6;opacity:0.8;stroke:#ffffff;stroke-linejoin:miter;"/>
   </g>
   <g id="patch_26">
    <path clip-path="url(#pda5da5f26b)" d="M 470.267274 252 
L 472.608172 252 
L 472.608172 252 
L 470.267274 252 
z
" style="fill:#4881d6;opacity:0.8;stroke:#ffffff;stroke-linejoin:miter;"/>
   </g>
   <g id="patch_27">
    <path clip-path="url(#pda5da5f26b)" d="M 473.193397 252 
L 475.534295 252 
L 475.534295 252 
L 473.193397 252 
z
" style="fill:#4881d6;opacity:0.8;stroke:#ffffff;stroke-linejoin:miter;"/>
   </g>
   <g id="patch_28">
    <path clip-path="url(#pda5da5f26b)" d="M 476.11952 252 
L 478.460419 252 
L 478.460419 252 
L 476.11952 252 
z
" style="fill:#4881d6;opacity:0.8;stroke:#ffffff;stroke-linejoin:miter;"/>
   </g>
   <g id="patch_29">
    <path clip-path="url(#pda5da5f26b)" d="M 479.045643 252 
L 481.386542 252 
L 481.386542 252 
L 479.045643 252 
z
" style="fill:#4881d6;opacity:0.8;stroke:#ffffff;stroke-linejoin:miter;"/>
   </g>
   <g id="patch_30">
    <path clip-path="url(#pda5da5f26b)" d="M 481.971767 252 
L 484.312665 252 
L 484.312665 252 
L 481.971767 252 
z
" style="fill:#4881d6;opacity:0.8;stroke:#ffffff;stroke-linejoin:miter;"/>
   </g>
   <g id="patch_31">
    <path clip-path="url(#pda5da5f26b)" d="M 484.89789 252 
L 487.238788 252 
L 487.238788 252 
L 484.89789 252 
z
" style="fill:#4881d6;opacity:0.8;stroke:#ffffff;stroke-linejoin:miter;"/>
   </g>
   <g id="patch_32">
    <path clip-path="url(#pda5da5f26b)" d="M 487.824013 252 
L 490.164912 252 
L 490.164912 252 
L 487.824013 252 
z
" style="fill:#4881d6;opacity:0.8;stroke:#ffffff;stroke-linejoin:miter;"/>
   </g>
   <g id="patch_33">
    <path clip-path="url(#pda5da5f26b)" d="M 490.750136 252 
L 493.091035 252 
L 493.091035 252 
L 490.750136 252 
z
" style="fill:#4881d6;opacity:0.8;stroke:#ffffff;stroke-linejoin:miter;"/>
   </g>
   <g id="patch_34">
    <path clip-path="url(#pda5da5f26b)" d="M 493.67626 252 
L 496.017158 252 
L 496.017158 252 
L 493.67626 252 
z
" style="fill:#4881d6;opacity:0.8;stroke:#ffffff;stroke-linejoin:miter;"/>
   </g>
   <g id="patch_35">
    <path clip-path="url(#pda5da5f26b)" d="M 496.602383 252 
L 498.943281 252 
L 498.943281 252 
L 496.602383 252 
z
" style="fill:#4881d6;opacity:0.8;stroke:#ffffff;stroke-linejoin:miter;"/>
   </g>
   <g id="patch_36">
    <path clip-path="url(#pda5da5f26b)" d="M 499.528506 252 
L 501.869405 252 
L 501.869405 130.651496 
L 499.528506 130.651496 
z
" style="fill:#4881d6;opacity:0.8;stroke:#ffffff;stroke-linejoin:miter;"/>
   </g>
   <g id="patch_37">
    <path clip-path="url(#pda5da5f26b)" d="M 502.454629 252 
L 504.795528 252 
L 504.795528 87.989371 
L 502.454629 87.989371 
z
" style="fill:#4881d6;opacity:0.8;stroke:#ffffff;stroke-linejoin:miter;"/>
   </g>
   <g id="patch_38">
    <path clip-path="url(#pda5da5f26b)" d="M 505.380753 252 
L 507.721651 252 
L 507.721651 252 
L 505.380753 252 
z
" style="fill:#4881d6;opacity:0.8;stroke:#ffffff;stroke-linejoin:miter;"/>
   </g>
   <g id="patch_39">
    <path clip-path="url(#pda5da5f26b)" d="M 508.306876 252 
L 510.647774 252 
L 510.647774 252 
L 508.306876 252 
z
" style="fill:#4881d6;opacity:0.8;stroke:#ffffff;stroke-linejoin:miter;"/>
   </g>
   <g id="patch_40">
    <path clip-path="url(#pda5da5f26b)" d="M 511.232999 252 
L 513.573898 252 
L 513.573898 165.321392 
L 511.232999 165.321392 
z
" style="fill:#4881d6;opacity:0.8;stroke:#ffffff;stroke-linejoin:miter;"/>
   </g>
   <g id="patch_41">
    <path clip-path="url(#pda5da5f26b)" d="M 514.159122 252 
L 516.500021 252 
L 516.500021 252 
L 514.159122 252 
z
" style="fill:#4881d6;opacity:0.8;stroke:#ffffff;stroke-linejoin:miter;"/>
   </g>
   <g id="patch_42">
    <path clip-path="url(#pda5da5f26b)" d="M 517.085246 252 
L 519.426144 252 
L 519.426144 252 
L 517.085246 252 
z
" style="fill:#4881d6;opacity:0.8;stroke:#ffffff;stroke-linejoin:miter;"/>
   </g>
   <g id="patch_43">
    <path clip-path="url(#pda5da5f26b)" d="M 520.011369 252 
L 522.352267 252 
L 522.352267 252 
L 520.011369 252 
z
" style="fill:#4881d6;opacity:0.8;stroke:#ffffff;stroke-linejoin:miter;"/>
   </g>
   <g id="patch_44">
    <path clip-path="url(#pda5da5f26b)" d="M 522.937492 252 
L 525.278391 252 
L 525.278391 252 
L 522.937492 252 
z
" style="fill:#4881d6;opacity:0.8;stroke:#ffffff;stroke-linejoin:miter;"/>
   </g>
   <g id="patch_45">
    <path clip-path="url(#pda5da5f26b)" d="M 525.863615 252 
L 528.204514 252 
L 528.204514 252 
L 525.863615 252 
z
" style="fill:#4881d6;opacity:0.8;stroke:#ffffff;stroke-linejoin:miter;"/>
   </g>
   <g id="patch_46">
    <path clip-path="url(#pda5da5f26b)" d="M 528.789739 252 
L 531.130637 252 
L 531.130637 132.086264 
L 528.789739 132.086264 
z
" style="fill:#4881d6;opacity:0.8;stroke:#ffffff;stroke-linejoin:miter;"/>
   </g>
   <g id="patch_47">
    <path clip-path="url(#pda5da5f26b)" d="M 531.715862 252 
L 534.05676 252 
L 534.05676 252 
L 531.715862 252 
z
" style="fill:#4881d6;opacity:0.8;stroke:#ffffff;stroke-linejoin:miter;"/>
   </g>
   <g id="patch_48">
    <path clip-path="url(#pda5da5f26b)" d="M 534.641985 252 
L 536.982884 252 
L 536.982884 49.71507 
L 534.641985 49.71507 
z
" style="fill:#4881d6;opacity:0.8;stroke:#ffffff;stroke-linejoin:miter;"/>
   </g>
   <g id="patch_49">
    <path clip-path="url(#pda5da5f26b)" d="M 537.568108 252 
L 539.909007 252 
L 539.909007 252 
L 537.568108 252 
z
" style="fill:#4881d6;opacity:0.8;stroke:#ffffff;stroke-linejoin:miter;"/>
   </g>
   <g id="patch_50">
    <path clip-path="url(#pda5da5f26b)" d="M 540.494232 252 
L 542.83513 252 
L 542.83513 252 
L 540.494232 252 
z
" style="fill:#4881d6;opacity:0.8;stroke:#ffffff;stroke-linejoin:miter;"/>
   </g>
   <g id="patch_51">
    <path clip-path="url(#pda5da5f26b)" d="M 543.420355 252 
L 545.761254 252 
L 545.761254 252 
L 543.420355 252 
z
" style="fill:#4881d6;opacity:0.8;stroke:#ffffff;stroke-linejoin:miter;"/>
   </g>
   <g id="patch_52">
    <path clip-path="url(#pda5da5f26b)" d="M 546.346478 252 
L 548.687377 252 
L 548.687377 252 
L 546.346478 252 
z
" style="fill:#4881d6;opacity:0.8;stroke:#ffffff;stroke-linejoin:miter;"/>
   </g>
   <g id="patch_53">
    <path clip-path="url(#pda5da5f26b)" d="M 549.272601 252 
L 551.6135 252 
L 551.6135 252 
L 549.272601 252 
z
" style="fill:#4881d6;opacity:0.8;stroke:#ffffff;stroke-linejoin:miter;"/>
   </g>
   <g id="patch_54">
    <path clip-path="url(#pda5da5f26b)" d="M 552.198725 252 
L 554.539623 252 
L 554.539623 252 
L 552.198725 252 
z
" style="fill:#4881d6;opacity:0.8;stroke:#ffffff;stroke-linejoin:miter;"/>
   </g>
   <g id="patch_55">
    <path clip-path="url(#pda5da5f26b)" d="M 555.124848 252 
L 557.465747 252 
L 557.465747 252 
L 555.124848 252 
z
" style="fill:#4881d6;opacity:0.8;stroke:#ffffff;stroke-linejoin:miter;"/>
   </g>
   <g id="patch_56">
    <path clip-path="url(#pda5da5f26b)" d="M 558.050971 252 
L 560.39187 252 
L 560.39187 252 
L 558.050971 252 
z
" style="fill:#4881d6;opacity:0.8;stroke:#ffffff;stroke-linejoin:miter;"/>
   </g>
   <g id="patch_57">
    <path clip-path="url(#pda5da5f26b)" d="M 560.977094 252 
L 563.317993 252 
L 563.317993 252 
L 560.977094 252 
z
" style="fill:#4881d6;opacity:0.8;stroke:#ffffff;stroke-linejoin:miter;"/>
   </g>
   <g id="patch_58">
    <path clip-path="url(#pda5da5f26b)" d="M 563.903218 252 
L 566.244116 252 
L 566.244116 252 
L 563.903218 252 
z
" style="fill:#4881d6;opacity:0.8;stroke:#ffffff;stroke-linejoin:miter;"/>
   </g>
   <g id="patch_59">
    <path clip-path="url(#pda5da5f26b)" d="M 566.829341 252 
L 569.17024 252 
L 569.17024 252 
L 566.829341 252 
z
" style="fill:#4881d6;opacity:0.8;stroke:#ffffff;stroke-linejoin:miter;"/>
   </g>
   <g id="patch_60">
    <path clip-path="url(#pda5da5f26b)" d="M 569.755464 252 
L 572.096363 252 
L 572.096363 252 
L 569.755464 252 
z
" style="fill:#4881d6;opacity:0.8;stroke:#ffffff;stroke-linejoin:miter;"/>
   </g>
   <g id="patch_61">
    <path clip-path="url(#pda5da5f26b)" d="M 572.681587 252 
L 575.022486 252 
L 575.022486 252 
L 572.681587 252 
z
" style="fill:#4881d6;opacity:0.8;stroke:#ffffff;stroke-linejoin:miter;"/>
   </g>
   <g id="patch_62">
    <path clip-path="url(#pda5da5f26b)" d="M 575.607711 252 
L 577.948609 252 
L 577.948609 252 
L 575.607711 252 
z
" style="fill:#4881d6;opacity:0.8;stroke:#ffffff;stroke-linejoin:miter;"/>
   </g>
   <g id="patch_63">
    <path clip-path="url(#pda5da5f26b)" d="M 578.533834 252 
L 580.874733 252 
L 580.874733 252 
L 578.533834 252 
z
" style="fill:#4881d6;opacity:0.8;stroke:#ffffff;stroke-linejoin:miter;"/>
   </g>
   <g id="patch_64">
    <path clip-path="url(#pda5da5f26b)" d="M 581.459957 252 
L 583.800856 252 
L 583.800856 252 
L 581.459957 252 
z
" style="fill:#4881d6;opacity:0.8;stroke:#ffffff;stroke-linejoin:miter;"/>
   </g>
   <g id="patch_65">
    <path clip-path="url(#pda5da5f26b)" d="M 584.38608 252 
L 586.726979 252 
L 586.726979 252 
L 584.38608 252 
z
" style="fill:#4881d6;opacity:0.8;stroke:#ffffff;stroke-linejoin:miter;"/>
   </g>
   <g id="patch_66">
    <path clip-path="url(#pda5da5f26b)" d="M 587.312204 252 
L 589.653102 252 
L 589.653102 252 
L 587.312204 252 
z
" style="fill:#4881d6;opacity:0.8;stroke:#ffffff;stroke-linejoin:miter;"/>
   </g>
   <g id="patch_67">
    <path clip-path="url(#pda5da5f26b)" d="M 590.238327 252 
L 592.579226 252 
L 592.579226 252 
L 590.238327 252 
z
" style="fill:#4881d6;opacity:0.8;stroke:#ffffff;stroke-linejoin:miter;"/>
   </g>
   <g id="patch_68">
    <path clip-path="url(#pda5da5f26b)" d="M 593.16445 252 
L 595.505349 252 
L 595.505349 252 
L 593.16445 252 
z
" style="fill:#4881d6;opacity:0.8;stroke:#ffffff;stroke-linejoin:miter;"/>
   </g>
   <g id="patch_69">
    <path clip-path="url(#pda5da5f26b)" d="M 596.090573 252 
L 598.431472 252 
L 598.431472 252 
L 596.090573 252 
z
" style="fill:#4881d6;opacity:0.8;stroke:#ffffff;stroke-linejoin:miter;"/>
   </g>
   <g id="patch_70">
    <path clip-path="url(#pda5da5f26b)" d="M 599.016697 252 
L 601.357595 252 
L 601.357595 252 
L 599.016697 252 
z
" style="fill:#4881d6;opacity:0.8;stroke:#ffffff;stroke-linejoin:miter;"/>
   </g>
   <g id="patch_71">
    <path clip-path="url(#pda5da5f26b)" d="M 601.94282 252 
L 604.283719 252 
L 604.283719 252 
L 601.94282 252 
z
" style="fill:#4881d6;opacity:0.8;stroke:#ffffff;stroke-linejoin:miter;"/>
   </g>
   <g id="patch_72">
    <path clip-path="url(#pda5da5f26b)" d="M 604.868943 252 
L 607.209842 252 
L 607.209842 252 
L 604.868943 252 
z
" style="fill:#4881d6;opacity:0.8;stroke:#ffffff;stroke-linejoin:miter;"/>
   </g>
   <g id="patch_73">
    <path clip-path="url(#pda5da5f26b)" d="M 607.795066 252 
L 610.135965 252 
L 610.135965 252 
L 607.795066 252 
z
" style="fill:#4881d6;opacity:0.8;stroke:#ffffff;stroke-linejoin:miter;"/>
   </g>
   <g id="patch_74">
    <path clip-path="url(#pda5da5f26b)" d="M 610.72119 252 
L 613.062088 252 
L 613.062088 252 
L 610.72119 252 
z
" style="fill:#4881d6;opacity:0.8;stroke:#ffffff;stroke-linejoin:miter;"/>
   </g>
   <g id="patch_75">
    <path clip-path="url(#pda5da5f26b)" d="M 613.647313 252 
L 615.988212 252 
L 615.988212 252 
L 613.647313 252 
z
" style="fill:#4881d6;opacity:0.8;stroke:#ffffff;stroke-linejoin:miter;"/>
   </g>
   <g id="patch_76">
    <path clip-path="url(#pda5da5f26b)" d="M 616.573436 252 
L 618.914335 252 
L 618.914335 252 
L 616.573436 252 
z
" style="fill:#4881d6;opacity:0.8;stroke:#ffffff;stroke-linejoin:miter;"/>
   </g>
   <g id="patch_77">
    <path clip-path="url(#pda5da5f26b)" d="M 619.49956 252 
L 621.840458 252 
L 621.840458 252 
L 619.49956 252 
z
" style="fill:#4881d6;opacity:0.8;stroke:#ffffff;stroke-linejoin:miter;"/>
   </g>
   <g id="patch_78">
    <path clip-path="url(#pda5da5f26b)" d="M 622.425683 252 
L 624.766581 252 
L 624.766581 252 
L 622.425683 252 
z
" style="fill:#4881d6;opacity:0.8;stroke:#ffffff;stroke-linejoin:miter;"/>
   </g>
   <g id="patch_79">
    <path clip-path="url(#pda5da5f26b)" d="M 625.351806 252 
L 627.692705 252 
L 627.692705 252 
L 625.351806 252 
z
" style="fill:#4881d6;opacity:0.8;stroke:#ffffff;stroke-linejoin:miter;"/>
   </g>
   <g id="patch_80">
    <path clip-path="url(#pda5da5f26b)" d="M 628.277929 252 
L 630.618828 252 
L 630.618828 252 
L 628.277929 252 
z
" style="fill:#4881d6;opacity:0.8;stroke:#ffffff;stroke-linejoin:miter;"/>
   </g>
   <g id="patch_81">
    <path clip-path="url(#pda5da5f26b)" d="M 631.204053 252 
L 633.544951 252 
L 633.544951 252 
L 631.204053 252 
z
" style="fill:#4881d6;opacity:0.8;stroke:#ffffff;stroke-linejoin:miter;"/>
   </g>
   <g id="patch_82">
    <path clip-path="url(#pda5da5f26b)" d="M 634.130176 252 
L 636.471074 252 
L 636.471074 252 
L 634.130176 252 
z
" style="fill:#4881d6;opacity:0.8;stroke:#ffffff;stroke-linejoin:miter;"/>
   </g>
  </g>
 </g>
 <defs>
  <clipPath id="p1700eaab10">
   <rect height="217.44" width="253.636364" x="90" y="34.56"/>
  </clipPath>
  <clipPath id="pda5da5f26b">
   <rect height="217.44" width="253.636364" x="394.363636" y="34.56"/>
  </clipPath>
 </defs>
</svg>
