<?xml version="1.0" encoding="utf-8" standalone="no"?>
<!DOCTYPE svg PUBLIC "-//W3C//DTD SVG 1.1//EN"
  "http://www.w3.org/Graphics/SVG/1.1/DTD/svg11.dtd">
<svg height="345.6pt" version="1.1" viewBox="0 0 460.8 345.6" width="460.8pt" xmlns="http://www.w3.org/2000/svg" xmlns:xlink="http://www.w3.org/1999/xlink">
 <metadata>
  <rdf:RDF xmlns:cc="http://creativecommons.org/ns#" xmlns:dc="http://purl.org/dc/elements/1.1/" xmlns:rdf="http://www.w3.org/1999/02/22-rdf-syntax-ns#">
   <cc:Work>
    <dc:type rdf:resource="http://purl.org/dc/dcmitype/StillImage"/>
    <dc:date>2022-06-16T22:03:38.709071</dc:date>
    <dc:format>image/svg+xml</dc:format>
    <dc:creator>
     <cc:Agent>
      <dc:title>Matplotlib v3.4.2, https://matplotlib.org/</dc:title>
     </cc:Agent>
    </dc:creator>
   </cc:Work>
  </rdf:RDF>
 </metadata>
 <defs>
  <style type="text/css">*{stroke-linecap:butt;stroke-linejoin:round;}</style>
 </defs>
 <g id="figure_1">
  <g id="patch_1">
   <path d="M 0 345.6 
L 460.8 345.6 
L 460.8 0 
L 0 0 
z
" style="fill:#ffffff;"/>
  </g>
  <g id="axes_1">
   <g id="patch_2">
    <path d="M 57.6 307.584 
L 414.72 307.584 
L 414.72 41.472 
L 57.6 41.472 
z
" style="fill:#ffffff;"/>
   </g>
   <g id="matplotlib.axis_1">
    <g id="xtick_1">
     <g id="line2d_1">
      <defs>
       <path d="M 0 0 
L 0 3.5 
" id="m941a6409af" style="stroke:#000000;stroke-width:0.8;"/>
      </defs>
      <g>
       <use style="stroke:#000000;stroke-width:0.8;" x="73.832727" xlink:href="#m941a6409af" y="307.584"/>
      </g>
     </g>
     <g id="text_1">
      <!-- 0 -->
      <g transform="translate(70.651477 322.182437)scale(0.1 -0.1)">
       <defs>
        <path d="M 2034 4250 
Q 1547 4250 1301 3770 
Q 1056 3291 1056 2328 
Q 1056 1369 1301 889 
Q 1547 409 2034 409 
Q 2525 409 2770 889 
Q 3016 1369 3016 2328 
Q 3016 3291 2770 3770 
Q 2525 4250 2034 4250 
z
M 2034 4750 
Q 2819 4750 3233 4129 
Q 3647 3509 3647 2328 
Q 3647 1150 3233 529 
Q 2819 -91 2034 -91 
Q 1250 -91 836 529 
Q 422 1150 422 2328 
Q 422 3509 836 4129 
Q 1250 4750 2034 4750 
z
" id="DejaVuSans-30" transform="scale(0.015625)"/>
       </defs>
       <use xlink:href="#DejaVuSans-30"/>
      </g>
     </g>
    </g>
    <g id="xtick_2">
     <g id="line2d_2">
      <g>
       <use style="stroke:#000000;stroke-width:0.8;" x="141.469091" xlink:href="#m941a6409af" y="307.584"/>
      </g>
     </g>
     <g id="text_2">
      <!-- 100 -->
      <g transform="translate(131.925341 322.182437)scale(0.1 -0.1)">
       <defs>
        <path d="M 794 531 
L 1825 531 
L 1825 4091 
L 703 3866 
L 703 4441 
L 1819 4666 
L 2450 4666 
L 2450 531 
L 3481 531 
L 3481 0 
L 794 0 
L 794 531 
z
" id="DejaVuSans-31" transform="scale(0.015625)"/>
       </defs>
       <use xlink:href="#DejaVuSans-31"/>
       <use x="63.623047" xlink:href="#DejaVuSans-30"/>
       <use x="127.246094" xlink:href="#DejaVuSans-30"/>
      </g>
     </g>
    </g>
    <g id="xtick_3">
     <g id="line2d_3">
      <g>
       <use style="stroke:#000000;stroke-width:0.8;" x="209.105455" xlink:href="#m941a6409af" y="307.584"/>
      </g>
     </g>
     <g id="text_3">
      <!-- 200 -->
      <g transform="translate(199.561705 322.182437)scale(0.1 -0.1)">
       <defs>
        <path d="M 1228 531 
L 3431 531 
L 3431 0 
L 469 0 
L 469 531 
Q 828 903 1448 1529 
Q 2069 2156 2228 2338 
Q 2531 2678 2651 2914 
Q 2772 3150 2772 3378 
Q 2772 3750 2511 3984 
Q 2250 4219 1831 4219 
Q 1534 4219 1204 4116 
Q 875 4013 500 3803 
L 500 4441 
Q 881 4594 1212 4672 
Q 1544 4750 1819 4750 
Q 2544 4750 2975 4387 
Q 3406 4025 3406 3419 
Q 3406 3131 3298 2873 
Q 3191 2616 2906 2266 
Q 2828 2175 2409 1742 
Q 1991 1309 1228 531 
z
" id="DejaVuSans-32" transform="scale(0.015625)"/>
       </defs>
       <use xlink:href="#DejaVuSans-32"/>
       <use x="63.623047" xlink:href="#DejaVuSans-30"/>
       <use x="127.246094" xlink:href="#DejaVuSans-30"/>
      </g>
     </g>
    </g>
    <g id="xtick_4">
     <g id="line2d_4">
      <g>
       <use style="stroke:#000000;stroke-width:0.8;" x="276.741818" xlink:href="#m941a6409af" y="307.584"/>
      </g>
     </g>
     <g id="text_4">
      <!-- 300 -->
      <g transform="translate(267.198068 322.182437)scale(0.1 -0.1)">
       <defs>
        <path d="M 2597 2516 
Q 3050 2419 3304 2112 
Q 3559 1806 3559 1356 
Q 3559 666 3084 287 
Q 2609 -91 1734 -91 
Q 1441 -91 1130 -33 
Q 819 25 488 141 
L 488 750 
Q 750 597 1062 519 
Q 1375 441 1716 441 
Q 2309 441 2620 675 
Q 2931 909 2931 1356 
Q 2931 1769 2642 2001 
Q 2353 2234 1838 2234 
L 1294 2234 
L 1294 2753 
L 1863 2753 
Q 2328 2753 2575 2939 
Q 2822 3125 2822 3475 
Q 2822 3834 2567 4026 
Q 2313 4219 1838 4219 
Q 1578 4219 1281 4162 
Q 984 4106 628 3988 
L 628 4550 
Q 988 4650 1302 4700 
Q 1616 4750 1894 4750 
Q 2613 4750 3031 4423 
Q 3450 4097 3450 3541 
Q 3450 3153 3228 2886 
Q 3006 2619 2597 2516 
z
" id="DejaVuSans-33" transform="scale(0.015625)"/>
       </defs>
       <use xlink:href="#DejaVuSans-33"/>
       <use x="63.623047" xlink:href="#DejaVuSans-30"/>
       <use x="127.246094" xlink:href="#DejaVuSans-30"/>
      </g>
     </g>
    </g>
    <g id="xtick_5">
     <g id="line2d_5">
      <g>
       <use style="stroke:#000000;stroke-width:0.8;" x="344.378182" xlink:href="#m941a6409af" y="307.584"/>
      </g>
     </g>
     <g id="text_5">
      <!-- 400 -->
      <g transform="translate(334.834432 322.182437)scale(0.1 -0.1)">
       <defs>
        <path d="M 2419 4116 
L 825 1625 
L 2419 1625 
L 2419 4116 
z
M 2253 4666 
L 3047 4666 
L 3047 1625 
L 3713 1625 
L 3713 1100 
L 3047 1100 
L 3047 0 
L 2419 0 
L 2419 1100 
L 313 1100 
L 313 1709 
L 2253 4666 
z
" id="DejaVuSans-34" transform="scale(0.015625)"/>
       </defs>
       <use xlink:href="#DejaVuSans-34"/>
       <use x="63.623047" xlink:href="#DejaVuSans-30"/>
       <use x="127.246094" xlink:href="#DejaVuSans-30"/>
      </g>
     </g>
    </g>
    <g id="xtick_6">
     <g id="line2d_6">
      <g>
       <use style="stroke:#000000;stroke-width:0.8;" x="412.014545" xlink:href="#m941a6409af" y="307.584"/>
      </g>
     </g>
     <g id="text_6">
      <!-- 500 -->
      <g transform="translate(402.470795 322.182437)scale(0.1 -0.1)">
       <defs>
        <path d="M 691 4666 
L 3169 4666 
L 3169 4134 
L 1269 4134 
L 1269 2991 
Q 1406 3038 1543 3061 
Q 1681 3084 1819 3084 
Q 2600 3084 3056 2656 
Q 3513 2228 3513 1497 
Q 3513 744 3044 326 
Q 2575 -91 1722 -91 
Q 1428 -91 1123 -41 
Q 819 9 494 109 
L 494 744 
Q 775 591 1075 516 
Q 1375 441 1709 441 
Q 2250 441 2565 725 
Q 2881 1009 2881 1497 
Q 2881 1984 2565 2268 
Q 2250 2553 1709 2553 
Q 1456 2553 1204 2497 
Q 953 2441 691 2322 
L 691 4666 
z
" id="DejaVuSans-35" transform="scale(0.015625)"/>
       </defs>
       <use xlink:href="#DejaVuSans-35"/>
       <use x="63.623047" xlink:href="#DejaVuSans-30"/>
       <use x="127.246094" xlink:href="#DejaVuSans-30"/>
      </g>
     </g>
    </g>
   </g>
   <g id="matplotlib.axis_2">
    <g id="ytick_1">
     <g id="line2d_7">
      <defs>
       <path d="M 0 0 
L -3.5 0 
" id="m178a1109ec" style="stroke:#000000;stroke-width:0.8;"/>
      </defs>
      <g>
       <use style="stroke:#000000;stroke-width:0.8;" x="57.6" xlink:href="#m178a1109ec" y="276.468792"/>
      </g>
     </g>
     <g id="text_7">
      <!-- −15 -->
      <g transform="translate(29.495313 280.268011)scale(0.1 -0.1)">
       <defs>
        <path d="M 678 2272 
L 4684 2272 
L 4684 1741 
L 678 1741 
L 678 2272 
z
" id="DejaVuSans-2212" transform="scale(0.015625)"/>
       </defs>
       <use xlink:href="#DejaVuSans-2212"/>
       <use x="83.789062" xlink:href="#DejaVuSans-31"/>
       <use x="147.412109" xlink:href="#DejaVuSans-35"/>
      </g>
     </g>
    </g>
    <g id="ytick_2">
     <g id="line2d_8">
      <g>
       <use style="stroke:#000000;stroke-width:0.8;" x="57.6" xlink:href="#m178a1109ec" y="242.939453"/>
      </g>
     </g>
     <g id="text_8">
      <!-- −10 -->
      <g transform="translate(29.495313 246.738672)scale(0.1 -0.1)">
       <use xlink:href="#DejaVuSans-2212"/>
       <use x="83.789062" xlink:href="#DejaVuSans-31"/>
       <use x="147.412109" xlink:href="#DejaVuSans-30"/>
      </g>
     </g>
    </g>
    <g id="ytick_3">
     <g id="line2d_9">
      <g>
       <use style="stroke:#000000;stroke-width:0.8;" x="57.6" xlink:href="#m178a1109ec" y="209.410113"/>
      </g>
     </g>
     <g id="text_9">
      <!-- −5 -->
      <g transform="translate(35.857813 213.209332)scale(0.1 -0.1)">
       <use xlink:href="#DejaVuSans-2212"/>
       <use x="83.789062" xlink:href="#DejaVuSans-35"/>
      </g>
     </g>
    </g>
    <g id="ytick_4">
     <g id="line2d_10">
      <g>
       <use style="stroke:#000000;stroke-width:0.8;" x="57.6" xlink:href="#m178a1109ec" y="175.880774"/>
      </g>
     </g>
     <g id="text_10">
      <!-- 0 -->
      <g transform="translate(44.2375 179.679992)scale(0.1 -0.1)">
       <use xlink:href="#DejaVuSans-30"/>
      </g>
     </g>
    </g>
    <g id="ytick_5">
     <g id="line2d_11">
      <g>
       <use style="stroke:#000000;stroke-width:0.8;" x="57.6" xlink:href="#m178a1109ec" y="142.351434"/>
      </g>
     </g>
     <g id="text_11">
      <!-- 5 -->
      <g transform="translate(44.2375 146.150653)scale(0.1 -0.1)">
       <use xlink:href="#DejaVuSans-35"/>
      </g>
     </g>
    </g>
    <g id="ytick_6">
     <g id="line2d_12">
      <g>
       <use style="stroke:#000000;stroke-width:0.8;" x="57.6" xlink:href="#m178a1109ec" y="108.822094"/>
      </g>
     </g>
     <g id="text_12">
      <!-- 10 -->
      <g transform="translate(37.875 112.621313)scale(0.1 -0.1)">
       <use xlink:href="#DejaVuSans-31"/>
       <use x="63.623047" xlink:href="#DejaVuSans-30"/>
      </g>
     </g>
    </g>
    <g id="ytick_7">
     <g id="line2d_13">
      <g>
       <use style="stroke:#000000;stroke-width:0.8;" x="57.6" xlink:href="#m178a1109ec" y="75.292755"/>
      </g>
     </g>
     <g id="text_13">
      <!-- 15 -->
      <g transform="translate(37.875 79.091974)scale(0.1 -0.1)">
       <use xlink:href="#DejaVuSans-31"/>
       <use x="63.623047" xlink:href="#DejaVuSans-35"/>
      </g>
     </g>
    </g>
    <g id="ytick_8">
     <g id="line2d_14">
      <g>
       <use style="stroke:#000000;stroke-width:0.8;" x="57.6" xlink:href="#m178a1109ec" y="41.763415"/>
      </g>
     </g>
     <g id="text_14">
      <!-- 20 -->
      <g transform="translate(37.875 45.562634)scale(0.1 -0.1)">
       <use xlink:href="#DejaVuSans-32"/>
       <use x="63.623047" xlink:href="#DejaVuSans-30"/>
      </g>
     </g>
    </g>
   </g>
   <g id="line2d_15">
    <path clip-path="url(#p438aaa6e01)" d="M 73.832727 128.134057 
L 74.509091 118.694991 
L 75.185455 94.38116 
L 75.861818 107.476229 
L 76.538182 111.153098 
L 77.214545 92.968203 
L 77.890909 100.923543 
L 78.567273 101.607264 
L 79.243636 100.228639 
L 79.92 87.346578 
L 80.596364 77.154795 
L 81.272727 76.569792 
L 81.949091 196.163417 
L 82.625455 199.330142 
L 83.301818 193.355459 
L 83.978182 192.003224 
L 84.654545 187.750497 
L 85.330909 123.266185 
L 86.683636 107.357044 
L 87.36 94.698093 
L 88.036364 113.736872 
L 88.712727 96.766998 
L 89.389091 105.199887 
L 90.065455 108.766759 
L 90.741818 85.94722 
L 91.418182 100.435573 
L 92.094545 75.694393 
L 92.770909 81.465361 
L 93.447273 92.374171 
L 94.123636 90.856295 
L 94.8 102.41159 
L 95.476364 100.774042 
L 96.152727 113.605483 
L 96.829091 83.917534 
L 97.505455 89.648273 
L 98.181818 74.046482 
L 98.858182 98.289195 
L 99.534545 72.376715 
L 100.210909 72.342098 
L 100.887273 97.228082 
L 101.563636 76.181522 
L 102.24 89.866356 
L 102.916364 80.232176 
L 103.592727 87.767682 
L 104.269091 93.462783 
L 104.945455 97.122746 
L 106.298182 80.828332 
L 106.974545 91.708606 
L 107.650909 110.233456 
L 108.327273 81.448415 
L 109.003636 75.136617 
L 109.68 74.806504 
L 110.356364 96.950201 
L 111.032727 81.708066 
L 111.709091 90.712708 
L 112.385455 95.430961 
L 113.061818 92.106912 
L 113.738182 101.832432 
L 114.414545 116.991516 
L 115.090909 92.231736 
L 115.767273 102.399708 
L 116.443636 101.975529 
L 117.12 91.773421 
L 117.796364 96.270295 
L 118.472727 83.916549 
L 119.149091 76.161889 
L 119.825455 96.993374 
L 120.501818 78.544567 
L 121.178182 97.390567 
L 121.854545 91.654544 
L 122.530909 100.773702 
L 123.207273 97.399904 
L 123.883636 86.529143 
L 124.56 94.896965 
L 125.236364 106.16877 
L 125.912727 120.318705 
L 126.589091 109.866287 
L 127.265455 127.090011 
L 127.941818 133.742677 
L 128.618182 117.962156 
L 129.294545 124.76584 
L 129.970909 113.572051 
L 130.647273 110.651747 
L 131.323636 99.397841 
L 132 81.531398 
L 132.676364 89.448587 
L 133.352727 105.504478 
L 134.029091 86.889792 
L 134.705455 95.86972 
L 135.381818 76.757367 
L 136.058182 92.910845 
L 136.734545 67.93536 
L 137.410909 79.838976 
L 138.763636 109.195095 
L 139.44 129.710313 
L 140.116364 120.644223 
L 140.792727 116.029132 
L 141.469091 112.4034 
L 142.145455 110.241888 
L 142.821818 91.983136 
L 143.498182 94.029315 
L 144.174545 77.126335 
L 144.850909 78.517344 
L 145.527273 102.365664 
L 146.203636 70.717003 
L 146.88 79.647468 
L 147.556364 68.793189 
L 148.232727 98.168209 
L 148.909091 86.708964 
L 149.585455 78.333582 
L 150.261818 99.56561 
L 150.938182 92.117025 
L 151.614545 86.319089 
L 152.290909 98.447748 
L 152.967273 91.366244 
L 153.643636 76.593961 
L 154.32 83.764154 
L 154.996364 74.811884 
L 155.672727 75.491934 
L 156.349091 86.380371 
L 157.025455 108.933913 
L 157.701818 113.382212 
L 158.378182 144.501238 
L 159.054545 104.015601 
L 159.730909 107.987904 
L 160.407273 90.725461 
L 161.083636 86.325918 
L 161.76 96.15216 
L 162.436364 85.124934 
L 163.112727 78.069062 
L 163.789091 87.329863 
L 164.465455 68.83082 
L 165.141818 67.925449 
L 165.818182 106.545428 
L 166.494545 92.721388 
L 167.170909 104.496051 
L 167.847273 112.523585 
L 168.523636 131.103942 
L 169.876364 156.075808 
L 170.552727 172.382449 
L 171.229091 158.817678 
L 171.905455 173.743322 
L 172.581818 186.093118 
L 173.258182 190.854299 
L 173.934545 202.858402 
L 174.610909 197.065516 
L 175.287273 198.344888 
L 175.963636 207.778235 
L 176.64 219.168685 
L 177.316364 215.731533 
L 177.992727 210.873767 
L 178.669091 214.699722 
L 179.345455 222.848442 
L 180.021818 227.019251 
L 180.698182 232.062358 
L 181.374545 228.656256 
L 182.050909 238.989144 
L 182.727273 243.868568 
L 183.403636 252.572283 
L 184.08 250.174897 
L 184.756364 249.25018 
L 185.432727 258.052975 
L 186.109091 256.238003 
L 186.785455 257.169498 
L 187.461818 260.364456 
L 188.138182 267.479189 
L 188.814545 263.335376 
L 189.490909 260.196909 
L 190.167273 251.984768 
L 190.843636 246.26952 
L 191.52 257.257464 
L 192.196364 251.510708 
L 192.872727 256.376177 
L 193.549091 257.999288 
L 194.225455 256.583411 
L 194.901818 247.266361 
L 195.578182 254.033593 
L 196.254545 250.441462 
L 196.930909 251.101695 
L 197.607273 249.357274 
L 198.283636 263.220603 
L 198.96 263.778653 
L 199.636364 265.754678 
L 200.312727 251.479289 
L 200.989091 253.469537 
L 201.665455 261.87733 
L 202.341818 271.948477 
L 203.018182 267.874574 
L 203.694545 266.414403 
L 204.370909 256.21691 
L 205.047273 240.044892 
L 205.723636 233.939094 
L 206.4 233.227873 
L 207.076364 230.916022 
L 207.752727 244.246113 
L 208.429091 239.586134 
L 209.105455 237.299213 
L 209.781818 237.710504 
L 211.134545 247.579341 
L 211.810909 257.877734 
L 212.487273 264.664089 
L 213.163636 256.223088 
L 213.84 258.963561 
L 214.516364 257.461258 
L 215.192727 264.637295 
L 215.869091 267.591178 
L 217.221818 267.636876 
L 217.898182 259.603661 
L 218.574545 272.572842 
L 219.250909 268.113256 
L 219.927273 268.047321 
L 220.603636 264.825077 
L 221.28 253.144377 
L 221.956364 265.740537 
L 223.309091 271.063553 
L 223.985455 264.77826 
L 224.661818 255.319414 
L 225.338182 256.043871 
L 226.014545 264.404467 
L 226.690909 266.450924 
L 227.367273 254.868191 
L 228.043636 246.547604 
L 228.72 247.847032 
L 229.396364 263.594844 
L 230.072727 254.335316 
L 231.425455 191.016875 
L 232.101818 209.110808 
L 232.778182 233.962857 
L 233.454545 241.317094 
L 234.130909 240.936135 
L 234.807273 232.605779 
L 235.483636 230.806666 
L 236.836364 220.681804 
L 237.512727 234.983582 
L 238.189091 237.973076 
L 238.865455 208.001939 
L 239.541818 201.649992 
L 240.218182 200.931465 
L 240.894545 195.961966 
L 241.570909 201.205049 
L 242.247273 198.298799 
L 242.923636 181.216397 
L 243.6 159.59198 
L 244.276364 143.585878 
L 244.952727 148.586824 
L 246.305455 130.994995 
L 246.981818 154.804084 
L 247.658182 149.774552 
L 248.334545 132.011449 
L 249.010909 147.505128 
L 249.687273 126.788617 
L 250.363636 110.529665 
L 251.04 130.035192 
L 251.716364 106.657429 
L 252.392727 105.165526 
L 253.069091 140.272633 
L 253.745455 102.944266 
L 254.421818 123.325391 
L 255.098182 97.132287 
L 255.774545 121.829022 
L 256.450909 122.073577 
L 257.127273 100.798237 
L 257.803636 120.272234 
L 258.48 99.369608 
L 259.156364 104.271389 
L 259.832727 112.983161 
L 260.509091 104.853358 
L 261.185455 124.723468 
L 261.861818 100.381001 
L 262.538182 119.613358 
L 263.214545 97.127072 
L 263.890909 113.726314 
L 264.567273 102.277303 
L 265.243636 102.462863 
L 265.92 127.500035 
L 266.596364 102.403665 
L 267.272727 120.523327 
L 267.949091 106.576335 
L 268.625455 117.8277 
L 269.301818 119.552108 
L 269.978182 108.758074 
L 270.654545 130.253437 
L 271.330909 110.202305 
L 272.007273 122.893954 
L 272.683636 119.083661 
L 273.36 123.852532 
L 274.036364 111.852024 
L 274.712727 112.376058 
L 275.389091 116.58908 
L 276.065455 123.962289 
L 276.741818 116.308765 
L 277.418182 115.282512 
L 278.094545 117.567551 
L 278.770909 118.344152 
L 279.447273 112.975106 
L 280.123636 109.918186 
L 280.8 110.211136 
L 281.476364 112.677826 
L 282.152727 128.762097 
L 282.829091 113.199112 
L 283.505455 113.562094 
L 284.181818 129.584413 
L 284.858182 105.653225 
L 285.534545 123.866838 
L 286.210909 129.88838 
L 286.887273 116.450457 
L 287.563636 106.767954 
L 288.24 105.517357 
L 288.916364 109.013616 
L 289.592727 188.827612 
L 290.269091 197.699212 
L 290.945455 200.155295 
L 291.621818 200.172904 
L 292.974545 196.083662 
L 293.650909 90.673621 
L 294.327273 87.331975 
L 295.003636 109.869329 
L 295.68 90.921797 
L 296.356364 110.08841 
L 297.032727 103.889254 
L 297.709091 104.983277 
L 298.385455 101.779411 
L 299.061818 97.220011 
L 299.738182 106.073186 
L 300.414545 111.626141 
L 301.090909 101.960556 
L 301.767273 116.424807 
L 302.443636 100.646148 
L 303.12 105.517341 
L 303.796364 111.198027 
L 304.472727 107.621214 
L 305.825455 112.239039 
L 306.501818 107.327555 
L 307.178182 108.645285 
L 307.854545 110.770585 
L 308.530909 124.125454 
L 309.207273 96.507264 
L 309.883636 129.225765 
L 310.56 115.020406 
L 311.236364 132.222283 
L 311.912727 146.369458 
L 312.589091 121.965417 
L 313.265455 129.462803 
L 313.941818 95.175106 
L 314.618182 102.065997 
L 315.294545 96.94305 
L 315.970909 108.939352 
L 316.647273 116.714359 
L 317.323636 100.00154 
L 318.676364 116.206773 
L 319.352727 129.768388 
L 320.029091 107.731102 
L 320.705455 114.631875 
L 321.381818 102.41716 
L 322.058182 116.385481 
L 322.734545 102.084442 
L 323.410909 108.49075 
L 324.087273 103.169808 
L 324.763636 107.331041 
L 325.44 103.709737 
L 326.116364 103.051113 
L 326.792727 117.276864 
L 327.469091 96.513394 
L 328.145455 110.79742 
L 328.821818 94.793752 
L 329.498182 109.377431 
L 330.174545 113.739857 
L 330.850909 120.002618 
L 331.527273 109.246761 
L 332.203636 114.153848 
L 332.88 129.883097 
L 333.556364 129.187064 
L 334.232727 153.651637 
L 334.909091 163.115326 
L 335.585455 157.377516 
L 336.261818 171.858626 
L 336.938182 170.364415 
L 337.614545 150.903211 
L 338.290909 157.752836 
L 338.967273 150.391264 
L 339.643636 152.560264 
L 340.32 158.789649 
L 340.996364 133.06041 
L 341.672727 142.84764 
L 342.349091 112.008014 
L 343.025455 119.601076 
L 343.701818 123.634026 
L 344.378182 146.228927 
L 345.054545 160.79239 
L 345.730909 203.887822 
L 346.407273 212.924834 
L 347.083636 218.414016 
L 347.76 229.142876 
L 348.436364 229.41633 
L 349.112727 233.671306 
L 349.789091 229.005051 
L 350.465455 232.010391 
L 351.141818 237.049554 
L 351.818182 245.060857 
L 352.494545 242.760609 
L 353.170909 240.867258 
L 353.847273 229.504584 
L 354.523636 246.044755 
L 355.2 244.261831 
L 356.552727 242.569853 
L 357.229091 236.943574 
L 357.905455 226.492658 
L 358.581818 198.749965 
L 359.258182 208.702045 
L 359.934545 223.133692 
L 360.610909 247.31411 
L 361.287273 251.53303 
L 361.963636 249.638148 
L 362.64 236.791169 
L 363.316364 232.473749 
L 363.992727 234.786988 
L 364.669091 234.019479 
L 365.345455 241.618072 
L 366.021818 239.546029 
L 366.698182 240.683402 
L 367.374545 220.548368 
L 368.050909 205.854719 
L 368.727273 208.716052 
L 369.403636 226.010162 
L 370.08 229.798603 
L 370.756364 223.535409 
L 371.432727 214.970467 
L 372.109091 220.353712 
L 372.785455 228.54546 
L 373.461818 239.39216 
L 374.138182 235.872233 
L 374.814545 236.438745 
L 375.490909 255.736192 
L 376.167273 265.537042 
L 376.843636 267.942289 
L 377.52 243.223014 
L 378.196364 228.398971 
L 378.872727 225.592893 
L 379.549091 234.178546 
L 380.225455 224.218465 
L 380.901818 206.057929 
L 381.578182 204.17649 
L 382.254545 191.060539 
L 382.930909 198.444768 
L 383.607273 213.614227 
L 384.283636 198.145938 
L 384.96 197.351001 
L 385.636364 199.63845 
L 386.312727 197.082415 
L 387.665455 184.148372 
L 388.341818 197.402015 
L 389.018182 206.269455 
L 389.694545 205.450544 
L 391.047273 222.929233 
L 391.723636 236.106727 
L 392.4 252.534011 
L 393.076364 236.1001 
L 393.752727 237.218019 
L 394.429091 247.676706 
L 395.105455 260.950177 
L 395.781818 266.025452 
L 396.458182 240.834199 
L 397.134545 225.808079 
L 397.810909 227.535759 
L 398.487273 216.895487 
L 398.487273 216.895487 
" style="fill:none;stroke:#1f77b4;stroke-linecap:square;stroke-width:1.5;"/>
   </g>
   <g id="line2d_16">
    <path clip-path="url(#p438aaa6e01)" d="M 73.832727 212.548141 
L 74.509091 259.781708 
L 75.185455 281.994385 
L 75.861818 276.917133 
L 76.538182 273.819117 
L 77.214545 258.182606 
L 77.890909 256.441834 
L 78.567273 252.297688 
L 79.243636 253.611752 
L 79.92 269.434348 
L 80.596364 270.373064 
L 81.272727 276.506523 
L 81.949091 195.691248 
L 82.625455 186.726907 
L 83.301818 197.872923 
L 83.978182 199.521028 
L 84.654545 211.632086 
L 85.330909 272.476429 
L 86.007273 276.94088 
L 86.683636 276.548571 
L 87.36 285.894559 
L 88.036364 272.782402 
L 88.712727 280.331323 
L 89.389091 277.995007 
L 90.065455 276.427158 
L 90.741818 279.166704 
L 91.418182 279.711896 
L 92.094545 276.976483 
L 92.770909 270.461401 
L 93.447273 231.966828 
L 94.123636 230.098159 
L 94.8 215.125703 
L 95.476364 220.471892 
L 96.152727 228.27092 
L 96.829091 267.337714 
L 97.505455 277.676979 
L 98.181818 284.083525 
L 98.858182 270.582365 
L 99.534545 267.967113 
L 100.210909 263.53088 
L 100.887273 229.327431 
L 101.563636 240.133303 
L 102.24 267.744839 
L 102.916364 263.919035 
L 103.592727 259.202548 
L 104.269091 267.861658 
L 104.945455 245.374994 
L 105.621818 248.321873 
L 106.298182 240.882415 
L 106.974545 213.547229 
L 107.650909 222.29544 
L 108.327273 235.834577 
L 109.003636 238.595708 
L 109.68 259.375303 
L 110.356364 220.974576 
L 111.032727 226.33362 
L 111.709091 259.431057 
L 112.385455 261.50655 
L 113.061818 265.908763 
L 113.738182 263.910138 
L 114.414545 246.607718 
L 115.090909 235.29842 
L 115.767273 219.700374 
L 116.443636 197.216909 
L 117.12 211.649163 
L 117.796364 217.115729 
L 118.472727 226.330988 
L 119.149091 255.124263 
L 119.825455 238.872953 
L 120.501818 268.930473 
L 121.178182 270.635771 
L 121.854545 269.344373 
L 122.530909 258.843011 
L 123.207273 264.435035 
L 123.883636 242.288047 
L 125.236364 187.601545 
L 125.912727 176.066362 
L 126.589091 186.140812 
L 127.265455 177.29113 
L 127.941818 173.173327 
L 128.618182 183.023529 
L 129.294545 180.558523 
L 129.970909 187.401388 
L 130.647273 214.66348 
L 131.323636 230.686836 
L 132 242.008619 
L 132.676364 256.646996 
L 133.352727 225.90374 
L 134.029091 227.703523 
L 134.705455 242.773521 
L 135.381818 245.078518 
L 136.058182 255.133479 
L 136.734545 262.893755 
L 138.087273 210.427606 
L 138.763636 196.523139 
L 139.44 180.311149 
L 140.116364 188.9386 
L 140.792727 191.145492 
L 141.469091 197.570958 
L 142.145455 207.51311 
L 142.821818 232.770687 
L 143.498182 243.543102 
L 144.174545 243.199662 
L 144.850909 256.747101 
L 145.527273 217.667962 
L 146.203636 254.695316 
L 146.88 273.441736 
L 147.556364 268.607801 
L 148.232727 259.958829 
L 148.909091 272.358757 
L 149.585455 264.588968 
L 150.261818 262.423191 
L 151.614545 234.976361 
L 152.290909 244.659318 
L 152.967273 239.673472 
L 153.643636 255.609663 
L 154.32 264.312388 
L 154.996364 249.286585 
L 155.672727 244.430088 
L 156.349091 255.142799 
L 157.025455 235.372294 
L 157.701818 233.443773 
L 158.378182 213.508679 
L 159.054545 228.082737 
L 159.730909 223.95283 
L 160.407273 234.654651 
L 161.083636 236.639968 
L 161.76 243.074617 
L 162.436364 246.428193 
L 163.112727 254.746252 
L 163.789091 265.755739 
L 164.465455 257.873704 
L 165.141818 254.281126 
L 165.818182 217.13879 
L 166.494545 212.340287 
L 167.170909 210.891385 
L 167.847273 192.550004 
L 168.523636 186.450262 
L 169.876364 146.615494 
L 170.552727 132.228075 
L 171.229091 140.749285 
L 171.905455 126.972396 
L 172.581818 121.085069 
L 173.258182 117.610705 
L 173.934545 107.329095 
L 174.610909 110.624815 
L 175.287273 106.88617 
L 175.963636 101.913695 
L 176.64 95.094823 
L 177.316364 97.275431 
L 177.992727 93.871719 
L 178.669091 87.823101 
L 179.345455 83.251542 
L 180.021818 84.661783 
L 180.698182 83.499762 
L 181.374545 77.447056 
L 182.050909 63.046223 
L 182.727273 61.037813 
L 183.403636 60.256589 
L 184.08 64.397973 
L 184.756364 53.568 
L 185.432727 58.19649 
L 186.109091 58.586148 
L 186.785455 61.176107 
L 187.461818 58.193422 
L 188.138182 54.653596 
L 188.814545 64.445279 
L 189.490909 67.537429 
L 190.167273 67.570308 
L 190.843636 75.194766 
L 191.52 59.621552 
L 192.196364 59.680417 
L 192.872727 58.180767 
L 193.549091 61.251166 
L 194.225455 59.032919 
L 195.578182 62.561076 
L 196.254545 62.79353 
L 196.930909 59.832927 
L 197.607273 64.375819 
L 198.283636 55.985709 
L 198.96 55.169567 
L 199.636364 63.168627 
L 200.312727 97.385358 
L 200.989091 88.244559 
L 201.665455 81.276916 
L 202.341818 63.356019 
L 203.694545 56.805151 
L 204.370909 62.824458 
L 205.047273 83.223405 
L 205.723636 88.924609 
L 206.4 88.772833 
L 207.076364 91.792887 
L 208.429091 83.825487 
L 209.105455 83.434516 
L 209.781818 85.963109 
L 210.458182 83.122229 
L 211.134545 71.194952 
L 211.810909 61.709734 
L 212.487273 58.307571 
L 213.163636 60.613708 
L 213.84 62.027439 
L 214.516364 64.33108 
L 215.192727 60.370211 
L 215.869091 58.92857 
L 216.545455 60.872988 
L 217.221818 60.876924 
L 217.898182 70.494527 
L 218.574545 66.08207 
L 219.250909 55.476687 
L 219.927273 63.219188 
L 220.603636 78.87941 
L 221.28 80.689766 
L 221.956364 76.78878 
L 222.632727 76.065459 
L 223.309091 59.792803 
L 224.661818 95.753141 
L 225.338182 91.044452 
L 226.014545 80.953111 
L 226.690909 73.501999 
L 227.367273 76.674884 
L 228.043636 80.458072 
L 228.72 90.11013 
L 229.396364 74.436833 
L 230.072727 107.369202 
L 230.749091 153.248951 
L 231.425455 170.471687 
L 232.101818 157.033881 
L 232.778182 113.449433 
L 233.454545 83.481523 
L 234.130909 83.959786 
L 234.807273 97.43871 
L 235.483636 86.416403 
L 236.16 91.825854 
L 236.836364 104.41581 
L 237.512727 94.298184 
L 238.189091 90.210146 
L 238.865455 120.298438 
L 239.541818 131.108498 
L 240.894545 161.190761 
L 241.570909 155.257198 
L 242.247273 157.947292 
L 242.923636 191.911934 
L 243.6 214.864112 
L 244.276364 224.552668 
L 244.952727 230.402932 
L 245.629091 222.168389 
L 246.305455 217.451142 
L 246.981818 218.764682 
L 247.658182 201.044449 
L 248.334545 207.769887 
L 249.010909 229.96312 
L 249.687273 230.016526 
L 250.363636 234.731841 
L 251.04 257.300682 
L 251.716364 245.156721 
L 252.392727 258.046429 
L 253.069091 228.942612 
L 253.745455 258.805114 
L 254.421818 274.377578 
L 255.098182 269.201318 
L 256.450909 256.559191 
L 257.803636 271.311178 
L 258.48 262.849081 
L 259.156364 279.597673 
L 259.832727 265.490274 
L 260.509091 281.437536 
L 261.185455 267.242911 
L 261.861818 291.675552 
L 262.538182 284.190488 
L 263.214545 287.954987 
L 263.890909 280.806005 
L 264.567273 286.230032 
L 265.243636 284.599654 
L 265.92 263.493033 
L 266.596364 282.031179 
L 267.272727 281.421503 
L 267.949091 278.191175 
L 268.625455 281.972263 
L 269.301818 277.124748 
L 269.978182 287.966679 
L 270.654545 273.30949 
L 271.330909 275.004825 
L 272.683636 242.385793 
L 273.36 242.904878 
L 274.036364 252.835956 
L 274.712727 255.820993 
L 276.065455 245.616178 
L 276.741818 256.534526 
L 277.418182 259.771472 
L 278.094545 254.675681 
L 278.770909 254.78802 
L 279.447273 256.691153 
L 280.123636 262.725139 
L 280.8 260.26925 
L 281.476364 263.562395 
L 282.152727 264.789928 
L 282.829091 280.775943 
L 283.505455 285.008634 
L 284.181818 273.093524 
L 284.858182 284.806003 
L 285.534545 235.747344 
L 286.210909 222.499745 
L 287.563636 257.893946 
L 288.24 257.758445 
L 288.916364 252.859552 
L 289.592727 195.990147 
L 290.269091 191.297674 
L 290.945455 183.725991 
L 291.621818 184.506887 
L 292.298182 187.203287 
L 292.974545 197.589375 
L 293.650909 284.81294 
L 294.327273 289.190662 
L 295.003636 271.657568 
L 295.68 291.272194 
L 296.356364 266.370997 
L 297.709091 274.059715 
L 298.385455 283.365086 
L 299.061818 286.552635 
L 299.738182 286.497655 
L 300.414545 270.595107 
L 301.090909 287.802792 
L 301.767273 276.174077 
L 302.443636 287.602868 
L 303.12 282.135385 
L 303.796364 268.75716 
L 304.472727 276.376751 
L 305.149091 270.180368 
L 305.825455 267.491242 
L 306.501818 270.967518 
L 307.178182 266.505752 
L 307.854545 260.426039 
L 308.530909 237.520243 
L 309.207273 280.713174 
L 309.883636 261.394713 
L 310.56 262.928376 
L 311.236364 260.836054 
L 311.912727 235.54993 
L 312.589091 233.90279 
L 313.265455 243.855464 
L 313.941818 273.306556 
L 314.618182 288.330009 
L 315.294545 293.24004 
L 315.970909 269.226139 
L 316.647273 255.06072 
L 317.323636 271.310946 
L 318 254.626209 
L 318.676364 232.470108 
L 319.352727 235.926314 
L 320.029091 277.908372 
L 320.705455 278.471282 
L 321.381818 295.488 
L 322.058182 276.12078 
L 322.734545 291.161269 
L 324.087273 251.139589 
L 324.763636 267.216205 
L 325.44 258.994218 
L 326.116364 270.600217 
L 326.792727 244.447857 
L 327.469091 278.225927 
L 328.145455 270.705391 
L 328.821818 267.051992 
L 329.498182 254.780687 
L 330.174545 231.88131 
L 330.850909 219.330228 
L 332.203636 239.438562 
L 333.556364 212.262118 
L 334.232727 189.504435 
L 334.909091 156.888283 
L 335.585455 163.423699 
L 336.261818 154.753241 
L 336.938182 150.594051 
L 337.614545 166.570156 
L 338.290909 175.262331 
L 338.967273 166.115737 
L 339.643636 163.56704 
L 340.32 172.937712 
L 340.996364 194.92253 
L 341.672727 197.321933 
L 342.349091 232.447303 
L 343.025455 224.148187 
L 343.701818 220.642256 
L 344.378182 211.333914 
L 345.054545 182.492875 
L 345.730909 140.146148 
L 346.407273 112.73825 
L 347.083636 106.75661 
L 347.76 89.035436 
L 348.436364 93.751196 
L 349.112727 94.430825 
L 349.789091 101.802015 
L 350.465455 90.466133 
L 351.141818 82.566683 
L 352.494545 76.542787 
L 353.170909 76.700948 
L 353.847273 90.585957 
L 354.523636 80.976233 
L 355.876364 83.554054 
L 356.552727 92.434793 
L 357.229091 94.187628 
L 357.905455 109.785212 
L 358.581818 144.467142 
L 359.258182 134.604225 
L 359.934545 122.245725 
L 360.610909 100.406309 
L 361.287273 93.69441 
L 361.963636 97.378014 
L 362.64 111.612799 
L 363.316364 108.138703 
L 363.992727 107.444239 
L 364.669091 114.532235 
L 365.345455 103.587184 
L 366.021818 105.514608 
L 366.698182 106.946094 
L 367.374545 125.620352 
L 368.050909 149.484421 
L 368.727273 155.372889 
L 369.403636 139.789369 
L 370.08 141.941425 
L 370.756364 149.242126 
L 371.432727 153.303278 
L 372.109091 148.070416 
L 372.785455 140.389329 
L 373.461818 121.87349 
L 374.138182 119.392654 
L 374.814545 122.220834 
L 375.490909 107.485492 
L 376.167273 88.811065 
L 376.843636 94.050697 
L 377.52 125.348391 
L 378.196364 135.708877 
L 378.872727 136.769352 
L 379.549091 129.026386 
L 380.901818 174.568228 
L 381.578182 181.283265 
L 382.254545 193.396574 
L 382.930909 161.288802 
L 383.607273 114.542659 
L 384.283636 127.708547 
L 384.96 129.636194 
L 385.636364 138.869415 
L 386.312727 161.547424 
L 386.989091 171.499707 
L 387.665455 174.290598 
L 388.341818 161.471466 
L 389.018182 150.964516 
L 389.694545 153.24557 
L 390.370909 148.667687 
L 391.047273 139.709883 
L 392.4 99.210282 
L 393.076364 126.441804 
L 393.752727 126.87433 
L 394.429091 123.821941 
L 395.781818 90.1566 
L 396.458182 120.371804 
L 397.134545 137.214092 
L 397.810909 133.793035 
L 398.487273 143.223264 
L 398.487273 143.223264 
" style="fill:none;stroke:#ff7f0e;stroke-linecap:square;stroke-width:1.5;"/>
   </g>
   <g id="line2d_17">
    <path clip-path="url(#p438aaa6e01)" d="M 73.832727 145.231465 
L 75.185455 88.118078 
L 75.861818 95.610473 
L 76.538182 94.321595 
L 77.214545 90.097901 
L 77.890909 94.535813 
L 78.567273 104.199785 
L 79.243636 103.156425 
L 79.92 90.297225 
L 80.596364 87.179197 
L 81.272727 82.399231 
L 81.949091 185.087465 
L 82.625455 189.868973 
L 83.301818 182.221358 
L 83.978182 181.589955 
L 84.654545 171.915255 
L 85.330909 99.448471 
L 86.007273 94.291479 
L 86.683636 83.867059 
L 87.36 86.842554 
L 88.036364 105.053039 
L 88.712727 93.891545 
L 89.389091 97.590993 
L 90.065455 97.821849 
L 90.741818 89.124619 
L 91.418182 98.780098 
L 92.094545 85.769635 
L 92.770909 82.749688 
L 93.447273 105.660363 
L 94.123636 104.878171 
L 94.8 114.909891 
L 95.476364 111.744406 
L 96.152727 122.518576 
L 96.829091 91.746732 
L 97.505455 91.385733 
L 98.181818 83.343653 
L 98.858182 98.625113 
L 99.534545 86.92018 
L 100.210909 88.823641 
L 100.887273 115.60938 
L 101.563636 105.599671 
L 102.24 106.350477 
L 102.916364 100.669609 
L 103.592727 101.629867 
L 104.269091 100.039282 
L 104.945455 119.07193 
L 105.621818 118.884311 
L 106.298182 122.454838 
L 106.974545 132.529744 
L 107.650909 137.17532 
L 108.327273 118.220506 
L 109.003636 113.498279 
L 109.68 101.665031 
L 110.356364 129.605103 
L 111.032727 120.661534 
L 111.709091 115.964173 
L 112.385455 117.896968 
L 113.061818 113.406346 
L 113.738182 118.597889 
L 114.414545 141.42896 
L 115.090909 126.306243 
L 115.767273 136.05167 
L 116.443636 139.325427 
L 117.12 127.368397 
L 117.796364 126.828596 
L 118.472727 120.46623 
L 119.149091 101.387231 
L 119.825455 124.410793 
L 120.501818 104.401884 
L 121.178182 105.808813 
L 121.854545 104.006311 
L 122.530909 112.376794 
L 123.207273 115.132298 
L 123.883636 124.217667 
L 124.56 134.841469 
L 125.236364 162.242849 
L 125.912727 169.844927 
L 126.589091 157.66507 
L 127.265455 169.725179 
L 127.941818 169.473353 
L 128.618182 155.24519 
L 129.294545 156.888971 
L 129.970909 148.660608 
L 130.647273 136.892015 
L 131.323636 117.187491 
L 132 113.000649 
L 132.676364 110.232177 
L 133.352727 122.700932 
L 134.029091 118.518917 
L 134.705455 125.453616 
L 135.381818 115.979996 
L 136.058182 121.347826 
L 136.734545 95.05025 
L 138.087273 127.770276 
L 138.763636 134.776188 
L 139.44 143.981279 
L 140.116364 138.11407 
L 140.792727 137.930944 
L 141.469091 138.424773 
L 142.145455 135.561347 
L 142.821818 116.945818 
L 143.498182 117.659754 
L 144.850909 96.198506 
L 145.527273 125.93088 
L 146.203636 97.201413 
L 146.88 95.63286 
L 147.556364 94.966636 
L 148.232727 108.839343 
L 148.909091 99.901202 
L 149.585455 101.060699 
L 150.261818 120.439433 
L 150.938182 120.449448 
L 151.614545 125.359362 
L 152.290909 128.811097 
L 152.967273 124.911047 
L 153.643636 109.651137 
L 154.32 104.732673 
L 154.996364 110.489327 
L 155.672727 113.551583 
L 156.349091 122.374624 
L 157.025455 149.186263 
L 157.701818 152.838238 
L 158.378182 174.134802 
L 159.054545 137.722992 
L 159.730909 131.79785 
L 160.407273 137.25977 
L 161.083636 129.542361 
L 161.76 128.712191 
L 162.436364 127.424616 
L 163.789091 112.340469 
L 164.465455 100.824782 
L 165.141818 105.077524 
L 165.818182 136.057924 
L 166.494545 132.741316 
L 167.847273 149.372848 
L 168.523636 162.177108 
L 169.2 172.24774 
L 170.552727 202.145742 
L 171.229091 198.154312 
L 171.905455 215.365672 
L 172.581818 218.09828 
L 173.258182 209.844296 
L 173.934545 224.228016 
L 174.610909 220.692569 
L 175.287273 223.869526 
L 175.963636 231.425307 
L 176.64 246.364472 
L 177.316364 244.510683 
L 177.992727 244.301803 
L 178.669091 249.598804 
L 179.345455 251.723735 
L 180.021818 257.050397 
L 180.698182 254.661136 
L 181.374545 256.824921 
L 182.050909 270.055349 
L 182.727273 269.475166 
L 183.403636 280.361 
L 184.08 277.890563 
L 184.756364 285.700801 
L 185.432727 278.718833 
L 186.109091 274.030522 
L 186.785455 281.440654 
L 188.138182 285.17383 
L 188.814545 273.182633 
L 189.490909 270.381861 
L 190.167273 266.532122 
L 190.843636 264.210432 
L 191.52 275.955103 
L 192.196364 265.943879 
L 192.872727 269.781195 
L 193.549091 272.791688 
L 194.225455 272.241129 
L 194.901818 263.216962 
L 195.578182 262.493698 
L 196.254545 263.195651 
L 196.930909 267.909233 
L 197.607273 260.048941 
L 198.283636 276.291795 
L 198.96 274.238851 
L 199.636364 276.346188 
L 200.312727 256.068802 
L 200.989091 269.862073 
L 201.665455 265.311737 
L 202.341818 276.273433 
L 203.018182 283.662388 
L 203.694545 286.721715 
L 204.370909 271.808529 
L 205.047273 245.631873 
L 205.723636 240.415777 
L 206.4 242.506043 
L 207.076364 239.377859 
L 207.752727 255.284631 
L 208.429091 250.17074 
L 209.105455 249.640599 
L 209.781818 248.077704 
L 210.458182 251.227938 
L 211.810909 266.677534 
L 212.487273 271.788871 
L 213.163636 272.063221 
L 213.84 269.386811 
L 214.516364 269.727149 
L 215.192727 275.511759 
L 215.869091 275.812762 
L 216.545455 271.266506 
L 217.221818 280.434122 
L 217.898182 279.657545 
L 218.574545 284.582875 
L 219.250909 278.122933 
L 219.927273 278.859412 
L 220.603636 272.330775 
L 221.28 274.114827 
L 221.956364 279.068032 
L 222.632727 272.974926 
L 223.309091 287.832166 
L 223.985455 280.114373 
L 224.661818 270.043681 
L 225.338182 273.116545 
L 226.014545 274.813539 
L 226.690909 282.068479 
L 227.367273 275.074945 
L 228.043636 276.381641 
L 228.72 265.091049 
L 229.396364 278.918504 
L 230.072727 257.621577 
L 230.749091 225.932006 
L 231.425455 203.095758 
L 232.101818 206.744979 
L 232.778182 241.484386 
L 233.454545 252.679973 
L 234.130909 255.458673 
L 234.807273 243.74761 
L 235.483636 246.879334 
L 236.16 245.702491 
L 236.836364 246.416063 
L 237.512727 259.187622 
L 238.189091 241.110061 
L 238.865455 215.027547 
L 239.541818 207.122122 
L 240.218182 207.250844 
L 240.894545 189.427207 
L 241.570909 181.277531 
L 242.247273 179.913492 
L 242.923636 167.134345 
L 243.6 144.179396 
L 244.276364 137.949377 
L 244.952727 136.163506 
L 245.629091 106.606122 
L 246.305455 124.209342 
L 246.981818 129.834305 
L 247.658182 128.858186 
L 248.334545 130.189976 
L 249.010909 110.253911 
L 249.687273 102.067255 
L 250.363636 96.615315 
L 251.04 93.135697 
L 251.716364 99.363802 
L 252.392727 76.915372 
L 253.069091 120.5144 
L 253.745455 87.53156 
L 254.421818 82.705147 
L 255.098182 73.242039 
L 255.774545 93.988164 
L 256.450909 86.162835 
L 257.127273 79.8345 
L 257.803636 78.958738 
L 258.48 80.746388 
L 259.156364 71.712109 
L 259.832727 77.114439 
L 260.509091 64.913665 
L 261.185455 88.498335 
L 261.861818 63.813298 
L 262.538182 76.675401 
L 263.214545 62.343839 
L 263.890909 76.72949 
L 264.567273 64.532205 
L 265.243636 62.685855 
L 265.92 85.425286 
L 266.596364 61.41781 
L 267.272727 68.465195 
L 267.949091 68.059313 
L 268.625455 80.182766 
L 269.301818 86.768801 
L 269.978182 78.771738 
L 270.654545 93.538143 
L 271.330909 67.940327 
L 272.007273 79.771584 
L 272.683636 84.419215 
L 273.36 87.458274 
L 274.036364 80.550649 
L 274.712727 79.883522 
L 275.389091 81.927998 
L 276.065455 89.17779 
L 276.741818 81.189575 
L 277.418182 80.612273 
L 278.094545 82.215247 
L 278.770909 82.243722 
L 279.447273 80.898603 
L 280.123636 80.268333 
L 280.8 79.370071 
L 281.476364 80.588719 
L 282.152727 99.362171 
L 282.829091 85.834523 
L 283.505455 85.780733 
L 284.181818 104.915422 
L 284.858182 70.923715 
L 285.534545 93.480578 
L 286.210909 103.559764 
L 287.563636 79.333093 
L 288.24 80.62713 
L 288.916364 84.923825 
L 289.592727 178.77579 
L 290.945455 190.651906 
L 291.621818 191.250322 
L 292.298182 188.883234 
L 292.974545 181.017559 
L 293.650909 62.28845 
L 294.327273 67.632524 
L 295.003636 89.053565 
L 295.68 63.917145 
L 296.356364 77.834742 
L 297.032727 75.221246 
L 297.709091 75.932297 
L 298.385455 72.940777 
L 299.061818 71.298764 
L 299.738182 75.528124 
L 300.414545 89.431649 
L 301.090909 80.339308 
L 301.767273 92.753303 
L 302.443636 79.040913 
L 303.12 72.409882 
L 303.796364 79.541984 
L 304.472727 75.391027 
L 305.149091 78.923555 
L 305.825455 78.707375 
L 306.501818 75.130542 
L 307.178182 76.231157 
L 307.854545 78.4734 
L 308.530909 93.585621 
L 309.207273 65.44125 
L 309.883636 113.630067 
L 310.56 106.60107 
L 311.236364 109.386861 
L 311.912727 139.601634 
L 312.589091 119.899005 
L 313.265455 115.122272 
L 313.941818 84.266583 
L 314.618182 83.852624 
L 315.294545 77.016228 
L 315.970909 77.732577 
L 316.647273 84.070986 
L 317.323636 69.595688 
L 318 76.34912 
L 318.676364 90.980577 
L 319.352727 109.31356 
L 320.029091 77.485735 
L 320.705455 86.226644 
L 321.381818 69.35141 
L 322.058182 89.384613 
L 322.734545 64.373711 
L 323.410909 80.792488 
L 324.087273 88.675782 
L 324.763636 73.076942 
L 325.44 87.924446 
L 326.116364 68.565977 
L 326.792727 86.582086 
L 327.469091 65.151388 
L 328.145455 83.634003 
L 328.821818 76.164918 
L 329.498182 82.48576 
L 330.174545 96.701631 
L 330.850909 104.040845 
L 331.527273 101.586974 
L 332.203636 116.490367 
L 332.88 136.903998 
L 334.232727 146.296218 
L 334.909091 165.925785 
L 335.585455 173.527051 
L 336.261818 184.135411 
L 336.938182 177.403095 
L 337.614545 164.1519 
L 338.290909 161.318092 
L 338.967273 156.43929 
L 339.643636 157.460135 
L 340.32 157.508558 
L 340.996364 136.401025 
L 341.672727 140.338845 
L 342.349091 109.593516 
L 343.025455 120.235948 
L 343.701818 122.15037 
L 344.378182 137.150867 
L 345.730909 203.884024 
L 346.407273 222.807606 
L 347.083636 229.128909 
L 347.76 238.328982 
L 349.112727 226.999233 
L 349.789091 227.344023 
L 350.465455 238.422037 
L 351.141818 241.135445 
L 351.818182 248.080846 
L 352.494545 248.975976 
L 353.170909 255.028839 
L 353.847273 238.036574 
L 354.523636 250.715108 
L 355.2 248.35683 
L 355.876364 251.811126 
L 356.552727 245.116107 
L 357.229091 243.612125 
L 357.905455 236.783175 
L 358.581818 208.859183 
L 359.934545 228.875364 
L 360.610909 247.567312 
L 361.287273 257.712305 
L 361.963636 253.076831 
L 362.64 234.855365 
L 363.316364 225.976233 
L 363.992727 235.97301 
L 364.669091 236.933209 
L 365.345455 236.555809 
L 366.021818 231.899405 
L 366.698182 233.373461 
L 368.050909 197.694201 
L 368.727273 200.792856 
L 369.403636 215.482309 
L 370.08 218.383312 
L 370.756364 211.658911 
L 371.432727 210.259632 
L 372.109091 214.526462 
L 372.785455 220.644552 
L 373.461818 233.007444 
L 374.138182 227.984677 
L 374.814545 223.882873 
L 375.490909 251.568844 
L 376.167273 263.708483 
L 376.843636 258.314241 
L 378.196364 228.195231 
L 378.872727 219.284676 
L 379.549091 227.764756 
L 380.901818 196.028175 
L 381.578182 189.45257 
L 382.254545 166.214492 
L 383.607273 208.433225 
L 384.283636 201.967918 
L 384.96 196.821245 
L 385.636364 197.638958 
L 386.312727 178.275283 
L 386.989091 170.603646 
L 387.665455 173.142793 
L 389.018182 193.733628 
L 389.694545 200.927125 
L 391.047273 211.335019 
L 392.4 251.398909 
L 393.076364 231.778593 
L 393.752727 233.391646 
L 394.429091 237.504997 
L 395.781818 255.172028 
L 396.458182 245.536123 
L 397.134545 229.618202 
L 397.810909 225.665272 
L 398.487273 222.976863 
L 398.487273 222.976863 
" style="fill:none;stroke:#2ca02c;stroke-linecap:square;stroke-width:1.5;"/>
   </g>
   <g id="line2d_18">
    <path clip-path="url(#p438aaa6e01)" d="M 73.832727 159.176513 
L 74.509091 208.099919 
L 75.185455 237.154927 
L 75.861818 227.644346 
L 76.538182 247.751006 
L 77.214545 264.401765 
L 77.890909 273.494903 
L 78.567273 266.373223 
L 79.243636 264.844343 
L 79.92 260.542606 
L 80.596364 212.741386 
L 81.272727 214.698723 
L 81.949091 226.627286 
L 82.625455 231.485739 
L 83.301818 230.588207 
L 83.978182 228.957724 
L 84.654545 223.660891 
L 85.330909 187.112127 
L 86.007273 193.280038 
L 86.683636 209.172236 
L 87.36 202.431441 
L 88.036364 186.857945 
L 88.712727 193.40788 
L 89.389091 190.738472 
L 90.065455 191.751552 
L 90.741818 204.985588 
L 91.418182 208.710387 
L 92.770909 245.895977 
L 93.447273 248.536592 
L 94.123636 260.9849 
L 94.8 258.175648 
L 95.476364 266.151244 
L 96.152727 250.304286 
L 96.829091 268.556963 
L 97.505455 254.562695 
L 98.181818 225.346057 
L 98.858182 209.096153 
L 99.534545 233.902472 
L 100.210909 232.654954 
L 100.887273 231.118344 
L 101.563636 237.853033 
L 102.24 221.397956 
L 102.916364 230.883312 
L 103.592727 204.193302 
L 104.269091 194.770488 
L 104.945455 206.42644 
L 105.621818 204.540664 
L 106.298182 223.870281 
L 106.974545 228.379784 
L 107.650909 215.095902 
L 108.327273 247.632115 
L 109.003636 240.833063 
L 109.68 232.172374 
L 110.356364 234.41135 
L 111.032727 239.185802 
L 111.709091 235.459242 
L 113.061818 207.216422 
L 113.738182 184.926542 
L 114.414545 186.983975 
L 115.090909 219.604355 
L 115.767273 225.454236 
L 116.443636 241.699462 
L 117.796364 258.406778 
L 118.472727 244.987882 
L 119.149091 256.607901 
L 119.825455 228.98003 
L 120.501818 230.421498 
L 121.178182 215.701294 
L 121.854545 195.779883 
L 122.530909 196.589894 
L 123.207273 203.197466 
L 123.883636 236.233876 
L 124.56 236.726648 
L 125.236364 241.987647 
L 125.912727 243.424042 
L 126.589091 241.520435 
L 127.265455 249.375059 
L 127.941818 235.906748 
L 128.618182 249.236282 
L 129.294545 257.934614 
L 129.970909 253.708675 
L 130.647273 246.31211 
L 131.323636 256.000424 
L 132 247.281024 
L 132.676364 236.062178 
L 133.352727 240.002831 
L 134.029091 239.968174 
L 134.705455 222.887814 
L 135.381818 230.20713 
L 136.058182 205.489368 
L 136.734545 240.70405 
L 137.410909 260.486966 
L 138.087273 254.405314 
L 138.763636 250.737184 
L 139.44 237.618939 
L 140.116364 251.451468 
L 141.469091 260.787677 
L 142.145455 261.610829 
L 142.821818 266.926532 
L 143.498182 263.046787 
L 144.174545 246.303296 
L 144.850909 246.532114 
L 145.527273 236.695358 
L 146.203636 250.823925 
L 146.88 239.299428 
L 147.556364 234.546824 
L 148.232727 190.76888 
L 148.909091 195.615801 
L 149.585455 204.599117 
L 150.261818 197.108267 
L 150.938182 214.508355 
L 151.614545 216.100654 
L 152.290909 212.312509 
L 152.967273 218.861096 
L 153.643636 209.766125 
L 154.32 208.230431 
L 154.996364 219.201678 
L 155.672727 220.133086 
L 157.025455 167.476505 
L 157.701818 162.120518 
L 158.378182 148.701555 
L 159.054545 174.95235 
L 159.730909 191.182554 
L 160.407273 189.468743 
L 161.083636 197.762907 
L 161.76 187.428954 
L 162.436364 203.871099 
L 163.112727 209.990372 
L 163.789091 211.870098 
L 164.465455 239.624228 
L 165.141818 251.273987 
L 165.818182 248.496531 
L 166.494545 257.9073 
L 167.170909 265.339427 
L 168.523636 254.312807 
L 169.2 254.458187 
L 169.876364 240.845383 
L 170.552727 234.0354 
L 171.229091 228.746881 
L 171.905455 218.442818 
L 172.581818 224.608444 
L 173.934545 209.658496 
L 174.610909 216.854244 
L 175.287273 212.440389 
L 175.963636 206.262186 
L 176.64 189.635683 
L 177.316364 191.666902 
L 177.992727 195.715612 
L 178.669091 182.801149 
L 180.021818 170.220423 
L 180.698182 182.122073 
L 181.374545 172.697935 
L 182.050909 149.848418 
L 183.403636 133.34128 
L 184.08 139.621373 
L 184.756364 110.80011 
L 185.432727 119.949989 
L 186.109091 121.406471 
L 187.461818 112.886247 
L 188.138182 117.631935 
L 188.814545 135.767347 
L 189.490909 139.368488 
L 190.167273 147.542755 
L 190.843636 151.775236 
L 191.52 135.132681 
L 192.196364 136.294332 
L 193.549091 129.693312 
L 194.225455 129.888226 
L 194.901818 115.791102 
L 195.578182 114.466168 
L 196.254545 117.163976 
L 196.930909 105.248231 
L 197.607273 108.443133 
L 198.283636 113.21686 
L 198.96 114.251382 
L 199.636364 116.651029 
L 200.312727 126.508163 
L 200.989091 82.849918 
L 201.665455 96.594732 
L 202.341818 94.149859 
L 203.018182 90.892522 
L 203.694545 94.599171 
L 204.370909 90.991158 
L 205.047273 96.200017 
L 205.723636 98.463234 
L 206.4 96.092139 
L 207.076364 90.394697 
L 207.752727 71.534281 
L 208.429091 75.621229 
L 209.105455 78.781911 
L 209.781818 79.392952 
L 210.458182 79.53979 
L 211.810909 102.879341 
L 212.487273 101.113253 
L 213.163636 107.252983 
L 213.84 105.769238 
L 214.516364 86.10697 
L 215.192727 82.977933 
L 215.869091 86.032112 
L 216.545455 92.075671 
L 217.221818 82.603302 
L 217.898182 79.910171 
L 218.574545 83.516503 
L 219.250909 93.366802 
L 219.927273 98.207197 
L 220.603636 98.372924 
L 221.28 69.493376 
L 221.956364 75.82647 
L 222.632727 94.292746 
L 223.309091 88.901642 
L 223.985455 97.127833 
L 224.661818 95.075052 
L 225.338182 76.901849 
L 226.014545 77.372655 
L 226.690909 74.925706 
L 227.367273 87.265375 
L 228.043636 73.879786 
L 228.72 83.958478 
L 229.396364 77.159139 
L 230.072727 95.370385 
L 230.749091 108.706368 
L 231.425455 97.495103 
L 232.101818 90.253681 
L 232.778182 64.705588 
L 233.454545 77.191513 
L 234.130909 71.931268 
L 234.807273 79.618625 
L 235.483636 82.954772 
L 236.16 88.915817 
L 236.836364 100.297205 
L 237.512727 107.806754 
L 238.189091 128.987252 
L 238.865455 153.983785 
L 239.541818 165.331068 
L 240.218182 167.515599 
L 241.570909 194.51316 
L 242.247273 200.3703 
L 242.923636 200.840421 
L 243.6 187.394476 
L 244.276364 180.784406 
L 244.952727 185.345629 
L 245.629091 226.769659 
L 246.305455 220.175461 
L 246.981818 227.70811 
L 247.658182 245.312535 
L 248.334545 237.327637 
L 249.010909 247.837989 
L 249.687273 234.038391 
L 250.363636 228.236686 
L 251.04 219.791871 
L 251.716364 240.459894 
L 252.392727 246.371202 
L 253.069091 216.909634 
L 253.745455 237.522607 
L 254.421818 211.604956 
L 255.098182 226.725042 
L 255.774545 202.628887 
L 256.450909 218.59082 
L 257.127273 229.480367 
L 257.803636 225.066682 
L 258.48 238.802792 
L 259.156364 245.557421 
L 259.832727 244.963759 
L 260.509091 247.17365 
L 261.185455 227.535133 
L 261.861818 226.770776 
L 262.538182 208.126053 
L 263.214545 222.303951 
L 263.890909 207.740487 
L 264.567273 217.733104 
L 265.243636 220.768707 
L 265.92 220.610675 
L 266.596364 237.945363 
L 267.272727 236.239972 
L 267.949091 245.787286 
L 268.625455 219.962179 
L 269.301818 216.191224 
L 269.978182 204.654982 
L 270.654545 210.286976 
L 271.330909 231.765411 
L 272.007273 236.921023 
L 272.683636 246.068733 
L 273.36 243.235008 
L 274.036364 251.222581 
L 274.712727 247.998228 
L 276.065455 240.161631 
L 276.741818 247.356297 
L 277.418182 245.003805 
L 278.094545 246.891669 
L 278.770909 247.638035 
L 279.447273 252.958889 
L 280.123636 254.212998 
L 280.8 252.369167 
L 281.476364 249.549036 
L 282.152727 226.81532 
L 282.829091 227.900946 
L 283.505455 214.222084 
L 284.181818 204.979232 
L 284.858182 231.407143 
L 285.534545 238.61958 
L 286.210909 236.909559 
L 286.887273 250.507001 
L 287.563636 259.380739 
L 288.24 257.200152 
L 288.916364 258.302868 
L 289.592727 236.818466 
L 290.269091 233.390687 
L 290.945455 234.340924 
L 291.621818 232.362183 
L 292.298182 233.66127 
L 292.974545 230.698121 
L 293.650909 255.323899 
L 294.327273 246.960155 
L 295.003636 230.208395 
L 296.356364 218.275049 
L 297.032727 224.123538 
L 297.709091 207.914892 
L 298.385455 207.518046 
L 299.061818 206.096884 
L 299.738182 200.844058 
L 300.414545 197.948402 
L 301.090909 199.837734 
L 301.767273 188.53019 
L 302.443636 203.70005 
L 303.12 202.056337 
L 303.796364 208.354395 
L 304.472727 208.771735 
L 305.149091 203.753589 
L 305.825455 205.638627 
L 307.854545 218.034708 
L 308.530909 213.288389 
L 309.207273 220.292533 
L 309.883636 179.695286 
L 310.56 183.707751 
L 311.236364 157.940328 
L 311.912727 164.26301 
L 312.589091 197.490017 
L 313.265455 203.154533 
L 313.941818 243.036576 
L 314.618182 233.030603 
L 315.294545 213.536116 
L 315.970909 208.882037 
L 316.647273 211.217273 
L 317.323636 235.892981 
L 318 241.831384 
L 318.676364 250.058232 
L 319.352727 237.443923 
L 320.029091 255.321917 
L 320.705455 241.147056 
L 321.381818 232.116523 
L 322.058182 210.190086 
L 322.734545 228.431891 
L 323.410909 226.18858 
L 324.087273 250.142352 
L 324.763636 254.394973 
L 325.44 247.610086 
L 326.116364 254.334029 
L 326.792727 227.818088 
L 327.469091 213.768742 
L 328.145455 197.017582 
L 328.821818 210.329719 
L 329.498182 210.140201 
L 330.174545 215.312877 
L 330.850909 224.811818 
L 331.527273 216.674413 
L 332.203636 194.703772 
L 332.88 168.797904 
L 333.556364 175.898331 
L 334.232727 165.368993 
L 334.909091 167.956329 
L 335.585455 186.494343 
L 336.261818 172.921063 
L 336.938182 198.889893 
L 337.614545 209.845571 
L 338.290909 215.74396 
L 338.967273 228.632374 
L 339.643636 227.87083 
L 340.32 221.876617 
L 340.996364 240.824482 
L 341.672727 228.524581 
L 342.349091 245.386143 
L 343.025455 224.050147 
L 343.701818 254.841295 
L 344.378182 254.608417 
L 345.054545 221.54932 
L 346.407273 186.123938 
L 347.083636 176.806931 
L 347.76 172.269486 
L 349.112727 181.669551 
L 349.789091 187.642841 
L 350.465455 166.586059 
L 351.141818 139.063537 
L 351.818182 128.486043 
L 352.494545 127.886643 
L 353.170909 96.04358 
L 354.523636 66.093301 
L 355.2 70.495903 
L 355.876364 60.518166 
L 356.552727 58.44385 
L 357.229091 63.036774 
L 357.905455 62.715351 
L 358.581818 74.68099 
L 359.258182 75.634365 
L 359.934545 78.166946 
L 360.610909 62.196496 
L 361.287273 60.494572 
L 361.963636 59.734323 
L 362.64 56.807225 
L 363.316364 67.486468 
L 363.992727 56.549028 
L 365.345455 62.090697 
L 366.021818 62.843622 
L 366.698182 60.33412 
L 367.374545 68.393863 
L 368.050909 72.497104 
L 368.727273 74.187442 
L 369.403636 63.666288 
L 370.08 64.80821 
L 371.432727 72.374562 
L 372.109091 71.369081 
L 372.785455 64.270744 
L 373.461818 59.246715 
L 374.138182 67.801631 
L 375.490909 69.75376 
L 376.167273 65.045385 
L 376.843636 73.121564 
L 377.52 83.162058 
L 378.196364 64.807562 
L 378.872727 63.012837 
L 379.549091 59.278821 
L 380.225455 75.554179 
L 380.901818 85.519288 
L 381.578182 91.693886 
L 382.254545 99.375903 
L 382.930909 91.957906 
L 383.607273 95.958237 
L 384.283636 110.558545 
L 384.96 117.152462 
L 385.636364 96.882129 
L 386.312727 97.689906 
L 387.665455 89.589971 
L 389.018182 72.612578 
L 389.694545 68.046851 
L 390.370909 77.077765 
L 391.047273 74.52716 
L 391.723636 62.420123 
L 392.4 55.300324 
L 393.076364 72.579184 
L 393.752727 64.527679 
L 394.429091 73.24017 
L 395.105455 73.103604 
L 395.781818 69.013283 
L 396.458182 76.016942 
L 397.134545 79.336852 
L 397.810909 67.604538 
L 398.487273 181.834819 
L 398.487273 181.834819 
" style="fill:none;stroke:#d62728;stroke-linecap:square;stroke-width:1.5;"/>
   </g>
   <g id="patch_3">
    <path d="M 57.6 307.584 
L 57.6 41.472 
" style="fill:none;stroke:#000000;stroke-linecap:square;stroke-linejoin:miter;stroke-width:0.8;"/>
   </g>
   <g id="patch_4">
    <path d="M 414.72 307.584 
L 414.72 41.472 
" style="fill:none;stroke:#000000;stroke-linecap:square;stroke-linejoin:miter;stroke-width:0.8;"/>
   </g>
   <g id="patch_5">
    <path d="M 57.6 307.584 
L 414.72 307.584 
" style="fill:none;stroke:#000000;stroke-linecap:square;stroke-linejoin:miter;stroke-width:0.8;"/>
   </g>
   <g id="patch_6">
    <path d="M 57.6 41.472 
L 414.72 41.472 
" style="fill:none;stroke:#000000;stroke-linecap:square;stroke-linejoin:miter;stroke-width:0.8;"/>
   </g>
  </g>
 </g>
 <defs>
  <clipPath id="p438aaa6e01">
   <rect height="266.112" width="357.12" x="57.6" y="41.472"/>
  </clipPath>
 </defs>
</svg>
