<?xml version="1.0" encoding="utf-8" standalone="no"?>
<!DOCTYPE svg PUBLIC "-//W3C//DTD SVG 1.1//EN"
  "http://www.w3.org/Graphics/SVG/1.1/DTD/svg11.dtd">
<svg height="345.6pt" version="1.1" viewBox="0 0 460.8 345.6" width="460.8pt" xmlns="http://www.w3.org/2000/svg" xmlns:xlink="http://www.w3.org/1999/xlink">
 <metadata>
  <rdf:RDF xmlns:cc="http://creativecommons.org/ns#" xmlns:dc="http://purl.org/dc/elements/1.1/" xmlns:rdf="http://www.w3.org/1999/02/22-rdf-syntax-ns#">
   <cc:Work>
    <dc:type rdf:resource="http://purl.org/dc/dcmitype/StillImage"/>
    <dc:date>2022-05-20T23:50:07.989034</dc:date>
    <dc:format>image/svg+xml</dc:format>
    <dc:creator>
     <cc:Agent>
      <dc:title>Matplotlib v3.4.2, https://matplotlib.org/</dc:title>
     </cc:Agent>
    </dc:creator>
   </cc:Work>
  </rdf:RDF>
 </metadata>
 <defs>
  <style type="text/css">*{stroke-linecap:butt;stroke-linejoin:round;}</style>
 </defs>
 <g id="figure_1">
  <g id="patch_1">
   <path d="M 0 345.6 
L 460.8 345.6 
L 460.8 0 
L 0 0 
z
" style="fill:#ffffff;"/>
  </g>
  <g id="axes_1">
   <g id="patch_2">
    <path d="M 57.6 307.584 
L 414.72 307.584 
L 414.72 41.472 
L 57.6 41.472 
z
" style="fill:#ffffff;"/>
   </g>
   <g id="matplotlib.axis_1">
    <g id="xtick_1">
     <g id="line2d_1">
      <defs>
       <path d="M 0 0 
L 0 3.5 
" id="mbdf9dfd8fd" style="stroke:#000000;stroke-width:0.8;"/>
      </defs>
      <g>
       <use style="stroke:#000000;stroke-width:0.8;" x="73.832727" xlink:href="#mbdf9dfd8fd" y="307.584"/>
      </g>
     </g>
     <g id="text_1">
      <!-- 0 -->
      <g transform="translate(70.651477 322.182437)scale(0.1 -0.1)">
       <defs>
        <path d="M 2034 4250 
Q 1547 4250 1301 3770 
Q 1056 3291 1056 2328 
Q 1056 1369 1301 889 
Q 1547 409 2034 409 
Q 2525 409 2770 889 
Q 3016 1369 3016 2328 
Q 3016 3291 2770 3770 
Q 2525 4250 2034 4250 
z
M 2034 4750 
Q 2819 4750 3233 4129 
Q 3647 3509 3647 2328 
Q 3647 1150 3233 529 
Q 2819 -91 2034 -91 
Q 1250 -91 836 529 
Q 422 1150 422 2328 
Q 422 3509 836 4129 
Q 1250 4750 2034 4750 
z
" id="DejaVuSans-30" transform="scale(0.015625)"/>
       </defs>
       <use xlink:href="#DejaVuSans-30"/>
      </g>
     </g>
    </g>
    <g id="xtick_2">
     <g id="line2d_2">
      <g>
       <use style="stroke:#000000;stroke-width:0.8;" x="152.632374" xlink:href="#mbdf9dfd8fd" y="307.584"/>
      </g>
     </g>
     <g id="text_2">
      <!-- 200 -->
      <g transform="translate(143.088624 322.182437)scale(0.1 -0.1)">
       <defs>
        <path d="M 1228 531 
L 3431 531 
L 3431 0 
L 469 0 
L 469 531 
Q 828 903 1448 1529 
Q 2069 2156 2228 2338 
Q 2531 2678 2651 2914 
Q 2772 3150 2772 3378 
Q 2772 3750 2511 3984 
Q 2250 4219 1831 4219 
Q 1534 4219 1204 4116 
Q 875 4013 500 3803 
L 500 4441 
Q 881 4594 1212 4672 
Q 1544 4750 1819 4750 
Q 2544 4750 2975 4387 
Q 3406 4025 3406 3419 
Q 3406 3131 3298 2873 
Q 3191 2616 2906 2266 
Q 2828 2175 2409 1742 
Q 1991 1309 1228 531 
z
" id="DejaVuSans-32" transform="scale(0.015625)"/>
       </defs>
       <use xlink:href="#DejaVuSans-32"/>
       <use x="63.623047" xlink:href="#DejaVuSans-30"/>
       <use x="127.246094" xlink:href="#DejaVuSans-30"/>
      </g>
     </g>
    </g>
    <g id="xtick_3">
     <g id="line2d_3">
      <g>
       <use style="stroke:#000000;stroke-width:0.8;" x="231.432021" xlink:href="#mbdf9dfd8fd" y="307.584"/>
      </g>
     </g>
     <g id="text_3">
      <!-- 400 -->
      <g transform="translate(221.888271 322.182437)scale(0.1 -0.1)">
       <defs>
        <path d="M 2419 4116 
L 825 1625 
L 2419 1625 
L 2419 4116 
z
M 2253 4666 
L 3047 4666 
L 3047 1625 
L 3713 1625 
L 3713 1100 
L 3047 1100 
L 3047 0 
L 2419 0 
L 2419 1100 
L 313 1100 
L 313 1709 
L 2253 4666 
z
" id="DejaVuSans-34" transform="scale(0.015625)"/>
       </defs>
       <use xlink:href="#DejaVuSans-34"/>
       <use x="63.623047" xlink:href="#DejaVuSans-30"/>
       <use x="127.246094" xlink:href="#DejaVuSans-30"/>
      </g>
     </g>
    </g>
    <g id="xtick_4">
     <g id="line2d_4">
      <g>
       <use style="stroke:#000000;stroke-width:0.8;" x="310.231668" xlink:href="#mbdf9dfd8fd" y="307.584"/>
      </g>
     </g>
     <g id="text_4">
      <!-- 600 -->
      <g transform="translate(300.687918 322.182437)scale(0.1 -0.1)">
       <defs>
        <path d="M 2113 2584 
Q 1688 2584 1439 2293 
Q 1191 2003 1191 1497 
Q 1191 994 1439 701 
Q 1688 409 2113 409 
Q 2538 409 2786 701 
Q 3034 994 3034 1497 
Q 3034 2003 2786 2293 
Q 2538 2584 2113 2584 
z
M 3366 4563 
L 3366 3988 
Q 3128 4100 2886 4159 
Q 2644 4219 2406 4219 
Q 1781 4219 1451 3797 
Q 1122 3375 1075 2522 
Q 1259 2794 1537 2939 
Q 1816 3084 2150 3084 
Q 2853 3084 3261 2657 
Q 3669 2231 3669 1497 
Q 3669 778 3244 343 
Q 2819 -91 2113 -91 
Q 1303 -91 875 529 
Q 447 1150 447 2328 
Q 447 3434 972 4092 
Q 1497 4750 2381 4750 
Q 2619 4750 2861 4703 
Q 3103 4656 3366 4563 
z
" id="DejaVuSans-36" transform="scale(0.015625)"/>
       </defs>
       <use xlink:href="#DejaVuSans-36"/>
       <use x="63.623047" xlink:href="#DejaVuSans-30"/>
       <use x="127.246094" xlink:href="#DejaVuSans-30"/>
      </g>
     </g>
    </g>
    <g id="xtick_5">
     <g id="line2d_5">
      <g>
       <use style="stroke:#000000;stroke-width:0.8;" x="389.031315" xlink:href="#mbdf9dfd8fd" y="307.584"/>
      </g>
     </g>
     <g id="text_5">
      <!-- 800 -->
      <g transform="translate(379.487565 322.182437)scale(0.1 -0.1)">
       <defs>
        <path d="M 2034 2216 
Q 1584 2216 1326 1975 
Q 1069 1734 1069 1313 
Q 1069 891 1326 650 
Q 1584 409 2034 409 
Q 2484 409 2743 651 
Q 3003 894 3003 1313 
Q 3003 1734 2745 1975 
Q 2488 2216 2034 2216 
z
M 1403 2484 
Q 997 2584 770 2862 
Q 544 3141 544 3541 
Q 544 4100 942 4425 
Q 1341 4750 2034 4750 
Q 2731 4750 3128 4425 
Q 3525 4100 3525 3541 
Q 3525 3141 3298 2862 
Q 3072 2584 2669 2484 
Q 3125 2378 3379 2068 
Q 3634 1759 3634 1313 
Q 3634 634 3220 271 
Q 2806 -91 2034 -91 
Q 1263 -91 848 271 
Q 434 634 434 1313 
Q 434 1759 690 2068 
Q 947 2378 1403 2484 
z
M 1172 3481 
Q 1172 3119 1398 2916 
Q 1625 2713 2034 2713 
Q 2441 2713 2670 2916 
Q 2900 3119 2900 3481 
Q 2900 3844 2670 4047 
Q 2441 4250 2034 4250 
Q 1625 4250 1398 4047 
Q 1172 3844 1172 3481 
z
" id="DejaVuSans-38" transform="scale(0.015625)"/>
       </defs>
       <use xlink:href="#DejaVuSans-38"/>
       <use x="63.623047" xlink:href="#DejaVuSans-30"/>
       <use x="127.246094" xlink:href="#DejaVuSans-30"/>
      </g>
     </g>
    </g>
   </g>
   <g id="matplotlib.axis_2">
    <g id="ytick_1">
     <g id="line2d_6">
      <defs>
       <path d="M 0 0 
L -3.5 0 
" id="mb34dd841b1" style="stroke:#000000;stroke-width:0.8;"/>
      </defs>
      <g>
       <use style="stroke:#000000;stroke-width:0.8;" x="57.6" xlink:href="#mb34dd841b1" y="286.426606"/>
      </g>
     </g>
     <g id="text_6">
      <!-- −4000 -->
      <g transform="translate(16.770313 290.225824)scale(0.1 -0.1)">
       <defs>
        <path d="M 678 2272 
L 4684 2272 
L 4684 1741 
L 678 1741 
L 678 2272 
z
" id="DejaVuSans-2212" transform="scale(0.015625)"/>
       </defs>
       <use xlink:href="#DejaVuSans-2212"/>
       <use x="83.789062" xlink:href="#DejaVuSans-34"/>
       <use x="147.412109" xlink:href="#DejaVuSans-30"/>
       <use x="211.035156" xlink:href="#DejaVuSans-30"/>
       <use x="274.658203" xlink:href="#DejaVuSans-30"/>
      </g>
     </g>
    </g>
    <g id="ytick_2">
     <g id="line2d_7">
      <g>
       <use style="stroke:#000000;stroke-width:0.8;" x="57.6" xlink:href="#mb34dd841b1" y="229.725985"/>
      </g>
     </g>
     <g id="text_7">
      <!-- −2000 -->
      <g transform="translate(16.770313 233.525203)scale(0.1 -0.1)">
       <use xlink:href="#DejaVuSans-2212"/>
       <use x="83.789062" xlink:href="#DejaVuSans-32"/>
       <use x="147.412109" xlink:href="#DejaVuSans-30"/>
       <use x="211.035156" xlink:href="#DejaVuSans-30"/>
       <use x="274.658203" xlink:href="#DejaVuSans-30"/>
      </g>
     </g>
    </g>
    <g id="ytick_3">
     <g id="line2d_8">
      <g>
       <use style="stroke:#000000;stroke-width:0.8;" x="57.6" xlink:href="#mb34dd841b1" y="173.025364"/>
      </g>
     </g>
     <g id="text_8">
      <!-- 0 -->
      <g transform="translate(44.2375 176.824582)scale(0.1 -0.1)">
       <use xlink:href="#DejaVuSans-30"/>
      </g>
     </g>
    </g>
    <g id="ytick_4">
     <g id="line2d_9">
      <g>
       <use style="stroke:#000000;stroke-width:0.8;" x="57.6" xlink:href="#mb34dd841b1" y="116.324743"/>
      </g>
     </g>
     <g id="text_9">
      <!-- 2000 -->
      <g transform="translate(25.15 120.123961)scale(0.1 -0.1)">
       <use xlink:href="#DejaVuSans-32"/>
       <use x="63.623047" xlink:href="#DejaVuSans-30"/>
       <use x="127.246094" xlink:href="#DejaVuSans-30"/>
       <use x="190.869141" xlink:href="#DejaVuSans-30"/>
      </g>
     </g>
    </g>
    <g id="ytick_5">
     <g id="line2d_10">
      <g>
       <use style="stroke:#000000;stroke-width:0.8;" x="57.6" xlink:href="#mb34dd841b1" y="59.624122"/>
      </g>
     </g>
     <g id="text_10">
      <!-- 4000 -->
      <g transform="translate(25.15 63.42334)scale(0.1 -0.1)">
       <use xlink:href="#DejaVuSans-34"/>
       <use x="63.623047" xlink:href="#DejaVuSans-30"/>
       <use x="127.246094" xlink:href="#DejaVuSans-30"/>
       <use x="190.869141" xlink:href="#DejaVuSans-30"/>
      </g>
     </g>
    </g>
   </g>
   <g id="line2d_11">
    <path clip-path="url(#p3b4da3cd78)" d="M 73.832727 109.906769 
L 74.226726 109.962289 
L 74.620724 105.787183 
L 75.014722 92.690993 
L 75.802718 56.22562 
L 76.196717 58.879218 
L 76.590715 57.220104 
L 76.984713 60.163689 
L 77.378711 61.006953 
L 77.77271 61.483038 
L 78.166708 70.204761 
L 78.560706 68.989646 
L 78.954704 69.0792 
L 79.348703 67.298551 
L 79.742701 71.745885 
L 80.136699 66.84956 
L 80.530697 71.974432 
L 80.924695 67.487238 
L 81.318694 71.037642 
L 81.712692 67.382217 
L 82.10669 68.296036 
L 82.500688 72.634831 
L 82.894687 69.166111 
L 83.288685 71.956433 
L 83.682683 68.735835 
L 84.076681 72.537283 
L 84.47068 69.026637 
L 84.864678 72.350361 
L 85.258676 68.916497 
L 85.652674 68.01254 
L 86.440671 74.855599 
L 86.834669 75.794473 
L 87.228667 78.279002 
L 87.622665 77.852249 
L 88.016664 83.114072 
L 88.410662 79.365027 
L 88.80466 81.818168 
L 89.198658 81.242638 
L 89.592657 81.681554 
L 89.986655 81.040046 
L 90.380653 81.062017 
L 90.774651 80.277694 
L 91.16865 79.928917 
L 91.562648 75.490875 
L 91.956646 73.437404 
L 92.350644 73.023262 
L 92.744643 71.270508 
L 93.138641 78.348803 
L 93.532639 70.723603 
L 94.320635 84.009117 
L 94.714634 96.626359 
L 95.108632 123.334894 
L 96.290627 247.166806 
L 96.684625 267.240549 
L 97.078623 279.020203 
L 97.472621 286.103621 
L 97.86662 290.16067 
L 98.260618 292.84793 
L 98.654616 292.67759 
L 99.048614 290.549112 
L 99.836611 280.983862 
L 100.230609 275.997954 
L 101.018605 278.959819 
L 101.412604 279.255188 
L 101.806602 278.513705 
L 102.2006 277.53106 
L 102.594598 276.007255 
L 102.988597 273.678221 
L 103.382595 267.328861 
L 103.776593 256.846986 
L 104.170591 238.294754 
L 105.352586 153.149906 
L 105.746584 137.423274 
L 106.140583 129.004541 
L 106.534581 125.940084 
L 106.928579 147.016409 
L 107.322577 154.784698 
L 107.716575 157.171296 
L 108.110574 157.031075 
L 108.504572 153.824862 
L 108.89857 148.833736 
L 110.080565 117.983925 
L 110.474563 115.003848 
L 110.868561 121.062458 
L 111.26256 133.584004 
L 111.656558 138.434053 
L 112.050556 120.439754 
L 112.444554 116.631103 
L 112.838553 121.193455 
L 113.626549 150.397602 
L 114.414545 181.843838 
L 114.808544 189.706663 
L 115.202542 193.277729 
L 115.59654 195.6719 
L 115.990538 195.761583 
L 116.384537 194.162895 
L 116.778535 196.989383 
L 117.172533 197.94364 
L 117.566531 197.009369 
L 117.96053 194.797802 
L 118.354528 189.199103 
L 118.748526 181.800969 
L 119.536523 149.825656 
L 120.324519 113.473161 
L 120.718517 98.481551 
L 121.112515 87.90663 
L 121.900512 75.27571 
L 122.29451 71.161186 
L 122.688508 63.767299 
L 123.082507 62.691658 
L 123.476505 59.366233 
L 123.870503 60.846139 
L 124.264501 59.375865 
L 124.6585 60.478812 
L 125.052498 59.642926 
L 125.840494 61.668135 
L 126.234492 61.834409 
L 126.628491 63.227814 
L 127.022489 62.903292 
L 127.416487 63.603354 
L 127.810485 62.11526 
L 128.204484 64.26118 
L 128.598482 64.363404 
L 128.99248 65.901286 
L 130.174475 66.674739 
L 130.568473 67.468749 
L 131.35647 70.058368 
L 131.750468 73.926694 
L 132.144466 70.641807 
L 132.538464 74.640167 
L 132.932462 72.188119 
L 133.326461 71.3096 
L 133.720459 71.61829 
L 134.114457 73.967234 
L 134.508455 74.675911 
L 134.902454 74.46037 
L 135.296452 76.950614 
L 135.69045 76.148604 
L 136.084448 75.815802 
L 136.478447 76.124047 
L 136.872445 73.244874 
L 137.266443 79.62619 
L 137.660441 78.317528 
L 138.05444 83.099035 
L 138.448438 81.011145 
L 138.842436 82.562792 
L 139.236434 81.174663 
L 139.630432 81.647435 
L 140.024431 79.287981 
L 140.418429 75.766351 
L 140.812427 78.223091 
L 141.206425 75.126075 
L 141.600424 82.086166 
L 141.994422 74.1996 
L 142.38842 77.792778 
L 142.782418 85.069713 
L 143.176417 96.80628 
L 143.570415 120.281763 
L 145.146408 265.303351 
L 145.540406 277.051049 
L 145.934404 285.269639 
L 146.328402 290.033276 
L 146.722401 293.070309 
L 147.116399 293.794422 
L 147.510397 291.886354 
L 148.298394 282.848195 
L 148.692392 276.791472 
L 149.08639 277.282014 
L 149.480388 278.218527 
L 149.874387 278.759149 
L 150.268385 277.856387 
L 150.662383 277.243469 
L 151.056381 276.080611 
L 151.45038 273.08659 
L 152.238376 259.202872 
L 152.632374 243.668123 
L 153.026372 222.271024 
L 153.814369 171.619632 
L 154.208367 153.90098 
L 154.602365 144.171647 
L 154.996364 137.189098 
L 155.390362 139.417116 
L 155.78436 158.791497 
L 156.178358 164.742995 
L 156.572357 168.327783 
L 156.966355 168.57727 
L 157.360353 169.133198 
L 157.754351 166.895792 
L 158.14835 160.596594 
L 159.330344 126.512839 
L 159.724342 125.436144 
L 160.118341 133.660344 
L 160.512339 147.870954 
L 160.906337 141.383355 
L 161.300335 126.846666 
L 161.694334 125.070222 
L 162.088332 133.919166 
L 163.270327 181.712803 
L 163.664325 191.462344 
L 164.058323 197.639006 
L 164.452321 200.258391 
L 164.84632 200.374938 
L 165.240318 198.410696 
L 166.028314 203.998975 
L 166.422312 204.562117 
L 166.816311 204.290398 
L 167.210309 201.911652 
L 167.604307 193.138286 
L 168.392304 160.673952 
L 169.574298 104.031224 
L 170.362295 75.118608 
L 170.756293 69.506731 
L 171.150291 65.649629 
L 171.544289 62.945787 
L 171.938288 58.314215 
L 172.332286 58.822116 
L 172.726284 58.477072 
L 173.120282 59.676713 
L 173.514281 59.581722 
L 173.908279 61.113537 
L 174.302277 62.009615 
L 175.090274 57.696888 
L 175.87827 60.39773 
L 176.272268 59.378938 
L 176.666267 60.90311 
L 177.454263 62.62754 
L 177.848261 62.960671 
L 178.242259 65.835234 
L 178.636258 65.967696 
L 179.030256 68.635846 
L 179.424254 65.695657 
L 179.818252 68.695571 
L 180.212251 69.207761 
L 180.606249 68.943717 
L 181.000247 73.099183 
L 181.394245 73.841672 
L 181.788244 74.016491 
L 182.57624 75.707845 
L 182.970238 73.279335 
L 183.364237 74.290069 
L 183.758235 72.818118 
L 184.546231 75.880749 
L 184.940229 71.870014 
L 185.334228 70.667695 
L 185.728226 73.301423 
L 186.122224 72.878809 
L 186.516222 76.362119 
L 187.304219 85.97382 
L 187.698217 83.625562 
L 188.092215 86.976392 
L 188.486214 87.219514 
L 188.880212 89.694362 
L 189.27421 86.338024 
L 189.668208 86.607711 
L 190.062207 89.599847 
L 190.456205 88.854634 
L 190.850203 85.866723 
L 191.244201 86.59666 
L 192.032198 79.139918 
L 192.426196 82.557194 
L 192.820194 89.015574 
L 193.214192 104.751441 
L 193.608191 134.008073 
L 194.396187 220.815237 
L 194.790185 250.973947 
L 195.184184 269.779376 
L 195.578182 281.039224 
L 195.97218 287.515316 
L 196.366178 291.436555 
L 196.760177 293.828951 
L 197.154175 293.073118 
L 197.548173 290.47077 
L 198.730168 276.358261 
L 199.124166 278.034043 
L 199.518164 278.899373 
L 199.912162 279.060474 
L 200.700159 277.668531 
L 201.094157 276.021225 
L 201.488155 272.058379 
L 202.276152 256.367266 
L 202.67015 238.648024 
L 203.458147 182.675425 
L 203.852145 156.687681 
L 204.246143 140.44726 
L 204.640141 130.582371 
L 205.034139 125.901805 
L 205.428138 133.70822 
L 205.822136 153.448098 
L 206.216134 155.583155 
L 206.610132 155.399985 
L 207.004131 152.084744 
L 207.792127 141.936673 
L 208.186125 131.652691 
L 208.580124 128.764075 
L 208.974122 128.814139 
L 209.36812 139.218387 
L 209.762118 144.150617 
L 210.156117 126.910831 
L 210.550115 118.508132 
L 210.944113 125.497296 
L 211.338111 141.215094 
L 212.126108 185.896607 
L 212.914104 206.21131 
L 213.308102 211.124863 
L 213.702101 213.375779 
L 214.096099 213.721237 
L 214.490097 210.248383 
L 214.884095 210.808999 
L 215.278094 214.919383 
L 215.672092 217.433484 
L 216.06609 218.603694 
L 216.460088 218.36984 
L 216.854086 212.947998 
L 217.248085 203.226652 
L 217.642083 186.399021 
L 218.824078 116.311579 
L 219.218076 83.219077 
L 219.612074 72.021833 
L 220.006072 67.427868 
L 220.794069 63.135164 
L 221.188067 60.767927 
L 221.976064 59.089276 
L 222.370062 55.83778 
L 222.76406 53.568 
L 223.158058 54.100088 
L 223.552056 56.428336 
L 223.946055 54.016044 
L 224.340053 56.273793 
L 225.128049 66.061173 
L 225.522048 65.850291 
L 225.916046 70.925402 
L 226.310044 71.007197 
L 226.704042 78.261399 
L 227.098041 69.905279 
L 227.492039 77.347376 
L 227.886037 82.481718 
L 228.280035 85.301741 
L 228.674034 85.148389 
L 229.068032 78.802872 
L 229.46203 77.673057 
L 229.856028 73.090392 
L 230.250026 77.69317 
L 230.644025 73.58852 
L 231.038023 72.426804 
L 231.432021 73.006111 
L 231.826019 77.73022 
L 232.220018 73.106581 
L 232.614016 72.811762 
L 233.008014 72.245333 
L 233.402012 73.91194 
L 233.796011 78.007409 
L 234.190009 74.042173 
L 234.584007 71.928955 
L 234.978005 73.961186 
L 235.372004 72.411833 
L 235.766002 74.034334 
L 236.16 74.322104 
L 236.553998 74.008969 
L 236.947996 71.558327 
L 237.341995 74.052943 
L 237.735993 72.691856 
L 238.129991 83.612201 
L 238.523989 71.644932 
L 239.311986 88.990518 
L 239.705984 105.725559 
L 240.099982 138.309729 
L 240.887979 231.829799 
L 241.281977 260.643203 
L 241.675975 277.683593 
L 242.463972 289.474817 
L 242.85797 292.381027 
L 243.251968 294.194987 
L 243.645966 293.234353 
L 244.039965 290.710839 
L 244.827961 280.83522 
L 245.221959 278.780374 
L 245.615958 280.130877 
L 246.009956 280.78049 
L 246.403954 280.712431 
L 247.191951 278.658571 
L 247.585949 276.704899 
L 247.979947 273.309721 
L 248.373945 265.793049 
L 248.767944 254.146446 
L 249.161942 234.966089 
L 250.343936 152.966384 
L 250.737935 138.976952 
L 251.131933 131.984938 
L 251.525931 132.121993 
L 251.919929 156.331146 
L 252.313928 160.528189 
L 252.707926 159.711098 
L 253.101924 157.959597 
L 253.495922 155.382801 
L 254.677917 134.505435 
L 255.071915 132.704459 
L 255.465914 137.511635 
L 255.859912 149.575252 
L 256.25391 140.983426 
L 256.647908 127.062165 
L 257.041906 127.474662 
L 257.435905 135.798204 
L 258.617899 186.285046 
L 259.405896 203.396329 
L 259.799894 206.427887 
L 260.193892 207.731277 
L 260.587891 205.230469 
L 260.981889 205.043759 
L 261.375887 209.735283 
L 261.769885 211.99784 
L 262.163883 213.3344 
L 262.557882 213.314934 
L 262.95188 208.775586 
L 263.345878 199.328522 
L 263.739876 183.839271 
L 264.133875 162.421505 
L 264.921871 99.446918 
L 265.315869 78.790617 
L 265.709868 69.658494 
L 266.103866 65.428226 
L 266.497864 64.139834 
L 266.891862 61.213656 
L 267.285861 57.229494 
L 267.679859 54.520962 
L 268.073857 57.058522 
L 268.467855 58.281375 
L 268.861853 61.795464 
L 269.255852 59.114967 
L 269.64985 62.914391 
L 270.043848 60.585212 
L 270.437846 59.72607 
L 270.831845 59.776805 
L 271.225843 62.971051 
L 271.619841 60.025499 
L 272.013839 61.931617 
L 272.407838 68.334049 
L 272.801836 68.663949 
L 273.195834 70.831556 
L 273.589832 72.136574 
L 273.983831 75.481159 
L 274.377829 75.065992 
L 274.771827 76.138552 
L 275.165825 76.15095 
L 275.559823 70.580987 
L 275.953822 71.493509 
L 276.34782 67.986197 
L 276.741818 71.596874 
L 277.135816 70.01638 
L 277.529815 73.12803 
L 277.923813 71.526182 
L 278.317811 71.711962 
L 278.711809 71.672957 
L 279.105808 70.833613 
L 279.499806 73.392663 
L 279.893804 72.379117 
L 280.287802 75.50447 
L 280.681801 76.601708 
L 281.075799 81.158834 
L 281.469797 80.454797 
L 281.863795 82.502398 
L 282.257793 80.154185 
L 282.651792 79.88465 
L 283.439788 75.938177 
L 285.015781 73.774796 
L 285.409779 72.432395 
L 285.803778 74.632345 
L 286.197776 83.808582 
L 286.591774 73.827856 
L 287.379771 88.959027 
L 287.773769 103.831431 
L 288.167767 133.561281 
L 289.349762 256.104201 
L 289.74376 273.314979 
L 290.137758 283.286417 
L 290.531756 289.176688 
L 290.925755 292.602801 
L 291.319753 294.769434 
L 291.713751 294.467273 
L 292.107749 292.255193 
L 292.895746 282.596341 
L 293.289744 277.534249 
L 293.683742 278.542125 
L 294.077741 279.156998 
L 294.471739 279.191393 
L 295.653733 276.366136 
L 296.047732 273.217596 
L 296.835728 259.047976 
L 297.229726 246.400701 
L 299.199718 158.181481 
L 299.593716 150.473295 
L 299.987714 156.577607 
L 300.381712 173.594088 
L 300.775711 182.47458 
L 301.169709 188.365124 
L 301.957705 196.550181 
L 302.351703 196.212368 
L 302.745702 189.689359 
L 303.927696 157.325266 
L 304.321695 153.566115 
L 305.109691 164.308477 
L 305.503689 155.792678 
L 305.897688 151.845538 
L 306.291686 158.909742 
L 307.867679 202.574459 
L 308.655675 209.042698 
L 309.049673 209.494919 
L 309.443672 207.001661 
L 309.83767 209.601521 
L 310.231668 213.005897 
L 310.625666 215.42551 
L 311.019665 216.752904 
L 311.413663 216.553438 
L 311.807661 211.966484 
L 312.201659 203.914235 
L 312.595658 189.952316 
L 313.383654 148.752371 
L 313.777652 120.638971 
L 314.565649 83.789799 
L 315.353645 72.766021 
L 315.747643 70.85317 
L 316.141642 66.158318 
L 316.53564 65.502304 
L 316.929638 62.600455 
L 317.323636 61.3602 
L 318.111633 63.299857 
L 318.505631 62.288422 
L 318.899629 64.442224 
L 319.293628 64.499209 
L 319.687626 62.13666 
L 320.475622 65.462864 
L 321.263619 74.635128 
L 321.657617 74.707871 
L 322.051615 79.514399 
L 322.445613 74.702869 
L 322.839612 74.730127 
L 323.23361 74.304678 
L 323.627608 75.649382 
L 324.021606 76.102958 
L 324.415605 80.532409 
L 324.809603 77.945403 
L 325.597599 77.721836 
L 325.991598 77.194014 
L 326.385596 77.344 
L 326.779594 76.672592 
L 327.173592 77.275147 
L 327.56759 80.620959 
L 327.961589 77.328698 
L 328.355587 76.431747 
L 328.749585 79.136225 
L 329.143583 76.310004 
L 329.537582 80.548194 
L 329.93158 78.980545 
L 330.719576 81.048515 
L 331.113575 79.347426 
L 331.507573 83.236208 
L 331.901571 81.203429 
L 332.295569 80.701601 
L 332.689568 77.515514 
L 333.083566 77.549327 
L 333.871562 77.32354 
L 334.659559 86.351632 
L 335.053557 76.41308 
L 335.841553 88.758882 
L 336.235552 101.168817 
L 336.62955 127.479277 
L 337.811545 251.862612 
L 338.205543 271.546487 
L 338.599541 283.376629 
L 339.387538 291.959609 
L 339.781536 294.863946 
L 340.175534 294.951963 
L 340.569532 293.017554 
L 341.357529 283.222304 
L 341.751527 277.518991 
L 342.539523 279.189683 
L 342.933522 279.220112 
L 343.721518 278.088313 
L 344.115516 276.710795 
L 344.509515 273.21154 
L 344.903513 266.858388 
L 345.691509 248.288016 
L 346.479506 209.970171 
L 347.267502 167.318151 
L 347.6615 152.69043 
L 348.055499 143.397566 
L 348.449497 141.915941 
L 348.843495 152.780755 
L 349.237493 160.513577 
L 349.631492 163.426087 
L 350.02549 164.841189 
L 350.419488 163.693064 
L 351.207485 154.566091 
L 351.995481 140.423597 
L 352.389479 143.741278 
L 352.783477 153.259714 
L 353.177476 145.153872 
L 353.571474 132.778602 
L 353.965472 136.629724 
L 354.35947 149.832605 
L 355.541465 209.26415 
L 356.329462 220.615479 
L 356.72346 222.658338 
L 357.117458 223.47871 
L 357.511456 221.960756 
L 357.905455 219.390685 
L 358.299453 218.977427 
L 358.693451 224.177791 
L 359.481447 228.663392 
L 359.875446 228.948358 
L 360.269444 226.54813 
L 360.663442 219.887251 
L 361.05744 210.08251 
L 361.845437 171.97226 
L 362.633433 127.772115 
L 363.42143 98.547038 
L 364.209426 83.468554 
L 364.603425 79.134894 
L 365.391421 72.573525 
L 365.785419 69.491079 
L 366.179417 69.650784 
L 366.967414 60.624842 
L 367.361412 61.534789 
L 368.149409 66.282124 
L 368.543407 67.691987 
L 368.937405 71.876754 
L 369.331403 72.591535 
L 370.1194 82.833291 
L 370.513398 83.041287 
L 370.907396 82.947345 
L 371.301395 83.503004 
L 371.695393 83.794897 
L 372.089391 84.364709 
L 372.483389 83.954092 
L 372.877387 88.48129 
L 373.271386 84.17147 
L 373.665384 83.635357 
L 374.059382 87.036281 
L 374.45338 87.06369 
L 374.847379 87.492366 
L 375.241377 89.661459 
L 375.635375 88.002801 
L 376.029373 85.626884 
L 376.423372 84.105563 
L 376.81737 83.557509 
L 377.211368 83.415556 
L 377.605366 89.302803 
L 377.999365 102.546457 
L 378.393363 101.359746 
L 378.787361 99.698665 
L 379.575357 89.413153 
L 379.969356 87.838907 
L 380.363354 83.914387 
L 380.757352 82.887943 
L 381.15135 79.555297 
L 381.545349 79.456538 
L 381.939347 80.582755 
L 382.333345 85.646347 
L 382.727343 78.21595 
L 383.51534 97.405112 
L 383.909338 118.577784 
L 384.697335 200.647051 
L 385.091333 241.45098 
L 385.485331 266.614843 
L 385.879329 279.467049 
L 386.273327 286.780071 
L 386.667326 291.107125 
L 387.061324 293.945191 
L 387.455322 295.488 
L 387.84932 294.397834 
L 388.243319 291.234323 
L 389.031315 280.657718 
L 389.425313 278.9469 
L 389.819312 280.198748 
L 390.21331 280.228386 
L 390.607308 279.982073 
L 391.001306 279.224954 
L 391.395305 279.001562 
L 391.789303 282.294931 
L 392.183301 279.381544 
L 392.577299 275.464788 
L 393.365296 265.097576 
L 393.759294 260.696625 
L 394.153292 251.889833 
L 394.941289 240.638011 
L 395.335287 236.961533 
L 395.729285 227.398211 
L 396.517282 199.247612 
L 396.91128 202.813991 
L 397.699276 200.310014 
L 398.093274 199.329818 
L 398.487273 200.998128 
L 398.487273 200.998128 
" style="fill:none;stroke:#1f77b4;stroke-linecap:square;stroke-width:1.5;"/>
   </g>
   <g id="patch_3">
    <path d="M 57.6 307.584 
L 57.6 41.472 
" style="fill:none;stroke:#000000;stroke-linecap:square;stroke-linejoin:miter;stroke-width:0.8;"/>
   </g>
   <g id="patch_4">
    <path d="M 414.72 307.584 
L 414.72 41.472 
" style="fill:none;stroke:#000000;stroke-linecap:square;stroke-linejoin:miter;stroke-width:0.8;"/>
   </g>
   <g id="patch_5">
    <path d="M 57.6 307.584 
L 414.72 307.584 
" style="fill:none;stroke:#000000;stroke-linecap:square;stroke-linejoin:miter;stroke-width:0.8;"/>
   </g>
   <g id="patch_6">
    <path d="M 57.6 41.472 
L 414.72 41.472 
" style="fill:none;stroke:#000000;stroke-linecap:square;stroke-linejoin:miter;stroke-width:0.8;"/>
   </g>
  </g>
 </g>
 <defs>
  <clipPath id="p3b4da3cd78">
   <rect height="266.112" width="357.12" x="57.6" y="41.472"/>
  </clipPath>
 </defs>
</svg>
