<?xml version="1.0" encoding="utf-8" standalone="no"?>
<!DOCTYPE svg PUBLIC "-//W3C//DTD SVG 1.1//EN"
  "http://www.w3.org/Graphics/SVG/1.1/DTD/svg11.dtd">
<svg height="199.44pt" version="1.1" viewBox="0 0 1217.52 199.44" width="1217.52pt" xmlns="http://www.w3.org/2000/svg" xmlns:xlink="http://www.w3.org/1999/xlink">
 <metadata>
  <rdf:RDF xmlns:cc="http://creativecommons.org/ns#" xmlns:dc="http://purl.org/dc/elements/1.1/" xmlns:rdf="http://www.w3.org/1999/02/22-rdf-syntax-ns#">
   <cc:Work>
    <dc:type rdf:resource="http://purl.org/dc/dcmitype/StillImage"/>
    <dc:date>2022-05-20T14:35:07.744229</dc:date>
    <dc:format>image/svg+xml</dc:format>
    <dc:creator>
     <cc:Agent>
      <dc:title>Matplotlib v3.4.2, https://matplotlib.org/</dc:title>
     </cc:Agent>
    </dc:creator>
   </cc:Work>
  </rdf:RDF>
 </metadata>
 <defs>
  <style type="text/css">*{stroke-linecap:butt;stroke-linejoin:round;}</style>
 </defs>
 <g id="figure_1">
  <g id="patch_1">
   <path d="M 0 199.44 
L 1217.52 199.44 
L 1217.52 0 
L 0 0 
z
" style="fill:#ffffff;"/>
  </g>
  <g id="axes_1">
   <g id="patch_2">
    <path d="M 152.19 177.5016 
L 1095.768 177.5016 
L 1095.768 23.9328 
L 152.19 23.9328 
z
" style="fill:#ffffff;"/>
   </g>
   <g id="matplotlib.axis_1">
    <g id="xtick_1">
     <g id="line2d_1">
      <defs>
       <path d="M 0 0 
L 0 3.5 
" id="m0beeb82497" style="stroke:#000000;stroke-width:0.8;"/>
      </defs>
      <g>
       <use style="stroke:#000000;stroke-width:0.8;" x="195.079909" xlink:href="#m0beeb82497" y="177.5016"/>
      </g>
     </g>
     <g id="text_1">
      <!-- 0 -->
      <g transform="translate(191.898659 192.100038)scale(0.1 -0.1)">
       <defs>
        <path d="M 2034 4250 
Q 1547 4250 1301 3770 
Q 1056 3291 1056 2328 
Q 1056 1369 1301 889 
Q 1547 409 2034 409 
Q 2525 409 2770 889 
Q 3016 1369 3016 2328 
Q 3016 3291 2770 3770 
Q 2525 4250 2034 4250 
z
M 2034 4750 
Q 2819 4750 3233 4129 
Q 3647 3509 3647 2328 
Q 3647 1150 3233 529 
Q 2819 -91 2034 -91 
Q 1250 -91 836 529 
Q 422 1150 422 2328 
Q 422 3509 836 4129 
Q 1250 4750 2034 4750 
z
" id="DejaVuSans-30" transform="scale(0.015625)"/>
       </defs>
       <use xlink:href="#DejaVuSans-30"/>
      </g>
     </g>
    </g>
    <g id="xtick_2">
     <g id="line2d_2">
      <g>
       <use style="stroke:#000000;stroke-width:0.8;" x="366.656703" xlink:href="#m0beeb82497" y="177.5016"/>
      </g>
     </g>
     <g id="text_2">
      <!-- 2000 -->
      <g transform="translate(353.931703 192.100038)scale(0.1 -0.1)">
       <defs>
        <path d="M 1228 531 
L 3431 531 
L 3431 0 
L 469 0 
L 469 531 
Q 828 903 1448 1529 
Q 2069 2156 2228 2338 
Q 2531 2678 2651 2914 
Q 2772 3150 2772 3378 
Q 2772 3750 2511 3984 
Q 2250 4219 1831 4219 
Q 1534 4219 1204 4116 
Q 875 4013 500 3803 
L 500 4441 
Q 881 4594 1212 4672 
Q 1544 4750 1819 4750 
Q 2544 4750 2975 4387 
Q 3406 4025 3406 3419 
Q 3406 3131 3298 2873 
Q 3191 2616 2906 2266 
Q 2828 2175 2409 1742 
Q 1991 1309 1228 531 
z
" id="DejaVuSans-32" transform="scale(0.015625)"/>
       </defs>
       <use xlink:href="#DejaVuSans-32"/>
       <use x="63.623047" xlink:href="#DejaVuSans-30"/>
       <use x="127.246094" xlink:href="#DejaVuSans-30"/>
       <use x="190.869141" xlink:href="#DejaVuSans-30"/>
      </g>
     </g>
    </g>
    <g id="xtick_3">
     <g id="line2d_3">
      <g>
       <use style="stroke:#000000;stroke-width:0.8;" x="538.233497" xlink:href="#m0beeb82497" y="177.5016"/>
      </g>
     </g>
     <g id="text_3">
      <!-- 4000 -->
      <g transform="translate(525.508497 192.100038)scale(0.1 -0.1)">
       <defs>
        <path d="M 2419 4116 
L 825 1625 
L 2419 1625 
L 2419 4116 
z
M 2253 4666 
L 3047 4666 
L 3047 1625 
L 3713 1625 
L 3713 1100 
L 3047 1100 
L 3047 0 
L 2419 0 
L 2419 1100 
L 313 1100 
L 313 1709 
L 2253 4666 
z
" id="DejaVuSans-34" transform="scale(0.015625)"/>
       </defs>
       <use xlink:href="#DejaVuSans-34"/>
       <use x="63.623047" xlink:href="#DejaVuSans-30"/>
       <use x="127.246094" xlink:href="#DejaVuSans-30"/>
       <use x="190.869141" xlink:href="#DejaVuSans-30"/>
      </g>
     </g>
    </g>
    <g id="xtick_4">
     <g id="line2d_4">
      <g>
       <use style="stroke:#000000;stroke-width:0.8;" x="709.810291" xlink:href="#m0beeb82497" y="177.5016"/>
      </g>
     </g>
     <g id="text_4">
      <!-- 6000 -->
      <g transform="translate(697.085291 192.100038)scale(0.1 -0.1)">
       <defs>
        <path d="M 2113 2584 
Q 1688 2584 1439 2293 
Q 1191 2003 1191 1497 
Q 1191 994 1439 701 
Q 1688 409 2113 409 
Q 2538 409 2786 701 
Q 3034 994 3034 1497 
Q 3034 2003 2786 2293 
Q 2538 2584 2113 2584 
z
M 3366 4563 
L 3366 3988 
Q 3128 4100 2886 4159 
Q 2644 4219 2406 4219 
Q 1781 4219 1451 3797 
Q 1122 3375 1075 2522 
Q 1259 2794 1537 2939 
Q 1816 3084 2150 3084 
Q 2853 3084 3261 2657 
Q 3669 2231 3669 1497 
Q 3669 778 3244 343 
Q 2819 -91 2113 -91 
Q 1303 -91 875 529 
Q 447 1150 447 2328 
Q 447 3434 972 4092 
Q 1497 4750 2381 4750 
Q 2619 4750 2861 4703 
Q 3103 4656 3366 4563 
z
" id="DejaVuSans-36" transform="scale(0.015625)"/>
       </defs>
       <use xlink:href="#DejaVuSans-36"/>
       <use x="63.623047" xlink:href="#DejaVuSans-30"/>
       <use x="127.246094" xlink:href="#DejaVuSans-30"/>
       <use x="190.869141" xlink:href="#DejaVuSans-30"/>
      </g>
     </g>
    </g>
    <g id="xtick_5">
     <g id="line2d_5">
      <g>
       <use style="stroke:#000000;stroke-width:0.8;" x="881.387085" xlink:href="#m0beeb82497" y="177.5016"/>
      </g>
     </g>
     <g id="text_5">
      <!-- 8000 -->
      <g transform="translate(868.662085 192.100038)scale(0.1 -0.1)">
       <defs>
        <path d="M 2034 2216 
Q 1584 2216 1326 1975 
Q 1069 1734 1069 1313 
Q 1069 891 1326 650 
Q 1584 409 2034 409 
Q 2484 409 2743 651 
Q 3003 894 3003 1313 
Q 3003 1734 2745 1975 
Q 2488 2216 2034 2216 
z
M 1403 2484 
Q 997 2584 770 2862 
Q 544 3141 544 3541 
Q 544 4100 942 4425 
Q 1341 4750 2034 4750 
Q 2731 4750 3128 4425 
Q 3525 4100 3525 3541 
Q 3525 3141 3298 2862 
Q 3072 2584 2669 2484 
Q 3125 2378 3379 2068 
Q 3634 1759 3634 1313 
Q 3634 634 3220 271 
Q 2806 -91 2034 -91 
Q 1263 -91 848 271 
Q 434 634 434 1313 
Q 434 1759 690 2068 
Q 947 2378 1403 2484 
z
M 1172 3481 
Q 1172 3119 1398 2916 
Q 1625 2713 2034 2713 
Q 2441 2713 2670 2916 
Q 2900 3119 2900 3481 
Q 2900 3844 2670 4047 
Q 2441 4250 2034 4250 
Q 1625 4250 1398 4047 
Q 1172 3844 1172 3481 
z
" id="DejaVuSans-38" transform="scale(0.015625)"/>
       </defs>
       <use xlink:href="#DejaVuSans-38"/>
       <use x="63.623047" xlink:href="#DejaVuSans-30"/>
       <use x="127.246094" xlink:href="#DejaVuSans-30"/>
       <use x="190.869141" xlink:href="#DejaVuSans-30"/>
      </g>
     </g>
    </g>
    <g id="xtick_6">
     <g id="line2d_6">
      <g>
       <use style="stroke:#000000;stroke-width:0.8;" x="1052.963879" xlink:href="#m0beeb82497" y="177.5016"/>
      </g>
     </g>
     <g id="text_6">
      <!-- 10000 -->
      <g transform="translate(1037.057629 192.100038)scale(0.1 -0.1)">
       <defs>
        <path d="M 794 531 
L 1825 531 
L 1825 4091 
L 703 3866 
L 703 4441 
L 1819 4666 
L 2450 4666 
L 2450 531 
L 3481 531 
L 3481 0 
L 794 0 
L 794 531 
z
" id="DejaVuSans-31" transform="scale(0.015625)"/>
       </defs>
       <use xlink:href="#DejaVuSans-31"/>
       <use x="63.623047" xlink:href="#DejaVuSans-30"/>
       <use x="127.246094" xlink:href="#DejaVuSans-30"/>
       <use x="190.869141" xlink:href="#DejaVuSans-30"/>
       <use x="254.492188" xlink:href="#DejaVuSans-30"/>
      </g>
     </g>
    </g>
   </g>
   <g id="matplotlib.axis_2">
    <g id="ytick_1">
     <g id="line2d_7">
      <defs>
       <path d="M 0 0 
L -3.5 0 
" id="m4213da2727" style="stroke:#000000;stroke-width:0.8;"/>
      </defs>
      <g>
       <use style="stroke:#000000;stroke-width:0.8;" x="152.19" xlink:href="#m4213da2727" y="170.379466"/>
      </g>
     </g>
     <g id="text_7">
      <!-- 0 -->
      <g transform="translate(138.8275 174.178685)scale(0.1 -0.1)">
       <use xlink:href="#DejaVuSans-30"/>
      </g>
     </g>
    </g>
    <g id="ytick_2">
     <g id="line2d_8">
      <g>
       <use style="stroke:#000000;stroke-width:0.8;" x="152.19" xlink:href="#m4213da2727" y="147.694938"/>
      </g>
     </g>
     <g id="text_8">
      <!-- 20 -->
      <g transform="translate(132.465 151.494156)scale(0.1 -0.1)">
       <use xlink:href="#DejaVuSans-32"/>
       <use x="63.623047" xlink:href="#DejaVuSans-30"/>
      </g>
     </g>
    </g>
    <g id="ytick_3">
     <g id="line2d_9">
      <g>
       <use style="stroke:#000000;stroke-width:0.8;" x="152.19" xlink:href="#m4213da2727" y="125.010409"/>
      </g>
     </g>
     <g id="text_9">
      <!-- 40 -->
      <g transform="translate(132.465 128.809628)scale(0.1 -0.1)">
       <use xlink:href="#DejaVuSans-34"/>
       <use x="63.623047" xlink:href="#DejaVuSans-30"/>
      </g>
     </g>
    </g>
    <g id="ytick_4">
     <g id="line2d_10">
      <g>
       <use style="stroke:#000000;stroke-width:0.8;" x="152.19" xlink:href="#m4213da2727" y="102.325881"/>
      </g>
     </g>
     <g id="text_10">
      <!-- 60 -->
      <g transform="translate(132.465 106.1251)scale(0.1 -0.1)">
       <use xlink:href="#DejaVuSans-36"/>
       <use x="63.623047" xlink:href="#DejaVuSans-30"/>
      </g>
     </g>
    </g>
    <g id="ytick_5">
     <g id="line2d_11">
      <g>
       <use style="stroke:#000000;stroke-width:0.8;" x="152.19" xlink:href="#m4213da2727" y="79.641353"/>
      </g>
     </g>
     <g id="text_11">
      <!-- 80 -->
      <g transform="translate(132.465 83.440571)scale(0.1 -0.1)">
       <use xlink:href="#DejaVuSans-38"/>
       <use x="63.623047" xlink:href="#DejaVuSans-30"/>
      </g>
     </g>
    </g>
    <g id="ytick_6">
     <g id="line2d_12">
      <g>
       <use style="stroke:#000000;stroke-width:0.8;" x="152.19" xlink:href="#m4213da2727" y="56.956824"/>
      </g>
     </g>
     <g id="text_12">
      <!-- 100 -->
      <g transform="translate(126.1025 60.756043)scale(0.1 -0.1)">
       <use xlink:href="#DejaVuSans-31"/>
       <use x="63.623047" xlink:href="#DejaVuSans-30"/>
       <use x="127.246094" xlink:href="#DejaVuSans-30"/>
      </g>
     </g>
    </g>
    <g id="ytick_7">
     <g id="line2d_13">
      <g>
       <use style="stroke:#000000;stroke-width:0.8;" x="152.19" xlink:href="#m4213da2727" y="34.272296"/>
      </g>
     </g>
     <g id="text_13">
      <!-- 120 -->
      <g transform="translate(126.1025 38.071515)scale(0.1 -0.1)">
       <use xlink:href="#DejaVuSans-31"/>
       <use x="63.623047" xlink:href="#DejaVuSans-32"/>
       <use x="127.246094" xlink:href="#DejaVuSans-30"/>
      </g>
     </g>
    </g>
   </g>
   <g id="line2d_14">
    <path clip-path="url(#p17ee57225f)" d="M 195.079909 99.512461 
L 195.852005 102.84321 
L 196.10937 103.481013 
L 196.280947 103.622747 
L 196.452523 104.118816 
L 196.538312 104.047949 
L 196.795677 104.544018 
L 196.881465 104.473151 
L 197.825138 106.032225 
L 197.910926 106.528294 
L 197.996715 106.457427 
L 198.082503 106.457427 
L 199.026175 107.874768 
L 199.111964 107.874768 
L 199.197752 108.229103 
L 199.283541 108.158236 
L 200.055636 109.362975 
L 200.227213 109.362975 
L 200.39879 109.929911 
L 200.484578 109.859044 
L 200.570367 109.788177 
L 200.827732 110.142512 
L 200.91352 110.142512 
L 201.085097 110.496847 
L 201.256674 110.567714 
L 201.685616 110.851182 
L 201.771404 110.709448 
L 202.028769 111.063783 
L 202.114558 110.992916 
L 202.200346 111.276384 
L 202.286134 111.205517 
L 202.5435 111.559852 
L 202.800865 111.985054 
L 202.972442 112.126788 
L 203.315595 112.906325 
L 203.401384 112.835458 
L 203.658749 113.331527 
L 204.087691 113.96933 
L 204.430844 113.048059 
L 204.602421 111.205517 
L 204.859786 105.890491 
L 205.20294 93.13443 
L 206.318189 45.724404 
L 206.403977 44.874 
L 206.575554 45.724404 
L 206.747131 48.771685 
L 207.176073 63.157687 
L 207.86238 84.346922 
L 208.291322 90.370617 
L 208.806053 92.42576 
L 208.977629 92.496627 
L 209.149206 92.284026 
L 209.234995 92.42576 
L 209.749725 91.787957 
L 209.921302 91.858824 
L 210.092879 92.142292 
L 210.178667 92.284026 
L 210.521821 93.630499 
L 211.379705 96.961249 
L 211.551281 96.961249 
L 211.722858 96.961249 
L 211.894435 96.677781 
L 213.438626 88.315474 
L 213.610203 88.244607 
L 213.695991 88.17374 
L 214.124933 89.59108 
L 214.553875 92.709228 
L 214.982817 95.75651 
L 215.411759 98.945525 
L 215.583336 99.654195 
L 215.92649 101.213269 
L 216.355432 102.84321 
L 216.698585 103.55188 
L 216.95595 104.189683 
L 219.529602 108.229103 
L 219.615391 108.29997 
L 219.786967 108.796039 
L 220.130121 108.866906 
L 220.988005 110.142512 
L 221.073793 110.000778 
L 221.24537 110.496847 
L 221.416947 110.567714 
L 221.760101 111.13465 
L 222.189043 111.701586 
L 222.360619 111.701586 
L 222.446408 112.055921 
L 222.532196 111.985054 
L 222.703773 111.985054 
L 222.87535 112.197655 
L 223.304292 112.622857 
L 223.39008 112.410256 
L 223.990599 113.331527 
L 224.076387 113.26066 
L 224.419541 114.111064 
L 224.505329 114.111064 
L 224.762694 114.748867 
L 225.105848 115.174069 
L 225.191636 115.315803 
L 225.449002 114.961468 
L 225.706367 112.693724 
L 225.963732 107.591299 
L 226.306886 94.764372 
L 227.507923 43.952729 
L 227.593712 43.669261 
L 227.765288 45.015734 
L 228.022654 51.322897 
L 229.052114 83.283917 
L 229.481056 88.598942 
L 229.738421 90.228883 
L 229.909998 90.512351 
L 230.081575 90.937553 
L 230.253152 90.724952 
L 230.424729 90.937553 
L 230.682094 90.441484 
L 230.767882 90.583218 
L 230.939459 90.158016 
L 231.025247 90.370617 
L 231.111036 90.29975 
L 231.196824 90.512351 
L 231.282613 90.441484 
L 231.539978 91.00842 
L 232.741015 95.543909 
L 232.912592 95.898244 
L 233.427323 94.835239 
L 233.684688 93.772234 
L 234.370995 89.378479 
L 234.714149 88.032006 
L 234.885725 87.748538 
L 234.971514 87.890272 
L 235.057302 87.819405 
L 235.228879 88.102873 
L 237.116224 99.866796 
L 238.059896 102.84321 
L 238.145684 102.84321 
L 238.660415 103.906215 
L 238.746203 103.906215 
L 239.346722 105.110954 
L 239.518299 105.394422 
L 239.861452 106.173959 
L 239.947241 106.38656 
L 240.033029 106.315693 
L 240.719336 107.520432 
L 240.890913 107.945635 
L 241.748797 109.221241 
L 241.920374 109.150374 
L 242.177739 109.646443 
L 242.349316 109.788177 
L 242.606681 110.284246 
L 242.692469 110.213379 
L 242.949835 110.709448 
L 243.035623 110.709448 
L 243.636142 111.701586 
L 243.72193 111.630719 
L 243.893507 111.914187 
L 243.979295 112.055921 
L 244.065084 111.985054 
L 244.150872 111.985054 
L 244.494026 112.339389 
L 244.665603 112.410256 
L 244.751391 112.622857 
L 244.837179 112.55199 
L 245.180333 112.906325 
L 245.437698 113.402394 
L 245.523487 113.26066 
L 246.209794 114.181931 
L 246.295582 114.252798 
L 246.552947 114.819734 
L 246.638736 114.819734 
L 246.810312 114.961468 
L 246.896101 114.961468 
L 247.239254 114.181931 
L 247.410831 112.55199 
L 247.668196 107.378698 
L 248.01135 95.118707 
L 249.212388 45.370069 
L 249.298176 44.944867 
L 249.469753 46.078739 
L 249.64133 49.480355 
L 250.928156 86.685533 
L 251.357098 90.937553 
L 251.614463 92.071425 
L 251.700251 92.142292 
L 251.871828 92.638361 
L 252.043405 92.496627 
L 252.129193 92.567494 
L 252.386558 92.213159 
L 252.472347 92.284026 
L 252.729712 92.071425 
L 253.072865 92.496627 
L 253.330231 93.347031 
L 254.016538 96.323446 
L 254.359691 96.819515 
L 254.96021 95.04784 
L 255.989671 87.394203 
L 256.332825 86.118597 
L 256.59019 86.118597 
L 256.847555 87.039868 
L 257.019132 88.032006 
L 258.048593 96.677781 
L 258.906476 100.646333 
L 260.536456 103.481013 
L 260.708033 104.047949 
L 260.793821 103.906215 
L 261.308552 104.96922 
L 261.480128 105.040087 
L 261.565917 105.394422 
L 261.651705 105.323555 
L 262.080647 105.819624 
L 262.852743 106.528294 
L 262.938531 106.740895 
L 263.02432 106.599161 
L 263.281685 107.024363 
L 263.453262 106.882629 
L 263.624838 107.307831 
L 264.654299 108.29997 
L 264.997453 108.654305 
L 265.597971 109.292108 
L 265.68376 109.504709 
L 265.769548 109.433842 
L 266.455855 110.709448 
L 266.713221 111.347251 
L 266.799009 111.418118 
L 266.970586 111.701586 
L 267.142163 111.772453 
L 267.227951 111.84332 
L 267.571105 110.780315 
L 267.82847 107.307831 
L 268.171623 97.102983 
L 269.458449 42.464522 
L 269.544238 42.110187 
L 269.630026 42.535389 
L 269.801603 45.370069 
L 270.144756 56.921391 
L 270.831064 80.945306 
L 271.260006 88.244607 
L 271.603159 90.795819 
L 271.860524 91.646223 
L 272.032101 91.71709 
L 272.289466 91.858824 
L 272.975774 91.433622 
L 273.233139 91.858824 
L 273.747869 94.197436 
L 274.348388 95.898244 
L 274.519965 95.898244 
L 274.77733 95.543909 
L 275.377849 92.638361 
L 276.407309 86.969001 
L 276.664675 86.827267 
L 276.750463 86.898134 
L 277.093617 88.386341 
L 277.350982 90.158016 
L 277.694135 93.13443 
L 278.552019 98.732924 
L 279.324115 100.929801 
L 279.838845 101.992806 
L 279.924634 102.063673 
L 280.096211 102.630609 
L 280.181999 102.559742 
L 281.039883 104.402284 
L 281.468825 105.181821 
L 281.640402 105.67789 
L 281.811978 105.819624 
L 281.897767 106.103092 
L 281.983555 105.890491 
L 282.24092 106.528294 
L 282.326709 106.457427 
L 282.412497 106.528294 
L 282.498286 106.882629 
L 282.584074 106.811762 
L 283.184593 107.662166 
L 283.270381 107.662166 
L 284.214054 109.00864 
L 284.471419 109.292108 
L 284.728784 109.788177 
L 284.814572 109.788177 
L 285.157726 110.142512 
L 285.329303 110.142512 
L 285.415091 110.142512 
L 285.586668 110.355113 
L 285.758245 110.355113 
L 286.187187 110.922049 
L 286.272975 110.922049 
L 286.959282 111.914187 
L 287.045071 111.914187 
L 287.388224 112.693724 
L 287.731378 113.118926 
L 287.988743 113.614995 
L 288.331897 113.331527 
L 288.589262 111.701586 
L 288.846627 107.09523 
L 289.103992 98.732924 
L 289.532934 77.118487 
L 290.219241 43.102325 
L 290.476607 38.850305 
L 290.562395 38.992039 
L 290.733972 41.401517 
L 290.991337 48.984286 
L 291.763433 76.126349 
L 292.192375 83.638252 
L 292.707105 87.677671 
L 292.792893 87.748538 
L 292.96447 88.457208 
L 293.050258 88.598942 
L 293.221835 88.457208 
L 293.307624 88.528075 
L 293.822354 87.890272 
L 293.993931 87.819405 
L 294.165508 88.102873 
L 294.422873 88.740676 
L 294.680238 89.803681 
L 295.023392 92.071425 
L 295.452334 94.197436 
L 295.538122 94.268303 
L 295.709699 94.622638 
L 295.967064 94.410037 
L 296.396006 92.709228 
L 297.597044 86.260331 
L 297.854409 86.04773 
L 298.111774 86.614666 
L 298.798081 91.079287 
L 299.3986 95.473042 
L 299.484388 95.75651 
L 299.827542 97.669919 
L 300.170695 99.228993 
L 300.256484 99.29986 
L 300.685426 100.433732 
L 300.771214 100.575466 
L 301.028579 101.42587 
L 302.658559 105.252688 
L 302.744347 105.252688 
L 303.001713 105.961358 
L 303.087501 105.890491 
L 303.344866 106.599161 
L 303.430655 106.38656 
L 303.773808 107.024363 
L 303.859597 107.024363 
L 304.116962 107.520432 
L 304.20275 107.520432 
L 305.146422 108.866906 
L 305.317999 108.937773 
L 305.575364 109.362975 
L 305.661153 109.362975 
L 305.83273 109.575576 
L 306.004306 109.575576 
L 306.175883 109.929911 
L 306.261672 109.929911 
L 306.519037 110.284246 
L 307.205344 110.922049 
L 307.462709 111.276384 
L 308.234805 112.481123 
L 308.320593 112.410256 
L 309.178477 113.827596 
L 309.264266 113.614995 
L 309.350054 113.685862 
L 309.435842 113.756729 
L 309.778996 111.347251 
L 310.122149 103.55188 
L 310.551091 83.779986 
L 311.323187 45.157468 
L 311.580552 41.33065 
L 311.666341 41.401517 
L 311.837917 43.881862 
L 312.266859 57.913529 
L 312.867378 77.118487 
L 313.382109 85.551661 
L 313.811051 89.165878 
L 314.068416 90.087149 
L 314.668935 91.00842 
L 314.9263 90.795819 
L 315.012088 90.937553 
L 315.097877 90.795819 
L 315.183665 91.00842 
L 315.269453 90.866686 
L 315.698395 92.071425 
L 316.041549 93.843101 
L 316.298914 94.764372 
L 316.556279 95.331308 
L 316.727856 95.331308 
L 316.813644 95.473042 
L 317.07101 94.835239 
L 317.328375 93.701366 
L 318.10047 87.961139 
L 318.529412 85.197326 
L 318.872566 84.205188 
L 318.958354 84.134321 
L 319.301508 85.055592 
L 319.73045 88.102873 
L 320.330969 93.063563 
L 320.845699 96.394313 
L 321.617795 99.725062 
L 321.789371 100.079397 
L 322.304102 101.921939 
L 322.475679 102.205407 
L 323.419351 104.26055 
L 323.505139 104.26055 
L 323.590928 104.614885 
L 323.676716 104.544018 
L 323.934081 105.110954 
L 324.01987 105.110954 
L 324.191447 105.536156 
L 324.277235 105.607023 
L 324.448812 106.032225 
L 324.5346 106.032225 
L 325.478273 107.662166 
L 325.564061 108.016502 
L 325.649849 107.874768 
L 325.993003 108.654305 
L 326.250368 109.221241 
L 326.336157 109.150374 
L 326.507733 109.504709 
L 327.022464 109.788177 
L 327.108252 109.71731 
L 327.194041 109.859044 
L 327.451406 109.646443 
L 327.537194 109.788177 
L 327.622982 109.71731 
L 327.794559 109.788177 
L 328.480866 110.42598 
L 328.738232 110.922049 
L 328.82402 110.851182 
L 329.081385 111.488985 
L 329.252962 111.772453 
L 329.424539 112.126788 
L 329.596116 112.339389 
L 329.767692 112.693724 
L 330.025058 112.835458 
L 330.196634 112.481123 
L 330.454 110.142512 
L 330.625576 106.811762 
L 330.882942 98.945525 
L 331.48346 67.409708 
L 331.998191 42.464522 
L 332.255556 37.858166 
L 332.341344 38.070768 
L 332.512921 40.409379 
L 332.856075 51.960701 
L 333.542382 75.913748 
L 333.885535 82.575247 
L 334.400266 88.88241 
L 334.486054 86.118597 
L 334.657631 77.614556 
L 334.829208 78.110625 
L 335.086573 77.75629 
L 335.429727 77.614556 
L 335.515515 77.685423 
L 335.601303 77.543689 
L 335.687092 77.614556 
L 335.77288 77.685423 
L 335.944457 77.401955 
L 336.201822 77.543689 
L 336.287611 77.401955 
L 336.373399 77.472822 
L 336.630764 77.614556 
L 336.802341 77.401955 
L 336.973918 77.614556 
L 337.145495 77.401955 
L 337.40286 77.543689 
L 337.488648 77.401955 
L 337.660225 77.543689 
L 337.746013 77.331088 
L 337.831802 77.401955 
L 338.003379 77.472822 
L 338.174955 77.331088 
L 338.260744 77.472822 
L 338.346532 77.401955 
L 338.603897 77.472822 
L 338.689686 77.401955 
L 338.775474 77.614556 
L 338.861262 77.331088 
L 338.947051 77.401955 
L 339.118628 77.472822 
L 339.204416 77.260221 
L 339.290204 77.472822 
L 339.375993 77.401955 
L 339.461781 77.543689 
L 339.54757 77.401955 
L 339.633358 77.472822 
L 339.719146 77.614556 
L 339.804935 77.543689 
L 339.976512 77.401955 
L 340.0623 77.614556 
L 340.148088 77.543689 
L 340.319665 77.331088 
L 340.57703 77.614556 
L 340.834396 77.472822 
L 340.920184 77.614556 
L 341.091761 77.401955 
L 341.349126 77.472822 
L 341.434914 77.472822 
L 341.606491 77.614556 
L 341.69228 77.401955 
L 341.949645 77.614556 
L 342.292798 77.472822 
L 342.550164 77.543689 
L 342.635952 77.614556 
L 342.893317 77.401955 
L 343.322259 77.401955 
L 343.408048 77.614556 
L 343.493836 77.401955 
L 343.579624 77.472822 
L 343.665413 77.543689 
L 343.751201 77.331088 
L 344.008566 77.543689 
L 344.094355 77.543689 
L 344.180143 77.401955 
L 344.265932 77.472822 
L 344.437508 77.543689 
L 344.609085 77.331088 
L 344.86645 77.614556 
L 344.952239 77.401955 
L 345.209604 77.685423 
L 345.381181 77.401955 
L 345.638546 77.543689 
L 345.981699 77.331088 
L 346.324853 77.472822 
L 346.410641 77.331088 
L 346.668007 77.543689 
L 346.753795 77.401955 
L 346.839583 77.543689 
L 346.925372 77.401955 
L 347.01116 77.472822 
L 347.182737 77.472822 
L 347.268525 77.614556 
L 347.354314 77.543689 
L 347.440102 77.543689 
L 347.611679 77.331088 
L 347.697467 77.614556 
L 347.783256 77.543689 
L 347.954833 77.472822 
L 348.040621 77.543689 
L 348.212198 77.401955 
L 348.297986 77.685423 
L 348.469563 77.260221 
L 348.555351 77.401955 
L 348.812717 77.472822 
L 348.898505 77.331088 
L 348.984293 77.472822 
L 349.070082 77.401955 
L 349.15587 77.472822 
L 349.241659 77.331088 
L 349.327447 77.543689 
L 349.413235 77.331088 
L 349.499024 77.685423 
L 349.584812 77.401955 
L 349.670601 77.614556 
L 349.756389 77.401955 
L 349.842177 77.472822 
L 350.013754 77.472822 
L 350.185331 77.614556 
L 350.271119 77.331088 
L 350.356908 77.401955 
L 350.528484 77.543689 
L 350.871638 77.401955 
L 352.244252 77.331088 
L 352.415829 77.189354 
L 352.587406 77.401955 
L 352.673194 77.401955 
L 352.758983 77.260221 
L 352.93056 77.472822 
L 353.187925 77.260221 
L 353.359502 77.543689 
L 353.531078 77.543689 
L 353.616867 77.685423 
L 353.702655 77.543689 
L 353.788444 77.685423 
L 353.874232 77.614556 
L 354.217386 77.75629 
L 354.388962 77.614556 
L 354.646328 77.685423 
L 354.732116 77.543689 
L 354.817904 77.685423 
L 354.989481 77.331088 
L 355.07527 77.685423 
L 355.246846 77.472822 
L 355.418423 77.543689 
L 355.675788 91.00842 
L 355.761577 90.795819 
L 356.276307 91.504489 
L 356.447884 91.433622 
L 356.533672 91.575356 
L 356.705249 91.362755 
L 356.962614 91.646223 
L 357.048403 91.433622 
L 357.134191 91.504489 
L 357.477345 91.504489 
L 357.563133 91.71709 
L 357.648921 91.575356 
L 357.73471 91.646223 
L 358.077863 91.433622 
L 358.421017 91.646223 
L 358.592594 91.504489 
L 358.678382 91.646223 
L 358.764171 91.433622 
L 358.849959 91.504489 
L 358.935747 91.504489 
L 359.021536 91.646223 
L 359.107324 91.575356 
L 359.193113 91.362755 
L 359.364689 91.575356 
L 359.707843 91.433622 
L 360.050997 91.71709 
L 360.136785 91.362755 
L 360.308362 91.575356 
L 360.39415 91.433622 
L 360.565727 91.575356 
L 360.994669 91.575356 
L 361.080457 91.433622 
L 361.166246 91.504489 
L 361.252034 91.71709 
L 361.337823 91.504489 
L 361.423611 91.575356 
L 361.595188 91.575356 
L 361.680976 91.433622 
L 361.766765 91.504489 
L 362.02413 91.646223 
L 362.281495 91.362755 
L 362.367283 91.71709 
L 362.624648 91.504489 
L 363.310956 91.504489 
L 363.396744 91.646223 
L 363.482532 91.504489 
L 363.568321 91.575356 
L 363.825686 91.504489 
L 363.997263 91.504489 
L 364.083051 91.575356 
L 364.16884 91.433622 
L 364.254628 91.504489 
L 364.340416 91.504489 
L 364.426205 91.646223 
L 364.597782 91.504489 
L 364.68357 91.646223 
L 364.769358 91.575356 
L 364.855147 91.646223 
L 364.940935 91.504489 
L 365.026724 91.575356 
L 365.1983 91.575356 
L 365.284089 91.433622 
L 365.541454 91.646223 
L 365.627242 91.362755 
L 365.713031 91.433622 
L 365.884608 91.575356 
L 366.056184 91.504489 
L 366.141973 91.646223 
L 366.31355 91.504489 
L 366.570915 91.575356 
L 366.742492 91.433622 
L 366.82828 91.575356 
L 366.914068 91.504489 
L 367.085645 91.504489 
L 367.514587 91.433622 
L 367.600376 91.646223 
L 367.686164 91.575356 
L 367.771952 91.433622 
L 367.857741 91.575356 
L 367.943529 91.504489 
L 368.115106 91.504489 
L 368.200894 91.433622 
L 368.286683 91.646223 
L 368.372471 91.575356 
L 368.544048 91.646223 
L 368.715625 91.504489 
L 368.801413 91.646223 
L 368.887201 91.433622 
L 368.97299 91.504489 
L 369.401932 91.575356 
L 369.48772 91.646223 
L 369.573509 91.433622 
L 369.745085 91.575356 
L 369.830874 91.575356 
L 369.916662 91.433622 
L 370.002451 91.504489 
L 370.174027 91.504489 
L 370.259816 91.504489 
L 370.345604 91.362755 
L 370.517181 91.575356 
L 370.688758 91.504489 
L 370.946123 91.575356 
L 371.1177 91.433622 
L 371.289277 91.646223 
L 371.460853 91.504489 
L 371.546642 91.646223 
L 371.63243 91.575356 
L 371.975584 91.646223 
L 372.147161 91.433622 
L 372.232949 91.646223 
L 372.318737 91.575356 
L 372.576103 91.433622 
L 372.747679 91.504489 
L 372.919256 91.291888 
L 373.090833 91.504489 
L 373.26241 91.291888 
L 373.519775 91.362755 
L 373.691352 91.362755 
L 373.77714 91.433622 
L 373.862928 91.291888 
L 373.948717 91.433622 
L 374.034505 91.362755 
L 374.463447 91.646223 
L 374.635024 91.646223 
L 374.806601 91.71709 
L 374.978178 91.575356 
L 375.149754 91.858824 
L 375.492908 91.71709 
L 375.578696 91.787957 
L 375.664485 91.575356 
L 375.750273 91.646223 
L 375.836062 91.646223 
L 375.92185 91.787957 
L 376.007638 91.504489 
L 376.093427 91.71709 
L 376.179215 91.646223 
L 376.265004 91.787957 
L 376.350792 91.504489 
L 376.43658 91.575356 
L 376.522369 91.71709 
L 376.608157 91.575356 
L 376.865522 105.110954 
L 377.208676 99.512461 
L 377.637618 97.032116 
L 377.723406 97.102983 
L 377.894983 96.677781 
L 378.06656 96.677781 
L 378.924444 98.236855 
L 379.096021 98.732924 
L 379.267597 99.016392 
L 379.439174 99.016392 
L 379.524963 99.016392 
L 379.696539 98.662057 
L 379.782328 98.662057 
L 379.868116 98.520323 
L 380.125481 97.386451 
L 380.468635 95.685643 
L 381.069154 91.646223 
L 381.755461 88.528075 
L 381.927038 88.244607 
L 382.184403 88.88241 
L 382.441768 90.016282 
L 383.985959 98.095121 
L 384.414901 100.291998 
L 384.672267 101.142402 
L 386.302246 105.110954 
L 386.388034 104.898353 
L 386.6454 105.607023 
L 386.731188 105.394422 
L 386.988553 106.173959 
L 387.245918 106.457427 
L 387.503284 107.024363 
L 387.760649 107.236964 
L 387.846437 107.236964 
L 388.189591 107.803901 
L 389.133263 109.221241 
L 389.219052 109.00864 
L 389.390628 109.433842 
L 389.476417 109.362975 
L 389.733782 109.504709 
L 389.81957 109.362975 
L 390.248512 109.929911 
L 390.334301 109.859044 
L 390.591666 110.213379 
L 390.677454 110.142512 
L 391.020608 110.709448 
L 392.564799 113.189793 
L 392.907953 112.410256 
L 393.165318 110.142512 
L 393.422683 104.756619 
L 393.765837 92.142292 
L 394.795297 50.047291 
L 395.052663 46.645675 
L 395.138451 46.29134 
L 395.395816 48.700818 
L 395.910547 62.094682 
L 396.682642 80.732705 
L 397.283161 88.740676 
L 397.626314 91.362755 
L 397.797891 92.071425 
L 397.88368 92.071425 
L 398.055256 92.354893 
L 398.827352 93.772234 
L 399.427871 95.969111 
L 399.513659 96.039978 
L 399.599448 96.323446 
L 399.685236 96.181712 
L 399.856813 96.46518 
L 400.02839 96.252579 
L 400.114178 96.252579 
L 400.371543 95.402175 
L 400.457332 95.331308 
L 400.714697 93.843101 
L 400.886274 93.205297 
L 401.143639 91.71709 
L 401.486792 89.59108 
L 401.744158 88.457208 
L 401.915734 87.961139 
L 402.001523 87.677671 
L 402.087311 87.748538 
L 402.1731 87.606804 
L 402.516253 88.315474 
L 403.116772 91.787957 
L 404.918328 101.567604 
L 405.004117 101.496737 
L 405.261482 102.701476 
L 405.34727 102.630609 
L 405.690424 103.835348 
L 405.776212 103.835348 
L 405.947789 104.402284 
L 406.033577 104.331417 
L 406.462519 105.040087 
L 406.548308 105.465289 
L 406.634096 105.252688 
L 406.891461 106.103092 
L 408.092499 107.945635 
L 408.178287 107.803901 
L 408.264076 107.874768 
L 408.607229 108.725172 
L 409.036171 109.221241 
L 409.293536 109.575576 
L 410.15142 110.780315 
L 412.29613 112.693724 
L 412.553496 113.402394 
L 412.810861 113.756729 
L 413.497168 115.315803 
L 413.840321 115.38667 
L 414.097687 114.323665 
L 414.269263 112.55199 
L 414.526629 107.520432 
L 414.955571 90.370617 
L 415.899243 50.54336 
L 416.242397 45.440936 
L 416.328185 45.511803 
L 416.413973 45.795271 
L 416.58555 48.488217 
L 418.21553 85.268193 
L 419.073414 90.866686 
L 419.159202 90.795819 
L 419.502356 91.362755 
L 419.588144 91.291888 
L 419.673932 91.150154 
L 419.759721 91.221021 
L 420.017086 91.858824 
L 420.274451 92.780095 
L 420.960758 94.906106 
L 421.132335 94.906106 
L 421.303912 95.189574 
L 421.3897 94.906106 
L 421.475489 94.976973 
L 421.561277 94.976973 
L 423.277045 88.244607 
L 423.448622 88.244607 
L 423.53441 88.102873 
L 423.791776 88.598942 
L 425.936485 100.433732 
L 426.279639 101.42587 
L 426.622793 102.630609 
L 426.880158 103.268412 
L 427.394888 104.614885 
L 427.566465 104.898353 
L 427.738042 105.394422 
L 427.82383 105.323555 
L 428.081195 106.103092 
L 428.424349 106.528294 
L 429.711175 108.725172 
L 429.796963 109.079507 
L 429.882752 108.937773 
L 429.96854 109.00864 
L 430.912213 110.355113 
L 431.426943 110.922049 
L 431.684308 111.418118 
L 431.770096 111.205517 
L 431.941673 111.701586 
L 432.027462 111.488985 
L 432.11325 111.914187 
L 432.199038 111.630719 
L 432.370615 111.914187 
L 432.542192 111.914187 
L 432.713769 112.197655 
L 432.885346 112.126788 
L 432.971134 112.339389 
L 433.056922 112.197655 
L 433.485864 112.977192 
L 433.74323 113.26066 
L 433.914806 113.685862 
L 434.086383 113.898463 
L 434.686902 115.103202 
L 434.77269 115.103202 
L 435.030056 115.670138 
L 435.115844 115.599271 
L 435.287421 115.811872 
L 435.716363 113.473261 
L 435.973728 109.00864 
L 436.316882 97.599052 
L 437.432131 51.748099 
L 437.689496 47.921281 
L 437.775284 47.566946 
L 437.861073 47.779547 
L 437.946861 48.346483 
L 438.204226 53.661509 
L 439.576841 87.039868 
L 440.091571 92.42576 
L 440.520513 94.197436 
L 440.777878 94.480904 
L 440.863667 94.480904 
L 441.035243 94.622638 
L 441.121032 94.622638 
L 441.635762 95.685643 
L 442.064704 97.102983 
L 442.322069 97.599052 
L 442.407858 97.599052 
L 442.493646 97.244717 
L 442.579434 97.315584 
L 442.665223 97.457318 
L 443.523107 94.33917 
L 443.86626 92.142292 
L 444.466779 89.024144 
L 444.895721 88.457208 
L 444.98151 88.457208 
L 445.753605 92.638361 
L 446.182547 95.898244 
L 446.868854 99.725062 
L 447.469373 102.276274 
L 447.555162 102.276274 
L 447.812527 103.268412 
L 448.327257 104.189683 
L 448.498834 104.685752 
L 448.584622 104.614885 
L 448.756199 105.110954 
L 448.927776 105.110954 
L 449.099353 105.748757 
L 449.185141 105.607023 
L 449.356718 106.032225 
L 449.442506 106.315693 
L 449.528295 106.244826 
L 450.729332 108.087369 
L 450.815121 108.016502 
L 451.415639 108.796039 
L 451.673005 109.150374 
L 452.273523 109.929911 
L 452.359312 109.929911 
L 452.530889 110.213379 
L 452.874042 110.000778 
L 453.045619 110.42598 
L 453.217196 110.284246 
L 453.646138 110.638581 
L 453.731926 110.992916 
L 453.817715 110.851182 
L 454.07508 111.418118 
L 454.160868 111.347251 
L 454.246656 111.701586 
L 454.332445 111.559852 
L 454.58981 112.339389 
L 454.761387 112.339389 
L 455.447694 113.544128 
L 455.705059 114.465399 
L 455.790848 114.394532 
L 455.876636 114.890601 
L 455.962424 114.607133 
L 456.048213 114.748867 
L 456.305578 113.685862 
L 456.477155 112.055921 
L 456.73452 107.166097 
L 457.077674 94.764372 
L 458.107134 53.307174 
L 458.450288 48.913419 
L 458.621865 49.692956 
L 458.87923 54.795381 
L 460.337633 89.732814 
L 460.938151 94.622638 
L 461.195517 95.614776 
L 461.367093 95.898244 
L 461.452882 95.827377 
L 461.710247 96.536047 
L 461.796035 96.46518 
L 462.224977 97.740786 
L 462.739708 99.441594 
L 462.825496 99.725062 
L 462.911285 99.583328 
L 462.997073 99.725062 
L 463.426015 98.874658 
L 463.769169 97.457318 
L 465.055995 89.59108 
L 465.141783 89.59108 
L 465.227571 89.449346 
L 465.31336 89.661947 
L 465.399148 89.520213 
L 465.656513 90.016282 
L 465.742302 90.087149 
L 466.257032 93.13443 
L 466.943339 98.024254 
L 467.9728 103.410146 
L 468.058588 103.481013 
L 468.315954 104.402284 
L 469.345414 106.811762 
L 469.431203 106.811762 
L 469.688568 107.378698 
L 469.774356 107.378698 
L 470.031722 107.945635 
L 470.11751 107.945635 
L 470.460664 108.583438 
L 470.546452 108.937773 
L 470.63224 108.796039 
L 470.718029 109.00864 
L 470.803817 108.866906 
L 471.061182 109.71731 
L 471.146971 109.71731 
L 471.404336 110.142512 
L 471.490124 110.071645 
L 471.747489 110.709448 
L 471.833278 110.638581 
L 472.004855 110.992916 
L 472.26222 111.276384 
L 472.433797 111.701586 
L 472.605373 111.701586 
L 472.862739 112.055921 
L 472.948527 112.055921 
L 473.120104 112.622857 
L 473.377469 112.906325 
L 473.549046 113.331527 
L 473.634834 113.331527 
L 474.063776 114.040197 
L 474.149565 113.96933 
L 474.321141 113.898463 
L 475.607967 114.961468 
L 475.865333 115.599271 
L 475.951121 115.528404 
L 476.465851 116.80401 
L 476.55164 116.591409 
L 476.723217 116.945744 
L 476.894793 117.016611 
L 477.06637 117.583547 
L 477.237947 117.583547 
L 477.323735 117.725281 
L 477.5811 116.874877 
L 477.752677 115.811872 
L 478.010042 111.13465 
L 478.267408 102.772343 
L 479.72581 49.055153 
L 479.897387 48.629951 
L 480.068964 50.330759 
L 480.326329 55.787519 
L 481.184213 78.039758 
L 481.698944 87.181602 
L 482.127886 91.221021 
L 482.642616 93.063563 
L 482.814193 93.276164 
L 482.899981 93.13443 
L 483.414711 93.843101 
L 483.5005 93.843101 
L 483.672077 94.33917 
L 484.272595 96.677781 
L 484.358384 96.536047 
L 484.701537 97.386451 
L 484.787326 97.386451 
L 484.873114 97.528185 
L 484.958903 97.315584 
L 485.044691 97.457318 
L 485.302056 96.819515 
L 485.64521 95.75651 
L 486.588882 91.504489 
L 486.760459 91.221021 
L 486.932036 90.654085 
L 487.275189 91.00842 
L 487.78992 92.992696 
L 488.990957 100.362865 
L 490.363572 105.67789 
L 490.44936 105.536156 
L 490.706725 106.740895 
L 490.792514 106.528294 
L 491.135667 107.307831 
L 491.736186 108.654305 
L 491.821974 108.583438 
L 492.07934 109.221241 
L 492.165128 109.221241 
L 492.679858 110.213379 
L 492.765647 110.284246 
L 492.851435 110.638581 
L 492.937224 110.567714 
L 493.1088 110.709448 
L 493.194589 110.992916 
L 493.280377 110.922049 
L 494.22405 112.268522 
L 494.395626 112.268522 
L 494.481415 112.693724 
L 494.567203 112.622857 
L 494.824568 113.189793 
L 494.910357 112.977192 
L 494.996145 113.331527 
L 495.081933 113.189793 
L 495.682452 113.96933 
L 495.768241 113.898463 
L 495.854029 114.323665 
L 495.939817 114.252798 
L 496.111394 114.181931 
L 496.282971 114.607133 
L 496.368759 114.536266 
L 496.454548 114.536266 
L 496.626125 114.819734 
L 496.711913 114.748867 
L 496.969278 115.103202 
L 497.055067 115.032335 
L 497.140855 115.528404 
L 497.226643 115.38667 
L 497.39822 115.741005 
L 497.484009 116.09534 
L 497.569797 115.953606 
L 497.655585 116.307941 
L 497.741374 116.166207 
L 498.513469 118.008749 
L 498.599258 117.937882 
L 498.770835 118.433951 
L 499.199777 117.583547 
L 499.457142 114.890601 
L 499.714507 109.00864 
L 500.143449 91.929691 
L 501.001333 56.992258 
L 501.344486 50.826828 
L 501.516063 50.472493 
L 501.68764 52.173302 
L 502.030794 60.393874 
L 502.802889 80.590971 
L 503.574985 91.71709 
L 503.83235 93.843101 
L 504.175504 95.04784 
L 504.261292 95.331308 
L 504.34708 95.260441 
L 504.947599 95.75651 
L 505.290753 97.102983 
L 505.376541 97.032116 
L 505.719695 98.59119 
L 505.805483 98.59119 
L 506.062848 99.441594 
L 506.234425 99.441594 
L 506.320213 99.725062 
L 506.663367 99.158126 
L 506.749155 99.087259 
L 507.178097 97.315584 
L 508.379135 91.858824 
L 508.550712 91.71709 
L 509.151231 93.488765 
L 510.009115 99.087259 
L 510.523845 101.780205 
L 511.553306 105.607023 
L 511.639094 105.748757 
L 511.810671 106.599161 
L 512.068036 107.024363 
L 512.325401 107.803901 
L 512.41119 107.874768 
L 512.582766 108.441704 
L 513.269074 109.646443 
L 513.44065 110.213379 
L 513.698016 110.284246 
L 514.041169 111.063783 
L 514.298534 111.559852 
L 514.384323 111.488985 
L 514.470111 111.418118 
L 514.727476 112.055921 
L 514.899053 112.055921 
L 514.984842 112.268522 
L 515.07063 112.197655 
L 515.156418 112.197655 
L 515.413784 112.55199 
L 515.499572 112.481123 
L 515.756937 112.977192 
L 515.842726 112.977192 
L 516.100091 113.614995 
L 516.185879 113.473261 
L 516.529033 114.040197 
L 516.70061 114.181931 
L 516.957975 114.678 
L 517.043763 114.607133 
L 517.21534 114.961468 
L 517.301128 114.890601 
L 517.472705 115.032335 
L 517.644282 114.819734 
L 517.901647 115.244936 
L 517.987435 115.174069 
L 518.673743 116.09534 
L 518.845319 116.237074 
L 518.931108 116.733143 
L 519.016896 116.662276 
L 519.36005 117.087478 
L 519.703203 117.51268 
L 519.788992 117.51268 
L 519.960569 118.079616 
L 520.132145 118.363084 
L 520.217934 118.504818 
L 520.475299 118.22135 
L 520.561087 118.292217 
L 520.818453 117.016611 
L 521.161606 111.063783 
L 521.50476 98.520323 
L 522.448432 59.189135 
L 522.791586 53.448908 
L 522.877374 52.952839 
L 522.963163 53.236307 
L 523.134739 54.937115 
L 523.392104 60.96081 
L 524.593142 90.795819 
L 525.022084 96.039978 
L 525.451026 98.520323 
L 525.708391 99.441594 
L 525.965756 99.937663 
L 526.223122 100.221131 
L 527.166794 102.347141 
L 527.338371 102.418008 
L 527.509948 102.630609 
L 527.853101 101.780205 
L 529.568869 91.079287 
L 529.654657 91.079287 
L 529.912023 90.441484 
L 530.340965 91.787957 
L 530.512541 92.780095 
L 531.11306 97.669919 
L 531.284637 98.520323 
L 531.713579 101.780205 
L 531.970944 102.914077 
L 532.399886 105.040087 
L 532.571463 105.465289 
L 533.25777 107.520432 
L 533.343559 107.520432 
L 534.201443 109.079507 
L 534.373019 109.362975 
L 536.860883 113.331527 
L 536.946671 113.331527 
L 537.118248 113.614995 
L 537.54719 114.181931 
L 537.632978 113.96933 
L 537.718767 114.040197 
L 537.890344 114.536266 
L 537.976132 114.323665 
L 538.319286 114.678 
L 538.834016 115.032335 
L 538.919804 115.457537 
L 539.005593 115.244936 
L 539.091381 115.315803 
L 539.863477 116.378808 
L 539.949265 116.378808 
L 540.120842 116.80401 
L 540.20663 116.874877 
L 540.378207 117.441813 
L 540.463995 117.300079 
L 540.721361 117.867015 
L 540.807149 117.654414 
L 540.978726 117.725281 
L 541.150303 117.087478 
L 541.321879 115.953606 
L 541.579245 111.276384 
L 541.922398 99.512461 
L 542.951859 57.346593 
L 543.295013 51.322897 
L 543.380801 50.968562 
L 543.552378 51.606365 
L 543.809743 56.354455 
L 544.924992 84.346922 
L 545.439723 91.221021 
L 545.954453 94.622638 
L 546.211818 95.402175 
L 546.297606 95.331308 
L 546.64076 95.75651 
L 546.812337 95.685643 
L 547.412856 97.315584 
L 547.670221 98.236855 
L 547.756009 98.307722 
L 548.013374 99.016392 
L 548.184951 99.087259 
L 548.27074 99.228993 
L 548.528105 98.662057 
L 548.613893 98.874658 
L 548.957047 97.811653 
L 549.643354 94.551771 
L 550.072296 92.567494 
L 550.243873 92.496627 
L 550.329661 92.000558 
L 550.41545 92.071425 
L 550.587026 92.000558 
L 550.93018 92.638361 
L 551.616487 96.46518 
L 552.131217 100.221131 
L 552.302794 101.000668 
L 552.903313 103.977082 
L 553.07489 104.402284 
L 553.58962 106.103092 
L 554.447504 108.583438 
L 555.2196 110.000778 
L 555.476965 110.638581 
L 555.648542 110.780315 
L 555.991695 111.559852 
L 556.163272 111.488985 
L 556.506426 112.055921 
L 557.535887 113.756729 
L 557.621675 113.544128 
L 557.964828 114.040197 
L 558.050617 113.96933 
L 558.307982 114.607133 
L 558.39377 114.607133 
L 558.565347 115.032335 
L 558.736924 115.174069 
L 558.908501 115.174069 
L 559.080078 115.528404 
L 559.165866 115.457537 
L 559.423231 115.670138 
L 559.594808 115.741005 
L 559.852173 116.166207 
L 559.937962 116.166207 
L 560.02375 116.378808 
L 560.109538 116.237074 
L 560.195327 116.520542 
L 560.281115 116.449675 
L 560.53848 116.80401 
L 560.710057 117.087478 
L 560.795846 117.016611 
L 560.967422 117.51268 
L 561.053211 117.583547 
L 561.224788 118.008749 
L 561.396364 118.292217 
L 561.567941 118.646552 
L 561.996883 119.213488 
L 562.254248 118.93002 
L 562.597402 116.307941 
L 562.854767 110.567714 
L 563.283709 93.205297 
L 564.141593 58.196997 
L 564.484747 52.102435 
L 564.570535 51.535498 
L 564.656323 51.606365 
L 564.742112 51.889834 
L 564.999477 56.283588 
L 566.45788 89.095011 
L 566.801033 92.496627 
L 567.487341 95.827377 
L 567.830494 96.110845 
L 567.916283 95.898244 
L 568.087859 96.181712 
L 568.173648 96.110845 
L 568.259436 96.536047 
L 568.345225 96.394313 
L 568.688378 97.599052 
L 569.288897 99.370727 
L 569.374685 99.370727 
L 569.546262 99.654195 
L 569.63205 99.512461 
L 569.717839 99.725062 
L 569.803627 99.29986 
L 569.889416 99.370727 
L 570.7473 96.181712 
L 571.26203 93.772234 
L 571.433607 93.417898 
L 571.605184 93.063563 
L 571.862549 92.709228 
L 572.034126 93.13443 
L 572.119914 93.13443 
L 573.063586 98.024254 
L 573.40674 100.433732 
L 574.007259 103.693614 
L 574.178836 104.26055 
L 574.521989 105.748757 
L 574.607778 105.748757 
L 574.779354 106.457427 
L 575.208296 107.662166 
L 575.465661 108.583438 
L 575.808815 109.292108 
L 575.980392 109.575576 
L 576.580911 110.780315 
L 577.009853 111.559852 
L 577.953525 112.906325 
L 578.125102 112.906325 
L 578.382467 113.473261 
L 578.725621 113.827596 
L 578.811409 113.898463 
L 579.068774 114.394532 
L 579.154563 114.394532 
L 579.240351 114.607133 
L 579.497716 114.394532 
L 579.669293 115.103202 
L 579.755081 114.819734 
L 579.926658 115.457537 
L 580.098235 115.457537 
L 580.527177 116.024473 
L 580.698754 116.024473 
L 580.784542 116.307941 
L 580.87033 116.024473 
L 581.299272 116.591409 
L 581.385061 116.520542 
L 581.556638 116.733143 
L 581.642426 116.662276 
L 581.899791 117.087478 
L 581.98558 117.016611 
L 582.071368 117.370946 
L 582.157156 117.300079 
L 582.843464 118.504818 
L 583.01504 119.000887 
L 583.358194 119.780424 
L 583.443982 119.709557 
L 583.529771 119.851291 
L 583.958713 118.079616 
L 584.216078 113.898463 
L 584.559232 102.488875 
L 585.588692 60.039539 
L 585.931846 53.87411 
L 586.017634 53.307174 
L 586.103423 53.448908 
L 586.189211 53.590642 
L 586.446576 57.41746 
L 586.961307 71.661728 
L 587.561825 85.409927 
L 587.990767 91.646223 
L 588.248133 87.961139 
L 588.333921 88.102873 
L 588.419709 88.244607 
L 588.505498 88.17374 
L 588.591286 88.102873 
L 588.677075 88.244607 
L 588.762863 88.102873 
L 589.020228 88.315474 
L 589.106017 88.102873 
L 589.191805 88.17374 
L 589.277593 88.17374 
L 589.363382 88.315474 
L 589.44917 87.961139 
L 589.620747 88.244607 
L 589.706535 88.244607 
L 589.792324 88.102873 
L 589.878112 88.17374 
L 590.049689 88.244607 
L 590.135477 87.961139 
L 590.221266 88.032006 
L 590.478631 88.244607 
L 590.650208 88.102873 
L 591.07915 88.102873 
L 591.164938 88.244607 
L 591.336515 88.032006 
L 591.508092 88.244607 
L 591.59388 88.102873 
L 591.679669 88.17374 
L 592.108611 88.17374 
L 592.194399 87.961139 
L 592.280187 88.032006 
L 592.365976 88.102873 
L 592.451764 88.386341 
L 592.623341 88.17374 
L 592.794918 88.102873 
L 592.966494 88.17374 
L 593.052283 88.102873 
L 593.138071 88.315474 
L 593.22386 88.17374 
L 593.309648 88.315474 
L 593.395436 88.102873 
L 593.567013 88.244607 
L 593.73859 88.315474 
L 593.824378 88.102873 
L 593.910167 88.244607 
L 593.995955 88.17374 
L 594.081744 88.244607 
L 594.167532 88.102873 
L 594.424897 88.386341 
L 594.682262 88.102873 
L 594.768051 88.244607 
L 594.853839 88.102873 
L 594.939628 88.315474 
L 595.025416 88.244607 
L 595.111204 88.244607 
L 595.196993 88.032006 
L 595.454358 88.315474 
L 595.540146 88.032006 
L 595.625935 88.102873 
L 595.797512 88.244607 
L 595.8833 88.102873 
L 595.969088 88.17374 
L 596.054877 88.315474 
L 596.226454 88.102873 
L 596.312242 88.032006 
L 596.39803 88.386341 
L 596.655396 87.961139 
L 596.826972 88.17374 
L 596.998549 88.102873 
L 597.084338 88.244607 
L 597.255914 88.032006 
L 597.341703 88.17374 
L 597.427491 88.102873 
L 597.684856 88.17374 
L 597.770645 88.102873 
L 598.02801 88.315474 
L 598.113798 88.032006 
L 598.199587 88.17374 
L 598.285375 88.032006 
L 598.54274 88.244607 
L 598.800105 88.032006 
L 598.971682 88.244607 
L 599.143259 88.032006 
L 599.314836 88.244607 
L 599.486413 88.032006 
L 599.572201 88.244607 
L 599.657989 88.17374 
L 599.743778 88.315474 
L 599.829566 88.244607 
L 599.915355 87.961139 
L 600.001143 88.244607 
L 600.086931 88.17374 
L 600.258508 88.102873 
L 600.430085 88.315474 
L 600.515873 88.102873 
L 600.601662 88.17374 
L 600.773239 88.244607 
L 600.944815 88.032006 
L 601.116392 88.244607 
L 601.373757 88.17374 
L 601.459546 88.17374 
L 601.545334 88.032006 
L 601.631123 88.102873 
L 601.716911 88.102873 
L 601.802699 88.244607 
L 601.888488 88.17374 
L 602.746372 88.244607 
L 602.917949 88.244607 
L 603.089525 88.102873 
L 603.175314 88.244607 
L 603.432679 88.032006 
L 603.604256 88.244607 
L 603.775833 88.17374 
L 603.861621 88.244607 
L 603.947409 88.102873 
L 604.033198 88.244607 
L 604.118986 88.17374 
L 604.290563 88.102873 
L 604.46214 88.17374 
L 604.547928 88.032006 
L 604.633716 88.102873 
L 604.719505 88.17374 
L 604.805293 87.961139 
L 604.97687 88.17374 
L 605.234235 87.961139 
L 605.4916 87.961139 
L 605.663177 88.102873 
L 605.834754 88.032006 
L 606.006331 88.032006 
L 606.092119 88.032006 
L 606.177908 88.244607 
L 606.263696 88.102873 
L 606.349484 88.17374 
L 606.521061 88.17374 
L 606.692638 88.386341 
L 606.864215 88.386341 
L 607.035792 88.315474 
L 607.207368 88.315474 
L 607.807887 88.386341 
L 607.893676 88.17374 
L 607.979464 88.315474 
L 608.065252 88.17374 
L 608.151041 88.244607 
L 608.408406 88.17374 
L 608.579983 88.17374 
L 608.837348 100.079397 
L 609.008925 99.937663 
L 609.352078 100.433732 
L 609.523655 100.291998 
L 609.609443 100.504599 
L 609.695232 100.433732 
L 609.866809 100.362865 
L 610.038385 100.504599 
L 610.724693 100.575466 
L 610.896269 100.575466 
L 610.982058 100.433732 
L 611.067846 100.504599 
L 612.268884 100.433732 
L 612.354672 100.362865 
L 612.440461 100.575466 
L 612.526249 100.362865 
L 612.612037 100.575466 
L 612.697826 100.433732 
L 612.783614 100.504599 
L 612.955191 100.504599 
L 613.212556 100.504599 
L 613.298345 100.646333 
L 613.384133 100.433732 
L 613.469921 100.504599 
L 614.670959 100.504599 
L 614.756747 100.646333 
L 614.928324 100.433732 
L 615.099901 100.646333 
L 615.185689 100.504599 
L 615.271478 100.433732 
L 615.443054 100.575466 
L 615.528843 100.433732 
L 615.786208 100.646333 
L 615.957785 100.433732 
L 616.043573 100.646333 
L 616.21515 100.504599 
L 616.300938 100.504599 
L 616.386727 100.646333 
L 616.472515 100.575466 
L 616.72988 100.433732 
L 616.901457 100.575466 
L 616.987246 100.362865 
L 617.244611 100.7172 
L 617.416188 100.433732 
L 617.501976 100.504599 
L 617.587764 100.575466 
L 617.673553 100.362865 
L 617.930918 100.575466 
L 618.102495 100.433732 
L 618.188283 100.646333 
L 618.274072 100.575466 
L 618.617225 100.433732 
L 618.788802 100.504599 
L 618.960379 100.504599 
L 619.217744 100.575466 
L 619.389321 100.504599 
L 619.560898 100.433732 
L 619.732474 100.646333 
L 619.904051 100.433732 
L 619.98984 100.575466 
L 620.075628 100.504599 
L 620.247205 100.433732 
L 620.332993 100.646333 
L 620.590358 100.362865 
L 620.933512 100.575466 
L 621.0193 100.433732 
L 621.105089 100.575466 
L 621.190877 100.504599 
L 621.362454 100.575466 
L 621.448242 100.433732 
L 621.534031 100.646333 
L 621.705607 100.433732 
L 621.962973 100.575466 
L 622.048761 100.504599 
L 622.220338 100.7172 
L 622.391915 100.433732 
L 622.563491 100.504599 
L 622.64928 100.646333 
L 622.735068 100.433732 
L 622.820857 100.575466 
L 622.906645 100.433732 
L 622.992433 100.504599 
L 623.249799 100.433732 
L 623.335587 100.7172 
L 623.507164 100.504599 
L 623.592952 100.504599 
L 623.678741 100.646333 
L 623.850317 100.504599 
L 624.021894 100.575466 
L 624.193471 100.433732 
L 624.279259 100.646333 
L 624.365048 100.575466 
L 624.536625 100.504599 
L 624.708201 100.575466 
L 624.879778 100.575466 
L 624.965567 100.575466 
L 625.051355 100.433732 
L 625.137143 100.575466 
L 625.222932 100.362865 
L 625.30872 100.504599 
L 625.394509 100.362865 
L 625.480297 100.504599 
L 625.566085 100.433732 
L 625.651874 100.221131 
L 625.823451 100.433732 
L 626.080816 100.362865 
L 626.166604 100.433732 
L 626.338181 100.291998 
L 626.423969 100.575466 
L 626.595546 100.433732 
L 626.681335 100.433732 
L 626.767123 100.7172 
L 626.9387 100.575466 
L 627.196065 100.646333 
L 627.539218 100.646333 
L 627.625007 100.788067 
L 627.882372 100.504599 
L 627.96816 100.7172 
L 628.053949 100.433732 
L 628.139737 100.7172 
L 628.225526 100.646333 
L 628.568679 100.504599 
L 628.740256 100.504599 
L 629.169198 100.504599 
L 629.340775 113.614995 
L 630.284447 97.599052 
L 630.627601 95.04784 
L 630.970754 94.055702 
L 631.485485 94.622638 
L 631.571273 95.118707 
L 631.657062 95.04784 
L 632.000215 95.969111 
L 632.171792 95.898244 
L 632.429157 96.110845 
L 633.287041 93.701366 
L 633.801771 90.937553 
L 634.230713 89.520213 
L 634.316502 89.520213 
L 634.488079 88.88241 
L 634.573867 89.095011 
L 634.659655 89.024144 
L 635.002809 89.803681 
L 635.517539 91.575356 
L 635.860693 93.772234 
L 635.946481 93.913968 
L 637.490673 102.347141 
L 637.748038 103.197545 
L 638.005403 104.189683 
L 638.262768 104.756619 
L 638.605922 105.961358 
L 639.549594 107.733034 
L 639.635382 108.016502 
L 639.721171 107.945635 
L 640.150113 108.796039 
L 640.407478 109.079507 
L 640.750632 109.71731 
L 641.608516 110.42598 
L 641.865881 110.922049 
L 642.037458 111.063783 
L 642.123246 111.347251 
L 642.209034 111.205517 
L 642.380611 111.488985 
L 642.4664 111.418118 
L 642.552188 111.347251 
L 642.637976 111.559852 
L 642.723765 111.418118 
L 642.98113 111.701586 
L 643.066918 111.630719 
L 643.238495 111.914187 
L 643.49586 111.84332 
L 643.667437 112.268522 
L 643.753226 112.126788 
L 643.924802 112.622857 
L 644.182167 112.835458 
L 644.439533 113.331527 
L 644.611109 113.685862 
L 644.696898 113.614995 
L 644.954263 114.111064 
L 645.297417 114.465399 
L 645.468993 114.536266 
L 645.812147 113.048059 
L 645.983724 110.992916 
L 646.241089 105.607023 
L 646.670031 89.874548 
L 647.527915 56.779657 
L 647.871069 50.472493 
L 648.042645 49.480355 
L 648.128434 49.622089 
L 648.471587 54.58278 
L 650.015778 87.181602 
L 650.702086 93.276164 
L 650.787874 93.13443 
L 650.959451 93.630499 
L 651.388393 94.055702 
L 652.160488 96.110845 
L 652.246277 96.536047 
L 652.332065 96.46518 
L 652.846796 97.244717 
L 653.361526 96.323446 
L 654.73414 90.016282 
L 654.991506 89.307612 
L 655.420448 89.732814 
L 655.592024 90.29975 
L 655.677813 90.512351 
L 656.535697 95.685643 
L 656.707273 96.606914 
L 657.393581 100.575466 
L 657.565157 101.000668 
L 657.908311 102.559742 
L 658.337253 104.118816 
L 658.423041 104.118816 
L 658.680407 104.685752 
L 658.937772 105.536156 
L 659.02356 105.607023 
L 659.366714 106.38656 
L 660.053021 107.945635 
L 660.224598 107.945635 
L 660.481963 108.441704 
L 660.567751 108.441704 
L 660.825117 108.866906 
L 661.339847 109.221241 
L 661.511424 109.575576 
L 661.683 110.000778 
L 661.768789 109.71731 
L 662.026154 110.071645 
L 662.111942 110.142512 
L 662.197731 110.496847 
L 662.283519 110.355113 
L 662.540884 110.780315 
L 664.428229 112.481123 
L 664.514018 112.622857 
L 664.599806 112.55199 
L 665.200325 113.118926 
L 665.629267 113.898463 
L 665.800844 113.96933 
L 665.97242 114.323665 
L 666.229786 114.678 
L 666.487151 114.394532 
L 666.572939 114.394532 
L 666.916093 111.13465 
L 667.259246 102.418008 
L 668.717649 51.748099 
L 668.889226 50.826828 
L 668.975014 51.039429 
L 669.146591 52.669371 
L 669.403956 58.267864 
L 670.090263 76.055482 
L 670.604994 86.614666 
L 670.948147 91.291888 
L 671.291301 94.197436 
L 671.634455 95.543909 
L 671.89182 96.394313 
L 672.578127 97.669919 
L 672.835492 98.307722 
L 673.092857 98.732924 
L 673.436011 98.874658 
L 673.521799 98.803791 
L 674.122318 96.46518 
L 674.465472 94.33917 
L 675.323356 88.528075 
L 675.580721 87.748538 
L 675.838086 87.535937 
L 676.18124 88.244607 
L 676.867547 92.850962 
L 677.725431 98.449456 
L 678.669103 102.630609 
L 679.183833 104.331417 
L 679.441199 104.898353 
L 679.870141 105.536156 
L 680.041717 106.173959 
L 680.127506 106.173959 
L 680.384871 106.670028 
L 680.556448 106.740895 
L 681.843274 108.654305 
L 681.929062 108.654305 
L 682.872735 110.000778 
L 683.1301 110.284246 
L 683.215888 110.638581 
L 683.301677 110.496847 
L 683.64483 110.851182 
L 683.816407 110.638581 
L 684.073772 110.992916 
L 685.103233 111.985054 
L 685.617963 112.622857 
L 685.78954 112.835458 
L 686.218482 113.685862 
L 686.30427 113.614995 
L 686.475847 113.96933 
L 686.561636 113.96933 
L 686.904789 112.977192 
L 687.076366 111.418118 
L 687.333731 106.244826 
L 687.762673 90.158016 
L 688.706346 53.378041 
L 688.963711 48.700818 
L 689.049499 47.992148 
L 689.135288 48.063015 
L 689.221076 48.063015 
L 689.392653 49.83469 
L 689.735806 57.346593 
L 690.765267 81.299641 
L 691.279997 87.961139 
L 691.794728 91.00842 
L 692.052093 91.575356 
L 692.995765 93.347031 
L 693.338919 94.480904 
L 693.596284 95.189574 
L 693.682073 95.189574 
L 693.853649 95.685643 
L 693.939438 95.685643 
L 694.025226 95.543909 
L 694.111015 95.685643 
L 694.196803 95.614776 
L 694.539957 94.835239 
L 694.797322 93.984835 
L 695.912571 88.953277 
L 696.084148 88.740676 
L 696.169936 88.528075 
L 696.255724 88.669809 
L 696.341513 88.457208 
L 696.856243 89.803681 
L 697.54255 94.197436 
L 697.714127 94.976973 
L 698.143069 97.669919 
L 698.400434 98.874658 
L 699.429895 102.701476 
L 699.515684 102.84321 
L 699.858837 104.047949 
L 699.944626 104.189683 
L 700.116202 104.756619 
L 700.459356 105.536156 
L 701.145663 107.024363 
L 701.31724 107.09523 
L 701.403028 107.236964 
L 701.574605 107.662166 
L 702.175124 108.725172 
L 702.260912 108.512571 
L 702.604066 109.150374 
L 702.947219 109.433842 
L 703.118796 109.71731 
L 703.204585 109.646443 
L 703.290373 109.929911 
L 703.376161 109.788177 
L 703.46195 110.071645 
L 703.547738 109.929911 
L 703.805103 110.42598 
L 704.319834 111.063783 
L 704.405622 110.992916 
L 704.577199 111.418118 
L 704.662987 111.418118 
L 704.834564 111.772453 
L 705.006141 111.630719 
L 705.349295 111.985054 
L 706.207179 112.764591 
L 706.378755 113.048059 
L 707.065063 113.756729 
L 707.579793 114.961468 
L 707.75137 114.961468 
L 707.837158 114.961468 
L 707.922946 115.174069 
L 708.180312 114.607133 
L 708.351888 113.614995 
L 708.609254 109.362975 
L 708.952407 98.378589 
L 710.239233 50.189025 
L 710.41081 48.275616 
L 710.496598 47.992148 
L 710.582387 48.063015 
L 710.668175 48.559084 
L 711.011329 54.795381 
L 711.955001 78.323226 
L 712.55552 87.181602 
L 713.07025 90.937553 
L 713.499192 91.929691 
L 713.584981 91.858824 
L 713.842346 92.42576 
L 713.928134 92.284026 
L 714.185499 92.780095 
L 714.70023 94.551771 
L 714.871807 95.04784 
L 715.21496 95.898244 
L 715.300749 95.75651 
L 715.472325 96.039978 
L 715.558114 96.110845 
L 716.072844 95.04784 
L 716.501786 93.063563 
L 716.84494 91.291888 
L 717.273882 89.378479 
L 717.788612 88.740676 
L 718.303343 90.228883 
L 719.418592 97.032116 
L 719.590168 97.811653 
L 720.104899 100.150264 
L 720.791206 102.772343 
L 721.13436 103.906215 
L 721.220148 103.906215 
L 721.563302 105.040087 
L 721.820667 105.607023 
L 722.16382 106.38656 
L 722.335397 106.740895 
L 722.421186 106.670028 
L 722.935916 107.803901 
L 723.021704 107.803901 
L 723.27907 108.654305 
L 723.364858 108.583438 
L 723.622223 108.937773 
L 723.708012 108.937773 
L 723.7938 109.150374 
L 723.879588 109.079507 
L 724.051165 109.575576 
L 724.136954 109.788177 
L 724.222742 109.71731 
L 724.565896 110.142512 
L 725.080626 110.851182 
L 725.166414 110.780315 
L 725.423779 111.063783 
L 725.509568 111.063783 
L 726.024298 111.701586 
L 726.882182 112.339389 
L 727.053759 112.339389 
L 727.139547 112.339389 
L 727.225336 112.55199 
L 727.311124 112.339389 
L 727.911643 113.26066 
L 727.997431 113.189793 
L 728.169008 113.473261 
L 728.254797 113.402394 
L 728.512162 113.898463 
L 728.59795 113.898463 
L 728.855315 114.536266 
L 728.941104 114.536266 
L 729.198469 115.103202 
L 729.284257 115.032335 
L 729.455834 115.315803 
L 729.541623 115.244936 
L 729.627411 115.457537 
L 729.884776 114.819734 
L 730.056353 113.756729 
L 730.313718 109.362975 
L 730.571083 101.921939 
L 732.029486 50.54336 
L 732.201063 49.692956 
L 732.286851 49.763823 
L 732.544216 53.236307 
L 734.259984 90.654085 
L 734.688926 93.843101 
L 735.203657 95.543909 
L 735.375234 95.614776 
L 735.461022 95.969111 
L 735.54681 95.75651 
L 736.061541 96.819515 
L 736.318906 97.669919 
L 736.490483 97.953387 
L 736.747848 98.165988 
L 736.919425 97.953387 
L 737.005213 98.095121 
L 737.17679 97.599052 
L 737.348367 97.17385 
L 737.605732 96.039978 
L 738.292039 91.504489 
L 738.635193 89.236745 
L 738.892558 88.244607 
L 739.064135 87.677671 
L 739.149923 87.819405 
L 739.3215 87.606804 
L 739.664653 88.740676 
L 739.922019 89.945415 
L 740.608326 94.764372 
L 741.294633 98.59119 
L 741.637787 100.221131 
L 741.723575 100.221131 
L 741.98094 101.355003 
L 742.49567 102.914077 
L 742.753036 103.764481 
L 743.010401 104.118816 
L 743.267766 104.756619 
L 743.782496 105.819624 
L 744.12565 106.244826 
L 744.383015 106.670028 
L 744.64038 106.953496 
L 744.897746 107.520432 
L 744.983534 107.378698 
L 745.069322 107.449565 
L 746.012995 108.937773 
L 746.098783 108.866906 
L 746.27036 109.292108 
L 746.356148 109.150374 
L 746.441937 109.221241 
L 746.527725 109.221241 
L 746.699302 109.504709 
L 746.78509 109.504709 
L 746.870879 109.859044 
L 746.956667 109.71731 
L 747.214032 109.929911 
L 747.385609 109.929911 
L 747.557186 110.42598 
L 747.642974 110.355113 
L 748.243493 110.992916 
L 748.672435 111.630719 
L 748.758223 111.559852 
L 749.873473 113.26066 
L 750.045049 112.835458 
L 750.130838 112.764591 
L 750.302415 111.701586 
L 750.55978 108.158236 
L 750.817145 101.213269 
L 752.275548 49.12602 
L 752.532913 47.850414 
L 752.70449 49.338621 
L 752.961855 54.58278 
L 754.334469 85.905996 
L 754.763411 90.654085 
L 755.106565 92.780095 
L 755.449718 93.347031 
L 755.535507 93.488765 
L 755.621295 93.276164 
L 755.707084 93.347031 
L 755.87866 93.559632 
L 756.393391 94.906106 
L 756.479179 94.906106 
L 756.736544 95.827377 
L 756.822333 95.898244 
L 756.908121 96.252579 
L 756.99391 96.181712 
L 757.251275 96.323446 
L 757.594428 95.685643 
L 758.280736 92.496627 
L 759.052831 88.244607 
L 759.13862 88.244607 
L 759.310196 87.890272 
L 759.481773 87.748538 
L 759.824927 88.528075 
L 760.511234 92.354893 
L 761.197541 96.677781 
L 761.540695 98.520323 
L 761.626483 98.732924 
L 761.969637 100.504599 
L 762.141213 101.071535 
L 762.31279 101.567604 
L 762.570155 102.418008 
L 764.200135 106.315693 
L 764.285923 106.244826 
L 765.315384 107.874768 
L 765.401172 107.803901 
L 766.516422 109.433842 
L 766.773787 109.788177 
L 767.374306 110.709448 
L 767.460094 110.567714 
L 767.803248 110.992916 
L 767.974824 111.063783 
L 768.23219 111.205517 
L 768.403766 110.992916 
L 768.575343 111.488985 
L 769.090074 112.055921 
L 769.175862 112.339389 
L 769.26165 112.055921 
L 769.347439 112.481123 
L 769.433227 112.410256 
L 770.548476 114.040197 
L 770.634265 114.040197 
L 770.805842 113.544128 
L 770.977418 112.55199 
L 771.234783 108.654305 
L 771.492149 100.858934 
L 772.006879 77.827157 
L 772.607398 52.811105 
L 772.950551 46.220473 
L 773.122128 45.299202 
L 773.207917 45.653537 
L 773.379493 47.70868 
L 773.894224 60.464741 
L 774.666319 78.606694 
L 775.095261 84.772124 
L 775.609992 88.669809 
L 775.953145 89.803681 
L 776.038934 89.59108 
L 776.296299 90.016282 
L 776.382087 89.803681 
L 776.467876 90.016282 
L 776.553664 89.945415 
L 776.811029 90.583218 
L 777.926278 94.055702 
L 778.097855 94.055702 
L 778.183644 94.055702 
L 778.612586 93.205297 
L 779.899412 87.110735 
L 780.156777 86.7564 
L 780.242565 86.827267 
L 780.328354 86.543799 
L 780.414142 86.614666 
L 780.757296 87.46507 
L 781.786756 93.701366 
L 781.958333 94.835239 
L 782.64464 98.307722 
L 784.103043 102.772343 
L 784.703562 103.835348 
L 784.875139 104.331417 
L 784.960927 104.331417 
L 785.304081 104.96922 
L 785.389869 105.040087 
L 785.647234 105.67789 
L 785.733023 105.536156 
L 786.41933 106.457427 
L 786.505118 106.457427 
L 788.135098 108.937773 
L 788.306674 108.937773 
L 788.478251 109.150374 
L 788.56404 109.150374 
L 788.649828 109.00864 
L 788.821405 109.362975 
L 788.992982 109.433842 
L 789.07877 109.788177 
L 789.250347 109.504709 
L 789.421924 109.788177 
L 789.507712 109.646443 
L 789.765077 110.355113 
L 789.850866 110.284246 
L 791.22348 112.410256 
L 791.652422 111.985054 
L 791.909787 110.000778 
L 792.167152 104.685752 
L 792.510306 92.284026 
L 793.539767 50.118158 
L 793.88292 45.440936 
L 793.968709 45.299202 
L 794.054497 45.440936 
L 794.311862 49.692956 
L 794.912381 65.496298 
L 795.5129 78.748428 
L 796.113419 86.118597 
L 796.370784 87.46507 
L 796.542361 88.17374 
L 796.799726 88.811543 
L 796.885514 89.095011 
L 796.971303 88.953277 
L 797.65761 90.228883 
L 798.687071 93.276164 
L 798.772859 93.488765 
L 798.858647 93.205297 
L 799.030224 93.417898 
L 799.80232 90.512351 
L 800.231262 87.890272 
L 800.31705 87.748538 
L 800.745992 85.976863 
L 800.83178 85.764262 
L 800.917569 85.905996 
L 801.089146 85.622528 
L 801.174934 85.693395 
L 801.861241 88.17374 
L 803.233856 96.748648 
L 803.748586 98.662057 
L 804.09174 100.00853 
L 804.778047 101.638471 
L 804.863835 101.567604 
L 805.035412 102.276274 
L 805.1212 102.13454 
L 805.292777 102.630609 
L 805.378566 102.630609 
L 805.635931 103.481013 
L 805.721719 103.339279 
L 806.75118 104.827486 
L 807.008545 104.96922 
L 807.180122 105.394422 
L 807.26591 105.394422 
L 807.866429 106.244826 
L 807.952217 106.244826 
L 808.123794 106.528294 
L 808.295371 106.528294 
L 808.466948 106.882629 
L 808.552736 106.740895 
L 808.724313 107.024363 
L 808.810101 106.953496 
L 808.981678 107.236964 
L 809.067467 107.166097 
L 809.239043 107.591299 
L 809.324832 107.378698 
L 809.839562 108.087369 
L 809.925351 108.087369 
L 811.212176 110.142512 
L 811.297965 110.071645 
L 811.469542 110.42598 
L 811.898484 110.780315 
L 812.07006 110.42598 
L 812.327426 108.441704 
L 812.499002 105.67789 
L 812.842156 95.685643 
L 813.528463 66.701038 
L 814.043194 50.259892 
L 814.300559 46.716542 
L 814.386347 46.503941 
L 814.472136 46.787409 
L 814.643712 48.488217 
L 815.072654 58.622199 
L 815.673173 74.92161 
L 816.273692 85.622528 
L 816.874211 90.087149 
L 817.303153 91.291888 
L 817.388941 91.150154 
L 817.646306 91.858824 
L 817.732095 91.929691 
L 818.075248 92.921829 
L 818.675767 94.197436 
L 818.933132 94.268303 
L 819.190497 93.913968 
L 819.276286 93.772234 
L 819.619439 92.213159 
L 820.992054 84.701257 
L 821.249419 84.488656 
L 821.506784 84.772124 
L 822.021515 87.606804 
L 822.536245 91.433622 
L 823.908859 98.945525 
L 825.538839 102.701476 
L 826.654088 104.614885 
L 826.739876 104.544018 
L 826.825665 104.544018 
L 827.168818 105.394422 
L 827.940914 106.173959 
L 828.713009 107.236964 
L 828.884586 107.307831 
L 829.22774 107.803901 
L 829.399317 107.803901 
L 829.656682 107.945635 
L 829.74247 107.874768 
L 829.828259 108.29997 
L 829.914047 108.229103 
L 829.999835 108.087369 
L 830.342989 108.725172 
L 830.514566 108.796039 
L 830.771931 109.362975 
L 832.144545 111.418118 
L 832.316122 111.418118 
L 832.487699 110.780315 
L 832.745064 108.29997 
L 833.002429 102.701476 
L 833.431371 86.7564 
L 834.289255 51.464631 
L 834.632409 45.157468 
L 834.718197 44.377931 
L 834.803986 44.519665 
L 834.975562 45.866138 
L 835.232928 50.897695 
L 836.433965 78.323226 
L 836.862907 83.283917 
L 837.291849 85.622528 
L 837.549214 86.260331 
L 837.892368 86.472932 
L 837.978156 86.331198 
L 838.664464 88.315474 
L 839.264982 90.795819 
L 839.608136 91.575356 
L 839.779713 91.929691 
L 839.865501 91.858824 
L 839.95129 92.000558 
L 840.894962 88.740676 
L 841.152327 87.252469 
L 841.752846 85.622528 
L 841.838634 85.693395 
L 841.924423 85.409927 
L 842.267576 85.905996 
L 844.326498 97.17385 
L 845.012805 99.725062 
L 845.098593 99.795929 
L 845.355959 100.7172 
L 845.527535 101.213269 
L 845.613324 101.142402 
L 845.7849 101.709338 
L 845.870689 101.709338 
L 846.213842 102.559742 
L 846.471208 102.914077 
L 847.92961 105.252688 
L 848.015399 105.181821 
L 848.358552 105.819624 
L 848.615918 106.103092 
L 848.873283 106.599161 
L 849.04486 106.670028 
L 849.645378 107.449565 
L 849.731167 107.378698 
L 850.245897 108.016502 
L 850.331686 107.874768 
L 850.589051 108.370837 
L 850.760628 108.29997 
L 851.017993 108.512571 
L 851.18957 108.796039 
L 851.532723 109.292108 
L 851.618511 109.221241 
L 851.961665 109.788177 
L 852.047453 109.859044 
L 852.21903 110.213379 
L 852.476395 110.709448 
L 852.733761 111.488985 
L 853.162703 111.985054 
L 853.334279 112.055921 
L 853.505856 111.701586 
L 853.763221 110.071645 
L 854.106375 102.84321 
L 854.535317 86.614666 
L 855.393201 51.960701 
L 855.736355 45.795271 
L 855.907931 45.440936 
L 855.99372 45.724404 
L 856.251085 49.905557 
L 857.709488 81.512242 
L 858.224218 86.331198 
L 858.65316 87.46507 
L 858.738948 87.46507 
L 858.824737 87.677671 
L 858.910525 87.46507 
L 858.996314 87.606804 
L 859.082102 87.394203 
L 859.253679 87.748538 
L 859.511044 88.315474 
L 859.768409 89.59108 
L 860.197351 91.221021 
L 860.454716 91.929691 
L 860.712082 92.42576 
L 860.883658 92.354893 
L 861.141024 92.071425 
L 861.741542 89.803681 
L 862.342061 86.827267 
L 862.599426 86.189464 
L 862.771003 86.118597 
L 863.028368 85.976863 
L 863.714675 88.528075 
L 864.315194 92.567494 
L 864.486771 93.488765 
L 865.001501 96.394313 
L 865.430443 98.024254 
L 865.687809 99.228993 
L 866.202539 100.929801 
L 866.288327 100.858934 
L 867.74673 104.189683 
L 867.918307 104.473151 
L 868.433037 105.252688 
L 868.518826 105.181821 
L 868.947768 105.748757 
L 869.033556 105.748757 
L 869.119344 106.173959 
L 869.205133 106.103092 
L 869.719863 106.811762 
L 869.89144 106.882629 
L 870.234594 107.307831 
L 870.320382 107.236964 
L 870.663536 107.591299 
L 870.749324 107.520432 
L 871.178266 108.229103 
L 871.264054 108.087369 
L 872.207727 109.433842 
L 872.808246 110.071645 
L 872.894034 110.284246 
L 872.979822 110.142512 
L 873.580341 111.205517 
L 873.66613 111.063783 
L 873.751918 111.13465 
L 874.18086 112.339389 
L 874.352437 112.197655 
L 874.524014 112.693724 
L 874.781379 112.55199 
L 874.867167 112.764591 
L 875.210321 110.992916 
L 875.467686 106.953496 
L 875.725051 99.441594 
L 876.32557 73.008201 
L 876.8403 53.307174 
L 877.097665 48.346483 
L 877.269242 46.929143 
L 877.355031 47.070877 
L 877.526607 48.842552 
L 877.783973 54.157578 
L 878.727645 78.394093 
L 879.156587 85.551661 
L 879.671317 89.520213 
L 879.842894 90.158016 
L 880.014471 91.150154 
L 880.100259 91.079287 
L 880.61499 91.71709 
L 880.786566 91.787957 
L 880.872355 91.858824 
L 881.301297 93.276164 
L 881.472874 93.701366 
L 881.816027 94.764372 
L 881.901816 94.480904 
L 881.987604 94.551771 
L 882.073392 94.480904 
L 882.159181 94.693505 
L 882.673911 92.780095 
L 883.446007 87.819405 
L 883.703372 86.402065 
L 884.046526 85.126459 
L 884.218102 84.913858 
L 884.303891 85.055592 
L 884.818621 86.331198 
L 885.247563 89.661947 
L 885.848082 93.772234 
L 886.277024 96.323446 
L 887.220696 99.795929 
L 887.735427 101.284136 
L 887.821215 101.355003 
L 888.07858 101.921939 
L 888.164369 101.992806 
L 888.421734 102.559742 
L 888.507522 102.559742 
L 888.679099 102.914077 
L 888.764887 102.84321 
L 889.108041 103.481013 
L 889.279618 103.693614 
L 889.536983 104.189683 
L 889.70856 104.473151 
L 890.394867 105.607023 
L 890.480655 105.536156 
L 890.652232 105.819624 
L 891.424328 107.024363 
L 891.510116 106.740895 
L 891.681693 107.236964 
L 891.85327 107.236964 
L 892.196423 107.591299 
L 892.625365 107.803901 
L 892.796942 107.874768 
L 892.88273 108.087369 
L 892.968519 108.016502 
L 893.054307 108.016502 
L 893.569038 108.937773 
L 893.740614 170.379466 
L 893.912191 170.379466 
L 894.083768 170.379466 
L 894.255345 170.379466 
L 903.177338 170.308599 
L 903.263127 170.5212 
L 903.348915 170.379466 
L 903.434703 170.450333 
L 903.692068 170.379466 
L 906.26572 170.379466 
L 906.437297 58.055263 
L 906.608874 56.921391 
L 906.694662 57.063125 
L 906.780451 56.992258 
L 906.952028 56.921391 
L 907.037816 57.063125 
L 907.123604 56.921391 
L 907.209393 56.992258 
L 907.466758 56.921391 
L 907.552546 57.063125 
L 907.638335 56.992258 
L 914.84456 56.992258 
L 915.016137 169.458195 
L 915.187714 170.308599 
L 915.35929 170.379466 
L 915.530867 170.308599 
L 915.616656 170.450333 
L 915.702444 170.379466 
L 927.71282 170.379466 
L 927.884396 57.842662 
L 928.055973 56.921391 
L 928.141762 57.063125 
L 928.313338 56.921391 
L 928.913857 56.921391 
L 928.999646 57.063125 
L 929.085434 56.992258 
L 936.291659 56.921391 
L 936.463236 169.670796 
L 936.634813 170.308599 
L 936.720601 170.450333 
L 936.80639 170.379466 
L 936.977967 170.379466 
L 937.063755 170.450333 
L 937.149543 170.308599 
L 937.235332 170.450333 
L 937.32112 170.379466 
L 949.159919 170.379466 
L 949.331496 57.630061 
L 949.503072 56.921391 
L 949.588861 57.063125 
L 949.674649 56.992258 
L 949.846226 56.921391 
L 950.103591 56.992258 
L 950.360956 56.921391 
L 950.446745 57.063125 
L 950.532533 56.992258 
L 957.738759 56.992258 
L 957.910335 169.81253 
L 958.081912 170.308599 
L 958.167701 170.450333 
L 958.253489 170.379466 
L 958.425066 170.308599 
L 958.682431 170.450333 
L 958.939796 170.308599 
L 959.025585 170.450333 
L 959.111373 170.379466 
L 970.607018 170.450333 
L 970.778595 57.41746 
L 970.950172 56.921391 
L 971.03596 57.063125 
L 971.121749 56.992258 
L 979.100069 56.921391 
L 979.185858 67.905777 
L 979.357435 169.954264 
L 979.529011 170.379466 
L 979.700588 170.379466 
L 991.968329 170.379466 
L 992.054117 143.379137 
L 992.225694 57.346593 
L 992.397271 56.921391 
L 992.483059 57.063125 
L 992.568848 56.921391 
L 992.654636 56.992258 
L 1000.547169 56.921391 
L 1000.718746 39.346374 
L 1000.804534 39.062906 
L 1000.890322 39.346374 
L 1001.147688 42.960591 
L 1002.348725 70.882191 
L 1002.777667 75.842881 
L 1003.120821 78.110625 
L 1003.378186 78.748428 
L 1003.549763 78.677561 
L 1003.892916 78.323226 
L 1004.064493 78.677561 
L 1004.150281 78.535827 
L 1004.7508 80.732705 
L 1005.179742 83.142183 
L 1005.866049 84.63039 
L 1006.037626 84.346922 
L 1006.294991 83.709119 
L 1006.638145 82.008311 
L 1006.89551 80.661838 
L 1007.238664 78.961029 
L 1007.581817 77.968891 
L 1007.753394 77.968891 
L 1007.839182 78.181492 
L 1007.924971 78.039758 
L 1008.611278 81.157907 
L 1009.297585 85.551661 
L 1009.55495 86.827267 
L 1009.812316 88.386341 
L 1010.327046 90.654085 
L 1010.498623 91.00842 
L 1010.755988 91.858824 
L 1011.18493 93.063563 
L 1011.270718 92.992696 
L 1011.69966 94.126569 
L 1012.214391 94.976973 
L 1012.385968 95.402175 
L 1012.471756 95.402175 
L 1012.986486 96.039978 
L 1013.243851 96.323446 
L 1013.32964 96.606914 
L 1013.415428 96.46518 
L 1013.501217 96.536047 
L 1013.930159 97.102983 
L 1014.015947 97.032116 
L 1014.273312 97.386451 
L 1014.444889 97.244717 
L 1014.788043 97.528185 
L 1014.873831 97.386451 
L 1015.131196 97.599052 
L 1015.216985 97.528185 
L 1015.47435 98.024254 
L 1015.560138 97.811653 
L 1016.589599 99.725062 
L 1017.018541 100.504599 
L 1017.61906 101.284136 
L 1017.962213 100.858934 
L 1018.13379 99.937663 
L 1018.305367 97.953387 
L 1018.562732 92.284026 
L 1018.905886 78.748428 
L 1019.849558 38.779438 
L 1020.106923 35.094353 
L 1020.192712 35.023486 
L 1020.2785 35.236087 
L 1020.450077 37.858166 
L 1020.964807 52.315036 
L 1021.565326 67.551442 
L 1022.165845 74.850743 
L 1022.508998 76.33895 
L 1022.680575 76.905886 
L 1022.766364 76.693285 
L 1023.023729 76.622418 
L 1023.109517 76.551551 
L 1023.195306 76.693285 
L 1023.281094 76.551551 
L 1023.366882 76.622418 
L 1023.881613 78.535827 
L 1024.482131 81.937444 
L 1024.825285 82.716981 
L 1024.996862 82.787848 
L 1025.168439 82.646114 
L 1025.425804 81.724843 
L 1025.511592 81.512242 
L 1026.026323 78.677561 
L 1026.197899 77.827157 
L 1026.626841 76.197216 
L 1026.798418 75.772014 
L 1026.969995 75.842881 
L 1027.055783 75.701147 
L 1027.141572 76.197216 
L 1027.22736 76.126349 
L 1027.570514 77.75629 
L 1028.256821 82.291779 
L 1028.342609 82.50438 
L 1028.85734 85.622528 
L 1029.457859 88.598942 
L 1029.629435 89.095011 
L 1030.573108 91.858824 
L 1031.259415 93.347031 
L 1031.345203 93.347031 
L 1031.602568 93.843101 
L 1031.688357 93.701366 
L 1032.288876 94.551771 
L 1032.374664 94.551771 
L 1032.975183 95.331308 
L 1033.14676 95.402175 
L 1033.318336 95.827377 
L 1033.66149 96.181712 
L 1033.833067 96.46518 
L 1034.004644 96.536047 
L 1034.090432 96.961249 
L 1034.17622 96.890382 
L 1034.347797 97.17385 
L 1034.433586 97.315584 
L 1034.519374 97.17385 
L 1034.605162 97.244717 
L 1034.690951 97.457318 
L 1034.776739 97.386451 
L 1034.862528 97.386451 
L 1035.119893 97.599052 
L 1035.205681 97.669919 
L 1035.29147 97.953387 
L 1035.377258 97.88252 
L 1036.063565 98.520323 
L 1036.578295 99.583328 
L 1036.664084 99.583328 
L 1037.007237 100.433732 
L 1037.093026 100.433732 
L 1037.350391 101.42587 
L 1037.521968 101.780205 
L 1037.607756 101.638471 
L 1037.779333 102.205407 
L 1038.036698 102.418008 
L 1038.379852 101.000668 
L 1038.637217 97.244717 
L 1038.894582 90.158016 
L 1039.323524 70.527856 
L 1039.924043 41.401517 
L 1040.267197 32.472274 
L 1040.438773 30.9132 
L 1040.524562 30.9132 
L 1040.61035 31.480136 
L 1040.867715 37.007762 
L 1042.068753 65.425431 
L 1042.497695 68.685314 
L 1042.840848 69.819186 
L 1042.926637 69.96092 
L 1043.26979 69.393984 
L 1043.355579 69.535718 
L 1043.698732 69.181383 
L 1043.784521 69.181383 
L 1044.299251 71.236526 
L 1044.38504 71.661728 
L 1044.89977 76.33895 
L 1045.242924 78.252359 
L 1045.328712 78.46496 
L 1045.500289 79.17363 
L 1045.757654 79.244497 
L 1045.843442 79.244497 
L 1046.100808 78.748428 
L 1046.958692 75.559413 
L 1047.473422 74.567275 
L 1047.644999 74.496408 
L 1048.073941 75.275945 
L 1048.846036 79.244497 
L 1049.18919 81.653976 
L 1050.218651 87.039868 
L 1050.390227 87.819405 
L 1050.476016 87.748538 
L 1050.647593 88.811543 
L 1050.819169 89.236745 
L 1051.3339 90.583218 
L 1051.934419 91.787957 
L 1052.020207 91.787957 
L 1052.363361 92.354893 
L 1052.449149 92.354893 
L 1052.706514 92.709228 
L 1052.878091 92.921829 
L 1052.878091 92.921829 
" style="fill:none;stroke:#1f77b4;stroke-linecap:square;stroke-width:1.5;"/>
   </g>
   <g id="patch_3">
    <path d="M 152.19 177.5016 
L 152.19 23.9328 
" style="fill:none;stroke:#000000;stroke-linecap:square;stroke-linejoin:miter;stroke-width:0.8;"/>
   </g>
   <g id="patch_4">
    <path d="M 1095.768 177.5016 
L 1095.768 23.9328 
" style="fill:none;stroke:#000000;stroke-linecap:square;stroke-linejoin:miter;stroke-width:0.8;"/>
   </g>
   <g id="patch_5">
    <path d="M 152.19 177.5016 
L 1095.768 177.5016 
" style="fill:none;stroke:#000000;stroke-linecap:square;stroke-linejoin:miter;stroke-width:0.8;"/>
   </g>
   <g id="patch_6">
    <path d="M 152.19 23.9328 
L 1095.768 23.9328 
" style="fill:none;stroke:#000000;stroke-linecap:square;stroke-linejoin:miter;stroke-width:0.8;"/>
   </g>
  </g>
 </g>
 <defs>
  <clipPath id="p17ee57225f">
   <rect height="153.5688" width="943.578" x="152.19" y="23.9328"/>
  </clipPath>
 </defs>
</svg>
