<?xml version="1.0" encoding="utf-8" standalone="no"?>
<!DOCTYPE svg PUBLIC "-//W3C//DTD SVG 1.1//EN"
  "http://www.w3.org/Graphics/SVG/1.1/DTD/svg11.dtd">
<svg height="345.6pt" version="1.1" viewBox="0 0 460.8 345.6" width="460.8pt" xmlns="http://www.w3.org/2000/svg" xmlns:xlink="http://www.w3.org/1999/xlink">
 <metadata>
  <rdf:RDF xmlns:cc="http://creativecommons.org/ns#" xmlns:dc="http://purl.org/dc/elements/1.1/" xmlns:rdf="http://www.w3.org/1999/02/22-rdf-syntax-ns#">
   <cc:Work>
    <dc:type rdf:resource="http://purl.org/dc/dcmitype/StillImage"/>
    <dc:date>2022-05-20T23:49:51.226303</dc:date>
    <dc:format>image/svg+xml</dc:format>
    <dc:creator>
     <cc:Agent>
      <dc:title>Matplotlib v3.4.2, https://matplotlib.org/</dc:title>
     </cc:Agent>
    </dc:creator>
   </cc:Work>
  </rdf:RDF>
 </metadata>
 <defs>
  <style type="text/css">*{stroke-linecap:butt;stroke-linejoin:round;}</style>
 </defs>
 <g id="figure_1">
  <g id="patch_1">
   <path d="M 0 345.6 
L 460.8 345.6 
L 460.8 0 
L 0 0 
z
" style="fill:#ffffff;"/>
  </g>
  <g id="axes_1">
   <g id="patch_2">
    <path d="M 57.6 307.584 
L 414.72 307.584 
L 414.72 41.472 
L 57.6 41.472 
z
" style="fill:#ffffff;"/>
   </g>
   <g id="matplotlib.axis_1">
    <g id="xtick_1">
     <g id="line2d_1">
      <defs>
       <path d="M 0 0 
L 0 3.5 
" id="mcec5b5b212" style="stroke:#000000;stroke-width:0.8;"/>
      </defs>
      <g>
       <use style="stroke:#000000;stroke-width:0.8;" x="73.832727" xlink:href="#mcec5b5b212" y="307.584"/>
      </g>
     </g>
     <g id="text_1">
      <!-- 0 -->
      <g transform="translate(70.651477 322.182437)scale(0.1 -0.1)">
       <defs>
        <path d="M 2034 4250 
Q 1547 4250 1301 3770 
Q 1056 3291 1056 2328 
Q 1056 1369 1301 889 
Q 1547 409 2034 409 
Q 2525 409 2770 889 
Q 3016 1369 3016 2328 
Q 3016 3291 2770 3770 
Q 2525 4250 2034 4250 
z
M 2034 4750 
Q 2819 4750 3233 4129 
Q 3647 3509 3647 2328 
Q 3647 1150 3233 529 
Q 2819 -91 2034 -91 
Q 1250 -91 836 529 
Q 422 1150 422 2328 
Q 422 3509 836 4129 
Q 1250 4750 2034 4750 
z
" id="DejaVuSans-30" transform="scale(0.015625)"/>
       </defs>
       <use xlink:href="#DejaVuSans-30"/>
      </g>
     </g>
    </g>
    <g id="xtick_2">
     <g id="line2d_2">
      <g>
       <use style="stroke:#000000;stroke-width:0.8;" x="119.270732" xlink:href="#mcec5b5b212" y="307.584"/>
      </g>
     </g>
     <g id="text_2">
      <!-- 200 -->
      <g transform="translate(109.726982 322.182437)scale(0.1 -0.1)">
       <defs>
        <path d="M 1228 531 
L 3431 531 
L 3431 0 
L 469 0 
L 469 531 
Q 828 903 1448 1529 
Q 2069 2156 2228 2338 
Q 2531 2678 2651 2914 
Q 2772 3150 2772 3378 
Q 2772 3750 2511 3984 
Q 2250 4219 1831 4219 
Q 1534 4219 1204 4116 
Q 875 4013 500 3803 
L 500 4441 
Q 881 4594 1212 4672 
Q 1544 4750 1819 4750 
Q 2544 4750 2975 4387 
Q 3406 4025 3406 3419 
Q 3406 3131 3298 2873 
Q 3191 2616 2906 2266 
Q 2828 2175 2409 1742 
Q 1991 1309 1228 531 
z
" id="DejaVuSans-32" transform="scale(0.015625)"/>
       </defs>
       <use xlink:href="#DejaVuSans-32"/>
       <use x="63.623047" xlink:href="#DejaVuSans-30"/>
       <use x="127.246094" xlink:href="#DejaVuSans-30"/>
      </g>
     </g>
    </g>
    <g id="xtick_3">
     <g id="line2d_3">
      <g>
       <use style="stroke:#000000;stroke-width:0.8;" x="164.708737" xlink:href="#mcec5b5b212" y="307.584"/>
      </g>
     </g>
     <g id="text_3">
      <!-- 400 -->
      <g transform="translate(155.164987 322.182437)scale(0.1 -0.1)">
       <defs>
        <path d="M 2419 4116 
L 825 1625 
L 2419 1625 
L 2419 4116 
z
M 2253 4666 
L 3047 4666 
L 3047 1625 
L 3713 1625 
L 3713 1100 
L 3047 1100 
L 3047 0 
L 2419 0 
L 2419 1100 
L 313 1100 
L 313 1709 
L 2253 4666 
z
" id="DejaVuSans-34" transform="scale(0.015625)"/>
       </defs>
       <use xlink:href="#DejaVuSans-34"/>
       <use x="63.623047" xlink:href="#DejaVuSans-30"/>
       <use x="127.246094" xlink:href="#DejaVuSans-30"/>
      </g>
     </g>
    </g>
    <g id="xtick_4">
     <g id="line2d_4">
      <g>
       <use style="stroke:#000000;stroke-width:0.8;" x="210.146742" xlink:href="#mcec5b5b212" y="307.584"/>
      </g>
     </g>
     <g id="text_4">
      <!-- 600 -->
      <g transform="translate(200.602992 322.182437)scale(0.1 -0.1)">
       <defs>
        <path d="M 2113 2584 
Q 1688 2584 1439 2293 
Q 1191 2003 1191 1497 
Q 1191 994 1439 701 
Q 1688 409 2113 409 
Q 2538 409 2786 701 
Q 3034 994 3034 1497 
Q 3034 2003 2786 2293 
Q 2538 2584 2113 2584 
z
M 3366 4563 
L 3366 3988 
Q 3128 4100 2886 4159 
Q 2644 4219 2406 4219 
Q 1781 4219 1451 3797 
Q 1122 3375 1075 2522 
Q 1259 2794 1537 2939 
Q 1816 3084 2150 3084 
Q 2853 3084 3261 2657 
Q 3669 2231 3669 1497 
Q 3669 778 3244 343 
Q 2819 -91 2113 -91 
Q 1303 -91 875 529 
Q 447 1150 447 2328 
Q 447 3434 972 4092 
Q 1497 4750 2381 4750 
Q 2619 4750 2861 4703 
Q 3103 4656 3366 4563 
z
" id="DejaVuSans-36" transform="scale(0.015625)"/>
       </defs>
       <use xlink:href="#DejaVuSans-36"/>
       <use x="63.623047" xlink:href="#DejaVuSans-30"/>
       <use x="127.246094" xlink:href="#DejaVuSans-30"/>
      </g>
     </g>
    </g>
    <g id="xtick_5">
     <g id="line2d_5">
      <g>
       <use style="stroke:#000000;stroke-width:0.8;" x="255.584747" xlink:href="#mcec5b5b212" y="307.584"/>
      </g>
     </g>
     <g id="text_5">
      <!-- 800 -->
      <g transform="translate(246.040997 322.182437)scale(0.1 -0.1)">
       <defs>
        <path d="M 2034 2216 
Q 1584 2216 1326 1975 
Q 1069 1734 1069 1313 
Q 1069 891 1326 650 
Q 1584 409 2034 409 
Q 2484 409 2743 651 
Q 3003 894 3003 1313 
Q 3003 1734 2745 1975 
Q 2488 2216 2034 2216 
z
M 1403 2484 
Q 997 2584 770 2862 
Q 544 3141 544 3541 
Q 544 4100 942 4425 
Q 1341 4750 2034 4750 
Q 2731 4750 3128 4425 
Q 3525 4100 3525 3541 
Q 3525 3141 3298 2862 
Q 3072 2584 2669 2484 
Q 3125 2378 3379 2068 
Q 3634 1759 3634 1313 
Q 3634 634 3220 271 
Q 2806 -91 2034 -91 
Q 1263 -91 848 271 
Q 434 634 434 1313 
Q 434 1759 690 2068 
Q 947 2378 1403 2484 
z
M 1172 3481 
Q 1172 3119 1398 2916 
Q 1625 2713 2034 2713 
Q 2441 2713 2670 2916 
Q 2900 3119 2900 3481 
Q 2900 3844 2670 4047 
Q 2441 4250 2034 4250 
Q 1625 4250 1398 4047 
Q 1172 3844 1172 3481 
z
" id="DejaVuSans-38" transform="scale(0.015625)"/>
       </defs>
       <use xlink:href="#DejaVuSans-38"/>
       <use x="63.623047" xlink:href="#DejaVuSans-30"/>
       <use x="127.246094" xlink:href="#DejaVuSans-30"/>
      </g>
     </g>
    </g>
    <g id="xtick_6">
     <g id="line2d_6">
      <g>
       <use style="stroke:#000000;stroke-width:0.8;" x="301.022752" xlink:href="#mcec5b5b212" y="307.584"/>
      </g>
     </g>
     <g id="text_6">
      <!-- 1000 -->
      <g transform="translate(288.297752 322.182437)scale(0.1 -0.1)">
       <defs>
        <path d="M 794 531 
L 1825 531 
L 1825 4091 
L 703 3866 
L 703 4441 
L 1819 4666 
L 2450 4666 
L 2450 531 
L 3481 531 
L 3481 0 
L 794 0 
L 794 531 
z
" id="DejaVuSans-31" transform="scale(0.015625)"/>
       </defs>
       <use xlink:href="#DejaVuSans-31"/>
       <use x="63.623047" xlink:href="#DejaVuSans-30"/>
       <use x="127.246094" xlink:href="#DejaVuSans-30"/>
       <use x="190.869141" xlink:href="#DejaVuSans-30"/>
      </g>
     </g>
    </g>
    <g id="xtick_7">
     <g id="line2d_7">
      <g>
       <use style="stroke:#000000;stroke-width:0.8;" x="346.460757" xlink:href="#mcec5b5b212" y="307.584"/>
      </g>
     </g>
     <g id="text_7">
      <!-- 1200 -->
      <g transform="translate(333.735757 322.182437)scale(0.1 -0.1)">
       <use xlink:href="#DejaVuSans-31"/>
       <use x="63.623047" xlink:href="#DejaVuSans-32"/>
       <use x="127.246094" xlink:href="#DejaVuSans-30"/>
       <use x="190.869141" xlink:href="#DejaVuSans-30"/>
      </g>
     </g>
    </g>
    <g id="xtick_8">
     <g id="line2d_8">
      <g>
       <use style="stroke:#000000;stroke-width:0.8;" x="391.898762" xlink:href="#mcec5b5b212" y="307.584"/>
      </g>
     </g>
     <g id="text_8">
      <!-- 1400 -->
      <g transform="translate(379.173762 322.182437)scale(0.1 -0.1)">
       <use xlink:href="#DejaVuSans-31"/>
       <use x="63.623047" xlink:href="#DejaVuSans-34"/>
       <use x="127.246094" xlink:href="#DejaVuSans-30"/>
       <use x="190.869141" xlink:href="#DejaVuSans-30"/>
      </g>
     </g>
    </g>
   </g>
   <g id="matplotlib.axis_2">
    <g id="ytick_1">
     <g id="line2d_9">
      <defs>
       <path d="M 0 0 
L -3.5 0 
" id="m11f22abaeb" style="stroke:#000000;stroke-width:0.8;"/>
      </defs>
      <g>
       <use style="stroke:#000000;stroke-width:0.8;" x="57.6" xlink:href="#m11f22abaeb" y="298.053298"/>
      </g>
     </g>
     <g id="text_9">
      <!-- 0 -->
      <g transform="translate(44.2375 301.852517)scale(0.1 -0.1)">
       <use xlink:href="#DejaVuSans-30"/>
      </g>
     </g>
    </g>
    <g id="ytick_2">
     <g id="line2d_10">
      <g>
       <use style="stroke:#000000;stroke-width:0.8;" x="57.6" xlink:href="#m11f22abaeb" y="254.262311"/>
      </g>
     </g>
     <g id="text_10">
      <!-- 2 -->
      <g transform="translate(44.2375 258.06153)scale(0.1 -0.1)">
       <use xlink:href="#DejaVuSans-32"/>
      </g>
     </g>
    </g>
    <g id="ytick_3">
     <g id="line2d_11">
      <g>
       <use style="stroke:#000000;stroke-width:0.8;" x="57.6" xlink:href="#m11f22abaeb" y="210.471324"/>
      </g>
     </g>
     <g id="text_11">
      <!-- 4 -->
      <g transform="translate(44.2375 214.270543)scale(0.1 -0.1)">
       <use xlink:href="#DejaVuSans-34"/>
      </g>
     </g>
    </g>
    <g id="ytick_4">
     <g id="line2d_12">
      <g>
       <use style="stroke:#000000;stroke-width:0.8;" x="57.6" xlink:href="#m11f22abaeb" y="166.680338"/>
      </g>
     </g>
     <g id="text_12">
      <!-- 6 -->
      <g transform="translate(44.2375 170.479556)scale(0.1 -0.1)">
       <use xlink:href="#DejaVuSans-36"/>
      </g>
     </g>
    </g>
    <g id="ytick_5">
     <g id="line2d_13">
      <g>
       <use style="stroke:#000000;stroke-width:0.8;" x="57.6" xlink:href="#m11f22abaeb" y="122.889351"/>
      </g>
     </g>
     <g id="text_13">
      <!-- 8 -->
      <g transform="translate(44.2375 126.68857)scale(0.1 -0.1)">
       <use xlink:href="#DejaVuSans-38"/>
      </g>
     </g>
    </g>
    <g id="ytick_6">
     <g id="line2d_14">
      <g>
       <use style="stroke:#000000;stroke-width:0.8;" x="57.6" xlink:href="#m11f22abaeb" y="79.098364"/>
      </g>
     </g>
     <g id="text_14">
      <!-- 10 -->
      <g transform="translate(37.875 82.897583)scale(0.1 -0.1)">
       <use xlink:href="#DejaVuSans-31"/>
       <use x="63.623047" xlink:href="#DejaVuSans-30"/>
      </g>
     </g>
    </g>
   </g>
   <g id="line2d_15">
    <path clip-path="url(#pba5a32c7a8)" d="M 73.832727 274.990289 
L 74.287107 280.508642 
L 74.514297 280.586187 
L 74.741487 278.782933 
L 74.968677 275.090762 
L 75.423057 262.216337 
L 75.877437 248.062982 
L 76.104628 248.103995 
L 77.467768 260.937305 
L 77.694958 262.427414 
L 78.603718 272.21442 
L 78.830908 274.066017 
L 79.058098 274.782291 
L 79.285288 274.697633 
L 79.512478 273.855309 
L 80.194048 269.924028 
L 80.421238 269.708557 
L 80.648428 272.258626 
L 81.329998 285.283602 
L 81.784378 290.379889 
L 82.011568 291.698961 
L 82.238758 292.144131 
L 82.465948 291.886034 
L 82.693138 290.943777 
L 82.920328 289.002035 
L 83.374708 281.263326 
L 83.829088 270.575216 
L 84.056278 269.839648 
L 84.510658 274.11935 
L 85.192229 281.989097 
L 85.646609 285.301888 
L 85.873799 286.614795 
L 86.100989 287.147338 
L 86.328179 286.63257 
L 86.782559 283.730794 
L 87.236939 277.62387 
L 88.145699 261.63403 
L 88.372889 259.690364 
L 88.600079 261.561418 
L 89.508839 279.562964 
L 89.963219 283.723993 
L 90.190409 284.836485 
L 90.417599 284.819905 
L 90.644789 283.981843 
L 90.871979 282.393136 
L 91.326359 276.153648 
L 92.235119 256.847816 
L 92.462309 258.719489 
L 92.916689 265.395723 
L 93.371069 272.350724 
L 94.052639 278.142342 
L 94.27983 279.258671 
L 94.73421 279.874785 
L 94.9614 280.411773 
L 95.18859 280.414382 
L 95.41578 279.860354 
L 96.32454 275.280284 
L 96.55173 275.257126 
L 96.77892 277.597934 
L 97.46049 289.680284 
L 97.68768 291.960702 
L 97.91487 293.028912 
L 98.14206 292.980898 
L 98.36925 291.727562 
L 98.82363 286.06288 
L 99.27801 275.869757 
L 99.73239 263.18102 
L 99.95958 263.182621 
L 100.41396 270.469768 
L 101.09553 281.948793 
L 101.54991 286.092241 
L 101.7771 287.465714 
L 102.00429 288.027722 
L 102.23148 287.887173 
L 102.45867 287.225766 
L 102.68586 286.032169 
L 103.14024 280.922697 
L 104.049001 265.793326 
L 104.276191 264.385018 
L 104.503381 267.178117 
L 105.184951 282.551916 
L 105.639331 288.108186 
L 105.866521 289.347767 
L 106.093711 289.679731 
L 106.320901 289.235554 
L 106.548091 287.668661 
L 106.775281 284.716204 
L 107.229661 273.882583 
L 107.684041 260.889378 
L 107.911231 260.805974 
L 108.365611 267.141795 
L 109.047181 277.919092 
L 109.501561 281.549803 
L 109.955941 284.210059 
L 110.183131 284.856363 
L 110.410321 284.989104 
L 110.637511 284.530862 
L 110.864701 283.251645 
L 111.319081 278.356407 
L 112.000651 269.762058 
L 112.227841 268.580046 
L 112.455031 270.243595 
L 113.136602 281.083089 
L 113.590982 284.411881 
L 113.818172 285.308402 
L 114.045362 285.449585 
L 114.272552 284.687302 
L 114.499742 283.049741 
L 114.726932 280.328302 
L 115.181312 270.780847 
L 115.635692 258.991456 
L 115.862882 259.20879 
L 116.317262 267.295062 
L 116.998832 279.705123 
L 117.453212 284.300567 
L 117.907592 286.827412 
L 118.134782 286.893358 
L 118.361972 286.447178 
L 118.589162 285.487187 
L 118.816352 283.681461 
L 119.270732 277.421343 
L 120.179492 264.11716 
L 120.406682 263.360948 
L 120.861062 265.898111 
L 121.088252 265.959999 
L 121.315442 264.281447 
L 121.769823 257.802959 
L 123.132963 229.434603 
L 123.360153 222.894675 
L 123.587343 219.682563 
L 123.814533 219.846676 
L 124.041723 220.33847 
L 124.268913 220.008641 
L 124.496103 217.787507 
L 125.177673 203.967804 
L 126.540813 171.945093 
L 127.222383 160.1929 
L 127.449573 159.49578 
L 127.676763 160.686133 
L 127.903953 163.916221 
L 128.358333 178.790758 
L 129.721473 223.540937 
L 130.630233 245.242987 
L 131.311804 256.657338 
L 131.766184 261.919004 
L 132.220564 265.291028 
L 132.674944 267.437341 
L 133.129324 268.48827 
L 133.356514 268.650821 
L 133.583704 268.567507 
L 133.810894 268.268386 
L 134.265274 266.956178 
L 135.401224 261.393336 
L 135.855604 260.375056 
L 136.082794 260.604754 
L 136.309984 261.411133 
L 137.445934 271.602298 
L 137.900314 273.444533 
L 138.127504 273.772124 
L 138.354694 273.643795 
L 138.581884 273.137379 
L 138.809074 272.284271 
L 139.263454 269.285718 
L 139.717834 264.706588 
L 140.399405 255.543987 
L 141.080975 244.027069 
L 141.989735 223.922082 
L 143.125685 199.966153 
L 143.352875 197.252587 
L 143.580065 195.903497 
L 143.807255 195.246954 
L 144.261635 193.501436 
L 144.716015 195.088229 
L 144.943205 194.875356 
L 145.170395 194.392647 
L 145.397585 193.29238 
L 145.624775 191.091112 
L 145.851965 187.474708 
L 146.306345 173.129781 
L 147.215105 139.456471 
L 147.442295 144.5896 
L 147.896675 168.720999 
L 149.259816 253.858059 
L 149.941386 278.939752 
L 150.395766 287.672495 
L 150.622956 289.801602 
L 150.850146 290.348309 
L 151.077336 289.603565 
L 151.531716 285.932681 
L 151.986096 281.915408 
L 152.213286 282.242318 
L 152.667666 284.289477 
L 152.894856 284.649224 
L 153.122046 284.529036 
L 153.349236 284.18978 
L 153.576426 283.532891 
L 153.803616 282.202286 
L 154.257996 277.328229 
L 154.712376 268.426887 
L 155.166756 256.210051 
L 155.393946 254.537087 
L 155.621136 255.983873 
L 156.075516 262.114182 
L 156.757086 272.8288 
L 157.438656 279.986516 
L 157.893036 281.445716 
L 158.120226 281.450365 
L 158.347417 280.58699 
L 158.801797 276.24863 
L 159.710557 266.037489 
L 159.937747 266.016401 
L 160.392127 272.538514 
L 160.846507 279.479676 
L 161.300887 283.962092 
L 161.528077 285.195087 
L 161.755267 285.703246 
L 161.982457 285.418211 
L 162.209647 284.14613 
L 162.436837 281.71031 
L 162.891217 272.913903 
L 163.345597 262.54904 
L 163.572787 262.716162 
L 164.027167 269.179461 
L 164.935927 283.816088 
L 165.390307 287.680061 
L 165.617497 288.312772 
L 165.844687 287.988958 
L 166.071877 286.989218 
L 166.299067 285.364634 
L 166.753447 279.617974 
L 167.889398 260.495801 
L 168.116588 260.318768 
L 168.570968 266.678757 
L 169.025348 272.980282 
L 169.479728 277.493606 
L 169.934108 279.576642 
L 170.161298 279.73271 
L 170.388488 278.754633 
L 170.615678 276.424546 
L 171.297248 266.879451 
L 171.524438 267.947888 
L 171.978818 273.76198 
L 172.660388 283.873616 
L 173.114768 288.089825 
L 173.341958 289.069589 
L 173.569148 289.269184 
L 173.796338 289.020354 
L 174.023528 288.143008 
L 174.250718 286.234057 
L 174.705098 279.257965 
L 175.613858 261.886887 
L 175.841048 260.01041 
L 176.068238 261.802882 
L 176.976999 277.102667 
L 177.431379 280.89616 
L 177.885759 283.138178 
L 178.112949 283.389572 
L 178.340139 282.486707 
L 178.567329 280.093175 
L 179.248899 267.280289 
L 179.476089 266.893739 
L 179.930469 271.690871 
L 180.839229 283.364746 
L 181.293609 287.091942 
L 181.520799 287.92884 
L 181.747989 287.764933 
L 181.975179 286.835998 
L 182.202369 285.32608 
L 182.656749 279.497301 
L 183.792699 258.83616 
L 184.019889 258.100182 
L 184.247079 260.662956 
L 185.155839 275.35425 
L 185.610219 280.780206 
L 186.0646 283.655671 
L 186.29179 283.867305 
L 186.51898 283.015927 
L 186.74617 280.904189 
L 187.42774 270.051213 
L 187.65493 269.638262 
L 188.10931 272.275128 
L 189.69964 283.366398 
L 189.92683 283.314803 
L 190.15402 282.790549 
L 190.38121 281.921885 
L 190.83559 277.592943 
L 191.51716 267.154156 
L 191.97154 260.678015 
L 192.19873 260.859875 
L 192.65311 268.27381 
L 193.33468 278.779361 
L 193.78906 282.781226 
L 194.01625 283.669662 
L 194.24344 283.651784 
L 194.47063 282.642192 
L 194.69782 280.392615 
L 195.152201 271.492309 
L 195.606581 261.82367 
L 195.833771 260.585995 
L 196.060961 260.540172 
L 196.288151 261.35532 
L 196.742531 264.199463 
L 197.878481 274.331157 
L 198.787241 282.688625 
L 199.014431 283.288129 
L 199.241621 283.25287 
L 199.468811 282.711294 
L 200.150381 280.333001 
L 200.377571 281.945683 
L 201.059141 289.340067 
L 201.286331 290.387082 
L 201.513521 290.684587 
L 201.740711 290.234378 
L 201.967901 289.305445 
L 202.195091 287.817672 
L 202.649471 282.187577 
L 203.331041 268.989757 
L 203.558231 268.57071 
L 204.012611 272.347896 
L 204.694182 279.575052 
L 205.602942 285.409569 
L 205.830132 285.425513 
L 206.057322 284.889837 
L 206.284512 283.902465 
L 206.511702 282.05661 
L 206.966082 275.560348 
L 207.647652 264.481104 
L 207.874842 262.017286 
L 208.102032 262.463319 
L 208.556412 269.206458 
L 209.237982 278.696349 
L 209.692362 282.962747 
L 209.919552 284.188191 
L 210.146742 284.681238 
L 210.373932 284.152603 
L 210.601122 282.493883 
L 211.509882 272.36721 
L 211.964262 276.723267 
L 212.645832 284.162698 
L 213.327403 288.435831 
L 213.554593 288.782082 
L 213.781783 288.037546 
L 214.236163 284.063417 
L 214.690543 276.500668 
L 215.826493 250.4596 
L 216.053683 248.080359 
L 216.280873 248.672135 
L 216.962443 254.721523 
L 217.189633 254.711647 
L 217.416823 254.238624 
L 217.644013 252.793239 
L 218.552773 241.611816 
L 219.234343 227.656066 
L 219.688723 220.814898 
L 220.143103 215.299866 
L 220.597483 204.708606 
L 221.960623 163.592693 
L 222.415003 157.149952 
L 222.869384 154.371346 
L 223.096574 155.134009 
L 223.323764 158.420978 
L 223.778144 169.663573 
L 224.459714 193.862078 
L 225.595664 232.211085 
L 226.277234 249.098379 
L 226.958804 261.406675 
L 227.640374 269.271755 
L 228.094754 272.179631 
L 228.549134 273.400295 
L 229.003514 274.505644 
L 229.457894 275.015593 
L 229.685084 275.070065 
L 229.912274 274.949638 
L 230.366654 274.164287 
L 231.502604 271.867475 
L 231.729795 271.988481 
L 231.956985 272.417228 
L 232.184175 273.258419 
L 232.865745 276.976496 
L 233.092935 277.520927 
L 233.320125 277.581502 
L 233.547315 277.269168 
L 233.774505 276.544498 
L 234.228885 273.773814 
L 234.683265 269.507672 
L 235.364835 259.886264 
L 236.046405 246.716777 
L 236.955165 224.930086 
L 238.545495 181.20665 
L 238.772685 178.73141 
L 238.999875 177.761803 
L 239.227065 178.064139 
L 239.454255 179.499009 
L 239.908635 185.00649 
L 240.363015 191.182624 
L 240.590205 191.566983 
L 241.044586 189.494437 
L 241.271776 187.612343 
L 241.498966 184.166522 
L 241.953346 171.271503 
L 242.862106 139.503319 
L 243.089296 144.237517 
L 243.543676 168.795613 
L 244.679626 238.243022 
L 245.361196 265.128712 
L 246.042766 282.567467 
L 246.497146 287.651629 
L 246.724336 288.35864 
L 246.951526 288.257548 
L 247.178716 287.579771 
L 247.633096 285.53949 
L 247.860286 285.418127 
L 248.769046 287.337356 
L 248.996236 287.499041 
L 249.223426 287.296884 
L 249.450616 286.751794 
L 249.677806 285.750104 
L 249.904997 283.942447 
L 250.132187 281.110655 
L 250.813757 267.664448 
L 251.040947 266.55595 
L 251.268137 266.832241 
L 251.722517 268.44098 
L 252.631277 272.30713 
L 253.994417 280.889614 
L 254.221607 281.094183 
L 254.675987 280.348277 
L 255.130367 279.133638 
L 255.357557 279.106923 
L 255.584747 280.532923 
L 256.493507 289.762516 
L 256.720697 290.683585 
L 256.947887 290.924194 
L 257.175077 290.451783 
L 257.402267 289.479493 
L 257.629457 287.879668 
L 257.856647 285.081568 
L 258.538217 274.009089 
L 258.765407 275.004848 
L 260.128548 286.728167 
L 260.355738 287.700047 
L 260.582928 288.107057 
L 260.810118 287.783753 
L 261.264498 285.671447 
L 261.718878 281.740986 
L 263.082018 262.418212 
L 263.309208 262.432747 
L 263.763588 267.535444 
L 264.672348 279.267516 
L 265.126728 282.944853 
L 265.353918 283.883286 
L 265.581108 283.760888 
L 265.808298 282.37771 
L 266.262678 275.289684 
L 266.489868 271.843236 
L 266.717058 271.401995 
L 267.171438 275.450403 
L 268.080198 285.698395 
L 268.534579 289.064817 
L 268.761769 289.892405 
L 268.988959 290.080981 
L 269.216149 289.844519 
L 269.443339 289.161631 
L 269.670529 287.848023 
L 270.124909 283.456224 
L 271.033669 272.65181 
L 271.260859 271.855466 
L 271.488049 273.119207 
L 272.396809 282.223438 
L 272.851189 284.862666 
L 273.078379 285.301124 
L 273.305569 285.37895 
L 273.532759 284.97794 
L 273.759949 283.530164 
L 273.987139 280.663512 
L 274.441519 270.398587 
L 274.668709 265.134492 
L 274.895899 263.001572 
L 275.123089 263.189045 
L 275.350279 264.086975 
L 275.804659 268.147438 
L 276.486229 274.110397 
L 276.940609 276.947831 
L 277.39499 279.130308 
L 277.84937 281.561752 
L 278.30375 282.675034 
L 279.21251 283.348256 
L 279.4397 284.455224 
L 280.34846 294.008983 
L 280.57565 295.157916 
L 280.80284 295.488 
L 281.03003 294.899685 
L 281.25722 293.287636 
L 281.7116 286.557875 
L 282.39317 269.79822 
L 282.62036 269.17322 
L 283.07474 274.483198 
L 283.75631 283.279485 
L 284.43788 287.678426 
L 284.66507 288.560568 
L 284.89226 288.994177 
L 285.11945 289.137319 
L 285.34664 288.892207 
L 285.57383 288.071053 
L 286.02821 284.493711 
L 286.709781 278.479465 
L 286.936971 277.501842 
L 287.164161 278.035 
L 288.300111 288.871632 
L 288.527301 289.446956 
L 288.754491 289.269694 
L 288.981681 288.457729 
L 289.208871 287.060644 
L 289.436061 284.66367 
L 289.890441 275.60104 
L 290.117631 270.532978 
L 290.344821 268.986996 
L 290.572011 270.692893 
L 291.707961 283.821241 
L 292.389531 287.279433 
L 292.616721 287.555547 
L 292.843911 287.378505 
L 293.071101 286.840227 
L 293.298291 285.848852 
L 293.752671 281.951732 
L 294.434241 276.242265 
L 294.661431 275.003003 
L 294.888621 274.73191 
L 295.115811 276.199224 
L 295.797382 283.397572 
L 296.478952 286.958012 
L 296.706142 287.158704 
L 296.933332 286.721733 
L 297.160522 285.564454 
L 297.387712 283.496822 
L 297.842092 275.121472 
L 298.069282 271.182419 
L 298.296472 270.707776 
L 298.750852 275.040552 
L 299.432422 282.865357 
L 300.113992 286.799834 
L 300.341182 287.581767 
L 300.568372 287.828485 
L 300.795562 287.823689 
L 301.022752 287.679945 
L 301.249942 287.180779 
L 301.704322 284.747718 
L 302.158702 282.362335 
L 302.613082 281.109244 
L 302.840272 281.87035 
L 303.976222 291.596437 
L 304.203412 292.528033 
L 304.430602 292.784081 
L 304.657792 292.215651 
L 304.884983 290.765263 
L 305.112173 288.311297 
L 305.566553 279.422853 
L 305.793743 274.993948 
L 306.020933 273.725525 
L 306.248123 274.67201 
L 306.702503 278.914287 
L 307.156883 283.365161 
L 307.838453 287.32895 
L 308.292833 288.723144 
L 308.747213 289.655509 
L 308.974403 289.592942 
L 309.201593 288.992246 
L 309.655973 286.366644 
L 310.337543 282.738499 
L 310.564733 283.033183 
L 311.700683 291.624007 
L 311.927873 292.370596 
L 312.155063 292.572459 
L 312.382253 292.121423 
L 312.609443 290.903075 
L 312.836633 288.659761 
L 313.518203 276.288843 
L 313.745393 276.133875 
L 314.199774 280.906979 
L 314.881344 288.672586 
L 315.562914 292.326668 
L 315.790104 292.81902 
L 316.017294 292.743183 
L 316.244484 292.178742 
L 316.471674 291.160107 
L 316.926054 287.321956 
L 318.062004 273.958549 
L 318.289194 273.170941 
L 318.516384 274.139497 
L 319.652334 283.257062 
L 320.106714 285.510568 
L 320.333904 286.242947 
L 320.561094 286.410142 
L 320.788284 285.600632 
L 321.015474 283.571584 
L 321.469854 277.591587 
L 321.697044 277.688231 
L 322.151424 282.246857 
L 322.605804 287.544812 
L 323.060184 290.777006 
L 323.514565 292.69562 
L 323.741755 292.948757 
L 323.968945 292.507575 
L 324.423325 290.042925 
L 325.104895 283.405073 
L 326.013655 273.009039 
L 326.240845 271.518468 
L 326.468035 271.35617 
L 326.695225 272.232721 
L 327.149605 274.612986 
L 328.058365 278.018324 
L 328.285555 278.417664 
L 328.512745 278.425491 
L 328.739935 277.727064 
L 328.967125 276.298019 
L 329.875885 267.491605 
L 330.330265 268.06508 
L 330.784645 268.668098 
L 331.011835 268.425968 
L 331.466215 265.145658 
L 331.693405 262.961947 
L 332.147785 255.390111 
L 332.602166 243.736327 
L 333.283736 219.552427 
L 333.965306 185.043199 
L 335.782826 75.485395 
L 336.010016 59.027121 
L 336.237206 53.568 
L 336.691586 69.041666 
L 337.600346 113.761173 
L 339.417866 203.465976 
L 339.872246 219.128556 
L 340.326626 227.599585 
L 340.553816 229.391564 
L 340.781006 229.849098 
L 341.008196 231.223184 
L 342.144147 244.320335 
L 343.052907 255.100366 
L 343.961667 275.082225 
L 344.416047 283.057569 
L 344.870427 287.26779 
L 345.324807 288.805327 
L 345.551997 288.848606 
L 345.779187 288.247775 
L 346.006377 287.149581 
L 346.233567 286.909274 
L 346.915137 288.997116 
L 347.369517 290.488161 
L 348.505467 294.944721 
L 348.732657 294.606599 
L 350.550177 283.608466 
L 351.004558 281.566732 
L 351.231748 282.426265 
L 351.913318 289.330242 
L 352.594888 294.045329 
L 352.822078 294.274472 
L 353.049268 293.871876 
L 353.276458 293.070523 
L 353.730838 289.974542 
L 354.412408 284.423105 
L 354.866788 285.414977 
L 355.321168 287.137889 
L 356.457118 292.790067 
L 356.684308 293.668094 
L 356.911498 293.334515 
L 357.365878 290.813112 
L 358.729018 280.772853 
L 358.956208 279.68867 
L 359.183398 280.563417 
L 360.092159 290.145088 
L 360.546539 293.080794 
L 360.773729 293.990493 
L 361.000919 293.799014 
L 361.228109 292.964498 
L 361.682489 289.893284 
L 362.591249 281.061958 
L 363.045629 282.371635 
L 363.500009 284.648075 
L 364.863149 294.394777 
L 365.090339 294.118592 
L 365.544719 292.326675 
L 367.135049 282.87722 
L 367.362239 283.053725 
L 368.725379 292.034706 
L 368.95257 292.543958 
L 369.17976 292.175802 
L 369.63414 290.203443 
L 370.08852 285.937068 
L 370.5429 280.550546 
L 370.99728 276.605255 
L 371.45166 270.52061 
L 372.13323 258.444583 
L 373.04199 240.165691 
L 373.72356 214.729323 
L 374.40513 177.593081 
L 375.99546 84.182477 
L 376.44984 68.204577 
L 376.90422 60.409439 
L 377.13141 58.92796 
L 377.3586 61.601091 
L 377.81298 91.071085 
L 378.721741 149.107805 
L 379.857691 205.016575 
L 380.766451 238.308917 
L 381.675211 265.451346 
L 382.129591 274.160046 
L 382.583971 278.734352 
L 382.811161 279.369539 
L 383.038351 278.627179 
L 383.719921 272.665644 
L 383.947111 274.24039 
L 385.083061 285.453232 
L 385.537441 287.979682 
L 385.991821 290.854181 
L 386.446201 292.658943 
L 386.673391 293.103066 
L 386.900581 293.058353 
L 387.127771 292.899938 
L 387.582152 291.737798 
L 388.263722 290.102431 
L 388.490912 290.519674 
L 389.172482 293.774684 
L 389.626862 294.644584 
L 389.854052 294.50031 
L 390.081242 293.84049 
L 390.308432 292.660684 
L 390.762812 288.330977 
L 391.444382 277.917336 
L 391.671572 277.609867 
L 391.898762 278.2457 
L 392.353142 280.714047 
L 392.807522 283.148942 
L 393.261902 284.024038 
L 393.489092 284.346595 
L 393.716282 284.207191 
L 393.943472 283.475192 
L 394.397852 280.274962 
L 394.852232 274.791142 
L 396.442563 249.48536 
L 396.896943 245.011945 
L 398.032893 229.968959 
L 398.260083 225.272807 
L 398.487273 225.513448 
L 398.487273 225.513448 
" style="fill:none;stroke:#1f77b4;stroke-linecap:square;stroke-width:1.5;"/>
   </g>
   <g id="patch_3">
    <path d="M 57.6 307.584 
L 57.6 41.472 
" style="fill:none;stroke:#000000;stroke-linecap:square;stroke-linejoin:miter;stroke-width:0.8;"/>
   </g>
   <g id="patch_4">
    <path d="M 414.72 307.584 
L 414.72 41.472 
" style="fill:none;stroke:#000000;stroke-linecap:square;stroke-linejoin:miter;stroke-width:0.8;"/>
   </g>
   <g id="patch_5">
    <path d="M 57.6 307.584 
L 414.72 307.584 
" style="fill:none;stroke:#000000;stroke-linecap:square;stroke-linejoin:miter;stroke-width:0.8;"/>
   </g>
   <g id="patch_6">
    <path d="M 57.6 41.472 
L 414.72 41.472 
" style="fill:none;stroke:#000000;stroke-linecap:square;stroke-linejoin:miter;stroke-width:0.8;"/>
   </g>
  </g>
 </g>
 <defs>
  <clipPath id="pba5a32c7a8">
   <rect height="266.112" width="357.12" x="57.6" y="41.472"/>
  </clipPath>
 </defs>
</svg>
