<?xml version="1.0" encoding="utf-8" standalone="no"?>
<!DOCTYPE svg PUBLIC "-//W3C//DTD SVG 1.1//EN"
  "http://www.w3.org/Graphics/SVG/1.1/DTD/svg11.dtd">
<svg height="546.48pt" version="1.1" viewBox="0 0 1105.92 546.48" width="1105.92pt" xmlns="http://www.w3.org/2000/svg" xmlns:xlink="http://www.w3.org/1999/xlink">
 <metadata>
  <rdf:RDF xmlns:cc="http://creativecommons.org/ns#" xmlns:dc="http://purl.org/dc/elements/1.1/" xmlns:rdf="http://www.w3.org/1999/02/22-rdf-syntax-ns#">
   <cc:Work>
    <dc:type rdf:resource="http://purl.org/dc/dcmitype/StillImage"/>
    <dc:date>2022-10-26T17:53:45.818156</dc:date>
    <dc:format>image/svg+xml</dc:format>
    <dc:creator>
     <cc:Agent>
      <dc:title>Matplotlib v3.4.2, https://matplotlib.org/</dc:title>
     </cc:Agent>
    </dc:creator>
   </cc:Work>
  </rdf:RDF>
 </metadata>
 <defs>
  <style type="text/css">*{stroke-linecap:butt;stroke-linejoin:round;}</style>
 </defs>
 <g id="figure_1">
  <g id="patch_1">
   <path d="M 0 546.48 
L 1105.92 546.48 
L 1105.92 0 
L 0 0 
z
" style="fill:#ffffff;"/>
  </g>
  <g id="axes_1">
   <g id="patch_2">
    <path d="M 36.808 518.312 
L 1095.12 518.312 
L 1095.12 10.8 
L 36.808 10.8 
z
" style="fill:#ffffff;"/>
   </g>
   <g id="matplotlib.axis_1">
    <g id="xtick_1">
     <g id="line2d_1">
      <defs>
       <path d="M 0 0 
L 0 3.5 
" id="md6a362ca23" style="stroke:#000000;stroke-width:0.8;"/>
      </defs>
      <g>
       <use style="stroke:#000000;stroke-width:0.8;" x="84.913091" xlink:href="#md6a362ca23" y="518.312"/>
      </g>
     </g>
     <g id="text_1">
      <!-- 0 -->
      <g transform="translate(81.731841 532.910438)scale(0.1 -0.1)">
       <defs>
        <path d="M 2034 4250 
Q 1547 4250 1301 3770 
Q 1056 3291 1056 2328 
Q 1056 1369 1301 889 
Q 1547 409 2034 409 
Q 2525 409 2770 889 
Q 3016 1369 3016 2328 
Q 3016 3291 2770 3770 
Q 2525 4250 2034 4250 
z
M 2034 4750 
Q 2819 4750 3233 4129 
Q 3647 3509 3647 2328 
Q 3647 1150 3233 529 
Q 2819 -91 2034 -91 
Q 1250 -91 836 529 
Q 422 1150 422 2328 
Q 422 3509 836 4129 
Q 1250 4750 2034 4750 
z
" id="DejaVuSans-30" transform="scale(0.015625)"/>
       </defs>
       <use xlink:href="#DejaVuSans-30"/>
      </g>
     </g>
    </g>
    <g id="xtick_2">
     <g id="line2d_2">
      <g>
       <use style="stroke:#000000;stroke-width:0.8;" x="229.807943" xlink:href="#md6a362ca23" y="518.312"/>
      </g>
     </g>
     <g id="text_2">
      <!-- 200 -->
      <g transform="translate(220.264193 532.910438)scale(0.1 -0.1)">
       <defs>
        <path d="M 1228 531 
L 3431 531 
L 3431 0 
L 469 0 
L 469 531 
Q 828 903 1448 1529 
Q 2069 2156 2228 2338 
Q 2531 2678 2651 2914 
Q 2772 3150 2772 3378 
Q 2772 3750 2511 3984 
Q 2250 4219 1831 4219 
Q 1534 4219 1204 4116 
Q 875 4013 500 3803 
L 500 4441 
Q 881 4594 1212 4672 
Q 1544 4750 1819 4750 
Q 2544 4750 2975 4387 
Q 3406 4025 3406 3419 
Q 3406 3131 3298 2873 
Q 3191 2616 2906 2266 
Q 2828 2175 2409 1742 
Q 1991 1309 1228 531 
z
" id="DejaVuSans-32" transform="scale(0.015625)"/>
       </defs>
       <use xlink:href="#DejaVuSans-32"/>
       <use x="63.623047" xlink:href="#DejaVuSans-30"/>
       <use x="127.246094" xlink:href="#DejaVuSans-30"/>
      </g>
     </g>
    </g>
    <g id="xtick_3">
     <g id="line2d_3">
      <g>
       <use style="stroke:#000000;stroke-width:0.8;" x="374.702795" xlink:href="#md6a362ca23" y="518.312"/>
      </g>
     </g>
     <g id="text_3">
      <!-- 400 -->
      <g transform="translate(365.159045 532.910438)scale(0.1 -0.1)">
       <defs>
        <path d="M 2419 4116 
L 825 1625 
L 2419 1625 
L 2419 4116 
z
M 2253 4666 
L 3047 4666 
L 3047 1625 
L 3713 1625 
L 3713 1100 
L 3047 1100 
L 3047 0 
L 2419 0 
L 2419 1100 
L 313 1100 
L 313 1709 
L 2253 4666 
z
" id="DejaVuSans-34" transform="scale(0.015625)"/>
       </defs>
       <use xlink:href="#DejaVuSans-34"/>
       <use x="63.623047" xlink:href="#DejaVuSans-30"/>
       <use x="127.246094" xlink:href="#DejaVuSans-30"/>
      </g>
     </g>
    </g>
    <g id="xtick_4">
     <g id="line2d_4">
      <g>
       <use style="stroke:#000000;stroke-width:0.8;" x="519.597647" xlink:href="#md6a362ca23" y="518.312"/>
      </g>
     </g>
     <g id="text_4">
      <!-- 600 -->
      <g transform="translate(510.053897 532.910438)scale(0.1 -0.1)">
       <defs>
        <path d="M 2113 2584 
Q 1688 2584 1439 2293 
Q 1191 2003 1191 1497 
Q 1191 994 1439 701 
Q 1688 409 2113 409 
Q 2538 409 2786 701 
Q 3034 994 3034 1497 
Q 3034 2003 2786 2293 
Q 2538 2584 2113 2584 
z
M 3366 4563 
L 3366 3988 
Q 3128 4100 2886 4159 
Q 2644 4219 2406 4219 
Q 1781 4219 1451 3797 
Q 1122 3375 1075 2522 
Q 1259 2794 1537 2939 
Q 1816 3084 2150 3084 
Q 2853 3084 3261 2657 
Q 3669 2231 3669 1497 
Q 3669 778 3244 343 
Q 2819 -91 2113 -91 
Q 1303 -91 875 529 
Q 447 1150 447 2328 
Q 447 3434 972 4092 
Q 1497 4750 2381 4750 
Q 2619 4750 2861 4703 
Q 3103 4656 3366 4563 
z
" id="DejaVuSans-36" transform="scale(0.015625)"/>
       </defs>
       <use xlink:href="#DejaVuSans-36"/>
       <use x="63.623047" xlink:href="#DejaVuSans-30"/>
       <use x="127.246094" xlink:href="#DejaVuSans-30"/>
      </g>
     </g>
    </g>
    <g id="xtick_5">
     <g id="line2d_5">
      <g>
       <use style="stroke:#000000;stroke-width:0.8;" x="664.492499" xlink:href="#md6a362ca23" y="518.312"/>
      </g>
     </g>
     <g id="text_5">
      <!-- 800 -->
      <g transform="translate(654.948749 532.910438)scale(0.1 -0.1)">
       <defs>
        <path d="M 2034 2216 
Q 1584 2216 1326 1975 
Q 1069 1734 1069 1313 
Q 1069 891 1326 650 
Q 1584 409 2034 409 
Q 2484 409 2743 651 
Q 3003 894 3003 1313 
Q 3003 1734 2745 1975 
Q 2488 2216 2034 2216 
z
M 1403 2484 
Q 997 2584 770 2862 
Q 544 3141 544 3541 
Q 544 4100 942 4425 
Q 1341 4750 2034 4750 
Q 2731 4750 3128 4425 
Q 3525 4100 3525 3541 
Q 3525 3141 3298 2862 
Q 3072 2584 2669 2484 
Q 3125 2378 3379 2068 
Q 3634 1759 3634 1313 
Q 3634 634 3220 271 
Q 2806 -91 2034 -91 
Q 1263 -91 848 271 
Q 434 634 434 1313 
Q 434 1759 690 2068 
Q 947 2378 1403 2484 
z
M 1172 3481 
Q 1172 3119 1398 2916 
Q 1625 2713 2034 2713 
Q 2441 2713 2670 2916 
Q 2900 3119 2900 3481 
Q 2900 3844 2670 4047 
Q 2441 4250 2034 4250 
Q 1625 4250 1398 4047 
Q 1172 3844 1172 3481 
z
" id="DejaVuSans-38" transform="scale(0.015625)"/>
       </defs>
       <use xlink:href="#DejaVuSans-38"/>
       <use x="63.623047" xlink:href="#DejaVuSans-30"/>
       <use x="127.246094" xlink:href="#DejaVuSans-30"/>
      </g>
     </g>
    </g>
    <g id="xtick_6">
     <g id="line2d_6">
      <g>
       <use style="stroke:#000000;stroke-width:0.8;" x="809.387352" xlink:href="#md6a362ca23" y="518.312"/>
      </g>
     </g>
     <g id="text_6">
      <!-- 1000 -->
      <g transform="translate(796.662352 532.910438)scale(0.1 -0.1)">
       <defs>
        <path d="M 794 531 
L 1825 531 
L 1825 4091 
L 703 3866 
L 703 4441 
L 1819 4666 
L 2450 4666 
L 2450 531 
L 3481 531 
L 3481 0 
L 794 0 
L 794 531 
z
" id="DejaVuSans-31" transform="scale(0.015625)"/>
       </defs>
       <use xlink:href="#DejaVuSans-31"/>
       <use x="63.623047" xlink:href="#DejaVuSans-30"/>
       <use x="127.246094" xlink:href="#DejaVuSans-30"/>
       <use x="190.869141" xlink:href="#DejaVuSans-30"/>
      </g>
     </g>
    </g>
    <g id="xtick_7">
     <g id="line2d_7">
      <g>
       <use style="stroke:#000000;stroke-width:0.8;" x="954.282204" xlink:href="#md6a362ca23" y="518.312"/>
      </g>
     </g>
     <g id="text_7">
      <!-- 1200 -->
      <g transform="translate(941.557204 532.910438)scale(0.1 -0.1)">
       <use xlink:href="#DejaVuSans-31"/>
       <use x="63.623047" xlink:href="#DejaVuSans-32"/>
       <use x="127.246094" xlink:href="#DejaVuSans-30"/>
       <use x="190.869141" xlink:href="#DejaVuSans-30"/>
      </g>
     </g>
    </g>
   </g>
   <g id="matplotlib.axis_2">
    <g id="ytick_1">
     <g id="line2d_8">
      <defs>
       <path d="M 0 0 
L -3.5 0 
" id="m8d969cc3d8" style="stroke:#000000;stroke-width:0.8;"/>
      </defs>
      <g>
       <use style="stroke:#000000;stroke-width:0.8;" x="36.808" xlink:href="#m8d969cc3d8" y="500.943863"/>
      </g>
     </g>
     <g id="text_8">
      <!-- 0 -->
      <g transform="translate(23.4455 504.743082)scale(0.1 -0.1)">
       <use xlink:href="#DejaVuSans-30"/>
      </g>
     </g>
    </g>
    <g id="ytick_2">
     <g id="line2d_9">
      <g>
       <use style="stroke:#000000;stroke-width:0.8;" x="36.808" xlink:href="#m8d969cc3d8" y="418.528635"/>
      </g>
     </g>
     <g id="text_9">
      <!-- 20 -->
      <g transform="translate(17.083 422.327854)scale(0.1 -0.1)">
       <use xlink:href="#DejaVuSans-32"/>
       <use x="63.623047" xlink:href="#DejaVuSans-30"/>
      </g>
     </g>
    </g>
    <g id="ytick_3">
     <g id="line2d_10">
      <g>
       <use style="stroke:#000000;stroke-width:0.8;" x="36.808" xlink:href="#m8d969cc3d8" y="336.113408"/>
      </g>
     </g>
     <g id="text_10">
      <!-- 40 -->
      <g transform="translate(17.083 339.912627)scale(0.1 -0.1)">
       <use xlink:href="#DejaVuSans-34"/>
       <use x="63.623047" xlink:href="#DejaVuSans-30"/>
      </g>
     </g>
    </g>
    <g id="ytick_4">
     <g id="line2d_11">
      <g>
       <use style="stroke:#000000;stroke-width:0.8;" x="36.808" xlink:href="#m8d969cc3d8" y="253.69818"/>
      </g>
     </g>
     <g id="text_11">
      <!-- 60 -->
      <g transform="translate(17.083 257.497399)scale(0.1 -0.1)">
       <use xlink:href="#DejaVuSans-36"/>
       <use x="63.623047" xlink:href="#DejaVuSans-30"/>
      </g>
     </g>
    </g>
    <g id="ytick_5">
     <g id="line2d_12">
      <g>
       <use style="stroke:#000000;stroke-width:0.8;" x="36.808" xlink:href="#m8d969cc3d8" y="171.282953"/>
      </g>
     </g>
     <g id="text_12">
      <!-- 80 -->
      <g transform="translate(17.083 175.082172)scale(0.1 -0.1)">
       <use xlink:href="#DejaVuSans-38"/>
       <use x="63.623047" xlink:href="#DejaVuSans-30"/>
      </g>
     </g>
    </g>
    <g id="ytick_6">
     <g id="line2d_13">
      <g>
       <use style="stroke:#000000;stroke-width:0.8;" x="36.808" xlink:href="#m8d969cc3d8" y="88.867725"/>
      </g>
     </g>
     <g id="text_13">
      <!-- 100 -->
      <g transform="translate(10.7205 92.666944)scale(0.1 -0.1)">
       <use xlink:href="#DejaVuSans-31"/>
       <use x="63.623047" xlink:href="#DejaVuSans-30"/>
       <use x="127.246094" xlink:href="#DejaVuSans-30"/>
      </g>
     </g>
    </g>
   </g>
   <g id="line2d_14">
    <path clip-path="url(#p93d214722e)" d="M 84.913091 389.434086 
L 85.637565 390.183466 
L 87.810988 391.736877 
L 88.535462 393.351356 
L 90.708885 402.145172 
L 91.433359 405.665661 
L 94.331256 423.107327 
L 95.780205 429.49889 
L 96.504679 431.893938 
L 97.229153 433.784058 
L 97.953628 435.220248 
L 98.678102 436.237038 
L 99.402576 436.700907 
L 100.12705 436.632861 
L 101.575999 436.18131 
L 102.300473 435.754043 
L 103.024947 435.492364 
L 103.749422 435.472619 
L 104.473896 435.752959 
L 105.19837 436.427761 
L 105.922844 437.622023 
L 107.371793 440.806477 
L 108.096267 441.482344 
L 108.820742 441.44336 
L 109.545216 441.181829 
L 110.26969 440.755953 
L 110.994164 439.97795 
L 112.443113 437.481425 
L 113.892061 434.625845 
L 115.34101 431.581339 
L 116.065484 431.523407 
L 119.687855 436.099823 
L 120.41233 437.34883 
L 122.585752 440.056545 
L 124.034701 442.660329 
L 124.759175 443.718875 
L 126.208124 445.289108 
L 126.932598 445.7771 
L 127.657072 445.916091 
L 128.381547 445.684724 
L 129.106021 444.954291 
L 129.830495 443.780321 
L 131.279444 440.636086 
L 132.728392 438.120663 
L 133.452866 438.263953 
L 134.177341 440.232046 
L 134.901815 442.920001 
L 135.626289 446.393268 
L 139.973135 470.586794 
L 140.697609 473.330116 
L 141.422083 475.315246 
L 142.146558 476.472153 
L 142.871032 476.835036 
L 143.595506 476.63786 
L 144.31998 476.057234 
L 145.044455 475.096159 
L 145.768929 473.945136 
L 146.493403 473.357849 
L 147.217877 474.149797 
L 148.666826 477.391544 
L 150.115774 479.851688 
L 151.564723 481.869945 
L 152.289197 482.454275 
L 153.738146 483.109257 
L 155.187094 484.395892 
L 158.084991 487.58717 
L 158.809465 488.23661 
L 159.53394 488.668365 
L 160.258414 488.687412 
L 160.982888 488.293862 
L 161.707363 487.591093 
L 162.431837 486.633146 
L 163.156311 485.377783 
L 163.880785 483.81229 
L 164.60526 482.683836 
L 165.329734 482.595565 
L 166.054208 483.041789 
L 166.778682 483.746766 
L 168.227631 485.420942 
L 168.952105 485.85925 
L 169.676579 485.923432 
L 170.401054 485.687002 
L 171.125528 485.125525 
L 171.850002 484.382203 
L 172.574476 484.078148 
L 173.298951 484.281755 
L 174.747899 484.905745 
L 176.196848 485.096323 
L 176.921322 485.06837 
L 177.645796 484.631057 
L 178.370271 483.748554 
L 179.094745 482.481914 
L 179.819219 480.752433 
L 180.543693 478.433499 
L 181.268168 475.42021 
L 181.992642 471.631097 
L 183.44159 461.707635 
L 184.890539 451.619026 
L 185.615013 448.655163 
L 186.339487 447.242128 
L 187.063962 446.66392 
L 187.788436 446.578165 
L 188.51291 447.201389 
L 189.237384 448.826126 
L 190.686333 454.233647 
L 191.410807 456.846137 
L 192.135281 458.876239 
L 192.859756 460.095124 
L 193.58423 460.820569 
L 194.308704 460.793842 
L 195.033179 459.307685 
L 195.757653 456.342137 
L 196.482127 451.99272 
L 197.206601 446.29967 
L 198.65555 432.159007 
L 200.828973 408.043564 
L 201.553447 398.855155 
L 202.277921 391.13372 
L 203.002395 386.203011 
L 204.451344 380.481255 
L 205.900292 375.441583 
L 206.624767 372.087466 
L 207.349241 366.377077 
L 208.798189 349.307682 
L 210.247138 328.742099 
L 211.696087 305.581328 
L 213.145035 278.04095 
L 214.593984 248.265415 
L 215.318458 237.341395 
L 216.042932 231.841781 
L 216.767406 230.072463 
L 217.491881 230.07793 
L 218.216355 230.558666 
L 218.940829 232.077558 
L 219.665303 235.157506 
L 222.5632 251.232358 
L 224.012149 255.363269 
L 226.185572 261.294333 
L 226.910046 262.583902 
L 227.63452 262.710937 
L 228.358995 262.667981 
L 229.083469 264.126104 
L 229.807943 267.672618 
L 231.981366 280.104431 
L 233.430314 288.159487 
L 234.879263 296.09125 
L 236.328211 302.905633 
L 238.501634 313.020454 
L 239.950583 320.683846 
L 241.399531 329.93036 
L 242.84848 341.274183 
L 244.297428 355.073152 
L 245.746377 368.693877 
L 247.9198 386.453343 
L 250.093222 402.022363 
L 252.266645 415.977777 
L 254.440068 428.677515 
L 257.337965 443.394021 
L 259.511388 453.252998 
L 260.960336 458.883439 
L 263.133759 466.197977 
L 268.205079 482.311485 
L 269.654027 485.720537 
L 270.378502 486.994086 
L 271.102976 487.971569 
L 271.82745 488.62292 
L 272.551924 488.936686 
L 273.276399 488.873012 
L 274.000873 488.453405 
L 274.725347 487.702968 
L 275.449821 486.627875 
L 276.174296 485.272002 
L 277.623244 481.861085 
L 279.072193 477.650386 
L 282.694564 466.418808 
L 285.592461 457.826772 
L 287.04141 452.418532 
L 288.490358 446.210207 
L 289.939307 439.017879 
L 291.388255 430.570906 
L 293.561678 416.217794 
L 295.735101 400.728757 
L 297.908524 383.518292 
L 300.806421 357.881229 
L 302.979843 336.130623 
L 305.87774 304.485417 
L 309.500112 261.969331 
L 313.122483 216.70166 
L 313.846957 210.432546 
L 314.571432 207.888492 
L 315.295906 209.404785 
L 316.02038 214.159726 
L 316.744854 221.06601 
L 318.193803 239.033051 
L 319.642751 261.767292 
L 321.0917 288.58401 
L 322.540648 314.546684 
L 323.265123 323.87499 
L 323.989597 330.920511 
L 325.438545 341.473281 
L 326.16302 346.675389 
L 327.611968 360.917745 
L 329.060917 375.256681 
L 331.958814 400.482081 
L 334.856711 427.101654 
L 335.581185 431.579181 
L 336.305659 434.777414 
L 337.030134 437.08398 
L 337.754608 438.41953 
L 338.479082 438.512484 
L 339.203556 437.564603 
L 342.825928 429.513477 
L 344.274876 427.136491 
L 344.99935 426.328976 
L 345.723825 426.926684 
L 346.448299 428.645935 
L 347.172773 431.487575 
L 350.795145 451.686692 
L 352.968567 461.363874 
L 353.693042 465.084519 
L 354.417516 468.115141 
L 356.590939 474.564228 
L 357.315413 476.554314 
L 358.039887 478.069409 
L 358.764361 478.977346 
L 359.488836 479.497337 
L 360.21331 480.282605 
L 360.937784 481.884834 
L 362.386733 485.980749 
L 363.111207 487.654977 
L 363.835681 488.906862 
L 364.560156 489.715999 
L 365.28463 490.174947 
L 366.009104 490.278835 
L 366.733578 490.01371 
L 367.458053 489.533617 
L 368.182527 489.280256 
L 368.907001 489.538922 
L 371.080424 491.156444 
L 373.253847 492.355402 
L 373.978321 492.748843 
L 374.702795 492.78578 
L 375.427269 492.554817 
L 376.151744 492.116821 
L 376.876218 491.344716 
L 377.600692 490.136174 
L 378.325166 488.550659 
L 379.049641 486.601926 
L 379.774115 484.265417 
L 380.498589 482.362241 
L 381.223064 481.717992 
L 381.947538 481.905828 
L 382.672012 482.539183 
L 384.845435 485.866824 
L 385.569909 486.593701 
L 386.294383 487.066761 
L 387.018858 487.342004 
L 387.743332 487.47505 
L 388.467806 488.057747 
L 389.916755 489.882282 
L 390.641229 490.364925 
L 392.090177 490.587293 
L 392.814652 490.60406 
L 393.539126 490.497926 
L 394.2636 490.12278 
L 394.988074 489.330242 
L 396.437023 487.061264 
L 397.161497 486.46986 
L 397.885972 486.625883 
L 398.610446 487.006136 
L 400.059394 487.288927 
L 400.783869 487.217812 
L 401.508343 486.817017 
L 402.232817 485.993213 
L 402.957291 484.651453 
L 404.40624 481.036819 
L 405.130714 480.20198 
L 405.855188 480.41693 
L 407.304137 482.020424 
L 408.028611 482.834224 
L 408.753085 483.898009 
L 410.926508 487.80363 
L 411.650982 488.517901 
L 412.375457 488.954313 
L 413.099931 489.220092 
L 413.824405 489.067087 
L 414.54888 488.485004 
L 415.273354 487.614916 
L 415.997828 486.459476 
L 416.722302 485.779453 
L 417.446777 485.912874 
L 418.171251 486.449032 
L 418.895725 487.343014 
L 420.344674 489.475893 
L 421.793622 491.1469 
L 422.518096 491.692496 
L 423.242571 491.918614 
L 423.967045 491.985629 
L 425.415993 492.552385 
L 426.140468 492.379836 
L 426.864942 491.780003 
L 427.589416 490.81129 
L 428.31389 489.610476 
L 429.762839 486.502912 
L 430.487313 484.941496 
L 431.211788 483.694903 
L 434.109685 480.439886 
L 434.834159 479.737663 
L 435.558633 478.737552 
L 436.283107 477.202858 
L 437.732056 472.8391 
L 438.45653 470.7474 
L 439.181004 469.935892 
L 439.905479 470.73687 
L 442.078901 476.612347 
L 444.976798 484.899302 
L 446.425747 487.489749 
L 447.150221 488.253552 
L 447.874696 488.550891 
L 448.59917 488.483036 
L 449.323644 488.049536 
L 450.048118 487.304816 
L 450.772593 486.258141 
L 451.497067 484.87783 
L 452.221541 483.144107 
L 454.394964 476.936425 
L 455.119438 475.552694 
L 455.843912 475.189163 
L 456.568387 475.801036 
L 457.292861 477.197271 
L 458.741809 481.123355 
L 460.915232 487.207442 
L 462.364181 490.412117 
L 463.813129 493.767465 
L 464.537604 494.794365 
L 465.262078 495.197733 
L 465.986552 495.091493 
L 467.435501 494.108515 
L 468.159975 493.641263 
L 468.884449 493.307239 
L 469.608923 492.837225 
L 470.333398 492.183256 
L 471.782346 490.457534 
L 472.50682 489.454148 
L 473.231295 488.16354 
L 475.404717 483.041726 
L 476.129192 482.367368 
L 476.853666 482.844072 
L 477.57814 484.086516 
L 479.027089 487.094333 
L 481.924986 492.524486 
L 482.64946 493.369975 
L 483.373934 493.673481 
L 484.098409 493.458717 
L 484.822883 492.78027 
L 485.547357 491.667369 
L 486.271831 490.115352 
L 486.996306 488.11266 
L 487.72078 485.651846 
L 488.445254 482.589437 
L 489.169728 479.0381 
L 489.894203 476.405128 
L 490.618677 475.483985 
L 491.343151 475.284501 
L 492.067625 475.394016 
L 493.516574 476.263242 
L 494.241048 476.792585 
L 494.965522 477.644672 
L 496.414471 479.954911 
L 497.863419 482.580853 
L 499.312368 485.52741 
L 500.036842 486.583855 
L 500.761317 487.359785 
L 501.485791 487.785522 
L 502.210265 487.782205 
L 503.659214 487.051237 
L 504.383688 487.42222 
L 505.832636 489.137829 
L 506.557111 489.685196 
L 507.281585 489.952761 
L 508.006059 489.9085 
L 508.730533 489.597373 
L 509.455008 489.054096 
L 510.179482 488.226336 
L 510.903956 487.190197 
L 511.62843 486.391272 
L 512.352905 486.307922 
L 513.077379 486.821719 
L 514.526327 488.727374 
L 515.975276 490.424366 
L 517.424225 491.529937 
L 518.148699 491.706439 
L 518.873173 491.458725 
L 519.597647 490.729167 
L 520.322122 489.593863 
L 521.046596 488.031903 
L 521.77107 486.084258 
L 523.220019 481.243463 
L 523.944493 478.482174 
L 524.668967 476.400737 
L 525.393441 475.90476 
L 526.117916 476.414024 
L 526.84239 477.564307 
L 530.464761 486.674834 
L 531.91371 489.296311 
L 534.811607 493.944013 
L 535.536081 494.667377 
L 536.260555 495.137265 
L 536.98503 495.243273 
L 537.709504 494.961779 
L 539.158452 493.709311 
L 539.882927 492.924126 
L 540.607401 491.797421 
L 541.331875 490.17343 
L 542.780824 485.809428 
L 544.229772 480.132198 
L 546.403195 469.703618 
L 547.127669 467.521313 
L 547.852143 467.584848 
L 548.576618 469.589534 
L 551.474515 481.138805 
L 552.923463 486.977087 
L 553.647938 489.216609 
L 555.096886 492.488323 
L 555.82136 493.53846 
L 556.545835 494.200315 
L 557.270309 494.576533 
L 558.719257 494.634976 
L 560.168206 494.452383 
L 560.89268 494.269711 
L 561.617154 493.960188 
L 562.341629 493.434325 
L 563.066103 492.664937 
L 563.790577 491.597918 
L 564.515051 490.165321 
L 565.239526 488.384546 
L 565.964 487.226558 
L 566.688474 487.40741 
L 568.137423 488.748458 
L 568.861897 489.066677 
L 569.586371 488.931141 
L 570.310846 488.295512 
L 571.03532 487.194556 
L 572.484268 484.090003 
L 573.208743 482.075178 
L 574.657691 477.084993 
L 578.280062 462.465612 
L 579.729011 454.897194 
L 580.453485 450.60015 
L 581.177959 447.17238 
L 581.902434 445.930949 
L 582.626908 446.744615 
L 584.800331 451.767333 
L 585.524805 454.323211 
L 588.422702 467.799509 
L 589.871651 473.457517 
L 590.596125 475.753171 
L 592.045073 479.258903 
L 593.494022 481.790168 
L 594.218496 482.758261 
L 594.94297 483.282624 
L 595.667445 483.626043 
L 596.391919 484.174457 
L 597.116393 484.862346 
L 597.840867 485.268904 
L 598.565342 485.160954 
L 599.289816 484.609362 
L 600.01429 483.714047 
L 600.738765 482.353222 
L 602.912187 477.125169 
L 603.636662 475.910639 
L 604.361136 475.474881 
L 605.810084 475.078179 
L 606.534559 474.355196 
L 607.259033 472.96532 
L 607.983507 471.114101 
L 608.707981 468.863683 
L 610.15693 462.78377 
L 611.605878 456.399598 
L 614.503775 440.851332 
L 615.952724 431.934355 
L 618.126147 417.472729 
L 618.850621 415.279967 
L 620.29957 412.481484 
L 621.748518 408.957775 
L 622.472992 408.123186 
L 623.197467 408.424608 
L 624.646415 410.430923 
L 625.370889 410.740626 
L 626.095364 410.339654 
L 626.819838 409.406478 
L 627.544312 408.132803 
L 629.717735 403.498795 
L 630.442209 402.377346 
L 631.166683 400.554449 
L 632.615632 395.399766 
L 634.064581 388.785886 
L 639.1359 359.914709 
L 639.860375 357.159075 
L 640.584849 355.184406 
L 641.309323 353.687472 
L 642.033797 352.826433 
L 642.758272 352.221823 
L 643.482746 351.179754 
L 644.20722 349.63147 
L 644.931694 347.461786 
L 646.380643 341.786914 
L 647.105117 338.178402 
L 648.554066 329.074086 
L 650.003014 316.642425 
L 651.451963 301.024216 
L 652.900911 282.664595 
L 654.34986 261.140929 
L 655.798808 235.131946 
L 657.972231 191.237747 
L 660.145654 147.371013 
L 660.870128 136.578455 
L 661.594602 129.105084 
L 662.319077 126.572656 
L 663.043551 127.999689 
L 663.768025 131.529267 
L 665.216974 141.269323 
L 665.941448 148.67428 
L 670.288294 204.469741 
L 673.910665 243.54702 
L 676.084088 270.118139 
L 678.981985 307.971545 
L 680.430933 323.229371 
L 682.604356 342.302859 
L 684.053304 353.977458 
L 685.502253 363.148172 
L 686.226727 366.673609 
L 686.951202 369.316285 
L 688.40015 375.849095 
L 689.124624 379.136285 
L 689.849099 383.14848 
L 692.746996 401.242595 
L 694.920418 413.562505 
L 697.093841 424.493516 
L 698.54279 430.759481 
L 702.889635 451.116007 
L 703.61411 453.747756 
L 704.338584 455.911958 
L 705.063058 457.595488 
L 706.512007 460.038796 
L 707.236481 461.098401 
L 710.134378 466.982034 
L 710.858852 468.883033 
L 713.756749 477.871337 
L 715.205698 480.868507 
L 717.37912 485.075305 
L 718.828069 487.093935 
L 719.552543 487.899861 
L 720.277018 488.951693 
L 721.725966 491.31825 
L 722.45044 491.949962 
L 723.174915 492.102169 
L 723.899389 491.782093 
L 724.623863 491.018468 
L 725.348337 489.962517 
L 726.797286 487.22255 
L 727.52176 485.605657 
L 728.970709 483.176551 
L 731.144131 479.264161 
L 732.59308 476.57046 
L 733.317554 475.567833 
L 734.042028 475.149681 
L 734.766503 475.492917 
L 735.490977 476.712495 
L 736.939926 479.956619 
L 737.6644 481.213012 
L 738.388874 482.173101 
L 740.562297 484.03406 
L 741.286771 484.610322 
L 742.011245 484.65553 
L 743.460194 483.836588 
L 744.184668 483.24662 
L 744.909142 482.498305 
L 745.633617 481.464205 
L 747.082565 478.660603 
L 750.704936 470.198769 
L 751.429411 469.010627 
L 752.153885 468.48495 
L 752.878359 469.716868 
L 753.602834 471.910727 
L 754.327308 473.587553 
L 755.051782 474.744591 
L 755.776256 475.480635 
L 756.500731 475.855741 
L 757.225205 476.062899 
L 759.398628 475.786171 
L 760.847576 474.977101 
L 765.194422 471.467764 
L 765.918896 471.317144 
L 766.64337 472.600973 
L 768.816793 480.17035 
L 770.265742 484.154135 
L 770.990216 485.678024 
L 771.71469 486.70278 
L 772.439164 487.340136 
L 773.163639 487.776835 
L 773.888113 487.886033 
L 775.337061 487.639209 
L 776.78601 486.911819 
L 778.959433 485.496499 
L 779.683907 484.815068 
L 784.755227 478.036462 
L 785.479701 476.780168 
L 786.204175 475.838034 
L 786.92865 476.798601 
L 789.102072 483.534904 
L 789.826547 485.233313 
L 790.551021 486.491176 
L 791.275495 487.356981 
L 791.999969 487.885477 
L 794.173392 488.609919 
L 794.897866 488.718939 
L 796.346815 488.50439 
L 797.071289 488.396853 
L 799.244712 487.741076 
L 799.969186 487.742951 
L 800.69366 488.314392 
L 803.591558 492.534769 
L 804.316032 493.370603 
L 805.040506 493.941179 
L 805.76498 494.203394 
L 806.489455 494.20064 
L 808.662877 493.6349 
L 810.8363 492.777826 
L 812.285249 492.905585 
L 813.734197 493.11709 
L 814.458671 492.883214 
L 815.90762 492.112308 
L 817.356568 491.657056 
L 818.081043 491.26715 
L 818.805517 490.656531 
L 819.529991 489.804248 
L 820.254465 489.419093 
L 820.97894 489.931634 
L 821.703414 490.623128 
L 822.427888 491.02543 
L 823.152363 491.231002 
L 823.876837 491.173342 
L 825.325785 490.419736 
L 826.05026 489.947925 
L 827.499208 488.54415 
L 830.397105 485.388918 
L 832.570528 485.221652 
L 833.295002 484.776266 
L 834.019476 484.026212 
L 837.641848 479.28112 
L 838.366322 479.061119 
L 841.264219 480.323329 
L 841.988693 480.34692 
L 842.713168 480.036016 
L 843.437642 479.472099 
L 844.162116 478.727474 
L 846.335539 475.878405 
L 847.060013 475.669685 
L 847.784487 475.750703 
L 848.508962 476.081922 
L 849.233436 476.58881 
L 849.95791 477.351852 
L 850.682384 478.375983 
L 852.131333 480.774624 
L 853.580281 482.54186 
L 855.02923 484.022382 
L 855.753704 484.570179 
L 856.478179 484.853458 
L 857.202653 484.821601 
L 857.927127 484.497203 
L 858.651601 483.935542 
L 859.376076 483.880656 
L 860.10055 484.188483 
L 860.825024 484.215833 
L 861.549498 483.929231 
L 863.722921 482.360515 
L 865.17187 481.837767 
L 865.896344 481.900284 
L 866.620818 482.160964 
L 867.345292 482.771572 
L 868.069767 483.645384 
L 868.794241 484.204931 
L 869.518715 484.505727 
L 870.243189 484.510691 
L 870.967664 484.018331 
L 871.692138 483.048807 
L 873.865561 479.542139 
L 874.590035 478.827635 
L 875.314509 478.907255 
L 876.038984 479.840375 
L 878.936881 486.308683 
L 879.661355 487.33661 
L 880.385829 488.005781 
L 881.110303 488.415393 
L 881.834778 488.648109 
L 882.559252 488.650244 
L 884.732675 487.959814 
L 886.906097 487.276595 
L 890.528469 485.798608 
L 891.977417 484.626164 
L 892.701892 483.831149 
L 893.426366 482.764222 
L 894.875314 480.117872 
L 895.599789 479.731186 
L 896.324263 480.165393 
L 897.048737 480.434202 
L 897.773211 480.336269 
L 900.671108 479.372215 
L 901.395583 479.313159 
L 902.120057 479.473268 
L 903.569005 480.089969 
L 904.29348 480.293934 
L 906.466903 480.204101 
L 907.191377 480.758523 
L 908.640325 482.410774 
L 909.3648 483.406045 
L 910.089274 484.794941 
L 911.538222 487.98257 
L 912.262697 489.212206 
L 912.987171 490.0742 
L 913.711645 490.478322 
L 914.436119 490.394354 
L 915.160594 489.973369 
L 915.885068 489.314323 
L 919.507439 485.241012 
L 920.956388 484.0761 
L 922.405336 483.370714 
L 923.129811 482.764051 
L 924.578759 480.994786 
L 926.027708 479.389766 
L 928.20113 476.942577 
L 928.925605 477.196796 
L 929.650079 478.972943 
L 931.099027 483.024901 
L 931.823502 484.790533 
L 932.547976 486.129491 
L 933.27245 486.936885 
L 934.721399 487.947705 
L 935.445873 488.09236 
L 936.170347 488.082286 
L 936.894821 487.925591 
L 938.34377 487.124008 
L 939.068244 486.583724 
L 940.517193 484.868203 
L 941.241667 484.645469 
L 942.690616 485.290175 
L 943.41509 485.687409 
L 944.139564 486.455264 
L 945.588513 489.034845 
L 946.312987 490.075865 
L 947.037461 490.825972 
L 947.761935 491.206496 
L 948.48641 491.159837 
L 951.384307 489.590526 
L 953.557729 487.885394 
L 955.006678 487.48509 
L 955.731152 487.483736 
L 956.455627 487.323723 
L 957.180101 486.995922 
L 957.904575 486.378944 
L 959.353524 484.919678 
L 960.077998 484.361316 
L 961.526946 482.687403 
L 962.251421 481.653115 
L 962.975895 480.933066 
L 963.700369 481.954618 
L 965.873792 488.207973 
L 966.598266 489.663675 
L 967.32274 490.494356 
L 968.047215 490.899387 
L 968.771689 491.060659 
L 970.220637 491.07554 
L 971.669586 491.036039 
L 973.118535 491.135916 
L 973.843009 491.090196 
L 974.567483 490.921329 
L 976.016432 490.225472 
L 977.46538 489.412564 
L 978.189854 489.160869 
L 978.914329 489.19996 
L 979.638803 489.639926 
L 981.087751 490.941296 
L 981.812226 491.38766 
L 982.5367 491.580466 
L 983.261174 491.427899 
L 983.985648 490.865367 
L 984.710123 489.930532 
L 986.883545 486.530597 
L 987.60802 485.823145 
L 989.056968 484.9976 
L 989.781442 484.732071 
L 990.505917 484.669014 
L 992.67934 485.228539 
L 993.403814 484.970125 
L 994.852762 483.933095 
L 996.301711 482.41495 
L 997.750659 480.451166 
L 999.199608 478.314183 
L 999.924082 478.55737 
L 1000.648556 479.705492 
L 1001.373031 481.113715 
L 1003.546453 487.619832 
L 1004.270928 488.933744 
L 1004.995402 489.513086 
L 1005.719876 489.28244 
L 1006.44435 488.485678 
L 1007.893299 486.338477 
L 1010.066722 482.144567 
L 1010.791196 481.057409 
L 1012.240145 479.635852 
L 1013.689093 477.787396 
L 1014.413567 477.07961 
L 1015.138042 476.062851 
L 1015.862516 474.701594 
L 1017.311464 471.248106 
L 1019.484887 465.124222 
L 1020.933836 460.054175 
L 1021.65831 457.161442 
L 1022.382784 453.752604 
L 1024.556207 441.372007 
L 1026.72963 426.688968 
L 1028.903053 411.570241 
L 1030.352001 404.731473 
L 1031.80095 399.081676 
L 1032.525424 397.082401 
L 1033.249898 395.891208 
L 1035.423321 393.877985 
L 1036.147795 392.86788 
L 1036.872269 391.543795 
L 1038.321218 388.15298 
L 1039.770166 384.514667 
L 1040.494641 384.847163 
L 1041.219115 389.280982 
L 1045.565961 426.275352 
L 1047.014909 436.270927 
L 1047.014909 436.270927 
" style="fill:none;stroke:#1f77b4;stroke-linecap:square;stroke-width:1.5;"/>
   </g>
   <g id="line2d_15">
    <path clip-path="url(#p93d214722e)" d="M 84.913091 342.379453 
L 85.637565 345.987493 
L 86.362039 348.534065 
L 87.086514 350.505155 
L 87.810988 352.02622 
L 88.535462 355.262756 
L 90.708885 371.128755 
L 91.433359 377.293 
L 95.055731 416.335952 
L 95.780205 421.686287 
L 96.504679 425.871362 
L 97.229153 428.870838 
L 97.953628 430.726384 
L 98.678102 431.3064 
L 99.402576 430.254895 
L 100.12705 427.557984 
L 103.024947 414.374885 
L 103.749422 412.181259 
L 104.473896 410.675252 
L 105.19837 410.514575 
L 105.922844 412.170223 
L 108.096267 421.755684 
L 108.820742 423.140467 
L 109.545216 423.47129 
L 110.26969 423.040373 
L 110.994164 421.965615 
L 111.718639 420.162483 
L 112.443113 417.659665 
L 113.167587 414.424313 
L 114.616536 405.668978 
L 115.34101 401.229101 
L 116.065484 399.401448 
L 116.789958 399.992864 
L 117.514433 400.952599 
L 118.963381 403.662374 
L 119.687855 405.935504 
L 121.136804 411.125396 
L 124.034701 420.102873 
L 126.208124 428.017564 
L 126.932598 429.508562 
L 127.657072 430.126304 
L 128.381547 429.981191 
L 129.106021 428.49855 
L 129.830495 425.735091 
L 131.279444 418.750281 
L 132.728392 413.859959 
L 133.452866 414.250617 
L 134.177341 418.679502 
L 134.901815 424.511128 
L 136.350763 439.482676 
L 137.799712 454.52655 
L 139.24866 467.553892 
L 139.973135 472.884125 
L 140.697609 476.952632 
L 141.422083 480.033638 
L 142.146558 481.773924 
L 142.871032 481.748637 
L 143.595506 480.306634 
L 144.31998 477.745829 
L 145.768929 470.71149 
L 146.493403 468.336464 
L 147.217877 468.942002 
L 148.666826 474.422919 
L 149.3913 476.649502 
L 150.115774 478.295749 
L 150.840249 479.457824 
L 151.564723 480.002592 
L 152.289197 479.619622 
L 153.738146 476.900438 
L 154.46262 476.336185 
L 155.187094 477.070389 
L 155.911568 478.718419 
L 156.636043 480.661461 
L 157.360517 482.22284 
L 158.809465 484.286146 
L 159.53394 484.568638 
L 160.258414 483.713651 
L 160.982888 481.602387 
L 161.707363 478.403699 
L 162.431837 474.153291 
L 163.156311 468.90449 
L 163.880785 462.783373 
L 164.60526 457.860222 
L 165.329734 456.05706 
L 166.054208 456.443518 
L 166.778682 458.101114 
L 169.676579 468.058268 
L 170.401054 470.101305 
L 171.125528 471.586286 
L 171.850002 472.645563 
L 172.574476 474.690907 
L 174.023425 479.776334 
L 174.747899 481.292274 
L 175.472373 481.815611 
L 176.196848 482.186912 
L 176.921322 482.9379 
L 177.645796 484.260338 
L 179.094745 487.534623 
L 179.819219 488.191369 
L 180.543693 487.667191 
L 181.268168 485.883949 
L 181.992642 482.761808 
L 182.717116 478.147444 
L 184.166065 466.482217 
L 184.890539 462.083535 
L 185.615013 460.381277 
L 186.339487 460.753025 
L 187.063962 462.125924 
L 187.788436 463.937461 
L 188.51291 466.688058 
L 189.237384 470.563348 
L 190.686333 479.796588 
L 191.410807 483.438031 
L 192.135281 486.203522 
L 192.859756 488.048338 
L 193.58423 488.820947 
L 194.308704 488.838212 
L 195.033179 488.657456 
L 195.757653 487.985634 
L 196.482127 486.231314 
L 197.206601 483.321632 
L 197.931076 479.366667 
L 198.65555 474.308769 
L 200.104498 461.771767 
L 202.277921 438.046284 
L 203.002395 436.49666 
L 203.72687 437.12373 
L 204.451344 437.595309 
L 205.175818 437.387655 
L 205.900292 436.686468 
L 206.624767 434.560762 
L 207.349241 428.837595 
L 208.073715 419.422599 
L 208.798189 407.503585 
L 210.247138 377.152512 
L 211.696087 338.423134 
L 213.145035 289.184439 
L 214.593984 236.593778 
L 215.318458 219.609758 
L 216.042932 213.452178 
L 216.767406 214.410378 
L 217.491881 218.527353 
L 218.216355 223.691867 
L 218.940829 230.708408 
L 219.665303 240.705435 
L 221.838726 276.28458 
L 222.5632 285.349627 
L 223.287675 292.443995 
L 224.012149 298.169831 
L 224.736623 302.484593 
L 225.461097 305.379475 
L 226.185572 307.149192 
L 226.910046 306.769445 
L 227.63452 303.744333 
L 228.358995 299.90194 
L 229.083469 297.759658 
L 229.807943 298.633296 
L 231.256892 303.497058 
L 231.981366 306.517814 
L 232.70584 310.176925 
L 234.879263 323.856161 
L 235.603737 327.357074 
L 240.675057 347.265948 
L 241.399531 350.696088 
L 242.84848 359.174975 
L 243.572954 364.709556 
L 245.021903 377.94791 
L 247.9198 401.333345 
L 250.093222 417.234605 
L 251.542171 426.532813 
L 252.991119 434.457689 
L 253.715594 437.702224 
L 254.440068 440.325871 
L 255.164542 442.292745 
L 256.613491 445.254634 
L 258.786913 448.397712 
L 263.133759 453.789717 
L 263.858233 455.129371 
L 264.582708 457.031767 
L 266.031656 461.863505 
L 267.480605 467.704324 
L 270.378502 480.51961 
L 271.102976 483.129613 
L 271.82745 485.227006 
L 272.551924 486.775375 
L 273.276399 487.768393 
L 274.000873 488.232247 
L 274.725347 488.128664 
L 275.449821 487.441821 
L 276.174296 486.207775 
L 276.89877 484.426218 
L 277.623244 482.074002 
L 278.347719 479.125977 
L 282.694564 458.60023 
L 283.419038 455.850319 
L 284.143513 453.641607 
L 284.867987 451.884532 
L 286.316935 449.323808 
L 288.490358 445.743022 
L 289.939307 442.276829 
L 290.663781 440.073404 
L 291.388255 437.303574 
L 292.112729 434.091964 
L 293.561678 426.186512 
L 295.010627 416.647904 
L 296.459575 405.51834 
L 298.632998 385.997125 
L 300.806421 364.915499 
L 302.255369 348.677463 
L 304.428792 321.00275 
L 305.87774 300.036885 
L 307.326689 275.730067 
L 309.500112 234.861136 
L 311.673535 188.141625 
L 313.122483 156.373592 
L 313.846957 145.922102 
L 314.571432 142.432878 
L 315.295906 146.4057 
L 316.02038 156.194892 
L 316.744854 169.593849 
L 318.193803 203.013332 
L 320.367226 264.065268 
L 322.540648 330.525459 
L 323.265123 345.729184 
L 323.989597 356.512413 
L 325.438545 372.086361 
L 326.16302 379.247304 
L 328.336442 404.725024 
L 329.060917 411.605532 
L 329.785391 416.711326 
L 331.23434 425.011474 
L 331.958814 428.575821 
L 333.407762 434.935596 
L 334.132237 439.923788 
L 336.305659 458.411432 
L 337.030134 463.322545 
L 337.754608 467.152506 
L 338.479082 469.851049 
L 339.203556 471.437426 
L 339.928031 471.924258 
L 340.652505 471.72816 
L 341.376979 470.831592 
L 342.101453 469.13827 
L 342.825928 466.73035 
L 343.550402 463.784837 
L 344.99935 456.602724 
L 345.723825 454.549497 
L 346.448299 453.675602 
L 347.172773 453.561137 
L 347.897248 455.062077 
L 349.346196 459.708734 
L 350.795145 463.484463 
L 352.244093 465.981877 
L 352.968567 469.196143 
L 354.417516 480.458367 
L 355.14199 485.107757 
L 355.866464 488.741951 
L 356.590939 491.459386 
L 357.315413 493.156086 
L 358.039887 493.711857 
L 358.764361 493.217026 
L 359.488836 492.265245 
L 360.21331 491.659725 
L 360.937784 492.061026 
L 361.662258 492.867757 
L 362.386733 493.053996 
L 363.111207 492.400854 
L 363.835681 490.815297 
L 364.560156 488.175971 
L 365.28463 484.395968 
L 366.009104 479.507128 
L 368.182527 461.412196 
L 368.907001 459.058052 
L 369.631475 459.413586 
L 370.35595 461.123826 
L 371.080424 463.43529 
L 371.804898 466.139773 
L 372.529372 469.678622 
L 373.978321 479.360346 
L 374.702795 482.807332 
L 375.427269 484.758937 
L 376.151744 485.381638 
L 376.876218 484.545514 
L 377.600692 482.084426 
L 378.325166 478.263575 
L 379.049641 473.369123 
L 379.774115 467.537102 
L 380.498589 462.663457 
L 381.223064 460.731189 
L 381.947538 460.737244 
L 382.672012 461.627008 
L 383.396486 463.710226 
L 384.845435 468.766757 
L 385.569909 470.561153 
L 386.294383 471.823912 
L 387.018858 472.687863 
L 387.743332 473.287256 
L 388.467806 475.183145 
L 389.19228 478.253541 
L 389.916755 480.80278 
L 390.641229 482.370581 
L 391.365703 483.002355 
L 392.090177 483.337869 
L 392.814652 483.448368 
L 393.539126 483.23154 
L 394.2636 482.267919 
L 394.988074 480.17439 
L 396.437023 474.009855 
L 397.161497 472.54218 
L 397.885972 473.082656 
L 398.610446 473.919092 
L 399.33492 474.120557 
L 400.059394 473.773901 
L 400.783869 472.919318 
L 401.508343 471.286686 
L 402.232817 468.759496 
L 402.957291 465.223295 
L 404.40624 456.755766 
L 405.130714 455.391047 
L 405.855188 456.911489 
L 408.028611 465.889024 
L 408.753085 469.221104 
L 410.202034 477.421685 
L 410.926508 480.833374 
L 411.650982 483.105737 
L 412.375457 484.46361 
L 413.099931 485.022137 
L 413.824405 484.432404 
L 414.54888 482.609059 
L 415.273354 479.581674 
L 415.997828 475.233717 
L 416.722302 471.93122 
L 417.446777 470.945121 
L 418.171251 470.918255 
L 418.895725 471.711664 
L 421.793622 477.089763 
L 422.518096 478.210134 
L 423.242571 479.013141 
L 423.967045 480.063035 
L 424.691519 482.540491 
L 425.415993 485.470356 
L 426.140468 487.32226 
L 426.864942 487.901529 
L 427.589416 487.388043 
L 428.31389 486.132282 
L 429.038365 483.995989 
L 431.211788 475.617328 
L 432.660736 471.615183 
L 434.109685 465.936258 
L 434.834159 462.706932 
L 435.558633 458.77292 
L 436.283107 453.70175 
L 438.45653 433.477702 
L 439.181004 430.452057 
L 439.905479 431.917384 
L 440.629953 436.527286 
L 442.803376 453.095224 
L 444.252324 465.563764 
L 444.976798 470.640626 
L 446.425747 478.357651 
L 447.150221 480.732895 
L 447.874696 481.872947 
L 448.59917 481.973915 
L 449.323644 481.038643 
L 450.048118 479.170072 
L 450.772593 476.406923 
L 451.497067 472.84332 
L 452.221541 468.229675 
L 453.67049 456.760083 
L 454.394964 451.009122 
L 455.119438 446.710671 
L 455.843912 444.851544 
L 456.568387 445.241599 
L 457.292861 447.356022 
L 458.741809 454.788865 
L 460.915232 467.503969 
L 461.639706 470.914877 
L 462.364181 475.131554 
L 463.813129 485.68701 
L 464.537604 489.5263 
L 465.262078 491.743088 
L 465.986552 492.610752 
L 466.711026 492.572938 
L 467.435501 491.923067 
L 468.159975 490.924099 
L 468.884449 489.406158 
L 469.608923 486.853833 
L 470.333398 483.207439 
L 471.782346 474.06747 
L 473.231295 462.803535 
L 475.404717 443.086012 
L 476.129192 440.552237 
L 476.853666 442.572596 
L 477.57814 447.778369 
L 479.027089 459.892179 
L 481.200512 476.6796 
L 481.924986 482.3199 
L 482.64946 486.533004 
L 483.373934 489.227908 
L 484.098409 490.470209 
L 484.822883 490.285993 
L 485.547357 488.7447 
L 486.271831 485.715955 
L 486.996306 481.211031 
L 487.72078 475.372847 
L 488.445254 468.214201 
L 489.169728 459.908624 
L 489.894203 453.52494 
L 490.618677 450.815895 
L 491.343151 449.356305 
L 492.067625 448.408025 
L 492.7921 448.292485 
L 493.516574 448.799089 
L 494.241048 449.668617 
L 494.965522 451.454588 
L 497.138945 458.801991 
L 497.863419 462.550826 
L 499.312368 471.406518 
L 500.036842 474.587675 
L 500.761317 476.905443 
L 501.485791 478.152271 
L 502.210265 478.152005 
L 502.934739 477.208738 
L 503.659214 476.008041 
L 504.383688 476.096385 
L 505.832636 479.206092 
L 506.557111 480.019752 
L 507.281585 480.175556 
L 508.006059 479.691093 
L 508.730533 478.526068 
L 509.455008 476.717354 
L 510.179482 474.106691 
L 511.62843 467.610683 
L 512.352905 466.397039 
L 513.077379 467.165375 
L 513.801853 469.121111 
L 515.250802 474.055679 
L 516.69975 477.955634 
L 517.424225 479.83916 
L 518.148699 480.899944 
L 518.873173 480.513119 
L 519.597647 478.541129 
L 520.322122 475.122619 
L 521.046596 470.302086 
L 522.495544 457.48267 
L 524.668967 435.356189 
L 525.393441 433.504143 
L 526.117916 434.874929 
L 526.84239 438.366789 
L 528.291338 450.102568 
L 529.740287 461.505572 
L 531.189235 470.597568 
L 533.362658 482.887781 
L 534.087133 486.280573 
L 534.811607 488.783045 
L 535.536081 490.551632 
L 536.260555 491.594815 
L 536.98503 491.694812 
L 537.709504 490.915247 
L 538.433978 489.521505 
L 539.158452 487.823337 
L 539.882927 485.739026 
L 540.607401 482.724623 
L 541.331875 478.536634 
L 542.780824 467.878284 
L 544.229772 454.613142 
L 546.403195 430.983079 
L 547.127669 426.233563 
L 547.852143 427.247359 
L 548.576618 432.860257 
L 552.923463 475.385055 
L 553.647938 480.327244 
L 554.372412 484.074961 
L 555.096886 486.736803 
L 555.82136 487.874467 
L 556.545835 487.708716 
L 557.270309 486.572307 
L 558.719257 482.75812 
L 559.443732 481.579219 
L 560.168206 480.676887 
L 560.89268 480.462339 
L 563.066103 481.410642 
L 563.790577 481.092552 
L 564.515051 479.920854 
L 565.239526 477.869504 
L 565.964 477.510817 
L 568.137423 485.816523 
L 568.861897 487.364786 
L 569.586371 488.137092 
L 570.310846 488.18575 
L 571.03532 487.282479 
L 572.484268 483.401191 
L 574.657691 476.534259 
L 576.10664 469.745029 
L 577.555588 461.755805 
L 578.280062 456.637657 
L 579.004537 450.397364 
L 581.177959 429.372737 
L 581.902434 428.20971 
L 582.626908 431.290219 
L 584.800331 446.544895 
L 585.524805 452.62691 
L 586.973754 467.022762 
L 587.698228 472.865457 
L 588.422702 477.354846 
L 589.147176 480.929303 
L 589.871651 483.68054 
L 590.596125 484.970073 
L 591.320599 485.08556 
L 592.045073 484.196452 
L 592.769548 482.398364 
L 593.494022 480.025583 
L 594.218496 476.903162 
L 594.94297 472.595776 
L 595.667445 469.1839 
L 596.391919 468.438796 
L 597.116393 469.431081 
L 598.565342 472.18083 
L 599.289816 473.153269 
L 600.01429 473.802721 
L 600.738765 474.028585 
L 602.187713 473.516064 
L 602.912187 472.788172 
L 603.636662 472.957414 
L 605.08561 476.970556 
L 605.810084 477.755859 
L 606.534559 476.930808 
L 607.259033 474.651096 
L 608.707981 467.943754 
L 610.15693 459.796447 
L 610.881404 455.328512 
L 611.605878 450.030029 
L 613.779301 429.62835 
L 614.503775 421.617377 
L 615.22825 412.089572 
L 615.952724 400.65135 
L 617.401673 374.125768 
L 618.126147 365.130806 
L 618.850621 361.658935 
L 619.575095 361.095425 
L 620.29957 361.223038 
L 621.024044 360.855838 
L 621.748518 361.324875 
L 622.472992 363.843332 
L 623.197467 368.975998 
L 624.646415 381.930902 
L 625.370889 387.266502 
L 626.819838 395.217302 
L 628.268786 401.369579 
L 629.717735 406.691576 
L 630.442209 409.891144 
L 631.166683 411.981067 
L 631.891158 413.05037 
L 632.615632 413.192892 
L 633.340106 412.136156 
L 634.064581 409.77945 
L 634.789055 405.862646 
L 635.513529 401.280814 
L 636.238003 398.163248 
L 636.962478 396.029261 
L 638.411426 390.945375 
L 639.1359 389.252684 
L 639.860375 388.484981 
L 640.584849 388.771123 
L 641.309323 389.726367 
L 644.20722 396.356499 
L 644.931694 397.130931 
L 645.656169 396.850849 
L 646.380643 395.532395 
L 647.105117 392.815396 
L 647.829591 388.602796 
L 648.554066 382.965556 
L 649.27854 375.460203 
L 650.003014 366.308431 
L 651.451963 343.187179 
L 652.900911 313.775373 
L 654.34986 277.614692 
L 655.798808 232.322791 
L 657.247757 180.165861 
L 660.145654 71.359446 
L 660.870128 51.625837 
L 661.594602 38.295012 
L 662.319077 33.868727 
L 663.043551 36.738157 
L 663.768025 43.657953 
L 664.492499 52.60962 
L 665.216974 63.09 
L 665.941448 78.091773 
L 670.288294 190.475434 
L 671.737242 219.807005 
L 678.25751 341.043926 
L 679.706459 365.499329 
L 681.155407 385.279795 
L 683.32883 410.3652 
L 684.053304 417.452495 
L 684.777779 422.849974 
L 685.502253 426.868029 
L 686.226727 429.770312 
L 687.675676 433.97073 
L 689.124624 438.791694 
L 689.849099 442.066566 
L 691.298047 449.639156 
L 693.47147 459.179143 
L 694.920418 464.251326 
L 696.369367 468.782167 
L 697.093841 470.122883 
L 697.818315 470.818938 
L 698.54279 471.887338 
L 699.991738 474.426876 
L 702.889635 478.403442 
L 703.61411 478.633805 
L 704.338584 477.996947 
L 705.063058 476.250988 
L 705.787532 473.641334 
L 707.236481 467.117796 
L 707.960955 464.77318 
L 708.685429 462.845065 
L 710.134378 458.110704 
L 710.858852 457.134927 
L 711.583326 457.847816 
L 713.756749 464.246762 
L 714.481223 465.67557 
L 715.930172 468.001893 
L 717.37912 471.43361 
L 718.103595 472.582156 
L 718.828069 473.359609 
L 719.552543 474.419462 
L 720.277018 477.887709 
L 721.725966 487.076285 
L 722.45044 490.412788 
L 723.174915 492.692478 
L 723.899389 493.712543 
L 724.623863 493.339702 
L 725.348337 491.879303 
L 726.072812 489.598904 
L 726.797286 486.707766 
L 727.52176 483.30195 
L 728.246234 480.792908 
L 728.970709 479.098073 
L 729.695183 476.986832 
L 730.419657 474.492271 
L 732.59308 465.6863 
L 733.317554 463.701491 
L 734.042028 462.893781 
L 734.766503 463.608768 
L 735.490977 466.389889 
L 736.939926 473.635413 
L 737.6644 476.245375 
L 738.388874 477.978763 
L 739.113348 478.921003 
L 740.562297 479.856204 
L 741.286771 480.410566 
L 742.011245 480.026949 
L 744.184668 476.909615 
L 744.909142 476.01615 
L 745.633617 474.70372 
L 746.358091 472.929235 
L 747.082565 470.685926 
L 750.704936 456.669212 
L 751.429411 454.250232 
L 752.153885 452.901396 
L 752.878359 455.264415 
L 753.602834 459.560943 
L 754.327308 462.686726 
L 755.051782 464.52347 
L 755.776256 465.241717 
L 757.225205 465.400764 
L 757.949679 465.239232 
L 758.674153 465.493956 
L 759.398628 465.925979 
L 760.123102 466.009188 
L 760.847576 465.865151 
L 761.57205 465.366711 
L 762.296525 464.616541 
L 763.020999 463.563091 
L 763.745473 462.020439 
L 764.469947 460.038878 
L 765.194422 458.552013 
L 765.918896 458.045455 
L 766.64337 460.616022 
L 768.092319 470.388991 
L 769.541267 478.308243 
L 770.265742 481.598862 
L 770.990216 483.88003 
L 771.71469 484.876503 
L 772.439164 484.876158 
L 773.163639 484.29024 
L 773.888113 483.447759 
L 774.612587 483.152402 
L 775.337061 483.278141 
L 776.78601 483.020986 
L 777.510484 482.98909 
L 778.959433 483.25226 
L 779.683907 482.758164 
L 780.408381 481.449296 
L 782.581804 475.662977 
L 783.306278 473.450148 
L 784.030752 470.734563 
L 784.755227 467.413281 
L 786.204175 460.16741 
L 786.92865 461.218264 
L 788.377598 469.441715 
L 789.102072 473.129486 
L 789.826547 475.811766 
L 790.551021 477.460116 
L 791.275495 478.25415 
L 791.999969 478.631016 
L 792.724444 478.684839 
L 793.448918 479.093493 
L 794.173392 480.026433 
L 794.897866 480.734042 
L 795.622341 480.959354 
L 797.071289 480.500056 
L 797.795763 479.90099 
L 798.520238 479.053233 
L 799.244712 478.508082 
L 799.969186 478.220595 
L 800.69366 478.93311 
L 803.591558 485.797524 
L 804.316032 486.976353 
L 805.040506 487.550312 
L 805.76498 487.452774 
L 806.489455 486.738759 
L 807.213929 485.845139 
L 807.938403 485.343859 
L 808.662877 485.094292 
L 810.111826 484.090176 
L 810.8363 483.989775 
L 811.560774 484.625366 
L 813.734197 487.20626 
L 814.458671 487.043685 
L 815.90762 485.746485 
L 816.632094 485.36334 
L 817.356568 484.691622 
L 818.081043 483.474404 
L 818.805517 481.515023 
L 819.529991 478.971775 
L 820.254465 477.742842 
L 820.97894 479.15063 
L 821.703414 481.064297 
L 823.152363 483.198251 
L 823.876837 483.787907 
L 824.601311 483.580757 
L 825.325785 482.925088 
L 826.05026 481.96205 
L 826.774734 480.546767 
L 828.948157 475.304948 
L 829.672631 473.18366 
L 830.397105 471.98317 
L 831.121579 471.941666 
L 832.570528 472.135829 
L 833.295002 471.448782 
L 834.019476 470.035827 
L 836.192899 464.080322 
L 837.641848 461.215918 
L 838.366322 461.289977 
L 839.090796 462.58651 
L 840.539745 464.56572 
L 841.264219 465.350961 
L 841.988693 465.563268 
L 842.713168 464.672856 
L 843.437642 462.766065 
L 844.162116 460.106707 
L 845.611065 453.688967 
L 846.335539 451.389275 
L 847.060013 450.219335 
L 847.784487 449.750014 
L 848.508962 449.975572 
L 849.233436 450.857528 
L 849.95791 452.476357 
L 850.682384 455.050607 
L 851.406859 458.293603 
L 852.131333 460.982446 
L 855.02923 468.620098 
L 855.753704 470.245271 
L 856.478179 471.020643 
L 857.202653 470.867923 
L 857.927127 469.823983 
L 858.651601 468.354092 
L 859.376076 468.774822 
L 860.10055 470.558019 
L 860.825024 471.553616 
L 861.549498 471.62898 
L 865.17187 469.061915 
L 865.896344 469.462664 
L 866.620818 470.41401 
L 867.345292 472.124194 
L 868.069767 474.1972 
L 868.794241 475.298885 
L 869.518715 475.616552 
L 870.243189 475.180823 
L 870.967664 473.548467 
L 871.692138 470.689672 
L 873.865561 460.241331 
L 874.590035 458.370488 
L 875.314509 458.973031 
L 876.038984 462.002688 
L 878.212406 475.646959 
L 878.936881 478.958825 
L 879.661355 481.46781 
L 880.385829 482.958036 
L 881.110303 483.686091 
L 881.834778 483.951269 
L 882.559252 483.850121 
L 883.283726 483.200788 
L 884.732675 481.726575 
L 886.181623 480.585171 
L 887.630572 480.034267 
L 889.07952 479.111696 
L 889.803995 478.272287 
L 891.252943 475.788238 
L 891.977417 474.449093 
L 892.701892 472.772846 
L 893.426366 470.347938 
L 894.875314 464.103775 
L 895.599789 463.871124 
L 896.324263 465.880128 
L 897.048737 467.303371 
L 897.773211 467.44996 
L 899.946634 466.063755 
L 900.671108 465.988097 
L 901.395583 466.202858 
L 902.120057 466.643736 
L 903.569005 468.375027 
L 904.29348 468.848543 
L 905.017954 468.720543 
L 905.742428 468.272115 
L 906.466903 468.334335 
L 907.191377 469.248775 
L 907.915851 470.667767 
L 908.640325 472.497137 
L 909.3648 474.866819 
L 910.089274 478.132661 
L 910.813748 481.94541 
L 911.538222 485.162324 
L 912.262697 487.555846 
L 912.987171 489.029826 
L 913.711645 489.454827 
L 914.436119 488.975369 
L 915.160594 487.629043 
L 918.782965 478.227136 
L 919.507439 476.528674 
L 920.231913 475.287935 
L 920.956388 474.669399 
L 921.680862 474.428551 
L 922.405336 474.04196 
L 923.129811 472.926613 
L 924.578759 469.262532 
L 927.476656 461.98344 
L 928.20113 459.595762 
L 928.925605 460.223246 
L 929.650079 464.790768 
L 931.099027 475.115958 
L 931.823502 479.431907 
L 932.547976 482.539581 
L 933.27245 484.30587 
L 933.996924 485.534429 
L 934.721399 486.437893 
L 935.445873 486.615625 
L 936.170347 486.427563 
L 936.894821 485.986686 
L 937.619296 485.109507 
L 938.34377 483.806607 
L 939.068244 481.725769 
L 940.517193 475.34148 
L 941.241667 473.678736 
L 941.966141 473.385045 
L 942.690616 473.281472 
L 943.41509 473.429637 
L 944.139564 474.514354 
L 944.864038 476.862089 
L 946.312987 481.960183 
L 947.037461 483.628708 
L 947.761935 484.447616 
L 948.48641 484.358659 
L 949.210884 483.507404 
L 949.935358 482.360509 
L 951.384307 480.768189 
L 952.108781 479.62985 
L 952.833255 478.273517 
L 953.557729 477.602447 
L 954.282204 477.641154 
L 955.006678 478.221389 
L 955.731152 479.42167 
L 956.455627 480.339822 
L 957.180101 480.38286 
L 957.904575 479.480024 
L 959.353524 476.389446 
L 960.077998 474.923888 
L 960.802472 472.765627 
L 962.975895 464.769809 
L 963.700369 467.074145 
L 965.149318 477.265852 
L 965.873792 481.379537 
L 966.598266 484.081006 
L 967.32274 485.300456 
L 968.047215 485.562448 
L 968.771689 485.189185 
L 970.220637 483.922493 
L 970.945112 483.460603 
L 971.669586 483.324386 
L 972.39406 483.356198 
L 973.118535 483.179484 
L 973.843009 482.575984 
L 974.567483 481.305166 
L 976.016432 477.327918 
L 976.740906 475.382764 
L 977.46538 473.812984 
L 978.189854 472.888621 
L 978.914329 473.096243 
L 979.638803 474.453654 
L 981.812226 480.679612 
L 982.5367 481.986217 
L 983.261174 482.524962 
L 983.985648 482.488857 
L 984.710123 481.808894 
L 985.434597 480.711393 
L 986.159071 479.817015 
L 986.883545 479.688188 
L 987.60802 480.256603 
L 989.781442 482.933405 
L 990.505917 484.079351 
L 991.954865 486.722685 
L 992.67934 486.770553 
L 993.403814 485.739566 
L 994.852762 482.471991 
L 996.301711 478.539081 
L 997.026185 476.081887 
L 997.750659 473.089731 
L 999.199608 466.484886 
L 999.924082 466.869646 
L 1001.373031 473.486424 
L 1002.821979 481.328752 
L 1003.546453 483.816744 
L 1004.270928 484.858462 
L 1004.995402 484.672144 
L 1005.719876 483.504819 
L 1008.617773 477.340583 
L 1009.342248 476.290175 
L 1010.066722 475.705424 
L 1010.791196 475.567585 
L 1012.240145 476.25565 
L 1013.689093 474.603769 
L 1015.138042 474.148638 
L 1015.862516 473.615369 
L 1018.035939 471.56262 
L 1018.760413 471.477508 
L 1019.484887 470.770827 
L 1020.209361 469.331615 
L 1020.933836 467.269934 
L 1021.65831 464.533451 
L 1022.382784 460.700769 
L 1023.107258 455.561192 
L 1024.556207 442.856594 
L 1026.005156 427.32134 
L 1027.454104 409.029773 
L 1028.178578 399.443166 
L 1028.903053 391.684122 
L 1030.352001 380.628569 
L 1031.076475 376.132287 
L 1031.80095 372.467195 
L 1032.525424 369.745501 
L 1033.249898 368.268118 
L 1033.974372 367.362605 
L 1035.423321 364.649897 
L 1036.147795 363.055599 
L 1036.872269 360.852068 
L 1037.596744 358.089435 
L 1039.770166 347.896522 
L 1040.494641 348.68321 
L 1041.219115 357.743772 
L 1043.392538 395.414608 
L 1044.841486 418.440478 
L 1045.565961 427.812477 
L 1047.014909 442.188242 
L 1047.014909 442.188242 
" style="fill:none;stroke:#ff7f0e;stroke-linecap:square;stroke-width:1.5;"/>
   </g>
   <g id="line2d_16">
    <path clip-path="url(#p93d214722e)" d="M 84.913091 411.645168 
L 87.810988 411.17517 
L 88.535462 411.655754 
L 89.984411 413.896171 
L 91.433359 416.558368 
L 92.157834 418.440291 
L 95.055731 427.014178 
L 96.504679 430.674787 
L 98.678102 435.251402 
L 100.12705 437.70392 
L 101.575999 439.907022 
L 105.19837 444.575116 
L 105.922844 445.69029 
L 107.371793 448.354429 
L 108.820742 450.183813 
L 110.26969 451.891473 
L 110.994164 452.540364 
L 114.616536 454.714002 
L 115.34101 455.237464 
L 116.789958 457.058814 
L 118.238907 457.839158 
L 119.687855 458.211797 
L 120.41233 457.959442 
L 121.136804 457.085531 
L 121.861278 455.90688 
L 122.585752 454.975011 
L 123.310227 454.532369 
L 124.034701 454.648418 
L 124.759175 455.168747 
L 125.48365 456.028495 
L 126.208124 457.253712 
L 127.657072 460.378777 
L 130.554969 467.437936 
L 131.279444 468.695502 
L 132.003918 469.591136 
L 132.728392 470.257642 
L 133.452866 470.760588 
L 134.177341 471.067277 
L 134.901815 471.121063 
L 136.350763 470.901182 
L 138.524186 470.9143 
L 139.24866 470.923202 
L 140.697609 470.642119 
L 144.31998 471.4091 
L 145.044455 471.753586 
L 145.768929 472.243225 
L 147.217877 472.815496 
L 147.942352 472.985988 
L 148.666826 472.935927 
L 150.115774 472.551184 
L 150.840249 472.166909 
L 151.564723 471.350302 
L 152.289197 469.936498 
L 153.738146 466.833552 
L 154.46262 465.873379 
L 155.187094 465.510546 
L 155.911568 465.739376 
L 157.360517 467.145756 
L 158.084991 468.128964 
L 158.809465 469.413328 
L 161.707363 475.642608 
L 162.431837 476.662988 
L 163.156311 477.232734 
L 163.880785 477.450929 
L 164.60526 477.276735 
L 165.329734 476.676096 
L 166.054208 475.701214 
L 166.778682 474.336423 
L 168.227631 470.931924 
L 169.676579 467.045167 
L 171.850002 460.540002 
L 172.574476 458.844491 
L 173.298951 457.76757 
L 174.023425 457.224086 
L 174.747899 456.987877 
L 175.472373 456.932612 
L 176.196848 457.002689 
L 176.921322 456.906364 
L 177.645796 456.233525 
L 178.370271 454.947296 
L 179.819219 451.760708 
L 180.543693 449.958967 
L 181.268168 447.839418 
L 181.992642 445.29412 
L 184.890539 433.826922 
L 185.615013 432.464322 
L 186.339487 432.039307 
L 187.063962 432.126117 
L 187.788436 432.48441 
L 188.51291 433.218272 
L 189.237384 434.516585 
L 192.135281 441.748682 
L 192.859756 442.538213 
L 193.58423 443.083522 
L 194.308704 443.290937 
L 195.033179 442.6364 
L 195.757653 441.138967 
L 196.482127 438.99506 
L 197.931076 433.203001 
L 199.380024 426.874467 
L 200.828973 420.746287 
L 202.277921 414.453937 
L 203.002395 412.559152 
L 203.72687 411.44058 
L 205.175818 409.965294 
L 205.900292 409.422885 
L 206.624767 408.630245 
L 207.349241 406.918982 
L 208.073715 404.442756 
L 209.522664 398.306937 
L 211.696087 387.950806 
L 213.145035 379.430746 
L 214.593984 370.413467 
L 215.318458 367.381063 
L 216.042932 366.336826 
L 216.767406 366.746414 
L 218.216355 369.179093 
L 218.940829 370.887138 
L 219.665303 373.228338 
L 222.5632 384.007172 
L 223.287675 385.687888 
L 224.012149 387.049577 
L 224.736623 388.12951 
L 226.185572 389.830039 
L 226.910046 390.310358 
L 228.358995 390.221056 
L 229.083469 390.6449 
L 229.807943 391.857844 
L 231.256892 395.094815 
L 232.70584 398.690803 
L 238.501634 414.901528 
L 240.675057 421.134995 
L 242.84848 428.258707 
L 245.021903 436.575179 
L 247.9198 447.305551 
L 250.817697 457.108911 
L 252.991119 463.674276 
L 255.164542 469.383658 
L 257.337965 474.279129 
L 259.511388 478.502665 
L 261.684811 482.013574 
L 263.858233 484.964447 
L 266.031656 487.78577 
L 268.205079 490.096388 
L 269.654027 491.385266 
L 271.102976 492.42011 
L 272.551924 493.142573 
L 274.000873 493.465508 
L 274.725347 493.472722 
L 276.174296 493.159297 
L 277.623244 492.409199 
L 279.072193 491.214101 
L 281.245616 488.883992 
L 283.419038 486.2735 
L 285.592461 483.420591 
L 287.04141 481.189922 
L 288.490358 478.576551 
L 290.663781 474.03184 
L 292.112729 470.572701 
L 294.286152 464.631431 
L 297.184049 455.917824 
L 299.357472 448.423853 
L 301.530895 440.345978 
L 303.704318 431.385462 
L 309.500112 405.651884 
L 311.673535 394.848264 
L 313.122483 387.500945 
L 313.846957 384.59673 
L 314.571432 382.729857 
L 315.295906 381.931292 
L 316.02038 382.132776 
L 316.744854 383.087099 
L 317.469329 384.555406 
L 318.193803 386.421748 
L 318.918277 388.757183 
L 320.367226 394.499375 
L 321.816174 401.411496 
L 322.540648 404.107143 
L 323.265123 405.946273 
L 323.989597 407.065871 
L 324.714071 407.743312 
L 325.438545 408.165091 
L 326.16302 408.908241 
L 326.887494 410.530186 
L 331.958814 426.430405 
L 334.132237 434.616647 
L 334.856711 436.371869 
L 335.581185 437.24312 
L 336.305659 437.561487 
L 337.030134 437.553866 
L 337.754608 437.171102 
L 338.479082 436.215463 
L 339.928031 433.124675 
L 341.376979 430.23372 
L 342.825928 428.147693 
L 344.274876 426.712033 
L 344.99935 426.27464 
L 345.723825 426.672301 
L 346.448299 427.742914 
L 347.172773 429.48456 
L 349.346196 436.457953 
L 350.795145 440.096742 
L 352.244093 443.244372 
L 352.968567 444.527763 
L 353.693042 445.354068 
L 354.417516 445.602626 
L 355.14199 445.43058 
L 355.866464 445.4329 
L 356.590939 445.746695 
L 358.039887 446.636029 
L 358.764361 446.740258 
L 359.488836 446.62906 
L 360.21331 446.834981 
L 360.937784 447.862827 
L 362.386733 451.406741 
L 366.009104 460.988903 
L 368.182527 467.173562 
L 368.907001 468.720438 
L 369.631475 469.641774 
L 370.35595 470.100321 
L 371.080424 470.270494 
L 371.804898 470.16522 
L 372.529372 469.69648 
L 373.253847 468.771966 
L 375.427269 465.193568 
L 377.600692 462.235435 
L 379.049641 459.92419 
L 379.774115 458.385739 
L 380.498589 457.324642 
L 381.223064 457.288026 
L 381.947538 457.906584 
L 382.672012 458.958848 
L 387.018858 467.112448 
L 387.743332 468.141444 
L 388.467806 468.800182 
L 389.19228 469.046231 
L 389.916755 468.925982 
L 392.090177 467.481131 
L 394.988074 467.096408 
L 396.437023 466.219405 
L 397.161497 466.423085 
L 397.885972 467.404128 
L 399.33492 470.253473 
L 401.508343 474.983856 
L 403.681766 479.722741 
L 405.130714 482.350078 
L 405.855188 483.249521 
L 406.579663 483.771136 
L 407.304137 484.033365 
L 408.028611 484.117431 
L 408.753085 484.000048 
L 409.47756 483.625022 
L 410.202034 482.931528 
L 412.375457 480.37104 
L 414.54888 478.443003 
L 415.997828 477.170781 
L 416.722302 476.86869 
L 417.446777 477.163311 
L 418.171251 477.895664 
L 419.620199 480.454015 
L 421.069148 482.983002 
L 422.518096 485.201843 
L 423.242571 486.103952 
L 423.967045 486.802559 
L 424.691519 487.241932 
L 425.415993 487.407307 
L 426.864942 487.090308 
L 428.31389 486.599713 
L 429.762839 485.797084 
L 430.487313 485.354988 
L 431.211788 485.219626 
L 431.936262 485.470489 
L 433.38521 486.42596 
L 436.283107 488.85726 
L 437.732056 489.515538 
L 439.181004 490.194845 
L 440.629953 491.069169 
L 442.078901 491.574606 
L 442.803376 491.706182 
L 443.52785 491.702271 
L 444.252324 491.519406 
L 447.150221 490.287927 
L 448.59917 489.620554 
L 450.772593 488.280727 
L 452.946015 486.634495 
L 454.394964 485.470054 
L 455.119438 485.136648 
L 455.843912 485.227242 
L 456.568387 485.676556 
L 457.292861 486.39638 
L 461.639706 491.51479 
L 463.088655 492.624272 
L 463.813129 492.952058 
L 464.537604 493.065588 
L 465.262078 492.978899 
L 466.711026 492.410456 
L 467.435501 492.067931 
L 468.159975 491.878484 
L 470.333398 491.934816 
L 472.50682 492.052312 
L 473.231295 491.958008 
L 473.955769 491.694353 
L 475.404717 490.96491 
L 476.129192 490.859036 
L 476.853666 491.00166 
L 481.200512 492.57749 
L 482.64946 492.995068 
L 484.098409 493.149485 
L 485.547357 493.121406 
L 486.996306 492.82978 
L 488.445254 492.141165 
L 489.169728 491.646285 
L 489.894203 491.391005 
L 490.618677 491.523029 
L 492.067625 492.12824 
L 493.516574 492.80704 
L 495.689997 493.4966 
L 497.138945 493.70762 
L 498.587894 493.66816 
L 500.036842 493.396357 
L 500.761317 493.139073 
L 502.210265 492.248999 
L 503.659214 491.065694 
L 504.383688 490.753305 
L 508.730533 490.682085 
L 510.179482 490.363839 
L 511.62843 489.844459 
L 512.352905 489.790836 
L 513.801853 490.175133 
L 515.975276 490.894726 
L 518.148699 491.479162 
L 520.322122 491.684855 
L 521.77107 491.650828 
L 523.220019 491.480952 
L 523.944493 491.290471 
L 524.668967 491.21996 
L 525.393441 491.454591 
L 527.566864 492.515795 
L 529.015813 492.898107 
L 529.740287 492.924561 
L 531.189235 492.694492 
L 532.638184 492.230837 
L 535.536081 490.804733 
L 536.98503 489.78682 
L 537.709504 489.073324 
L 547.127669 477.682039 
L 547.852143 477.293463 
L 548.576618 477.332466 
L 551.474515 478.145926 
L 554.372412 479.993229 
L 555.82136 480.935967 
L 556.545835 481.245016 
L 557.270309 481.42302 
L 558.719257 481.441478 
L 560.168206 481.278014 
L 560.89268 480.898956 
L 561.617154 480.206114 
L 563.066103 478.097906 
L 564.515051 475.628189 
L 566.688474 471.682766 
L 568.861897 469.185732 
L 570.310846 467.425148 
L 571.03532 466.318844 
L 572.484268 463.391577 
L 573.933217 459.951387 
L 577.555588 452.586107 
L 579.004537 450.357625 
L 580.453485 448.322525 
L 581.177959 447.160822 
L 581.902434 446.217221 
L 583.351382 444.655554 
L 584.800331 442.644612 
L 585.524805 441.934748 
L 589.147176 440.046658 
L 590.596125 439.995188 
L 592.045073 440.019355 
L 592.769548 440.209132 
L 594.218496 441.004299 
L 595.667445 441.147136 
L 596.391919 441.113322 
L 597.116393 440.875602 
L 597.840867 440.436336 
L 598.565342 439.601574 
L 600.01429 437.218171 
L 602.187713 432.612059 
L 605.810084 426.821514 
L 606.534559 425.827638 
L 607.983507 423.124846 
L 608.707981 421.331914 
L 610.881404 414.544902 
L 612.330353 410.564789 
L 614.503775 404.020408 
L 615.952724 400.63374 
L 616.677198 399.088931 
L 618.126147 394.914249 
L 620.29957 387.786361 
L 622.472992 379.464144 
L 623.921941 375.162381 
L 625.370889 370.826624 
L 626.819838 365.281098 
L 631.891158 343.685003 
L 634.064581 335.110122 
L 637.686952 321.546516 
L 639.1359 315.391533 
L 639.860375 313.1365 
L 641.309323 309.809487 
L 643.482746 306.370633 
L 644.931694 302.892295 
L 647.105117 296.455354 
L 648.554066 291.11552 
L 650.003014 284.695167 
L 651.451963 277.144605 
L 653.625386 264.276377 
L 655.074334 253.568328 
L 657.972231 228.290161 
L 659.42118 215.329571 
L 660.145654 209.796377 
L 660.870128 205.365021 
L 661.594602 202.193407 
L 662.319077 201.096537 
L 663.043551 201.792538 
L 663.768025 203.396576 
L 664.492499 205.574559 
L 665.216974 208.148784 
L 665.941448 211.673695 
L 671.737242 246.345081 
L 673.910665 258.789688 
L 676.084088 272.705259 
L 678.981985 291.690717 
L 680.430933 298.985268 
L 684.053304 314.582294 
L 685.502253 320.023907 
L 688.40015 329.361962 
L 689.849099 334.778559 
L 694.920418 356.353722 
L 697.093841 364.28595 
L 698.54279 369.437107 
L 701.440687 381.627603 
L 703.61411 391.224817 
L 705.787532 399.167 
L 707.960955 407.131475 
L 710.134378 414.925694 
L 712.307801 422.603961 
L 713.756749 426.543072 
L 718.828069 438.12256 
L 719.552543 439.371238 
L 721.001492 441.057766 
L 721.725966 441.792123 
L 722.45044 442.219889 
L 723.174915 442.35875 
L 728.970709 442.569163 
L 729.695183 442.79125 
L 731.144131 443.643591 
L 732.59308 445.005504 
L 733.317554 445.889195 
L 734.042028 447.071829 
L 734.766503 448.638105 
L 738.388874 457.812514 
L 741.286771 464.100978 
L 742.73572 466.623882 
L 744.184668 468.568677 
L 744.909142 469.228807 
L 745.633617 469.60473 
L 747.082565 469.814649 
L 749.255988 470.001935 
L 752.153885 470.49005 
L 752.878359 470.829957 
L 754.327308 471.840686 
L 756.500731 472.74044 
L 757.949679 472.963492 
L 759.398628 473.055455 
L 761.57205 472.654023 
L 764.469947 472.183868 
L 765.194422 472.429526 
L 765.918896 472.844117 
L 766.64337 473.789531 
L 769.541267 479.381918 
L 770.990216 481.603271 
L 772.439164 483.389919 
L 773.163639 484.200163 
L 773.888113 484.816913 
L 775.337061 485.663241 
L 776.78601 486.345692 
L 778.234958 486.72731 
L 778.959433 486.777311 
L 779.683907 486.675018 
L 781.85733 485.970256 
L 786.204175 484.993944 
L 786.92865 485.22919 
L 789.102072 486.978948 
L 790.551021 487.747643 
L 791.999969 488.096272 
L 793.448918 488.081927 
L 795.622341 487.630627 
L 799.244712 486.959821 
L 799.969186 487.027931 
L 800.69366 487.386414 
L 804.316032 490.709711 
L 805.76498 491.619378 
L 807.213929 492.172036 
L 808.662877 492.348145 
L 810.8363 492.22041 
L 812.285249 491.976025 
L 813.734197 491.571738 
L 818.081043 489.742105 
L 820.254465 488.521246 
L 822.427888 488.491536 
L 823.876837 488.484098 
L 826.05026 487.995289 
L 828.223682 487.263277 
L 831.846054 485.967349 
L 834.019476 485.305626 
L 835.468425 484.789049 
L 837.641848 484.182003 
L 838.366322 484.286682 
L 841.988693 485.94889 
L 843.437642 486.291655 
L 844.88659 486.335318 
L 846.335539 486.150409 
L 853.580281 486.237235 
L 856.478179 485.804617 
L 857.927127 485.383793 
L 858.651601 485.099699 
L 860.10055 484.924462 
L 861.549498 484.796338 
L 862.998447 484.379496 
L 865.896344 483.288015 
L 867.345292 483.060932 
L 868.794241 482.967105 
L 870.243189 482.618616 
L 871.692138 482.018676 
L 873.865561 480.812339 
L 874.590035 480.578925 
L 875.314509 480.608697 
L 876.038984 480.900132 
L 878.936881 483.098972 
L 880.385829 483.797995 
L 881.834778 484.149213 
L 882.559252 484.179289 
L 886.181623 483.568181 
L 893.426366 481.184399 
L 894.875314 480.611896 
L 895.599789 480.5811 
L 897.773211 481.082271 
L 898.497686 481.099943 
L 899.946634 480.779249 
L 902.120057 480.24143 
L 905.017954 480.046021 
L 905.742428 480.074242 
L 907.191377 480.462927 
L 910.089274 481.704865 
L 911.538222 482.697854 
L 912.987171 483.320398 
L 913.711645 483.410088 
L 914.436119 483.318384 
L 915.160594 483.083105 
L 915.885068 482.692213 
L 918.058491 481.164002 
L 921.680862 478.776852 
L 926.027708 477.789136 
L 928.20113 477.70853 
L 928.925605 477.951375 
L 929.650079 478.58266 
L 932.547976 481.824377 
L 933.27245 482.300065 
L 934.721399 482.792833 
L 936.170347 482.778923 
L 940.517193 482.054229 
L 946.312987 482.781708 
L 947.761935 482.584958 
L 948.48641 482.225808 
L 949.935358 481.084179 
L 952.108781 478.867797 
L 954.282204 476.923189 
L 955.006678 476.385386 
L 955.731152 476.042764 
L 957.180101 475.815935 
L 959.353524 475.455422 
L 962.975895 474.862934 
L 963.700369 475.365738 
L 965.149318 477.278475 
L 966.598266 479.285363 
L 967.32274 479.854793 
L 968.047215 480.143769 
L 968.771689 480.253782 
L 969.496163 480.22818 
L 973.843009 479.245584 
L 974.567483 479.292615 
L 976.016432 479.589991 
L 976.740906 479.585212 
L 978.189854 479.261445 
L 979.638803 478.797629 
L 980.363277 478.614609 
L 981.087751 478.228051 
L 982.5367 477.05702 
L 983.261174 476.269543 
L 984.710123 474.121124 
L 987.60802 468.964705 
L 989.056968 467.444123 
L 989.781442 466.836789 
L 990.505917 466.390076 
L 991.954865 466.047795 
L 994.852762 465.618891 
L 997.750659 464.287195 
L 999.199608 463.676113 
L 999.924082 463.696874 
L 1000.648556 463.842014 
L 1001.373031 464.190231 
L 1002.097505 465.072712 
L 1003.546453 467.444659 
L 1004.270928 468.293763 
L 1004.995402 468.710728 
L 1005.719876 468.606229 
L 1006.44435 468.010056 
L 1007.893299 466.232267 
L 1010.791196 461.578478 
L 1012.240145 459.877707 
L 1012.964619 459.11764 
L 1015.138042 457.360255 
L 1016.58699 455.200769 
L 1018.035939 452.273871 
L 1019.484887 448.987613 
L 1022.382784 441.729676 
L 1026.005156 430.934583 
L 1028.903053 421.833921 
L 1030.352001 418.432275 
L 1031.80095 415.469901 
L 1032.525424 414.292101 
L 1033.249898 413.505367 
L 1036.147795 411.497715 
L 1037.596744 409.798272 
L 1039.770166 407.039521 
L 1040.494641 407.065588 
L 1041.219115 408.785433 
L 1043.392538 416.351073 
L 1047.014909 431.100536 
L 1047.014909 431.100536 
" style="fill:none;stroke:#2ca02c;stroke-linecap:square;stroke-width:1.5;"/>
   </g>
   <g id="line2d_17">
    <path clip-path="url(#p93d214722e)" d="M 84.913091 401.965024 
L 87.086514 402.086345 
L 87.810988 402.195313 
L 88.535462 402.60324 
L 90.708885 404.932286 
L 91.433359 405.869211 
L 92.157834 407.065856 
L 96.504679 415.400734 
L 101.575999 423.708321 
L 103.749422 426.350715 
L 108.820742 431.764288 
L 110.994164 433.953814 
L 115.34101 437.269316 
L 116.065484 437.949459 
L 116.789958 438.46436 
L 118.238907 438.746631 
L 118.963381 438.743973 
L 119.687855 438.623691 
L 120.41233 438.19978 
L 121.136804 437.374538 
L 122.585752 435.470525 
L 123.310227 434.93872 
L 124.034701 434.810297 
L 124.759175 434.993942 
L 125.48365 435.445138 
L 126.208124 436.169958 
L 126.932598 437.105168 
L 128.381547 439.600215 
L 130.554969 443.75943 
L 131.279444 444.799922 
L 132.003918 445.512153 
L 132.728392 446.066548 
L 133.452866 446.367429 
L 134.177341 446.378619 
L 134.901815 446.219654 
L 137.799712 445.034211 
L 140.697609 444.161611 
L 142.146558 444.352524 
L 143.595506 444.842178 
L 144.31998 445.210341 
L 145.768929 446.386511 
L 147.217877 447.332339 
L 148.666826 447.958534 
L 150.115774 448.269351 
L 150.840249 448.257932 
L 151.564723 447.944018 
L 153.738146 445.753546 
L 154.46262 445.405715 
L 155.187094 445.371269 
L 155.911568 445.659169 
L 157.360517 446.85104 
L 158.084991 447.662887 
L 158.809465 448.662669 
L 162.431837 454.483592 
L 163.156311 455.138051 
L 163.880785 455.579853 
L 164.60526 455.753552 
L 165.329734 455.619707 
L 166.054208 455.242496 
L 167.503157 454.03339 
L 169.676579 451.981047 
L 171.850002 449.45876 
L 172.574476 448.930725 
L 173.298951 448.744804 
L 174.023425 448.843567 
L 175.472373 449.406606 
L 176.921322 450.197398 
L 177.645796 450.374872 
L 178.370271 450.270554 
L 180.543693 449.504946 
L 181.268168 449.04121 
L 181.992642 448.332154 
L 184.166065 445.367624 
L 184.890539 444.744515 
L 185.615013 444.502889 
L 186.339487 444.639788 
L 187.063962 444.98959 
L 187.788436 445.502158 
L 188.51291 446.168676 
L 189.237384 447.072902 
L 192.135281 451.603481 
L 193.58423 452.791579 
L 194.308704 453.21039 
L 195.033179 453.268515 
L 195.757653 452.950858 
L 197.206601 451.948903 
L 199.380024 450.349935 
L 200.104498 449.898286 
L 202.277921 447.695872 
L 203.002395 447.360638 
L 204.451344 447.255971 
L 207.349241 447.243868 
L 208.073715 446.878117 
L 209.522664 445.786978 
L 210.971612 444.610385 
L 211.696087 443.875341 
L 213.145035 441.896834 
L 214.593984 439.994292 
L 215.318458 439.551313 
L 216.042932 439.633972 
L 216.767406 440.163128 
L 218.940829 442.506602 
L 220.389778 444.603301 
L 221.838726 446.809972 
L 222.5632 447.596336 
L 224.012149 448.663953 
L 226.185572 449.791204 
L 226.910046 450.05598 
L 228.358995 450.304006 
L 229.083469 450.681768 
L 230.532417 452.219357 
L 236.328211 458.876767 
L 240.675057 463.171596 
L 242.84848 465.865129 
L 247.9198 472.77141 
L 250.093222 475.458273 
L 252.991119 478.64947 
L 255.164542 480.747413 
L 257.337965 482.462573 
L 259.511388 483.909241 
L 262.409285 485.507308 
L 266.75613 487.560932 
L 269.654027 488.610378 
L 271.82745 489.175631 
L 274.000873 489.419407 
L 275.449821 489.390851 
L 277.623244 489.079177 
L 280.521141 488.3418 
L 283.419038 487.581496 
L 287.04141 486.356366 
L 289.214832 485.417325 
L 291.388255 484.266999 
L 293.561678 482.90967 
L 296.459575 480.78584 
L 298.632998 478.894582 
L 301.530895 475.918818 
L 304.428792 472.557407 
L 307.326689 468.772017 
L 310.224586 464.643569 
L 313.846957 459.178151 
L 314.571432 458.517486 
L 315.295906 458.177782 
L 316.02038 458.14618 
L 316.744854 458.36183 
L 318.193803 459.272185 
L 320.367226 461.300422 
L 321.816174 462.724233 
L 322.540648 463.180424 
L 323.265123 463.366248 
L 324.714071 463.250282 
L 325.438545 463.099808 
L 326.16302 463.073182 
L 326.887494 463.352153 
L 328.336442 464.474184 
L 334.132237 469.246123 
L 334.856711 469.570227 
L 335.581185 469.573717 
L 336.305659 469.365555 
L 337.030134 469.034148 
L 337.754608 468.574281 
L 338.479082 467.946582 
L 342.825928 463.28698 
L 344.274876 462.088438 
L 344.99935 461.617823 
L 345.723825 461.47489 
L 346.448299 461.626393 
L 347.172773 462.054981 
L 350.07067 464.710605 
L 351.519619 465.616794 
L 352.244093 465.965137 
L 352.968567 466.121933 
L 353.693042 466.040558 
L 354.417516 465.73595 
L 355.866464 464.843584 
L 357.315413 464.328265 
L 358.764361 463.855932 
L 359.488836 463.561197 
L 360.21331 463.402 
L 360.937784 463.590355 
L 362.386733 464.631682 
L 366.733578 468.292541 
L 368.182527 469.512915 
L 368.907001 469.871964 
L 369.631475 469.923555 
L 370.35595 469.736973 
L 371.804898 468.956407 
L 372.529372 468.371237 
L 373.978321 466.767442 
L 375.427269 465.16022 
L 377.600692 463.195753 
L 379.049641 461.92306 
L 379.774115 461.146215 
L 380.498589 460.574755 
L 381.223064 460.408996 
L 381.947538 460.501227 
L 383.396486 461.181452 
L 384.845435 461.978157 
L 387.018858 462.779907 
L 387.743332 462.936739 
L 388.467806 462.855014 
L 389.19228 462.527756 
L 390.641229 461.494447 
L 391.365703 460.918348 
L 392.090177 460.512582 
L 395.712549 459.139456 
L 396.437023 458.717023 
L 397.161497 458.532226 
L 397.885972 458.70278 
L 399.33492 459.503949 
L 400.783869 460.499627 
L 402.232817 461.743249 
L 404.40624 463.792131 
L 405.130714 464.286525 
L 405.855188 464.480989 
L 406.579663 464.397747 
L 408.028611 463.826543 
L 408.753085 463.384355 
L 409.47756 462.782652 
L 411.650982 460.305407 
L 413.099931 458.835754 
L 415.273354 457.024281 
L 415.997828 456.448181 
L 416.722302 456.115283 
L 417.446777 456.141848 
L 418.171251 456.419404 
L 422.518096 459.50496 
L 423.967045 460.257809 
L 424.691519 460.389626 
L 425.415993 460.282909 
L 427.589416 459.619325 
L 429.038365 459.179946 
L 431.211788 458.213001 
L 431.936262 458.279238 
L 433.38521 458.810632 
L 434.834159 459.584163 
L 436.283107 460.593227 
L 438.45653 462.231563 
L 439.181004 462.565632 
L 439.905479 462.639356 
L 440.629953 462.446936 
L 442.078901 461.655521 
L 443.52785 460.477907 
L 446.425747 457.59393 
L 450.772593 454.526817 
L 452.221541 453.045517 
L 453.67049 451.129167 
L 454.394964 450.102212 
L 455.119438 449.322356 
L 455.843912 448.903787 
L 456.568387 448.778867 
L 457.292861 448.898647 
L 458.741809 449.593864 
L 460.190758 450.660446 
L 462.364181 452.843901 
L 463.088655 453.184805 
L 463.813129 453.267882 
L 464.537604 453.196853 
L 465.986552 452.698797 
L 468.159975 451.559701 
L 468.884449 451.46057 
L 470.333398 451.718459 
L 471.782346 452.253885 
L 473.231295 453.177554 
L 475.404717 454.880869 
L 476.129192 455.315554 
L 476.853666 455.491891 
L 477.57814 455.440136 
L 478.302614 455.189941 
L 479.751563 454.270323 
L 481.200512 452.979591 
L 484.822883 449.080053 
L 487.72078 446.250464 
L 489.894203 443.582233 
L 491.343151 442.571676 
L 492.7921 441.962732 
L 494.965522 441.212491 
L 495.689997 441.071625 
L 496.414471 441.044842 
L 497.138945 441.170608 
L 497.863419 441.133581 
L 499.312368 440.415518 
L 501.485791 439.177701 
L 502.934739 437.93739 
L 503.659214 437.247416 
L 504.383688 436.767013 
L 505.108162 436.620189 
L 506.557111 436.694578 
L 507.281585 436.823224 
L 508.006059 437.073276 
L 508.730533 437.485826 
L 510.179482 438.81285 
L 511.62843 440.31245 
L 512.352905 440.826731 
L 513.077379 441.035618 
L 513.801853 441.000263 
L 514.526327 440.728907 
L 515.975276 439.604187 
L 517.424225 438.092324 
L 519.597647 435.548903 
L 523.220019 431.755424 
L 524.668967 430.004825 
L 525.393441 429.462097 
L 529.740287 427.438103 
L 531.189235 426.626636 
L 532.638184 426.059801 
L 533.362658 425.542322 
L 534.811607 424.188742 
L 537.709504 421.85828 
L 539.882927 419.423325 
L 542.780824 417.82432 
L 543.505298 417.523276 
L 544.229772 417.385174 
L 546.403195 417.542408 
L 547.127669 417.374434 
L 547.852143 416.988678 
L 549.301092 415.71653 
L 551.474515 413.300658 
L 554.372412 409.879378 
L 556.545835 407.772581 
L 558.719257 405.439105 
L 560.168206 404.721849 
L 560.89268 404.418322 
L 561.617154 403.967794 
L 563.066103 402.59021 
L 564.515051 400.940736 
L 565.239526 400.028704 
L 566.688474 397.701825 
L 568.861897 394.171322 
L 571.759794 389.998536 
L 573.933217 386.27014 
L 576.10664 384.046062 
L 577.555588 382.881612 
L 578.280062 382.541637 
L 579.004537 382.459633 
L 579.729011 382.528378 
L 580.453485 382.468891 
L 581.177959 382.137524 
L 581.902434 381.479715 
L 582.626908 380.491576 
L 584.075857 377.924528 
L 589.147176 368.100341 
L 590.596125 366.133159 
L 591.320599 365.312539 
L 592.045073 364.681471 
L 592.769548 364.280175 
L 594.94297 363.713502 
L 597.116393 362.979286 
L 597.840867 362.620075 
L 599.289816 361.472234 
L 600.738765 359.887091 
L 601.463239 359.094016 
L 602.187713 358.529961 
L 603.636662 357.715861 
L 605.810084 355.558556 
L 607.259033 354.221271 
L 607.983507 353.376027 
L 608.707981 352.333806 
L 610.15693 349.697582 
L 611.605878 347.959758 
L 615.22825 343.780143 
L 617.401673 342.562255 
L 618.126147 341.615097 
L 618.850621 340.363303 
L 620.29957 337.210289 
L 626.819838 320.785772 
L 629.717735 312.447865 
L 631.891158 306.811239 
L 633.340106 303.049216 
L 635.513529 298.140606 
L 636.962478 295.250598 
L 639.1359 290.565045 
L 639.860375 289.521309 
L 641.309323 288.153693 
L 643.482746 286.859183 
L 644.931694 285.21706 
L 646.380643 283.210001 
L 647.829591 280.836734 
L 649.27854 278.088579 
L 651.451963 273.339292 
L 653.625386 267.879571 
L 655.074334 263.384164 
L 657.247757 255.687487 
L 659.42118 247.57023 
L 660.145654 245.278148 
L 660.870128 243.452305 
L 661.594602 242.153012 
L 662.319077 241.778954 
L 663.043551 242.202612 
L 663.768025 243.065226 
L 664.492499 244.207389 
L 665.216974 245.568117 
L 665.941448 247.341034 
L 673.910665 271.533132 
L 676.808562 281.71509 
L 678.981985 289.312241 
L 680.430933 293.224035 
L 684.777779 303.683898 
L 686.226727 306.320007 
L 686.951202 307.492566 
L 688.40015 310.544985 
L 689.849099 313.745272 
L 692.746996 321.320513 
L 694.920418 326.85216 
L 698.54279 334.851466 
L 700.716212 340.710722 
L 702.889635 347.044547 
L 705.063058 352.885365 
L 707.960955 360.67962 
L 710.858852 368.380924 
L 712.307801 371.993084 
L 713.756749 374.860291 
L 719.552543 384.421992 
L 721.725966 386.494731 
L 723.174915 387.51461 
L 724.623863 388.337853 
L 726.072812 389.428736 
L 730.419657 393.148171 
L 731.868606 394.999992 
L 733.317554 397.250353 
L 734.766503 400.087719 
L 737.6644 406.556177 
L 742.011245 415.480251 
L 743.460194 418.304222 
L 744.909142 420.620263 
L 746.358091 422.239484 
L 751.429411 426.888697 
L 752.153885 427.348327 
L 754.327308 428.438327 
L 755.776256 429.358116 
L 760.123102 432.544777 
L 762.296525 433.804 
L 763.745473 434.317509 
L 764.469947 434.758725 
L 765.918896 436.048634 
L 766.64337 436.989859 
L 772.439164 446.252616 
L 773.888113 448.325877 
L 778.234958 453.557582 
L 778.959433 454.205255 
L 780.408381 455.088497 
L 781.85733 455.798379 
L 785.479701 457.940971 
L 786.92865 458.462974 
L 792.724444 460.280074 
L 795.622341 461.294556 
L 798.520238 462.401786 
L 799.969186 463.192914 
L 800.69366 463.765822 
L 802.867083 466.293349 
L 805.040506 468.634389 
L 807.213929 470.666529 
L 810.111826 472.813056 
L 811.560774 473.76565 
L 813.009723 474.453106 
L 816.632094 475.794589 
L 818.081043 476.116603 
L 819.529991 476.260881 
L 822.427888 476.454023 
L 824.601311 476.62135 
L 826.774734 476.71653 
L 834.019476 477.245259 
L 836.917373 477.638844 
L 837.641848 477.810016 
L 838.366322 478.153944 
L 841.264219 480.069913 
L 842.713168 480.856182 
L 844.88659 481.716807 
L 848.508962 482.724799 
L 849.95791 483.194314 
L 852.131333 483.596078 
L 854.304756 483.83029 
L 857.927127 484.126105 
L 863.722921 484.166225 
L 865.896344 483.774269 
L 868.069767 483.148486 
L 870.967664 482.020499 
L 873.865561 480.807206 
L 875.314509 480.593867 
L 876.038984 480.642423 
L 878.936881 481.304058 
L 880.385829 481.45555 
L 881.834778 481.425896 
L 883.283726 481.092194 
L 886.906097 480.083518 
L 888.355046 479.556802 
L 895.599789 478.411968 
L 897.048737 478.649621 
L 898.497686 478.863696 
L 899.946634 478.606981 
L 901.395583 477.994074 
L 904.29348 476.72586 
L 905.742428 476.303311 
L 907.915851 476.092465 
L 910.089274 476.032988 
L 910.813748 476.152317 
L 912.262697 476.111513 
L 913.711645 475.836728 
L 915.160594 475.18673 
L 915.885068 474.696249 
L 917.334016 473.461522 
L 920.231913 471.344042 
L 920.956388 470.775086 
L 921.680862 470.363032 
L 923.129811 470.00596 
L 928.20113 469.35624 
L 928.925605 469.364529 
L 929.650079 469.518497 
L 931.099027 470.179254 
L 932.547976 470.960278 
L 933.27245 471.162811 
L 934.721399 471.202157 
L 936.170347 470.781654 
L 939.792719 469.327055 
L 941.966141 469.021141 
L 944.864038 468.51891 
L 946.312987 467.996369 
L 947.761935 467.294038 
L 949.210884 466.250434 
L 949.935358 465.600572 
L 952.108781 463.350641 
L 955.006678 460.732279 
L 955.731152 460.249414 
L 957.180101 459.808119 
L 961.526946 458.995602 
L 962.975895 458.946158 
L 963.700369 459.128505 
L 964.424843 459.478372 
L 966.598266 461.016002 
L 967.32274 461.264064 
L 968.047215 461.337226 
L 969.496163 461.132662 
L 973.843009 459.379213 
L 975.291957 459.278981 
L 976.740906 459.231952 
L 978.189854 458.899597 
L 980.363277 458.146789 
L 981.812226 457.162388 
L 983.261174 455.877764 
L 984.710123 454.184024 
L 988.332494 449.542909 
L 989.781442 448.330218 
L 990.505917 447.856754 
L 991.954865 447.236112 
L 993.403814 446.917482 
L 994.852762 446.566481 
L 999.199608 445.309155 
L 1000.648556 445.158239 
L 1001.373031 445.241434 
L 1002.097505 445.680359 
L 1003.546453 447.06947 
L 1004.270928 447.569943 
L 1004.995402 447.81251 
L 1005.719876 447.741827 
L 1006.44435 447.320797 
L 1007.893299 446.00581 
L 1010.791196 442.716098 
L 1012.240145 441.461387 
L 1012.964619 440.952661 
L 1015.138042 439.867792 
L 1016.58699 438.672968 
L 1018.035939 436.931548 
L 1020.209361 433.897202 
L 1023.107258 429.423031 
L 1028.178578 421.558531 
L 1029.627527 419.728299 
L 1031.80095 417.520856 
L 1032.525424 416.978428 
L 1033.249898 416.629316 
L 1034.698847 416.372296 
L 1035.423321 416.246839 
L 1036.872269 415.686316 
L 1039.770166 414.318783 
L 1040.494641 414.488616 
L 1041.219115 415.482471 
L 1043.392538 419.609942 
L 1046.290435 426.365044 
L 1047.014909 428.16742 
L 1047.014909 428.16742 
" style="fill:none;stroke:#d62728;stroke-linecap:square;stroke-width:1.5;"/>
   </g>
   <g id="patch_3">
    <path d="M 36.808 518.312 
L 36.808 10.8 
" style="fill:none;stroke:#000000;stroke-linecap:square;stroke-linejoin:miter;stroke-width:0.8;"/>
   </g>
   <g id="patch_4">
    <path d="M 1095.12 518.312 
L 1095.12 10.8 
" style="fill:none;stroke:#000000;stroke-linecap:square;stroke-linejoin:miter;stroke-width:0.8;"/>
   </g>
   <g id="patch_5">
    <path d="M 36.808 518.312 
L 1095.12 518.312 
" style="fill:none;stroke:#000000;stroke-linecap:square;stroke-linejoin:miter;stroke-width:0.8;"/>
   </g>
   <g id="patch_6">
    <path d="M 36.808 10.8 
L 1095.12 10.8 
" style="fill:none;stroke:#000000;stroke-linecap:square;stroke-linejoin:miter;stroke-width:0.8;"/>
   </g>
  </g>
 </g>
 <defs>
  <clipPath id="p93d214722e">
   <rect height="507.512" width="1058.312" x="36.808" y="10.8"/>
  </clipPath>
 </defs>
</svg>
