<?xml version="1.0" encoding="utf-8" standalone="no"?>
<!DOCTYPE svg PUBLIC "-//W3C//DTD SVG 1.1//EN"
  "http://www.w3.org/Graphics/SVG/1.1/DTD/svg11.dtd">
<svg height="702pt" version="1.1" viewBox="0 0 1382.4 702" width="1382.4pt" xmlns="http://www.w3.org/2000/svg" xmlns:xlink="http://www.w3.org/1999/xlink">
 <metadata>
  <rdf:RDF xmlns:cc="http://creativecommons.org/ns#" xmlns:dc="http://purl.org/dc/elements/1.1/" xmlns:rdf="http://www.w3.org/1999/02/22-rdf-syntax-ns#">
   <cc:Work>
    <dc:type rdf:resource="http://purl.org/dc/dcmitype/StillImage"/>
    <dc:date>2022-10-27T15:25:10.575554</dc:date>
    <dc:format>image/svg+xml</dc:format>
    <dc:creator>
     <cc:Agent>
      <dc:title>Matplotlib v3.4.2, https://matplotlib.org/</dc:title>
     </cc:Agent>
    </dc:creator>
   </cc:Work>
  </rdf:RDF>
 </metadata>
 <defs>
  <style type="text/css">*{stroke-linecap:butt;stroke-linejoin:round;}</style>
 </defs>
 <g id="figure_1">
  <g id="patch_1">
   <path d="M 0 702 
L 1382.4 702 
L 1382.4 0 
L 0 0 
z
" style="fill:#ffffff;"/>
  </g>
  <g id="axes_1">
   <g id="patch_2">
    <path d="M 172.8 624.78 
L 1244.16 624.78 
L 1244.16 84.24 
L 172.8 84.24 
z
" style="fill:#ffffff;"/>
   </g>
   <g id="matplotlib.axis_1">
    <g id="xtick_1">
     <g id="line2d_1">
      <defs>
       <path d="M 0 0 
L 0 3.5 
" id="m684438f249" style="stroke:#000000;stroke-width:0.8;"/>
      </defs>
      <g>
       <use style="stroke:#000000;stroke-width:0.8;" x="221.498182" xlink:href="#m684438f249" y="624.78"/>
      </g>
     </g>
     <g id="text_1">
      <!-- 0 -->
      <g transform="translate(218.316932 639.378438)scale(0.1 -0.1)">
       <defs>
        <path d="M 2034 4250 
Q 1547 4250 1301 3770 
Q 1056 3291 1056 2328 
Q 1056 1369 1301 889 
Q 1547 409 2034 409 
Q 2525 409 2770 889 
Q 3016 1369 3016 2328 
Q 3016 3291 2770 3770 
Q 2525 4250 2034 4250 
z
M 2034 4750 
Q 2819 4750 3233 4129 
Q 3647 3509 3647 2328 
Q 3647 1150 3233 529 
Q 2819 -91 2034 -91 
Q 1250 -91 836 529 
Q 422 1150 422 2328 
Q 422 3509 836 4129 
Q 1250 4750 2034 4750 
z
" id="DejaVuSans-30" transform="scale(0.015625)"/>
       </defs>
       <use xlink:href="#DejaVuSans-30"/>
      </g>
     </g>
    </g>
    <g id="xtick_2">
     <g id="line2d_2">
      <g>
       <use style="stroke:#000000;stroke-width:0.8;" x="356.321498" xlink:href="#m684438f249" y="624.78"/>
      </g>
     </g>
     <g id="text_2">
      <!-- 250 -->
      <g transform="translate(346.777748 639.378438)scale(0.1 -0.1)">
       <defs>
        <path d="M 1228 531 
L 3431 531 
L 3431 0 
L 469 0 
L 469 531 
Q 828 903 1448 1529 
Q 2069 2156 2228 2338 
Q 2531 2678 2651 2914 
Q 2772 3150 2772 3378 
Q 2772 3750 2511 3984 
Q 2250 4219 1831 4219 
Q 1534 4219 1204 4116 
Q 875 4013 500 3803 
L 500 4441 
Q 881 4594 1212 4672 
Q 1544 4750 1819 4750 
Q 2544 4750 2975 4387 
Q 3406 4025 3406 3419 
Q 3406 3131 3298 2873 
Q 3191 2616 2906 2266 
Q 2828 2175 2409 1742 
Q 1991 1309 1228 531 
z
" id="DejaVuSans-32" transform="scale(0.015625)"/>
        <path d="M 691 4666 
L 3169 4666 
L 3169 4134 
L 1269 4134 
L 1269 2991 
Q 1406 3038 1543 3061 
Q 1681 3084 1819 3084 
Q 2600 3084 3056 2656 
Q 3513 2228 3513 1497 
Q 3513 744 3044 326 
Q 2575 -91 1722 -91 
Q 1428 -91 1123 -41 
Q 819 9 494 109 
L 494 744 
Q 775 591 1075 516 
Q 1375 441 1709 441 
Q 2250 441 2565 725 
Q 2881 1009 2881 1497 
Q 2881 1984 2565 2268 
Q 2250 2553 1709 2553 
Q 1456 2553 1204 2497 
Q 953 2441 691 2322 
L 691 4666 
z
" id="DejaVuSans-35" transform="scale(0.015625)"/>
       </defs>
       <use xlink:href="#DejaVuSans-32"/>
       <use x="63.623047" xlink:href="#DejaVuSans-35"/>
       <use x="127.246094" xlink:href="#DejaVuSans-30"/>
      </g>
     </g>
    </g>
    <g id="xtick_3">
     <g id="line2d_3">
      <g>
       <use style="stroke:#000000;stroke-width:0.8;" x="491.144814" xlink:href="#m684438f249" y="624.78"/>
      </g>
     </g>
     <g id="text_3">
      <!-- 500 -->
      <g transform="translate(481.601064 639.378438)scale(0.1 -0.1)">
       <use xlink:href="#DejaVuSans-35"/>
       <use x="63.623047" xlink:href="#DejaVuSans-30"/>
       <use x="127.246094" xlink:href="#DejaVuSans-30"/>
      </g>
     </g>
    </g>
    <g id="xtick_4">
     <g id="line2d_4">
      <g>
       <use style="stroke:#000000;stroke-width:0.8;" x="625.96813" xlink:href="#m684438f249" y="624.78"/>
      </g>
     </g>
     <g id="text_4">
      <!-- 750 -->
      <g transform="translate(616.42438 639.378438)scale(0.1 -0.1)">
       <defs>
        <path d="M 525 4666 
L 3525 4666 
L 3525 4397 
L 1831 0 
L 1172 0 
L 2766 4134 
L 525 4134 
L 525 4666 
z
" id="DejaVuSans-37" transform="scale(0.015625)"/>
       </defs>
       <use xlink:href="#DejaVuSans-37"/>
       <use x="63.623047" xlink:href="#DejaVuSans-35"/>
       <use x="127.246094" xlink:href="#DejaVuSans-30"/>
      </g>
     </g>
    </g>
    <g id="xtick_5">
     <g id="line2d_5">
      <g>
       <use style="stroke:#000000;stroke-width:0.8;" x="760.791447" xlink:href="#m684438f249" y="624.78"/>
      </g>
     </g>
     <g id="text_5">
      <!-- 1000 -->
      <g transform="translate(748.066447 639.378438)scale(0.1 -0.1)">
       <defs>
        <path d="M 794 531 
L 1825 531 
L 1825 4091 
L 703 3866 
L 703 4441 
L 1819 4666 
L 2450 4666 
L 2450 531 
L 3481 531 
L 3481 0 
L 794 0 
L 794 531 
z
" id="DejaVuSans-31" transform="scale(0.015625)"/>
       </defs>
       <use xlink:href="#DejaVuSans-31"/>
       <use x="63.623047" xlink:href="#DejaVuSans-30"/>
       <use x="127.246094" xlink:href="#DejaVuSans-30"/>
       <use x="190.869141" xlink:href="#DejaVuSans-30"/>
      </g>
     </g>
    </g>
    <g id="xtick_6">
     <g id="line2d_6">
      <g>
       <use style="stroke:#000000;stroke-width:0.8;" x="895.614763" xlink:href="#m684438f249" y="624.78"/>
      </g>
     </g>
     <g id="text_6">
      <!-- 1250 -->
      <g transform="translate(882.889763 639.378438)scale(0.1 -0.1)">
       <use xlink:href="#DejaVuSans-31"/>
       <use x="63.623047" xlink:href="#DejaVuSans-32"/>
       <use x="127.246094" xlink:href="#DejaVuSans-35"/>
       <use x="190.869141" xlink:href="#DejaVuSans-30"/>
      </g>
     </g>
    </g>
    <g id="xtick_7">
     <g id="line2d_7">
      <g>
       <use style="stroke:#000000;stroke-width:0.8;" x="1030.438079" xlink:href="#m684438f249" y="624.78"/>
      </g>
     </g>
     <g id="text_7">
      <!-- 1500 -->
      <g transform="translate(1017.713079 639.378438)scale(0.1 -0.1)">
       <use xlink:href="#DejaVuSans-31"/>
       <use x="63.623047" xlink:href="#DejaVuSans-35"/>
       <use x="127.246094" xlink:href="#DejaVuSans-30"/>
       <use x="190.869141" xlink:href="#DejaVuSans-30"/>
      </g>
     </g>
    </g>
    <g id="xtick_8">
     <g id="line2d_8">
      <g>
       <use style="stroke:#000000;stroke-width:0.8;" x="1165.261395" xlink:href="#m684438f249" y="624.78"/>
      </g>
     </g>
     <g id="text_8">
      <!-- 1750 -->
      <g transform="translate(1152.536395 639.378438)scale(0.1 -0.1)">
       <use xlink:href="#DejaVuSans-31"/>
       <use x="63.623047" xlink:href="#DejaVuSans-37"/>
       <use x="127.246094" xlink:href="#DejaVuSans-35"/>
       <use x="190.869141" xlink:href="#DejaVuSans-30"/>
      </g>
     </g>
    </g>
   </g>
   <g id="matplotlib.axis_2">
    <g id="ytick_1">
     <g id="line2d_9">
      <defs>
       <path d="M 0 0 
L -3.5 0 
" id="m5078a28aa2" style="stroke:#000000;stroke-width:0.8;"/>
      </defs>
      <g>
       <use style="stroke:#000000;stroke-width:0.8;" x="172.8" xlink:href="#m5078a28aa2" y="624.311645"/>
      </g>
     </g>
     <g id="text_9">
      <!-- 0 -->
      <g transform="translate(159.4375 628.110863)scale(0.1 -0.1)">
       <use xlink:href="#DejaVuSans-30"/>
      </g>
     </g>
    </g>
    <g id="ytick_2">
     <g id="line2d_10">
      <g>
       <use style="stroke:#000000;stroke-width:0.8;" x="172.8" xlink:href="#m5078a28aa2" y="537.797846"/>
      </g>
     </g>
     <g id="text_10">
      <!-- 50 -->
      <g transform="translate(153.075 541.597065)scale(0.1 -0.1)">
       <use xlink:href="#DejaVuSans-35"/>
       <use x="63.623047" xlink:href="#DejaVuSans-30"/>
      </g>
     </g>
    </g>
    <g id="ytick_3">
     <g id="line2d_11">
      <g>
       <use style="stroke:#000000;stroke-width:0.8;" x="172.8" xlink:href="#m5078a28aa2" y="451.284048"/>
      </g>
     </g>
     <g id="text_11">
      <!-- 100 -->
      <g transform="translate(146.7125 455.083267)scale(0.1 -0.1)">
       <use xlink:href="#DejaVuSans-31"/>
       <use x="63.623047" xlink:href="#DejaVuSans-30"/>
       <use x="127.246094" xlink:href="#DejaVuSans-30"/>
      </g>
     </g>
    </g>
    <g id="ytick_4">
     <g id="line2d_12">
      <g>
       <use style="stroke:#000000;stroke-width:0.8;" x="172.8" xlink:href="#m5078a28aa2" y="364.77025"/>
      </g>
     </g>
     <g id="text_12">
      <!-- 150 -->
      <g transform="translate(146.7125 368.569469)scale(0.1 -0.1)">
       <use xlink:href="#DejaVuSans-31"/>
       <use x="63.623047" xlink:href="#DejaVuSans-35"/>
       <use x="127.246094" xlink:href="#DejaVuSans-30"/>
      </g>
     </g>
    </g>
    <g id="ytick_5">
     <g id="line2d_13">
      <g>
       <use style="stroke:#000000;stroke-width:0.8;" x="172.8" xlink:href="#m5078a28aa2" y="278.256451"/>
      </g>
     </g>
     <g id="text_13">
      <!-- 200 -->
      <g transform="translate(146.7125 282.05567)scale(0.1 -0.1)">
       <use xlink:href="#DejaVuSans-32"/>
       <use x="63.623047" xlink:href="#DejaVuSans-30"/>
       <use x="127.246094" xlink:href="#DejaVuSans-30"/>
      </g>
     </g>
    </g>
    <g id="ytick_6">
     <g id="line2d_14">
      <g>
       <use style="stroke:#000000;stroke-width:0.8;" x="172.8" xlink:href="#m5078a28aa2" y="191.742653"/>
      </g>
     </g>
     <g id="text_14">
      <!-- 250 -->
      <g transform="translate(146.7125 195.541872)scale(0.1 -0.1)">
       <use xlink:href="#DejaVuSans-32"/>
       <use x="63.623047" xlink:href="#DejaVuSans-35"/>
       <use x="127.246094" xlink:href="#DejaVuSans-30"/>
      </g>
     </g>
    </g>
    <g id="ytick_7">
     <g id="line2d_15">
      <g>
       <use style="stroke:#000000;stroke-width:0.8;" x="172.8" xlink:href="#m5078a28aa2" y="105.228855"/>
      </g>
     </g>
     <g id="text_15">
      <!-- 300 -->
      <g transform="translate(146.7125 109.028074)scale(0.1 -0.1)">
       <defs>
        <path d="M 2597 2516 
Q 3050 2419 3304 2112 
Q 3559 1806 3559 1356 
Q 3559 666 3084 287 
Q 2609 -91 1734 -91 
Q 1441 -91 1130 -33 
Q 819 25 488 141 
L 488 750 
Q 750 597 1062 519 
Q 1375 441 1716 441 
Q 2309 441 2620 675 
Q 2931 909 2931 1356 
Q 2931 1769 2642 2001 
Q 2353 2234 1838 2234 
L 1294 2234 
L 1294 2753 
L 1863 2753 
Q 2328 2753 2575 2939 
Q 2822 3125 2822 3475 
Q 2822 3834 2567 4026 
Q 2313 4219 1838 4219 
Q 1578 4219 1281 4162 
Q 984 4106 628 3988 
L 628 4550 
Q 988 4650 1302 4700 
Q 1616 4750 1894 4750 
Q 2613 4750 3031 4423 
Q 3450 4097 3450 3541 
Q 3450 3153 3228 2886 
Q 3006 2619 2597 2516 
z
" id="DejaVuSans-33" transform="scale(0.015625)"/>
       </defs>
       <use xlink:href="#DejaVuSans-33"/>
       <use x="63.623047" xlink:href="#DejaVuSans-30"/>
       <use x="127.246094" xlink:href="#DejaVuSans-30"/>
      </g>
     </g>
    </g>
   </g>
   <g id="line2d_16">
    <path clip-path="url(#pb5435e7d10)" d="M 221.498182 413.014318 
L 223.116062 438.158198 
L 225.812528 475.375414 
L 228.508994 508.720012 
L 230.666167 533.149803 
L 232.82334 555.130218 
L 233.901927 564.634431 
L 234.980513 571.411349 
L 235.519807 573.86435 
L 236.0591 575.639069 
L 236.598393 576.77782 
L 237.137686 577.400108 
L 237.67698 577.522229 
L 238.216273 577.104968 
L 238.755566 575.981132 
L 239.29486 574.269544 
L 240.373446 569.50898 
L 243.069912 554.285551 
L 245.227085 540.744602 
L 247.384259 527.029242 
L 249.002138 517.443994 
L 249.541432 515.368102 
L 250.080725 514.390564 
L 250.620018 513.793021 
L 251.159311 515.063655 
L 252.237898 521.996043 
L 254.395071 537.64211 
L 256.552244 551.936036 
L 257.630831 557.581321 
L 258.709417 561.59461 
L 259.788004 564.473037 
L 260.86659 567.913982 
L 261.405883 568.989257 
L 261.945177 569.36455 
L 262.48447 569.065296 
L 263.023763 568.198605 
L 264.10235 565.294617 
L 264.641643 563.637979 
L 265.72023 559.073141 
L 266.798816 552.895309 
L 267.877403 544.970559 
L 269.495282 530.719931 
L 271.113162 514.46241 
L 272.191749 502.910033 
L 273.270335 489.655633 
L 275.966802 454.199903 
L 277.045388 440.239149 
L 279.741854 399.408154 
L 281.359734 371.983213 
L 284.056201 324.1791 
L 284.595494 318.076287 
L 285.134787 313.925457 
L 285.67408 312.256059 
L 286.213374 312.675227 
L 286.752667 314.098311 
L 287.29196 316.083308 
L 287.831253 318.748994 
L 288.370547 323.729364 
L 289.988426 346.251892 
L 291.606306 372.756107 
L 293.763479 408.913041 
L 297.538532 465.337756 
L 298.617119 479.23569 
L 299.695705 489.350454 
L 300.774292 496.952528 
L 301.313585 499.533388 
L 301.852878 501.032648 
L 302.392172 501.72583 
L 302.931465 501.658792 
L 303.470758 501.779988 
L 305.088638 504.926268 
L 307.245811 511.47368 
L 308.863691 514.795094 
L 309.942277 518.079045 
L 310.481571 519.928161 
L 312.638744 529.65817 
L 313.178037 531.563954 
L 314.795917 535.982241 
L 315.33521 537.067936 
L 315.874503 537.390459 
L 316.413796 536.987296 
L 316.95309 536.221475 
L 317.492383 535.142583 
L 318.031676 533.616505 
L 318.570969 531.715945 
L 319.110263 529.356055 
L 319.649556 526.447472 
L 320.188849 522.877335 
L 321.267436 513.442497 
L 323.424609 490.901866 
L 326.121075 467.405089 
L 328.278248 449.221297 
L 329.356835 438.54442 
L 330.435421 425.840676 
L 331.514008 410.528521 
L 332.592594 392.442091 
L 336.367647 323.57743 
L 336.906941 317.152414 
L 337.985527 308.082838 
L 339.064114 301.895386 
L 339.603407 300.106656 
L 340.1427 299.874046 
L 340.681993 301.965857 
L 341.221287 306.199479 
L 342.299873 317.875513 
L 343.37846 333.266937 
L 344.457046 350.716311 
L 345.535633 362.434082 
L 347.153513 379.559598 
L 348.232099 388.547829 
L 349.849979 399.732691 
L 351.467859 408.891306 
L 352.546445 414.065981 
L 353.625032 418.039812 
L 354.703618 421.27174 
L 355.242912 424.462276 
L 355.782205 430.247628 
L 357.939378 457.473628 
L 359.557258 474.826916 
L 360.635844 484.631984 
L 361.714431 492.85273 
L 362.793017 499.749089 
L 363.871604 505.268124 
L 364.95019 509.743773 
L 367.646657 519.883482 
L 369.264536 527.568806 
L 370.343123 532.766451 
L 371.421709 536.844756 
L 372.500296 539.817938 
L 374.657469 545.706314 
L 375.196762 546.744794 
L 375.736056 547.362646 
L 376.275349 547.58031 
L 376.814642 547.467344 
L 377.353935 547.027417 
L 378.432522 545.309133 
L 379.511108 543.391489 
L 380.050402 542.246843 
L 380.589695 541.679764 
L 382.207575 541.824777 
L 382.746868 541.849653 
L 383.825455 542.207187 
L 384.904041 542.681846 
L 385.982628 543.833532 
L 387.061214 545.371053 
L 390.296974 550.832875 
L 391.914854 552.961572 
L 392.454147 553.430915 
L 392.99344 553.687707 
L 393.532733 553.708446 
L 394.072027 553.436227 
L 394.61132 552.866404 
L 395.689906 551.081146 
L 397.307786 547.661306 
L 397.847079 546.044455 
L 398.386373 544.038208 
L 399.464959 538.672177 
L 400.543546 531.721664 
L 401.622132 523.177594 
L 402.700719 512.886088 
L 404.318599 494.9321 
L 406.475772 467.712699 
L 408.093651 444.727475 
L 410.250825 410.623624 
L 412.407998 372.37947 
L 418.879517 255.040238 
L 419.41881 246.700616 
L 419.958103 240.597799 
L 420.497397 236.701187 
L 421.03669 234.883688 
L 421.575983 235.675051 
L 422.115276 238.689827 
L 422.65457 242.896976 
L 423.193863 248.678121 
L 423.733156 255.922918 
L 424.272449 265.38284 
L 425.890329 302.843203 
L 428.047502 361.140356 
L 429.665382 402.117391 
L 431.283262 437.30573 
L 432.901142 467.113302 
L 433.979728 483.424505 
L 435.058315 495.755843 
L 436.136901 504.952659 
L 437.215488 512.287333 
L 437.754781 514.892699 
L 438.294074 516.690364 
L 438.833368 517.642502 
L 439.372661 517.773107 
L 439.911954 517.398631 
L 440.451247 516.667519 
L 440.990541 515.437502 
L 443.687007 507.285926 
L 444.765593 505.263288 
L 446.383473 502.651863 
L 446.922767 502.300483 
L 447.46206 502.360854 
L 448.540646 502.975189 
L 449.07994 503.475557 
L 449.619233 504.302383 
L 451.237113 507.370068 
L 452.315699 509.063238 
L 452.854992 510.203951 
L 453.394286 511.761743 
L 453.933579 513.789894 
L 454.472872 516.353328 
L 455.551459 523.5253 
L 456.630045 531.565055 
L 458.247925 541.80989 
L 459.326512 550.589479 
L 462.022978 574.170681 
L 462.562271 577.657368 
L 463.101564 580.36398 
L 463.640858 582.286381 
L 464.180151 583.406463 
L 464.719444 583.905052 
L 465.258738 583.95024 
L 465.798031 583.35699 
L 466.337324 582.069128 
L 466.876617 580.273959 
L 467.415911 577.956677 
L 468.494497 571.651454 
L 470.65167 555.538536 
L 472.26955 543.391756 
L 472.808843 541.683487 
L 473.88743 539.818245 
L 474.426723 539.129806 
L 474.966016 538.834968 
L 476.583896 538.549333 
L 477.662483 537.823011 
L 478.201776 538.257171 
L 478.741069 539.716979 
L 479.819656 544.466435 
L 481.976829 556.017082 
L 483.055415 561.105384 
L 485.212588 572.990245 
L 486.830468 579.835912 
L 488.448348 585.992779 
L 488.987641 587.501011 
L 489.526934 588.440445 
L 490.066228 588.922075 
L 490.605521 588.966309 
L 491.144814 588.590387 
L 491.684108 587.776973 
L 493.301987 584.108757 
L 495.998454 576.585632 
L 496.537747 575.245888 
L 497.616333 571.571564 
L 498.69492 566.981696 
L 500.3128 558.259175 
L 501.93068 547.589529 
L 503.548559 536.429069 
L 505.705732 519.312091 
L 506.784319 512.401559 
L 508.402199 503.930426 
L 509.480785 496.5145 
L 514.334425 456.735135 
L 515.413011 445.208207 
L 516.491598 433.19781 
L 517.030891 428.759497 
L 517.570184 425.951502 
L 518.109477 424.651786 
L 518.648771 424.704584 
L 519.188064 426.048999 
L 519.727357 428.531988 
L 521.88453 441.117487 
L 522.423824 443.376466 
L 522.963117 444.655704 
L 523.50241 445.156421 
L 524.041703 445.440801 
L 524.580997 445.265966 
L 525.12029 444.155748 
L 525.659583 442.293229 
L 526.73817 437.152423 
L 527.816756 430.467984 
L 529.973929 415.01564 
L 530.513223 411.8841 
L 531.052516 409.652492 
L 531.591809 408.929983 
L 532.131102 410.076783 
L 532.670396 413.026138 
L 533.209689 417.451808 
L 534.827569 434.748182 
L 535.906155 447.692657 
L 536.984742 463.080218 
L 540.220501 515.255137 
L 541.299088 529.228891 
L 542.377674 540.252889 
L 543.456261 548.118723 
L 543.995554 550.988447 
L 544.534847 553.148015 
L 545.074141 554.535296 
L 545.613434 555.103956 
L 546.152727 554.936621 
L 546.692021 554.072152 
L 547.231314 552.483975 
L 547.770607 550.15346 
L 548.3099 546.941715 
L 549.388487 538.258701 
L 550.467073 526.719987 
L 551.54566 512.550136 
L 552.624246 495.646119 
L 554.242126 469.666214 
L 555.860006 445.554869 
L 556.938593 427.242281 
L 559.635059 377.609416 
L 560.174352 372.44161 
L 560.713645 369.786472 
L 561.252939 369.346332 
L 561.792232 370.873353 
L 562.331525 373.82702 
L 563.410112 381.785713 
L 563.949405 386.842432 
L 564.488698 394.311213 
L 567.724458 454.165291 
L 569.881631 493.40741 
L 571.499511 517.247255 
L 572.578097 530.073807 
L 573.656684 539.63024 
L 574.73527 546.339042 
L 575.274564 548.633656 
L 576.35315 551.919009 
L 576.892443 553.094519 
L 577.431737 553.504217 
L 577.97103 553.471442 
L 578.510323 553.268603 
L 579.049616 552.576135 
L 579.58891 551.235752 
L 580.667496 547.498864 
L 581.746083 542.792416 
L 583.903256 532.297533 
L 585.521136 526.651543 
L 588.217602 518.593804 
L 589.296188 516.343171 
L 591.453362 510.783538 
L 591.992655 510.294589 
L 592.531948 510.94934 
L 593.071241 512.624479 
L 596.846294 529.470155 
L 597.924881 538.329179 
L 600.082054 559.171224 
L 601.16064 566.822111 
L 602.239227 571.980114 
L 603.317813 575.222971 
L 603.857107 576.222724 
L 604.3964 576.550153 
L 604.935693 576.233482 
L 605.474986 575.375233 
L 606.553573 572.734356 
L 608.171453 567.169448 
L 609.250039 563.484111 
L 609.789333 562.21705 
L 611.407212 559.549082 
L 611.946506 558.339859 
L 613.025092 555.482097 
L 613.564385 555.400157 
L 614.642972 557.165372 
L 615.182265 557.731615 
L 615.721558 557.779193 
L 616.260852 557.1487 
L 616.800145 555.781284 
L 617.339438 553.633667 
L 617.878732 550.585225 
L 620.575198 531.203538 
L 621.114491 528.348829 
L 622.732371 522.054575 
L 623.271664 520.430204 
L 623.810957 520.779582 
L 624.350251 523.305438 
L 625.428837 529.794443 
L 626.507424 537.192658 
L 628.125304 551.099082 
L 630.82177 574.741466 
L 631.900356 582.899597 
L 632.978943 589.08285 
L 634.057529 593.878704 
L 635.136116 597.042524 
L 636.214703 599.26991 
L 636.753996 599.905894 
L 637.293289 600.21 
L 637.832582 600.095343 
L 638.371876 599.516731 
L 638.911169 598.493997 
L 639.450462 596.999205 
L 639.989755 594.913477 
L 641.068342 589.077507 
L 643.764808 573.507232 
L 645.921981 561.179894 
L 647.000568 556.075915 
L 648.079154 552.690758 
L 649.157741 549.691378 
L 651.854207 541.015052 
L 652.3935 540.523312 
L 652.932794 540.916923 
L 654.01138 542.6634 
L 654.550674 543.115329 
L 655.089967 542.969727 
L 655.62926 542.691181 
L 656.168553 542.758648 
L 656.707847 543.504741 
L 657.24714 545.018725 
L 658.325726 549.267161 
L 661.022193 563.454709 
L 661.561486 565.257014 
L 662.100779 566.547194 
L 662.640072 567.327005 
L 663.179366 567.54985 
L 663.718659 567.169635 
L 664.797246 565.303685 
L 665.875832 562.90357 
L 666.954419 559.34762 
L 669.650885 547.895922 
L 671.268765 541.143291 
L 671.808058 539.3199 
L 672.347351 538.368358 
L 673.965231 537.799609 
L 676.122404 537.68393 
L 676.661697 537.478793 
L 677.740284 535.96611 
L 678.279577 535.892352 
L 678.81887 536.706977 
L 679.897457 539.664906 
L 680.976043 543.892254 
L 682.593923 550.607141 
L 683.67251 556.941809 
L 685.29039 567.056518 
L 686.368976 571.887113 
L 689.065442 582.00124 
L 689.604736 583.280371 
L 690.144029 584.101938 
L 690.683322 584.44132 
L 691.222616 584.290088 
L 691.761909 583.768236 
L 692.301202 582.888637 
L 693.379789 580.490105 
L 694.997668 576.471021 
L 695.536962 575.650653 
L 696.615548 574.568784 
L 697.694135 572.867793 
L 699.312014 569.860285 
L 701.469188 565.201429 
L 703.626361 560.912376 
L 704.704947 558.154964 
L 706.322827 552.666937 
L 707.401413 549.117766 
L 708.48 545.676999 
L 710.09788 538.816553 
L 711.71576 532.124675 
L 712.255053 530.342762 
L 712.794346 529.338518 
L 713.333639 529.133909 
L 714.412226 528.979196 
L 714.951519 528.77907 
L 715.490812 529.144979 
L 716.030106 530.849852 
L 716.569399 533.67481 
L 717.647986 541.316413 
L 719.805159 559.452503 
L 720.883745 566.861936 
L 721.962332 571.961283 
L 722.501625 573.9093 
L 723.040918 575.346959 
L 723.580211 576.069653 
L 724.119505 576.180007 
L 724.658798 575.962063 
L 725.198091 575.433841 
L 725.737384 574.546783 
L 726.276678 572.988997 
L 727.355264 568.20204 
L 728.433851 562.568418 
L 730.591024 549.345614 
L 732.208904 537.945332 
L 732.748197 535.782447 
L 733.28749 534.632509 
L 734.366077 533.388953 
L 735.444663 532.029313 
L 735.983957 530.605522 
L 736.52325 528.312436 
L 737.601836 521.77951 
L 738.14113 518.551318 
L 738.680423 516.056068 
L 739.219716 514.235932 
L 739.759009 512.828593 
L 740.298303 511.984743 
L 740.837596 511.574881 
L 741.916182 510.1372 
L 742.455476 509.333325 
L 742.994769 509.636438 
L 743.534062 511.312405 
L 745.151942 517.273512 
L 746.230529 520.818311 
L 752.162754 544.163231 
L 753.241341 546.787338 
L 754.319928 548.578267 
L 755.937807 551.097566 
L 756.477101 551.622953 
L 757.016394 551.663234 
L 757.555687 551.225991 
L 758.09498 550.525943 
L 758.634274 549.491026 
L 759.173567 547.971424 
L 759.71286 545.9981 
L 760.252153 543.478478 
L 760.791447 540.284771 
L 761.33074 536.263739 
L 762.409326 525.767797 
L 763.487913 513.344815 
L 765.105793 491.601262 
L 767.262966 461.881079 
L 768.341552 450.332009 
L 770.498725 431.521899 
L 775.352365 381.370157 
L 779.666711 332.218687 
L 780.206004 328.170408 
L 780.745297 327.043414 
L 781.284591 328.918944 
L 781.823884 332.802345 
L 782.363177 338.011667 
L 783.441764 352.0108 
L 784.52035 369.906278 
L 787.216817 419.771485 
L 788.295403 434.008719 
L 789.37399 445.67134 
L 790.452576 455.145728 
L 791.531163 462.537404 
L 792.609749 468.139224 
L 793.149043 470.328762 
L 793.688336 472.00999 
L 794.227629 473.166793 
L 794.766922 473.902883 
L 795.306216 474.227247 
L 795.845509 473.93916 
L 796.384802 472.758122 
L 798.002682 467.831729 
L 799.081268 465.106781 
L 800.159855 461.124955 
L 800.699148 458.477029 
L 801.777735 451.488011 
L 802.856321 442.214498 
L 803.934908 430.079324 
L 805.552788 407.620783 
L 807.170667 379.581327 
L 810.406427 319.922312 
L 812.024307 285.439432 
L 813.102893 258.706356 
L 815.79936 187.059745 
L 816.877946 163.087802 
L 818.495826 136.309571 
L 819.574413 121.207159 
L 820.113706 115.256196 
L 820.652999 110.852301 
L 821.192292 108.81 
L 821.731586 110.001027 
L 822.270879 113.765188 
L 822.810172 118.91548 
L 823.349465 126.620326 
L 823.888759 137.891564 
L 825.506638 181.30628 
L 828.742398 269.282411 
L 830.899571 321.628603 
L 832.517451 356.748544 
L 834.674624 397.686601 
L 836.292504 425.232982 
L 837.910384 449.215713 
L 839.528263 470.480658 
L 840.60685 481.919784 
L 841.685436 490.893331 
L 842.764023 497.74728 
L 843.842609 502.533185 
L 844.381903 504.089939 
L 844.921196 504.966156 
L 845.460489 505.099036 
L 845.999783 504.530107 
L 846.539076 503.289378 
L 847.617662 499.306567 
L 848.696249 494.087226 
L 849.774835 487.751752 
L 850.853422 480.263338 
L 853.549888 459.100397 
L 855.167768 443.604964 
L 857.324941 419.966161 
L 858.403528 406.985988 
L 859.482114 391.942666 
L 861.099994 365.279396 
L 862.717874 334.768521 
L 864.875047 288.704359 
L 868.6501 204.950465 
L 869.728686 186.648988 
L 870.807273 172.358918 
L 871.885859 159.669717 
L 872.425153 154.932233 
L 872.964446 153.653493 
L 873.503739 156.434682 
L 874.043032 162.731212 
L 874.582326 171.854918 
L 875.660912 195.824245 
L 876.739499 227.45331 
L 879.975258 329.783047 
L 881.593138 374.192169 
L 883.211018 413.508583 
L 884.828898 448.353061 
L 886.446777 477.60742 
L 887.525364 494.235175 
L 889.143244 514.423566 
L 890.22183 525.112039 
L 890.761124 528.865033 
L 891.300417 531.655884 
L 891.83971 533.618063 
L 892.379003 534.568274 
L 892.918297 534.612012 
L 893.45759 534.177285 
L 893.996883 533.175902 
L 894.536176 531.465787 
L 895.614763 526.463135 
L 896.693349 521.719729 
L 898.311229 514.612494 
L 899.389816 509.344726 
L 901.007696 500.639834 
L 902.086282 495.44067 
L 904.243455 483.321524 
L 904.782748 480.793177 
L 905.322042 479.122554 
L 905.861335 478.469805 
L 906.400628 478.90815 
L 908.557801 483.9062 
L 909.097095 485.736558 
L 909.636388 489.068448 
L 910.714974 499.525793 
L 911.793561 512.926463 
L 913.950734 540.955024 
L 915.02932 552.319441 
L 916.107907 561.444317 
L 917.186494 569.439732 
L 917.725787 572.717972 
L 918.804373 577.269728 
L 919.343667 579.007177 
L 919.88296 580.188813 
L 920.422253 580.539953 
L 920.961546 580.245423 
L 921.50084 579.658491 
L 922.040133 578.89551 
L 922.579426 577.86623 
L 923.118719 576.486924 
L 924.197306 572.899679 
L 925.275892 568.461565 
L 926.893772 559.488982 
L 927.433066 557.642351 
L 927.972359 556.479016 
L 929.050945 554.77564 
L 929.590239 553.609901 
L 930.129532 551.857492 
L 930.668825 549.38771 
L 931.747412 542.482999 
L 933.365291 529.70421 
L 933.904585 526.570084 
L 934.443878 524.181791 
L 934.983171 523.038372 
L 935.522465 522.948922 
L 936.061758 523.13871 
L 936.601051 523.496456 
L 937.140344 524.098671 
L 937.679638 526.032304 
L 938.218931 529.872979 
L 940.915397 554.725116 
L 943.611863 578.637424 
L 944.69045 587.103274 
L 945.229743 590.416112 
L 945.769037 593.030381 
L 946.30833 594.967935 
L 946.847623 596.38273 
L 947.386916 597.399954 
L 947.92621 598.020324 
L 948.465503 598.279126 
L 949.004796 598.267584 
L 949.544089 598.128477 
L 950.083383 597.852854 
L 950.622676 597.390909 
L 951.701262 596.013655 
L 952.779849 594.2823 
L 953.858436 591.906691 
L 954.937022 588.741735 
L 956.554902 582.812853 
L 957.633488 577.80591 
L 959.790661 567.612503 
L 961.408541 560.652763 
L 962.487128 556.274326 
L 963.565714 550.726099 
L 965.183594 541.670239 
L 965.722887 539.176276 
L 966.262181 537.408926 
L 966.801474 536.636246 
L 967.340767 536.553523 
L 968.958647 537.229544 
L 969.49794 537.636089 
L 970.037233 538.49259 
L 970.576527 540.045746 
L 971.11582 542.354637 
L 972.194407 549.19849 
L 975.430166 571.155344 
L 976.508753 577.538792 
L 977.587339 582.536322 
L 978.126632 584.460036 
L 978.665926 585.940999 
L 979.205219 586.946171 
L 980.283805 588.168053 
L 980.823099 588.526292 
L 981.362392 588.698689 
L 981.901685 588.714609 
L 982.440979 588.420854 
L 983.519565 587.178559 
L 984.058858 586.803116 
L 985.137445 586.411937 
L 985.676738 585.981658 
L 986.216031 585.405822 
L 986.755325 584.568861 
L 987.294618 583.224605 
L 987.833911 581.338302 
L 988.373204 578.813065 
L 989.451791 572.039907 
L 990.530378 565.484938 
L 991.069671 562.760164 
L 991.608964 560.691265 
L 992.687551 557.981734 
L 993.766137 555.227658 
L 994.30543 554.384675 
L 994.844724 554.810017 
L 995.384017 556.041974 
L 998.619777 565.294068 
L 1000.77695 570.868934 
L 1001.855536 574.491019 
L 1004.552002 585.435323 
L 1005.091296 587.092029 
L 1005.630589 588.319124 
L 1006.169882 589.08166 
L 1007.248469 590.06731 
L 1007.787762 590.670675 
L 1008.327055 591.001249 
L 1008.866349 591.042633 
L 1009.405642 590.780896 
L 1009.944935 590.11292 
L 1010.484228 589.011235 
L 1011.023522 587.522054 
L 1011.562815 585.639981 
L 1012.641401 580.498534 
L 1015.337868 564.997633 
L 1016.955748 556.878501 
L 1021.270094 533.223356 
L 1021.809387 531.737937 
L 1022.34868 531.284423 
L 1022.887973 531.730874 
L 1023.427267 532.77743 
L 1023.96656 534.537902 
L 1024.505853 537.111626 
L 1027.20232 552.659511 
L 1028.820199 561.648622 
L 1029.359493 563.917502 
L 1029.898786 565.69971 
L 1030.977372 568.004269 
L 1031.516666 568.883571 
L 1032.055959 569.364203 
L 1032.595252 569.396682 
L 1033.673839 568.866442 
L 1034.752425 568.005103 
L 1036.370305 567.273015 
L 1037.448892 566.273079 
L 1037.988185 565.394475 
L 1039.066771 562.246651 
L 1040.145358 558.601063 
L 1041.223944 554.311756 
L 1041.763238 551.550092 
L 1042.841824 544.226596 
L 1043.920411 536.366344 
L 1044.998997 531.020721 
L 1046.077584 526.227372 
L 1047.15617 519.99449 
L 1048.234757 511.500567 
L 1049.852637 496.168729 
L 1050.931223 488.750765 
L 1051.470516 486.378084 
L 1052.00981 484.891749 
L 1052.549103 484.020423 
L 1053.088396 483.570734 
L 1053.62769 484.422809 
L 1054.166983 486.866615 
L 1055.245569 493.383047 
L 1056.863449 504.830174 
L 1060.638502 536.544508 
L 1061.177795 540.115544 
L 1061.717088 542.77756 
L 1062.256382 544.551132 
L 1062.795675 545.443495 
L 1063.334968 545.626787 
L 1063.874262 545.536605 
L 1064.413555 545.122534 
L 1064.952848 544.06347 
L 1066.570728 539.644123 
L 1067.649314 536.253429 
L 1068.188608 534.336839 
L 1068.727901 532.926139 
L 1071.963661 528.446082 
L 1073.042247 527.014679 
L 1073.58154 526.028701 
L 1075.738713 520.940587 
L 1076.8173 519.25493 
L 1077.895886 518.331492 
L 1078.43518 518.109154 
L 1078.974473 518.078636 
L 1079.513766 518.268618 
L 1080.053059 518.733242 
L 1080.592353 519.566286 
L 1081.131646 520.888659 
L 1082.210233 524.572241 
L 1083.288819 529.577385 
L 1084.906699 537.98995 
L 1086.524579 547.048978 
L 1087.603165 551.738021 
L 1088.681752 555.255231 
L 1089.221045 556.575448 
L 1089.760338 557.395862 
L 1090.299632 557.627977 
L 1090.838925 557.10206 
L 1091.378218 555.763674 
L 1096.231857 540.268349 
L 1097.310444 537.564616 
L 1098.389031 535.528891 
L 1099.467617 533.483606 
L 1100.546204 530.948022 
L 1101.085497 529.219683 
L 1102.164083 524.77732 
L 1105.399843 509.758625 
L 1105.939136 508.181159 
L 1106.478429 507.363078 
L 1108.096309 506.078261 
L 1108.635603 506.495688 
L 1109.174896 507.669786 
L 1109.714189 509.355641 
L 1110.253482 511.519636 
L 1111.332069 517.513225 
L 1112.949949 528.759861 
L 1114.567828 540.727768 
L 1115.646415 547.008339 
L 1116.725002 552.080876 
L 1117.803588 556.429481 
L 1122.117934 570.144118 
L 1123.196521 572.266604 
L 1123.735814 572.922261 
L 1124.275107 573.32974 
L 1124.8144 573.569002 
L 1125.353694 573.647544 
L 1125.892987 573.519139 
L 1126.43228 573.063154 
L 1126.971574 572.262476 
L 1128.05016 570.014201 
L 1129.128747 567.755325 
L 1130.207333 565.409967 
L 1131.28592 562.022542 
L 1133.982386 552.022695 
L 1135.060973 547.338554 
L 1135.600266 544.408587 
L 1136.678852 536.965276 
L 1137.757439 528.555533 
L 1138.836025 518.64672 
L 1139.914612 506.558113 
L 1140.993198 493.847487 
L 1143.150371 470.008873 
L 1145.307545 441.728175 
L 1146.925424 421.561789 
L 1148.543304 403.506426 
L 1149.082597 399.121676 
L 1149.621891 396.305951 
L 1150.161184 394.466591 
L 1151.23977 392.17658 
L 1152.318357 389.403856 
L 1155.554117 379.410007 
L 1157.71129 369.783627 
L 1158.789876 366.755591 
L 1159.329169 365.367304 
L 1159.868463 364.449759 
L 1160.407756 364.212581 
L 1160.947049 365.395812 
L 1162.025636 369.472052 
L 1163.104222 373.179777 
L 1164.182809 378.482094 
L 1165.261395 383.466711 
L 1165.800689 385.754365 
L 1167.957862 397.073021 
L 1169.036448 401.433333 
L 1170.115035 408.283294 
L 1171.193621 416.806286 
L 1172.272208 427.756577 
L 1173.890088 450.56685 
L 1175.507967 471.094926 
L 1176.586554 481.923256 
L 1178.204434 496.072885 
L 1179.822314 517.174378 
L 1180.9009 528.502608 
L 1181.979487 537.138882 
L 1183.058073 543.066915 
L 1183.597366 545.052709 
L 1184.13666 546.379198 
L 1184.675953 547.307214 
L 1185.215246 547.884567 
L 1185.754539 548.06277 
L 1186.293833 547.871423 
L 1186.833126 547.413867 
L 1187.911712 545.857626 
L 1188.990299 543.620824 
L 1190.068886 540.808197 
L 1191.147472 537.273382 
L 1192.226059 532.883826 
L 1193.304645 526.826755 
L 1194.383232 518.535937 
L 1195.461818 509.313617 
L 1195.461818 509.313617 
" style="fill:none;stroke:#1f77b4;stroke-linecap:square;stroke-width:1.5;"/>
   </g>
   <g id="patch_3">
    <path d="M 172.8 624.78 
L 172.8 84.24 
" style="fill:none;stroke:#000000;stroke-linecap:square;stroke-linejoin:miter;stroke-width:0.8;"/>
   </g>
   <g id="patch_4">
    <path d="M 1244.16 624.78 
L 1244.16 84.24 
" style="fill:none;stroke:#000000;stroke-linecap:square;stroke-linejoin:miter;stroke-width:0.8;"/>
   </g>
   <g id="patch_5">
    <path d="M 172.8 624.78 
L 1244.16 624.78 
" style="fill:none;stroke:#000000;stroke-linecap:square;stroke-linejoin:miter;stroke-width:0.8;"/>
   </g>
   <g id="patch_6">
    <path d="M 172.8 84.24 
L 1244.16 84.24 
" style="fill:none;stroke:#000000;stroke-linecap:square;stroke-linejoin:miter;stroke-width:0.8;"/>
   </g>
  </g>
 </g>
 <defs>
  <clipPath id="pb5435e7d10">
   <rect height="540.54" width="1071.36" x="172.8" y="84.24"/>
  </clipPath>
 </defs>
</svg>
