<?xml version="1.0" encoding="utf-8" standalone="no"?>
<!DOCTYPE svg PUBLIC "-//W3C//DTD SVG 1.1//EN"
  "http://www.w3.org/Graphics/SVG/1.1/DTD/svg11.dtd">
<svg height="702pt" version="1.1" viewBox="0 0 1382.4 702" width="1382.4pt" xmlns="http://www.w3.org/2000/svg" xmlns:xlink="http://www.w3.org/1999/xlink">
 <metadata>
  <rdf:RDF xmlns:cc="http://creativecommons.org/ns#" xmlns:dc="http://purl.org/dc/elements/1.1/" xmlns:rdf="http://www.w3.org/1999/02/22-rdf-syntax-ns#">
   <cc:Work>
    <dc:type rdf:resource="http://purl.org/dc/dcmitype/StillImage"/>
    <dc:date>2022-10-27T17:08:21.381522</dc:date>
    <dc:format>image/svg+xml</dc:format>
    <dc:creator>
     <cc:Agent>
      <dc:title>Matplotlib v3.4.2, https://matplotlib.org/</dc:title>
     </cc:Agent>
    </dc:creator>
   </cc:Work>
  </rdf:RDF>
 </metadata>
 <defs>
  <style type="text/css">*{stroke-linecap:butt;stroke-linejoin:round;}</style>
 </defs>
 <g id="figure_1">
  <g id="patch_1">
   <path d="M 0 702 
L 1382.4 702 
L 1382.4 0 
L 0 0 
z
" style="fill:#ffffff;"/>
  </g>
  <g id="axes_1">
   <g id="patch_2">
    <path d="M 172.8 624.78 
L 1244.16 624.78 
L 1244.16 84.24 
L 172.8 84.24 
z
" style="fill:#ffffff;"/>
   </g>
   <g id="matplotlib.axis_1">
    <g id="xtick_1">
     <g id="line2d_1">
      <defs>
       <path d="M 0 0 
L 0 3.5 
" id="m18fd18161f" style="stroke:#000000;stroke-width:0.8;"/>
      </defs>
      <g>
       <use style="stroke:#000000;stroke-width:0.8;" x="221.498182" xlink:href="#m18fd18161f" y="624.78"/>
      </g>
     </g>
     <g id="text_1">
      <!-- 0 -->
      <g transform="translate(218.316932 639.378438)scale(0.1 -0.1)">
       <defs>
        <path d="M 2034 4250 
Q 1547 4250 1301 3770 
Q 1056 3291 1056 2328 
Q 1056 1369 1301 889 
Q 1547 409 2034 409 
Q 2525 409 2770 889 
Q 3016 1369 3016 2328 
Q 3016 3291 2770 3770 
Q 2525 4250 2034 4250 
z
M 2034 4750 
Q 2819 4750 3233 4129 
Q 3647 3509 3647 2328 
Q 3647 1150 3233 529 
Q 2819 -91 2034 -91 
Q 1250 -91 836 529 
Q 422 1150 422 2328 
Q 422 3509 836 4129 
Q 1250 4750 2034 4750 
z
" id="DejaVuSans-30" transform="scale(0.015625)"/>
       </defs>
       <use xlink:href="#DejaVuSans-30"/>
      </g>
     </g>
    </g>
    <g id="xtick_2">
     <g id="line2d_2">
      <g>
       <use style="stroke:#000000;stroke-width:0.8;" x="454.448107" xlink:href="#m18fd18161f" y="624.78"/>
      </g>
     </g>
     <g id="text_2">
      <!-- 1000 -->
      <g transform="translate(441.723107 639.378438)scale(0.1 -0.1)">
       <defs>
        <path d="M 794 531 
L 1825 531 
L 1825 4091 
L 703 3866 
L 703 4441 
L 1819 4666 
L 2450 4666 
L 2450 531 
L 3481 531 
L 3481 0 
L 794 0 
L 794 531 
z
" id="DejaVuSans-31" transform="scale(0.015625)"/>
       </defs>
       <use xlink:href="#DejaVuSans-31"/>
       <use x="63.623047" xlink:href="#DejaVuSans-30"/>
       <use x="127.246094" xlink:href="#DejaVuSans-30"/>
       <use x="190.869141" xlink:href="#DejaVuSans-30"/>
      </g>
     </g>
    </g>
    <g id="xtick_3">
     <g id="line2d_3">
      <g>
       <use style="stroke:#000000;stroke-width:0.8;" x="687.398032" xlink:href="#m18fd18161f" y="624.78"/>
      </g>
     </g>
     <g id="text_3">
      <!-- 2000 -->
      <g transform="translate(674.673032 639.378438)scale(0.1 -0.1)">
       <defs>
        <path d="M 1228 531 
L 3431 531 
L 3431 0 
L 469 0 
L 469 531 
Q 828 903 1448 1529 
Q 2069 2156 2228 2338 
Q 2531 2678 2651 2914 
Q 2772 3150 2772 3378 
Q 2772 3750 2511 3984 
Q 2250 4219 1831 4219 
Q 1534 4219 1204 4116 
Q 875 4013 500 3803 
L 500 4441 
Q 881 4594 1212 4672 
Q 1544 4750 1819 4750 
Q 2544 4750 2975 4387 
Q 3406 4025 3406 3419 
Q 3406 3131 3298 2873 
Q 3191 2616 2906 2266 
Q 2828 2175 2409 1742 
Q 1991 1309 1228 531 
z
" id="DejaVuSans-32" transform="scale(0.015625)"/>
       </defs>
       <use xlink:href="#DejaVuSans-32"/>
       <use x="63.623047" xlink:href="#DejaVuSans-30"/>
       <use x="127.246094" xlink:href="#DejaVuSans-30"/>
       <use x="190.869141" xlink:href="#DejaVuSans-30"/>
      </g>
     </g>
    </g>
    <g id="xtick_4">
     <g id="line2d_4">
      <g>
       <use style="stroke:#000000;stroke-width:0.8;" x="920.347957" xlink:href="#m18fd18161f" y="624.78"/>
      </g>
     </g>
     <g id="text_4">
      <!-- 3000 -->
      <g transform="translate(907.622957 639.378438)scale(0.1 -0.1)">
       <defs>
        <path d="M 2597 2516 
Q 3050 2419 3304 2112 
Q 3559 1806 3559 1356 
Q 3559 666 3084 287 
Q 2609 -91 1734 -91 
Q 1441 -91 1130 -33 
Q 819 25 488 141 
L 488 750 
Q 750 597 1062 519 
Q 1375 441 1716 441 
Q 2309 441 2620 675 
Q 2931 909 2931 1356 
Q 2931 1769 2642 2001 
Q 2353 2234 1838 2234 
L 1294 2234 
L 1294 2753 
L 1863 2753 
Q 2328 2753 2575 2939 
Q 2822 3125 2822 3475 
Q 2822 3834 2567 4026 
Q 2313 4219 1838 4219 
Q 1578 4219 1281 4162 
Q 984 4106 628 3988 
L 628 4550 
Q 988 4650 1302 4700 
Q 1616 4750 1894 4750 
Q 2613 4750 3031 4423 
Q 3450 4097 3450 3541 
Q 3450 3153 3228 2886 
Q 3006 2619 2597 2516 
z
" id="DejaVuSans-33" transform="scale(0.015625)"/>
       </defs>
       <use xlink:href="#DejaVuSans-33"/>
       <use x="63.623047" xlink:href="#DejaVuSans-30"/>
       <use x="127.246094" xlink:href="#DejaVuSans-30"/>
       <use x="190.869141" xlink:href="#DejaVuSans-30"/>
      </g>
     </g>
    </g>
    <g id="xtick_5">
     <g id="line2d_5">
      <g>
       <use style="stroke:#000000;stroke-width:0.8;" x="1153.297882" xlink:href="#m18fd18161f" y="624.78"/>
      </g>
     </g>
     <g id="text_5">
      <!-- 4000 -->
      <g transform="translate(1140.572882 639.378438)scale(0.1 -0.1)">
       <defs>
        <path d="M 2419 4116 
L 825 1625 
L 2419 1625 
L 2419 4116 
z
M 2253 4666 
L 3047 4666 
L 3047 1625 
L 3713 1625 
L 3713 1100 
L 3047 1100 
L 3047 0 
L 2419 0 
L 2419 1100 
L 313 1100 
L 313 1709 
L 2253 4666 
z
" id="DejaVuSans-34" transform="scale(0.015625)"/>
       </defs>
       <use xlink:href="#DejaVuSans-34"/>
       <use x="63.623047" xlink:href="#DejaVuSans-30"/>
       <use x="127.246094" xlink:href="#DejaVuSans-30"/>
       <use x="190.869141" xlink:href="#DejaVuSans-30"/>
      </g>
     </g>
    </g>
   </g>
   <g id="matplotlib.axis_2">
    <g id="ytick_1">
     <g id="line2d_6">
      <defs>
       <path d="M 0 0 
L -3.5 0 
" id="me87c5ecc34" style="stroke:#000000;stroke-width:0.8;"/>
      </defs>
      <g>
       <use style="stroke:#000000;stroke-width:0.8;" x="172.8" xlink:href="#me87c5ecc34" y="600.21"/>
      </g>
     </g>
     <g id="text_6">
      <!-- 0 -->
      <g transform="translate(159.4375 604.009219)scale(0.1 -0.1)">
       <use xlink:href="#DejaVuSans-30"/>
      </g>
     </g>
    </g>
    <g id="ytick_2">
     <g id="line2d_7">
      <g>
       <use style="stroke:#000000;stroke-width:0.8;" x="172.8" xlink:href="#me87c5ecc34" y="510.093575"/>
      </g>
     </g>
     <g id="text_7">
      <!-- 1 -->
      <g transform="translate(159.4375 513.892794)scale(0.1 -0.1)">
       <use xlink:href="#DejaVuSans-31"/>
      </g>
     </g>
    </g>
    <g id="ytick_3">
     <g id="line2d_8">
      <g>
       <use style="stroke:#000000;stroke-width:0.8;" x="172.8" xlink:href="#me87c5ecc34" y="419.977151"/>
      </g>
     </g>
     <g id="text_8">
      <!-- 2 -->
      <g transform="translate(159.4375 423.77637)scale(0.1 -0.1)">
       <use xlink:href="#DejaVuSans-32"/>
      </g>
     </g>
    </g>
    <g id="ytick_4">
     <g id="line2d_9">
      <g>
       <use style="stroke:#000000;stroke-width:0.8;" x="172.8" xlink:href="#me87c5ecc34" y="329.860726"/>
      </g>
     </g>
     <g id="text_9">
      <!-- 3 -->
      <g transform="translate(159.4375 333.659945)scale(0.1 -0.1)">
       <use xlink:href="#DejaVuSans-33"/>
      </g>
     </g>
    </g>
    <g id="ytick_5">
     <g id="line2d_10">
      <g>
       <use style="stroke:#000000;stroke-width:0.8;" x="172.8" xlink:href="#me87c5ecc34" y="239.744302"/>
      </g>
     </g>
     <g id="text_10">
      <!-- 4 -->
      <g transform="translate(159.4375 243.543521)scale(0.1 -0.1)">
       <use xlink:href="#DejaVuSans-34"/>
      </g>
     </g>
    </g>
    <g id="ytick_6">
     <g id="line2d_11">
      <g>
       <use style="stroke:#000000;stroke-width:0.8;" x="172.8" xlink:href="#me87c5ecc34" y="149.627877"/>
      </g>
     </g>
     <g id="text_11">
      <!-- 5 -->
      <g transform="translate(159.4375 153.427096)scale(0.1 -0.1)">
       <defs>
        <path d="M 691 4666 
L 3169 4666 
L 3169 4134 
L 1269 4134 
L 1269 2991 
Q 1406 3038 1543 3061 
Q 1681 3084 1819 3084 
Q 2600 3084 3056 2656 
Q 3513 2228 3513 1497 
Q 3513 744 3044 326 
Q 2575 -91 1722 -91 
Q 1428 -91 1123 -41 
Q 819 9 494 109 
L 494 744 
Q 775 591 1075 516 
Q 1375 441 1709 441 
Q 2250 441 2565 725 
Q 2881 1009 2881 1497 
Q 2881 1984 2565 2268 
Q 2250 2553 1709 2553 
Q 1456 2553 1204 2497 
Q 953 2441 691 2322 
L 691 4666 
z
" id="DejaVuSans-35" transform="scale(0.015625)"/>
       </defs>
       <use xlink:href="#DejaVuSans-35"/>
      </g>
     </g>
    </g>
    <g id="text_12">
     <!-- 1e7 -->
     <g transform="translate(172.8 81.24)scale(0.1 -0.1)">
      <defs>
       <path d="M 3597 1894 
L 3597 1613 
L 953 1613 
Q 991 1019 1311 708 
Q 1631 397 2203 397 
Q 2534 397 2845 478 
Q 3156 559 3463 722 
L 3463 178 
Q 3153 47 2828 -22 
Q 2503 -91 2169 -91 
Q 1331 -91 842 396 
Q 353 884 353 1716 
Q 353 2575 817 3079 
Q 1281 3584 2069 3584 
Q 2775 3584 3186 3129 
Q 3597 2675 3597 1894 
z
M 3022 2063 
Q 3016 2534 2758 2815 
Q 2500 3097 2075 3097 
Q 1594 3097 1305 2825 
Q 1016 2553 972 2059 
L 3022 2063 
z
" id="DejaVuSans-65" transform="scale(0.015625)"/>
       <path d="M 525 4666 
L 3525 4666 
L 3525 4397 
L 1831 0 
L 1172 0 
L 2766 4134 
L 525 4134 
L 525 4666 
z
" id="DejaVuSans-37" transform="scale(0.015625)"/>
      </defs>
      <use xlink:href="#DejaVuSans-31"/>
      <use x="63.623047" xlink:href="#DejaVuSans-65"/>
      <use x="125.146484" xlink:href="#DejaVuSans-37"/>
     </g>
    </g>
   </g>
   <g id="line2d_12">
    <path clip-path="url(#p799d7e944a)" d="M 221.498182 342.181269 
L 222.197032 333.033644 
L 224.293581 303.560196 
L 224.759481 300.102577 
L 224.992431 299.678121 
L 225.225381 300.031482 
L 225.69128 302.476875 
L 226.15718 306.296957 
L 226.85603 314.156953 
L 227.78783 327.355222 
L 229.185529 351.464634 
L 230.350279 371.550866 
L 232.213878 399.717308 
L 232.679778 403.166862 
L 233.145678 404.863099 
L 233.378628 405.284226 
L 233.611578 405.334516 
L 233.844528 404.670396 
L 234.310428 401.192733 
L 235.708127 388.992717 
L 236.639927 382.752454 
L 237.105827 380.953159 
L 237.571727 379.941524 
L 237.804677 379.829075 
L 238.037626 379.416395 
L 238.503526 377.829747 
L 239.435326 372.948111 
L 240.134176 367.747797 
L 241.531875 354.229009 
L 241.997775 351.340711 
L 243.395475 344.861374 
L 244.560224 341.735809 
L 245.026124 341.55185 
L 245.492024 341.721983 
L 245.724974 342.099109 
L 246.190874 343.278446 
L 246.423824 344.268115 
L 246.656774 346.068215 
L 247.355623 355.248635 
L 248.520373 373.589852 
L 248.986273 378.96879 
L 249.219223 380.088111 
L 249.452173 378.944724 
L 249.918073 372.588558 
L 251.548722 341.069019 
L 252.247572 322.581658 
L 253.412322 291.306073 
L 253.878221 280.596024 
L 254.111171 277.286528 
L 254.344121 275.890376 
L 254.577071 275.643242 
L 254.810021 276.003802 
L 255.042971 277.364412 
L 255.275921 280.045056 
L 256.440671 312.265803 
L 257.83837 356.182209 
L 258.30427 366.125036 
L 258.53722 368.752424 
L 258.77017 370.079155 
L 259.23607 371.644945 
L 259.70197 374.83637 
L 259.934919 375.131268 
L 260.167869 374.215005 
L 260.633769 369.657838 
L 261.332619 359.142276 
L 262.031469 345.530082 
L 262.730319 332.254375 
L 262.963268 328.857982 
L 263.429168 326.638458 
L 263.895068 325.947521 
L 264.128018 324.78808 
L 265.059818 306.516033 
L 266.457517 278.582957 
L 266.923417 273.181976 
L 267.156367 272.746707 
L 267.622267 277.318724 
L 268.088167 282.091789 
L 269.718816 294.586897 
L 271.116516 307.983616 
L 271.582416 313.464681 
L 271.815366 314.805253 
L 272.281265 315.920467 
L 272.980115 317.094658 
L 273.678965 319.557125 
L 274.610765 324.42172 
L 275.309614 328.765658 
L 276.707314 341.838852 
L 278.570913 360.332993 
L 279.036813 369.129768 
L 279.502713 384.113849 
L 280.201563 417.233168 
L 280.667463 447.306139 
L 281.832212 534.306731 
L 282.065162 535.36348 
L 282.298112 525.741991 
L 285.326461 340.961333 
L 286.724161 267.202404 
L 287.423011 241.288033 
L 287.88891 230.130092 
L 288.12186 226.49341 
L 288.35481 224.620321 
L 288.58776 224.860028 
L 288.82071 226.273606 
L 289.28661 231.904382 
L 290.21841 243.343174 
L 290.45136 244.582873 
L 290.68431 244.50895 
L 290.917259 243.681469 
L 291.383159 240.55254 
L 291.849059 236.48474 
L 293.013809 221.766494 
L 293.712659 210.766847 
L 294.877408 188.831726 
L 295.576258 180.943586 
L 296.275108 172.286754 
L 296.508058 171.17277 
L 296.741008 170.649703 
L 296.973958 171.101342 
L 297.206907 172.619385 
L 297.905757 181.454108 
L 298.837557 197.057746 
L 299.769357 220.001148 
L 300.468206 237.547221 
L 303.030656 317.599312 
L 303.729505 329.932947 
L 304.195405 334.006916 
L 304.894255 338.257781 
L 305.360155 341.566673 
L 305.593105 341.859745 
L 305.826055 341.928733 
L 306.059005 341.446968 
L 306.291955 341.392601 
L 306.524904 342.416048 
L 306.990804 346.218778 
L 308.388504 362.188033 
L 308.621454 362.261951 
L 308.854404 360.100534 
L 309.087354 356.159193 
L 309.553253 343.150755 
L 310.252103 312.785804 
L 311.183903 269.790632 
L 313.746352 168.859266 
L 314.212252 157.716117 
L 315.144052 143.990963 
L 315.842901 136.566975 
L 316.308801 133.185119 
L 316.774701 131.096185 
L 317.007651 130.646319 
L 317.240601 130.597259 
L 317.473551 130.768873 
L 317.706501 131.163393 
L 317.939451 131.891717 
L 319.1042 137.758833 
L 319.5701 141.413462 
L 320.036 146.946541 
L 320.5019 154.817637 
L 321.20075 171.847195 
L 322.831399 214.762614 
L 323.297299 221.036005 
L 323.530249 222.575591 
L 323.763199 223.177477 
L 323.996149 222.969828 
L 324.229099 222.104991 
L 324.694999 218.142865 
L 325.393848 209.559513 
L 327.257448 183.327869 
L 327.956298 173.303008 
L 328.189247 171.709758 
L 328.422197 171.22108 
L 328.655147 171.810296 
L 329.121047 174.973407 
L 331.217596 192.150736 
L 331.916446 196.984837 
L 332.615296 203.391714 
L 332.848246 204.338452 
L 333.314146 205.155954 
L 333.547096 206.292923 
L 334.478895 213.821945 
L 334.944795 220.136202 
L 335.643645 233.801503 
L 336.808395 270.979901 
L 338.904944 333.973476 
L 340.069694 366.560275 
L 341.933293 421.22818 
L 342.399193 430.370524 
L 342.632143 431.979366 
L 342.865093 431.739478 
L 343.098043 429.753773 
L 343.563943 421.683915 
L 344.262792 405.912302 
L 344.728692 391.909729 
L 345.427542 362.606752 
L 346.825241 302.638989 
L 347.524091 281.984574 
L 347.757041 278.872593 
L 347.989991 277.637946 
L 348.222941 278.035933 
L 348.688841 282.204903 
L 349.620641 293.144717 
L 350.31949 305.017835 
L 352.18309 341.911032 
L 352.64899 345.908483 
L 353.580789 351.03713 
L 354.512589 355.330938 
L 355.677339 359.765115 
L 356.143238 360.764534 
L 356.376188 360.988949 
L 356.609138 361.00028 
L 357.075038 360.658572 
L 357.773888 359.939297 
L 358.705688 361.272548 
L 360.103387 364.141791 
L 361.035187 366.634581 
L 361.501087 367.062871 
L 361.734037 366.94786 
L 361.966987 366.701568 
L 362.432886 365.99225 
L 362.898786 364.219165 
L 363.131736 364.364124 
L 363.364686 365.590021 
L 364.063536 372.295658 
L 366.160085 396.573227 
L 366.393035 397.034531 
L 366.625985 396.503723 
L 367.091885 394.014013 
L 367.557785 390.522329 
L 368.023685 383.479704 
L 370.586134 331.823364 
L 371.052034 326.439622 
L 372.216783 318.647777 
L 372.449733 317.568156 
L 372.682683 317.488256 
L 372.915633 318.183579 
L 373.381533 321.76428 
L 375.245132 337.415544 
L 375.711032 340.2156 
L 376.409882 342.11844 
L 376.875782 343.076131 
L 377.108732 343.271156 
L 377.341682 343.199566 
L 377.574632 342.844848 
L 378.739381 342.338866 
L 379.205281 342.62482 
L 379.671181 343.410013 
L 380.370031 345.104407 
L 380.835931 346.762696 
L 382.69953 355.521768 
L 383.63133 361.155984 
L 385.029029 371.087286 
L 385.960829 375.185843 
L 386.193779 375.423481 
L 386.426729 375.45066 
L 387.824428 374.99324 
L 388.290328 375.425167 
L 388.989178 376.856606 
L 390.153928 380.758135 
L 390.386877 381.083548 
L 390.619827 381.199408 
L 391.085727 380.911564 
L 391.318677 380.586774 
L 391.784577 378.944213 
L 392.483427 375.83942 
L 393.182277 372.808058 
L 393.881126 370.512829 
L 394.347026 369.880475 
L 395.278826 369.327116 
L 395.977676 369.137492 
L 396.676525 369.322634 
L 397.142425 369.828295 
L 398.074225 370.425193 
L 399.006025 371.637814 
L 399.704874 372.245014 
L 400.170774 372.921613 
L 401.102574 374.568368 
L 401.568474 374.990371 
L 402.267324 375.151956 
L 402.500274 375.003398 
L 403.665023 373.346047 
L 404.130923 373.153396 
L 404.829773 373.391515 
L 405.295673 373.866972 
L 405.761572 374.90328 
L 407.858122 381.182649 
L 408.556972 382.683302 
L 409.022871 383.236446 
L 409.488771 383.644694 
L 409.954671 384.72653 
L 410.653521 387.148963 
L 411.119421 389.110557 
L 412.28417 395.442359 
L 412.98302 400.650495 
L 414.14777 411.711542 
L 414.61367 417.928195 
L 415.079569 429.831003 
L 415.545469 448.376898 
L 416.244319 486.393149 
L 416.710219 518.976515 
L 417.642019 600.21 
L 418.806768 499.099725 
L 420.437418 377.782156 
L 422.301017 256.450331 
L 422.999867 223.776625 
L 423.465767 210.959037 
L 423.931667 203.054642 
L 424.164617 200.978712 
L 424.397566 201.925867 
L 424.863466 206.727112 
L 426.494116 230.320718 
L 426.727066 230.868811 
L 426.960016 230.292055 
L 427.425916 227.848451 
L 429.522465 214.372309 
L 430.221315 208.737068 
L 430.920164 205.177274 
L 431.386064 200.427148 
L 432.317864 190.282551 
L 432.783764 187.162004 
L 433.016714 186.772876 
L 433.249664 187.238559 
L 433.482614 188.161771 
L 433.948513 191.301209 
L 434.414413 197.006998 
L 434.880313 206.012429 
L 435.346213 218.431111 
L 436.045063 245.40006 
L 436.743913 281.97266 
L 437.908662 358.234091 
L 438.607512 397.467978 
L 439.073412 412.630039 
L 439.539312 419.785937 
L 439.772262 420.715103 
L 440.005211 420.46826 
L 440.238161 419.482475 
L 440.704061 415.528584 
L 441.169961 408.755414 
L 441.635861 398.729665 
L 442.101761 385.206363 
L 442.567661 366.395338 
L 443.73241 303.31986 
L 444.89716 243.491072 
L 445.82896 208.946249 
L 446.527809 190.863912 
L 447.692559 167.399487 
L 448.857309 148.159937 
L 449.556158 139.235597 
L 450.022058 135.630232 
L 450.487958 133.33998 
L 451.419758 130.141217 
L 451.652708 130.029214 
L 451.885658 130.419803 
L 452.118608 131.55121 
L 452.584507 135.627697 
L 453.283357 144.771228 
L 454.448107 161.054573 
L 455.146957 167.824879 
L 455.612856 174.288547 
L 456.311706 188.521544 
L 457.010556 208.953402 
L 458.641205 259.37372 
L 459.107105 265.327325 
L 459.340055 266.043936 
L 459.573005 265.584363 
L 459.805955 263.845992 
L 460.271855 257.618104 
L 460.970705 244.64916 
L 461.669554 226.624717 
L 463.766104 164.901658 
L 464.232004 158.369955 
L 464.697904 156.863874 
L 464.930853 156.468462 
L 465.629703 156.242289 
L 465.862653 156.595 
L 466.328553 157.832808 
L 466.794453 160.473235 
L 467.260353 163.861916 
L 467.493303 166.204964 
L 467.959202 174.96092 
L 469.589852 219.720364 
L 470.288702 242.001692 
L 471.919351 307.266989 
L 474.015901 403.219006 
L 476.11245 523.812691 
L 476.3454 526.433886 
L 476.57835 521.970413 
L 477.04425 503.024221 
L 478.208999 435.605556 
L 481.470298 247.847296 
L 481.936198 231.308639 
L 482.402098 221.765342 
L 482.867998 216.269873 
L 483.100948 216.259596 
L 483.333898 216.87239 
L 483.566847 218.762847 
L 484.032747 225.361772 
L 484.731597 240.137942 
L 485.430447 255.54253 
L 485.896347 262.733887 
L 486.129297 264.820993 
L 486.362247 265.422451 
L 486.595196 265.070031 
L 486.828146 263.812017 
L 487.526996 257.296135 
L 488.225846 249.206146 
L 488.924696 238.494495 
L 490.322395 212.189267 
L 491.254195 193.277844 
L 491.720095 188.801685 
L 491.953045 188.602458 
L 492.185995 190.153915 
L 492.418945 193.274391 
L 492.884844 205.222648 
L 493.583694 234.466915 
L 494.515494 285.712191 
L 495.447294 353.457252 
L 496.146143 402.042568 
L 496.612043 421.895389 
L 496.844993 426.620818 
L 497.077943 427.745145 
L 497.310893 426.461765 
L 497.776793 419.390931 
L 498.242693 411.068915 
L 499.174492 396.324296 
L 499.640392 384.634759 
L 500.106292 367.902125 
L 500.805142 330.048665 
L 501.969892 267.176518 
L 502.668741 239.785377 
L 503.134641 229.125578 
L 503.833491 220.609026 
L 504.299391 213.337264 
L 504.998241 197.524848 
L 505.93004 175.767671 
L 506.62889 165.588551 
L 508.958389 140.229395 
L 510.123139 131.398074 
L 510.589039 126.607889 
L 511.054939 123.521976 
L 511.287888 122.990648 
L 511.520838 123.232117 
L 511.753788 124.283006 
L 512.219688 128.282596 
L 513.384438 139.633769 
L 514.083288 144.697974 
L 514.549187 151.019277 
L 515.248037 165.424688 
L 515.946887 188.183477 
L 517.810486 258.921369 
L 518.043436 262.489075 
L 518.276386 263.984065 
L 518.509336 263.698707 
L 518.742286 261.904433 
L 519.208186 255.018353 
L 520.139986 235.457743 
L 520.838835 217.454555 
L 523.168335 147.452167 
L 523.634235 139.834523 
L 524.100134 135.205196 
L 524.333084 134.228045 
L 524.798984 133.681808 
L 525.031934 133.907173 
L 525.497834 135.305122 
L 525.963734 138.427287 
L 526.662584 144.467432 
L 527.361433 153.402146 
L 528.293233 168.099702 
L 529.457983 194.919546 
L 530.389782 221.126205 
L 531.321582 255.272023 
L 532.486332 294.325891 
L 533.418131 316.669596 
L 534.116981 328.925813 
L 534.815831 335.840514 
L 535.281731 338.108874 
L 535.980581 339.43271 
L 536.21353 339.852323 
L 537.14533 340.450695 
L 537.61123 341.148898 
L 538.07713 342.471877 
L 538.54303 344.545615 
L 540.639579 356.303752 
L 541.105479 357.394626 
L 541.338429 357.534005 
L 541.571379 357.531305 
L 541.804329 357.306814 
L 542.270229 356.38204 
L 542.736128 354.870835 
L 543.434978 351.624694 
L 544.366778 347.0171 
L 545.298578 344.662232 
L 545.531527 344.434509 
L 545.764477 344.412701 
L 546.463327 344.847412 
L 546.696277 344.727927 
L 547.162177 344.102602 
L 549.025776 340.682801 
L 549.491676 340.101237 
L 549.724626 340.130985 
L 549.957576 340.324087 
L 551.355276 343.226419 
L 551.821175 344.643338 
L 552.287075 347.103534 
L 552.985925 350.958204 
L 554.383625 357.813589 
L 554.616575 360.263549 
L 555.082474 370.479942 
L 555.548374 387.262924 
L 556.247224 424.347487 
L 557.411974 490.642194 
L 557.644924 494.207166 
L 557.877873 489.149935 
L 558.343773 465.31188 
L 560.673273 311.445731 
L 562.070972 223.862309 
L 562.769822 191.653903 
L 563.235722 177.682518 
L 563.934572 165.250623 
L 564.167521 162.51461 
L 564.400471 162.012731 
L 564.866371 165.534483 
L 565.332271 171.287158 
L 566.264071 184.504092 
L 566.729971 188.273889 
L 566.962921 189.025384 
L 567.19587 188.647705 
L 567.66177 185.68176 
L 568.36062 179.93714 
L 569.52537 174.568731 
L 570.923069 164.201925 
L 572.087819 150.687063 
L 572.320769 149.753349 
L 572.553719 149.671549 
L 572.786669 150.586877 
L 573.019619 152.661951 
L 573.252569 156.208202 
L 573.718468 168.477443 
L 574.184368 186.829201 
L 574.883218 223.640918 
L 575.815018 286.40382 
L 576.746817 350.019049 
L 577.445667 380.825251 
L 577.911567 391.965292 
L 578.377467 397.378941 
L 578.610417 397.80781 
L 579.076317 394.529141 
L 579.309267 392.352515 
L 579.775166 384.24262 
L 580.241066 371.490239 
L 580.939916 344.605116 
L 583.269415 235.677051 
L 583.968265 214.897249 
L 585.598915 176.371503 
L 587.462514 134.856369 
L 587.928414 127.594049 
L 588.860214 117.404468 
L 589.559063 111.779482 
L 589.792013 110.674321 
L 590.024963 110.291138 
L 590.257913 110.48413 
L 590.490863 111.368994 
L 590.956763 115.276717 
L 591.422663 121.418839 
L 592.587412 144.588567 
L 593.985112 173.833643 
L 594.916912 204.986413 
L 596.547561 262.889491 
L 596.780511 266.65109 
L 597.013461 268.449937 
L 597.246411 268.440305 
L 597.479361 267.02737 
L 597.945261 259.650086 
L 598.87706 235.483025 
L 599.80886 206.635051 
L 601.20656 157.82306 
L 601.672459 146.492541 
L 602.138359 140.631074 
L 602.371309 139.259065 
L 602.604259 138.926901 
L 603.303109 138.849342 
L 603.536059 138.935803 
L 603.769009 139.478264 
L 604.234909 141.857531 
L 604.933758 148.077788 
L 605.399658 152.942996 
L 605.865558 160.051979 
L 607.962107 200.742288 
L 608.893907 222.484735 
L 610.990456 276.834157 
L 612.854056 314.661747 
L 614.251755 342.19087 
L 614.717655 355.514724 
L 615.183555 375.110299 
L 615.882405 414.194332 
L 616.581255 469.005373 
L 617.280104 520.208316 
L 617.513054 521.411883 
L 617.746004 513.261403 
L 618.444854 468.887847 
L 619.842554 383.220504 
L 622.172053 251.907815 
L 622.870903 223.16466 
L 623.569752 203.737813 
L 623.802702 199.674378 
L 624.035652 197.914794 
L 624.268602 197.508 
L 624.501552 198.070591 
L 625.200402 201.06756 
L 625.433352 201.661179 
L 625.666302 201.686045 
L 625.899252 201.045037 
L 626.365151 197.699292 
L 626.831051 191.934112 
L 628.927601 160.136976 
L 629.3935 155.168937 
L 629.8594 152.185174 
L 630.3253 150.220634 
L 630.55825 149.050041 
L 630.7912 148.485047 
L 631.02415 148.318163 
L 631.2571 148.380584 
L 631.49005 149.578867 
L 632.421849 157.581758 
L 632.887749 167.038738 
L 633.586599 192.02319 
L 634.518399 236.231622 
L 636.847898 362.868488 
L 637.313798 376.871264 
L 637.779698 384.72378 
L 638.012648 386.454107 
L 638.245598 387.299778 
L 638.711497 387.311967 
L 638.944447 387.000904 
L 639.177397 385.502086 
L 639.643297 378.213114 
L 640.109197 364.643313 
L 640.808047 336.844663 
L 643.137546 226.321787 
L 644.069346 196.813259 
L 645.467045 163.735776 
L 647.097695 129.330079 
L 647.563595 122.864629 
L 648.029494 118.367218 
L 648.495394 115.435048 
L 648.961294 113.91133 
L 649.194244 113.913024 
L 649.427194 114.373348 
L 649.660144 115.537987 
L 650.126044 119.661841 
L 650.824894 129.105853 
L 653.154393 166.113405 
L 653.620293 173.787614 
L 654.319142 189.656725 
L 655.017992 210.063647 
L 656.415692 257.744824 
L 656.881592 266.16652 
L 657.347491 269.805885 
L 657.580441 270.107285 
L 657.813391 269.500764 
L 658.279291 267.380711 
L 658.745191 264.512346 
L 659.211091 260.598157 
L 659.444041 257.695848 
L 660.142891 242.091725 
L 661.07469 215.111731 
L 662.23944 179.495307 
L 662.93829 165.08217 
L 663.40419 160.363129 
L 663.870089 157.73598 
L 664.103039 157.40451 
L 664.335989 157.601378 
L 664.568939 158.056406 
L 665.034839 159.734854 
L 665.500739 162.239675 
L 665.966639 165.576391 
L 666.432539 168.872648 
L 667.131388 170.312291 
L 667.597288 174.429979 
L 668.296138 181.802462 
L 668.762038 190.516135 
L 669.460888 209.930062 
L 670.392687 246.670148 
L 672.489237 342.952935 
L 673.653986 401.005486 
L 675.051686 490.645145 
L 675.983485 546.127267 
L 676.216435 545.55792 
L 676.449385 536.526408 
L 677.381185 474.134015 
L 681.108384 213.932338 
L 681.574284 194.232365 
L 682.040184 181.72288 
L 682.506083 174.715021 
L 682.739033 172.415514 
L 682.971983 171.429217 
L 683.204933 171.770041 
L 683.437883 173.144623 
L 683.670833 175.229058 
L 684.369683 185.760725 
L 685.534432 204.946245 
L 685.767382 207.145396 
L 686.000332 208.104288 
L 686.233282 207.406737 
L 686.699182 202.988477 
L 688.096882 184.665382 
L 688.795731 174.944654 
L 690.659331 145.542383 
L 691.125231 140.133738 
L 691.59113 137.045912 
L 691.82408 136.192814 
L 692.05703 136.597711 
L 692.28998 138.49279 
L 692.52293 142.35383 
L 692.98883 155.814314 
L 693.68768 185.62134 
L 694.619479 240.650821 
L 696.250129 350.271501 
L 696.716029 371.293589 
L 697.181929 384.711646 
L 697.647828 393.204519 
L 697.880778 395.619943 
L 698.346678 396.421887 
L 698.579628 395.647038 
L 698.812578 393.517214 
L 699.278478 385.223509 
L 699.744378 370.7907 
L 700.443228 342.098004 
L 702.539777 239.316997 
L 703.471577 209.344923 
L 704.403376 187.308507 
L 705.568126 161.800495 
L 706.034026 154.995646 
L 706.732876 148.998993 
L 707.897625 143.81023 
L 709.528275 134.487792 
L 709.761225 133.932524 
L 709.994175 134.049549 
L 710.460074 136.23343 
L 710.925974 141.445298 
L 713.022524 172.932645 
L 713.721373 188.641649 
L 714.420223 213.319507 
L 716.050873 277.525013 
L 716.516772 286.239819 
L 716.749722 287.480679 
L 716.982672 287.270307 
L 717.215622 285.387499 
L 717.681522 276.456866 
L 718.613322 251.720624 
L 719.312172 227.836072 
L 720.942821 165.610506 
L 721.408721 152.766489 
L 721.874621 146.713745 
L 722.340521 144.192633 
L 722.80642 143.18791 
L 723.03937 142.91254 
L 723.73822 141.690965 
L 723.97117 141.383356 
L 724.20412 141.535053 
L 724.67002 142.694895 
L 725.13592 145.321419 
L 725.834769 153.140826 
L 727.232469 168.392584 
L 727.698369 173.821813 
L 728.164269 182.01639 
L 728.863118 200.218878 
L 730.260818 246.593922 
L 731.658518 303.224008 
L 732.823267 345.858988 
L 733.522117 371.599239 
L 734.220967 407.172114 
L 735.152766 466.70743 
L 736.084566 529.066852 
L 736.317516 535.127003 
L 736.550466 530.538332 
L 737.016366 505.77837 
L 740.510615 274.265773 
L 741.209464 241.313748 
L 741.675364 226.733231 
L 742.141264 218.669768 
L 742.607164 214.089189 
L 742.840114 212.764197 
L 743.073064 213.661636 
L 743.306014 215.241468 
L 743.771914 221.405673 
L 744.703713 236.230826 
L 744.936663 239.05863 
L 745.169613 240.494891 
L 745.402563 240.953826 
L 745.635513 240.101603 
L 745.868463 238.248139 
L 746.334363 230.871698 
L 747.266163 210.198355 
L 748.663862 169.983873 
L 749.362712 151.884961 
L 749.828612 143.364903 
L 750.760411 130.631745 
L 751.226311 125.820086 
L 751.459261 124.564641 
L 751.692211 124.379494 
L 751.925161 124.907417 
L 752.158111 126.355406 
L 752.624011 133.45097 
L 753.089911 146.180607 
L 753.78876 173.509122 
L 754.95351 233.063327 
L 757.050059 344.459248 
L 757.515959 360.082031 
L 757.981859 369.492006 
L 758.447759 372.341966 
L 758.680709 372.434885 
L 758.913659 371.321804 
L 759.146609 369.608911 
L 759.612509 368.272755 
L 760.078408 365.801355 
L 760.311358 363.987153 
L 760.777258 357.022231 
L 761.243158 345.477766 
L 761.709058 327.78325 
L 763.572657 242.874395 
L 764.271507 225.133355 
L 764.970357 212.863244 
L 767.299856 178.484649 
L 768.231656 168.995743 
L 768.697556 166.235165 
L 768.930506 165.556104 
L 769.396405 165.521186 
L 769.629355 165.731842 
L 770.328205 167.441719 
L 771.027055 170.057625 
L 771.260005 170.515262 
L 771.492955 170.577782 
L 771.958855 171.425211 
L 773.123604 174.346746 
L 773.356554 174.33361 
L 773.822454 173.664675 
L 774.055404 173.098134 
L 774.521304 170.93156 
L 774.754254 169.355274 
L 776.151953 154.885131 
L 776.617853 151.997501 
L 776.850803 151.52962 
L 777.083753 151.668703 
L 777.316703 152.244673 
L 778.015553 155.263221 
L 778.248503 156.749755 
L 778.714402 162.037534 
L 779.180302 169.637894 
L 780.112102 189.084123 
L 783.606351 271.024669 
L 784.072251 278.165513 
L 784.305201 280.092134 
L 784.538151 280.792738 
L 784.7711 279.983584 
L 785.237 274.376505 
L 785.7029 263.765698 
L 786.40175 241.557169 
L 787.5665 200.451596 
L 788.498299 172.584628 
L 788.964199 162.666358 
L 789.430099 156.999985 
L 789.895999 154.125212 
L 790.128949 153.635832 
L 790.361899 153.5193 
L 790.594849 153.763585 
L 790.827798 154.391666 
L 791.293698 157.744248 
L 791.759598 164.003654 
L 792.458448 178.760684 
L 794.089097 220.716645 
L 794.554997 226.857582 
L 794.787947 228.57855 
L 795.020897 229.348377 
L 795.253847 229.27297 
L 795.486797 228.331471 
L 795.719747 226.299943 
L 796.185647 218.975041 
L 796.884497 202.74232 
L 798.049246 173.291277 
L 798.981046 153.517077 
L 799.446946 148.197474 
L 799.679896 147.257418 
L 799.912846 147.360507 
L 800.145795 147.860179 
L 800.844645 151.329737 
L 802.475295 161.208267 
L 802.708245 161.751528 
L 802.941195 161.895582 
L 803.407094 161.864275 
L 803.640044 161.563991 
L 804.105944 159.954246 
L 804.571844 156.557402 
L 805.736594 147.397997 
L 806.901343 130.476482 
L 807.134293 129.582061 
L 807.367243 129.690221 
L 807.600193 130.496806 
L 808.066093 134.810807 
L 808.764943 146.021093 
L 810.162642 172.097837 
L 810.861492 179.868309 
L 811.560342 185.750695 
L 812.026242 187.553156 
L 812.259192 188.072941 
L 812.492142 187.89221 
L 812.725091 186.638059 
L 812.958041 184.589768 
L 813.423941 177.084563 
L 814.588691 154.101399 
L 815.287541 146.645177 
L 815.520491 145.131926 
L 815.75344 144.977583 
L 815.98639 146.148698 
L 816.45229 153.170495 
L 817.15114 168.695776 
L 818.08294 195.03022 
L 820.412439 267.579315 
L 821.111289 282.74251 
L 821.810139 292.504302 
L 822.741938 301.914794 
L 823.440788 307.047773 
L 824.139638 310.510192 
L 824.605538 311.713597 
L 824.838488 311.983358 
L 825.071437 311.922531 
L 825.304387 311.651292 
L 825.537337 311.08515 
L 827.167987 304.922952 
L 828.565686 301.968799 
L 829.031586 301.510161 
L 829.264536 301.379343 
L 829.730436 301.653868 
L 830.196336 302.448724 
L 830.895186 304.358714 
L 831.594035 307.348395 
L 832.758785 312.255995 
L 833.457635 314.299686 
L 833.923535 315.22473 
L 834.389434 315.640212 
L 835.321234 315.874945 
L 836.253034 315.806893 
L 837.883683 315.45928 
L 838.349583 315.587557 
L 838.815483 316.022716 
L 839.747283 317.311023 
L 841.610882 320.647525 
L 842.542682 322.69286 
L 844.639231 327.061382 
L 846.036931 331.663165 
L 846.269881 332.028284 
L 846.502831 332.183005 
L 846.73578 332.078074 
L 847.20168 331.356372 
L 848.59938 326.807538 
L 849.06528 326.255274 
L 849.29823 326.211611 
L 849.53118 326.357983 
L 849.76413 326.725008 
L 850.230029 328.157096 
L 851.161829 332.96186 
L 852.326579 339.469366 
L 854.423128 352.232822 
L 854.656078 353.143829 
L 855.121978 353.958198 
L 855.587878 354.18981 
L 855.820828 353.96016 
L 856.286727 352.929463 
L 856.752627 351.189421 
L 857.451477 347.009032 
L 858.616227 339.362503 
L 859.082127 337.115225 
L 859.548026 335.876763 
L 859.780976 335.704549 
L 860.013926 335.783186 
L 860.479826 336.555161 
L 861.644576 340.766541 
L 862.343425 344.231158 
L 862.809325 347.558992 
L 863.974075 358.982673 
L 864.672925 367.345495 
L 865.371774 379.699951 
L 867.468324 424.760431 
L 867.934224 429.420735 
L 868.400124 433.982543 
L 868.866023 441.944116 
L 869.797823 459.375728 
L 870.030773 460.609892 
L 870.263723 458.625805 
L 870.729623 447.496682 
L 871.195523 429.64581 
L 871.661422 403.526385 
L 873.525022 285.8151 
L 874.689771 230.751556 
L 875.621571 195.787506 
L 876.087471 185.958546 
L 876.320421 183.203051 
L 876.553371 182.491865 
L 876.786321 182.653393 
L 877.019271 183.393217 
L 877.485171 186.316183 
L 878.88287 196.54652 
L 879.11582 196.756807 
L 879.34877 196.590378 
L 879.58172 195.961645 
L 879.81467 194.509081 
L 880.51352 186.167109 
L 881.212369 175.981239 
L 882.377119 154.63622 
L 883.308919 138.352291 
L 884.706618 125.424196 
L 885.172518 123.728677 
L 885.405468 123.834595 
L 885.638418 124.865699 
L 885.871368 127.004884 
L 886.104318 130.413577 
L 886.570218 142.107131 
L 887.269067 167.118017 
L 887.967917 200.01648 
L 888.899717 255.232875 
L 889.831517 310.105956 
L 890.530366 338.911362 
L 891.229216 357.349473 
L 891.695116 364.741196 
L 892.161016 370.059241 
L 892.393966 370.821687 
L 892.626916 369.830689 
L 892.859866 367.429367 
L 893.325765 357.488159 
L 893.791665 342.592001 
L 894.490515 310.712323 
L 895.888215 240.786453 
L 896.587064 215.677509 
L 897.285914 195.542919 
L 898.450664 169.137236 
L 899.382464 151.416882 
L 899.848363 145.922399 
L 900.314263 142.380157 
L 901.013113 138.154008 
L 901.479013 135.432009 
L 901.944913 134.549108 
L 902.177863 134.69458 
L 902.876712 136.160558 
L 903.109662 137.130607 
L 903.575562 140.951662 
L 904.041462 146.996965 
L 904.507362 155.610835 
L 905.905061 184.234364 
L 907.302761 204.502562 
L 908.234561 221.032003 
L 908.93341 236.945888 
L 910.79701 288.576146 
L 911.02996 289.839908 
L 911.26291 289.510878 
L 911.72881 286.72627 
L 912.194709 280.517798 
L 913.126509 263.543195 
L 913.592409 252.589884 
L 914.524209 221.589763 
L 915.223058 198.188845 
L 915.921908 182.016805 
L 916.387808 175.941908 
L 916.853708 172.599492 
L 917.319608 170.427373 
L 917.785508 167.974968 
L 918.950257 159.283797 
L 919.882057 157.131026 
L 920.115007 157.058409 
L 920.347957 157.708941 
L 921.046807 161.882505 
L 921.978606 169.320519 
L 922.444506 176.374351 
L 922.910406 189.074375 
L 924.541055 248.244979 
L 926.171705 305.524582 
L 927.569404 342.738 
L 928.035304 351.520754 
L 928.501204 364.687877 
L 928.967104 383.868693 
L 929.665954 424.002476 
L 930.597753 491.664058 
L 931.063653 521.738171 
L 931.296603 524.948497 
L 931.762503 502.09934 
L 933.859052 358.123961 
L 935.722652 238.901163 
L 936.421502 208.317406 
L 936.887401 197.181234 
L 937.586251 186.974583 
L 937.819201 184.497494 
L 938.052151 184.794358 
L 938.518051 188.001093 
L 939.216901 195.108613 
L 940.1487 204.34452 
L 940.38165 205.211172 
L 940.6146 205.24554 
L 940.84755 204.308276 
L 941.31345 199.52493 
L 942.71115 179.026201 
L 943.642949 161.929232 
L 944.108849 154.62475 
L 945.506549 142.532961 
L 945.739499 142.117412 
L 945.972449 142.317151 
L 946.205398 143.374158 
L 946.438348 145.734813 
L 946.904248 155.156084 
L 947.370148 171.100322 
L 948.068998 204.620736 
L 949.000798 264.522394 
L 950.165547 339.039374 
L 950.631447 357.007135 
L 951.097347 367.37917 
L 951.563247 372.909884 
L 951.796197 374.544191 
L 952.029147 375.165187 
L 952.262096 374.799817 
L 952.495046 373.793729 
L 952.960946 369.334092 
L 953.426846 359.540552 
L 954.125696 335.768605 
L 954.824546 302.275468 
L 956.222245 232.306771 
L 956.921095 206.763021 
L 957.619945 188.016158 
L 959.017644 159.464985 
L 960.415344 133.016741 
L 961.114194 124.451482 
L 961.580093 119.647457 
L 962.045993 116.814299 
L 962.977793 113.186194 
L 963.210743 112.72609 
L 963.443693 112.817995 
L 963.676643 113.529753 
L 963.909593 114.735801 
L 964.375493 119.205575 
L 964.841392 125.537961 
L 965.540242 139.27754 
L 967.403842 182.130944 
L 967.869741 197.554309 
L 969.966291 282.454224 
L 970.432191 289.090724 
L 970.665141 289.37535 
L 970.89809 287.568033 
L 971.36399 281.134202 
L 972.29579 263.746805 
L 972.99464 245.979264 
L 974.159389 207.680362 
L 975.091189 181.287589 
L 975.557089 172.413922 
L 976.022989 168.036233 
L 977.653638 159.827417 
L 977.886588 159.557241 
L 978.119538 159.803473 
L 978.352488 160.307675 
L 978.585438 161.145427 
L 978.818388 162.603657 
L 979.284288 167.752355 
L 979.750188 175.551928 
L 981.613787 215.212178 
L 982.778537 253.400722 
L 985.573936 356.088318 
L 986.272786 396.458224 
L 986.971635 445.297414 
L 987.903435 519.023031 
L 988.136385 527.028516 
L 988.369335 521.330408 
L 988.835235 494.806953 
L 990.465884 389.938447 
L 993.261283 233.112483 
L 993.727183 216.483906 
L 994.193083 205.635179 
L 994.426033 202.04222 
L 994.658983 200.538886 
L 994.891933 201.233529 
L 995.357833 206.054765 
L 996.755532 227.783709 
L 996.988482 229.006263 
L 997.221432 229.498134 
L 997.454382 229.112422 
L 997.687332 228.128709 
L 998.153232 223.848552 
L 999.085031 210.224525 
L 1000.249781 189.45717 
L 1002.34633 146.146272 
L 1002.81223 139.625391 
L 1003.27813 135.618202 
L 1003.51108 134.785239 
L 1003.74403 135.07567 
L 1003.97698 136.436347 
L 1004.20993 139.019306 
L 1004.67583 147.840275 
L 1005.374679 167.504771 
L 1006.306479 200.962334 
L 1007.005329 232.123034 
L 1008.170078 288.423492 
L 1008.635978 301.432665 
L 1008.868928 305.073688 
L 1009.101878 306.651308 
L 1009.334828 306.892485 
L 1009.567778 306.394093 
L 1010.266628 302.475627 
L 1010.499578 301.845949 
L 1010.965478 299.152795 
L 1011.431377 294.129047 
L 1011.897277 285.889392 
L 1012.363177 274.350298 
L 1014.925626 197.944655 
L 1015.624476 187.008329 
L 1016.090376 181.781505 
L 1016.556276 178.383921 
L 1017.022176 172.249184 
L 1018.186925 152.058581 
L 1018.419875 149.95371 
L 1018.652825 148.861415 
L 1018.885775 148.958282 
L 1019.118725 150.008403 
L 1019.584625 155.021333 
L 1020.982324 173.866205 
L 1021.448224 177.500276 
L 1022.147074 180.853567 
L 1022.380024 181.766315 
L 1023.311824 189.250875 
L 1023.777723 191.643801 
L 1024.010673 192.357726 
L 1024.476573 192.048985 
L 1024.709523 191.832665 
L 1024.942473 191.819907 
L 1025.408373 192.085007 
L 1025.641323 191.992865 
L 1025.874273 192.439101 
L 1026.107223 194.006652 
L 1026.340173 197.380559 
L 1026.806072 209.12174 
L 1027.504922 236.08814 
L 1028.669672 282.72451 
L 1029.135572 291.996793 
L 1029.368522 293.617518 
L 1029.601472 293.866051 
L 1029.834422 292.991562 
L 1030.300321 289.763729 
L 1030.766221 283.598561 
L 1031.232121 275.599746 
L 1031.698021 264.71118 
L 1032.396871 241.945897 
L 1033.32867 209.389069 
L 1034.02752 191.41005 
L 1034.72637 181.446181 
L 1035.19227 177.164017 
L 1036.357019 168.168687 
L 1037.754719 154.263032 
L 1037.987669 152.56461 
L 1038.220619 151.741735 
L 1038.453569 152.097718 
L 1038.919469 155.452978 
L 1039.385368 160.249278 
L 1040.084218 171.272482 
L 1040.550118 184.823107 
L 1041.248968 211.502736 
L 1042.180768 256.829641 
L 1043.112567 302.182412 
L 1043.811417 323.914352 
L 1044.510267 339.451626 
L 1045.907966 363.720201 
L 1046.606816 384.479468 
L 1048.004516 425.428629 
L 1048.237466 423.772886 
L 1048.703365 406.552061 
L 1051.964664 242.84368 
L 1052.896464 203.335996 
L 1053.595314 183.812547 
L 1054.527114 165.468316 
L 1054.760063 163.14933 
L 1054.993013 162.578554 
L 1055.225963 163.207698 
L 1055.691863 165.516697 
L 1056.856613 173.712963 
L 1057.322513 174.72669 
L 1057.555463 174.427999 
L 1057.788413 173.141847 
L 1059.652012 156.553087 
L 1060.350862 148.575728 
L 1061.049711 140.889011 
L 1061.748561 135.22447 
L 1062.447411 129.612392 
L 1062.913311 127.96835 
L 1063.146261 128.186423 
L 1063.379211 129.610482 
L 1063.845111 135.766481 
L 1064.31101 147.765247 
L 1064.77691 165.537166 
L 1065.47576 201.082213 
L 1066.64051 274.194195 
L 1067.572309 332.574112 
L 1068.038209 352.342274 
L 1068.504109 365.307443 
L 1068.970009 372.26295 
L 1069.202959 373.33989 
L 1069.435909 372.954069 
L 1069.668859 371.637509 
L 1070.134759 367.385925 
L 1070.600658 359.432681 
L 1071.299508 341.827763 
L 1071.998358 317.194669 
L 1074.094907 233.15936 
L 1074.560807 222.751308 
L 1075.026707 216.689394 
L 1075.259657 215.064606 
L 1075.492607 214.334946 
L 1075.725557 214.358207 
L 1075.958507 214.909269 
L 1076.424407 217.230629 
L 1077.123256 221.648662 
L 1077.822106 224.246103 
L 1078.753906 230.458814 
L 1079.685705 236.829409 
L 1079.918655 237.757434 
L 1080.617505 238.207369 
L 1081.083405 240.602707 
L 1081.549305 244.724261 
L 1082.015205 251.679423 
L 1082.481105 262.499507 
L 1083.878804 303.614965 
L 1084.111754 307.441919 
L 1084.344704 309.417986 
L 1084.577654 310.256543 
L 1084.810604 310.058952 
L 1085.043554 309.495418 
L 1085.975353 304.994203 
L 1086.441253 303.896483 
L 1086.907153 301.631143 
L 1087.606003 296.792995 
L 1088.071903 294.019372 
L 1088.304853 293.697952 
L 1088.537803 294.556202 
L 1089.003702 297.961421 
L 1089.469602 303.128265 
L 1090.168452 311.529973 
L 1090.401402 313.082467 
L 1090.634352 313.457761 
L 1090.867302 312.981565 
L 1091.100252 311.458871 
L 1091.566152 305.843747 
L 1092.032051 297.392122 
L 1093.429751 262.056411 
L 1094.128601 238.024903 
L 1096.22515 154.663846 
L 1096.924 138.092613 
L 1097.3899 131.902008 
L 1097.8558 129.409913 
L 1098.08875 129.689488 
L 1098.554649 131.46772 
L 1099.020549 134.367671 
L 1099.719399 142.042253 
L 1100.185299 151.063923 
L 1100.884149 171.851163 
L 1101.815948 213.448915 
L 1102.514798 239.207129 
L 1102.980698 249.964583 
L 1103.446598 255.224783 
L 1103.679548 256.260367 
L 1103.912498 256.356678 
L 1104.145448 255.934306 
L 1104.611347 254.137174 
L 1105.310197 248.140252 
L 1105.776097 243.27349 
L 1107.406747 224.329913 
L 1108.571496 212.958604 
L 1108.804446 211.736065 
L 1109.037396 211.110056 
L 1109.270346 211.195168 
L 1109.503296 212.085501 
L 1109.969196 215.139753 
L 1111.366895 230.561499 
L 1112.298695 241.111151 
L 1113.230495 250.2186 
L 1113.696395 252.775709 
L 1113.929344 253.516838 
L 1114.162294 253.661717 
L 1114.395244 253.165431 
L 1114.628194 251.800864 
L 1115.327044 244.451708 
L 1116.025894 233.876073 
L 1118.355393 196.408558 
L 1118.821293 192.467026 
L 1119.287193 190.429595 
L 1119.520143 190.36249 
L 1119.986042 191.134482 
L 1120.218992 191.872855 
L 1120.917842 195.697614 
L 1121.616692 202.082587 
L 1123.014392 218.714083 
L 1123.247341 218.791461 
L 1123.480291 218.358161 
L 1123.713241 217.358851 
L 1124.179141 213.609639 
L 1124.645041 207.740069 
L 1125.343891 195.654108 
L 1126.27569 175.242921 
L 1128.13929 132.304664 
L 1128.83814 119.902254 
L 1129.304039 114.331107 
L 1129.536989 112.852972 
L 1129.769939 112.564359 
L 1130.002889 112.777301 
L 1130.934689 114.730482 
L 1131.866489 117.801578 
L 1132.565338 120.021371 
L 1132.798288 120.654022 
L 1133.264188 120.709609 
L 1133.497138 121.243288 
L 1133.963038 123.363959 
L 1134.661888 128.165714 
L 1134.894838 128.848866 
L 1135.127788 128.92081 
L 1135.360738 128.306678 
L 1135.826637 124.383649 
L 1136.758437 113.928316 
L 1137.457287 109.18288 
L 1137.690237 108.864295 
L 1137.923187 108.81 
L 1138.389087 109.853438 
L 1139.087936 112.672068 
L 1139.553836 115.550464 
L 1140.485636 125.020116 
L 1141.184486 133.992714 
L 1141.883335 146.834931 
L 1142.582185 162.555612 
L 1143.979885 202.264675 
L 1145.610534 244.802792 
L 1146.775284 267.193011 
L 1147.474134 276.33091 
L 1147.940033 280.620711 
L 1148.405933 282.415097 
L 1148.638883 282.879437 
L 1148.871833 282.964397 
L 1149.104783 282.759109 
L 1149.803633 280.675242 
L 1150.502483 278.243196 
L 1150.735433 277.415466 
L 1150.968383 275.547956 
L 1151.434282 267.959008 
L 1152.599032 243.110328 
L 1154.229681 214.787001 
L 1154.695581 212.13032 
L 1154.928531 211.82192 
L 1155.161481 212.281322 
L 1155.394431 213.541724 
L 1156.093281 220.172364 
L 1156.792131 228.383898 
L 1157.72393 242.495785 
L 1158.18983 252.30769 
L 1160.28638 302.852182 
L 1160.752279 309.805084 
L 1160.985229 310.814149 
L 1161.218179 310.299543 
L 1161.451129 308.422471 
L 1162.615879 292.789106 
L 1163.780628 277.158755 
L 1164.246528 271.683334 
L 1164.712428 269.773804 
L 1164.945378 269.818123 
L 1165.411278 271.639386 
L 1165.877178 274.118305 
L 1166.343078 278.054536 
L 1167.041927 286.764215 
L 1169.138477 317.716169 
L 1170.769126 331.717492 
L 1171.467976 344.765194 
L 1172.166826 356.926684 
L 1173.098625 368.471819 
L 1174.030425 376.897401 
L 1174.729275 381.527533 
L 1175.428125 384.40713 
L 1175.894024 384.116828 
L 1176.126974 384.275671 
L 1176.592874 385.377909 
L 1177.058774 387.383872 
L 1177.524674 390.432484 
L 1178.689424 400.708672 
L 1179.621223 407.915354 
L 1180.087123 410.608084 
L 1180.553023 412.392258 
L 1180.785973 412.901638 
L 1181.251873 413.224143 
L 1181.717773 413.501388 
L 1182.416622 415.705866 
L 1182.882522 417.280053 
L 1183.348422 418.082305 
L 1184.047272 418.919388 
L 1184.280222 419.559159 
L 1184.513172 419.360224 
L 1184.746122 418.827662 
L 1185.212021 416.675912 
L 1185.677921 414.148736 
L 1186.143821 410.656727 
L 1187.774471 396.081921 
L 1188.240371 394.548998 
L 1189.40512 387.682481 
L 1190.33692 382.841694 
L 1191.501669 374.991646 
L 1191.734619 373.991649 
L 1191.967569 374.149686 
L 1192.433469 372.050679 
L 1193.365269 367.44091 
L 1194.064119 364.356008 
L 1194.762968 359.416548 
L 1195.228868 355.74547 
L 1195.461818 600.21 
L 1195.461818 600.21 
" style="fill:none;stroke:#1f77b4;stroke-linecap:square;stroke-width:1.5;"/>
   </g>
   <g id="patch_3">
    <path d="M 172.8 624.78 
L 172.8 84.24 
" style="fill:none;stroke:#000000;stroke-linecap:square;stroke-linejoin:miter;stroke-width:0.8;"/>
   </g>
   <g id="patch_4">
    <path d="M 1244.16 624.78 
L 1244.16 84.24 
" style="fill:none;stroke:#000000;stroke-linecap:square;stroke-linejoin:miter;stroke-width:0.8;"/>
   </g>
   <g id="patch_5">
    <path d="M 172.8 624.78 
L 1244.16 624.78 
" style="fill:none;stroke:#000000;stroke-linecap:square;stroke-linejoin:miter;stroke-width:0.8;"/>
   </g>
   <g id="patch_6">
    <path d="M 172.8 84.24 
L 1244.16 84.24 
" style="fill:none;stroke:#000000;stroke-linecap:square;stroke-linejoin:miter;stroke-width:0.8;"/>
   </g>
  </g>
 </g>
 <defs>
  <clipPath id="p799d7e944a">
   <rect height="540.54" width="1071.36" x="172.8" y="84.24"/>
  </clipPath>
 </defs>
</svg>
