<?xml version="1.0" encoding="utf-8" standalone="no"?>
<!DOCTYPE svg PUBLIC "-//W3C//DTD SVG 1.1//EN"
  "http://www.w3.org/Graphics/SVG/1.1/DTD/svg11.dtd">
<svg height="546.48pt" version="1.1" viewBox="0 0 1105.92 546.48" width="1105.92pt" xmlns="http://www.w3.org/2000/svg" xmlns:xlink="http://www.w3.org/1999/xlink">
 <metadata>
  <rdf:RDF xmlns:cc="http://creativecommons.org/ns#" xmlns:dc="http://purl.org/dc/elements/1.1/" xmlns:rdf="http://www.w3.org/1999/02/22-rdf-syntax-ns#">
   <cc:Work>
    <dc:type rdf:resource="http://purl.org/dc/dcmitype/StillImage"/>
    <dc:date>2022-10-26T17:54:26.603720</dc:date>
    <dc:format>image/svg+xml</dc:format>
    <dc:creator>
     <cc:Agent>
      <dc:title>Matplotlib v3.4.2, https://matplotlib.org/</dc:title>
     </cc:Agent>
    </dc:creator>
   </cc:Work>
  </rdf:RDF>
 </metadata>
 <defs>
  <style type="text/css">*{stroke-linecap:butt;stroke-linejoin:round;}</style>
 </defs>
 <g id="figure_1">
  <g id="patch_1">
   <path d="M 0 546.48 
L 1105.92 546.48 
L 1105.92 0 
L 0 0 
z
" style="fill:#ffffff;"/>
  </g>
  <g id="axes_1">
   <g id="patch_2">
    <path d="M 57.832 518.312 
L 1095.12 518.312 
L 1095.12 10.8 
L 57.832 10.8 
z
" style="fill:#ffffff;"/>
   </g>
   <g id="matplotlib.axis_1">
    <g id="xtick_1">
     <g id="line2d_1">
      <defs>
       <path d="M 0 0 
L 0 3.5 
" id="ma0fc0b9129" style="stroke:#000000;stroke-width:0.8;"/>
      </defs>
      <g>
       <use style="stroke:#000000;stroke-width:0.8;" x="104.981455" xlink:href="#ma0fc0b9129" y="518.312"/>
      </g>
     </g>
     <g id="text_1">
      <!-- 0 -->
      <g transform="translate(101.800205 532.910438)scale(0.1 -0.1)">
       <defs>
        <path d="M 2034 4250 
Q 1547 4250 1301 3770 
Q 1056 3291 1056 2328 
Q 1056 1369 1301 889 
Q 1547 409 2034 409 
Q 2525 409 2770 889 
Q 3016 1369 3016 2328 
Q 3016 3291 2770 3770 
Q 2525 4250 2034 4250 
z
M 2034 4750 
Q 2819 4750 3233 4129 
Q 3647 3509 3647 2328 
Q 3647 1150 3233 529 
Q 2819 -91 2034 -91 
Q 1250 -91 836 529 
Q 422 1150 422 2328 
Q 422 3509 836 4129 
Q 1250 4750 2034 4750 
z
" id="DejaVuSans-30" transform="scale(0.015625)"/>
       </defs>
       <use xlink:href="#DejaVuSans-30"/>
      </g>
     </g>
    </g>
    <g id="xtick_2">
     <g id="line2d_2">
      <g>
       <use style="stroke:#000000;stroke-width:0.8;" x="246.997884" xlink:href="#ma0fc0b9129" y="518.312"/>
      </g>
     </g>
     <g id="text_2">
      <!-- 200 -->
      <g transform="translate(237.454134 532.910438)scale(0.1 -0.1)">
       <defs>
        <path d="M 1228 531 
L 3431 531 
L 3431 0 
L 469 0 
L 469 531 
Q 828 903 1448 1529 
Q 2069 2156 2228 2338 
Q 2531 2678 2651 2914 
Q 2772 3150 2772 3378 
Q 2772 3750 2511 3984 
Q 2250 4219 1831 4219 
Q 1534 4219 1204 4116 
Q 875 4013 500 3803 
L 500 4441 
Q 881 4594 1212 4672 
Q 1544 4750 1819 4750 
Q 2544 4750 2975 4387 
Q 3406 4025 3406 3419 
Q 3406 3131 3298 2873 
Q 3191 2616 2906 2266 
Q 2828 2175 2409 1742 
Q 1991 1309 1228 531 
z
" id="DejaVuSans-32" transform="scale(0.015625)"/>
       </defs>
       <use xlink:href="#DejaVuSans-32"/>
       <use x="63.623047" xlink:href="#DejaVuSans-30"/>
       <use x="127.246094" xlink:href="#DejaVuSans-30"/>
      </g>
     </g>
    </g>
    <g id="xtick_3">
     <g id="line2d_3">
      <g>
       <use style="stroke:#000000;stroke-width:0.8;" x="389.014313" xlink:href="#ma0fc0b9129" y="518.312"/>
      </g>
     </g>
     <g id="text_3">
      <!-- 400 -->
      <g transform="translate(379.470563 532.910438)scale(0.1 -0.1)">
       <defs>
        <path d="M 2419 4116 
L 825 1625 
L 2419 1625 
L 2419 4116 
z
M 2253 4666 
L 3047 4666 
L 3047 1625 
L 3713 1625 
L 3713 1100 
L 3047 1100 
L 3047 0 
L 2419 0 
L 2419 1100 
L 313 1100 
L 313 1709 
L 2253 4666 
z
" id="DejaVuSans-34" transform="scale(0.015625)"/>
       </defs>
       <use xlink:href="#DejaVuSans-34"/>
       <use x="63.623047" xlink:href="#DejaVuSans-30"/>
       <use x="127.246094" xlink:href="#DejaVuSans-30"/>
      </g>
     </g>
    </g>
    <g id="xtick_4">
     <g id="line2d_4">
      <g>
       <use style="stroke:#000000;stroke-width:0.8;" x="531.030743" xlink:href="#ma0fc0b9129" y="518.312"/>
      </g>
     </g>
     <g id="text_4">
      <!-- 600 -->
      <g transform="translate(521.486993 532.910438)scale(0.1 -0.1)">
       <defs>
        <path d="M 2113 2584 
Q 1688 2584 1439 2293 
Q 1191 2003 1191 1497 
Q 1191 994 1439 701 
Q 1688 409 2113 409 
Q 2538 409 2786 701 
Q 3034 994 3034 1497 
Q 3034 2003 2786 2293 
Q 2538 2584 2113 2584 
z
M 3366 4563 
L 3366 3988 
Q 3128 4100 2886 4159 
Q 2644 4219 2406 4219 
Q 1781 4219 1451 3797 
Q 1122 3375 1075 2522 
Q 1259 2794 1537 2939 
Q 1816 3084 2150 3084 
Q 2853 3084 3261 2657 
Q 3669 2231 3669 1497 
Q 3669 778 3244 343 
Q 2819 -91 2113 -91 
Q 1303 -91 875 529 
Q 447 1150 447 2328 
Q 447 3434 972 4092 
Q 1497 4750 2381 4750 
Q 2619 4750 2861 4703 
Q 3103 4656 3366 4563 
z
" id="DejaVuSans-36" transform="scale(0.015625)"/>
       </defs>
       <use xlink:href="#DejaVuSans-36"/>
       <use x="63.623047" xlink:href="#DejaVuSans-30"/>
       <use x="127.246094" xlink:href="#DejaVuSans-30"/>
      </g>
     </g>
    </g>
    <g id="xtick_5">
     <g id="line2d_5">
      <g>
       <use style="stroke:#000000;stroke-width:0.8;" x="673.047172" xlink:href="#ma0fc0b9129" y="518.312"/>
      </g>
     </g>
     <g id="text_5">
      <!-- 800 -->
      <g transform="translate(663.503422 532.910438)scale(0.1 -0.1)">
       <defs>
        <path d="M 2034 2216 
Q 1584 2216 1326 1975 
Q 1069 1734 1069 1313 
Q 1069 891 1326 650 
Q 1584 409 2034 409 
Q 2484 409 2743 651 
Q 3003 894 3003 1313 
Q 3003 1734 2745 1975 
Q 2488 2216 2034 2216 
z
M 1403 2484 
Q 997 2584 770 2862 
Q 544 3141 544 3541 
Q 544 4100 942 4425 
Q 1341 4750 2034 4750 
Q 2731 4750 3128 4425 
Q 3525 4100 3525 3541 
Q 3525 3141 3298 2862 
Q 3072 2584 2669 2484 
Q 3125 2378 3379 2068 
Q 3634 1759 3634 1313 
Q 3634 634 3220 271 
Q 2806 -91 2034 -91 
Q 1263 -91 848 271 
Q 434 634 434 1313 
Q 434 1759 690 2068 
Q 947 2378 1403 2484 
z
M 1172 3481 
Q 1172 3119 1398 2916 
Q 1625 2713 2034 2713 
Q 2441 2713 2670 2916 
Q 2900 3119 2900 3481 
Q 2900 3844 2670 4047 
Q 2441 4250 2034 4250 
Q 1625 4250 1398 4047 
Q 1172 3844 1172 3481 
z
" id="DejaVuSans-38" transform="scale(0.015625)"/>
       </defs>
       <use xlink:href="#DejaVuSans-38"/>
       <use x="63.623047" xlink:href="#DejaVuSans-30"/>
       <use x="127.246094" xlink:href="#DejaVuSans-30"/>
      </g>
     </g>
    </g>
    <g id="xtick_6">
     <g id="line2d_6">
      <g>
       <use style="stroke:#000000;stroke-width:0.8;" x="815.063601" xlink:href="#ma0fc0b9129" y="518.312"/>
      </g>
     </g>
     <g id="text_6">
      <!-- 1000 -->
      <g transform="translate(802.338601 532.910438)scale(0.1 -0.1)">
       <defs>
        <path d="M 794 531 
L 1825 531 
L 1825 4091 
L 703 3866 
L 703 4441 
L 1819 4666 
L 2450 4666 
L 2450 531 
L 3481 531 
L 3481 0 
L 794 0 
L 794 531 
z
" id="DejaVuSans-31" transform="scale(0.015625)"/>
       </defs>
       <use xlink:href="#DejaVuSans-31"/>
       <use x="63.623047" xlink:href="#DejaVuSans-30"/>
       <use x="127.246094" xlink:href="#DejaVuSans-30"/>
       <use x="190.869141" xlink:href="#DejaVuSans-30"/>
      </g>
     </g>
    </g>
    <g id="xtick_7">
     <g id="line2d_7">
      <g>
       <use style="stroke:#000000;stroke-width:0.8;" x="957.080031" xlink:href="#ma0fc0b9129" y="518.312"/>
      </g>
     </g>
     <g id="text_7">
      <!-- 1200 -->
      <g transform="translate(944.355031 532.910438)scale(0.1 -0.1)">
       <use xlink:href="#DejaVuSans-31"/>
       <use x="63.623047" xlink:href="#DejaVuSans-32"/>
       <use x="127.246094" xlink:href="#DejaVuSans-30"/>
       <use x="190.869141" xlink:href="#DejaVuSans-30"/>
      </g>
     </g>
    </g>
   </g>
   <g id="matplotlib.axis_2">
    <g id="ytick_1">
     <g id="line2d_8">
      <defs>
       <path d="M 0 0 
L -3.5 0 
" id="m2b578db235" style="stroke:#000000;stroke-width:0.8;"/>
      </defs>
      <g>
       <use style="stroke:#000000;stroke-width:0.8;" x="57.832" xlink:href="#m2b578db235" y="462.377217"/>
      </g>
     </g>
     <g id="text_8">
      <!-- −20000 -->
      <g transform="translate(10.639812 466.176436)scale(0.1 -0.1)">
       <defs>
        <path d="M 678 2272 
L 4684 2272 
L 4684 1741 
L 678 1741 
L 678 2272 
z
" id="DejaVuSans-2212" transform="scale(0.015625)"/>
       </defs>
       <use xlink:href="#DejaVuSans-2212"/>
       <use x="83.789062" xlink:href="#DejaVuSans-32"/>
       <use x="147.412109" xlink:href="#DejaVuSans-30"/>
       <use x="211.035156" xlink:href="#DejaVuSans-30"/>
       <use x="274.658203" xlink:href="#DejaVuSans-30"/>
       <use x="338.28125" xlink:href="#DejaVuSans-30"/>
      </g>
     </g>
    </g>
    <g id="ytick_2">
     <g id="line2d_9">
      <g>
       <use style="stroke:#000000;stroke-width:0.8;" x="57.832" xlink:href="#m2b578db235" y="356.887068"/>
      </g>
     </g>
     <g id="text_9">
      <!-- −10000 -->
      <g transform="translate(10.639812 360.686287)scale(0.1 -0.1)">
       <use xlink:href="#DejaVuSans-2212"/>
       <use x="83.789062" xlink:href="#DejaVuSans-31"/>
       <use x="147.412109" xlink:href="#DejaVuSans-30"/>
       <use x="211.035156" xlink:href="#DejaVuSans-30"/>
       <use x="274.658203" xlink:href="#DejaVuSans-30"/>
       <use x="338.28125" xlink:href="#DejaVuSans-30"/>
      </g>
     </g>
    </g>
    <g id="ytick_3">
     <g id="line2d_10">
      <g>
       <use style="stroke:#000000;stroke-width:0.8;" x="57.832" xlink:href="#m2b578db235" y="251.396919"/>
      </g>
     </g>
     <g id="text_10">
      <!-- 0 -->
      <g transform="translate(44.4695 255.196137)scale(0.1 -0.1)">
       <use xlink:href="#DejaVuSans-30"/>
      </g>
     </g>
    </g>
    <g id="ytick_4">
     <g id="line2d_11">
      <g>
       <use style="stroke:#000000;stroke-width:0.8;" x="57.832" xlink:href="#m2b578db235" y="145.906769"/>
      </g>
     </g>
     <g id="text_11">
      <!-- 10000 -->
      <g transform="translate(19.0195 149.705988)scale(0.1 -0.1)">
       <use xlink:href="#DejaVuSans-31"/>
       <use x="63.623047" xlink:href="#DejaVuSans-30"/>
       <use x="127.246094" xlink:href="#DejaVuSans-30"/>
       <use x="190.869141" xlink:href="#DejaVuSans-30"/>
       <use x="254.492188" xlink:href="#DejaVuSans-30"/>
      </g>
     </g>
    </g>
    <g id="ytick_5">
     <g id="line2d_12">
      <g>
       <use style="stroke:#000000;stroke-width:0.8;" x="57.832" xlink:href="#m2b578db235" y="40.41662"/>
      </g>
     </g>
     <g id="text_12">
      <!-- 20000 -->
      <g transform="translate(19.0195 44.215839)scale(0.1 -0.1)">
       <use xlink:href="#DejaVuSans-32"/>
       <use x="63.623047" xlink:href="#DejaVuSans-30"/>
       <use x="127.246094" xlink:href="#DejaVuSans-30"/>
       <use x="190.869141" xlink:href="#DejaVuSans-30"/>
       <use x="254.492188" xlink:href="#DejaVuSans-30"/>
      </g>
     </g>
    </g>
   </g>
   <g id="line2d_13">
    <path clip-path="url(#pc0c313d4cf)" d="M 104.981455 435.418624 
L 105.691537 437.050403 
L 106.401619 439.306422 
L 107.111701 450.615108 
L 107.821783 450.88939 
L 108.531865 432.477595 
L 109.241947 426.220138 
L 109.95203 428.950412 
L 110.662112 435.957951 
L 111.372194 438.992868 
L 112.082276 447.105076 
L 113.50244 459.543542 
L 114.212522 442.684542 
L 114.922605 437.663887 
L 117.052851 420.041443 
L 117.762933 420.7769 
L 118.473015 422.973344 
L 119.183097 423.654451 
L 119.89318 431.953315 
L 120.603262 400.58149 
L 121.313344 391.942699 
L 122.023426 366.083262 
L 122.733508 349.441538 
L 123.44359 344.517026 
L 124.153673 328.589685 
L 124.863755 295.352285 
L 126.283919 257.651449 
L 126.994001 256.06714 
L 127.704083 273.277459 
L 128.414165 282.936388 
L 129.124248 285.482118 
L 129.83433 250.219371 
L 130.544412 222.055344 
L 131.254494 219.763693 
L 131.964576 221.894377 
L 132.674658 236.197119 
L 133.38474 240.480434 
L 134.094823 254.077183 
L 134.804905 260.964572 
L 135.514987 229.52939 
L 136.225069 208.578798 
L 136.935151 180.522113 
L 137.645233 174.940341 
L 138.355315 173.564885 
L 139.77548 106.166844 
L 140.485562 87.686486 
L 141.195644 84.372339 
L 141.905726 70.112228 
L 142.615808 72.293531 
L 144.746055 275.094629 
L 145.456137 300.259342 
L 147.586383 436.43486 
L 148.296465 442.438217 
L 149.006548 444.636249 
L 149.71663 440.651729 
L 151.136794 374.480654 
L 151.846876 367.222375 
L 152.556958 311.084191 
L 153.267041 297.250209 
L 154.687205 166.666632 
L 155.397287 129.157365 
L 156.107369 128.617287 
L 156.817451 138.035424 
L 157.527533 133.343696 
L 158.237616 135.592792 
L 158.947698 140.987517 
L 159.65778 110.439112 
L 160.367862 108.136535 
L 161.077944 140.945246 
L 161.788026 194.119693 
L 163.208191 203.859996 
L 164.628355 228.496943 
L 165.338437 220.821617 
L 166.048519 217.912704 
L 166.758601 196.64059 
L 167.468683 180.355396 
L 168.178766 186.209227 
L 168.888848 182.518584 
L 170.309012 121.422775 
L 171.019094 102.342243 
L 171.729176 93.104853 
L 172.439258 72.272135 
L 173.149341 86.29154 
L 173.859423 168.750949 
L 174.569505 231.749296 
L 175.279587 272.764819 
L 175.989669 291.910328 
L 176.699751 350.7264 
L 178.119916 443.488172 
L 178.829998 447.310967 
L 179.54008 448.118474 
L 180.250162 435.779498 
L 181.670326 383.067373 
L 182.380409 363.884744 
L 183.090491 307.921601 
L 183.800573 299.598853 
L 184.510655 263.609773 
L 185.220737 184.296575 
L 185.930819 135.219417 
L 186.640901 121.485943 
L 187.350984 123.181494 
L 189.48123 145.630628 
L 190.191312 117.789205 
L 190.901394 61.922119 
L 191.611476 81.483697 
L 192.321559 130.621598 
L 193.031641 161.678223 
L 193.741723 164.727234 
L 194.451805 185.656428 
L 195.161887 175.247576 
L 195.871969 191.323947 
L 196.582051 164.795261 
L 197.292134 144.08337 
L 198.002216 156.591518 
L 198.712298 162.652493 
L 200.132462 117.524375 
L 200.842544 111.67041 
L 201.552627 96.476154 
L 202.262709 71.402907 
L 202.972791 69.222402 
L 203.682873 145.52096 
L 204.392955 207.927078 
L 205.103037 250.636409 
L 205.813119 281.058381 
L 207.233284 397.219521 
L 207.943366 449.180267 
L 208.653448 453.691975 
L 209.36353 451.482591 
L 210.073612 414.78111 
L 210.783694 395.533673 
L 211.493777 393.528789 
L 212.203859 356.85581 
L 213.624023 314.176339 
L 214.334105 244.861701 
L 215.044187 188.915287 
L 215.754269 158.662199 
L 216.464352 149.351387 
L 217.174434 158.539618 
L 217.884516 160.003377 
L 218.594598 135.586192 
L 219.30468 126.087662 
L 220.014762 59.870056 
L 220.724844 67.527285 
L 221.434927 102.192043 
L 222.145009 120.382954 
L 222.855091 128.629172 
L 223.565173 130.036254 
L 224.275255 151.099938 
L 224.985337 154.051343 
L 225.695419 179.897365 
L 226.405502 154.389647 
L 227.115584 146.114282 
L 227.825666 165.316977 
L 228.535748 179.676186 
L 229.24583 166.946062 
L 229.955912 149.88844 
L 230.665995 142.002093 
L 231.376077 107.454944 
L 232.086159 86.245647 
L 232.796241 125.958292 
L 234.216405 261.229203 
L 235.63657 299.745977 
L 237.056734 405.676863 
L 237.766816 425.165308 
L 238.476898 439.140554 
L 239.897062 397.385012 
L 240.607145 386.406792 
L 241.317227 380.729997 
L 242.027309 356.516674 
L 242.737391 365.640397 
L 243.447473 370.652014 
L 244.867637 284.033457 
L 245.57772 281.209086 
L 246.287802 309.898356 
L 246.997884 322.478374 
L 247.707966 302.122585 
L 248.418048 290.690093 
L 249.12813 287.792434 
L 249.838212 290.731413 
L 250.548295 297.418704 
L 251.258377 291.738537 
L 251.968459 295.375382 
L 252.678541 291.17559 
L 253.388623 285.024964 
L 255.51887 316.421298 
L 256.939034 344.424052 
L 257.649116 372.252201 
L 259.06928 404.458784 
L 259.779363 412.75209 
L 260.489445 443.52471 
L 261.199527 448.192593 
L 261.909609 449.546153 
L 262.619691 451.368987 
L 264.039855 456.486436 
L 264.749938 458.219414 
L 265.46002 463.240104 
L 266.170102 462.418383 
L 266.880184 463.122773 
L 267.590266 463.446168 
L 268.300348 462.867683 
L 269.01043 460.853821 
L 269.720513 458.358224 
L 271.140677 454.785099 
L 271.850759 450.596001 
L 272.560841 444.084835 
L 273.270923 445.833977 
L 273.981005 450.941434 
L 274.691088 457.870937 
L 275.40117 455.77274 
L 276.111252 453.056668 
L 277.531416 446.387423 
L 278.241498 445.093397 
L 278.951581 447.624222 
L 279.661663 452.214323 
L 280.371745 458.292363 
L 281.081827 465.409227 
L 281.791909 463.394435 
L 282.501991 461.897227 
L 283.212073 457.899332 
L 283.922156 456.517649 
L 284.632238 449.789544 
L 285.34232 448.847131 
L 286.052402 448.784321 
L 286.762484 444.600665 
L 287.472566 442.304708 
L 288.182648 442.822348 
L 288.892731 444.457498 
L 289.602813 443.554763 
L 290.312895 444.355588 
L 291.733059 450.16829 
L 292.443141 449.781853 
L 293.863306 446.010471 
L 294.573388 442.834571 
L 295.28347 442.587362 
L 295.993552 445.824266 
L 296.703634 453.110133 
L 297.413716 452.369533 
L 298.123798 453.586251 
L 299.543963 454.326722 
L 300.254045 455.649374 
L 302.384291 463.027686 
L 303.094373 463.341191 
L 304.514538 470.893771 
L 305.22462 470.88982 
L 305.934702 469.758196 
L 306.644784 467.700685 
L 307.354866 467.99574 
L 308.064949 467.004338 
L 308.775031 468.225731 
L 309.485113 468.562723 
L 310.195195 469.040574 
L 310.905277 469.824299 
L 311.615359 468.764114 
L 312.325441 470.812244 
L 313.035524 471.434511 
L 313.745606 471.017236 
L 314.455688 470.807017 
L 315.875852 469.741662 
L 317.296016 467.308345 
L 318.006099 466.725799 
L 318.716181 467.085064 
L 319.426263 467.117865 
L 320.136345 466.263406 
L 320.846427 466.392063 
L 321.556509 466.661953 
L 322.976674 465.711296 
L 323.686756 465.721125 
L 324.396838 466.054032 
L 325.10692 467.027903 
L 325.817002 466.989097 
L 326.527084 467.627752 
L 327.237166 468.858555 
L 327.947249 468.467062 
L 329.367413 459.206341 
L 330.077495 419.238997 
L 330.787577 355.641545 
L 331.497659 305.053092 
L 332.207742 267.445061 
L 332.917824 249.231069 
L 333.627906 228.027416 
L 334.337988 194.40096 
L 335.04807 180.227972 
L 335.758152 150.47585 
L 336.468234 68.907533 
L 337.178317 33.868727 
L 337.888399 74.581228 
L 338.598481 122.316259 
L 339.308563 144.014351 
L 340.018645 150.980741 
L 340.728727 172.25476 
L 341.438809 175.243438 
L 342.148892 168.940437 
L 342.858974 153.569232 
L 343.569056 141.598966 
L 344.98922 186.716254 
L 345.699302 161.942823 
L 346.409384 132.479054 
L 347.119467 122.453402 
L 347.829549 104.008114 
L 348.539631 79.921762 
L 349.249713 95.411201 
L 350.669877 236.303029 
L 351.379959 274.157154 
L 352.090042 295.707734 
L 353.510206 399.217827 
L 354.220288 428.968256 
L 354.93037 435.894753 
L 355.640452 413.415543 
L 356.350535 399.875536 
L 357.060617 372.137349 
L 357.770699 352.58288 
L 358.480781 308.968543 
L 359.190863 302.314306 
L 359.900945 279.64538 
L 360.611027 279.418039 
L 361.32111 259.057494 
L 362.031192 174.922002 
L 362.741274 144.740369 
L 363.451356 147.775611 
L 364.87152 166.412653 
L 365.581602 170.394726 
L 366.291685 170.259587 
L 367.001767 165.752045 
L 367.711849 154.83222 
L 368.421931 172.003781 
L 369.132013 242.040776 
L 369.842095 234.932523 
L 370.552177 191.905113 
L 371.26226 160.549354 
L 371.972342 139.867843 
L 372.682424 151.404345 
L 373.392506 159.843488 
L 374.102588 183.996769 
L 374.81267 165.551353 
L 375.522752 182.102523 
L 376.232835 166.76974 
L 376.942917 161.857768 
L 377.652999 163.960237 
L 378.363081 173.829594 
L 379.073163 167.835532 
L 379.783245 146.498331 
L 380.493327 135.370915 
L 381.20341 116.195133 
L 381.913492 82.418025 
L 382.623574 73.884808 
L 384.043738 190.843978 
L 384.75382 245.205385 
L 385.463903 276.569365 
L 386.884067 375.507024 
L 387.594149 445.91005 
L 388.304231 446.542462 
L 389.014313 444.872196 
L 389.724395 412.384328 
L 391.14456 382.556588 
L 392.564724 336.926686 
L 393.274806 348.149137 
L 393.984888 356.319883 
L 394.69497 302.673115 
L 395.405053 290.624142 
L 396.115135 247.398147 
L 397.535299 177.945597 
L 398.245381 174.086678 
L 398.955463 181.305435 
L 399.665545 174.36554 
L 400.375628 170.937814 
L 401.08571 179.101812 
L 401.795792 175.571605 
L 402.505874 163.369416 
L 403.215956 181.806238 
L 403.926038 236.55985 
L 404.63612 264.074214 
L 405.346203 228.787066 
L 406.056285 170.520101 
L 406.766367 153.095396 
L 407.476449 144.914467 
L 408.186531 146.886603 
L 408.896613 159.863511 
L 409.606696 170.678131 
L 410.316778 165.718625 
L 411.736942 182.939608 
L 412.447024 161.028659 
L 413.157106 159.430708 
L 413.867188 166.047398 
L 414.577271 177.997405 
L 415.997435 126.662621 
L 416.707517 111.951035 
L 418.127681 61.731923 
L 418.837763 100.987174 
L 419.547846 157.210169 
L 420.257928 224.236249 
L 420.96801 247.242001 
L 421.678092 280.828331 
L 423.808338 448.800313 
L 424.518421 451.03729 
L 425.228503 448.882735 
L 425.938585 418.549259 
L 426.648667 408.247612 
L 427.358749 393.508772 
L 428.068831 370.347072 
L 428.778913 361.043047 
L 429.488996 366.374402 
L 430.199078 343.332756 
L 430.90916 341.632211 
L 432.329324 206.792926 
L 433.039406 198.531446 
L 433.749488 192.79154 
L 434.459571 166.936409 
L 435.169653 150.906484 
L 435.879735 145.624101 
L 436.589817 133.391809 
L 437.299899 104.445521 
L 438.009981 93.341356 
L 439.430146 161.677052 
L 440.140228 131.663577 
L 440.85031 133.179719 
L 441.560392 130.366194 
L 442.270474 130.299984 
L 442.980556 136.832742 
L 443.690639 152.686282 
L 444.400721 137.962594 
L 445.110803 171.348264 
L 445.820885 150.4645 
L 446.530967 138.285734 
L 447.241049 161.124607 
L 447.951131 170.665483 
L 448.661214 161.417982 
L 449.371296 138.940363 
L 450.081378 126.510439 
L 451.501542 84.176191 
L 452.211624 107.271485 
L 452.921706 183.313692 
L 453.631789 245.426542 
L 454.341871 271.916004 
L 455.051953 290.691083 
L 455.762035 350.211464 
L 457.182199 452.622724 
L 457.892281 449.758424 
L 459.312446 402.946378 
L 460.022528 369.723779 
L 460.73261 366.487401 
L 461.442692 349.809621 
L 462.152774 359.218833 
L 462.862857 363.409466 
L 463.572939 374.581986 
L 464.283021 378.295951 
L 464.993103 383.672799 
L 466.413267 424.319526 
L 467.123349 458.953085 
L 467.833432 441.322365 
L 469.253596 328.006488 
L 469.963678 266.580034 
L 471.383842 211.941592 
L 472.804007 181.820163 
L 473.514089 176.605056 
L 474.224171 138.361069 
L 474.934253 74.460567 
L 475.644335 68.301954 
L 476.354417 69.808408 
L 477.064499 106.608144 
L 477.774582 106.000301 
L 478.484664 110.14046 
L 479.194746 130.912135 
L 479.904828 130.861387 
L 480.61491 146.480184 
L 481.324992 158.071107 
L 482.035074 147.445236 
L 482.745157 142.227292 
L 484.165321 175.33729 
L 484.875403 171.035073 
L 485.585485 153.223154 
L 487.715732 65.393856 
L 488.425814 86.769874 
L 489.845978 224.964571 
L 490.55606 262.484635 
L 491.266142 277.42775 
L 492.686307 371.085092 
L 493.396389 439.963832 
L 494.106471 440.539861 
L 494.816553 445.148563 
L 495.526635 414.849658 
L 496.236717 405.355227 
L 496.9468 387.445394 
L 497.656882 361.235339 
L 498.366964 346.025901 
L 499.787128 360.490748 
L 501.207292 373.319557 
L 501.917375 349.280668 
L 502.627457 383.679947 
L 503.337539 342.385133 
L 504.047621 294.315284 
L 504.757703 267.283045 
L 505.467785 260.984374 
L 506.177867 239.37771 
L 506.88795 207.137601 
L 507.598032 197.388938 
L 508.308114 191.996186 
L 509.018196 159.664864 
L 509.728278 135.66907 
L 511.148442 169.15308 
L 511.858525 166.290774 
L 512.568607 133.484249 
L 513.278689 136.547469 
L 513.988771 135.444876 
L 514.698853 163.496077 
L 515.408935 160.864087 
L 516.119018 175.825565 
L 516.8291 181.789396 
L 517.539182 161.356478 
L 518.249264 160.925834 
L 518.959346 158.129265 
L 519.669428 168.866834 
L 520.37951 165.98785 
L 521.089593 145.533223 
L 521.799675 131.69348 
L 522.509757 94.070328 
L 523.219839 46.435625 
L 523.929921 72.744306 
L 524.640003 118.49986 
L 525.350085 173.023808 
L 526.060168 215.100709 
L 526.77025 265.043267 
L 527.480332 294.428832 
L 528.190414 367.39435 
L 528.900496 426.536775 
L 529.610578 435.538214 
L 530.32066 433.564346 
L 531.740825 399.115457 
L 532.450907 389.802669 
L 533.160989 361.703556 
L 533.871071 349.318115 
L 534.581153 352.442864 
L 535.291235 364.216636 
L 536.001318 346.867039 
L 536.7114 338.944339 
L 537.421482 323.810712 
L 538.131564 266.710266 
L 538.841646 237.40562 
L 539.551728 215.211742 
L 541.681975 187.394791 
L 542.392057 156.714393 
L 543.102139 163.612141 
L 543.812221 123.081981 
L 544.522303 122.481393 
L 545.232386 142.348877 
L 545.942468 122.630162 
L 546.65255 110.583793 
L 547.362632 101.022608 
L 548.072714 93.726102 
L 548.782796 105.10904 
L 549.492878 118.812299 
L 550.202961 120.170681 
L 550.913043 153.855745 
L 551.623125 153.122756 
L 552.333207 151.374212 
L 553.043289 150.939391 
L 553.753371 163.770948 
L 554.463453 164.466505 
L 555.173536 140.990512 
L 556.5937 110.404335 
L 557.303782 84.361908 
L 558.013864 70.525134 
L 558.723946 141.213937 
L 559.434028 197.446287 
L 560.144111 242.720159 
L 560.854193 256.558741 
L 561.564275 288.980537 
L 562.984439 417.589655 
L 563.694521 436.585991 
L 564.404604 432.123647 
L 565.114686 401.011061 
L 565.824768 391.687028 
L 566.53485 378.063774 
L 567.244932 356.717033 
L 567.955014 316.295729 
L 568.665096 293.581775 
L 569.375179 281.433349 
L 570.085261 280.175734 
L 570.795343 199.155231 
L 571.505425 151.205074 
L 572.215507 144.141491 
L 572.925589 155.153676 
L 573.635671 157.039856 
L 574.345754 164.937844 
L 575.055836 185.425159 
L 575.765918 179.009541 
L 576.476 152.233425 
L 577.186082 160.811173 
L 577.896164 235.946521 
L 578.606246 245.02512 
L 579.316329 211.755363 
L 580.026411 160.557142 
L 580.736493 135.749093 
L 581.446575 137.758636 
L 582.156657 136.405115 
L 582.866739 170.631297 
L 583.576821 156.75577 
L 584.286904 176.268708 
L 584.996986 168.770794 
L 585.707068 156.859548 
L 586.41715 159.3157 
L 587.127232 171.615571 
L 587.837314 174.823372 
L 589.967561 121.444266 
L 590.677643 93.057881 
L 591.387725 84.991662 
L 592.807889 202.071973 
L 593.517972 244.86031 
L 594.228054 267.609691 
L 594.938136 303.181284 
L 595.648218 358.44628 
L 596.3583 428.824995 
L 597.068382 438.115816 
L 597.778464 430.419114 
L 598.488547 429.695334 
L 601.328875 311.811302 
L 602.038957 290.982631 
L 602.749039 263.647917 
L 603.459122 270.350133 
L 604.169204 279.946764 
L 604.879286 291.252471 
L 605.589368 270.874651 
L 606.29945 304.444904 
L 607.009532 291.592725 
L 607.719614 250.690028 
L 608.429697 223.287108 
L 609.139779 214.063888 
L 610.559943 190.385951 
L 611.270025 166.036619 
L 611.980107 159.742049 
L 612.690189 117.969782 
L 613.400272 99.662875 
L 614.110354 112.284259 
L 614.820436 131.982572 
L 615.530518 121.870341 
L 616.2406 117.994797 
L 616.950682 113.184341 
L 617.660765 133.691246 
L 618.370847 142.060053 
L 619.080929 147.170847 
L 620.501093 180.559603 
L 621.211175 160.228518 
L 621.921257 158.174152 
L 622.63134 170.500629 
L 623.341422 178.681038 
L 624.051504 170.697804 
L 625.471668 124.550821 
L 626.891832 70.139379 
L 627.601915 109.322186 
L 629.022079 225.064302 
L 629.732161 246.217046 
L 630.442243 278.270918 
L 631.862407 386.534252 
L 632.57249 446.583472 
L 633.282572 466.34977 
L 634.702736 484.93043 
L 635.412818 489.172117 
L 636.1229 494.546941 
L 636.832982 495.243273 
L 638.253147 487.687009 
L 638.963229 464.552498 
L 639.673311 457.456961 
L 640.383393 442.630441 
L 641.803558 404.430694 
L 642.51364 367.536027 
L 643.223722 347.955853 
L 643.933804 347.236324 
L 644.643886 319.889146 
L 645.353968 321.340593 
L 646.06405 359.337791 
L 646.774133 274.079258 
L 647.484215 226.103507 
L 648.194297 207.58126 
L 648.904379 204.377084 
L 649.614461 224.369278 
L 650.324543 224.346034 
L 651.034625 217.451234 
L 651.744708 217.508915 
L 652.45479 210.800093 
L 653.164872 215.231552 
L 653.874954 286.534327 
L 654.585036 327.038049 
L 655.295118 343.34419 
L 656.0052 348.59873 
L 656.715283 347.260329 
L 657.425365 355.894386 
L 658.845529 365.751976 
L 659.555611 371.906163 
L 660.265693 385.061796 
L 660.975775 390.963062 
L 661.685858 391.799034 
L 662.39594 373.611483 
L 663.106022 381.502651 
L 663.816104 395.399702 
L 664.526186 392.76817 
L 665.236268 392.815507 
L 666.656433 355.011206 
L 667.366515 350.084141 
L 668.076597 335.706738 
L 669.496761 230.405372 
L 670.206843 148.590936 
L 670.916926 105.16918 
L 671.627008 76.568858 
L 672.33709 83.681281 
L 673.047172 81.511127 
L 673.757254 78.102572 
L 674.467336 84.41396 
L 675.177418 89.688873 
L 675.887501 102.299163 
L 677.307665 163.05127 
L 678.727829 241.212491 
L 679.437911 264.254976 
L 680.147993 260.145723 
L 680.858076 257.140587 
L 681.568158 249.6191 
L 682.27824 239.525464 
L 682.988322 225.52685 
L 683.698404 229.215053 
L 684.408486 208.321965 
L 685.118568 172.053656 
L 686.538733 119.352135 
L 687.248815 132.868248 
L 687.958897 141.106889 
L 688.668979 128.941932 
L 690.089143 116.55071 
L 690.799226 76.341365 
L 691.509308 83.025031 
L 692.21939 95.828866 
L 692.929472 93.718683 
L 693.639554 88.56648 
L 694.349636 87.499511 
L 695.059719 107.751901 
L 695.769801 137.759103 
L 696.479883 161.859903 
L 697.189965 145.036468 
L 697.900047 142.380318 
L 698.610129 130.063027 
L 699.320211 120.597827 
L 700.030294 125.283975 
L 700.740376 144.249164 
L 701.450458 131.661658 
L 702.16054 112.013145 
L 702.870622 114.977021 
L 703.580704 115.389172 
L 704.290786 117.375198 
L 705.000869 103.304615 
L 706.421033 117.298638 
L 707.131115 138.485934 
L 707.841197 139.851118 
L 708.551279 169.571189 
L 709.261361 175.1571 
L 709.971444 188.969947 
L 710.681526 227.057153 
L 711.391608 250.525811 
L 712.10169 253.649789 
L 712.811772 255.279257 
L 713.521854 248.418936 
L 714.231936 243.197665 
L 714.942019 218.091525 
L 715.652101 207.374945 
L 716.362183 224.229266 
L 717.072265 210.27964 
L 717.782347 182.443364 
L 718.492429 141.238247 
L 719.202512 117.731999 
L 719.912594 121.19614 
L 720.622676 133.04657 
L 721.332758 130.24786 
L 722.04284 115.550955 
L 722.752922 103.263323 
L 723.463004 80.749013 
L 724.173087 84.647395 
L 724.883169 93.85839 
L 725.593251 99.823566 
L 726.303333 104.435021 
L 727.013415 84.812537 
L 727.723497 125.767412 
L 728.433579 173.901809 
L 729.143662 200.823912 
L 729.853744 201.330151 
L 730.563826 200.444129 
L 731.273908 215.644384 
L 731.98399 202.928915 
L 732.694072 172.394414 
L 733.404154 160.842813 
L 734.114237 159.729975 
L 734.824319 142.9387 
L 735.534401 112.737791 
L 736.244483 106.699942 
L 736.954565 107.411526 
L 737.664647 98.336093 
L 738.374729 84.199473 
L 739.084812 86.086255 
L 739.794894 102.459641 
L 740.504976 111.11577 
L 741.215058 149.11542 
L 741.92514 157.121871 
L 742.635222 210.513578 
L 743.345304 248.734547 
L 744.055387 250.194055 
L 744.765469 251.304847 
L 745.475551 247.399969 
L 746.185633 237.068333 
L 747.605797 198.455631 
L 748.31588 201.035209 
L 749.025962 199.303646 
L 749.736044 165.366167 
L 750.446126 138.301462 
L 751.156208 117.440408 
L 751.86629 140.881625 
L 752.576372 144.66803 
L 753.286455 135.35333 
L 753.996537 128.615099 
L 754.706619 136.194249 
L 755.416701 102.252159 
L 756.126783 94.722588 
L 756.836865 108.652026 
L 757.546947 109.782654 
L 758.25703 112.597789 
L 758.967112 100.659596 
L 759.677194 113.735218 
L 760.387276 150.224037 
L 761.097358 196.109865 
L 761.80744 188.300131 
L 762.517522 161.543235 
L 763.227605 142.59282 
L 763.937687 144.947241 
L 764.647769 122.326098 
L 765.357851 104.577085 
L 766.067933 106.883816 
L 766.778015 112.223728 
L 767.488097 105.908485 
L 768.19818 93.935929 
L 768.908262 86.494698 
L 769.618344 88.254499 
L 770.328426 88.663288 
L 771.038508 74.53224 
L 772.458673 118.899389 
L 773.168755 184.918767 
L 773.878837 172.592086 
L 774.588919 175.480498 
L 775.299001 211.109536 
L 776.009083 257.82896 
L 776.719165 266.792002 
L 777.429248 266.835318 
L 778.13933 252.072477 
L 778.849412 242.10688 
L 779.559494 215.234999 
L 780.269576 210.504469 
L 780.979658 219.913079 
L 781.68974 221.831347 
L 782.399823 183.825087 
L 783.109905 155.689038 
L 783.819987 143.956146 
L 784.530069 128.702532 
L 785.240151 139.468844 
L 785.950233 161.648535 
L 786.660315 158.474418 
L 787.370398 141.570107 
L 788.08048 111.048541 
L 788.790562 93.725763 
L 789.500644 104.20785 
L 790.210726 111.034327 
L 790.920808 115.262134 
L 791.63089 115.892226 
L 792.340973 111.742133 
L 793.051055 106.892036 
L 793.761137 126.66584 
L 794.471219 167.209808 
L 795.181301 194.057048 
L 795.891383 173.999087 
L 796.601465 177.672028 
L 797.311548 176.544583 
L 798.731712 130.666135 
L 799.441794 116.980031 
L 800.151876 124.496406 
L 800.861958 123.636374 
L 802.282123 102.619526 
L 802.992205 110.103224 
L 803.702287 111.350575 
L 804.412369 97.761588 
L 805.122451 108.999414 
L 805.832533 135.287491 
L 806.542616 172.534379 
L 807.252698 172.885064 
L 807.96278 179.074696 
L 808.672862 217.569099 
L 809.382944 267.751675 
L 810.093026 267.560556 
L 810.803108 263.872225 
L 812.223273 241.85257 
L 812.933355 218.832229 
L 813.643437 213.863877 
L 814.353519 226.334075 
L 815.063601 220.11755 
L 816.483766 145.665817 
L 817.90393 107.986589 
L 818.614012 142.684776 
L 819.324094 153.818615 
L 820.034176 136.602263 
L 820.744258 124.93775 
L 821.454341 85.715202 
L 822.164423 74.111145 
L 822.874505 89.802336 
L 823.584587 94.680254 
L 824.294669 96.550931 
L 825.004751 102.13735 
L 825.714834 81.404394 
L 826.424916 108.315234 
L 827.134998 154.031979 
L 827.84508 179.180693 
L 828.555162 173.321772 
L 829.265244 147.928169 
L 829.975326 146.580847 
L 831.395491 154.849647 
L 832.105573 162.4432 
L 832.815655 174.01352 
L 833.525737 177.943335 
L 834.235819 166.90206 
L 834.945901 122.310773 
L 835.655984 117.56454 
L 836.366066 150.039861 
L 837.076148 149.751733 
L 837.78623 117.021358 
L 838.496312 92.87491 
L 839.206394 88.04949 
L 839.916476 82.40757 
L 840.626559 86.795709 
L 841.336641 84.880253 
L 842.046723 126.283394 
L 842.756805 151.705908 
L 843.466887 202.299367 
L 844.176969 196.659822 
L 844.887051 225.88797 
L 845.597134 260.474259 
L 846.307216 268.888813 
L 847.017298 274.460185 
L 848.437462 261.81812 
L 849.147544 261.053298 
L 849.857627 250.144886 
L 850.567709 237.022755 
L 851.277791 242.106675 
L 851.987873 254.001343 
L 852.697955 211.354244 
L 853.408037 180.866326 
L 854.118119 156.924978 
L 854.828202 144.354063 
L 855.538284 120.164337 
L 856.248366 144.000688 
L 856.958448 162.612721 
L 857.66853 155.511927 
L 859.088694 91.287364 
L 859.798777 100.843577 
L 860.508859 112.195175 
L 861.218941 114.598625 
L 861.929023 111.744928 
L 863.349187 103.708756 
L 864.059269 110.04349 
L 864.769352 141.335034 
L 865.479434 206.158422 
L 866.189516 221.447532 
L 866.899598 189.537172 
L 867.60968 166.695153 
L 868.319762 157.75547 
L 869.739927 108.021445 
L 870.450009 107.202058 
L 871.160091 99.762781 
L 871.870173 126.533364 
L 872.580255 121.297025 
L 874.710502 160.548568 
L 875.420584 155.238998 
L 876.130666 159.023172 
L 876.840748 166.049983 
L 877.55083 185.058345 
L 878.260912 187.157777 
L 878.970995 185.503408 
L 879.681077 230.114207 
L 880.391159 246.94497 
L 881.101241 270.983504 
L 881.811323 276.193945 
L 882.521405 286.886808 
L 883.231487 287.718934 
L 883.94157 290.28441 
L 884.651652 283.363953 
L 885.361734 287.004554 
L 886.071816 273.633529 
L 886.781898 249.124524 
L 887.49198 242.022827 
L 888.202062 252.501469 
L 888.912145 243.043674 
L 889.622227 206.526007 
L 891.042391 159.91096 
L 891.752473 165.229269 
L 892.462555 166.8872 
L 893.172637 159.25105 
L 893.88272 146.067063 
L 894.592802 149.97836 
L 895.302884 105.266634 
L 896.012966 92.417166 
L 896.723048 109.162047 
L 897.43313 120.042504 
L 898.143212 125.513003 
L 898.853295 122.424118 
L 899.563377 126.499738 
L 900.273459 149.157997 
L 900.983541 204.58674 
L 901.693623 225.210077 
L 902.403705 209.58088 
L 903.113788 163.097487 
L 903.82387 132.124331 
L 904.533952 135.040751 
L 905.244034 118.818913 
L 905.954116 108.13162 
L 906.664198 121.406053 
L 907.37428 124.743915 
L 908.084363 109.53764 
L 908.794445 105.562798 
L 909.504527 106.854805 
L 910.214609 110.785531 
L 910.924691 122.703386 
L 911.634773 138.963431 
L 913.054938 198.605711 
L 913.76502 216.793714 
L 915.185184 273.734474 
L 916.605348 280.378578 
L 917.31543 273.867628 
L 918.025513 271.57227 
L 918.735595 259.223909 
L 919.445677 250.124405 
L 920.155759 233.830371 
L 920.865841 250.830291 
L 921.575923 226.828152 
L 922.286005 191.387088 
L 922.996088 170.764041 
L 923.70617 140.900385 
L 924.416252 126.267908 
L 925.126334 159.930195 
L 925.836416 164.101391 
L 926.546498 154.101666 
L 927.256581 152.860719 
L 927.966663 125.96004 
L 928.676745 116.161253 
L 929.386827 121.80558 
L 930.096909 125.274503 
L 930.806991 127.595498 
L 931.517073 130.403979 
L 932.227156 101.128751 
L 932.937238 120.85771 
L 934.357402 210.711355 
L 935.067484 219.46072 
L 935.777566 225.742614 
L 936.487648 196.57057 
L 937.197731 174.081147 
L 937.907813 178.643415 
L 938.617895 156.549978 
L 939.327977 144.656919 
L 940.748141 128.525064 
L 942.168306 114.574865 
L 942.878388 119.905705 
L 943.58847 121.28838 
L 944.298552 112.912661 
L 945.008634 125.37473 
L 945.718716 148.280358 
L 947.138881 204.071479 
L 947.848963 230.024255 
L 948.559045 266.63686 
L 949.269127 282.714547 
L 949.979209 284.395447 
L 950.689291 288.138326 
L 952.109456 272.977598 
L 952.819538 249.659074 
L 953.52962 232.012332 
L 954.239702 241.095589 
L 954.949784 261.263762 
L 956.369949 179.145769 
L 957.790113 138.554834 
L 958.500195 154.600188 
L 959.210277 167.959198 
L 959.920359 163.184897 
L 960.630441 162.647882 
L 961.340524 145.897229 
L 962.050606 115.952687 
L 963.47077 135.736856 
L 964.180852 139.079628 
L 964.890934 137.994382 
L 965.601016 126.943426 
L 966.311099 125.110624 
L 967.021181 155.497401 
L 967.731263 211.997847 
L 968.441345 232.589986 
L 969.151427 237.666306 
L 969.861509 224.076217 
L 970.571591 175.152369 
L 971.281674 150.630769 
L 971.991756 152.864124 
L 973.41192 126.758614 
L 974.122002 121.522901 
L 974.832084 125.05851 
L 975.542166 119.575371 
L 976.252249 116.605371 
L 976.962331 118.794521 
L 977.672413 130.803716 
L 978.382495 126.308675 
L 979.092577 119.490056 
L 979.802659 124.301481 
L 980.512742 157.747235 
L 981.222824 203.832465 
L 981.932906 226.559869 
L 982.642988 240.200751 
L 983.35307 272.658832 
L 984.063152 285.544265 
L 984.773234 284.095005 
L 985.483317 284.837248 
L 986.193399 272.787871 
L 986.903481 266.143283 
L 987.613563 249.905418 
L 988.323645 226.398402 
L 989.033727 230.029651 
L 989.743809 248.089352 
L 990.453892 211.886802 
L 991.163974 185.066358 
L 992.584138 157.488974 
L 993.29422 145.699788 
L 994.004302 155.113199 
L 994.714384 179.744595 
L 995.424467 180.040333 
L 996.134549 141.762931 
L 996.844631 117.908945 
L 997.554713 120.74723 
L 998.264795 125.266804 
L 998.974877 136.254738 
L 999.684959 143.97017 
L 1000.395042 149.258004 
L 1001.105124 158.171934 
L 1001.815206 138.125764 
L 1002.525288 152.57324 
L 1003.23537 197.631 
L 1003.945452 217.902724 
L 1004.655535 228.168976 
L 1005.365617 232.410331 
L 1006.075699 231.98185 
L 1006.785781 218.286499 
L 1008.205945 171.378723 
L 1008.916027 156.45329 
L 1009.62611 155.464132 
L 1010.336192 164.449486 
L 1011.046274 176.775258 
L 1011.756356 171.199936 
L 1012.466438 157.140238 
L 1013.17652 149.946682 
L 1013.886602 138.786402 
L 1014.596685 125.661771 
L 1015.306767 127.983825 
L 1016.016849 134.955395 
L 1016.726931 149.33004 
L 1017.437013 146.32371 
L 1018.147095 166.018723 
L 1018.857177 179.788255 
L 1019.56726 237.209017 
L 1020.277342 255.279816 
L 1020.987424 258.683669 
L 1022.407588 273.084736 
L 1023.11767 278.954729 
L 1023.827752 278.152975 
L 1024.537835 272.126488 
L 1025.247917 280.152779 
L 1025.957999 286.415949 
L 1026.668081 255.895609 
L 1027.378163 248.232005 
L 1028.088245 252.141182 
L 1029.50841 238.807199 
L 1030.218492 242.895993 
L 1032.348738 181.673016 
L 1033.05882 165.623 
L 1033.768903 152.450022 
L 1034.478985 162.680935 
L 1035.189067 175.247724 
L 1035.899149 164.8074 
L 1037.319313 96.049879 
L 1038.029395 106.823188 
L 1038.739478 128.2147 
L 1040.159642 142.732608 
L 1040.869724 154.221144 
L 1041.579806 160.592869 
L 1042.289888 180.432871 
L 1042.99997 224.021503 
L 1043.710053 289.828319 
L 1044.420135 309.973881 
L 1045.130217 308.546563 
L 1045.840299 315.924853 
L 1046.550381 320.311495 
L 1047.260463 323.854806 
L 1047.970545 308.322881 
L 1047.970545 308.322881 
" style="fill:none;stroke:#1f77b4;stroke-linecap:square;stroke-width:1.5;"/>
   </g>
   <g id="patch_3">
    <path d="M 57.832 518.312 
L 57.832 10.8 
" style="fill:none;stroke:#000000;stroke-linecap:square;stroke-linejoin:miter;stroke-width:0.8;"/>
   </g>
   <g id="patch_4">
    <path d="M 1095.12 518.312 
L 1095.12 10.8 
" style="fill:none;stroke:#000000;stroke-linecap:square;stroke-linejoin:miter;stroke-width:0.8;"/>
   </g>
   <g id="patch_5">
    <path d="M 57.832 518.312 
L 1095.12 518.312 
" style="fill:none;stroke:#000000;stroke-linecap:square;stroke-linejoin:miter;stroke-width:0.8;"/>
   </g>
   <g id="patch_6">
    <path d="M 57.832 10.8 
L 1095.12 10.8 
" style="fill:none;stroke:#000000;stroke-linecap:square;stroke-linejoin:miter;stroke-width:0.8;"/>
   </g>
  </g>
 </g>
 <defs>
  <clipPath id="pc0c313d4cf">
   <rect height="507.512" width="1037.288" x="57.832" y="10.8"/>
  </clipPath>
 </defs>
</svg>
