<?xml version="1.0" encoding="utf-8" standalone="no"?>
<!DOCTYPE svg PUBLIC "-//W3C//DTD SVG 1.1//EN"
  "http://www.w3.org/Graphics/SVG/1.1/DTD/svg11.dtd">
<svg height="345.6pt" version="1.1" viewBox="0 0 460.8 345.6" width="460.8pt" xmlns="http://www.w3.org/2000/svg" xmlns:xlink="http://www.w3.org/1999/xlink">
 <metadata>
  <rdf:RDF xmlns:cc="http://creativecommons.org/ns#" xmlns:dc="http://purl.org/dc/elements/1.1/" xmlns:rdf="http://www.w3.org/1999/02/22-rdf-syntax-ns#">
   <cc:Work>
    <dc:type rdf:resource="http://purl.org/dc/dcmitype/StillImage"/>
    <dc:date>2022-10-27T17:10:18.567863</dc:date>
    <dc:format>image/svg+xml</dc:format>
    <dc:creator>
     <cc:Agent>
      <dc:title>Matplotlib v3.4.2, https://matplotlib.org/</dc:title>
     </cc:Agent>
    </dc:creator>
   </cc:Work>
  </rdf:RDF>
 </metadata>
 <defs>
  <style type="text/css">*{stroke-linecap:butt;stroke-linejoin:round;}</style>
 </defs>
 <g id="figure_1">
  <g id="patch_1">
   <path d="M 0 345.6 
L 460.8 345.6 
L 460.8 0 
L 0 0 
z
" style="fill:#ffffff;"/>
  </g>
  <g id="axes_1">
   <g id="patch_2">
    <path d="M 57.6 307.584 
L 414.72 307.584 
L 414.72 41.472 
L 57.6 41.472 
z
" style="fill:#ffffff;"/>
   </g>
   <g id="matplotlib.axis_1">
    <g id="xtick_1">
     <g id="line2d_1">
      <defs>
       <path d="M 0 0 
L 0 3.5 
" id="m9213cf537b" style="stroke:#000000;stroke-width:0.8;"/>
      </defs>
      <g>
       <use style="stroke:#000000;stroke-width:0.8;" x="73.832727" xlink:href="#m9213cf537b" y="307.584"/>
      </g>
     </g>
     <g id="text_1">
      <!-- 0 -->
      <g transform="translate(70.651477 322.182437)scale(0.1 -0.1)">
       <defs>
        <path d="M 2034 4250 
Q 1547 4250 1301 3770 
Q 1056 3291 1056 2328 
Q 1056 1369 1301 889 
Q 1547 409 2034 409 
Q 2525 409 2770 889 
Q 3016 1369 3016 2328 
Q 3016 3291 2770 3770 
Q 2525 4250 2034 4250 
z
M 2034 4750 
Q 2819 4750 3233 4129 
Q 3647 3509 3647 2328 
Q 3647 1150 3233 529 
Q 2819 -91 2034 -91 
Q 1250 -91 836 529 
Q 422 1150 422 2328 
Q 422 3509 836 4129 
Q 1250 4750 2034 4750 
z
" id="DejaVuSans-30" transform="scale(0.015625)"/>
       </defs>
       <use xlink:href="#DejaVuSans-30"/>
      </g>
     </g>
    </g>
    <g id="xtick_2">
     <g id="line2d_2">
      <g>
       <use style="stroke:#000000;stroke-width:0.8;" x="125.819044" xlink:href="#m9213cf537b" y="307.584"/>
      </g>
     </g>
     <g id="text_2">
      <!-- 200 -->
      <g transform="translate(116.275294 322.182437)scale(0.1 -0.1)">
       <defs>
        <path d="M 1228 531 
L 3431 531 
L 3431 0 
L 469 0 
L 469 531 
Q 828 903 1448 1529 
Q 2069 2156 2228 2338 
Q 2531 2678 2651 2914 
Q 2772 3150 2772 3378 
Q 2772 3750 2511 3984 
Q 2250 4219 1831 4219 
Q 1534 4219 1204 4116 
Q 875 4013 500 3803 
L 500 4441 
Q 881 4594 1212 4672 
Q 1544 4750 1819 4750 
Q 2544 4750 2975 4387 
Q 3406 4025 3406 3419 
Q 3406 3131 3298 2873 
Q 3191 2616 2906 2266 
Q 2828 2175 2409 1742 
Q 1991 1309 1228 531 
z
" id="DejaVuSans-32" transform="scale(0.015625)"/>
       </defs>
       <use xlink:href="#DejaVuSans-32"/>
       <use x="63.623047" xlink:href="#DejaVuSans-30"/>
       <use x="127.246094" xlink:href="#DejaVuSans-30"/>
      </g>
     </g>
    </g>
    <g id="xtick_3">
     <g id="line2d_3">
      <g>
       <use style="stroke:#000000;stroke-width:0.8;" x="177.80536" xlink:href="#m9213cf537b" y="307.584"/>
      </g>
     </g>
     <g id="text_3">
      <!-- 400 -->
      <g transform="translate(168.26161 322.182437)scale(0.1 -0.1)">
       <defs>
        <path d="M 2419 4116 
L 825 1625 
L 2419 1625 
L 2419 4116 
z
M 2253 4666 
L 3047 4666 
L 3047 1625 
L 3713 1625 
L 3713 1100 
L 3047 1100 
L 3047 0 
L 2419 0 
L 2419 1100 
L 313 1100 
L 313 1709 
L 2253 4666 
z
" id="DejaVuSans-34" transform="scale(0.015625)"/>
       </defs>
       <use xlink:href="#DejaVuSans-34"/>
       <use x="63.623047" xlink:href="#DejaVuSans-30"/>
       <use x="127.246094" xlink:href="#DejaVuSans-30"/>
      </g>
     </g>
    </g>
    <g id="xtick_4">
     <g id="line2d_4">
      <g>
       <use style="stroke:#000000;stroke-width:0.8;" x="229.791676" xlink:href="#m9213cf537b" y="307.584"/>
      </g>
     </g>
     <g id="text_4">
      <!-- 600 -->
      <g transform="translate(220.247926 322.182437)scale(0.1 -0.1)">
       <defs>
        <path d="M 2113 2584 
Q 1688 2584 1439 2293 
Q 1191 2003 1191 1497 
Q 1191 994 1439 701 
Q 1688 409 2113 409 
Q 2538 409 2786 701 
Q 3034 994 3034 1497 
Q 3034 2003 2786 2293 
Q 2538 2584 2113 2584 
z
M 3366 4563 
L 3366 3988 
Q 3128 4100 2886 4159 
Q 2644 4219 2406 4219 
Q 1781 4219 1451 3797 
Q 1122 3375 1075 2522 
Q 1259 2794 1537 2939 
Q 1816 3084 2150 3084 
Q 2853 3084 3261 2657 
Q 3669 2231 3669 1497 
Q 3669 778 3244 343 
Q 2819 -91 2113 -91 
Q 1303 -91 875 529 
Q 447 1150 447 2328 
Q 447 3434 972 4092 
Q 1497 4750 2381 4750 
Q 2619 4750 2861 4703 
Q 3103 4656 3366 4563 
z
" id="DejaVuSans-36" transform="scale(0.015625)"/>
       </defs>
       <use xlink:href="#DejaVuSans-36"/>
       <use x="63.623047" xlink:href="#DejaVuSans-30"/>
       <use x="127.246094" xlink:href="#DejaVuSans-30"/>
      </g>
     </g>
    </g>
    <g id="xtick_5">
     <g id="line2d_5">
      <g>
       <use style="stroke:#000000;stroke-width:0.8;" x="281.777993" xlink:href="#m9213cf537b" y="307.584"/>
      </g>
     </g>
     <g id="text_5">
      <!-- 800 -->
      <g transform="translate(272.234243 322.182437)scale(0.1 -0.1)">
       <defs>
        <path d="M 2034 2216 
Q 1584 2216 1326 1975 
Q 1069 1734 1069 1313 
Q 1069 891 1326 650 
Q 1584 409 2034 409 
Q 2484 409 2743 651 
Q 3003 894 3003 1313 
Q 3003 1734 2745 1975 
Q 2488 2216 2034 2216 
z
M 1403 2484 
Q 997 2584 770 2862 
Q 544 3141 544 3541 
Q 544 4100 942 4425 
Q 1341 4750 2034 4750 
Q 2731 4750 3128 4425 
Q 3525 4100 3525 3541 
Q 3525 3141 3298 2862 
Q 3072 2584 2669 2484 
Q 3125 2378 3379 2068 
Q 3634 1759 3634 1313 
Q 3634 634 3220 271 
Q 2806 -91 2034 -91 
Q 1263 -91 848 271 
Q 434 634 434 1313 
Q 434 1759 690 2068 
Q 947 2378 1403 2484 
z
M 1172 3481 
Q 1172 3119 1398 2916 
Q 1625 2713 2034 2713 
Q 2441 2713 2670 2916 
Q 2900 3119 2900 3481 
Q 2900 3844 2670 4047 
Q 2441 4250 2034 4250 
Q 1625 4250 1398 4047 
Q 1172 3844 1172 3481 
z
" id="DejaVuSans-38" transform="scale(0.015625)"/>
       </defs>
       <use xlink:href="#DejaVuSans-38"/>
       <use x="63.623047" xlink:href="#DejaVuSans-30"/>
       <use x="127.246094" xlink:href="#DejaVuSans-30"/>
      </g>
     </g>
    </g>
    <g id="xtick_6">
     <g id="line2d_6">
      <g>
       <use style="stroke:#000000;stroke-width:0.8;" x="333.764309" xlink:href="#m9213cf537b" y="307.584"/>
      </g>
     </g>
     <g id="text_6">
      <!-- 1000 -->
      <g transform="translate(321.039309 322.182437)scale(0.1 -0.1)">
       <defs>
        <path d="M 794 531 
L 1825 531 
L 1825 4091 
L 703 3866 
L 703 4441 
L 1819 4666 
L 2450 4666 
L 2450 531 
L 3481 531 
L 3481 0 
L 794 0 
L 794 531 
z
" id="DejaVuSans-31" transform="scale(0.015625)"/>
       </defs>
       <use xlink:href="#DejaVuSans-31"/>
       <use x="63.623047" xlink:href="#DejaVuSans-30"/>
       <use x="127.246094" xlink:href="#DejaVuSans-30"/>
       <use x="190.869141" xlink:href="#DejaVuSans-30"/>
      </g>
     </g>
    </g>
    <g id="xtick_7">
     <g id="line2d_7">
      <g>
       <use style="stroke:#000000;stroke-width:0.8;" x="385.750625" xlink:href="#m9213cf537b" y="307.584"/>
      </g>
     </g>
     <g id="text_7">
      <!-- 1200 -->
      <g transform="translate(373.025625 322.182437)scale(0.1 -0.1)">
       <use xlink:href="#DejaVuSans-31"/>
       <use x="63.623047" xlink:href="#DejaVuSans-32"/>
       <use x="127.246094" xlink:href="#DejaVuSans-30"/>
       <use x="190.869141" xlink:href="#DejaVuSans-30"/>
      </g>
     </g>
    </g>
   </g>
   <g id="matplotlib.axis_2">
    <g id="ytick_1">
     <g id="line2d_8">
      <defs>
       <path d="M 0 0 
L -3.5 0 
" id="m683bb936c3" style="stroke:#000000;stroke-width:0.8;"/>
      </defs>
      <g>
       <use style="stroke:#000000;stroke-width:0.8;" x="57.6" xlink:href="#m683bb936c3" y="265.05426"/>
      </g>
     </g>
     <g id="text_8">
      <!-- −0.2 -->
      <g transform="translate(26.317187 268.853478)scale(0.1 -0.1)">
       <defs>
        <path d="M 678 2272 
L 4684 2272 
L 4684 1741 
L 678 1741 
L 678 2272 
z
" id="DejaVuSans-2212" transform="scale(0.015625)"/>
        <path d="M 684 794 
L 1344 794 
L 1344 0 
L 684 0 
L 684 794 
z
" id="DejaVuSans-2e" transform="scale(0.015625)"/>
       </defs>
       <use xlink:href="#DejaVuSans-2212"/>
       <use x="83.789062" xlink:href="#DejaVuSans-30"/>
       <use x="147.412109" xlink:href="#DejaVuSans-2e"/>
       <use x="179.199219" xlink:href="#DejaVuSans-32"/>
      </g>
     </g>
    </g>
    <g id="ytick_2">
     <g id="line2d_9">
      <g>
       <use style="stroke:#000000;stroke-width:0.8;" x="57.6" xlink:href="#m683bb936c3" y="218.673007"/>
      </g>
     </g>
     <g id="text_9">
      <!-- −0.1 -->
      <g transform="translate(26.317187 222.472226)scale(0.1 -0.1)">
       <use xlink:href="#DejaVuSans-2212"/>
       <use x="83.789062" xlink:href="#DejaVuSans-30"/>
       <use x="147.412109" xlink:href="#DejaVuSans-2e"/>
       <use x="179.199219" xlink:href="#DejaVuSans-31"/>
      </g>
     </g>
    </g>
    <g id="ytick_3">
     <g id="line2d_10">
      <g>
       <use style="stroke:#000000;stroke-width:0.8;" x="57.6" xlink:href="#m683bb936c3" y="172.291755"/>
      </g>
     </g>
     <g id="text_10">
      <!-- 0.0 -->
      <g transform="translate(34.696875 176.090974)scale(0.1 -0.1)">
       <use xlink:href="#DejaVuSans-30"/>
       <use x="63.623047" xlink:href="#DejaVuSans-2e"/>
       <use x="95.410156" xlink:href="#DejaVuSans-30"/>
      </g>
     </g>
    </g>
    <g id="ytick_4">
     <g id="line2d_11">
      <g>
       <use style="stroke:#000000;stroke-width:0.8;" x="57.6" xlink:href="#m683bb936c3" y="125.910503"/>
      </g>
     </g>
     <g id="text_11">
      <!-- 0.1 -->
      <g transform="translate(34.696875 129.709722)scale(0.1 -0.1)">
       <use xlink:href="#DejaVuSans-30"/>
       <use x="63.623047" xlink:href="#DejaVuSans-2e"/>
       <use x="95.410156" xlink:href="#DejaVuSans-31"/>
      </g>
     </g>
    </g>
    <g id="ytick_5">
     <g id="line2d_12">
      <g>
       <use style="stroke:#000000;stroke-width:0.8;" x="57.6" xlink:href="#m683bb936c3" y="79.529251"/>
      </g>
     </g>
     <g id="text_12">
      <!-- 0.2 -->
      <g transform="translate(34.696875 83.32847)scale(0.1 -0.1)">
       <use xlink:href="#DejaVuSans-30"/>
       <use x="63.623047" xlink:href="#DejaVuSans-2e"/>
       <use x="95.410156" xlink:href="#DejaVuSans-32"/>
      </g>
     </g>
    </g>
   </g>
   <g id="line2d_13">
    <path clip-path="url(#p3c7dba8fe8)" d="M 73.832727 104.124945 
L 74.092659 104.863766 
L 74.35259 105.042998 
L 74.612522 104.81919 
L 74.872454 104.41949 
L 75.392317 102.529234 
L 76.432043 98.247203 
L 76.691975 98.588689 
L 77.471769 100.677921 
L 77.991633 102.351364 
L 78.251564 102.299358 
L 78.511496 100.784755 
L 79.031359 95.467717 
L 79.551222 88.903698 
L 79.811154 87.254987 
L 80.071085 87.621982 
L 80.331017 89.863287 
L 81.890606 111.336893 
L 82.150538 112.983058 
L 82.410469 113.813111 
L 82.670401 113.957229 
L 91.248143 110.929855 
L 95.147117 97.893214 
L 95.407049 97.861465 
L 95.66698 98.383962 
L 96.186843 100.646208 
L 96.706706 103.698669 
L 97.486501 108.502136 
L 98.006364 109.918495 
L 98.266296 110.183239 
L 98.526228 110.02909 
L 98.786159 109.619353 
L 99.306022 108.101392 
L 100.085817 105.579499 
L 100.345749 104.845221 
L 100.865612 104.223921 
L 103.464928 101.731127 
L 103.724859 101.82532 
L 104.244722 102.718804 
L 104.504654 103.494395 
L 105.024517 104.491366 
L 105.54438 105.614744 
L 106.064243 105.437586 
L 107.623833 103.396152 
L 108.403628 103.07702 
L 108.663559 103.220702 
L 110.223149 107.850816 
L 110.48308 107.006402 
L 110.743012 102.560654 
L 114.901917 99.520277 
L 115.161849 99.907041 
L 115.681712 102.185415 
L 115.941643 103.405012 
L 116.461507 104.37501 
L 116.721438 104.114807 
L 117.241301 103.294463 
L 117.501233 102.964614 
L 118.021096 101.769899 
L 118.281028 101.473052 
L 118.540959 101.45155 
L 118.800891 102.019675 
L 119.060822 102.222412 
L 119.320754 102.132444 
L 120.100549 103.319849 
L 120.620412 105.86371 
L 121.400207 110.281128 
L 121.660138 110.48483 
L 122.699865 110.659436 
L 123.219728 107.467068 
L 124.259454 97.848221 
L 126.598838 82.883894 
L 126.85877 82.44525 
L 128.158428 102.149148 
L 128.938223 111.119492 
L 129.198154 113.0524 
L 129.458086 114.133608 
L 129.718017 114.458511 
L 129.977949 113.955086 
L 130.497812 110.874897 
L 132.577265 92.428598 
L 133.097128 89.726648 
L 133.616991 93.312087 
L 133.876923 93.390551 
L 134.136854 94.274617 
L 136.216307 104.791957 
L 136.996102 106.644379 
L 137.256033 106.761041 
L 137.515965 106.635248 
L 137.775896 105.879486 
L 138.555691 102.072897 
L 139.075554 99.206485 
L 139.335486 96.699271 
L 139.595417 96.838524 
L 145.053981 104.172266 
L 145.573844 105.503872 
L 148.952954 106.012999 
L 149.212886 105.90751 
L 149.732749 105.164142 
L 149.992681 105.109805 
L 150.252612 105.18615 
L 150.512544 105.455632 
L 150.772475 105.979766 
L 151.032407 107.003897 
L 151.55227 110.075219 
L 151.812202 110.456889 
L 152.332065 110.056755 
L 152.591997 109.136235 
L 153.371791 103.259041 
L 153.631723 106.856168 
L 153.891654 108.579616 
L 154.411518 109.714539 
L 154.671449 103.834881 
L 154.931381 103.409609 
L 155.711175 106.649857 
L 155.971107 106.576923 
L 162.98926 100.358658 
L 163.509123 99.13157 
L 164.548849 99.323625 
L 164.808781 99.729185 
L 165.588576 102.170719 
L 165.848507 102.587808 
L 166.108439 102.700667 
L 166.628302 102.444581 
L 167.148165 101.989734 
L 169.747481 101.463879 
L 170.267344 101.914045 
L 171.826934 102.568808 
L 172.086865 101.885766 
L 172.86666 98.567769 
L 173.126591 98.26463 
L 173.906386 99.130797 
L 175.206044 102.517743 
L 175.985839 103.325233 
L 176.24577 103.379286 
L 177.025565 101.975844 
L 178.585155 97.957633 
L 179.105018 97.328838 
L 179.364949 97.375758 
L 180.404676 99.903181 
L 180.924539 101.138524 
L 181.704334 101.878408 
L 182.74406 101.686681 
L 183.263923 101.295249 
L 184.043718 100.549731 
L 186.123171 101.43257 
L 186.383102 101.686532 
L 186.643034 101.723001 
L 190.282076 100.286883 
L 190.542007 100.050719 
L 191.841665 100.297569 
L 192.361528 100.40417 
L 192.881392 100.364253 
L 194.440981 100.588098 
L 194.700913 100.763338 
L 195.220776 100.46421 
L 195.480707 100.151861 
L 197.040297 100.08549 
L 198.339955 100.105212 
L 201.459134 100.716331 
L 201.719065 100.599117 
L 203.018723 99.35385 
L 203.278655 99.428642 
L 203.798518 100.038804 
L 204.318381 100.239575 
L 205.618039 100.574753 
L 205.877971 100.814385 
L 206.397834 100.791583 
L 217.055029 99.098216 
L 217.31496 99.379125 
L 219.134481 103.065145 
L 219.654345 102.900475 
L 222.513592 101.525475 
L 248.766682 98.833536 
L 249.026613 98.586976 
L 270.081071 98.107718 
L 270.341003 99.955793 
L 271.120798 107.562235 
L 271.380729 109.39811 
L 271.640661 109.9448 
L 279.178677 110.118347 
L 279.438608 110.374398 
L 279.69854 112.557197 
L 281.518061 104.350517 
L 281.777993 104.681879 
L 286.196829 103.714988 
L 286.716693 103.275655 
L 286.976624 103.322504 
L 287.756419 104.18499 
L 288.536214 104.936181 
L 289.835872 106.08372 
L 290.095803 105.638848 
L 296.854024 86.311599 
L 297.113956 83.664756 
L 297.373887 85.223831 
L 297.633819 79.873775 
L 297.893751 84.876338 
L 298.153682 87.042093 
L 299.45334 102.839427 
L 299.713272 103.999258 
L 299.973203 106.259075 
L 300.233135 106.144818 
L 301.01293 99.288581 
L 301.272861 100.768128 
L 301.532793 105.086889 
L 302.052656 102.787916 
L 302.312588 102.90585 
L 302.832451 106.758835 
L 303.092382 105.810862 
L 303.352314 103.034012 
L 304.39204 87.61813 
L 304.911903 83.745518 
L 305.171835 83.798069 
L 305.95163 85.690348 
L 306.211561 86.039816 
L 306.471493 85.37117 
L 306.991356 79.558581 
L 308.550945 55.598251 
L 308.810877 53.568 
L 309.070809 53.804486 
L 309.590672 56.12265 
L 309.850603 61.314678 
L 310.110535 56.194222 
L 310.370467 61.27849 
L 310.630398 71.31866 
L 310.89033 73.197679 
L 311.150261 73.56777 
L 311.670124 84.270168 
L 312.449919 89.69253 
L 312.709851 89.856032 
L 313.229714 87.970667 
L 313.489646 86.390049 
L 314.789303 66.842548 
L 315.049235 65.832026 
L 315.309167 69.489265 
L 315.82903 84.59287 
L 316.348893 100.331605 
L 316.868756 109.641941 
L 317.388619 114.879441 
L 317.648551 115.750467 
L 317.908482 116.029769 
L 318.168414 115.891372 
L 318.428346 115.236428 
L 318.948209 112.910253 
L 319.20814 111.51912 
L 319.468072 110.742733 
L 319.728003 110.669368 
L 319.987935 110.836664 
L 320.247867 110.844948 
L 320.507798 111.204452 
L 320.76773 111.919094 
L 321.027661 112.140705 
L 321.287593 111.798119 
L 321.547525 111.181989 
L 321.807456 110.027395 
L 322.327319 105.814756 
L 323.367046 95.791547 
L 324.14684 89.64326 
L 324.666704 87.348427 
L 325.186567 83.975456 
L 326.746156 78.089683 
L 327.006088 77.592264 
L 327.525951 77.299117 
L 327.785883 77.095453 
L 328.565677 79.325936 
L 329.08554 81.499122 
L 329.605404 83.443969 
L 330.385198 86.139913 
L 331.424925 86.75534 
L 331.684856 86.652443 
L 331.944788 86.362945 
L 332.464651 86.323475 
L 332.724583 86.663818 
L 333.244446 88.608573 
L 333.504377 89.121223 
L 333.764309 89.968457 
L 334.02424 91.1978 
L 334.544104 91.843257 
L 334.804035 91.640101 
L 335.063967 90.777429 
L 336.103693 83.706597 
L 336.363625 82.997741 
L 336.623556 81.235779 
L 337.143419 76.883586 
L 337.923214 74.115865 
L 338.703009 69.853979 
L 339.222872 66.021644 
L 340.002667 62.270959 
L 340.262598 62.712044 
L 340.52253 63.420847 
L 340.782462 63.421998 
L 341.042393 64.472846 
L 341.822188 68.702736 
L 342.08212 68.672987 
L 342.342051 66.609988 
L 342.601983 66.222311 
L 343.121846 70.906741 
L 344.161572 87.000497 
L 345.201298 110.197867 
L 346.760888 156.483717 
L 348.060546 194.920406 
L 349.100272 214.525389 
L 349.620135 228.135698 
L 350.139999 236.110662 
L 350.659862 240.444648 
L 350.919793 241.835888 
L 351.179725 242.28409 
L 351.699588 239.37061 
L 352.219451 234.419 
L 352.739314 229.874742 
L 352.999246 229.229287 
L 353.519109 226.315697 
L 353.779041 226.226464 
L 354.298904 225.192912 
L 354.558835 225.713735 
L 354.818767 227.148622 
L 355.33863 231.924692 
L 356.118425 233.4817 
L 356.378357 232.975529 
L 356.638288 233.790327 
L 357.418083 243.637975 
L 358.457809 251.638127 
L 358.977672 253.717245 
L 360.017399 261.665723 
L 360.27733 262.121181 
L 360.537262 261.518537 
L 361.317057 256.624308 
L 361.576988 255.71582 
L 361.83692 255.586865 
L 362.096851 254.921865 
L 362.356783 253.457201 
L 362.876646 246.47171 
L 363.136578 241.597125 
L 363.396509 239.211535 
L 363.916372 236.835533 
L 364.176304 236.935494 
L 364.436236 239.380588 
L 364.696167 240.771778 
L 364.956099 240.593413 
L 365.475962 242.688039 
L 365.995825 245.696496 
L 366.515688 249.50418 
L 366.77562 249.455052 
L 367.555415 251.405997 
L 368.075278 250.126012 
L 368.335209 249.05445 
L 368.595141 248.908449 
L 368.855072 250.257661 
L 369.634867 256.581464 
L 371.454388 263.249644 
L 372.494115 271.261232 
L 372.754046 270.882798 
L 373.533841 266.635624 
L 373.793772 268.320362 
L 374.573567 279.29414 
L 374.833499 280.842465 
L 375.09343 281.267833 
L 375.353362 282.171198 
L 375.613294 283.624846 
L 376.912951 295.488 
L 377.172883 294.881563 
L 377.432815 294.58782 
L 377.692746 295.400779 
L 377.952678 295.066466 
L 378.472541 291.435152 
L 379.772199 274.120959 
L 380.03213 268.515629 
L 380.811925 260.171075 
L 382.371515 228.308877 
L 382.631446 231.248592 
L 383.151309 232.741266 
L 383.411241 232.34101 
L 383.671173 231.563942 
L 383.931104 229.42171 
L 384.450967 217.761262 
L 384.710899 216.962757 
L 385.490694 247.008665 
L 385.750625 252.561622 
L 386.010557 254.63882 
L 386.270488 254.76827 
L 386.53042 259.230846 
L 387.050283 280.185704 
L 387.310215 281.391491 
L 387.570146 281.606311 
L 387.830078 282.778091 
L 388.090009 281.320182 
L 389.389667 265.469987 
L 389.649599 265.270476 
L 389.909531 265.272752 
L 390.689325 259.501198 
L 390.949257 259.803951 
L 391.729052 265.504895 
L 391.988983 265.499131 
L 392.248915 268.005729 
L 392.508846 268.615696 
L 392.768778 264.533876 
L 393.02871 264.007867 
L 393.288641 265.449341 
L 394.068436 240.924609 
L 394.848231 262.493863 
L 395.368094 247.862242 
L 395.628025 240.571152 
L 395.887957 244.447786 
L 396.147888 253.781035 
L 396.40782 252.12147 
L 397.187615 239.433934 
L 397.447546 238.538547 
L 397.707478 245.853507 
L 398.487273 274.892906 
L 398.487273 274.892906 
" style="fill:none;stroke:#1f77b4;stroke-linecap:square;stroke-width:1.5;"/>
   </g>
   <g id="patch_3">
    <path d="M 57.6 307.584 
L 57.6 41.472 
" style="fill:none;stroke:#000000;stroke-linecap:square;stroke-linejoin:miter;stroke-width:0.8;"/>
   </g>
   <g id="patch_4">
    <path d="M 414.72 307.584 
L 414.72 41.472 
" style="fill:none;stroke:#000000;stroke-linecap:square;stroke-linejoin:miter;stroke-width:0.8;"/>
   </g>
   <g id="patch_5">
    <path d="M 57.6 307.584 
L 414.72 307.584 
" style="fill:none;stroke:#000000;stroke-linecap:square;stroke-linejoin:miter;stroke-width:0.8;"/>
   </g>
   <g id="patch_6">
    <path d="M 57.6 41.472 
L 414.72 41.472 
" style="fill:none;stroke:#000000;stroke-linecap:square;stroke-linejoin:miter;stroke-width:0.8;"/>
   </g>
  </g>
 </g>
 <defs>
  <clipPath id="p3c7dba8fe8">
   <rect height="266.112" width="357.12" x="57.6" y="41.472"/>
  </clipPath>
 </defs>
</svg>
