<?xml version="1.0" encoding="utf-8" standalone="no"?>
<!DOCTYPE svg PUBLIC "-//W3C//DTD SVG 1.1//EN"
  "http://www.w3.org/Graphics/SVG/1.1/DTD/svg11.dtd">
<svg height="345.6pt" version="1.1" viewBox="0 0 460.8 345.6" width="460.8pt" xmlns="http://www.w3.org/2000/svg" xmlns:xlink="http://www.w3.org/1999/xlink">
 <metadata>
  <rdf:RDF xmlns:cc="http://creativecommons.org/ns#" xmlns:dc="http://purl.org/dc/elements/1.1/" xmlns:rdf="http://www.w3.org/1999/02/22-rdf-syntax-ns#">
   <cc:Work>
    <dc:type rdf:resource="http://purl.org/dc/dcmitype/StillImage"/>
    <dc:date>2022-10-27T16:44:25.286277</dc:date>
    <dc:format>image/svg+xml</dc:format>
    <dc:creator>
     <cc:Agent>
      <dc:title>Matplotlib v3.4.2, https://matplotlib.org/</dc:title>
     </cc:Agent>
    </dc:creator>
   </cc:Work>
  </rdf:RDF>
 </metadata>
 <defs>
  <style type="text/css">*{stroke-linecap:butt;stroke-linejoin:round;}</style>
 </defs>
 <g id="figure_1">
  <g id="patch_1">
   <path d="M 0 345.6 
L 460.8 345.6 
L 460.8 0 
L 0 0 
z
" style="fill:#ffffff;"/>
  </g>
  <g id="axes_1">
   <g id="patch_2">
    <path d="M 57.6 307.584 
L 414.72 307.584 
L 414.72 41.472 
L 57.6 41.472 
z
" style="fill:#ffffff;"/>
   </g>
   <g id="matplotlib.axis_1">
    <g id="xtick_1">
     <g id="line2d_1">
      <defs>
       <path d="M 0 0 
L 0 3.5 
" id="m50336c60cd" style="stroke:#000000;stroke-width:0.8;"/>
      </defs>
      <g>
       <use style="stroke:#000000;stroke-width:0.8;" x="73.832727" xlink:href="#m50336c60cd" y="307.584"/>
      </g>
     </g>
     <g id="text_1">
      <!-- 0 -->
      <g transform="translate(70.651477 322.182437)scale(0.1 -0.1)">
       <defs>
        <path d="M 2034 4250 
Q 1547 4250 1301 3770 
Q 1056 3291 1056 2328 
Q 1056 1369 1301 889 
Q 1547 409 2034 409 
Q 2525 409 2770 889 
Q 3016 1369 3016 2328 
Q 3016 3291 2770 3770 
Q 2525 4250 2034 4250 
z
M 2034 4750 
Q 2819 4750 3233 4129 
Q 3647 3509 3647 2328 
Q 3647 1150 3233 529 
Q 2819 -91 2034 -91 
Q 1250 -91 836 529 
Q 422 1150 422 2328 
Q 422 3509 836 4129 
Q 1250 4750 2034 4750 
z
" id="DejaVuSans-30" transform="scale(0.015625)"/>
       </defs>
       <use xlink:href="#DejaVuSans-30"/>
      </g>
     </g>
    </g>
    <g id="xtick_2">
     <g id="line2d_2">
      <g>
       <use style="stroke:#000000;stroke-width:0.8;" x="114.465336" xlink:href="#m50336c60cd" y="307.584"/>
      </g>
     </g>
     <g id="text_2">
      <!-- 100 -->
      <g transform="translate(104.921586 322.182437)scale(0.1 -0.1)">
       <defs>
        <path d="M 794 531 
L 1825 531 
L 1825 4091 
L 703 3866 
L 703 4441 
L 1819 4666 
L 2450 4666 
L 2450 531 
L 3481 531 
L 3481 0 
L 794 0 
L 794 531 
z
" id="DejaVuSans-31" transform="scale(0.015625)"/>
       </defs>
       <use xlink:href="#DejaVuSans-31"/>
       <use x="63.623047" xlink:href="#DejaVuSans-30"/>
       <use x="127.246094" xlink:href="#DejaVuSans-30"/>
      </g>
     </g>
    </g>
    <g id="xtick_3">
     <g id="line2d_3">
      <g>
       <use style="stroke:#000000;stroke-width:0.8;" x="155.097945" xlink:href="#m50336c60cd" y="307.584"/>
      </g>
     </g>
     <g id="text_3">
      <!-- 200 -->
      <g transform="translate(145.554195 322.182437)scale(0.1 -0.1)">
       <defs>
        <path d="M 1228 531 
L 3431 531 
L 3431 0 
L 469 0 
L 469 531 
Q 828 903 1448 1529 
Q 2069 2156 2228 2338 
Q 2531 2678 2651 2914 
Q 2772 3150 2772 3378 
Q 2772 3750 2511 3984 
Q 2250 4219 1831 4219 
Q 1534 4219 1204 4116 
Q 875 4013 500 3803 
L 500 4441 
Q 881 4594 1212 4672 
Q 1544 4750 1819 4750 
Q 2544 4750 2975 4387 
Q 3406 4025 3406 3419 
Q 3406 3131 3298 2873 
Q 3191 2616 2906 2266 
Q 2828 2175 2409 1742 
Q 1991 1309 1228 531 
z
" id="DejaVuSans-32" transform="scale(0.015625)"/>
       </defs>
       <use xlink:href="#DejaVuSans-32"/>
       <use x="63.623047" xlink:href="#DejaVuSans-30"/>
       <use x="127.246094" xlink:href="#DejaVuSans-30"/>
      </g>
     </g>
    </g>
    <g id="xtick_4">
     <g id="line2d_4">
      <g>
       <use style="stroke:#000000;stroke-width:0.8;" x="195.730554" xlink:href="#m50336c60cd" y="307.584"/>
      </g>
     </g>
     <g id="text_4">
      <!-- 300 -->
      <g transform="translate(186.186804 322.182437)scale(0.1 -0.1)">
       <defs>
        <path d="M 2597 2516 
Q 3050 2419 3304 2112 
Q 3559 1806 3559 1356 
Q 3559 666 3084 287 
Q 2609 -91 1734 -91 
Q 1441 -91 1130 -33 
Q 819 25 488 141 
L 488 750 
Q 750 597 1062 519 
Q 1375 441 1716 441 
Q 2309 441 2620 675 
Q 2931 909 2931 1356 
Q 2931 1769 2642 2001 
Q 2353 2234 1838 2234 
L 1294 2234 
L 1294 2753 
L 1863 2753 
Q 2328 2753 2575 2939 
Q 2822 3125 2822 3475 
Q 2822 3834 2567 4026 
Q 2313 4219 1838 4219 
Q 1578 4219 1281 4162 
Q 984 4106 628 3988 
L 628 4550 
Q 988 4650 1302 4700 
Q 1616 4750 1894 4750 
Q 2613 4750 3031 4423 
Q 3450 4097 3450 3541 
Q 3450 3153 3228 2886 
Q 3006 2619 2597 2516 
z
" id="DejaVuSans-33" transform="scale(0.015625)"/>
       </defs>
       <use xlink:href="#DejaVuSans-33"/>
       <use x="63.623047" xlink:href="#DejaVuSans-30"/>
       <use x="127.246094" xlink:href="#DejaVuSans-30"/>
      </g>
     </g>
    </g>
    <g id="xtick_5">
     <g id="line2d_5">
      <g>
       <use style="stroke:#000000;stroke-width:0.8;" x="236.363163" xlink:href="#m50336c60cd" y="307.584"/>
      </g>
     </g>
     <g id="text_5">
      <!-- 400 -->
      <g transform="translate(226.819413 322.182437)scale(0.1 -0.1)">
       <defs>
        <path d="M 2419 4116 
L 825 1625 
L 2419 1625 
L 2419 4116 
z
M 2253 4666 
L 3047 4666 
L 3047 1625 
L 3713 1625 
L 3713 1100 
L 3047 1100 
L 3047 0 
L 2419 0 
L 2419 1100 
L 313 1100 
L 313 1709 
L 2253 4666 
z
" id="DejaVuSans-34" transform="scale(0.015625)"/>
       </defs>
       <use xlink:href="#DejaVuSans-34"/>
       <use x="63.623047" xlink:href="#DejaVuSans-30"/>
       <use x="127.246094" xlink:href="#DejaVuSans-30"/>
      </g>
     </g>
    </g>
    <g id="xtick_6">
     <g id="line2d_6">
      <g>
       <use style="stroke:#000000;stroke-width:0.8;" x="276.995772" xlink:href="#m50336c60cd" y="307.584"/>
      </g>
     </g>
     <g id="text_6">
      <!-- 500 -->
      <g transform="translate(267.452022 322.182437)scale(0.1 -0.1)">
       <defs>
        <path d="M 691 4666 
L 3169 4666 
L 3169 4134 
L 1269 4134 
L 1269 2991 
Q 1406 3038 1543 3061 
Q 1681 3084 1819 3084 
Q 2600 3084 3056 2656 
Q 3513 2228 3513 1497 
Q 3513 744 3044 326 
Q 2575 -91 1722 -91 
Q 1428 -91 1123 -41 
Q 819 9 494 109 
L 494 744 
Q 775 591 1075 516 
Q 1375 441 1709 441 
Q 2250 441 2565 725 
Q 2881 1009 2881 1497 
Q 2881 1984 2565 2268 
Q 2250 2553 1709 2553 
Q 1456 2553 1204 2497 
Q 953 2441 691 2322 
L 691 4666 
z
" id="DejaVuSans-35" transform="scale(0.015625)"/>
       </defs>
       <use xlink:href="#DejaVuSans-35"/>
       <use x="63.623047" xlink:href="#DejaVuSans-30"/>
       <use x="127.246094" xlink:href="#DejaVuSans-30"/>
      </g>
     </g>
    </g>
    <g id="xtick_7">
     <g id="line2d_7">
      <g>
       <use style="stroke:#000000;stroke-width:0.8;" x="317.628381" xlink:href="#m50336c60cd" y="307.584"/>
      </g>
     </g>
     <g id="text_7">
      <!-- 600 -->
      <g transform="translate(308.084631 322.182437)scale(0.1 -0.1)">
       <defs>
        <path d="M 2113 2584 
Q 1688 2584 1439 2293 
Q 1191 2003 1191 1497 
Q 1191 994 1439 701 
Q 1688 409 2113 409 
Q 2538 409 2786 701 
Q 3034 994 3034 1497 
Q 3034 2003 2786 2293 
Q 2538 2584 2113 2584 
z
M 3366 4563 
L 3366 3988 
Q 3128 4100 2886 4159 
Q 2644 4219 2406 4219 
Q 1781 4219 1451 3797 
Q 1122 3375 1075 2522 
Q 1259 2794 1537 2939 
Q 1816 3084 2150 3084 
Q 2853 3084 3261 2657 
Q 3669 2231 3669 1497 
Q 3669 778 3244 343 
Q 2819 -91 2113 -91 
Q 1303 -91 875 529 
Q 447 1150 447 2328 
Q 447 3434 972 4092 
Q 1497 4750 2381 4750 
Q 2619 4750 2861 4703 
Q 3103 4656 3366 4563 
z
" id="DejaVuSans-36" transform="scale(0.015625)"/>
       </defs>
       <use xlink:href="#DejaVuSans-36"/>
       <use x="63.623047" xlink:href="#DejaVuSans-30"/>
       <use x="127.246094" xlink:href="#DejaVuSans-30"/>
      </g>
     </g>
    </g>
    <g id="xtick_8">
     <g id="line2d_8">
      <g>
       <use style="stroke:#000000;stroke-width:0.8;" x="358.26099" xlink:href="#m50336c60cd" y="307.584"/>
      </g>
     </g>
     <g id="text_8">
      <!-- 700 -->
      <g transform="translate(348.71724 322.182437)scale(0.1 -0.1)">
       <defs>
        <path d="M 525 4666 
L 3525 4666 
L 3525 4397 
L 1831 0 
L 1172 0 
L 2766 4134 
L 525 4134 
L 525 4666 
z
" id="DejaVuSans-37" transform="scale(0.015625)"/>
       </defs>
       <use xlink:href="#DejaVuSans-37"/>
       <use x="63.623047" xlink:href="#DejaVuSans-30"/>
       <use x="127.246094" xlink:href="#DejaVuSans-30"/>
      </g>
     </g>
    </g>
    <g id="xtick_9">
     <g id="line2d_9">
      <g>
       <use style="stroke:#000000;stroke-width:0.8;" x="398.893599" xlink:href="#m50336c60cd" y="307.584"/>
      </g>
     </g>
     <g id="text_9">
      <!-- 800 -->
      <g transform="translate(389.349849 322.182437)scale(0.1 -0.1)">
       <defs>
        <path d="M 2034 2216 
Q 1584 2216 1326 1975 
Q 1069 1734 1069 1313 
Q 1069 891 1326 650 
Q 1584 409 2034 409 
Q 2484 409 2743 651 
Q 3003 894 3003 1313 
Q 3003 1734 2745 1975 
Q 2488 2216 2034 2216 
z
M 1403 2484 
Q 997 2584 770 2862 
Q 544 3141 544 3541 
Q 544 4100 942 4425 
Q 1341 4750 2034 4750 
Q 2731 4750 3128 4425 
Q 3525 4100 3525 3541 
Q 3525 3141 3298 2862 
Q 3072 2584 2669 2484 
Q 3125 2378 3379 2068 
Q 3634 1759 3634 1313 
Q 3634 634 3220 271 
Q 2806 -91 2034 -91 
Q 1263 -91 848 271 
Q 434 634 434 1313 
Q 434 1759 690 2068 
Q 947 2378 1403 2484 
z
M 1172 3481 
Q 1172 3119 1398 2916 
Q 1625 2713 2034 2713 
Q 2441 2713 2670 2916 
Q 2900 3119 2900 3481 
Q 2900 3844 2670 4047 
Q 2441 4250 2034 4250 
Q 1625 4250 1398 4047 
Q 1172 3844 1172 3481 
z
" id="DejaVuSans-38" transform="scale(0.015625)"/>
       </defs>
       <use xlink:href="#DejaVuSans-38"/>
       <use x="63.623047" xlink:href="#DejaVuSans-30"/>
       <use x="127.246094" xlink:href="#DejaVuSans-30"/>
      </g>
     </g>
    </g>
   </g>
   <g id="matplotlib.axis_2">
    <g id="ytick_1">
     <g id="line2d_10">
      <defs>
       <path d="M 0 0 
L -3.5 0 
" id="m19f423ff7e" style="stroke:#000000;stroke-width:0.8;"/>
      </defs>
      <g>
       <use style="stroke:#000000;stroke-width:0.8;" x="57.6" xlink:href="#m19f423ff7e" y="279.890979"/>
      </g>
     </g>
     <g id="text_10">
      <!-- −0.20 -->
      <g transform="translate(19.954687 283.690198)scale(0.1 -0.1)">
       <defs>
        <path d="M 678 2272 
L 4684 2272 
L 4684 1741 
L 678 1741 
L 678 2272 
z
" id="DejaVuSans-2212" transform="scale(0.015625)"/>
        <path d="M 684 794 
L 1344 794 
L 1344 0 
L 684 0 
L 684 794 
z
" id="DejaVuSans-2e" transform="scale(0.015625)"/>
       </defs>
       <use xlink:href="#DejaVuSans-2212"/>
       <use x="83.789062" xlink:href="#DejaVuSans-30"/>
       <use x="147.412109" xlink:href="#DejaVuSans-2e"/>
       <use x="179.199219" xlink:href="#DejaVuSans-32"/>
       <use x="242.822266" xlink:href="#DejaVuSans-30"/>
      </g>
     </g>
    </g>
    <g id="ytick_2">
     <g id="line2d_11">
      <g>
       <use style="stroke:#000000;stroke-width:0.8;" x="57.6" xlink:href="#m19f423ff7e" y="249.8019"/>
      </g>
     </g>
     <g id="text_11">
      <!-- −0.15 -->
      <g transform="translate(19.954687 253.601119)scale(0.1 -0.1)">
       <use xlink:href="#DejaVuSans-2212"/>
       <use x="83.789062" xlink:href="#DejaVuSans-30"/>
       <use x="147.412109" xlink:href="#DejaVuSans-2e"/>
       <use x="179.199219" xlink:href="#DejaVuSans-31"/>
       <use x="242.822266" xlink:href="#DejaVuSans-35"/>
      </g>
     </g>
    </g>
    <g id="ytick_3">
     <g id="line2d_12">
      <g>
       <use style="stroke:#000000;stroke-width:0.8;" x="57.6" xlink:href="#m19f423ff7e" y="219.71282"/>
      </g>
     </g>
     <g id="text_12">
      <!-- −0.10 -->
      <g transform="translate(19.954687 223.512039)scale(0.1 -0.1)">
       <use xlink:href="#DejaVuSans-2212"/>
       <use x="83.789062" xlink:href="#DejaVuSans-30"/>
       <use x="147.412109" xlink:href="#DejaVuSans-2e"/>
       <use x="179.199219" xlink:href="#DejaVuSans-31"/>
       <use x="242.822266" xlink:href="#DejaVuSans-30"/>
      </g>
     </g>
    </g>
    <g id="ytick_4">
     <g id="line2d_13">
      <g>
       <use style="stroke:#000000;stroke-width:0.8;" x="57.6" xlink:href="#m19f423ff7e" y="189.623741"/>
      </g>
     </g>
     <g id="text_13">
      <!-- −0.05 -->
      <g transform="translate(19.954687 193.422959)scale(0.1 -0.1)">
       <use xlink:href="#DejaVuSans-2212"/>
       <use x="83.789062" xlink:href="#DejaVuSans-30"/>
       <use x="147.412109" xlink:href="#DejaVuSans-2e"/>
       <use x="179.199219" xlink:href="#DejaVuSans-30"/>
       <use x="242.822266" xlink:href="#DejaVuSans-35"/>
      </g>
     </g>
    </g>
    <g id="ytick_5">
     <g id="line2d_14">
      <g>
       <use style="stroke:#000000;stroke-width:0.8;" x="57.6" xlink:href="#m19f423ff7e" y="159.534661"/>
      </g>
     </g>
     <g id="text_14">
      <!-- 0.00 -->
      <g transform="translate(28.334375 163.33388)scale(0.1 -0.1)">
       <use xlink:href="#DejaVuSans-30"/>
       <use x="63.623047" xlink:href="#DejaVuSans-2e"/>
       <use x="95.410156" xlink:href="#DejaVuSans-30"/>
       <use x="159.033203" xlink:href="#DejaVuSans-30"/>
      </g>
     </g>
    </g>
    <g id="ytick_6">
     <g id="line2d_15">
      <g>
       <use style="stroke:#000000;stroke-width:0.8;" x="57.6" xlink:href="#m19f423ff7e" y="129.445581"/>
      </g>
     </g>
     <g id="text_15">
      <!-- 0.05 -->
      <g transform="translate(28.334375 133.2448)scale(0.1 -0.1)">
       <use xlink:href="#DejaVuSans-30"/>
       <use x="63.623047" xlink:href="#DejaVuSans-2e"/>
       <use x="95.410156" xlink:href="#DejaVuSans-30"/>
       <use x="159.033203" xlink:href="#DejaVuSans-35"/>
      </g>
     </g>
    </g>
    <g id="ytick_7">
     <g id="line2d_16">
      <g>
       <use style="stroke:#000000;stroke-width:0.8;" x="57.6" xlink:href="#m19f423ff7e" y="99.356502"/>
      </g>
     </g>
     <g id="text_16">
      <!-- 0.10 -->
      <g transform="translate(28.334375 103.15572)scale(0.1 -0.1)">
       <use xlink:href="#DejaVuSans-30"/>
       <use x="63.623047" xlink:href="#DejaVuSans-2e"/>
       <use x="95.410156" xlink:href="#DejaVuSans-31"/>
       <use x="159.033203" xlink:href="#DejaVuSans-30"/>
      </g>
     </g>
    </g>
    <g id="ytick_8">
     <g id="line2d_17">
      <g>
       <use style="stroke:#000000;stroke-width:0.8;" x="57.6" xlink:href="#m19f423ff7e" y="69.267422"/>
      </g>
     </g>
     <g id="text_17">
      <!-- 0.15 -->
      <g transform="translate(28.334375 73.066641)scale(0.1 -0.1)">
       <use xlink:href="#DejaVuSans-30"/>
       <use x="63.623047" xlink:href="#DejaVuSans-2e"/>
       <use x="95.410156" xlink:href="#DejaVuSans-31"/>
       <use x="159.033203" xlink:href="#DejaVuSans-35"/>
      </g>
     </g>
    </g>
   </g>
   <g id="line2d_18">
    <path clip-path="url(#p207cf99eba)" d="M 73.832727 102.046325 
L 74.239053 99.589132 
L 74.645379 104.588618 
L 75.051706 106.119595 
L 75.458032 108.997198 
L 75.864358 105.603775 
L 76.270684 103.828765 
L 76.67701 103.97813 
L 77.083336 107.576236 
L 77.489662 103.548619 
L 77.895988 98.383153 
L 78.302314 103.039529 
L 78.70864 108.991875 
L 79.114966 107.521911 
L 79.521293 104.203893 
L 79.927619 105.703322 
L 80.333945 106.622776 
L 81.146597 98.517588 
L 81.552923 104.869638 
L 81.959249 107.05103 
L 82.365575 106.740971 
L 82.771901 106.006895 
L 83.178227 107.942291 
L 83.584553 103.892459 
L 83.99088 94.732919 
L 84.397206 103.171067 
L 84.803532 108.546639 
L 85.209858 104.744261 
L 85.616184 95.385735 
L 86.02251 105.306394 
L 86.428836 107.601136 
L 86.835162 111.096699 
L 87.241488 97.494437 
L 87.647814 88.269237 
L 88.05414 108.279245 
L 88.460466 107.784285 
L 88.866793 100.40435 
L 89.273119 96.174205 
L 89.679445 108.106903 
L 90.085771 111.307409 
L 90.492097 104.906109 
L 90.898423 86.397902 
L 91.711075 119.359982 
L 92.117401 105.937908 
L 92.523727 107.030206 
L 92.930053 99.70578 
L 93.33638 97.739716 
L 94.149032 110.955916 
L 94.555358 108.752432 
L 94.961684 104.425642 
L 95.36801 108.249726 
L 95.774336 102.433719 
L 96.586988 99.194291 
L 96.993314 106.224266 
L 97.39964 105.034637 
L 97.805967 103.191966 
L 98.212293 104.855068 
L 98.618619 102.973078 
L 99.024945 108.052319 
L 99.837597 97.472198 
L 100.243923 99.762649 
L 100.650249 104.851077 
L 101.056575 100.418197 
L 101.462901 91.474301 
L 101.869227 90.560113 
L 102.68188 107.358643 
L 103.088206 103.285672 
L 103.494532 105.287505 
L 103.900858 114.578371 
L 104.307184 117.919853 
L 105.119836 102.8512 
L 105.526162 99.34193 
L 105.932488 105.821727 
L 106.338814 117.417974 
L 106.745141 114.656242 
L 107.151467 107.078648 
L 107.557793 107.807228 
L 107.964119 109.027126 
L 108.370445 106.77619 
L 108.776771 106.347573 
L 109.183097 101.907207 
L 109.589423 99.188411 
L 109.995749 99.15987 
L 110.808401 93.485432 
L 111.621054 105.518131 
L 112.02738 89.583019 
L 112.433706 101.040398 
L 112.840032 121.031889 
L 113.246358 111.086953 
L 113.652684 117.101089 
L 114.05901 131.90484 
L 114.465336 133.755373 
L 114.871662 133.772619 
L 115.277988 130.600718 
L 115.684314 136.898417 
L 116.090641 92.544828 
L 116.496967 75.235003 
L 116.903293 103.164526 
L 117.309619 89.328811 
L 117.715945 112.519701 
L 118.122271 124.047312 
L 118.528597 118.002448 
L 119.341249 88.856108 
L 119.747575 94.83363 
L 120.560228 120.410831 
L 120.966554 127.189392 
L 121.779206 98.743825 
L 122.185532 101.31492 
L 122.591858 120.51914 
L 122.998184 119.321297 
L 123.40451 114.000662 
L 124.217162 109.387018 
L 124.623488 114.442999 
L 125.029815 115.583792 
L 125.842467 100.405131 
L 126.248793 95.630148 
L 127.061445 101.011464 
L 127.467771 100.251979 
L 127.874097 101.925909 
L 128.280423 101.263397 
L 128.686749 98.52201 
L 129.499402 88.07305 
L 129.905728 88.553125 
L 130.312054 85.141394 
L 130.71838 84.969717 
L 131.124706 89.687788 
L 131.531032 90.009204 
L 132.343684 82.782094 
L 133.156336 88.039898 
L 133.562662 83.812277 
L 133.968989 83.026925 
L 134.375315 84.20831 
L 135.187967 75.099779 
L 135.594293 74.112417 
L 136.000619 74.893558 
L 136.813271 80.473534 
L 137.219597 83.219886 
L 137.625923 82.784339 
L 138.438575 77.360645 
L 138.844902 76.668015 
L 139.251228 79.151732 
L 140.06388 94.719117 
L 140.470206 96.103931 
L 140.876532 95.403709 
L 141.282858 91.755366 
L 141.689184 85.635457 
L 142.09551 86.147336 
L 142.908162 98.777609 
L 144.127141 109.426345 
L 144.533467 110.750912 
L 145.346119 115.946202 
L 145.752445 118.498058 
L 146.158771 122.877649 
L 146.565097 129.412351 
L 146.971423 132.096507 
L 147.377749 130.440364 
L 148.190402 137.459455 
L 148.596728 137.06851 
L 149.003054 136.850881 
L 149.40938 139.622029 
L 149.815706 143.840918 
L 150.222032 144.815731 
L 150.628358 144.426332 
L 151.034684 142.585057 
L 151.44101 143.781949 
L 152.659989 148.275329 
L 153.066315 148.968401 
L 153.472641 150.582183 
L 153.878967 150.477228 
L 154.691619 151.977391 
L 155.097945 154.052124 
L 155.504271 155.306067 
L 155.910597 154.660452 
L 156.316923 155.368265 
L 157.129576 159.7831 
L 157.535902 160.370899 
L 158.348554 158.800673 
L 158.75488 158.948141 
L 159.567532 159.556086 
L 161.192837 166.903888 
L 161.599163 167.798912 
L 162.005489 167.929148 
L 162.411815 169.009229 
L 163.630793 173.979671 
L 164.037119 174.312063 
L 164.443445 172.192579 
L 165.256097 166.117976 
L 165.662423 164.343434 
L 166.06875 163.41999 
L 166.475076 162.083502 
L 166.881402 161.335877 
L 167.287728 162.693914 
L 167.694054 162.424316 
L 168.10038 161.374914 
L 168.506706 162.781463 
L 169.725684 169.863292 
L 170.538337 173.184728 
L 171.350989 171.870645 
L 171.757315 173.609958 
L 172.163641 173.853236 
L 172.569967 173.642192 
L 172.976293 172.32752 
L 173.382619 171.705913 
L 174.601597 165.76439 
L 175.41425 152.557353 
L 175.820576 103.633167 
L 176.226902 148.163789 
L 176.633228 175.277747 
L 177.039554 135.103723 
L 177.44588 150.84579 
L 177.852206 160.960235 
L 178.258532 152.397513 
L 178.664858 168.91468 
L 179.071184 168.642735 
L 179.477511 155.634792 
L 179.883837 152.647017 
L 180.696489 159.426429 
L 181.509141 151.700476 
L 181.915467 142.117108 
L 182.728119 110.446916 
L 183.134445 111.961634 
L 183.947098 125.221744 
L 184.353424 138.432253 
L 184.75975 143.264873 
L 185.166076 137.803514 
L 185.572402 130.69509 
L 185.978728 130.785264 
L 186.385054 128.673295 
L 186.79138 118.53514 
L 187.197706 112.383581 
L 188.010358 104.131246 
L 188.416684 104.664473 
L 189.229337 120.442916 
L 189.635663 124.332139 
L 190.041989 124.854946 
L 190.448315 107.390486 
L 190.854641 73.960805 
L 191.260967 54.623001 
L 191.667293 53.568 
L 192.073619 54.490009 
L 192.479945 55.898429 
L 192.886271 65.466256 
L 193.292598 77.798545 
L 193.698924 82.154482 
L 194.511576 122.26439 
L 194.917902 144.355404 
L 195.324228 155.877732 
L 195.730554 160.079249 
L 196.13688 162.588528 
L 196.949532 169.732097 
L 197.355858 172.002997 
L 197.762185 176.536611 
L 198.574837 201.858418 
L 198.981163 209.064173 
L 199.387489 210.14294 
L 200.200141 200.496462 
L 200.606467 198.851893 
L 201.012793 193.25659 
L 201.419119 195.651813 
L 201.825445 195.943792 
L 202.231772 194.150246 
L 202.638098 191.160139 
L 203.044424 185.434413 
L 203.45075 189.097477 
L 203.857076 185.653616 
L 204.263402 180.372744 
L 204.669728 183.481247 
L 205.076054 188.199025 
L 205.48238 190.659423 
L 205.888706 196.500293 
L 206.701359 219.905315 
L 207.107685 225.562517 
L 207.514011 229.390904 
L 208.326663 205.048676 
L 209.139315 240.603652 
L 209.545641 241.258728 
L 209.951967 239.409863 
L 210.764619 248.305273 
L 211.170946 239.385557 
L 211.577272 227.573019 
L 211.983598 230.455137 
L 212.389924 232.486959 
L 212.79625 225.067385 
L 213.202576 222.287947 
L 213.608902 227.342748 
L 214.015228 243.754375 
L 214.421554 248.027922 
L 214.82788 194.919799 
L 215.234206 232.673452 
L 215.640532 295.488 
L 216.046859 282.733018 
L 216.453185 257.230986 
L 217.265837 229.084394 
L 217.672163 223.038824 
L 218.078489 224.605103 
L 218.891141 241.130747 
L 219.297467 254.698778 
L 219.703793 256.007028 
L 220.110119 249.368194 
L 220.922772 254.434789 
L 221.329098 252.371007 
L 221.735424 246.784442 
L 222.548076 231.665906 
L 222.954402 230.501126 
L 223.360728 231.481483 
L 223.767054 222.615953 
L 224.579706 180.714282 
L 224.986033 146.887622 
L 225.392359 139.567225 
L 225.798685 145.737083 
L 226.205011 139.39421 
L 226.611337 137.767561 
L 227.423989 131.230101 
L 227.830315 137.032821 
L 228.236641 147.301846 
L 229.049293 174.263429 
L 229.45562 182.902416 
L 229.861946 185.684116 
L 230.268272 183.477206 
L 230.674598 185.494251 
L 231.080924 192.607663 
L 232.299902 201.816123 
L 232.706228 204.122779 
L 233.112554 209.273214 
L 233.51888 217.172996 
L 233.925207 222.891324 
L 234.331533 226.334352 
L 234.737859 224.568318 
L 235.144185 221.724571 
L 235.550511 217.405618 
L 235.956837 201.209291 
L 236.363163 169.622918 
L 236.769489 172.079528 
L 237.582141 264.815514 
L 237.988467 256.458751 
L 238.394793 231.662541 
L 238.80112 221.428067 
L 239.207446 214.664034 
L 239.613772 211.617334 
L 240.020098 211.673532 
L 240.426424 211.20318 
L 240.83275 211.449686 
L 241.239076 212.871773 
L 241.645402 213.224114 
L 242.051728 211.311219 
L 242.458054 212.317959 
L 242.86438 216.594237 
L 243.270707 218.310188 
L 243.677033 218.672578 
L 244.083359 214.421447 
L 244.489685 207.421043 
L 244.896011 202.525097 
L 245.302337 202.06769 
L 245.708663 202.409297 
L 246.114989 199.599295 
L 246.521315 195.834128 
L 246.927641 159.838633 
L 247.333967 156.136405 
L 247.740294 147.132023 
L 248.552946 93.320033 
L 248.959272 83.337891 
L 249.771924 109.241279 
L 250.17825 116.517302 
L 250.584576 117.760091 
L 250.990902 118.491571 
L 251.397228 124.125882 
L 251.803554 138.908894 
L 252.209881 140.613451 
L 252.616207 140.355502 
L 253.022533 136.478101 
L 253.428859 137.454924 
L 254.241511 147.895459 
L 254.647837 145.176462 
L 255.054163 145.589704 
L 255.460489 149.024198 
L 255.866815 149.768866 
L 256.273141 152.6597 
L 256.679468 154.084721 
L 257.085794 156.936212 
L 257.49212 158.234284 
L 257.898446 158.624574 
L 258.304772 159.782776 
L 258.711098 161.55097 
L 259.117424 162.68963 
L 260.742728 173.448124 
L 261.149054 174.096202 
L 262.368033 174.940305 
L 262.774359 174.72559 
L 263.993337 177.060091 
L 264.399663 176.575744 
L 264.805989 175.139745 
L 265.618641 176.056017 
L 266.024968 174.340064 
L 266.431294 173.703354 
L 267.243946 175.27375 
L 267.650272 174.914271 
L 268.056598 173.858016 
L 268.462924 171.834757 
L 269.275576 169.664388 
L 269.681902 166.671435 
L 270.088228 165.047168 
L 270.494555 165.141296 
L 270.900881 164.331694 
L 271.307207 163.000068 
L 271.713533 161.110167 
L 272.119859 157.617985 
L 272.526185 156.486894 
L 272.932511 156.25085 
L 273.338837 155.734499 
L 274.151489 157.364262 
L 274.557815 157.368515 
L 274.964142 156.922869 
L 275.370468 156.106518 
L 275.776794 153.346574 
L 276.589446 145.077073 
L 276.995772 143.194731 
L 277.402098 143.152338 
L 277.808424 144.024653 
L 278.21475 145.59824 
L 279.027402 147.260643 
L 279.433729 147.876689 
L 279.840055 148.119173 
L 280.246381 148.607526 
L 280.652707 149.80006 
L 281.059033 150.146683 
L 281.465359 150.145777 
L 282.278011 153.139227 
L 282.684337 153.543288 
L 283.090663 152.37635 
L 283.903316 153.660498 
L 284.715968 150.233585 
L 285.52862 145.98636 
L 285.934946 144.816956 
L 286.747598 143.603516 
L 287.56025 142.106178 
L 288.372902 139.391533 
L 288.779229 139.019564 
L 289.185555 139.14036 
L 289.591881 139.430374 
L 290.404533 141.691704 
L 290.810859 137.904676 
L 291.217185 135.382238 
L 291.623511 134.010325 
L 292.029837 133.853942 
L 292.436163 134.877498 
L 292.842489 134.805288 
L 293.248816 133.853661 
L 293.655142 132.607818 
L 294.061468 130.566432 
L 294.467794 129.5317 
L 294.87412 129.358402 
L 295.686772 125.938175 
L 296.093098 125.116709 
L 296.499424 125.156199 
L 296.90575 123.740408 
L 297.312076 121.297093 
L 297.718403 120.184248 
L 298.531055 120.052343 
L 298.937381 120.602551 
L 299.343707 119.335143 
L 299.750033 116.934508 
L 300.562685 113.835688 
L 301.375337 112.271166 
L 301.781663 111.089376 
L 302.18799 110.862142 
L 302.594316 109.656942 
L 303.000642 107.222679 
L 303.406968 105.610128 
L 303.813294 105.052244 
L 304.21962 104.002267 
L 305.032272 100.47576 
L 305.438598 100.816931 
L 305.844924 99.962189 
L 306.25125 98.118254 
L 306.657577 98.119556 
L 307.063903 98.466182 
L 307.470229 98.246307 
L 308.282881 97.426536 
L 308.689207 97.931456 
L 309.501859 99.231621 
L 309.908185 99.527811 
L 310.314511 100.078088 
L 310.720837 101.553977 
L 311.127163 102.099674 
L 311.53349 102.283758 
L 311.939816 101.89639 
L 312.346142 102.59026 
L 312.752468 103.02883 
L 313.158794 102.82133 
L 313.56512 102.367053 
L 314.377772 102.87643 
L 316.409403 107.445831 
L 318.034707 112.130813 
L 318.441033 112.689058 
L 318.847359 112.5636 
L 319.253685 111.370784 
L 319.660011 109.772618 
L 320.472664 107.60938 
L 321.285316 104.073785 
L 322.097968 102.122642 
L 322.504294 102.004532 
L 322.91062 102.227455 
L 323.723272 103.248876 
L 324.129598 103.310767 
L 324.535924 103.179703 
L 324.942251 104.477022 
L 325.754903 108.847855 
L 326.973881 112.000652 
L 328.192859 116.922394 
L 329.005511 118.437129 
L 329.411838 119.380085 
L 330.22449 120.073429 
L 331.849794 124.838244 
L 332.662446 125.629829 
L 333.068772 126.709236 
L 333.475098 127.285618 
L 335.506729 132.36442 
L 335.913055 133.810317 
L 336.319381 134.398569 
L 336.725707 134.77203 
L 337.132033 135.52513 
L 337.538359 136.568607 
L 338.757338 137.983763 
L 339.56999 138.973092 
L 339.976316 138.709325 
L 340.382642 138.986818 
L 340.788968 139.694623 
L 341.195294 140.050409 
L 341.60162 140.018302 
L 342.007946 139.613719 
L 342.414272 138.936923 
L 343.226925 135.434357 
L 344.039577 131.287852 
L 344.445903 128.643605 
L 345.258555 122.409858 
L 345.664881 120.050259 
L 346.071207 121.679391 
L 346.477533 125.172918 
L 346.883859 126.198025 
L 347.290185 126.712842 
L 348.102838 113.966465 
L 348.509164 129.038248 
L 348.91549 133.306632 
L 349.321816 124.803335 
L 349.728142 131.582763 
L 350.134468 131.499636 
L 350.540794 129.486964 
L 351.353446 145.021311 
L 351.759772 146.483429 
L 352.166099 141.238607 
L 352.572425 130.941431 
L 352.978751 124.192127 
L 353.385077 124.957289 
L 353.791403 124.278998 
L 354.197729 125.242608 
L 354.604055 133.108126 
L 355.010381 136.426647 
L 355.416707 136.726844 
L 355.823033 137.27988 
L 356.229359 135.628421 
L 356.635686 132.77786 
L 357.042012 131.748236 
L 357.448338 133.489933 
L 357.854664 133.256279 
L 358.26099 133.962582 
L 358.667316 145.589142 
L 359.073642 145.435284 
L 359.479968 137.857689 
L 359.886294 135.983832 
L 360.29262 134.659321 
L 360.698946 126.124337 
L 361.105272 122.794903 
L 361.511599 122.57416 
L 361.917925 128.038686 
L 362.324251 128.529028 
L 362.730577 130.764849 
L 363.543229 123.529744 
L 364.355881 127.667662 
L 364.762207 131.300271 
L 365.168533 125.537631 
L 365.574859 122.4838 
L 365.981186 122.031161 
L 366.387512 120.689818 
L 366.793838 119.802301 
L 367.200164 116.24587 
L 368.012816 105.234885 
L 368.419142 98.614944 
L 368.825468 95.071321 
L 369.63812 90.799898 
L 370.857099 86.09191 
L 371.263425 84.150008 
L 371.669751 81.664774 
L 372.076077 81.914294 
L 372.888729 90.234904 
L 373.295055 90.4102 
L 373.701381 87.122547 
L 374.107707 85.186179 
L 374.514033 87.933634 
L 375.326686 79.37117 
L 376.139338 79.728636 
L 376.95199 87.452644 
L 377.358316 87.75006 
L 377.764642 92.157989 
L 378.170968 92.943881 
L 378.577294 90.66415 
L 378.98362 94.210791 
L 379.389947 111.167275 
L 379.796273 120.299606 
L 380.202599 123.758163 
L 381.421577 109.548281 
L 382.234229 102.418232 
L 383.046881 111.965775 
L 383.453207 113.436957 
L 383.859534 118.114468 
L 384.26586 116.850642 
L 385.078512 104.038707 
L 385.484838 105.604708 
L 385.891164 107.810448 
L 386.29749 113.525319 
L 386.703816 116.912031 
L 387.110142 114.581828 
L 387.516468 114.483169 
L 387.922794 115.757493 
L 388.32912 118.336391 
L 388.735447 127.293657 
L 389.548099 130.617288 
L 389.954425 131.226818 
L 390.360751 129.257207 
L 390.767077 130.239461 
L 391.173403 130.788283 
L 391.579729 134.927509 
L 391.986055 134.471899 
L 392.392381 132.269402 
L 392.798707 126.989005 
L 393.205034 119.764643 
L 393.61136 120.237551 
L 394.017686 121.555195 
L 394.424012 109.263969 
L 394.830338 109.414747 
L 395.236664 118.961681 
L 395.64299 117.130207 
L 396.049316 105.914083 
L 396.455642 103.247908 
L 396.861968 103.317284 
L 397.268294 101.393059 
L 397.674621 98.739959 
L 398.080947 97.282917 
L 398.487273 100.150882 
L 398.487273 100.150882 
" style="fill:none;stroke:#1f77b4;stroke-linecap:square;stroke-width:1.5;"/>
   </g>
   <g id="patch_3">
    <path d="M 57.6 307.584 
L 57.6 41.472 
" style="fill:none;stroke:#000000;stroke-linecap:square;stroke-linejoin:miter;stroke-width:0.8;"/>
   </g>
   <g id="patch_4">
    <path d="M 414.72 307.584 
L 414.72 41.472 
" style="fill:none;stroke:#000000;stroke-linecap:square;stroke-linejoin:miter;stroke-width:0.8;"/>
   </g>
   <g id="patch_5">
    <path d="M 57.6 307.584 
L 414.72 307.584 
" style="fill:none;stroke:#000000;stroke-linecap:square;stroke-linejoin:miter;stroke-width:0.8;"/>
   </g>
   <g id="patch_6">
    <path d="M 57.6 41.472 
L 414.72 41.472 
" style="fill:none;stroke:#000000;stroke-linecap:square;stroke-linejoin:miter;stroke-width:0.8;"/>
   </g>
  </g>
 </g>
 <defs>
  <clipPath id="p207cf99eba">
   <rect height="266.112" width="357.12" x="57.6" y="41.472"/>
  </clipPath>
 </defs>
</svg>
