<?xml version="1.0" encoding="utf-8" standalone="no"?>
<!DOCTYPE svg PUBLIC "-//W3C//DTD SVG 1.1//EN"
  "http://www.w3.org/Graphics/SVG/1.1/DTD/svg11.dtd">
<svg height="345.6pt" version="1.1" viewBox="0 0 460.8 345.6" width="460.8pt" xmlns="http://www.w3.org/2000/svg" xmlns:xlink="http://www.w3.org/1999/xlink">
 <metadata>
  <rdf:RDF xmlns:cc="http://creativecommons.org/ns#" xmlns:dc="http://purl.org/dc/elements/1.1/" xmlns:rdf="http://www.w3.org/1999/02/22-rdf-syntax-ns#">
   <cc:Work>
    <dc:type rdf:resource="http://purl.org/dc/dcmitype/StillImage"/>
    <dc:date>2022-10-27T16:44:51.651106</dc:date>
    <dc:format>image/svg+xml</dc:format>
    <dc:creator>
     <cc:Agent>
      <dc:title>Matplotlib v3.4.2, https://matplotlib.org/</dc:title>
     </cc:Agent>
    </dc:creator>
   </cc:Work>
  </rdf:RDF>
 </metadata>
 <defs>
  <style type="text/css">*{stroke-linecap:butt;stroke-linejoin:round;}</style>
 </defs>
 <g id="figure_1">
  <g id="patch_1">
   <path d="M 0 345.6 
L 460.8 345.6 
L 460.8 0 
L 0 0 
z
" style="fill:#ffffff;"/>
  </g>
  <g id="axes_1">
   <g id="patch_2">
    <path d="M 57.6 307.584 
L 414.72 307.584 
L 414.72 41.472 
L 57.6 41.472 
z
" style="fill:#ffffff;"/>
   </g>
   <g id="matplotlib.axis_1">
    <g id="xtick_1">
     <g id="line2d_1">
      <defs>
       <path d="M 0 0 
L 0 3.5 
" id="mcb116823df" style="stroke:#000000;stroke-width:0.8;"/>
      </defs>
      <g>
       <use style="stroke:#000000;stroke-width:0.8;" x="73.832727" xlink:href="#mcb116823df" y="307.584"/>
      </g>
     </g>
     <g id="text_1">
      <!-- 0 -->
      <g transform="translate(70.651477 322.182437)scale(0.1 -0.1)">
       <defs>
        <path d="M 2034 4250 
Q 1547 4250 1301 3770 
Q 1056 3291 1056 2328 
Q 1056 1369 1301 889 
Q 1547 409 2034 409 
Q 2525 409 2770 889 
Q 3016 1369 3016 2328 
Q 3016 3291 2770 3770 
Q 2525 4250 2034 4250 
z
M 2034 4750 
Q 2819 4750 3233 4129 
Q 3647 3509 3647 2328 
Q 3647 1150 3233 529 
Q 2819 -91 2034 -91 
Q 1250 -91 836 529 
Q 422 1150 422 2328 
Q 422 3509 836 4129 
Q 1250 4750 2034 4750 
z
" id="DejaVuSans-30" transform="scale(0.015625)"/>
       </defs>
       <use xlink:href="#DejaVuSans-30"/>
      </g>
     </g>
    </g>
    <g id="xtick_2">
     <g id="line2d_2">
      <g>
       <use style="stroke:#000000;stroke-width:0.8;" x="120.2451" xlink:href="#mcb116823df" y="307.584"/>
      </g>
     </g>
     <g id="text_2">
      <!-- 200 -->
      <g transform="translate(110.70135 322.182437)scale(0.1 -0.1)">
       <defs>
        <path d="M 1228 531 
L 3431 531 
L 3431 0 
L 469 0 
L 469 531 
Q 828 903 1448 1529 
Q 2069 2156 2228 2338 
Q 2531 2678 2651 2914 
Q 2772 3150 2772 3378 
Q 2772 3750 2511 3984 
Q 2250 4219 1831 4219 
Q 1534 4219 1204 4116 
Q 875 4013 500 3803 
L 500 4441 
Q 881 4594 1212 4672 
Q 1544 4750 1819 4750 
Q 2544 4750 2975 4387 
Q 3406 4025 3406 3419 
Q 3406 3131 3298 2873 
Q 3191 2616 2906 2266 
Q 2828 2175 2409 1742 
Q 1991 1309 1228 531 
z
" id="DejaVuSans-32" transform="scale(0.015625)"/>
       </defs>
       <use xlink:href="#DejaVuSans-32"/>
       <use x="63.623047" xlink:href="#DejaVuSans-30"/>
       <use x="127.246094" xlink:href="#DejaVuSans-30"/>
      </g>
     </g>
    </g>
    <g id="xtick_3">
     <g id="line2d_3">
      <g>
       <use style="stroke:#000000;stroke-width:0.8;" x="166.657472" xlink:href="#mcb116823df" y="307.584"/>
      </g>
     </g>
     <g id="text_3">
      <!-- 400 -->
      <g transform="translate(157.113722 322.182437)scale(0.1 -0.1)">
       <defs>
        <path d="M 2419 4116 
L 825 1625 
L 2419 1625 
L 2419 4116 
z
M 2253 4666 
L 3047 4666 
L 3047 1625 
L 3713 1625 
L 3713 1100 
L 3047 1100 
L 3047 0 
L 2419 0 
L 2419 1100 
L 313 1100 
L 313 1709 
L 2253 4666 
z
" id="DejaVuSans-34" transform="scale(0.015625)"/>
       </defs>
       <use xlink:href="#DejaVuSans-34"/>
       <use x="63.623047" xlink:href="#DejaVuSans-30"/>
       <use x="127.246094" xlink:href="#DejaVuSans-30"/>
      </g>
     </g>
    </g>
    <g id="xtick_4">
     <g id="line2d_4">
      <g>
       <use style="stroke:#000000;stroke-width:0.8;" x="213.069845" xlink:href="#mcb116823df" y="307.584"/>
      </g>
     </g>
     <g id="text_4">
      <!-- 600 -->
      <g transform="translate(203.526095 322.182437)scale(0.1 -0.1)">
       <defs>
        <path d="M 2113 2584 
Q 1688 2584 1439 2293 
Q 1191 2003 1191 1497 
Q 1191 994 1439 701 
Q 1688 409 2113 409 
Q 2538 409 2786 701 
Q 3034 994 3034 1497 
Q 3034 2003 2786 2293 
Q 2538 2584 2113 2584 
z
M 3366 4563 
L 3366 3988 
Q 3128 4100 2886 4159 
Q 2644 4219 2406 4219 
Q 1781 4219 1451 3797 
Q 1122 3375 1075 2522 
Q 1259 2794 1537 2939 
Q 1816 3084 2150 3084 
Q 2853 3084 3261 2657 
Q 3669 2231 3669 1497 
Q 3669 778 3244 343 
Q 2819 -91 2113 -91 
Q 1303 -91 875 529 
Q 447 1150 447 2328 
Q 447 3434 972 4092 
Q 1497 4750 2381 4750 
Q 2619 4750 2861 4703 
Q 3103 4656 3366 4563 
z
" id="DejaVuSans-36" transform="scale(0.015625)"/>
       </defs>
       <use xlink:href="#DejaVuSans-36"/>
       <use x="63.623047" xlink:href="#DejaVuSans-30"/>
       <use x="127.246094" xlink:href="#DejaVuSans-30"/>
      </g>
     </g>
    </g>
    <g id="xtick_5">
     <g id="line2d_5">
      <g>
       <use style="stroke:#000000;stroke-width:0.8;" x="259.482217" xlink:href="#mcb116823df" y="307.584"/>
      </g>
     </g>
     <g id="text_5">
      <!-- 800 -->
      <g transform="translate(249.938467 322.182437)scale(0.1 -0.1)">
       <defs>
        <path d="M 2034 2216 
Q 1584 2216 1326 1975 
Q 1069 1734 1069 1313 
Q 1069 891 1326 650 
Q 1584 409 2034 409 
Q 2484 409 2743 651 
Q 3003 894 3003 1313 
Q 3003 1734 2745 1975 
Q 2488 2216 2034 2216 
z
M 1403 2484 
Q 997 2584 770 2862 
Q 544 3141 544 3541 
Q 544 4100 942 4425 
Q 1341 4750 2034 4750 
Q 2731 4750 3128 4425 
Q 3525 4100 3525 3541 
Q 3525 3141 3298 2862 
Q 3072 2584 2669 2484 
Q 3125 2378 3379 2068 
Q 3634 1759 3634 1313 
Q 3634 634 3220 271 
Q 2806 -91 2034 -91 
Q 1263 -91 848 271 
Q 434 634 434 1313 
Q 434 1759 690 2068 
Q 947 2378 1403 2484 
z
M 1172 3481 
Q 1172 3119 1398 2916 
Q 1625 2713 2034 2713 
Q 2441 2713 2670 2916 
Q 2900 3119 2900 3481 
Q 2900 3844 2670 4047 
Q 2441 4250 2034 4250 
Q 1625 4250 1398 4047 
Q 1172 3844 1172 3481 
z
" id="DejaVuSans-38" transform="scale(0.015625)"/>
       </defs>
       <use xlink:href="#DejaVuSans-38"/>
       <use x="63.623047" xlink:href="#DejaVuSans-30"/>
       <use x="127.246094" xlink:href="#DejaVuSans-30"/>
      </g>
     </g>
    </g>
    <g id="xtick_6">
     <g id="line2d_6">
      <g>
       <use style="stroke:#000000;stroke-width:0.8;" x="305.89459" xlink:href="#mcb116823df" y="307.584"/>
      </g>
     </g>
     <g id="text_6">
      <!-- 1000 -->
      <g transform="translate(293.16959 322.182437)scale(0.1 -0.1)">
       <defs>
        <path d="M 794 531 
L 1825 531 
L 1825 4091 
L 703 3866 
L 703 4441 
L 1819 4666 
L 2450 4666 
L 2450 531 
L 3481 531 
L 3481 0 
L 794 0 
L 794 531 
z
" id="DejaVuSans-31" transform="scale(0.015625)"/>
       </defs>
       <use xlink:href="#DejaVuSans-31"/>
       <use x="63.623047" xlink:href="#DejaVuSans-30"/>
       <use x="127.246094" xlink:href="#DejaVuSans-30"/>
       <use x="190.869141" xlink:href="#DejaVuSans-30"/>
      </g>
     </g>
    </g>
    <g id="xtick_7">
     <g id="line2d_7">
      <g>
       <use style="stroke:#000000;stroke-width:0.8;" x="352.306962" xlink:href="#mcb116823df" y="307.584"/>
      </g>
     </g>
     <g id="text_7">
      <!-- 1200 -->
      <g transform="translate(339.581962 322.182437)scale(0.1 -0.1)">
       <use xlink:href="#DejaVuSans-31"/>
       <use x="63.623047" xlink:href="#DejaVuSans-32"/>
       <use x="127.246094" xlink:href="#DejaVuSans-30"/>
       <use x="190.869141" xlink:href="#DejaVuSans-30"/>
      </g>
     </g>
    </g>
    <g id="xtick_8">
     <g id="line2d_8">
      <g>
       <use style="stroke:#000000;stroke-width:0.8;" x="398.719335" xlink:href="#mcb116823df" y="307.584"/>
      </g>
     </g>
     <g id="text_8">
      <!-- 1400 -->
      <g transform="translate(385.994335 322.182437)scale(0.1 -0.1)">
       <use xlink:href="#DejaVuSans-31"/>
       <use x="63.623047" xlink:href="#DejaVuSans-34"/>
       <use x="127.246094" xlink:href="#DejaVuSans-30"/>
       <use x="190.869141" xlink:href="#DejaVuSans-30"/>
      </g>
     </g>
    </g>
   </g>
   <g id="matplotlib.axis_2">
    <g id="ytick_1">
     <g id="line2d_9">
      <defs>
       <path d="M 0 0 
L -3.5 0 
" id="mcd175b19fb" style="stroke:#000000;stroke-width:0.8;"/>
      </defs>
      <g>
       <use style="stroke:#000000;stroke-width:0.8;" x="57.6" xlink:href="#mcd175b19fb" y="268.528077"/>
      </g>
     </g>
     <g id="text_9">
      <!-- −0.2 -->
      <g transform="translate(26.317187 272.327295)scale(0.1 -0.1)">
       <defs>
        <path d="M 678 2272 
L 4684 2272 
L 4684 1741 
L 678 1741 
L 678 2272 
z
" id="DejaVuSans-2212" transform="scale(0.015625)"/>
        <path d="M 684 794 
L 1344 794 
L 1344 0 
L 684 0 
L 684 794 
z
" id="DejaVuSans-2e" transform="scale(0.015625)"/>
       </defs>
       <use xlink:href="#DejaVuSans-2212"/>
       <use x="83.789062" xlink:href="#DejaVuSans-30"/>
       <use x="147.412109" xlink:href="#DejaVuSans-2e"/>
       <use x="179.199219" xlink:href="#DejaVuSans-32"/>
      </g>
     </g>
    </g>
    <g id="ytick_2">
     <g id="line2d_10">
      <g>
       <use style="stroke:#000000;stroke-width:0.8;" x="57.6" xlink:href="#mcd175b19fb" y="209.597102"/>
      </g>
     </g>
     <g id="text_10">
      <!-- −0.1 -->
      <g transform="translate(26.317187 213.396321)scale(0.1 -0.1)">
       <use xlink:href="#DejaVuSans-2212"/>
       <use x="83.789062" xlink:href="#DejaVuSans-30"/>
       <use x="147.412109" xlink:href="#DejaVuSans-2e"/>
       <use x="179.199219" xlink:href="#DejaVuSans-31"/>
      </g>
     </g>
    </g>
    <g id="ytick_3">
     <g id="line2d_11">
      <g>
       <use style="stroke:#000000;stroke-width:0.8;" x="57.6" xlink:href="#mcd175b19fb" y="150.666127"/>
      </g>
     </g>
     <g id="text_11">
      <!-- 0.0 -->
      <g transform="translate(34.696875 154.465346)scale(0.1 -0.1)">
       <use xlink:href="#DejaVuSans-30"/>
       <use x="63.623047" xlink:href="#DejaVuSans-2e"/>
       <use x="95.410156" xlink:href="#DejaVuSans-30"/>
      </g>
     </g>
    </g>
    <g id="ytick_4">
     <g id="line2d_12">
      <g>
       <use style="stroke:#000000;stroke-width:0.8;" x="57.6" xlink:href="#mcd175b19fb" y="91.735152"/>
      </g>
     </g>
     <g id="text_12">
      <!-- 0.1 -->
      <g transform="translate(34.696875 95.534371)scale(0.1 -0.1)">
       <use xlink:href="#DejaVuSans-30"/>
       <use x="63.623047" xlink:href="#DejaVuSans-2e"/>
       <use x="95.410156" xlink:href="#DejaVuSans-31"/>
      </g>
     </g>
    </g>
   </g>
   <g id="line2d_13">
    <path clip-path="url(#pc067ff2742)" d="M 73.832727 270.266242 
L 74.064789 268.975632 
L 74.296851 264.415441 
L 74.528913 262.184173 
L 74.760975 264.739521 
L 74.993037 265.718844 
L 75.689222 260.957712 
L 75.921284 261.430624 
L 76.385408 266.375428 
L 76.61747 267.308155 
L 76.849531 265.484954 
L 77.081593 262.642504 
L 77.313655 263.228092 
L 77.545717 265.768455 
L 77.777779 265.856485 
L 78.241903 262.629099 
L 78.473965 262.648628 
L 78.706026 263.972133 
L 78.938088 263.718323 
L 79.17015 262.037129 
L 79.402212 261.242494 
L 79.634274 261.031229 
L 79.866336 261.78444 
L 80.098398 260.912886 
L 80.562521 256.691006 
L 80.794583 256.250555 
L 81.026645 256.337838 
L 81.258707 258.360449 
L 81.490769 258.851031 
L 81.954892 256.647437 
L 82.186954 258.796354 
L 82.419016 262.122816 
L 82.651078 261.882388 
L 82.88314 258.659865 
L 83.115202 257.497826 
L 83.347264 258.230451 
L 83.579325 262.607594 
L 83.811387 261.869515 
L 84.275511 254.367165 
L 84.507573 254.219894 
L 84.739635 255.593574 
L 84.971697 255.271621 
L 85.203759 255.403663 
L 85.43582 254.957611 
L 85.667882 255.933484 
L 85.899944 255.963662 
L 86.364068 253.296553 
L 86.59613 253.414375 
L 86.828192 254.610862 
L 87.060253 254.915317 
L 87.756439 250.758108 
L 88.220563 251.536304 
L 88.684686 250.848833 
L 89.14881 253.347874 
L 89.380872 253.41539 
L 89.844996 250.623878 
L 90.30912 247.482502 
L 90.541181 246.802033 
L 90.773243 247.872987 
L 91.237367 251.345421 
L 91.469429 250.387892 
L 91.933553 247.560313 
L 92.629738 246.802878 
L 93.325924 247.557635 
L 93.557986 248.202144 
L 93.790047 247.791221 
L 94.254171 245.096813 
L 94.718295 243.612476 
L 94.950357 243.914 
L 95.41448 245.757602 
L 95.646542 248.155285 
L 95.878604 248.980688 
L 96.110666 247.596568 
L 96.57479 240.779352 
L 96.806852 239.986712 
L 97.038914 240.994413 
L 97.503037 244.284402 
L 97.735099 244.406966 
L 97.967161 243.432536 
L 98.199223 241.922783 
L 98.431285 239.272012 
L 98.663347 238.759159 
L 98.895408 239.557414 
L 99.359532 239.64683 
L 99.591594 238.961606 
L 99.823656 238.781345 
L 100.055718 238.911942 
L 100.28778 237.49204 
L 100.519841 237.237646 
L 100.751903 236.160755 
L 101.216027 228.421982 
L 101.680151 220.816984 
L 102.144274 217.494498 
L 102.376336 214.426807 
L 102.84046 200.18003 
L 103.072522 200.092574 
L 103.536646 211.337911 
L 103.768708 212.497859 
L 104.232831 197.483112 
L 104.464893 205.497374 
L 104.696955 208.465743 
L 104.929017 197.755319 
L 105.161079 199.751528 
L 105.393141 215.286169 
L 105.625202 221.498241 
L 105.857264 223.077227 
L 106.089326 229.861622 
L 106.55345 260.417174 
L 107.017574 287.483752 
L 107.481697 293.742018 
L 107.713759 294.36895 
L 107.945821 292.714949 
L 108.642007 281.884957 
L 109.10613 271.17539 
L 110.26644 233.912845 
L 110.730563 228.670046 
L 111.194687 227.017825 
L 111.426749 223.411342 
L 111.890873 221.441109 
L 112.122935 217.987434 
L 112.587058 201.655511 
L 113.051182 191.649155 
L 113.283244 191.185941 
L 113.515306 192.845038 
L 113.747368 185.12236 
L 113.979429 183.551387 
L 114.211491 188.508285 
L 114.443553 177.574836 
L 114.907677 173.52303 
L 115.139739 162.242323 
L 115.371801 174.666286 
L 115.603862 122.158613 
L 115.835924 119.958898 
L 116.067986 129.95877 
L 116.764172 231.06115 
L 116.996234 229.440693 
L 117.460357 245.873103 
L 117.692419 241.387958 
L 118.388605 223.052158 
L 118.620667 223.284899 
L 118.852729 221.836125 
L 119.08479 215.759267 
L 119.316852 215.790412 
L 119.548914 215.620774 
L 119.780976 213.274216 
L 120.013038 216.82424 
L 120.477162 227.234852 
L 120.709223 228.04996 
L 121.405409 218.035408 
L 121.869533 210.500148 
L 122.101595 211.719263 
L 122.79778 229.615072 
L 123.029842 229.302045 
L 123.261904 229.524807 
L 123.493966 227.4323 
L 123.95809 217.387078 
L 124.422213 222.791446 
L 124.886337 222.746973 
L 125.118399 225.650511 
L 125.350461 223.673846 
L 125.582523 223.920311 
L 125.814584 221.14167 
L 126.278708 205.710312 
L 126.974894 219.72926 
L 127.206956 219.686638 
L 127.671079 212.242695 
L 128.135203 215.316837 
L 128.367265 221.238506 
L 128.599327 222.322313 
L 128.831389 218.335038 
L 129.063451 219.319083 
L 129.295512 225.944135 
L 129.527574 221.285402 
L 129.759636 221.720791 
L 129.991698 222.631952 
L 130.22376 219.624635 
L 130.455822 224.30334 
L 130.687884 225.716717 
L 130.919945 219.052488 
L 131.152007 220.784329 
L 131.384069 223.958089 
L 131.616131 223.056239 
L 131.848193 224.294597 
L 132.080255 226.480202 
L 132.312317 220.956372 
L 132.544378 218.519548 
L 132.77644 224.106002 
L 133.008502 224.378405 
L 133.240564 220.144041 
L 133.472626 220.225555 
L 134.168811 226.674772 
L 134.400873 224.191491 
L 134.632935 220.048619 
L 134.864997 221.247146 
L 135.097059 224.731966 
L 135.329121 224.45352 
L 135.561183 222.865315 
L 135.793245 222.054325 
L 136.025306 221.89039 
L 136.257368 222.90177 
L 136.48943 221.0661 
L 136.721492 215.743665 
L 136.953554 214.04772 
L 137.649739 226.166903 
L 137.881801 225.747582 
L 138.577987 216.917004 
L 139.042111 221.400854 
L 139.274172 220.893653 
L 139.738296 215.455163 
L 139.970358 215.204899 
L 140.434482 221.192025 
L 140.666544 220.655452 
L 140.898605 218.824662 
L 141.130667 218.321467 
L 141.362729 219.296062 
L 141.594791 225.740405 
L 141.826853 223.289653 
L 142.058915 213.193348 
L 142.290977 211.300187 
L 142.523039 221.783242 
L 142.7551 201.625004 
L 142.987162 211.366272 
L 143.219224 202.690882 
L 143.451286 215.919911 
L 143.683348 210.657315 
L 143.91541 240.076638 
L 144.147472 219.312585 
L 144.379533 228.092384 
L 144.611595 243.439968 
L 144.843657 210.982018 
L 145.075719 194.492441 
L 145.307781 204.92563 
L 145.539843 209.857432 
L 145.771905 207.349254 
L 146.003966 196.513772 
L 146.236028 239.95218 
L 146.700152 173.064083 
L 147.164276 219.805756 
L 147.396338 213.546219 
L 147.6284 215.640655 
L 148.092523 201.303688 
L 148.324585 203.500074 
L 148.556647 234.075955 
L 149.020771 209.369611 
L 149.252833 217.482295 
L 149.484894 219.652736 
L 149.716956 210.891881 
L 150.18108 228.908722 
L 150.645204 211.807758 
L 150.877266 213.981541 
L 151.109327 213.606253 
L 151.573451 233.850548 
L 151.805513 229.839977 
L 152.037575 220.712715 
L 152.269637 220.309658 
L 152.501699 221.236091 
L 152.73376 221.46849 
L 152.965822 213.437735 
L 153.429946 234.375684 
L 153.662008 225.55347 
L 153.89407 226.141877 
L 154.126132 223.721198 
L 154.358194 210.040604 
L 154.590255 222.100658 
L 154.822317 221.969656 
L 155.054379 212.43505 
L 155.286441 234.848409 
L 155.518503 239.770968 
L 155.750565 214.380234 
L 155.982627 209.29409 
L 156.44675 244.458081 
L 156.678812 219.001994 
L 156.910874 239.737865 
L 157.142936 205.562336 
L 157.374998 218.338993 
L 157.60706 219.250399 
L 157.839121 219.64409 
L 158.071183 219.259635 
L 158.303245 224.464955 
L 158.767369 211.629677 
L 158.999431 220.102127 
L 159.231493 238.722865 
L 159.463554 225.464217 
L 159.695616 223.202012 
L 159.927678 222.332496 
L 160.15974 223.258773 
L 160.391802 218.00845 
L 160.623864 217.313508 
L 161.087988 212.232643 
L 161.320049 214.028886 
L 161.552111 218.96435 
L 162.016235 211.53191 
L 162.248297 180.106939 
L 162.480359 220.693539 
L 162.712421 224.513505 
L 163.176544 189.761985 
L 163.408606 217.957529 
L 163.640668 226.427029 
L 163.87273 243.573153 
L 164.104792 210.668553 
L 164.336854 195.484121 
L 164.568915 248.812133 
L 164.800977 244.291049 
L 165.033039 187.473938 
L 165.497163 227.894378 
L 165.961287 240.188973 
L 166.42541 205.753783 
L 166.657472 238.836761 
L 166.889534 248.873893 
L 167.121596 213.384168 
L 167.353658 206.821934 
L 167.58572 220.683229 
L 167.817782 218.298125 
L 168.281905 235.642 
L 168.746029 197.116931 
L 168.978091 199.10438 
L 169.442215 206.438814 
L 169.906338 236.611777 
L 170.1384 217.645455 
L 170.602524 221.695663 
L 170.834586 200.473907 
L 171.298709 228.41743 
L 171.762833 199.002736 
L 171.994895 209.121851 
L 172.226957 211.69069 
L 172.459019 208.140523 
L 172.691081 224.758023 
L 172.923143 228.143841 
L 173.155204 209.368463 
L 173.387266 203.772997 
L 173.619328 223.413788 
L 173.85139 222.786858 
L 174.083452 214.760862 
L 174.315514 215.909457 
L 174.547576 203.690275 
L 174.779637 200.615087 
L 175.011699 218.248889 
L 175.475823 206.681812 
L 175.707885 208.934433 
L 175.939947 217.386116 
L 176.40407 201.178689 
L 176.636132 198.128069 
L 176.868194 209.965173 
L 177.100256 215.123853 
L 177.56438 208.079134 
L 177.796442 223.932975 
L 178.028503 295.488 
L 178.260565 158.814562 
L 178.492627 218.876801 
L 178.724689 151.406354 
L 178.956751 258.821502 
L 179.188813 238.782717 
L 179.420875 185.91552 
L 179.652937 177.622091 
L 179.884998 221.881078 
L 180.11706 212.587449 
L 180.349122 213.67379 
L 180.581184 190.515008 
L 181.045308 237.462944 
L 181.509431 189.249297 
L 181.741493 189.670294 
L 181.973555 197.850817 
L 182.205617 211.768967 
L 182.437679 214.472128 
L 182.901803 190.628065 
L 183.133864 193.315303 
L 183.365926 187.200954 
L 183.83005 199.476068 
L 184.294174 192.868562 
L 184.526236 190.769386 
L 184.758297 193.388915 
L 184.990359 190.990455 
L 185.222421 190.145052 
L 185.454483 190.454127 
L 185.686545 181.614081 
L 185.918607 177.107625 
L 186.150669 176.883394 
L 186.614792 185.191186 
L 186.846854 172.298353 
L 187.54304 90.838417 
L 187.775102 115.493853 
L 188.239225 207.158661 
L 188.471287 223.906664 
L 188.703349 219.093929 
L 188.935411 205.3807 
L 189.167473 200.863577 
L 189.863658 167.483054 
L 190.559844 153.730021 
L 190.791906 154.886466 
L 191.023968 159.699936 
L 191.25603 161.753422 
L 191.488091 158.492999 
L 191.952215 156.210229 
L 192.184277 158.814979 
L 192.416339 163.219086 
L 192.648401 162.133462 
L 192.880463 157.998546 
L 193.112525 155.916928 
L 193.576648 164.159506 
L 193.80871 164.651106 
L 194.040772 163.865816 
L 194.272834 161.599954 
L 194.504896 161.052748 
L 194.736958 161.119738 
L 194.969019 160.130521 
L 195.201081 161.192983 
L 195.665205 169.463089 
L 195.897267 169.085317 
L 196.129329 160.839801 
L 196.361391 146.965588 
L 196.593452 149.148422 
L 196.825514 162.966499 
L 197.057576 169.125793 
L 197.289638 166.738393 
L 197.5217 160.388312 
L 197.753762 159.34219 
L 197.985824 161.325056 
L 198.449947 171.448881 
L 198.682009 171.911782 
L 198.914071 170.69949 
L 199.146133 171.15689 
L 199.610257 162.601882 
L 199.842319 165.487218 
L 200.07438 170.133217 
L 200.306442 170.395236 
L 200.770566 165.875287 
L 201.002628 165.017086 
L 201.23469 167.784363 
L 201.466752 167.539399 
L 201.698813 171.986085 
L 201.930875 171.372624 
L 202.162937 174.771835 
L 202.394999 188.054205 
L 202.627061 179.835243 
L 202.859123 164.783266 
L 203.091185 166.641609 
L 203.323246 186.929872 
L 203.78737 170.443722 
L 204.019432 182.863967 
L 204.251494 182.376802 
L 204.483556 164.431252 
L 204.715618 180.108186 
L 204.94768 181.509048 
L 205.179741 176.224216 
L 205.411803 181.850552 
L 205.643865 179.389043 
L 205.875927 170.185633 
L 206.107989 181.316966 
L 206.340051 181.430524 
L 206.572113 177.097114 
L 206.804174 182.411027 
L 207.036236 180.144434 
L 207.268298 175.036901 
L 207.50036 179.971986 
L 207.732422 180.205094 
L 208.196546 183.210354 
L 208.660669 174.946075 
L 208.892731 180.083224 
L 209.356855 183.862406 
L 209.588917 182.923609 
L 209.820979 180.856249 
L 210.285102 180.369877 
L 210.517164 180.468354 
L 210.749226 179.68057 
L 210.981288 180.149955 
L 211.445412 183.463106 
L 211.677474 184.127593 
L 212.141597 181.375511 
L 212.373659 181.854701 
L 212.605721 183.252687 
L 212.837783 183.382013 
L 213.301907 180.961478 
L 213.533968 180.612242 
L 213.76603 181.378938 
L 213.998092 181.137066 
L 214.230154 180.035371 
L 214.462216 179.753444 
L 214.694278 180.341548 
L 214.92634 182.262685 
L 215.158401 183.023571 
L 215.854587 179.112788 
L 216.550773 182.17957 
L 216.782834 181.27598 
L 217.246958 178.278725 
L 217.711082 179.072839 
L 217.943144 179.34804 
L 218.175206 180.540665 
L 218.407268 180.608141 
L 218.639329 178.751804 
L 218.871391 177.86305 
L 219.335515 178.647005 
L 219.567577 178.692481 
L 219.799639 179.426895 
L 220.031701 178.097866 
L 220.495824 181.028034 
L 220.727886 177.014226 
L 220.959948 175.165093 
L 221.19201 181.661401 
L 221.424072 179.734352 
L 221.656134 181.480584 
L 221.888195 180.428903 
L 222.120257 173.395321 
L 222.352319 176.102593 
L 222.584381 182.900129 
L 222.816443 180.666658 
L 223.048505 172.680377 
L 223.280567 181.56416 
L 223.512629 184.699225 
L 223.74469 177.032459 
L 223.976752 177.305503 
L 224.208814 182.076055 
L 224.440876 174.284621 
L 224.672938 173.5415 
L 224.905 192.829406 
L 225.369123 168.10577 
L 225.601185 168.975783 
L 225.833247 177.195497 
L 226.065309 191.947312 
L 226.297371 188.819479 
L 226.529433 171.200242 
L 226.761495 168.45316 
L 227.45768 187.371262 
L 227.689742 187.277385 
L 227.921804 182.377795 
L 228.153866 174.70264 
L 228.385928 173.903589 
L 228.850051 183.564469 
L 229.546237 177.427259 
L 229.778299 177.373201 
L 230.242423 181.477014 
L 230.474484 181.582641 
L 230.938608 177.52626 
L 231.17067 177.462078 
L 231.634794 180.115394 
L 232.098917 180.212853 
L 232.563041 181.593878 
L 233.259227 178.796894 
L 233.491289 178.842871 
L 233.955412 184.712207 
L 234.187474 185.380273 
L 234.419536 164.365083 
L 234.651598 190.538046 
L 234.88366 174.944514 
L 235.115722 176.655137 
L 235.579845 176.252216 
L 236.043969 187.100609 
L 236.276031 178.159188 
L 236.508093 176.147541 
L 236.740155 173.136142 
L 237.204278 183.324789 
L 237.43634 180.923065 
L 237.668402 180.275355 
L 237.900464 181.410668 
L 238.132526 176.791839 
L 238.364588 179.889588 
L 238.59665 177.797388 
L 238.828711 179.623544 
L 239.060773 177.715307 
L 239.524897 179.280842 
L 239.756959 179.205258 
L 239.989021 178.455869 
L 240.221083 179.46313 
L 240.453144 179.159782 
L 240.685206 178.044123 
L 240.917268 178.267712 
L 241.381392 176.632513 
L 241.613454 177.213033 
L 242.077577 175.927747 
L 242.309639 176.515059 
L 242.541701 175.98724 
L 242.773763 173.563897 
L 243.005825 173.365983 
L 243.237887 177.62507 
L 243.469949 177.329548 
L 244.166134 170.05248 
L 244.398196 172.55192 
L 244.630258 173.733984 
L 245.094382 168.581007 
L 245.326444 163.808014 
L 246.486753 82.535249 
L 246.718815 82.602151 
L 247.182938 79.845083 
L 247.415 87.472044 
L 248.57531 165.171857 
L 248.807371 173.396391 
L 249.735619 181.334183 
L 249.967681 182.225256 
L 250.199743 181.620139 
L 250.431805 183.077112 
L 250.663866 182.471509 
L 250.895928 177.457527 
L 251.12799 169.180311 
L 251.360052 141.604156 
L 251.592114 141.404067 
L 251.824176 171.107049 
L 252.056238 155.219714 
L 252.288299 147.00283 
L 252.520361 155.056571 
L 252.752423 151.087067 
L 252.984485 132.573599 
L 253.216547 131.668881 
L 253.448609 128.171622 
L 253.912732 93.606262 
L 254.376856 139.291426 
L 254.608918 118.691826 
L 254.84098 115.333674 
L 255.073042 131.233349 
L 255.305104 137.792114 
L 255.537166 151.643343 
L 255.769227 138.971221 
L 256.001289 137.46136 
L 256.233351 139.745535 
L 256.465413 131.642223 
L 256.697475 118.023036 
L 256.929537 112.137811 
L 257.39366 138.374249 
L 257.625722 137.325019 
L 257.857784 119.061098 
L 258.55397 141.626301 
L 258.786032 141.655512 
L 259.018093 137.405114 
L 259.250155 138.922946 
L 259.714279 155.885439 
L 259.946341 160.79503 
L 260.410465 178.365333 
L 260.642526 178.518499 
L 260.874588 173.803547 
L 261.10665 174.114558 
L 261.338712 171.914698 
L 261.802836 150.606356 
L 262.034898 156.888314 
L 262.26696 154.610498 
L 262.499021 146.484416 
L 263.195207 201.070499 
L 263.427269 207.456781 
L 263.659331 208.919047 
L 263.891393 216.127919 
L 264.123454 233.549874 
L 264.81964 255.829897 
L 265.051702 256.645912 
L 265.979949 234.923295 
L 266.444073 212.328334 
L 266.676135 200.841454 
L 267.140259 191.605169 
L 267.37232 190.237163 
L 267.836444 176.160138 
L 268.300568 162.204104 
L 268.53263 161.235253 
L 268.764692 162.666754 
L 268.996754 162.850084 
L 269.228815 135.758277 
L 269.460877 128.597803 
L 269.692939 130.964944 
L 269.925001 118.765805 
L 270.389125 172.574934 
L 270.621187 171.764411 
L 270.853248 165.37054 
L 271.08531 165.236285 
L 271.317372 168.282824 
L 271.549434 176.196464 
L 272.013558 172.822892 
L 272.24562 173.46295 
L 272.477681 175.115991 
L 272.941805 183.574664 
L 273.173867 180.48105 
L 273.637991 166.390951 
L 274.566238 126.880277 
L 274.7983 124.276743 
L 275.030362 123.949011 
L 275.262424 124.553328 
L 275.494486 123.939859 
L 276.190671 113.032669 
L 276.422733 114.27242 
L 277.118919 102.12689 
L 277.350981 101.960507 
L 277.815104 95.800905 
L 278.047166 95.891747 
L 278.279228 96.423084 
L 278.51129 96.072242 
L 278.975414 93.813471 
L 279.207475 93.163393 
L 279.439537 94.052196 
L 279.671599 94.21316 
L 279.903661 93.771604 
L 280.135723 94.29827 
L 280.367785 91.05732 
L 280.599847 89.595443 
L 281.06397 91.877266 
L 281.296032 92.358957 
L 282.22428 98.787277 
L 282.456342 99.289403 
L 282.688403 99.408997 
L 282.920465 100.978247 
L 283.152527 98.259089 
L 283.384589 101.119693 
L 283.616651 100.764476 
L 283.848713 93.37197 
L 284.080775 94.613607 
L 284.77696 101.222665 
L 285.009022 100.878869 
L 285.473146 109.062891 
L 285.705208 108.736467 
L 285.937269 105.818064 
L 286.169331 100.10556 
L 286.401393 81.80313 
L 286.633455 84.9515 
L 286.865517 105.390207 
L 287.097579 106.623251 
L 287.561703 81.709029 
L 288.025826 103.631304 
L 288.257888 95.866797 
L 288.48995 83.071293 
L 288.954074 99.739805 
L 289.186136 94.875317 
L 289.418197 102.127338 
L 289.650259 103.264684 
L 289.882321 97.041039 
L 290.346445 103.476994 
L 290.578507 103.865254 
L 290.810569 102.899927 
L 291.04263 103.375605 
L 291.274692 105.317026 
L 291.506754 105.557428 
L 291.738816 105.191023 
L 291.970878 105.898161 
L 292.20294 104.585103 
L 292.435002 101.75555 
L 292.667063 101.387063 
L 292.899125 100.350023 
L 293.131187 97.909978 
L 293.363249 96.704117 
L 293.595311 96.702029 
L 293.827373 97.60587 
L 294.059435 93.864466 
L 294.291497 94.805625 
L 294.523558 96.598101 
L 294.75562 95.25265 
L 294.987682 96.498767 
L 295.219744 100.537369 
L 295.683868 86.081071 
L 296.147991 78.954817 
L 296.380053 95.042166 
L 296.612115 135.519569 
L 296.844177 120.856549 
L 297.076239 132.162435 
L 297.540363 95.096247 
L 297.772424 104.670353 
L 298.004486 96.462804 
L 298.236548 100.100719 
L 298.700672 91.276221 
L 298.932734 86.295858 
L 299.164796 85.079535 
L 299.396857 79.628877 
L 299.628919 80.123677 
L 299.860981 83.97022 
L 300.093043 83.559247 
L 300.325105 77.996411 
L 300.557167 54.277473 
L 300.789229 53.568 
L 301.021291 63.588904 
L 301.253352 64.957779 
L 301.485414 65.434098 
L 302.645724 81.644959 
L 303.109847 93.673064 
L 303.806033 102.675454 
L 304.038095 110.759002 
L 304.73428 150.037149 
L 304.966342 156.246426 
L 305.430466 175.338584 
L 306.590775 207.062015 
L 307.519023 254.318354 
L 307.983146 270.048278 
L 308.44727 287.60415 
L 308.679332 287.185641 
L 308.911394 287.376056 
L 309.375518 293.736742 
L 309.607579 291.484817 
L 309.839641 287.506044 
L 310.071703 287.030881 
L 310.303765 288.003433 
L 310.535827 287.639529 
L 310.767889 286.978036 
L 310.999951 285.222659 
L 311.232012 284.720005 
L 311.464074 285.37275 
L 311.696136 284.547705 
L 311.928198 280.533624 
L 312.16026 267.982115 
L 312.392322 266.510959 
L 312.624384 272.463034 
L 312.856446 267.559919 
L 313.088507 267.866741 
L 313.320569 262.00798 
L 313.784693 271.837406 
L 314.016755 272.579965 
L 314.248817 276.905464 
L 314.480879 273.010164 
L 314.945002 271.808669 
L 315.177064 272.15846 
L 315.409126 264.581476 
L 315.641188 267.897209 
L 315.87325 274.010149 
L 316.105312 275.257913 
L 316.337373 279.556279 
L 316.801497 256.545823 
L 317.033559 257.125273 
L 317.265621 253.82299 
L 317.497683 244.922916 
L 317.729745 248.816098 
L 317.961806 262.951894 
L 318.193868 268.611009 
L 318.42593 270.404094 
L 318.890054 286.66115 
L 319.122116 282.488761 
L 319.818301 243.996667 
L 320.050363 240.155004 
L 320.282425 223.449194 
L 320.514487 215.119721 
L 321.210673 256.743479 
L 321.674796 267.250926 
L 321.906858 266.506361 
L 322.13892 262.977415 
L 322.370982 265.885687 
L 322.603044 261.17728 
L 323.067167 235.503137 
L 323.299229 229.743751 
L 323.531291 233.551371 
L 323.763353 242.252281 
L 323.995415 242.403745 
L 324.227477 240.001342 
L 324.6916 251.856094 
L 324.923662 252.158274 
L 325.155724 250.632222 
L 325.85191 241.813509 
L 326.316034 227.972261 
L 326.548095 226.558455 
L 327.012219 212.938697 
L 327.476343 215.122988 
L 328.40459 206.744347 
L 329.100776 200.407646 
L 329.332838 201.191516 
L 329.5649 203.580216 
L 330.029023 203.186321 
L 330.261085 203.147553 
L 330.493147 201.537066 
L 330.957271 199.615938 
L 331.189333 199.97322 
L 331.653456 206.517911 
L 332.11758 207.28488 
L 332.349642 208.325414 
L 332.581704 207.002448 
L 332.813766 203.00461 
L 333.277889 188.335628 
L 333.974075 183.315437 
L 334.438199 191.204554 
L 335.366446 208.454248 
L 335.598508 210.569488 
L 336.526755 224.453201 
L 336.758817 222.361909 
L 336.990879 216.735819 
L 337.919127 184.778777 
L 338.38325 188.16661 
L 338.847374 181.686297 
L 339.079436 181.129691 
L 339.54356 185.023928 
L 340.007683 186.351417 
L 340.471807 182.347434 
L 340.703869 181.758541 
L 340.935931 181.533572 
L 341.167993 182.269812 
L 341.632116 177.282251 
L 341.864178 177.813415 
L 342.09624 178.015298 
L 342.560364 176.955498 
L 342.792426 174.82417 
L 343.024488 174.561619 
L 343.488611 177.245437 
L 343.952735 179.937402 
L 344.416859 186.835769 
L 344.648921 186.812441 
L 344.880983 185.744357 
L 345.113044 183.961487 
L 345.577168 182.731884 
L 346.041292 184.226409 
L 346.273354 184.096112 
L 346.505416 184.577592 
L 346.737477 185.90822 
L 346.969539 184.748838 
L 347.897787 172.19821 
L 348.593972 166.630934 
L 348.826034 166.152104 
L 349.058096 166.022695 
L 349.290158 165.593034 
L 349.52222 164.244689 
L 349.754282 162.231647 
L 350.450467 153.904677 
L 350.914591 150.325784 
L 351.146653 150.46378 
L 351.378715 151.500163 
L 351.610777 151.306645 
L 351.842838 152.429085 
L 353.003148 161.473015 
L 353.23521 160.915801 
L 353.467271 160.060856 
L 353.699333 160.218867 
L 353.931395 158.699737 
L 354.163457 154.936062 
L 354.395519 153.543059 
L 354.627581 154.73212 
L 354.859643 152.648126 
L 355.091704 154.58054 
L 355.323766 154.941016 
L 355.78789 153.857951 
L 356.019952 151.997787 
L 356.484076 146.18673 
L 356.716138 144.911218 
L 356.948199 145.390408 
L 357.412323 148.521066 
L 357.644385 148.148637 
L 358.108509 145.733545 
L 358.340571 142.574204 
L 358.572632 141.825844 
L 358.804694 139.380963 
L 359.036756 139.031971 
L 359.268818 140.362254 
L 359.50088 139.115206 
L 359.732942 140.908189 
L 359.965004 145.449551 
L 360.197065 146.731539 
L 360.429127 145.933021 
L 360.661189 145.881674 
L 361.357375 141.977727 
L 361.589437 139.669164 
L 362.05356 143.037433 
L 362.517684 129.752494 
L 362.749746 148.640923 
L 362.981808 153.508548 
L 363.21387 153.616421 
L 363.445932 152.633458 
L 363.677993 152.639603 
L 363.910055 151.065387 
L 364.142117 150.402674 
L 364.374179 148.678614 
L 364.606241 148.263168 
L 364.838303 149.079708 
L 365.070365 148.615248 
L 365.302426 149.172294 
L 365.534488 150.525976 
L 365.76655 150.537164 
L 365.998612 151.922552 
L 366.230674 158.687919 
L 366.694798 143.899999 
L 366.926859 146.105518 
L 367.158921 143.620656 
L 367.623045 149.338502 
L 368.087169 142.149147 
L 368.319231 142.681736 
L 368.551292 142.37954 
L 368.783354 144.644159 
L 369.015416 145.241573 
L 369.247478 145.155391 
L 369.47954 145.837529 
L 369.711602 143.872659 
L 369.943664 139.964552 
L 370.407787 144.112881 
L 370.871911 144.81335 
L 371.103973 144.295013 
L 371.336035 145.582792 
L 371.568097 142.170778 
L 371.800159 145.001668 
L 372.03222 144.498257 
L 372.264282 143.721906 
L 372.960468 140.532564 
L 373.19253 140.309625 
L 373.656653 144.544257 
L 373.888715 141.13044 
L 374.120777 140.462917 
L 374.352839 138.827364 
L 374.584901 138.843549 
L 374.816963 137.23539 
L 375.049025 138.607162 
L 375.281086 144.646616 
L 375.513148 144.090577 
L 375.74521 150.097052 
L 375.977272 152.240958 
L 376.209334 149.834377 
L 376.441396 150.070874 
L 376.673458 151.322948 
L 376.90552 153.706012 
L 377.369643 149.198877 
L 378.065829 147.903809 
L 378.297891 141.505277 
L 378.762014 161.63661 
L 378.994076 163.023766 
L 379.226138 120.995563 
L 379.4582 125.608301 
L 379.690262 140.412883 
L 379.922324 135.935037 
L 380.154386 137.690072 
L 380.386447 143.573093 
L 380.618509 145.533321 
L 381.314695 144.13706 
L 381.546757 143.770457 
L 381.778819 143.157403 
L 382.01088 143.072899 
L 382.242942 144.645035 
L 382.475004 141.733953 
L 382.707066 142.7939 
L 382.939128 146.015117 
L 383.403252 141.945163 
L 383.635314 144.170129 
L 383.867375 144.969787 
L 384.099437 144.331292 
L 384.331499 144.163459 
L 384.795623 140.311584 
L 385.027685 141.168435 
L 385.259747 140.97301 
L 385.491808 145.109047 
L 385.72387 146.516277 
L 385.955932 139.546171 
L 386.187994 140.54313 
L 386.420056 146.566596 
L 386.652118 144.08658 
L 387.116241 146.545506 
L 387.348303 145.10288 
L 387.580365 138.317957 
L 387.812427 138.862485 
L 388.276551 147.497215 
L 388.508613 149.470631 
L 388.740675 143.049773 
L 388.972736 143.882072 
L 389.204798 148.299883 
L 389.43686 147.348578 
L 389.668922 142.139336 
L 389.900984 143.615606 
L 390.133046 150.528906 
L 390.597169 132.102897 
L 390.829231 142.788335 
L 391.061293 138.672986 
L 391.293355 137.541536 
L 391.525417 139.651238 
L 391.757479 156.978367 
L 391.989541 140.83753 
L 392.221602 146.546224 
L 392.453664 142.071693 
L 392.917788 127.573229 
L 393.14985 140.629804 
L 393.381912 141.36971 
L 393.613974 137.665546 
L 393.846035 138.491162 
L 394.078097 131.738755 
L 394.310159 103.284334 
L 394.542221 94.398752 
L 394.774283 110.34117 
L 395.006345 110.174927 
L 395.238407 111.633519 
L 395.70253 157.070731 
L 396.166654 200.963787 
L 396.630778 211.349188 
L 396.86284 213.609177 
L 397.326963 201.240185 
L 397.559025 206.529663 
L 397.791087 214.41131 
L 398.487273 224.524582 
L 398.487273 224.524582 
" style="fill:none;stroke:#1f77b4;stroke-linecap:square;stroke-width:1.5;"/>
   </g>
   <g id="patch_3">
    <path d="M 57.6 307.584 
L 57.6 41.472 
" style="fill:none;stroke:#000000;stroke-linecap:square;stroke-linejoin:miter;stroke-width:0.8;"/>
   </g>
   <g id="patch_4">
    <path d="M 414.72 307.584 
L 414.72 41.472 
" style="fill:none;stroke:#000000;stroke-linecap:square;stroke-linejoin:miter;stroke-width:0.8;"/>
   </g>
   <g id="patch_5">
    <path d="M 57.6 307.584 
L 414.72 307.584 
" style="fill:none;stroke:#000000;stroke-linecap:square;stroke-linejoin:miter;stroke-width:0.8;"/>
   </g>
   <g id="patch_6">
    <path d="M 57.6 41.472 
L 414.72 41.472 
" style="fill:none;stroke:#000000;stroke-linecap:square;stroke-linejoin:miter;stroke-width:0.8;"/>
   </g>
  </g>
 </g>
 <defs>
  <clipPath id="pc067ff2742">
   <rect height="266.112" width="357.12" x="57.6" y="41.472"/>
  </clipPath>
 </defs>
</svg>
