<?xml version="1.0" encoding="utf-8" standalone="no"?>
<!DOCTYPE svg PUBLIC "-//W3C//DTD SVG 1.1//EN"
  "http://www.w3.org/Graphics/SVG/1.1/DTD/svg11.dtd">
<svg height="546.48pt" version="1.1" viewBox="0 0 1105.92 546.48" width="1105.92pt" xmlns="http://www.w3.org/2000/svg" xmlns:xlink="http://www.w3.org/1999/xlink">
 <metadata>
  <rdf:RDF xmlns:cc="http://creativecommons.org/ns#" xmlns:dc="http://purl.org/dc/elements/1.1/" xmlns:rdf="http://www.w3.org/1999/02/22-rdf-syntax-ns#">
   <cc:Work>
    <dc:type rdf:resource="http://purl.org/dc/dcmitype/StillImage"/>
    <dc:date>2022-10-26T17:48:36.931654</dc:date>
    <dc:format>image/svg+xml</dc:format>
    <dc:creator>
     <cc:Agent>
      <dc:title>Matplotlib v3.4.2, https://matplotlib.org/</dc:title>
     </cc:Agent>
    </dc:creator>
   </cc:Work>
  </rdf:RDF>
 </metadata>
 <defs>
  <style type="text/css">*{stroke-linecap:butt;stroke-linejoin:round;}</style>
 </defs>
 <g id="figure_1">
  <g id="patch_1">
   <path d="M 0 546.48 
L 1105.92 546.48 
L 1105.92 0 
L 0 0 
z
" style="fill:#ffffff;"/>
  </g>
  <g id="axes_1">
   <g id="patch_2">
    <path d="M 57.832 518.312 
L 1095.12 518.312 
L 1095.12 10.8 
L 57.832 10.8 
z
" style="fill:#ffffff;"/>
   </g>
   <g id="matplotlib.axis_1">
    <g id="xtick_1">
     <g id="line2d_1">
      <defs>
       <path d="M 0 0 
L 0 3.5 
" id="mc43a07fb60" style="stroke:#000000;stroke-width:0.8;"/>
      </defs>
      <g>
       <use style="stroke:#000000;stroke-width:0.8;" x="104.981455" xlink:href="#mc43a07fb60" y="518.312"/>
      </g>
     </g>
     <g id="text_1">
      <!-- 0 -->
      <g transform="translate(101.800205 532.910438)scale(0.1 -0.1)">
       <defs>
        <path d="M 2034 4250 
Q 1547 4250 1301 3770 
Q 1056 3291 1056 2328 
Q 1056 1369 1301 889 
Q 1547 409 2034 409 
Q 2525 409 2770 889 
Q 3016 1369 3016 2328 
Q 3016 3291 2770 3770 
Q 2525 4250 2034 4250 
z
M 2034 4750 
Q 2819 4750 3233 4129 
Q 3647 3509 3647 2328 
Q 3647 1150 3233 529 
Q 2819 -91 2034 -91 
Q 1250 -91 836 529 
Q 422 1150 422 2328 
Q 422 3509 836 4129 
Q 1250 4750 2034 4750 
z
" id="DejaVuSans-30" transform="scale(0.015625)"/>
       </defs>
       <use xlink:href="#DejaVuSans-30"/>
      </g>
     </g>
    </g>
    <g id="xtick_2">
     <g id="line2d_2">
      <g>
       <use style="stroke:#000000;stroke-width:0.8;" x="264.810114" xlink:href="#mc43a07fb60" y="518.312"/>
      </g>
     </g>
     <g id="text_2">
      <!-- 200 -->
      <g transform="translate(255.266364 532.910438)scale(0.1 -0.1)">
       <defs>
        <path d="M 1228 531 
L 3431 531 
L 3431 0 
L 469 0 
L 469 531 
Q 828 903 1448 1529 
Q 2069 2156 2228 2338 
Q 2531 2678 2651 2914 
Q 2772 3150 2772 3378 
Q 2772 3750 2511 3984 
Q 2250 4219 1831 4219 
Q 1534 4219 1204 4116 
Q 875 4013 500 3803 
L 500 4441 
Q 881 4594 1212 4672 
Q 1544 4750 1819 4750 
Q 2544 4750 2975 4387 
Q 3406 4025 3406 3419 
Q 3406 3131 3298 2873 
Q 3191 2616 2906 2266 
Q 2828 2175 2409 1742 
Q 1991 1309 1228 531 
z
" id="DejaVuSans-32" transform="scale(0.015625)"/>
       </defs>
       <use xlink:href="#DejaVuSans-32"/>
       <use x="63.623047" xlink:href="#DejaVuSans-30"/>
       <use x="127.246094" xlink:href="#DejaVuSans-30"/>
      </g>
     </g>
    </g>
    <g id="xtick_3">
     <g id="line2d_3">
      <g>
       <use style="stroke:#000000;stroke-width:0.8;" x="424.638773" xlink:href="#mc43a07fb60" y="518.312"/>
      </g>
     </g>
     <g id="text_3">
      <!-- 400 -->
      <g transform="translate(415.095023 532.910438)scale(0.1 -0.1)">
       <defs>
        <path d="M 2419 4116 
L 825 1625 
L 2419 1625 
L 2419 4116 
z
M 2253 4666 
L 3047 4666 
L 3047 1625 
L 3713 1625 
L 3713 1100 
L 3047 1100 
L 3047 0 
L 2419 0 
L 2419 1100 
L 313 1100 
L 313 1709 
L 2253 4666 
z
" id="DejaVuSans-34" transform="scale(0.015625)"/>
       </defs>
       <use xlink:href="#DejaVuSans-34"/>
       <use x="63.623047" xlink:href="#DejaVuSans-30"/>
       <use x="127.246094" xlink:href="#DejaVuSans-30"/>
      </g>
     </g>
    </g>
    <g id="xtick_4">
     <g id="line2d_4">
      <g>
       <use style="stroke:#000000;stroke-width:0.8;" x="584.467433" xlink:href="#mc43a07fb60" y="518.312"/>
      </g>
     </g>
     <g id="text_4">
      <!-- 600 -->
      <g transform="translate(574.923683 532.910438)scale(0.1 -0.1)">
       <defs>
        <path d="M 2113 2584 
Q 1688 2584 1439 2293 
Q 1191 2003 1191 1497 
Q 1191 994 1439 701 
Q 1688 409 2113 409 
Q 2538 409 2786 701 
Q 3034 994 3034 1497 
Q 3034 2003 2786 2293 
Q 2538 2584 2113 2584 
z
M 3366 4563 
L 3366 3988 
Q 3128 4100 2886 4159 
Q 2644 4219 2406 4219 
Q 1781 4219 1451 3797 
Q 1122 3375 1075 2522 
Q 1259 2794 1537 2939 
Q 1816 3084 2150 3084 
Q 2853 3084 3261 2657 
Q 3669 2231 3669 1497 
Q 3669 778 3244 343 
Q 2819 -91 2113 -91 
Q 1303 -91 875 529 
Q 447 1150 447 2328 
Q 447 3434 972 4092 
Q 1497 4750 2381 4750 
Q 2619 4750 2861 4703 
Q 3103 4656 3366 4563 
z
" id="DejaVuSans-36" transform="scale(0.015625)"/>
       </defs>
       <use xlink:href="#DejaVuSans-36"/>
       <use x="63.623047" xlink:href="#DejaVuSans-30"/>
       <use x="127.246094" xlink:href="#DejaVuSans-30"/>
      </g>
     </g>
    </g>
    <g id="xtick_5">
     <g id="line2d_5">
      <g>
       <use style="stroke:#000000;stroke-width:0.8;" x="744.296092" xlink:href="#mc43a07fb60" y="518.312"/>
      </g>
     </g>
     <g id="text_5">
      <!-- 800 -->
      <g transform="translate(734.752342 532.910438)scale(0.1 -0.1)">
       <defs>
        <path d="M 2034 2216 
Q 1584 2216 1326 1975 
Q 1069 1734 1069 1313 
Q 1069 891 1326 650 
Q 1584 409 2034 409 
Q 2484 409 2743 651 
Q 3003 894 3003 1313 
Q 3003 1734 2745 1975 
Q 2488 2216 2034 2216 
z
M 1403 2484 
Q 997 2584 770 2862 
Q 544 3141 544 3541 
Q 544 4100 942 4425 
Q 1341 4750 2034 4750 
Q 2731 4750 3128 4425 
Q 3525 4100 3525 3541 
Q 3525 3141 3298 2862 
Q 3072 2584 2669 2484 
Q 3125 2378 3379 2068 
Q 3634 1759 3634 1313 
Q 3634 634 3220 271 
Q 2806 -91 2034 -91 
Q 1263 -91 848 271 
Q 434 634 434 1313 
Q 434 1759 690 2068 
Q 947 2378 1403 2484 
z
M 1172 3481 
Q 1172 3119 1398 2916 
Q 1625 2713 2034 2713 
Q 2441 2713 2670 2916 
Q 2900 3119 2900 3481 
Q 2900 3844 2670 4047 
Q 2441 4250 2034 4250 
Q 1625 4250 1398 4047 
Q 1172 3844 1172 3481 
z
" id="DejaVuSans-38" transform="scale(0.015625)"/>
       </defs>
       <use xlink:href="#DejaVuSans-38"/>
       <use x="63.623047" xlink:href="#DejaVuSans-30"/>
       <use x="127.246094" xlink:href="#DejaVuSans-30"/>
      </g>
     </g>
    </g>
    <g id="xtick_6">
     <g id="line2d_6">
      <g>
       <use style="stroke:#000000;stroke-width:0.8;" x="904.124752" xlink:href="#mc43a07fb60" y="518.312"/>
      </g>
     </g>
     <g id="text_6">
      <!-- 1000 -->
      <g transform="translate(891.399752 532.910438)scale(0.1 -0.1)">
       <defs>
        <path d="M 794 531 
L 1825 531 
L 1825 4091 
L 703 3866 
L 703 4441 
L 1819 4666 
L 2450 4666 
L 2450 531 
L 3481 531 
L 3481 0 
L 794 0 
L 794 531 
z
" id="DejaVuSans-31" transform="scale(0.015625)"/>
       </defs>
       <use xlink:href="#DejaVuSans-31"/>
       <use x="63.623047" xlink:href="#DejaVuSans-30"/>
       <use x="127.246094" xlink:href="#DejaVuSans-30"/>
       <use x="190.869141" xlink:href="#DejaVuSans-30"/>
      </g>
     </g>
    </g>
    <g id="xtick_7">
     <g id="line2d_7">
      <g>
       <use style="stroke:#000000;stroke-width:0.8;" x="1063.953411" xlink:href="#mc43a07fb60" y="518.312"/>
      </g>
     </g>
     <g id="text_7">
      <!-- 1200 -->
      <g transform="translate(1051.228411 532.910438)scale(0.1 -0.1)">
       <use xlink:href="#DejaVuSans-31"/>
       <use x="63.623047" xlink:href="#DejaVuSans-32"/>
       <use x="127.246094" xlink:href="#DejaVuSans-30"/>
       <use x="190.869141" xlink:href="#DejaVuSans-30"/>
      </g>
     </g>
    </g>
   </g>
   <g id="matplotlib.axis_2">
    <g id="ytick_1">
     <g id="line2d_8">
      <defs>
       <path d="M 0 0 
L -3.5 0 
" id="mb14446f123" style="stroke:#000000;stroke-width:0.8;"/>
      </defs>
      <g>
       <use style="stroke:#000000;stroke-width:0.8;" x="57.832" xlink:href="#mb14446f123" y="458.148475"/>
      </g>
     </g>
     <g id="text_8">
      <!-- −20000 -->
      <g transform="translate(10.639812 461.947694)scale(0.1 -0.1)">
       <defs>
        <path d="M 678 2272 
L 4684 2272 
L 4684 1741 
L 678 1741 
L 678 2272 
z
" id="DejaVuSans-2212" transform="scale(0.015625)"/>
       </defs>
       <use xlink:href="#DejaVuSans-2212"/>
       <use x="83.789062" xlink:href="#DejaVuSans-32"/>
       <use x="147.412109" xlink:href="#DejaVuSans-30"/>
       <use x="211.035156" xlink:href="#DejaVuSans-30"/>
       <use x="274.658203" xlink:href="#DejaVuSans-30"/>
       <use x="338.28125" xlink:href="#DejaVuSans-30"/>
      </g>
     </g>
    </g>
    <g id="ytick_2">
     <g id="line2d_9">
      <g>
       <use style="stroke:#000000;stroke-width:0.8;" x="57.832" xlink:href="#mb14446f123" y="350.143986"/>
      </g>
     </g>
     <g id="text_9">
      <!-- −10000 -->
      <g transform="translate(10.639812 353.943205)scale(0.1 -0.1)">
       <use xlink:href="#DejaVuSans-2212"/>
       <use x="83.789062" xlink:href="#DejaVuSans-31"/>
       <use x="147.412109" xlink:href="#DejaVuSans-30"/>
       <use x="211.035156" xlink:href="#DejaVuSans-30"/>
       <use x="274.658203" xlink:href="#DejaVuSans-30"/>
       <use x="338.28125" xlink:href="#DejaVuSans-30"/>
      </g>
     </g>
    </g>
    <g id="ytick_3">
     <g id="line2d_10">
      <g>
       <use style="stroke:#000000;stroke-width:0.8;" x="57.832" xlink:href="#mb14446f123" y="242.139497"/>
      </g>
     </g>
     <g id="text_10">
      <!-- 0 -->
      <g transform="translate(44.4695 245.938716)scale(0.1 -0.1)">
       <use xlink:href="#DejaVuSans-30"/>
      </g>
     </g>
    </g>
    <g id="ytick_4">
     <g id="line2d_11">
      <g>
       <use style="stroke:#000000;stroke-width:0.8;" x="57.832" xlink:href="#mb14446f123" y="134.135008"/>
      </g>
     </g>
     <g id="text_11">
      <!-- 10000 -->
      <g transform="translate(19.0195 137.934227)scale(0.1 -0.1)">
       <use xlink:href="#DejaVuSans-31"/>
       <use x="63.623047" xlink:href="#DejaVuSans-30"/>
       <use x="127.246094" xlink:href="#DejaVuSans-30"/>
       <use x="190.869141" xlink:href="#DejaVuSans-30"/>
       <use x="254.492188" xlink:href="#DejaVuSans-30"/>
      </g>
     </g>
    </g>
    <g id="ytick_5">
     <g id="line2d_12">
      <g>
       <use style="stroke:#000000;stroke-width:0.8;" x="57.832" xlink:href="#mb14446f123" y="26.130519"/>
      </g>
     </g>
     <g id="text_12">
      <!-- 20000 -->
      <g transform="translate(19.0195 29.929738)scale(0.1 -0.1)">
       <use xlink:href="#DejaVuSans-32"/>
       <use x="63.623047" xlink:href="#DejaVuSans-30"/>
       <use x="127.246094" xlink:href="#DejaVuSans-30"/>
       <use x="190.869141" xlink:href="#DejaVuSans-30"/>
       <use x="254.492188" xlink:href="#DejaVuSans-30"/>
      </g>
     </g>
    </g>
   </g>
   <g id="line2d_13">
    <path clip-path="url(#p6cf5f8b633)" d="M 104.981455 414.473892 
L 105.780598 412.078993 
L 106.579741 413.220453 
L 107.378884 425.598134 
L 108.178028 423.186327 
L 108.977171 417.934705 
L 109.776314 419.576878 
L 110.575458 423.4794 
L 111.374601 432.384389 
L 112.972888 447.098247 
L 113.772031 441.96405 
L 114.571174 440.499387 
L 115.370317 435.787991 
L 116.169461 429.531959 
L 116.968604 425.13688 
L 117.767747 424.934002 
L 118.566891 425.102983 
L 119.366034 429.617931 
L 120.165177 402.839743 
L 120.96432 383.991626 
L 121.763464 373.661638 
L 122.562607 359.805933 
L 123.36175 362.672838 
L 125.75918 286.22638 
L 126.558324 273.821871 
L 127.357467 277.664294 
L 128.15661 301.898022 
L 128.955753 295.917679 
L 129.754897 257.26003 
L 130.55404 238.453104 
L 131.353183 239.707544 
L 132.152327 243.527549 
L 132.95147 260.457971 
L 133.750613 274.263387 
L 134.549757 265.105827 
L 136.148043 152.479749 
L 136.947186 120.691115 
L 137.74633 138.144354 
L 138.545473 127.198684 
L 139.344616 80.048598 
L 140.14376 60.459406 
L 140.942903 65.206619 
L 141.742046 56.664834 
L 142.54119 61.715438 
L 143.340333 137.966656 
L 144.938619 311.826594 
L 145.737763 342.740348 
L 146.536906 367.924813 
L 147.336049 418.039422 
L 148.135193 457.150652 
L 149.733479 453.207094 
L 150.532622 414.323214 
L 151.331766 397.174536 
L 152.130909 319.675622 
L 152.930052 286.710846 
L 153.729196 201.000064 
L 154.528339 139.202881 
L 155.327482 111.349103 
L 156.126626 111.555757 
L 156.925769 106.822617 
L 157.724912 90.786165 
L 158.524055 95.336232 
L 159.323199 94.415236 
L 160.122342 90.686505 
L 162.519772 236.760095 
L 164.118059 261.50302 
L 164.917202 229.400146 
L 165.716345 181.379906 
L 166.515488 146.103048 
L 167.314632 118.50816 
L 168.113775 147.487556 
L 168.912918 126.559378 
L 169.712062 99.723821 
L 170.511205 67.758803 
L 171.310348 64.384225 
L 172.109492 65.76266 
L 172.908635 70.077388 
L 175.306065 314.129158 
L 176.105208 323.412601 
L 178.502638 455.966832 
L 179.301781 459.870079 
L 181.699211 402.124298 
L 182.498354 352.553351 
L 183.297498 291.592948 
L 184.096641 247.684511 
L 184.895784 157.445693 
L 185.694928 111.477231 
L 186.494071 96.993291 
L 187.293214 94.403593 
L 188.092357 90.798669 
L 188.891501 90.095121 
L 189.690644 80.272709 
L 190.489787 61.422559 
L 191.288931 58.922781 
L 192.088074 116.436971 
L 192.887217 190.019809 
L 193.686361 220.026949 
L 194.485504 203.757199 
L 196.08379 123.409172 
L 196.882934 97.529438 
L 197.682077 98.431114 
L 198.48122 104.081419 
L 199.280364 80.103078 
L 200.079507 62.67913 
L 200.87865 58.112054 
L 201.677794 62.430181 
L 202.476937 54.165336 
L 203.27608 89.242766 
L 204.075223 187.089564 
L 204.874367 259.808684 
L 205.67351 296.830447 
L 206.472653 327.5326 
L 207.271797 383.710807 
L 208.07094 451.948956 
L 208.870083 465.080898 
L 209.669227 433.948877 
L 210.46837 423.870797 
L 211.267513 416.173515 
L 212.066656 350.382559 
L 212.8658 318.19926 
L 213.664943 239.754474 
L 214.464086 174.094644 
L 215.26323 132.469671 
L 216.062373 118.228901 
L 216.861516 109.141766 
L 217.660659 109.429305 
L 218.459803 89.922714 
L 219.258946 84.264132 
L 220.058089 52.165534 
L 220.857233 97.471104 
L 221.656376 134.896536 
L 222.455519 166.86217 
L 223.254663 178.477637 
L 224.053806 135.561997 
L 224.852949 134.156182 
L 225.652092 113.227818 
L 226.451236 102.597235 
L 227.250379 103.596082 
L 228.049522 117.385152 
L 229.647809 96.662045 
L 230.446952 88.318619 
L 231.246096 85.457804 
L 232.045239 69.436234 
L 232.844382 105.895749 
L 233.643525 211.895923 
L 234.442669 288.031176 
L 235.241812 319.741391 
L 236.040955 334.570367 
L 237.639242 437.534237 
L 238.438385 457.106112 
L 239.237529 423.257168 
L 240.036672 417.348605 
L 240.835815 405.96212 
L 241.634958 389.517268 
L 242.434102 392.012019 
L 243.233245 386.489021 
L 244.032388 345.737394 
L 244.831532 318.097422 
L 245.630675 328.320373 
L 246.429818 326.736581 
L 247.228961 335.834153 
L 248.827248 313.307597 
L 249.626391 312.494252 
L 250.425535 315.358695 
L 251.224678 302.282821 
L 252.023821 311.196513 
L 252.822965 301.349074 
L 254.421251 319.148883 
L 255.220394 330.52495 
L 256.019538 339.975848 
L 256.818681 353.751838 
L 258.416968 394.133096 
L 260.015254 420.608709 
L 260.814398 446.729071 
L 261.613541 453.386178 
L 262.412684 456.839135 
L 263.211827 457.65817 
L 264.010971 459.947494 
L 264.810114 463.48268 
L 265.609257 469.180551 
L 266.408401 465.47887 
L 267.207544 465.764296 
L 268.006687 465.127663 
L 268.805831 464.020611 
L 270.404117 461.027431 
L 271.20326 459.03055 
L 272.002404 456.586823 
L 272.801547 452.479745 
L 273.60069 452.268709 
L 274.399834 460.500765 
L 277.596407 448.385456 
L 278.39555 446.977472 
L 279.194693 450.296244 
L 279.993837 454.949079 
L 280.79298 462.428704 
L 281.592123 458.976853 
L 282.391267 458.202435 
L 283.19041 456.601048 
L 283.989553 454.080469 
L 284.788696 449.692541 
L 285.58784 451.268207 
L 286.386983 453.809587 
L 287.186126 455.537133 
L 287.98527 454.12288 
L 288.784413 455.240338 
L 289.583556 454.945741 
L 290.3827 455.9522 
L 291.181843 457.966781 
L 291.980986 461.028127 
L 292.780129 460.213863 
L 293.579273 459.562115 
L 294.378416 456.41766 
L 295.976703 454.202057 
L 296.775846 457.507128 
L 297.574989 455.216819 
L 298.374133 456.023701 
L 299.173276 450.030769 
L 299.972419 452.554547 
L 300.771562 453.690466 
L 301.570706 458.904565 
L 303.168992 467.176289 
L 303.968136 467.11435 
L 304.767279 473.936821 
L 305.566422 473.665413 
L 306.365565 472.748434 
L 307.164709 469.58041 
L 307.963852 469.845961 
L 308.762995 469.604924 
L 309.562139 471.918905 
L 310.361282 472.593465 
L 311.959569 474.305786 
L 312.758712 474.550321 
L 313.557855 474.627559 
L 314.356998 474.215451 
L 315.156142 474.212051 
L 315.955285 473.979291 
L 316.754428 473.307511 
L 318.352715 472.318979 
L 319.151858 472.455882 
L 319.951002 471.752853 
L 320.750145 471.270185 
L 321.549288 471.101806 
L 322.348431 470.769688 
L 323.147575 470.661317 
L 323.946718 470.694178 
L 324.745861 472.231702 
L 325.545005 472.823969 
L 326.344148 472.722194 
L 327.143291 473.156735 
L 327.942435 472.677302 
L 328.741578 444.555872 
L 329.540721 400.636738 
L 330.339864 334.160457 
L 331.139008 281.68223 
L 331.938151 242.735552 
L 332.737294 222.393448 
L 333.536438 198.064081 
L 334.335581 158.029374 
L 335.134724 129.258992 
L 335.933867 116.15154 
L 336.733011 52.334558 
L 337.532154 51.435374 
L 339.130441 180.942014 
L 339.929584 211.628493 
L 340.728727 220.581437 
L 341.527871 145.400348 
L 342.327014 113.700156 
L 343.126157 93.492426 
L 343.9253 98.120262 
L 344.724444 122.785974 
L 346.32273 81.515842 
L 347.121874 73.064092 
L 347.921017 78.441528 
L 348.72016 67.249435 
L 349.519304 109.635516 
L 350.318447 204.641427 
L 351.11759 284.953804 
L 351.916733 320.028133 
L 352.715877 338.831665 
L 354.314163 443.110155 
L 355.113307 450.910259 
L 355.91245 423.064264 
L 356.711593 408.754668 
L 357.510737 375.786232 
L 358.30988 351.714484 
L 359.109023 346.947336 
L 359.908166 285.664739 
L 360.70731 262.381038 
L 361.506453 169.551141 
L 362.305596 109.371905 
L 363.10474 93.224494 
L 363.903883 114.620101 
L 364.703026 122.058595 
L 365.502169 124.445698 
L 366.301313 144.0969 
L 367.100456 131.684746 
L 367.899599 142.607564 
L 368.698743 205.851845 
L 369.497886 237.239165 
L 370.297029 244.843062 
L 371.096173 228.242952 
L 371.895316 207.033898 
L 372.694459 209.546441 
L 373.493602 228.809381 
L 374.292746 193.579944 
L 375.091889 147.282304 
L 376.690176 100.042442 
L 377.489319 103.075497 
L 378.288462 120.225067 
L 379.087606 96.313015 
L 379.886749 84.768499 
L 380.685892 78.519895 
L 381.485035 75.010811 
L 382.284179 59.588165 
L 383.083322 83.539094 
L 383.882465 179.330026 
L 384.681609 259.295436 
L 385.480752 300.840208 
L 386.279895 327.358733 
L 387.079039 381.379469 
L 387.878182 447.420848 
L 388.677325 464.52047 
L 389.476468 438.157557 
L 390.275612 428.68978 
L 391.074755 403.979047 
L 391.873898 392.315965 
L 392.673042 384.349144 
L 393.472185 388.949006 
L 395.869615 215.652432 
L 396.668758 150.978689 
L 397.467901 139.362739 
L 398.267045 142.859549 
L 399.066188 147.909747 
L 399.865331 149.151975 
L 400.664475 149.707875 
L 401.463618 156.404818 
L 402.262761 153.91705 
L 403.861048 221.162843 
L 404.660191 267.660045 
L 405.459334 242.706746 
L 406.258478 209.438676 
L 407.057621 194.083128 
L 407.856764 200.135786 
L 408.655908 201.214149 
L 409.455051 220.086738 
L 410.254194 191.825897 
L 411.053337 138.96042 
L 411.852481 117.205105 
L 412.651624 101.3384 
L 413.450767 115.495834 
L 414.249911 121.279342 
L 415.049054 101.879626 
L 415.848197 74.568198 
L 416.647341 69.555759 
L 417.446484 63.034602 
L 418.245627 50.616197 
L 419.04477 87.714085 
L 419.843914 191.673666 
L 420.643057 269.553638 
L 422.241344 322.637644 
L 423.040487 372.525209 
L 423.83963 446.703907 
L 424.638773 464.621426 
L 425.437917 444.420398 
L 426.23706 432.163143 
L 427.036203 423.386702 
L 427.835347 407.885499 
L 428.63449 396.666719 
L 429.433633 375.954453 
L 431.03192 288.604218 
L 431.831063 198.931895 
L 432.630206 158.384515 
L 433.42935 149.621202 
L 435.027636 112.431713 
L 435.82678 111.250166 
L 437.425066 89.844763 
L 438.22421 109.331876 
L 439.822496 176.813913 
L 440.621639 175.128555 
L 441.420783 171.734148 
L 442.219926 184.824012 
L 443.019069 190.528894 
L 443.818213 161.68237 
L 444.617356 123.937166 
L 445.416499 112.848768 
L 446.215643 96.471977 
L 447.014786 103.759668 
L 447.813929 117.766461 
L 448.613072 99.930602 
L 449.412216 88.061388 
L 450.211359 82.210462 
L 451.010502 77.573597 
L 451.809646 70.672424 
L 452.608789 130.879068 
L 453.407932 224.16582 
L 454.207076 300.556049 
L 455.006219 316.487318 
L 455.805362 339.633635 
L 457.403649 457.767181 
L 458.202792 458.088754 
L 459.001935 428.929207 
L 460.600222 393.00808 
L 461.399365 390.728459 
L 462.198508 386.421068 
L 462.997652 399.425613 
L 463.796795 406.166129 
L 464.595938 409.760264 
L 465.395082 408.465735 
L 466.194225 413.548126 
L 466.993368 424.883641 
L 467.792512 382.493179 
L 469.390798 261.642056 
L 470.189941 218.480583 
L 470.989085 201.734946 
L 471.788228 179.65804 
L 472.587371 152.919502 
L 473.386515 130.559773 
L 474.185658 117.172393 
L 474.984801 75.869561 
L 475.783945 59.387084 
L 477.382231 133.060962 
L 478.181374 154.79442 
L 478.980518 155.806707 
L 479.779661 167.613627 
L 480.578804 117.814536 
L 481.377948 117.649086 
L 482.177091 97.73065 
L 482.976234 93.176017 
L 483.775378 121.828847 
L 485.373664 97.619283 
L 486.172807 77.576074 
L 486.971951 77.427361 
L 487.771094 58.168511 
L 488.570237 69.764847 
L 489.369381 186.985608 
L 490.168524 265.346003 
L 490.967667 311.743652 
L 491.76681 322.89804 
L 493.365097 408.904845 
L 494.16424 459.449095 
L 494.963384 439.362826 
L 496.56167 424.662824 
L 498.159957 382.767863 
L 498.9591 393.306111 
L 499.758243 400.625853 
L 500.557387 403.8442 
L 501.35653 373.719661 
L 502.155673 335.893957 
L 502.954817 309.006962 
L 503.75396 248.741669 
L 504.553103 223.318634 
L 505.352247 217.162737 
L 506.15139 209.267138 
L 506.950533 180.847545 
L 507.749676 161.801475 
L 508.54882 147.102134 
L 509.347963 141.043978 
L 510.147106 143.641398 
L 510.94625 161.570089 
L 511.745393 198.031124 
L 512.544536 197.026269 
L 513.34368 196.439346 
L 514.142823 203.076552 
L 514.941966 196.457565 
L 515.741109 148.720447 
L 516.540253 136.282598 
L 517.339396 109.565742 
L 518.138539 103.572165 
L 518.937683 104.687107 
L 519.736826 115.696921 
L 520.535969 96.042088 
L 521.335112 80.78498 
L 522.134256 79.173351 
L 522.933399 50.700399 
L 523.732542 33.868727 
L 524.531686 125.790261 
L 526.129972 257.939236 
L 526.929116 300.179846 
L 527.728259 317.890455 
L 528.527402 376.913295 
L 529.326545 444.917716 
L 530.125689 452.46469 
L 531.723975 426.551747 
L 533.322262 395.314671 
L 534.121405 385.528983 
L 534.920549 384.365699 
L 535.719692 359.058 
L 536.518835 319.634666 
L 537.317978 267.347109 
L 538.117122 201.171829 
L 538.916265 176.923633 
L 539.715408 166.202913 
L 540.514552 160.979745 
L 541.313695 165.351552 
L 542.112838 142.991299 
L 542.911982 141.737109 
L 543.711125 129.594258 
L 544.510268 113.261384 
L 545.309411 108.543719 
L 546.108555 116.508634 
L 546.907698 118.193352 
L 547.706841 127.308262 
L 548.505985 132.843245 
L 549.305128 145.129626 
L 550.104271 135.408055 
L 550.903414 121.84664 
L 551.702558 103.603541 
L 552.501701 100.46668 
L 553.300844 105.618601 
L 554.099988 113.930887 
L 554.899131 88.686553 
L 555.698274 74.963532 
L 556.497418 72.139611 
L 557.296561 67.439258 
L 558.095704 60.420618 
L 558.894847 134.653551 
L 559.693991 220.721699 
L 560.493134 294.74646 
L 561.292277 304.458586 
L 562.091421 327.432939 
L 563.689707 443.591189 
L 564.488851 455.170374 
L 565.287994 421.659426 
L 566.087137 412.079918 
L 567.685424 356.499426 
L 568.484567 320.153869 
L 570.082854 228.117854 
L 570.881997 145.318223 
L 571.68114 105.590501 
L 572.480284 102.155096 
L 573.279427 121.900617 
L 574.07857 122.963843 
L 574.877713 140.696335 
L 575.676857 153.358548 
L 576.476 143.929397 
L 577.275143 175.82773 
L 578.074287 200.906812 
L 578.87343 238.536459 
L 579.672573 236.502089 
L 580.471716 201.971675 
L 581.27086 192.888665 
L 582.070003 202.473873 
L 582.869146 185.595841 
L 583.66829 148.143288 
L 584.467433 132.160395 
L 585.266576 107.831989 
L 586.06572 105.730382 
L 586.864863 114.430139 
L 587.664006 115.650762 
L 588.463149 102.666167 
L 589.262293 82.232139 
L 590.061436 81.357799 
L 590.860579 66.617221 
L 591.659723 71.921414 
L 592.458866 165.920913 
L 594.057153 299.095342 
L 594.856296 310.763248 
L 596.454582 392.71754 
L 597.253726 450.962138 
L 598.052869 452.074268 
L 598.852012 437.442045 
L 600.450299 380.021478 
L 601.249442 360.593943 
L 602.048586 335.785551 
L 602.847729 314.454928 
L 603.646872 303.777021 
L 604.446015 317.09976 
L 605.245159 281.545555 
L 606.044302 266.124795 
L 607.642589 179.955979 
L 608.441732 172.838318 
L 609.240875 158.527507 
L 610.040018 155.942975 
L 610.839162 150.015674 
L 611.638305 124.87666 
L 612.437448 108.321243 
L 613.236592 95.816452 
L 614.035735 111.229049 
L 615.634022 160.658772 
L 616.433165 153.35952 
L 618.031451 174.935437 
L 618.830595 176.435904 
L 619.629738 126.394513 
L 620.428881 126.199417 
L 621.228025 110.364775 
L 622.027168 110.940407 
L 622.826311 117.79369 
L 623.625455 118.933731 
L 624.424598 101.884986 
L 625.223741 77.387451 
L 626.022884 76.97097 
L 626.822028 59.956632 
L 627.621171 70.591155 
L 628.420314 175.472091 
L 629.219458 248.538178 
L 630.018601 296.766664 
L 630.817744 313.939867 
L 631.616888 350.878013 
L 633.215174 467.647417 
L 634.014317 480.255892 
L 634.813461 487.792876 
L 635.612604 487.533136 
L 636.411747 494.095218 
L 637.210891 495.243273 
L 638.010034 491.277292 
L 638.809177 472.391287 
L 641.206607 437.986606 
L 642.00575 411.093901 
L 642.804894 391.398673 
L 643.604037 386.517648 
L 646.001467 296.379646 
L 646.80061 228.844623 
L 647.599753 178.867555 
L 648.398897 176.930035 
L 649.19804 178.088858 
L 649.997183 188.630556 
L 650.796327 202.3234 
L 651.59547 193.827333 
L 652.394613 193.818652 
L 653.193757 227.979833 
L 653.9929 254.488454 
L 654.792043 314.512262 
L 655.591186 346.691482 
L 656.39033 340.270919 
L 657.189473 351.630916 
L 657.988616 357.909134 
L 658.78776 362.65413 
L 659.586903 368.487732 
L 660.386046 384.111608 
L 661.18519 389.234368 
L 661.984333 378.711398 
L 662.783476 383.574631 
L 663.582619 387.428897 
L 664.381763 396.770731 
L 665.180906 396.953906 
L 665.980049 375.554937 
L 666.779193 361.927994 
L 667.578336 364.469006 
L 668.377479 332.966331 
L 669.975766 179.407694 
L 670.774909 133.392161 
L 671.574052 102.753703 
L 672.373196 106.993194 
L 673.172339 116.362469 
L 673.971482 96.289642 
L 674.770626 93.575039 
L 676.368912 123.56844 
L 677.168055 122.822032 
L 678.766342 225.105205 
L 679.565485 236.081219 
L 680.364629 245.509198 
L 681.163772 236.245751 
L 681.962915 232.366139 
L 682.762059 220.284467 
L 683.561202 215.582596 
L 684.360345 179.173315 
L 685.958632 135.357379 
L 686.757775 127.421984 
L 687.556918 114.77608 
L 689.155205 74.460634 
L 689.954348 77.658167 
L 690.753492 67.758197 
L 691.552635 44.504295 
L 692.351778 58.964484 
L 693.150921 59.23861 
L 693.950065 66.623798 
L 695.548351 113.850649 
L 696.347495 134.722404 
L 697.146638 151.588274 
L 697.945781 143.841264 
L 698.744924 133.133387 
L 699.544068 128.186201 
L 700.343211 124.135502 
L 701.142354 122.754881 
L 701.941498 107.589972 
L 703.539784 105.482972 
L 704.338928 103.259915 
L 705.138071 106.094856 
L 705.937214 100.322262 
L 708.334644 147.326569 
L 709.133787 139.695732 
L 709.932931 150.383183 
L 710.732074 204.196485 
L 711.531217 225.942978 
L 712.330361 232.225998 
L 713.129504 231.107 
L 713.928647 227.384749 
L 714.72779 213.158455 
L 715.526934 201.121454 
L 716.326077 185.536615 
L 717.12522 161.226394 
L 717.924364 159.688091 
L 718.723507 119.747235 
L 719.52265 105.77528 
L 720.321794 101.840629 
L 721.120937 83.763737 
L 721.92008 73.711575 
L 722.719223 77.399199 
L 723.518367 63.375776 
L 724.31751 41.928829 
L 725.116653 61.366833 
L 725.915797 66.525398 
L 726.71494 67.390624 
L 727.514083 96.374461 
L 728.313227 158.487872 
L 729.11237 174.520128 
L 729.911513 197.988051 
L 730.710656 196.04637 
L 731.5098 209.114244 
L 732.308943 178.333988 
L 733.108086 155.719015 
L 733.90723 141.556589 
L 734.706373 133.941244 
L 735.505516 129.047432 
L 736.304659 104.044295 
L 737.103803 98.505933 
L 737.902946 97.263084 
L 738.702089 83.990488 
L 739.501233 83.580563 
L 740.300376 102.301884 
L 741.898663 116.478477 
L 742.697806 174.296495 
L 743.496949 216.882067 
L 744.296092 228.286798 
L 745.095236 228.311484 
L 745.894379 225.340202 
L 746.693522 216.093817 
L 747.492666 194.277449 
L 748.291809 191.518302 
L 749.090952 160.98882 
L 750.689239 116.548706 
L 751.488382 115.877392 
L 752.287525 109.263399 
L 753.086669 88.24362 
L 753.885812 83.454779 
L 754.684955 87.416344 
L 755.484099 81.682286 
L 756.283242 65.92438 
L 757.082385 70.312155 
L 757.881529 85.470009 
L 758.680672 83.823451 
L 759.479815 98.127314 
L 760.278958 137.697081 
L 761.078102 159.384817 
L 761.877245 193.261633 
L 762.676388 173.557264 
L 763.475532 162.311058 
L 764.274675 144.197545 
L 765.073818 108.906546 
L 765.872961 106.092196 
L 766.672105 107.365372 
L 767.471248 103.315483 
L 768.270391 89.529741 
L 769.069535 80.319258 
L 769.868678 81.97995 
L 770.667821 82.381561 
L 771.466965 81.021402 
L 772.266108 94.465294 
L 773.065251 130.476465 
L 773.864394 159.184143 
L 774.663538 153.093837 
L 775.462681 195.427481 
L 776.261824 217.934396 
L 777.060968 245.817586 
L 777.860111 237.539631 
L 778.659254 233.782986 
L 780.257541 197.76678 
L 781.056684 191.237084 
L 781.855827 167.503219 
L 783.454114 128.29812 
L 784.253257 106.17356 
L 785.052401 105.288606 
L 785.851544 114.46797 
L 786.650687 98.173664 
L 788.248974 86.422262 
L 789.048117 48.381727 
L 789.84726 56.450816 
L 790.646404 67.716448 
L 791.445547 69.144051 
L 792.24469 74.723806 
L 793.043834 87.63695 
L 793.842977 130.518797 
L 794.64212 167.051994 
L 795.441263 196.364266 
L 796.240407 197.324833 
L 797.03955 201.803657 
L 797.838693 179.668696 
L 798.637837 140.311217 
L 799.43698 130.275845 
L 800.236123 132.259527 
L 801.035267 127.856661 
L 801.83441 115.219179 
L 802.633553 113.015361 
L 803.432696 127.133288 
L 804.23184 110.739939 
L 805.030983 111.782042 
L 805.830126 122.22642 
L 806.62927 148.341925 
L 807.428413 165.328128 
L 808.227556 173.158356 
L 809.0267 214.006498 
L 809.825843 239.090357 
L 810.624986 245.824648 
L 811.424129 240.997014 
L 812.223273 237.130125 
L 813.022416 219.233444 
L 813.821559 210.414614 
L 814.620703 215.065991 
L 815.419846 182.054306 
L 816.218989 161.253915 
L 817.018133 131.619663 
L 817.817276 113.918788 
L 818.616419 109.798361 
L 819.415562 110.651759 
L 820.214706 84.005363 
L 821.013849 87.389911 
L 821.812992 62.075202 
L 822.612136 46.287765 
L 823.411279 62.909136 
L 824.210422 68.476619 
L 825.009565 62.754041 
L 825.808709 70.39073 
L 826.607852 118.68954 
L 827.406995 140.554762 
L 828.206139 174.589218 
L 829.005282 169.267167 
L 829.804425 172.004103 
L 830.603569 158.864675 
L 831.402712 159.033127 
L 832.201855 154.794897 
L 833.000998 170.135693 
L 833.800142 164.54664 
L 834.599285 133.828459 
L 835.398428 122.40995 
L 836.197572 121.584114 
L 836.996715 144.020808 
L 837.795858 130.925941 
L 838.595002 114.975574 
L 839.394145 113.796674 
L 840.193288 111.241542 
L 840.992431 93.264496 
L 841.791575 99.833845 
L 842.590718 133.524805 
L 843.389861 156.396622 
L 844.189005 187.236483 
L 844.988148 210.87784 
L 845.787291 243.538887 
L 846.586435 253.978386 
L 847.385578 255.039146 
L 848.184721 255.380385 
L 848.983864 251.811714 
L 849.783008 243.682141 
L 850.582151 233.491953 
L 851.381294 221.34111 
L 852.180438 225.686886 
L 852.979581 179.32866 
L 854.577867 127.562455 
L 855.377011 112.187271 
L 856.176154 118.135784 
L 856.975297 116.558544 
L 857.774441 97.913781 
L 858.573584 91.830245 
L 860.171871 57.189258 
L 860.971014 78.15522 
L 861.770157 79.159842 
L 862.5693 76.087197 
L 863.368444 74.740964 
L 864.167587 90.8917 
L 865.765874 184.689848 
L 866.565017 210.487904 
L 868.163304 188.883849 
L 868.962447 156.57816 
L 869.76159 116.610787 
L 870.560733 112.723235 
L 871.359877 107.012994 
L 872.15902 122.726983 
L 872.958163 122.962657 
L 873.757307 129.81808 
L 874.55645 143.802386 
L 875.355593 155.087521 
L 876.154737 140.3164 
L 876.95388 141.678887 
L 877.753023 165.947049 
L 878.552166 165.242753 
L 880.150453 206.421521 
L 880.949596 213.862607 
L 881.74874 263.335425 
L 882.547883 270.236243 
L 883.347026 271.253691 
L 884.146169 273.28695 
L 884.945313 270.773963 
L 885.744456 272.08542 
L 886.543599 258.876605 
L 887.342743 238.69617 
L 888.141886 231.037186 
L 888.941029 218.641049 
L 889.740173 183.080526 
L 890.539316 170.771676 
L 891.338459 145.493215 
L 892.137602 140.221747 
L 892.936746 129.947395 
L 893.735889 93.349477 
L 894.535032 99.008947 
L 895.334176 89.164893 
L 896.133319 62.559027 
L 896.932462 70.066403 
L 897.731606 86.178746 
L 898.530749 85.512113 
L 899.329892 86.438629 
L 900.129035 152.763687 
L 900.928179 181.529619 
L 901.727322 217.427578 
L 902.526465 203.7823 
L 903.325609 177.849134 
L 905.723039 112.111747 
L 906.522182 115.535459 
L 907.321325 120.31499 
L 908.120468 111.205287 
L 909.718755 101.190148 
L 910.517898 105.416128 
L 911.317042 126.737435 
L 912.915328 158.99909 
L 913.714471 169.122446 
L 914.513615 228.421636 
L 915.312758 245.268177 
L 916.111901 257.706992 
L 916.911045 255.741387 
L 917.710188 255.90929 
L 918.509331 253.549418 
L 919.308475 240.272446 
L 920.107618 230.850417 
L 920.906761 216.514822 
L 921.705904 197.993009 
L 922.505048 167.125088 
L 924.103334 116.108347 
L 924.902478 122.316953 
L 925.701621 118.658721 
L 926.500764 100.278426 
L 927.299908 113.923934 
L 928.099051 99.397069 
L 928.898194 71.076607 
L 929.697337 77.658417 
L 930.496481 79.323631 
L 931.295624 79.804643 
L 932.094767 85.014111 
L 932.893911 110.434469 
L 933.693054 156.065566 
L 934.492197 208.994018 
L 935.291341 234.732744 
L 936.889627 207.875597 
L 937.68877 205.354999 
L 938.487914 179.799546 
L 939.287057 148.414499 
L 940.885344 134.911078 
L 941.684487 124.375991 
L 942.48363 125.027834 
L 943.282773 126.065433 
L 944.081917 117.762444 
L 944.88106 123.344501 
L 945.680203 139.988162 
L 946.479347 161.308671 
L 947.27849 157.520913 
L 948.077633 216.485666 
L 948.876777 247.551066 
L 949.67592 259.84311 
L 950.475063 266.506829 
L 951.274206 263.163984 
L 952.07335 264.146992 
L 952.872493 244.550211 
L 953.671636 233.349778 
L 954.47078 226.993025 
L 955.269923 212.5292 
L 956.069066 182.397003 
L 956.86821 160.121422 
L 957.667353 134.579865 
L 958.466496 130.640423 
L 959.265639 128.272555 
L 960.064783 106.65476 
L 960.863926 114.801203 
L 961.663069 113.996249 
L 962.462213 83.320906 
L 963.261356 86.819721 
L 964.060499 95.336561 
L 964.859643 94.331464 
L 965.658786 94.914869 
L 966.457929 110.864145 
L 968.056216 209.185039 
L 968.855359 248.95509 
L 969.654502 245.466559 
L 970.453646 211.390913 
L 972.051932 172.206886 
L 972.851076 141.291263 
L 973.650219 120.903948 
L 974.449362 122.919893 
L 975.248505 115.602915 
L 976.047649 111.376119 
L 976.846792 116.51967 
L 977.645935 123.006303 
L 978.445079 123.469932 
L 979.244222 122.450752 
L 980.043365 127.375456 
L 980.842508 157.305823 
L 981.641652 170.750399 
L 982.440795 199.251519 
L 983.239938 241.883025 
L 984.039082 257.767233 
L 984.838225 264.742515 
L 985.637368 258.257405 
L 986.436512 257.985856 
L 987.235655 255.860129 
L 988.034798 234.420338 
L 988.833941 218.643827 
L 989.633085 205.64745 
L 990.432228 188.35201 
L 991.231371 157.419593 
L 992.030515 133.856767 
L 992.829658 115.86088 
L 993.628801 104.693498 
L 994.427945 121.20307 
L 995.227088 123.30068 
L 996.026231 106.627205 
L 996.825374 103.417311 
L 997.624518 68.781701 
L 998.423661 77.810891 
L 999.222804 90.042795 
L 1000.021948 97.172328 
L 1000.821091 108.670251 
L 1001.620234 103.911732 
L 1002.419378 146.591157 
L 1003.218521 160.188249 
L 1004.017664 214.514754 
L 1004.816807 253.018534 
L 1005.615951 261.368472 
L 1006.415094 256.27172 
L 1008.013381 192.218255 
L 1008.812524 168.688155 
L 1009.611667 162.421351 
L 1011.209954 143.224293 
L 1012.009097 151.375947 
L 1012.80824 138.194255 
L 1013.607384 132.439016 
L 1014.406527 119.851264 
L 1015.20567 121.816753 
L 1016.004814 120.841468 
L 1016.803957 127.141767 
L 1017.6031 148.794042 
L 1018.402243 148.302963 
L 1019.201387 173.910685 
L 1020.00053 213.274848 
L 1020.799673 230.386087 
L 1021.598817 233.390661 
L 1022.39796 250.987806 
L 1023.197103 256.504349 
L 1023.996247 257.059654 
L 1024.79539 261.240943 
L 1025.594533 259.979144 
L 1026.393676 259.874227 
L 1027.19282 254.118535 
L 1027.991963 242.124326 
L 1028.791106 240.479248 
L 1029.59025 220.732593 
L 1030.389393 214.182459 
L 1031.188536 178.740819 
L 1031.98768 161.967181 
L 1032.786823 148.564985 
L 1033.585966 124.965179 
L 1034.385109 130.075944 
L 1035.184253 130.215921 
L 1035.983396 107.200889 
L 1037.581683 75.028074 
L 1038.380826 62.244858 
L 1039.179969 90.792086 
L 1039.979112 105.84175 
L 1040.778256 105.710894 
L 1041.577399 129.370779 
L 1042.376542 165.048483 
L 1043.175686 220.21599 
L 1043.974829 288.185695 
L 1044.773972 328.091617 
L 1045.573116 324.664148 
L 1046.372259 339.795752 
L 1047.171402 337.675605 
L 1047.970545 312.266732 
L 1047.970545 312.266732 
" style="fill:none;stroke:#1f77b4;stroke-linecap:square;stroke-width:1.5;"/>
   </g>
   <g id="patch_3">
    <path d="M 57.832 518.312 
L 57.832 10.8 
" style="fill:none;stroke:#000000;stroke-linecap:square;stroke-linejoin:miter;stroke-width:0.8;"/>
   </g>
   <g id="patch_4">
    <path d="M 1095.12 518.312 
L 1095.12 10.8 
" style="fill:none;stroke:#000000;stroke-linecap:square;stroke-linejoin:miter;stroke-width:0.8;"/>
   </g>
   <g id="patch_5">
    <path d="M 57.832 518.312 
L 1095.12 518.312 
" style="fill:none;stroke:#000000;stroke-linecap:square;stroke-linejoin:miter;stroke-width:0.8;"/>
   </g>
   <g id="patch_6">
    <path d="M 57.832 10.8 
L 1095.12 10.8 
" style="fill:none;stroke:#000000;stroke-linecap:square;stroke-linejoin:miter;stroke-width:0.8;"/>
   </g>
  </g>
 </g>
 <defs>
  <clipPath id="p6cf5f8b633">
   <rect height="507.512" width="1037.288" x="57.832" y="10.8"/>
  </clipPath>
 </defs>
</svg>
