<?xml version="1.0" encoding="utf-8" standalone="no"?>
<!DOCTYPE svg PUBLIC "-//W3C//DTD SVG 1.1//EN"
  "http://www.w3.org/Graphics/SVG/1.1/DTD/svg11.dtd">
<svg height="702pt" version="1.1" viewBox="0 0 1382.4 702" width="1382.4pt" xmlns="http://www.w3.org/2000/svg" xmlns:xlink="http://www.w3.org/1999/xlink">
 <metadata>
  <rdf:RDF xmlns:cc="http://creativecommons.org/ns#" xmlns:dc="http://purl.org/dc/elements/1.1/" xmlns:rdf="http://www.w3.org/1999/02/22-rdf-syntax-ns#">
   <cc:Work>
    <dc:type rdf:resource="http://purl.org/dc/dcmitype/StillImage"/>
    <dc:date>2022-10-27T15:25:45.585317</dc:date>
    <dc:format>image/svg+xml</dc:format>
    <dc:creator>
     <cc:Agent>
      <dc:title>Matplotlib v3.4.2, https://matplotlib.org/</dc:title>
     </cc:Agent>
    </dc:creator>
   </cc:Work>
  </rdf:RDF>
 </metadata>
 <defs>
  <style type="text/css">*{stroke-linecap:butt;stroke-linejoin:round;}</style>
 </defs>
 <g id="figure_1">
  <g id="patch_1">
   <path d="M 0 702 
L 1382.4 702 
L 1382.4 0 
L 0 0 
z
" style="fill:#ffffff;"/>
  </g>
  <g id="axes_1">
   <g id="patch_2">
    <path d="M 172.8 624.78 
L 1244.16 624.78 
L 1244.16 84.24 
L 172.8 84.24 
z
" style="fill:#ffffff;"/>
   </g>
   <g id="matplotlib.axis_1">
    <g id="xtick_1">
     <g id="line2d_1">
      <defs>
       <path d="M 0 0 
L 0 3.5 
" id="m684728f5ef" style="stroke:#000000;stroke-width:0.8;"/>
      </defs>
      <g>
       <use style="stroke:#000000;stroke-width:0.8;" x="221.498182" xlink:href="#m684728f5ef" y="624.78"/>
      </g>
     </g>
     <g id="text_1">
      <!-- 0 -->
      <g transform="translate(218.316932 639.378438)scale(0.1 -0.1)">
       <defs>
        <path d="M 2034 4250 
Q 1547 4250 1301 3770 
Q 1056 3291 1056 2328 
Q 1056 1369 1301 889 
Q 1547 409 2034 409 
Q 2525 409 2770 889 
Q 3016 1369 3016 2328 
Q 3016 3291 2770 3770 
Q 2525 4250 2034 4250 
z
M 2034 4750 
Q 2819 4750 3233 4129 
Q 3647 3509 3647 2328 
Q 3647 1150 3233 529 
Q 2819 -91 2034 -91 
Q 1250 -91 836 529 
Q 422 1150 422 2328 
Q 422 3509 836 4129 
Q 1250 4750 2034 4750 
z
" id="DejaVuSans-30" transform="scale(0.015625)"/>
       </defs>
       <use xlink:href="#DejaVuSans-30"/>
      </g>
     </g>
    </g>
    <g id="xtick_2">
     <g id="line2d_2">
      <g>
       <use style="stroke:#000000;stroke-width:0.8;" x="356.321498" xlink:href="#m684728f5ef" y="624.78"/>
      </g>
     </g>
     <g id="text_2">
      <!-- 250 -->
      <g transform="translate(346.777748 639.378438)scale(0.1 -0.1)">
       <defs>
        <path d="M 1228 531 
L 3431 531 
L 3431 0 
L 469 0 
L 469 531 
Q 828 903 1448 1529 
Q 2069 2156 2228 2338 
Q 2531 2678 2651 2914 
Q 2772 3150 2772 3378 
Q 2772 3750 2511 3984 
Q 2250 4219 1831 4219 
Q 1534 4219 1204 4116 
Q 875 4013 500 3803 
L 500 4441 
Q 881 4594 1212 4672 
Q 1544 4750 1819 4750 
Q 2544 4750 2975 4387 
Q 3406 4025 3406 3419 
Q 3406 3131 3298 2873 
Q 3191 2616 2906 2266 
Q 2828 2175 2409 1742 
Q 1991 1309 1228 531 
z
" id="DejaVuSans-32" transform="scale(0.015625)"/>
        <path d="M 691 4666 
L 3169 4666 
L 3169 4134 
L 1269 4134 
L 1269 2991 
Q 1406 3038 1543 3061 
Q 1681 3084 1819 3084 
Q 2600 3084 3056 2656 
Q 3513 2228 3513 1497 
Q 3513 744 3044 326 
Q 2575 -91 1722 -91 
Q 1428 -91 1123 -41 
Q 819 9 494 109 
L 494 744 
Q 775 591 1075 516 
Q 1375 441 1709 441 
Q 2250 441 2565 725 
Q 2881 1009 2881 1497 
Q 2881 1984 2565 2268 
Q 2250 2553 1709 2553 
Q 1456 2553 1204 2497 
Q 953 2441 691 2322 
L 691 4666 
z
" id="DejaVuSans-35" transform="scale(0.015625)"/>
       </defs>
       <use xlink:href="#DejaVuSans-32"/>
       <use x="63.623047" xlink:href="#DejaVuSans-35"/>
       <use x="127.246094" xlink:href="#DejaVuSans-30"/>
      </g>
     </g>
    </g>
    <g id="xtick_3">
     <g id="line2d_3">
      <g>
       <use style="stroke:#000000;stroke-width:0.8;" x="491.144814" xlink:href="#m684728f5ef" y="624.78"/>
      </g>
     </g>
     <g id="text_3">
      <!-- 500 -->
      <g transform="translate(481.601064 639.378438)scale(0.1 -0.1)">
       <use xlink:href="#DejaVuSans-35"/>
       <use x="63.623047" xlink:href="#DejaVuSans-30"/>
       <use x="127.246094" xlink:href="#DejaVuSans-30"/>
      </g>
     </g>
    </g>
    <g id="xtick_4">
     <g id="line2d_4">
      <g>
       <use style="stroke:#000000;stroke-width:0.8;" x="625.96813" xlink:href="#m684728f5ef" y="624.78"/>
      </g>
     </g>
     <g id="text_4">
      <!-- 750 -->
      <g transform="translate(616.42438 639.378438)scale(0.1 -0.1)">
       <defs>
        <path d="M 525 4666 
L 3525 4666 
L 3525 4397 
L 1831 0 
L 1172 0 
L 2766 4134 
L 525 4134 
L 525 4666 
z
" id="DejaVuSans-37" transform="scale(0.015625)"/>
       </defs>
       <use xlink:href="#DejaVuSans-37"/>
       <use x="63.623047" xlink:href="#DejaVuSans-35"/>
       <use x="127.246094" xlink:href="#DejaVuSans-30"/>
      </g>
     </g>
    </g>
    <g id="xtick_5">
     <g id="line2d_5">
      <g>
       <use style="stroke:#000000;stroke-width:0.8;" x="760.791447" xlink:href="#m684728f5ef" y="624.78"/>
      </g>
     </g>
     <g id="text_5">
      <!-- 1000 -->
      <g transform="translate(748.066447 639.378438)scale(0.1 -0.1)">
       <defs>
        <path d="M 794 531 
L 1825 531 
L 1825 4091 
L 703 3866 
L 703 4441 
L 1819 4666 
L 2450 4666 
L 2450 531 
L 3481 531 
L 3481 0 
L 794 0 
L 794 531 
z
" id="DejaVuSans-31" transform="scale(0.015625)"/>
       </defs>
       <use xlink:href="#DejaVuSans-31"/>
       <use x="63.623047" xlink:href="#DejaVuSans-30"/>
       <use x="127.246094" xlink:href="#DejaVuSans-30"/>
       <use x="190.869141" xlink:href="#DejaVuSans-30"/>
      </g>
     </g>
    </g>
    <g id="xtick_6">
     <g id="line2d_6">
      <g>
       <use style="stroke:#000000;stroke-width:0.8;" x="895.614763" xlink:href="#m684728f5ef" y="624.78"/>
      </g>
     </g>
     <g id="text_6">
      <!-- 1250 -->
      <g transform="translate(882.889763 639.378438)scale(0.1 -0.1)">
       <use xlink:href="#DejaVuSans-31"/>
       <use x="63.623047" xlink:href="#DejaVuSans-32"/>
       <use x="127.246094" xlink:href="#DejaVuSans-35"/>
       <use x="190.869141" xlink:href="#DejaVuSans-30"/>
      </g>
     </g>
    </g>
    <g id="xtick_7">
     <g id="line2d_7">
      <g>
       <use style="stroke:#000000;stroke-width:0.8;" x="1030.438079" xlink:href="#m684728f5ef" y="624.78"/>
      </g>
     </g>
     <g id="text_7">
      <!-- 1500 -->
      <g transform="translate(1017.713079 639.378438)scale(0.1 -0.1)">
       <use xlink:href="#DejaVuSans-31"/>
       <use x="63.623047" xlink:href="#DejaVuSans-35"/>
       <use x="127.246094" xlink:href="#DejaVuSans-30"/>
       <use x="190.869141" xlink:href="#DejaVuSans-30"/>
      </g>
     </g>
    </g>
    <g id="xtick_8">
     <g id="line2d_8">
      <g>
       <use style="stroke:#000000;stroke-width:0.8;" x="1165.261395" xlink:href="#m684728f5ef" y="624.78"/>
      </g>
     </g>
     <g id="text_8">
      <!-- 1750 -->
      <g transform="translate(1152.536395 639.378438)scale(0.1 -0.1)">
       <use xlink:href="#DejaVuSans-31"/>
       <use x="63.623047" xlink:href="#DejaVuSans-37"/>
       <use x="127.246094" xlink:href="#DejaVuSans-35"/>
       <use x="190.869141" xlink:href="#DejaVuSans-30"/>
      </g>
     </g>
    </g>
   </g>
   <g id="matplotlib.axis_2">
    <g id="ytick_1">
     <g id="line2d_9">
      <defs>
       <path d="M 0 0 
L -3.5 0 
" id="m1b1012e2c0" style="stroke:#000000;stroke-width:0.8;"/>
      </defs>
      <g>
       <use style="stroke:#000000;stroke-width:0.8;" x="172.8" xlink:href="#m1b1012e2c0" y="558.976076"/>
      </g>
     </g>
     <g id="text_9">
      <!-- −40000 -->
      <g transform="translate(125.607812 562.775294)scale(0.1 -0.1)">
       <defs>
        <path d="M 678 2272 
L 4684 2272 
L 4684 1741 
L 678 1741 
L 678 2272 
z
" id="DejaVuSans-2212" transform="scale(0.015625)"/>
        <path d="M 2419 4116 
L 825 1625 
L 2419 1625 
L 2419 4116 
z
M 2253 4666 
L 3047 4666 
L 3047 1625 
L 3713 1625 
L 3713 1100 
L 3047 1100 
L 3047 0 
L 2419 0 
L 2419 1100 
L 313 1100 
L 313 1709 
L 2253 4666 
z
" id="DejaVuSans-34" transform="scale(0.015625)"/>
       </defs>
       <use xlink:href="#DejaVuSans-2212"/>
       <use x="83.789062" xlink:href="#DejaVuSans-34"/>
       <use x="147.412109" xlink:href="#DejaVuSans-30"/>
       <use x="211.035156" xlink:href="#DejaVuSans-30"/>
       <use x="274.658203" xlink:href="#DejaVuSans-30"/>
       <use x="338.28125" xlink:href="#DejaVuSans-30"/>
      </g>
     </g>
    </g>
    <g id="ytick_2">
     <g id="line2d_10">
      <g>
       <use style="stroke:#000000;stroke-width:0.8;" x="172.8" xlink:href="#m1b1012e2c0" y="456.028982"/>
      </g>
     </g>
     <g id="text_10">
      <!-- −20000 -->
      <g transform="translate(125.607812 459.828201)scale(0.1 -0.1)">
       <use xlink:href="#DejaVuSans-2212"/>
       <use x="83.789062" xlink:href="#DejaVuSans-32"/>
       <use x="147.412109" xlink:href="#DejaVuSans-30"/>
       <use x="211.035156" xlink:href="#DejaVuSans-30"/>
       <use x="274.658203" xlink:href="#DejaVuSans-30"/>
       <use x="338.28125" xlink:href="#DejaVuSans-30"/>
      </g>
     </g>
    </g>
    <g id="ytick_3">
     <g id="line2d_11">
      <g>
       <use style="stroke:#000000;stroke-width:0.8;" x="172.8" xlink:href="#m1b1012e2c0" y="353.081889"/>
      </g>
     </g>
     <g id="text_11">
      <!-- 0 -->
      <g transform="translate(159.4375 356.881107)scale(0.1 -0.1)">
       <use xlink:href="#DejaVuSans-30"/>
      </g>
     </g>
    </g>
    <g id="ytick_4">
     <g id="line2d_12">
      <g>
       <use style="stroke:#000000;stroke-width:0.8;" x="172.8" xlink:href="#m1b1012e2c0" y="250.134795"/>
      </g>
     </g>
     <g id="text_12">
      <!-- 20000 -->
      <g transform="translate(133.9875 253.934014)scale(0.1 -0.1)">
       <use xlink:href="#DejaVuSans-32"/>
       <use x="63.623047" xlink:href="#DejaVuSans-30"/>
       <use x="127.246094" xlink:href="#DejaVuSans-30"/>
       <use x="190.869141" xlink:href="#DejaVuSans-30"/>
       <use x="254.492188" xlink:href="#DejaVuSans-30"/>
      </g>
     </g>
    </g>
    <g id="ytick_5">
     <g id="line2d_13">
      <g>
       <use style="stroke:#000000;stroke-width:0.8;" x="172.8" xlink:href="#m1b1012e2c0" y="147.187702"/>
      </g>
     </g>
     <g id="text_13">
      <!-- 40000 -->
      <g transform="translate(133.9875 150.986921)scale(0.1 -0.1)">
       <use xlink:href="#DejaVuSans-34"/>
       <use x="63.623047" xlink:href="#DejaVuSans-30"/>
       <use x="127.246094" xlink:href="#DejaVuSans-30"/>
       <use x="190.869141" xlink:href="#DejaVuSans-30"/>
       <use x="254.492188" xlink:href="#DejaVuSans-30"/>
      </g>
     </g>
    </g>
   </g>
   <g id="line2d_14">
    <path clip-path="url(#p2faa317c57)" d="M 221.498182 553.272054 
L 222.037475 544.340467 
L 222.576768 546.022931 
L 223.116062 544.293231 
L 223.655355 546.778812 
L 224.194648 552.404789 
L 225.812528 556.239247 
L 226.351821 558.19286 
L 226.891114 558.665255 
L 227.430408 557.884643 
L 227.969701 563.525245 
L 229.048288 566.631838 
L 229.587581 567.627318 
L 230.126874 571.022155 
L 230.666167 572.520922 
L 231.205461 571.233124 
L 231.744754 571.227637 
L 232.284047 581.181533 
L 232.82334 595.688342 
L 233.362634 587.999342 
L 233.901927 570.041445 
L 234.980513 557.436073 
L 235.519807 550.330504 
L 236.0591 540.711171 
L 236.598393 535.216901 
L 238.216273 526.701425 
L 238.755566 519.963943 
L 239.29486 522.080518 
L 239.834153 522.988396 
L 240.373446 522.365834 
L 240.912739 522.091049 
L 241.452033 523.642522 
L 241.991326 521.977515 
L 243.069912 528.272747 
L 244.148499 536.835408 
L 244.687792 547.890697 
L 245.227085 550.475708 
L 245.766379 557.068851 
L 246.305672 560.67705 
L 246.844965 565.426326 
L 247.384259 568.138474 
L 247.923552 572.278927 
L 248.462845 577.750486 
L 249.002138 581.77384 
L 249.541432 582.713541 
L 250.080725 582.235698 
L 250.620018 587.717118 
L 251.159311 559.148299 
L 251.698605 554.01064 
L 252.237898 531.547055 
L 252.777191 535.32223 
L 254.934364 512.17791 
L 255.473658 503.496668 
L 256.552244 492.454262 
L 257.091537 492.633983 
L 257.630831 492.369937 
L 258.170124 494.905785 
L 258.709417 492.855858 
L 259.24871 494.096722 
L 259.788004 465.083968 
L 260.86659 457.152855 
L 261.405883 460.200084 
L 262.48447 489.223894 
L 263.023763 500.027882 
L 263.563056 500.177557 
L 264.10235 470.666399 
L 264.641643 467.690018 
L 265.180936 466.70483 
L 265.72023 472.089757 
L 266.259523 471.74804 
L 266.798816 474.817632 
L 267.338109 474.142978 
L 267.877403 472.690127 
L 268.416696 468.617935 
L 268.955989 469.341593 
L 269.495282 468.673975 
L 270.034576 468.534781 
L 270.573869 495.543009 
L 271.113162 515.903796 
L 271.652455 524.156491 
L 272.191749 524.289747 
L 272.731042 527.483798 
L 273.270335 529.149385 
L 273.809629 530.305006 
L 274.348922 531.924747 
L 274.888215 581.710213 
L 275.427508 587.016 
L 275.966802 583.870926 
L 276.506095 584.355361 
L 277.045388 586.708111 
L 278.123975 577.479513 
L 278.663268 576.513965 
L 279.202561 574.928691 
L 279.741854 575.717509 
L 280.281148 577.805551 
L 280.820441 578.76308 
L 281.359734 580.369487 
L 281.899027 581.457553 
L 282.438321 583.994174 
L 285.134787 452.420749 
L 285.67408 414.451554 
L 286.213374 397.837557 
L 287.29196 385.365516 
L 287.831253 365.523353 
L 288.370547 332.364313 
L 289.988426 304.771885 
L 291.067013 276.837367 
L 291.606306 250.433695 
L 292.684893 229.685651 
L 293.224186 227.552399 
L 293.763479 231.776061 
L 294.302773 228.519001 
L 296.459946 184.692286 
L 296.999239 179.030919 
L 297.538532 167.417773 
L 298.077825 166.357737 
L 298.617119 177.287256 
L 299.156412 185.067019 
L 299.695705 185.799427 
L 300.234998 184.181819 
L 300.774292 180.777537 
L 301.313585 189.22895 
L 301.852878 202.055087 
L 302.392172 220.817661 
L 302.931465 225.888809 
L 303.470758 246.315429 
L 304.010051 271.436065 
L 304.549345 283.444103 
L 305.088638 301.000087 
L 305.627931 336.162078 
L 306.167224 394.009374 
L 306.706518 413.903582 
L 307.245811 439.396959 
L 307.785104 442.235971 
L 308.324397 458.026314 
L 308.863691 481.795073 
L 309.402984 481.925635 
L 309.942277 486.790816 
L 310.481571 474.297043 
L 311.020864 431.151275 
L 311.560157 422.334915 
L 312.09945 402.770874 
L 312.638744 379.132635 
L 314.256623 257.640225 
L 315.33521 215.835648 
L 315.874503 215.809315 
L 316.413796 211.683495 
L 316.95309 203.892879 
L 317.492383 198.979042 
L 318.031676 196.263426 
L 318.570969 190.539043 
L 319.110263 191.459213 
L 319.649556 192.065556 
L 320.188849 192.348844 
L 320.728143 196.533385 
L 321.267436 198.641636 
L 321.806729 201.460003 
L 322.346022 199.006913 
L 324.503195 254.927662 
L 325.042489 260.303236 
L 325.581782 256.10353 
L 326.121075 259.587793 
L 327.738955 289.204092 
L 328.278248 292.057777 
L 328.817542 293.636346 
L 329.356835 304.200261 
L 329.896128 295.07043 
L 331.514008 245.197453 
L 332.053301 242.943117 
L 332.592594 225.681219 
L 333.131888 215.943766 
L 333.671181 214.095467 
L 334.210474 216.368286 
L 335.289061 230.453715 
L 336.367647 276.908731 
L 336.906941 302.529986 
L 337.446234 314.260042 
L 337.985527 332.263346 
L 338.52482 333.137821 
L 339.064114 337.24853 
L 339.603407 345.299215 
L 340.1427 364.867925 
L 340.681993 407.981676 
L 341.76058 459.861718 
L 342.299873 482.022916 
L 342.839166 490.784894 
L 343.37846 523.32279 
L 343.917753 536.450023 
L 344.457046 499.386618 
L 344.996339 478.476956 
L 345.535633 467.620698 
L 346.074926 473.76034 
L 346.614219 468.366602 
L 347.692806 463.643871 
L 348.232099 464.785285 
L 350.389272 476.644284 
L 350.928565 476.73603 
L 351.467859 478.508194 
L 352.007152 484.83617 
L 352.546445 486.388345 
L 353.085738 487.393513 
L 353.625032 489.365317 
L 354.164325 492.349864 
L 354.703618 499.390111 
L 355.242912 530.771117 
L 355.782205 555.148951 
L 356.321498 561.012841 
L 356.860791 560.956026 
L 357.400085 559.706276 
L 357.939378 560.12889 
L 358.478671 558.495243 
L 359.017964 554.66711 
L 360.635844 550.707989 
L 361.175137 548.994242 
L 361.714431 546.164679 
L 362.253724 540.668673 
L 362.793017 538.518232 
L 363.33231 539.943688 
L 363.871604 538.925691 
L 364.410897 538.40119 
L 365.489484 538.957475 
L 366.56807 551.567572 
L 367.107363 554.962749 
L 367.646657 537.300623 
L 368.18595 533.862983 
L 368.725243 536.914473 
L 369.264536 534.813104 
L 369.80383 529.880119 
L 370.343123 532.852583 
L 370.882416 534.657242 
L 371.421709 537.838592 
L 371.961003 539.468697 
L 372.500296 540.51549 
L 373.039589 539.414205 
L 373.578883 539.303762 
L 374.118176 539.485862 
L 374.657469 535.269997 
L 375.196762 534.115149 
L 375.736056 532.660293 
L 376.275349 531.724606 
L 376.814642 533.562523 
L 377.353935 532.547852 
L 377.893229 531.275278 
L 378.432522 540.653876 
L 378.971815 547.412057 
L 379.511108 544.583501 
L 380.050402 544.007849 
L 380.589695 558.13896 
L 381.128988 557.553619 
L 382.207575 557.06853 
L 382.746868 562.282179 
L 383.286161 564.44337 
L 384.364748 570.224964 
L 384.904041 570.017906 
L 385.982628 578.767913 
L 386.521921 578.268311 
L 387.061214 578.182709 
L 387.600507 577.088699 
L 388.139801 574.493853 
L 388.679094 573.863886 
L 389.218387 573.702563 
L 389.75768 573.131882 
L 390.296974 572.083839 
L 390.836267 568.522648 
L 391.914854 563.579544 
L 392.454147 561.550821 
L 393.532733 558.656639 
L 394.072027 558.348829 
L 394.61132 557.537374 
L 395.150613 555.991172 
L 395.689906 553.72513 
L 396.2292 552.702953 
L 396.768493 557.579275 
L 397.847079 559.528849 
L 398.386373 560.027941 
L 398.925666 560.875412 
L 400.004252 561.582281 
L 400.543546 561.961406 
L 401.082839 564.347718 
L 401.622132 565.303627 
L 402.161426 567.944846 
L 402.700719 568.178165 
L 403.240012 568.800095 
L 403.779305 568.605642 
L 404.318599 568.240584 
L 404.857892 567.472314 
L 405.936478 564.869795 
L 407.015065 561.898228 
L 407.554358 561.431729 
L 408.093651 559.717883 
L 408.632945 557.434881 
L 409.711531 553.799517 
L 410.790118 551.23784 
L 411.329411 549.308942 
L 411.868704 548.50619 
L 412.947291 556.71558 
L 413.486584 556.671804 
L 414.025877 553.08667 
L 414.565171 550.461792 
L 415.643757 550.753878 
L 416.18305 551.925757 
L 416.722344 551.477709 
L 417.261637 552.2315 
L 417.80093 553.955508 
L 418.340223 558.203072 
L 418.879517 544.397354 
L 421.03669 450.623364 
L 421.575983 415.87915 
L 422.115276 400.488847 
L 422.65457 390.435912 
L 423.193863 362.114831 
L 423.733156 341.668664 
L 424.272449 310.781299 
L 425.890329 268.373373 
L 427.508209 218.227866 
L 428.047502 209.087745 
L 428.586796 207.006398 
L 429.126089 208.22691 
L 429.665382 215.648593 
L 430.204675 208.961082 
L 430.743969 205.327593 
L 431.283262 197.114383 
L 431.822555 185.985338 
L 432.361848 180.010441 
L 432.901142 169.65404 
L 433.440435 171.955242 
L 433.979728 179.235649 
L 434.519021 180.4157 
L 435.058315 191.115098 
L 435.597608 193.295762 
L 436.136901 193.794007 
L 436.676195 193.177206 
L 437.215488 201.981434 
L 437.754781 231.376632 
L 438.294074 247.621224 
L 439.372661 298.28942 
L 439.911954 305.188305 
L 440.451247 310.266729 
L 440.990541 320.612608 
L 441.529834 340.313746 
L 442.069127 343.26337 
L 442.60842 349.166159 
L 443.147714 347.941807 
L 443.687007 351.633057 
L 444.2263 350.280735 
L 444.765593 350.80861 
L 445.304887 347.780817 
L 445.84418 342.508644 
L 446.383473 331.83024 
L 446.922767 314.242564 
L 447.46206 302.21246 
L 448.001353 302.126323 
L 448.540646 303.097878 
L 449.07994 306.831557 
L 449.619233 306.525774 
L 450.158526 307.717874 
L 450.697819 301.044201 
L 451.237113 290.376515 
L 451.776406 270.722174 
L 452.315699 246.675316 
L 453.394286 212.696682 
L 455.012166 177.710279 
L 455.551459 179.789375 
L 456.090752 191.792304 
L 456.630045 198.803024 
L 457.708632 216.87456 
L 458.247925 243.812365 
L 460.405098 306.721962 
L 460.944391 300.065609 
L 461.483685 301.878924 
L 462.022978 301.197233 
L 462.562271 305.401643 
L 463.101564 295.791105 
L 463.640858 290.180249 
L 464.180151 292.531251 
L 465.258738 261.482029 
L 465.798031 251.434794 
L 466.337324 235.450896 
L 466.876617 225.189205 
L 467.415911 211.41429 
L 468.494497 204.926924 
L 469.03379 202.214869 
L 469.573084 204.546696 
L 470.112377 211.290719 
L 470.65167 220.216239 
L 471.190963 225.49001 
L 471.730257 270.39645 
L 472.26955 289.24836 
L 472.808843 315.293785 
L 473.348137 328.020663 
L 474.426723 371.017638 
L 474.966016 399.082519 
L 475.50531 438.723376 
L 476.044603 468.486195 
L 477.123189 489.426108 
L 478.741069 443.510222 
L 479.819656 424.712085 
L 480.358949 408.988453 
L 481.437535 395.808565 
L 481.976829 388.032152 
L 482.516122 370.166716 
L 483.594709 314.138435 
L 485.212588 275.63866 
L 485.751882 263.790395 
L 486.291175 245.707276 
L 487.909055 210.155402 
L 488.448348 208.853991 
L 488.987641 208.441008 
L 489.526934 208.495142 
L 490.605521 203.435853 
L 491.144814 193.583133 
L 491.684108 191.445472 
L 492.223401 184.714907 
L 492.762694 179.658566 
L 493.301987 177.310242 
L 493.841281 188.967208 
L 494.380574 216.125513 
L 495.998454 266.551962 
L 496.537747 290.917338 
L 497.07704 296.362941 
L 498.155627 312.537155 
L 498.69492 325.683458 
L 499.234213 329.992002 
L 499.773506 333.072486 
L 500.3128 339.602046 
L 500.852093 349.800399 
L 501.391386 346.35642 
L 501.93068 348.6529 
L 502.469973 346.331441 
L 503.009266 345.301175 
L 503.548559 342.492374 
L 504.627146 323.329191 
L 505.166439 312.083171 
L 505.705732 295.176134 
L 506.245026 289.969772 
L 506.784319 289.898278 
L 507.862905 291.824274 
L 508.941492 264.257822 
L 509.480785 258.580325 
L 511.098665 221.054955 
L 512.716545 175.372994 
L 513.255838 179.213317 
L 513.795131 173.727134 
L 514.334425 166.271394 
L 515.413011 178.858155 
L 515.952304 191.835507 
L 516.491598 199.957633 
L 517.030891 201.558396 
L 517.570184 215.813676 
L 519.188064 269.712573 
L 519.727357 279.433758 
L 520.266651 287.108039 
L 520.805944 289.838631 
L 521.345237 283.647111 
L 521.88453 275.347165 
L 522.963117 246.322848 
L 523.50241 248.197193 
L 524.041703 254.499152 
L 524.580997 251.373362 
L 525.12029 239.814453 
L 526.198876 200.941376 
L 527.816756 164.574733 
L 528.35605 161.555721 
L 528.895343 161.611904 
L 529.434636 167.78806 
L 529.973929 176.400137 
L 531.052516 218.19751 
L 532.131102 294.95237 
L 533.209689 357.242539 
L 533.748982 382.516478 
L 534.288275 386.378767 
L 534.827569 394.456987 
L 535.906155 430.488652 
L 536.984742 479.468496 
L 537.524035 488.900677 
L 538.063328 506.512027 
L 538.602622 528.734078 
L 539.141915 536.708758 
L 539.681208 536.766453 
L 540.759795 532.032141 
L 541.299088 525.364702 
L 541.838381 525.597281 
L 542.377674 523.539145 
L 542.916968 524.860556 
L 543.456261 527.056115 
L 543.995554 528.388798 
L 544.534847 528.703717 
L 545.074141 527.20045 
L 545.613434 528.145601 
L 546.152727 531.418103 
L 546.692021 532.064625 
L 547.231314 534.013511 
L 547.770607 534.800651 
L 548.3099 537.041043 
L 548.849194 535.004607 
L 549.92778 544.719237 
L 550.467073 550.598062 
L 551.006367 553.56519 
L 552.084953 562.848349 
L 552.624246 559.119795 
L 553.16354 561.826892 
L 553.702833 555.895383 
L 554.242126 556.382414 
L 554.78142 556.089658 
L 555.320713 559.919727 
L 555.860006 566.098302 
L 556.399299 570.491323 
L 557.477886 573.360611 
L 558.017179 570.395148 
L 558.556472 568.949463 
L 559.095766 532.049415 
L 559.635059 505.634532 
L 560.713645 430.106281 
L 561.792232 366.865973 
L 562.331525 348.265926 
L 562.870818 337.112994 
L 563.410112 321.854866 
L 563.949405 299.620333 
L 564.488698 258.212594 
L 565.027992 230.180723 
L 566.645871 180.857639 
L 567.185165 163.545654 
L 568.263751 138.304486 
L 568.803044 136.300542 
L 569.342338 141.809299 
L 569.881631 145.087704 
L 570.420924 145.668422 
L 570.960217 137.39673 
L 571.499511 134.446367 
L 572.038804 118.107981 
L 572.578097 117.669032 
L 573.117391 115.909597 
L 573.656684 125.991452 
L 574.195977 123.43457 
L 574.73527 130.550025 
L 575.274564 143.389019 
L 575.813857 161.3136 
L 576.35315 168.731464 
L 576.892443 183.401643 
L 577.431737 213.490359 
L 577.97103 217.922511 
L 578.510323 229.966056 
L 579.049616 248.97957 
L 579.58891 285.614259 
L 580.128203 290.234631 
L 580.667496 296.340038 
L 581.206789 304.157417 
L 581.746083 321.794513 
L 582.285376 331.413991 
L 582.824669 337.165197 
L 583.363963 336.451371 
L 583.903256 332.710748 
L 584.442549 324.610432 
L 584.981842 312.783514 
L 585.521136 294.705215 
L 586.060429 292.663093 
L 586.599722 293.815664 
L 587.678309 298.925205 
L 588.217602 299.689998 
L 588.756895 293.599661 
L 590.374775 243.302355 
L 591.453362 219.20317 
L 591.992655 191.2976 
L 592.531948 179.420677 
L 593.071241 171.219743 
L 593.610535 175.137398 
L 594.149828 187.813172 
L 594.689121 186.561341 
L 595.767708 203.516037 
L 596.846294 254.845393 
L 597.924881 291.067842 
L 598.464174 291.09109 
L 599.003467 293.259998 
L 599.54276 290.742853 
L 600.082054 287.554303 
L 600.621347 290.838089 
L 601.699934 272.999865 
L 602.239227 260.335912 
L 602.77852 243.383271 
L 603.317813 236.190239 
L 603.857107 223.922712 
L 604.3964 215.15719 
L 604.935693 194.47957 
L 605.474986 186.738206 
L 606.01428 181.668606 
L 606.553573 182.291929 
L 607.092866 183.602387 
L 607.632159 190.965733 
L 608.171453 201.242824 
L 608.710746 217.646863 
L 609.250039 254.521122 
L 610.328626 346.013196 
L 610.867919 377.784886 
L 611.946506 413.072053 
L 612.485799 433.116473 
L 613.564385 497.874907 
L 614.642972 540.311451 
L 615.182265 552.865325 
L 615.721558 570.38696 
L 616.260852 579.107426 
L 616.800145 590.135651 
L 617.339438 598.114261 
L 617.878732 600.21 
L 618.957318 561.717024 
L 619.496611 522.834395 
L 620.575198 485.216959 
L 621.114491 451.948906 
L 622.732371 409.300742 
L 623.271664 385.141714 
L 623.810957 338.907329 
L 624.350251 308.666994 
L 625.96813 256.473097 
L 627.046717 210.507954 
L 627.58601 196.140341 
L 628.125304 189.296616 
L 628.664597 187.577174 
L 629.20389 187.472654 
L 629.743183 179.504291 
L 630.282477 179.780604 
L 630.82177 168.686009 
L 631.361063 151.661054 
L 631.900356 142.279185 
L 632.43965 139.20439 
L 632.978943 127.00793 
L 633.518236 120.344571 
L 634.057529 120.861705 
L 634.596823 130.012246 
L 635.136116 141.934852 
L 635.675409 156.787591 
L 637.293289 221.14149 
L 637.832582 231.07695 
L 638.371876 245.905178 
L 638.911169 271.561509 
L 639.450462 284.069232 
L 639.989755 288.272676 
L 641.068342 308.780811 
L 641.607635 312.844705 
L 642.146928 323.835262 
L 642.686222 332.196219 
L 643.225515 329.72744 
L 643.764808 324.807765 
L 644.843395 301.955073 
L 645.382688 291.839148 
L 645.921981 292.410756 
L 646.461275 295.613091 
L 647.000568 297.409628 
L 647.539861 297.013623 
L 648.079154 299.264454 
L 648.618448 285.782796 
L 650.236327 232.360218 
L 651.314914 209.834228 
L 652.3935 173.466473 
L 652.932794 169.173983 
L 653.472087 174.79462 
L 654.01138 177.358168 
L 655.089967 200.202514 
L 655.62926 215.115084 
L 656.168553 233.108637 
L 657.786433 304.910028 
L 658.325726 325.852571 
L 658.86502 341.207959 
L 659.404313 345.912983 
L 659.943606 311.527013 
L 660.482899 309.016394 
L 661.561486 302.065436 
L 662.100779 295.202677 
L 662.640072 295.329369 
L 663.179366 293.241271 
L 663.718659 295.799023 
L 664.257952 269.388297 
L 664.797246 254.031024 
L 665.336539 232.497424 
L 665.875832 224.520397 
L 666.415125 205.918578 
L 666.954419 198.199673 
L 668.033005 191.083449 
L 669.111592 199.469887 
L 670.190178 226.534635 
L 670.729471 275.234738 
L 671.268765 292.590125 
L 671.808058 293.531465 
L 672.886645 325.997851 
L 673.425938 351.499874 
L 673.965231 371.698058 
L 674.504524 397.808424 
L 675.043818 431.589775 
L 676.122404 480.72787 
L 676.661697 483.494642 
L 677.200991 515.352724 
L 678.279577 461.142017 
L 678.81887 446.056005 
L 679.897457 425.921064 
L 680.43675 405.300686 
L 680.976043 393.84318 
L 682.05463 349.16333 
L 682.593923 328.339489 
L 683.133217 292.841277 
L 683.67251 247.139348 
L 684.211803 223.304923 
L 684.751096 206.813095 
L 685.829683 186.809408 
L 686.368976 160.375065 
L 686.908269 152.146069 
L 687.447563 135.654686 
L 687.986856 136.686832 
L 688.526149 135.833399 
L 689.065442 141.897086 
L 689.604736 138.064544 
L 690.144029 130.902569 
L 690.683322 127.579986 
L 691.222616 120.702818 
L 691.761909 119.143584 
L 692.301202 121.105019 
L 692.840495 119.742335 
L 693.919082 124.181139 
L 694.997668 146.629784 
L 695.536962 162.538187 
L 696.615548 203.270579 
L 697.154841 215.716724 
L 698.233428 251.29942 
L 698.772721 281.418151 
L 700.390601 303.121252 
L 700.929894 324.007315 
L 701.469188 331.131276 
L 702.008481 341.671829 
L 702.547774 341.462969 
L 703.087067 339.911575 
L 703.626361 335.578286 
L 704.165654 327.420699 
L 704.704947 311.209252 
L 705.24424 303.865152 
L 705.783534 300.09982 
L 706.322827 294.82012 
L 707.401413 298.102027 
L 707.940707 294.436749 
L 708.48 285.004547 
L 709.019293 272.29001 
L 710.09788 234.881717 
L 711.71576 200.213179 
L 712.255053 192.247972 
L 712.794346 178.550483 
L 713.872933 192.270982 
L 714.951519 222.395837 
L 716.569399 282.650968 
L 717.108692 294.184853 
L 717.647986 310.836325 
L 718.187279 305.463843 
L 719.265865 291.670894 
L 720.344452 315.610624 
L 720.883745 308.560895 
L 721.423038 304.578251 
L 722.501625 265.39867 
L 723.040918 253.971631 
L 724.658798 205.308406 
L 725.737384 178.147243 
L 726.815971 164.601862 
L 727.355264 163.815033 
L 728.433851 173.73771 
L 728.973144 194.938434 
L 729.512437 237.225453 
L 730.051731 266.809099 
L 730.591024 282.033205 
L 731.130317 286.429998 
L 731.66961 300.761466 
L 732.208904 310.338164 
L 733.28749 405.4755 
L 734.90537 507.657307 
L 736.52325 570.571602 
L 737.062543 576.569369 
L 737.601836 556.89468 
L 738.14113 520.517159 
L 739.219716 469.736054 
L 739.759009 450.828688 
L 740.298303 417.949382 
L 740.837596 407.694786 
L 742.455476 359.749102 
L 743.534062 284.044286 
L 744.612649 240.352009 
L 745.151942 236.269145 
L 745.691235 223.248224 
L 746.230529 205.993752 
L 746.769822 195.605645 
L 747.309115 181.577041 
L 747.848408 190.809381 
L 748.387702 177.681952 
L 748.926995 176.198982 
L 749.466288 174.275244 
L 750.005581 164.027078 
L 750.544875 158.77982 
L 751.623461 140.450511 
L 752.162754 142.259705 
L 752.702048 133.749971 
L 753.241341 122.266615 
L 753.780634 122.475992 
L 754.319928 121.704533 
L 754.859221 131.217202 
L 755.937807 165.415421 
L 757.016394 209.236411 
L 757.555687 226.763435 
L 758.09498 237.109674 
L 759.173567 264.911155 
L 759.71286 269.69879 
L 760.252153 275.962808 
L 760.791447 294.585363 
L 761.33074 304.330686 
L 762.409326 337.440451 
L 762.94862 351.776871 
L 763.487913 351.055853 
L 764.027206 343.008322 
L 764.5665 337.915154 
L 765.645086 322.301556 
L 766.723673 298.600328 
L 767.262966 287.668439 
L 767.802259 280.504197 
L 768.341552 266.163564 
L 769.420139 253.038669 
L 769.959432 243.555503 
L 770.498725 239.890176 
L 772.655899 217.370678 
L 773.195192 216.110668 
L 773.734485 211.62849 
L 774.273778 217.598346 
L 774.813072 218.372606 
L 775.352365 217.702791 
L 775.891658 221.33786 
L 776.430951 223.454745 
L 776.970245 229.667054 
L 777.509538 232.871684 
L 778.048831 234.196113 
L 778.588124 233.226645 
L 779.127418 240.54797 
L 779.666711 235.875745 
L 780.206004 225.442536 
L 780.745297 228.006274 
L 781.284591 236.818658 
L 782.902471 276.462043 
L 783.981057 306.418262 
L 785.059644 343.864425 
L 785.598937 348.957527 
L 786.13823 337.548277 
L 787.75611 290.001128 
L 788.295403 285.864405 
L 788.834696 279.915261 
L 789.37399 280.796461 
L 789.913283 276.707147 
L 790.452576 274.743955 
L 790.99187 269.446593 
L 791.531163 267.055028 
L 792.070456 263.086919 
L 792.609749 260.888592 
L 793.149043 261.121741 
L 794.227629 266.654937 
L 794.766922 263.695679 
L 795.306216 265.47245 
L 795.845509 254.150759 
L 796.384802 251.197667 
L 796.924095 254.339988 
L 797.463389 256.311927 
L 798.002682 259.747515 
L 798.541975 271.636805 
L 799.081268 273.405058 
L 799.620562 278.786423 
L 800.159855 280.814777 
L 800.699148 278.549673 
L 801.238442 280.745731 
L 801.777735 284.44866 
L 802.317028 279.432485 
L 802.856321 278.322845 
L 803.395615 263.793914 
L 803.934908 226.202222 
L 804.474201 206.59296 
L 805.013494 199.098662 
L 805.552788 188.539601 
L 806.092081 180.410334 
L 806.631374 179.390249 
L 807.170667 186.214923 
L 808.788547 212.565446 
L 809.327841 217.191518 
L 809.867134 217.832302 
L 810.406427 218.04346 
L 810.94572 206.340648 
L 811.485014 201.647444 
L 812.024307 198.229276 
L 812.5636 186.598114 
L 813.102893 183.292694 
L 813.642187 176.446004 
L 814.18148 181.853515 
L 814.720773 204.60637 
L 815.79936 220.895413 
L 816.338653 240.185376 
L 816.877946 268.834054 
L 817.956533 288.70155 
L 818.495826 287.437787 
L 819.035119 285.122566 
L 819.574413 291.870831 
L 820.113706 303.373415 
L 820.652999 317.749181 
L 821.192292 347.36196 
L 821.731586 393.373029 
L 822.270879 417.094271 
L 822.810172 435.060226 
L 823.349465 486.250042 
L 823.888759 522.591627 
L 824.428052 548.895421 
L 824.967345 560.12681 
L 826.045932 578.718849 
L 826.585225 582.767119 
L 827.124518 587.732577 
L 827.663812 588.27492 
L 828.203105 588.068761 
L 828.742398 590.38866 
L 829.281691 594.550108 
L 829.820985 595.354884 
L 830.360278 597.635427 
L 831.978158 595.231218 
L 832.517451 593.274644 
L 833.056744 590.604173 
L 833.596037 590.760917 
L 834.135331 591.433 
L 835.213917 591.180335 
L 835.753211 592.641051 
L 836.292504 591.970501 
L 836.831797 591.568239 
L 837.910384 589.414348 
L 838.449677 591.379164 
L 838.98897 592.921758 
L 840.60685 594.304694 
L 841.146143 596.892285 
L 841.685436 597.289983 
L 842.22473 597.876153 
L 842.764023 596.939813 
L 843.842609 593.294021 
L 844.921196 594.967487 
L 845.460489 594.138438 
L 845.999783 594.433801 
L 846.539076 598.163145 
L 847.078369 592.382115 
L 847.617662 592.452653 
L 848.696249 587.007454 
L 849.774835 579.848916 
L 850.314129 576.267156 
L 851.392715 567.915914 
L 851.932008 567.076834 
L 852.471302 569.079285 
L 853.010595 568.792628 
L 853.549888 567.027103 
L 854.628475 564.796689 
L 855.167768 564.544673 
L 855.707061 564.023663 
L 856.246355 562.768691 
L 857.864234 547.733606 
L 858.403528 547.350335 
L 858.942821 547.474306 
L 859.482114 546.255688 
L 860.021407 546.116488 
L 860.560701 545.735762 
L 861.099994 545.062896 
L 861.639287 545.247071 
L 862.17858 544.774471 
L 862.717874 544.005985 
L 863.79646 543.164969 
L 864.335754 542.931308 
L 864.875047 542.95747 
L 865.41434 542.74496 
L 865.953633 543.532831 
L 866.492927 542.775551 
L 867.03222 534.33857 
L 867.571513 530.63573 
L 868.110806 530.960245 
L 868.6501 524.745038 
L 869.189393 516.292143 
L 869.728686 504.965998 
L 870.267979 512.963968 
L 870.807273 515.513318 
L 871.346566 514.660815 
L 871.885859 514.523354 
L 872.425153 477.229849 
L 873.503739 388.208529 
L 874.043032 354.815495 
L 875.121619 316.723976 
L 875.660912 300.675109 
L 876.200205 275.26469 
L 876.739499 261.350706 
L 877.818085 227.566376 
L 878.896672 207.449932 
L 879.435965 194.598622 
L 879.975258 166.552683 
L 881.053845 153.437766 
L 881.593138 141.921577 
L 882.132431 144.924259 
L 882.671725 154.928235 
L 883.211018 147.433559 
L 883.750311 143.722953 
L 884.828898 132.297867 
L 885.368191 130.816001 
L 885.907484 121.035048 
L 886.446777 124.584096 
L 886.986071 124.770727 
L 887.525364 124.547694 
L 888.064657 129.253416 
L 889.143244 149.546531 
L 889.682537 163.193692 
L 890.22183 180.243514 
L 891.300417 205.446257 
L 891.83971 222.869724 
L 892.379003 245.003079 
L 892.918297 251.512033 
L 893.45759 260.99123 
L 893.996883 273.898538 
L 894.536176 291.473765 
L 895.614763 313.860731 
L 896.154056 312.066586 
L 896.693349 314.634934 
L 897.232643 318.88317 
L 897.771936 315.703342 
L 898.311229 298.839215 
L 899.389816 295.37787 
L 899.929109 295.878069 
L 900.468402 297.511436 
L 901.546989 288.51365 
L 902.625575 262.051879 
L 903.164869 240.47792 
L 903.704162 225.509444 
L 905.322042 204.0229 
L 905.861335 193.533567 
L 906.400628 194.102811 
L 906.939921 195.643237 
L 907.479215 200.21229 
L 908.018508 211.365839 
L 908.557801 227.614074 
L 909.097095 261.444861 
L 909.636388 273.281515 
L 911.254268 341.064189 
L 911.793561 358.072167 
L 912.332854 381.196529 
L 912.872147 366.988643 
L 913.950734 326.904232 
L 914.490027 326.785442 
L 915.02932 331.119071 
L 915.568614 324.459039 
L 916.107907 319.378655 
L 917.186494 282.06045 
L 918.26508 253.319727 
L 918.804373 246.548185 
L 919.88296 208.48757 
L 920.422253 199.834648 
L 921.50084 194.361507 
L 922.579426 204.691281 
L 923.118719 215.963303 
L 924.736599 330.894896 
L 925.815186 343.352413 
L 926.354479 360.393989 
L 926.893772 367.432145 
L 927.972359 455.035199 
L 929.050945 513.655299 
L 929.590239 527.400893 
L 930.129532 553.691572 
L 930.668825 569.808093 
L 931.208118 576.928455 
L 931.747412 581.837972 
L 933.904585 471.20287 
L 934.443878 451.571255 
L 934.983171 411.557776 
L 935.522465 392.814941 
L 936.061758 382.426788 
L 937.140344 344.528206 
L 937.679638 315.385703 
L 938.218931 278.531138 
L 938.758224 251.686569 
L 939.836811 217.463334 
L 940.376104 204.18187 
L 940.915397 177.033622 
L 941.45469 161.461752 
L 942.533277 146.962026 
L 943.07257 155.682426 
L 943.611863 157.885312 
L 944.151157 155.541446 
L 944.69045 150.451725 
L 945.769037 138.757544 
L 946.847623 129.819715 
L 947.386916 128.400669 
L 947.92621 130.226598 
L 948.465503 143.381241 
L 949.544089 180.336201 
L 950.622676 220.820677 
L 951.161969 220.550609 
L 951.701262 238.096287 
L 952.240556 251.990557 
L 952.779849 272.042286 
L 953.319142 285.376395 
L 954.397729 299.531606 
L 954.937022 315.118317 
L 955.476315 321.418429 
L 956.015609 335.053727 
L 956.554902 338.179541 
L 957.094195 333.634265 
L 957.633488 322.672297 
L 958.172782 314.098049 
L 958.712075 296.439956 
L 959.251368 292.570234 
L 959.790661 289.557395 
L 960.329955 289.868336 
L 960.869248 291.1476 
L 961.408541 291.972805 
L 961.947834 289.272862 
L 962.487128 278.369155 
L 964.105008 223.520762 
L 965.183594 198.067064 
L 965.722887 178.488039 
L 966.262181 165.175509 
L 966.801474 166.993405 
L 967.340767 177.855287 
L 968.419354 202.826055 
L 968.958647 214.004468 
L 970.037233 266.94974 
L 970.576527 287.738637 
L 971.11582 299.604356 
L 971.655113 321.429981 
L 972.194407 324.963828 
L 972.7337 314.045777 
L 973.272993 324.060739 
L 973.812286 344.140175 
L 974.35158 348.331587 
L 974.890873 346.019363 
L 975.430166 315.584371 
L 975.969459 293.211559 
L 976.508753 284.9644 
L 977.048046 279.590097 
L 977.587339 268.692668 
L 978.665926 235.874112 
L 979.205219 233.531899 
L 979.744512 233.420013 
L 980.283805 235.462357 
L 980.823099 236.491223 
L 981.362392 242.880523 
L 982.440979 265.08441 
L 982.980272 303.586051 
L 983.519565 351.729206 
L 984.058858 363.801333 
L 984.598152 373.129003 
L 985.676738 405.062495 
L 986.216031 460.483296 
L 987.294618 517.862696 
L 987.833911 537.953332 
L 988.912498 556.756151 
L 989.991084 508.037272 
L 990.530378 478.669232 
L 991.069671 469.695258 
L 991.608964 439.819061 
L 992.148257 419.618944 
L 993.226844 397.320176 
L 994.30543 348.712286 
L 994.844724 325.378633 
L 995.384017 293.451286 
L 995.92331 273.324176 
L 996.462603 260.366312 
L 997.001897 250.568909 
L 997.54119 235.019873 
L 998.080483 214.748315 
L 998.619777 200.957881 
L 999.15907 195.287351 
L 1000.237656 175.247935 
L 1000.77695 170.809138 
L 1001.855536 151.964743 
L 1002.934123 147.818232 
L 1003.473416 149.714813 
L 1004.012709 142.171821 
L 1004.552002 147.074252 
L 1005.091296 138.705274 
L 1005.630589 138.89737 
L 1006.169882 145.437485 
L 1007.787762 172.635394 
L 1008.327055 187.595626 
L 1008.866349 198.06819 
L 1009.405642 199.920669 
L 1010.484228 216.463953 
L 1011.562815 223.492981 
L 1012.641401 241.584177 
L 1013.180695 245.587837 
L 1013.719988 260.161114 
L 1014.259281 270.679785 
L 1014.798574 274.371957 
L 1016.416454 258.425148 
L 1016.955748 261.430389 
L 1017.495041 268.387414 
L 1018.034334 277.326481 
L 1018.573627 277.336972 
L 1019.112921 272.876116 
L 1019.652214 270.808658 
L 1020.7308 245.909459 
L 1021.270094 228.188083 
L 1021.809387 223.720706 
L 1022.34868 225.214384 
L 1022.887973 222.851473 
L 1023.427267 226.817856 
L 1023.96656 235.136043 
L 1024.505853 245.481009 
L 1025.045146 264.797682 
L 1025.58444 257.981354 
L 1026.663026 284.372443 
L 1027.20232 310.231127 
L 1027.741613 328.3694 
L 1028.280906 359.651318 
L 1028.820199 358.01734 
L 1029.359493 359.491258 
L 1029.898786 352.505001 
L 1030.438079 360.693655 
L 1032.055959 293.073191 
L 1032.595252 292.089579 
L 1033.134545 298.610234 
L 1033.673839 316.798636 
L 1034.213132 328.071726 
L 1034.752425 314.788639 
L 1036.370305 252.587011 
L 1036.909598 243.377478 
L 1037.988185 214.552384 
L 1039.066771 201.221449 
L 1039.606065 202.079234 
L 1040.145358 209.810807 
L 1040.684651 220.117845 
L 1041.223944 236.714257 
L 1041.763238 268.087069 
L 1042.302531 307.145166 
L 1042.841824 335.68066 
L 1043.381117 339.704842 
L 1043.920411 338.231148 
L 1044.459704 309.298871 
L 1044.998997 312.082238 
L 1046.616877 404.2305 
L 1047.15617 428.511725 
L 1047.695464 442.540534 
L 1048.234757 467.405681 
L 1048.77405 482.237632 
L 1049.313343 460.305162 
L 1049.852637 424.652692 
L 1050.931223 382.43376 
L 1052.00981 339.700306 
L 1052.549103 327.402024 
L 1053.62769 277.079438 
L 1054.166983 265.383264 
L 1054.706276 230.245559 
L 1055.245569 226.599314 
L 1055.784863 209.64011 
L 1056.324156 201.357568 
L 1057.942036 153.196709 
L 1058.481329 143.29738 
L 1059.020622 148.469373 
L 1059.559915 149.962549 
L 1060.099209 144.25329 
L 1060.638502 152.770427 
L 1061.177795 138.332773 
L 1061.717088 132.022141 
L 1062.256382 122.760227 
L 1063.334968 111.426982 
L 1063.874262 119.055212 
L 1064.413555 112.347511 
L 1064.952848 108.81 
L 1065.492141 117.743658 
L 1066.031435 124.789694 
L 1066.570728 143.283902 
L 1067.110021 156.155185 
L 1067.649314 175.787115 
L 1068.188608 199.895104 
L 1070.885074 261.476113 
L 1071.424367 267.304774 
L 1071.963661 290.911912 
L 1072.502954 300.161932 
L 1073.042247 312.177888 
L 1074.120834 325.677285 
L 1074.660127 322.943018 
L 1075.738713 308.752121 
L 1076.278007 299.95551 
L 1076.8173 296.395014 
L 1077.895886 282.75133 
L 1078.43518 280.888019 
L 1078.974473 275.953795 
L 1080.053059 249.283743 
L 1080.592353 241.859022 
L 1081.131646 238.213905 
L 1081.670939 239.535684 
L 1082.210233 249.084505 
L 1083.828112 291.645104 
L 1084.367406 312.184141 
L 1084.906699 318.68265 
L 1085.985285 310.047475 
L 1086.524579 305.244344 
L 1087.063872 304.573954 
L 1087.603165 302.549079 
L 1088.142458 307.281927 
L 1088.681752 318.401842 
L 1089.760338 326.545509 
L 1090.299632 335.339963 
L 1090.838925 340.783938 
L 1091.378218 344.697411 
L 1091.917511 335.392335 
L 1092.456805 319.431273 
L 1093.535391 307.161966 
L 1094.074684 303.087007 
L 1094.613978 296.63955 
L 1095.153271 295.386648 
L 1095.692564 289.039002 
L 1096.231857 272.586864 
L 1097.849737 206.962355 
L 1098.389031 188.33095 
L 1099.467617 171.09934 
L 1100.00691 170.446532 
L 1100.546204 168.390379 
L 1101.085497 170.17165 
L 1101.62479 169.723563 
L 1102.164083 175.841968 
L 1103.24267 200.358408 
L 1103.781963 195.043576 
L 1104.321256 203.389919 
L 1104.86055 204.886444 
L 1105.399843 213.804933 
L 1105.939136 216.457505 
L 1106.478429 215.926612 
L 1107.017723 217.482234 
L 1107.557016 218.407384 
L 1108.096309 206.581544 
L 1108.635603 216.763952 
L 1109.174896 210.721292 
L 1109.714189 222.568564 
L 1110.253482 216.969778 
L 1110.792776 220.109281 
L 1111.332069 230.098568 
L 1111.871362 242.475713 
L 1112.410655 251.609575 
L 1112.949949 252.508883 
L 1113.489242 258.285316 
L 1114.028535 260.682074 
L 1114.567828 255.085661 
L 1115.107122 252.60985 
L 1115.646415 252.398226 
L 1116.185708 251.488627 
L 1116.725002 257.257213 
L 1117.264295 264.894116 
L 1117.803588 263.515913 
L 1118.342881 259.04622 
L 1118.882175 259.087255 
L 1119.421468 256.414416 
L 1119.960761 260.353415 
L 1120.500054 256.520476 
L 1121.039348 255.706703 
L 1122.117934 246.202469 
L 1123.196521 232.972493 
L 1123.735814 229.522387 
L 1124.275107 227.213768 
L 1124.8144 218.410257 
L 1125.353694 224.335147 
L 1126.43228 212.262393 
L 1126.971574 206.372905 
L 1127.510867 193.550666 
L 1128.05016 187.981294 
L 1128.589453 190.476393 
L 1129.128747 181.257383 
L 1129.66804 180.275047 
L 1130.207333 183.009723 
L 1130.746626 187.837443 
L 1131.28592 186.044283 
L 1131.825213 179.607918 
L 1132.364506 169.257585 
L 1132.903799 161.894699 
L 1133.443093 150.640022 
L 1133.982386 145.992393 
L 1134.521679 143.515089 
L 1135.060973 146.024564 
L 1135.600266 147.809818 
L 1136.139559 136.01578 
L 1136.678852 136.82607 
L 1137.218146 139.357386 
L 1137.757439 139.517388 
L 1138.296732 141.452489 
L 1138.836025 144.20793 
L 1139.375319 139.858941 
L 1139.914612 140.651054 
L 1140.453905 144.009004 
L 1140.993198 138.225611 
L 1141.532492 139.70315 
L 1142.071785 141.843397 
L 1142.611078 142.812489 
L 1143.150371 147.754957 
L 1144.768251 176.630984 
L 1145.307545 189.433069 
L 1145.846838 206.022978 
L 1146.386131 216.670778 
L 1147.464718 253.208385 
L 1148.004011 263.000398 
L 1148.543304 276.65834 
L 1149.082597 278.388216 
L 1149.621891 278.202341 
L 1150.161184 295.945931 
L 1150.700477 307.258998 
L 1151.23977 308.184197 
L 1151.779064 307.865911 
L 1152.318357 305.977813 
L 1152.85765 307.638853 
L 1153.396944 303.621365 
L 1153.936237 308.330366 
L 1154.47553 308.267481 
L 1155.014823 305.087223 
L 1155.554117 292.501149 
L 1156.09341 284.939157 
L 1156.632703 284.086207 
L 1157.171996 287.716945 
L 1157.71129 298.446548 
L 1158.250583 303.901825 
L 1158.789876 306.564868 
L 1159.329169 312.17207 
L 1159.868463 327.357308 
L 1160.407756 332.372363 
L 1160.947049 307.137975 
L 1161.486342 315.569429 
L 1162.025636 336.558663 
L 1162.564929 348.161037 
L 1163.104222 354.715286 
L 1163.643516 369.896256 
L 1164.182809 362.788502 
L 1164.722102 353.624674 
L 1165.261395 348.604833 
L 1165.800689 342.522092 
L 1166.339982 366.370402 
L 1166.879275 362.620076 
L 1167.418568 355.231343 
L 1167.957862 358.47864 
L 1168.497155 363.504165 
L 1169.036448 376.376622 
L 1169.575741 395.569817 
L 1170.654328 415.745644 
L 1171.193621 430.079278 
L 1171.732915 447.431368 
L 1172.272208 451.820866 
L 1172.811501 473.483733 
L 1174.429381 507.613582 
L 1174.968674 520.74737 
L 1175.507967 527.207645 
L 1176.047261 531.968395 
L 1176.586554 535.454412 
L 1177.125847 535.204636 
L 1177.66514 545.715324 
L 1178.204434 560.066408 
L 1178.743727 564.469341 
L 1179.28302 564.942752 
L 1179.822314 565.704819 
L 1180.9009 566.063259 
L 1181.440193 566.50338 
L 1181.979487 566.253895 
L 1182.51878 565.329626 
L 1183.058073 562.724701 
L 1183.597366 563.984218 
L 1184.13666 568.825799 
L 1184.675953 568.50096 
L 1185.215246 564.857403 
L 1185.754539 559.277092 
L 1186.293833 549.583285 
L 1187.372419 535.903005 
L 1187.911712 528.230734 
L 1188.451006 518.728827 
L 1188.990299 512.546383 
L 1189.529592 495.032926 
L 1190.608179 477.36965 
L 1191.686765 471.865755 
L 1192.226059 471.351485 
L 1192.765352 471.403565 
L 1193.304645 471.622872 
L 1193.843938 470.379213 
L 1194.383232 465.225892 
L 1194.922525 464.828055 
L 1195.461818 446.112505 
L 1195.461818 446.112505 
" style="fill:none;stroke:#1f77b4;stroke-linecap:square;stroke-width:1.5;"/>
   </g>
   <g id="patch_3">
    <path d="M 172.8 624.78 
L 172.8 84.24 
" style="fill:none;stroke:#000000;stroke-linecap:square;stroke-linejoin:miter;stroke-width:0.8;"/>
   </g>
   <g id="patch_4">
    <path d="M 1244.16 624.78 
L 1244.16 84.24 
" style="fill:none;stroke:#000000;stroke-linecap:square;stroke-linejoin:miter;stroke-width:0.8;"/>
   </g>
   <g id="patch_5">
    <path d="M 172.8 624.78 
L 1244.16 624.78 
" style="fill:none;stroke:#000000;stroke-linecap:square;stroke-linejoin:miter;stroke-width:0.8;"/>
   </g>
   <g id="patch_6">
    <path d="M 172.8 84.24 
L 1244.16 84.24 
" style="fill:none;stroke:#000000;stroke-linecap:square;stroke-linejoin:miter;stroke-width:0.8;"/>
   </g>
  </g>
 </g>
 <defs>
  <clipPath id="p2faa317c57">
   <rect height="540.54" width="1071.36" x="172.8" y="84.24"/>
  </clipPath>
 </defs>
</svg>
