<?xml version="1.0" encoding="utf-8" standalone="no"?>
<!DOCTYPE svg PUBLIC "-//W3C//DTD SVG 1.1//EN"
  "http://www.w3.org/Graphics/SVG/1.1/DTD/svg11.dtd">
<svg height="57.6pt" version="1.1" viewBox="0 0 460.8 57.6" width="460.8pt" xmlns="http://www.w3.org/2000/svg" xmlns:xlink="http://www.w3.org/1999/xlink">
 <metadata>
  <rdf:RDF xmlns:cc="http://creativecommons.org/ns#" xmlns:dc="http://purl.org/dc/elements/1.1/" xmlns:rdf="http://www.w3.org/1999/02/22-rdf-syntax-ns#">
   <cc:Work>
    <dc:type rdf:resource="http://purl.org/dc/dcmitype/StillImage"/>
    <dc:date>2022-05-10T11:34:04.793187</dc:date>
    <dc:format>image/svg+xml</dc:format>
    <dc:creator>
     <cc:Agent>
      <dc:title>Matplotlib v3.4.2, https://matplotlib.org/</dc:title>
     </cc:Agent>
    </dc:creator>
   </cc:Work>
  </rdf:RDF>
 </metadata>
 <defs>
  <style type="text/css">*{stroke-linecap:butt;stroke-linejoin:round;}</style>
 </defs>
 <g id="figure_1">
  <g id="patch_1">
   <path d="M 0 57.6 
L 460.8 57.6 
L 460.8 0 
L 0 0 
z
" style="fill:#ffffff;"/>
  </g>
  <g id="axes_1">
   <g id="patch_2">
    <path d="M 57.6 51.264 
L 414.72 51.264 
L 414.72 6.912 
L 57.6 6.912 
z
" style="fill:#ffffff;"/>
   </g>
   <g id="matplotlib.axis_1">
    <g id="xtick_1">
     <g id="line2d_1">
      <defs>
       <path d="M 0 0 
L 0 3.5 
" id="mee82b73e42" style="stroke:#000000;stroke-width:0.8;"/>
      </defs>
      <g>
       <use style="stroke:#000000;stroke-width:0.8;" x="108.935189" xlink:href="#mee82b73e42" y="51.264"/>
      </g>
     </g>
     <g id="text_1">
      <!-- 24000 -->
      <g transform="translate(93.028939 65.862437)scale(0.1 -0.1)">
       <defs>
        <path d="M 1228 531 
L 3431 531 
L 3431 0 
L 469 0 
L 469 531 
Q 828 903 1448 1529 
Q 2069 2156 2228 2338 
Q 2531 2678 2651 2914 
Q 2772 3150 2772 3378 
Q 2772 3750 2511 3984 
Q 2250 4219 1831 4219 
Q 1534 4219 1204 4116 
Q 875 4013 500 3803 
L 500 4441 
Q 881 4594 1212 4672 
Q 1544 4750 1819 4750 
Q 2544 4750 2975 4387 
Q 3406 4025 3406 3419 
Q 3406 3131 3298 2873 
Q 3191 2616 2906 2266 
Q 2828 2175 2409 1742 
Q 1991 1309 1228 531 
z
" id="DejaVuSans-32" transform="scale(0.015625)"/>
        <path d="M 2419 4116 
L 825 1625 
L 2419 1625 
L 2419 4116 
z
M 2253 4666 
L 3047 4666 
L 3047 1625 
L 3713 1625 
L 3713 1100 
L 3047 1100 
L 3047 0 
L 2419 0 
L 2419 1100 
L 313 1100 
L 313 1709 
L 2253 4666 
z
" id="DejaVuSans-34" transform="scale(0.015625)"/>
        <path d="M 2034 4250 
Q 1547 4250 1301 3770 
Q 1056 3291 1056 2328 
Q 1056 1369 1301 889 
Q 1547 409 2034 409 
Q 2525 409 2770 889 
Q 3016 1369 3016 2328 
Q 3016 3291 2770 3770 
Q 2525 4250 2034 4250 
z
M 2034 4750 
Q 2819 4750 3233 4129 
Q 3647 3509 3647 2328 
Q 3647 1150 3233 529 
Q 2819 -91 2034 -91 
Q 1250 -91 836 529 
Q 422 1150 422 2328 
Q 422 3509 836 4129 
Q 1250 4750 2034 4750 
z
" id="DejaVuSans-30" transform="scale(0.015625)"/>
       </defs>
       <use xlink:href="#DejaVuSans-32"/>
       <use x="63.623047" xlink:href="#DejaVuSans-34"/>
       <use x="127.246094" xlink:href="#DejaVuSans-30"/>
       <use x="190.869141" xlink:href="#DejaVuSans-30"/>
       <use x="254.492188" xlink:href="#DejaVuSans-30"/>
      </g>
     </g>
    </g>
    <g id="xtick_2">
     <g id="line2d_2">
      <g>
       <use style="stroke:#000000;stroke-width:0.8;" x="175.149285" xlink:href="#mee82b73e42" y="51.264"/>
      </g>
     </g>
     <g id="text_2">
      <!-- 24500 -->
      <g transform="translate(159.243035 65.862437)scale(0.1 -0.1)">
       <defs>
        <path d="M 691 4666 
L 3169 4666 
L 3169 4134 
L 1269 4134 
L 1269 2991 
Q 1406 3038 1543 3061 
Q 1681 3084 1819 3084 
Q 2600 3084 3056 2656 
Q 3513 2228 3513 1497 
Q 3513 744 3044 326 
Q 2575 -91 1722 -91 
Q 1428 -91 1123 -41 
Q 819 9 494 109 
L 494 744 
Q 775 591 1075 516 
Q 1375 441 1709 441 
Q 2250 441 2565 725 
Q 2881 1009 2881 1497 
Q 2881 1984 2565 2268 
Q 2250 2553 1709 2553 
Q 1456 2553 1204 2497 
Q 953 2441 691 2322 
L 691 4666 
z
" id="DejaVuSans-35" transform="scale(0.015625)"/>
       </defs>
       <use xlink:href="#DejaVuSans-32"/>
       <use x="63.623047" xlink:href="#DejaVuSans-34"/>
       <use x="127.246094" xlink:href="#DejaVuSans-35"/>
       <use x="190.869141" xlink:href="#DejaVuSans-30"/>
       <use x="254.492188" xlink:href="#DejaVuSans-30"/>
      </g>
     </g>
    </g>
    <g id="xtick_3">
     <g id="line2d_3">
      <g>
       <use style="stroke:#000000;stroke-width:0.8;" x="241.36338" xlink:href="#mee82b73e42" y="51.264"/>
      </g>
     </g>
     <g id="text_3">
      <!-- 25000 -->
      <g transform="translate(225.45713 65.862437)scale(0.1 -0.1)">
       <use xlink:href="#DejaVuSans-32"/>
       <use x="63.623047" xlink:href="#DejaVuSans-35"/>
       <use x="127.246094" xlink:href="#DejaVuSans-30"/>
       <use x="190.869141" xlink:href="#DejaVuSans-30"/>
       <use x="254.492188" xlink:href="#DejaVuSans-30"/>
      </g>
     </g>
    </g>
    <g id="xtick_4">
     <g id="line2d_4">
      <g>
       <use style="stroke:#000000;stroke-width:0.8;" x="307.577476" xlink:href="#mee82b73e42" y="51.264"/>
      </g>
     </g>
     <g id="text_4">
      <!-- 25500 -->
      <g transform="translate(291.671226 65.862437)scale(0.1 -0.1)">
       <use xlink:href="#DejaVuSans-32"/>
       <use x="63.623047" xlink:href="#DejaVuSans-35"/>
       <use x="127.246094" xlink:href="#DejaVuSans-35"/>
       <use x="190.869141" xlink:href="#DejaVuSans-30"/>
       <use x="254.492188" xlink:href="#DejaVuSans-30"/>
      </g>
     </g>
    </g>
    <g id="xtick_5">
     <g id="line2d_5">
      <g>
       <use style="stroke:#000000;stroke-width:0.8;" x="373.791571" xlink:href="#mee82b73e42" y="51.264"/>
      </g>
     </g>
     <g id="text_5">
      <!-- 26000 -->
      <g transform="translate(357.885321 65.862437)scale(0.1 -0.1)">
       <defs>
        <path d="M 2113 2584 
Q 1688 2584 1439 2293 
Q 1191 2003 1191 1497 
Q 1191 994 1439 701 
Q 1688 409 2113 409 
Q 2538 409 2786 701 
Q 3034 994 3034 1497 
Q 3034 2003 2786 2293 
Q 2538 2584 2113 2584 
z
M 3366 4563 
L 3366 3988 
Q 3128 4100 2886 4159 
Q 2644 4219 2406 4219 
Q 1781 4219 1451 3797 
Q 1122 3375 1075 2522 
Q 1259 2794 1537 2939 
Q 1816 3084 2150 3084 
Q 2853 3084 3261 2657 
Q 3669 2231 3669 1497 
Q 3669 778 3244 343 
Q 2819 -91 2113 -91 
Q 1303 -91 875 529 
Q 447 1150 447 2328 
Q 447 3434 972 4092 
Q 1497 4750 2381 4750 
Q 2619 4750 2861 4703 
Q 3103 4656 3366 4563 
z
" id="DejaVuSans-36" transform="scale(0.015625)"/>
       </defs>
       <use xlink:href="#DejaVuSans-32"/>
       <use x="63.623047" xlink:href="#DejaVuSans-36"/>
       <use x="127.246094" xlink:href="#DejaVuSans-30"/>
       <use x="190.869141" xlink:href="#DejaVuSans-30"/>
       <use x="254.492188" xlink:href="#DejaVuSans-30"/>
      </g>
     </g>
    </g>
   </g>
   <g id="matplotlib.axis_2">
    <g id="ytick_1">
     <g id="line2d_6">
      <defs>
       <path d="M 0 0 
L -3.5 0 
" id="m36c345609f" style="stroke:#000000;stroke-width:0.8;"/>
      </defs>
      <g>
       <use style="stroke:#000000;stroke-width:0.8;" x="57.6" xlink:href="#m36c345609f" y="44.956514"/>
      </g>
     </g>
     <g id="text_6">
      <!-- 4000 -->
      <g transform="translate(25.15 48.755733)scale(0.1 -0.1)">
       <use xlink:href="#DejaVuSans-34"/>
       <use x="63.623047" xlink:href="#DejaVuSans-30"/>
       <use x="127.246094" xlink:href="#DejaVuSans-30"/>
       <use x="190.869141" xlink:href="#DejaVuSans-30"/>
      </g>
     </g>
    </g>
    <g id="ytick_2">
     <g id="line2d_7">
      <g>
       <use style="stroke:#000000;stroke-width:0.8;" x="57.6" xlink:href="#m36c345609f" y="19.519418"/>
      </g>
     </g>
     <g id="text_7">
      <!-- 6000 -->
      <g transform="translate(25.15 23.318636)scale(0.1 -0.1)">
       <use xlink:href="#DejaVuSans-36"/>
       <use x="63.623047" xlink:href="#DejaVuSans-30"/>
       <use x="127.246094" xlink:href="#DejaVuSans-30"/>
       <use x="190.869141" xlink:href="#DejaVuSans-30"/>
      </g>
     </g>
    </g>
   </g>
   <g id="line2d_8">
    <path clip-path="url(#p7680c07678)" d="M 57.553051 21.85963 
L 58.082764 13.36364 
L 58.34762 10.972553 
L 58.612476 10.260314 
L 58.877333 10.311189 
L 59.274617 12.193534 
L 60.996184 25.01383 
L 61.658325 27.201421 
L 62.055609 28.015408 
L 62.585322 28.320653 
L 63.115035 28.015408 
L 63.247463 28.218904 
L 63.379891 27.913659 
L 63.512319 27.913659 
L 63.777176 28.473275 
L 63.909604 28.422401 
L 64.042032 28.625898 
L 64.96903 31.780098 
L 65.101458 31.932721 
L 65.498742 32.746708 
L 65.763599 33.001079 
L 65.896027 32.797582 
L 66.028455 33.001079 
L 66.293311 32.543211 
L 67.485165 31.271356 
L 67.617593 31.220482 
L 67.750022 30.966111 
L 67.88245 31.016985 
L 68.014878 31.220482 
L 68.147306 31.067859 
L 68.677019 31.729224 
L 68.809447 31.729224 
L 69.074303 32.390588 
L 70.398585 35.697411 
L 70.531014 35.799159 
L 71.325583 37.376259 
L 71.458011 37.478008 
L 71.855295 38.139372 
L 72.385008 38.59724 
L 72.649865 39.105982 
L 72.782293 39.055107 
L 73.047149 39.360353 
L 73.179577 39.512975 
L 73.312006 39.411227 
L 73.576862 39.614724 
L 73.70929 39.81822 
L 73.974147 39.81822 
L 74.768716 40.326962 
L 74.901144 40.225214 
L 75.033572 40.326962 
L 75.166 40.581333 
L 75.563285 40.377836 
L 75.828141 40.581333 
L 75.960569 40.683082 
L 76.092998 40.428711 
L 76.490282 40.733956 
L 76.62271 40.530459 
L 76.887567 40.683082 
L 77.019995 40.835704 
L 77.152423 40.632207 
L 77.417279 41.039201 
L 77.549708 40.78483 
L 77.814564 40.835704 
L 77.946992 40.733956 
L 78.211849 40.937453 
L 78.344277 41.191824 
L 78.741561 41.140949 
L 79.138846 41.649691 
L 79.403702 41.598817 
L 79.536131 41.649691 
L 79.800987 42.107559 
L 79.933415 41.954936 
L 80.065843 42.36193 
L 80.3307 42.260182 
L 80.860412 42.921546 
L 80.992841 42.97242 
L 81.125269 43.430288 
L 81.257697 43.481162 
L 81.390125 43.32854 
L 81.919838 44.040778 
L 82.052266 43.837282 
L 82.184694 44.091653 
L 82.317123 43.93903 
L 82.714407 42.667175 
L 82.979264 40.733956 
L 83.24412 37.63063 
L 83.641404 30.915237 
L 84.70083 12.244408 
L 85.098115 9.548076 
L 85.362971 9.039334 
L 85.495399 9.293705 
L 85.892684 11.532169 
L 87.746678 24.555963 
L 88.408819 26.540056 
L 88.541248 26.845301 
L 88.673676 26.794427 
L 88.938532 27.048798 
L 89.07096 26.94705 
L 89.203389 27.099672 
L 90.130386 26.845301 
L 90.262814 26.845301 
L 90.924955 28.625898 
L 91.32224 30.152124 
L 91.719524 31.32223 
L 91.851952 31.474853 
L 92.116809 32.136217 
L 92.381665 31.983595 
L 92.514093 32.034469 
L 92.77895 31.627475 
L 92.911378 31.881846 
L 93.043806 31.780098 
L 93.308662 31.373104 
L 93.970803 30.457369 
L 94.103232 30.406495 
L 94.23566 30.559117 
L 94.368088 30.508243 
L 94.500516 30.253872 
L 94.765373 30.71174 
L 94.897801 30.71174 
L 95.824798 32.28884 
L 96.354511 33.713317 
L 96.486939 33.916814 
L 96.884224 35.188669 
L 97.016652 35.290417 
L 97.413936 36.05353 
L 97.943649 37.121888 
L 98.076077 37.223637 
L 98.473362 38.088498 
L 98.60579 38.037624 
L 98.738218 38.291995 
L 98.870646 38.24112 
L 99.135503 38.648114 
L 99.930072 39.411227 
L 100.0625 39.360353 
L 100.194928 39.614724 
L 100.327357 39.563849 
L 100.592213 39.81822 
L 100.724641 39.767346 
L 100.857069 39.869095 
L 100.989498 39.767346 
L 101.254354 40.17434 
L 101.51921 39.970843 
L 101.916495 40.17434 
L 102.578636 40.225214 
L 102.843492 40.428711 
L 102.97592 40.225214 
L 103.240777 40.377836 
L 103.902918 40.632207 
L 104.035346 40.530459 
L 104.300202 40.683082 
L 104.43263 40.530459 
L 104.829915 40.886578 
L 105.359628 41.039201 
L 105.492056 41.293572 
L 105.624484 41.191824 
L 105.889341 41.446195 
L 106.154197 41.700565 
L 106.286625 41.904062 
L 106.419053 41.700565 
L 106.68391 42.056685 
L 106.948766 42.260182 
L 107.213622 42.463678 
L 107.346051 42.718049 
L 107.478479 42.565427 
L 107.743335 43.125043 
L 107.875763 43.074169 
L 108.802761 43.735533 
L 109.332474 43.735533 
L 109.464902 43.582911 
L 109.862186 41.598817 
L 110.127043 39.156856 
L 110.656755 30.304746 
L 111.583753 12.956647 
L 111.981037 8.886711 
L 112.245894 7.920102 
L 112.378322 8.123598 
L 112.51075 8.072724 
L 113.172891 12.193534 
L 113.96746 18.501934 
L 114.364745 21.198266 
L 115.026886 23.945472 
L 115.689027 25.217327 
L 115.821455 25.166453 
L 115.953883 25.36995 
L 116.086311 25.166453 
L 116.218739 25.36995 
L 116.483596 25.166453 
L 116.616024 24.962956 
L 116.88088 25.064705 
L 117.013309 24.962956 
L 117.543021 25.217327 
L 117.940306 26.234811 
L 119.13216 30.559117 
L 119.661872 30.915237 
L 120.58887 30.609992 
L 120.721298 30.304746 
L 120.986154 30.202998 
L 121.515867 29.846879 
L 121.913152 29.897753 
L 122.178008 30.406495 
L 122.972577 31.830972 
L 125.091428 36.562272 
L 125.621141 37.02014 
L 125.885997 37.427133 
L 126.150854 37.732378 
L 126.945423 38.648114 
L 127.210279 38.648114 
L 127.607564 39.004233 
L 127.87242 38.902485 
L 128.137277 39.309478 
L 128.402133 39.20773 
L 128.534561 39.512975 
L 128.666989 39.360353 
L 128.931846 39.462101 
L 129.461559 39.563849 
L 129.593987 39.716472 
L 129.726415 39.665598 
L 129.858843 39.767346 
L 129.991271 39.665598 
L 130.256128 39.767346 
L 130.388556 39.970843 
L 130.520984 39.869095 
L 131.183125 40.123466 
L 131.315553 40.021717 
L 131.58041 40.326962 
L 131.712838 40.326962 
L 131.977694 40.632207 
L 132.242551 40.428711 
L 132.904692 41.039201 
L 133.169548 40.937453 
L 133.566833 41.344446 
L 133.699261 41.191824 
L 133.831689 41.598817 
L 133.964117 41.497069 
L 134.626258 42.056685 
L 134.891114 42.36193 
L 135.155971 42.565427 
L 135.420827 42.870672 
L 135.685684 43.074169 
L 135.818112 43.32854 
L 135.95054 43.32854 
L 136.347825 43.633785 
L 136.877537 43.93903 
L 137.142394 43.837282 
L 137.40725 43.379414 
L 137.804535 40.835704 
L 138.201819 35.900908 
L 138.86396 23.182359 
L 139.393673 13.567137 
L 139.790957 9.242831 
L 140.188242 8.225347 
L 140.585527 9.395453 
L 141.115239 13.211018 
L 141.77738 18.756305 
L 142.439521 22.978863 
L 143.101662 25.420824 
L 143.23409 25.36995 
L 143.631375 25.98044 
L 143.763803 26.082188 
L 144.690801 25.827817 
L 144.823229 25.929566 
L 144.955657 25.624321 
L 145.088085 25.929566 
L 145.220513 25.929566 
L 145.750226 27.150546 
L 146.412367 30.050375 
L 146.809652 30.966111 
L 147.206936 31.576601 
L 147.471793 31.32223 
L 147.604221 31.576601 
L 147.869077 31.32223 
L 148.133934 31.373104 
L 148.266362 31.169608 
L 148.39879 31.373104 
L 148.663646 30.915237 
L 148.928503 30.660866 
L 149.060931 30.762614 
L 149.193359 30.559117 
L 149.458215 30.864362 
L 149.590644 30.71174 
L 150.252785 31.525727 
L 150.782497 33.001079 
L 151.047354 33.306324 
L 152.371636 36.206153 
L 152.636492 36.66402 
L 153.033777 37.376259 
L 153.166205 37.427133 
L 153.695918 38.342869 
L 153.960774 38.546366 
L 154.22563 38.902485 
L 154.358059 38.749862 
L 154.755343 39.20773 
L 154.887771 39.055107 
L 155.549912 39.563849 
L 155.68234 39.81822 
L 155.814769 39.716472 
L 155.947197 39.869095 
L 156.344481 39.665598 
L 156.609338 40.072591 
L 156.741766 40.225214 
L 157.139051 40.17434 
L 157.403907 40.17434 
L 157.536335 40.17434 
L 157.668763 40.479585 
L 157.801191 40.428711 
L 158.066048 40.581333 
L 158.330904 40.530459 
L 158.463332 40.835704 
L 158.860617 40.733956 
L 158.993045 41.191824 
L 159.125473 41.039201 
L 159.257902 41.293572 
L 159.39033 41.039201 
L 160.052471 41.598817 
L 160.184899 41.497069 
L 160.449755 41.598817 
L 160.84704 42.209307 
L 160.979468 42.005811 
L 161.641609 42.514553 
L 161.906465 42.36193 
L 162.171322 42.718049 
L 162.436178 42.870672 
L 162.965891 43.277665 
L 163.363176 43.888156 
L 163.495604 43.989904 
L 163.76046 44.295149 
L 164.025316 44.295149 
L 164.157745 44.600394 
L 164.290173 44.54952 
L 164.555029 44.854765 
L 164.952314 44.142527 
L 165.349598 41.853188 
L 165.746883 37.121888 
L 166.276596 27.252295 
L 167.071165 13.821508 
L 167.468449 10.463811 
L 167.733306 10.005943 
L 167.998162 10.616434 
L 168.263019 11.939163 
L 169.057588 18.959801 
L 169.719729 23.691101 
L 170.514298 27.099672 
L 170.779154 28.015408 
L 170.911582 28.015408 
L 171.176439 28.371527 
L 172.235864 28.320653 
L 172.368293 28.218904 
L 172.898005 28.676772 
L 173.29529 29.338137 
L 173.560146 30.660866 
L 173.825003 31.32223 
L 174.089859 32.085343 
L 174.487144 32.89933 
L 174.752 33.051953 
L 175.016856 33.051953 
L 175.149285 32.848456 
L 175.281713 32.89933 
L 175.546569 32.594085 
L 175.811425 32.237966 
L 175.943854 32.237966 
L 176.473566 31.525727 
L 176.870851 31.271356 
L 177.003279 31.169608 
L 177.135707 31.627475 
L 177.268136 31.525727 
L 177.66542 32.237966 
L 177.797848 32.28884 
L 178.327561 33.458946 
L 178.857274 34.985172 
L 178.989702 35.036046 
L 179.254558 35.850033 
L 179.386987 35.951782 
L 179.784271 37.223637 
L 179.916699 37.172762 
L 180.181556 37.63063 
L 180.446412 38.088498 
L 181.240981 39.156856 
L 181.505838 39.462101 
L 181.638266 39.716472 
L 181.903122 39.81822 
L 182.03555 40.123466 
L 182.300407 40.072591 
L 182.565263 40.276088 
L 183.227404 40.581333 
L 183.359832 40.835704 
L 183.492261 40.632207 
L 183.624689 40.835704 
L 183.757117 40.632207 
L 184.021973 41.090075 
L 184.154402 40.937453 
L 184.28683 41.039201 
L 184.419258 40.886578 
L 184.551686 41.140949 
L 184.948971 41.140949 
L 185.213827 41.497069 
L 185.478683 41.39532 
L 185.611112 41.497069 
L 185.74354 41.293572 
L 185.875968 41.39532 
L 186.008396 41.344446 
L 186.405681 41.649691 
L 186.538109 41.547943 
L 186.670537 41.700565 
L 186.802965 41.598817 
L 186.935394 41.700565 
L 187.067822 41.649691 
L 187.465106 42.056685 
L 187.597534 41.904062 
L 187.862391 42.056685 
L 187.994819 42.056685 
L 188.259675 42.36193 
L 188.392104 42.260182 
L 188.524532 42.718049 
L 188.789388 42.514553 
L 189.054245 42.819798 
L 189.186673 42.768924 
L 189.451529 43.023295 
L 189.583957 43.32854 
L 189.848814 43.379414 
L 190.246098 43.684659 
L 190.908239 44.193401 
L 191.040667 44.142527 
L 191.437952 43.481162 
L 191.835237 41.39532 
L 192.232521 37.02014 
L 192.894662 24.810334 
L 193.556803 12.75315 
L 193.954088 9.039334 
L 194.218944 8.327095 
L 194.351372 8.276221 
L 194.748657 10.20944 
L 195.543226 16.416092 
L 195.940511 19.722914 
L 196.73508 24.199843 
L 197.132364 25.573446 
L 197.397221 26.234811 
L 197.926933 26.743553 
L 198.456646 26.743553 
L 199.118787 26.082188 
L 199.251215 26.133063 
L 199.913356 27.354043 
L 200.310641 29.13464 
L 200.972782 31.016985 
L 201.237638 31.169608 
L 201.370066 31.169608 
L 201.502495 31.423979 
L 201.634923 31.373104 
L 202.164635 30.71174 
L 202.297064 30.660866 
L 203.091633 29.439885 
L 203.356489 29.74513 
L 203.488917 29.541633 
L 203.886202 30.304746 
L 204.01863 30.355621 
L 205.47534 34.578179 
L 206.534766 36.511398 
L 206.799622 36.562272 
L 207.064479 37.071014 
L 207.461763 37.071014 
L 207.72662 37.274511 
L 208.653617 37.63063 
L 208.918473 38.037624 
L 209.050901 38.088498 
L 209.580614 38.749862 
L 209.713042 38.698988 
L 209.845471 39.055107 
L 210.110327 39.055107 
L 210.507612 39.360353 
L 210.772468 39.360353 
L 212.361606 39.411227 
L 213.023747 39.81822 
L 213.156175 39.614724 
L 213.421032 39.970843 
L 213.685888 39.767346 
L 213.818316 39.970843 
L 214.083173 39.869095 
L 214.348029 40.072591 
L 214.612885 40.072591 
L 214.745314 40.072591 
L 215.142598 40.581333 
L 215.275026 40.479585 
L 215.539883 40.78483 
L 215.672311 40.78483 
L 215.937167 41.140949 
L 216.069596 41.242698 
L 216.202024 41.191824 
L 216.599308 41.75144 
L 216.864165 41.598817 
L 217.129021 42.056685 
L 217.526306 42.514553 
L 217.658734 42.463678 
L 217.791162 42.565427 
L 217.92359 42.514553 
L 218.056018 42.667175 
L 218.320875 42.260182 
L 218.718159 41.039201 
L 218.983016 39.156856 
L 219.3803 34.527304 
L 220.83701 12.651402 
L 221.101867 10.921679 
L 221.234295 10.463811 
L 221.63158 10.718182 
L 221.896436 11.78654 
L 222.293721 14.279376 
L 222.823433 17.891443 
L 223.618002 21.85963 
L 224.147715 23.334982 
L 224.280143 23.233234 
L 224.412572 23.334982 
L 224.545 23.080611 
L 224.677428 23.080611 
L 224.942284 22.673617 
L 225.074713 22.520995 
L 225.869282 19.875537 
L 226.134138 19.570292 
L 226.266566 19.570292 
L 226.796279 20.587776 
L 227.061135 21.85963 
L 227.590848 23.182359 
L 227.988133 23.894598 
L 228.252989 24.148969 
L 228.517846 24.606837 
L 228.650274 24.555963 
L 228.91513 25.217327 
L 229.444843 25.726069 
L 230.106984 26.540056 
L 230.239412 26.845301 
L 230.37184 26.845301 
L 230.901553 27.862785 
L 231.563694 29.694256 
L 231.696122 29.796004 
L 232.623119 32.543211 
L 232.755548 32.594085 
L 232.887976 32.89933 
L 233.152832 32.89933 
L 233.417689 33.306324 
L 233.814973 33.25545 
L 234.07983 33.560695 
L 234.212258 33.662443 
L 234.477114 33.662443 
L 235.404111 36.409649 
L 235.668968 37.325385 
L 236.595965 39.665598 
L 236.728393 39.614724 
L 236.99325 39.767346 
L 237.522963 40.17434 
L 237.787819 40.072591 
L 238.185103 40.428711 
L 239.509385 43.175917 
L 239.774242 43.633785 
L 240.303955 44.142527 
L 240.701239 44.54952 
L 240.966095 44.346024 
L 241.36338 44.396898 
L 241.495808 44.193401 
L 242.422806 44.498646 
L 242.687662 45.414382 
L 242.82009 45.465256 
L 243.084947 46.431865 
L 243.217375 46.431865 
L 243.614659 47.652846 
L 243.747087 47.652846 
L 244.011944 47.958091 
L 244.2768 48.161588 
L 244.541657 48.263336 
L 244.806513 48.365085 
L 244.938941 48.110714 
L 245.071369 48.110714 
L 245.203798 47.856343 
L 245.336226 47.907217 
L 245.865939 45.719627 
L 246.52808 38.037624 
L 247.719933 21.707008 
L 248.117218 19.570292 
L 248.382074 18.70543 
L 248.514502 18.756305 
L 249.309072 21.85963 
L 251.030638 33.611569 
L 251.427923 35.44304 
L 252.35492 38.291995 
L 252.752204 39.258604 
L 253.017061 39.614724 
L 253.546774 40.78483 
L 253.679202 40.937453 
L 254.076486 41.75144 
L 254.208915 41.904062 
L 254.473771 42.514553 
L 255.135912 42.158433 
L 255.26834 42.056685 
L 255.400768 41.598817 
L 255.533197 41.547943 
L 255.798053 41.090075 
L 256.062909 40.276088 
L 256.460194 39.462101 
L 256.989907 38.190246 
L 257.254763 37.834127 
L 257.784476 37.121888 
L 258.314189 37.02014 
L 258.446617 37.121888 
L 258.579045 37.071014 
L 258.976329 37.376259 
L 259.241186 37.681504 
L 259.373614 37.935875 
L 259.506042 37.885001 
L 259.63847 38.393743 
L 259.770899 38.291995 
L 260.300611 39.105982 
L 260.697896 39.665598 
L 260.962752 40.276088 
L 261.095181 40.276088 
L 261.492465 41.090075 
L 261.624893 40.988327 
L 262.154606 42.107559 
L 262.684319 42.514553 
L 262.949175 42.870672 
L 263.214032 42.97242 
L 263.34646 43.32854 
L 263.478888 43.175917 
L 263.743744 43.430288 
L 264.008601 43.481162 
L 264.273457 43.684659 
L 264.935598 44.142527 
L 265.068026 44.091653 
L 265.200454 44.346024 
L 265.465311 44.193401 
L 265.862595 44.651269 
L 266.127452 44.651269 
L 266.25988 44.956514 
L 266.657165 45.058262 
L 267.054449 45.109136 
L 267.584162 45.210885 
L 267.849018 45.414382 
L 267.981446 45.312633 
L 268.113875 45.719627 
L 268.246303 45.465256 
L 268.776016 46.024872 
L 268.908444 45.973998 
L 269.1733 46.279243 
L 269.570585 46.686236 
L 269.835441 46.787985 
L 270.100298 46.838859 
L 270.63001 47.194978 
L 271.292151 47.194978 
L 271.424579 47.398475 
L 271.689436 47.245852 
L 272.219149 45.872249 
L 272.351577 45.261759 
L 273.278574 34.527304 
L 273.940715 25.675195 
L 274.338 22.114001 
L 274.602856 20.943895 
L 274.867712 21.147392 
L 275.000141 21.350888 
L 275.264997 22.622743 
L 275.927138 26.94705 
L 277.25142 35.900908 
L 277.383848 36.307901 
L 277.648704 37.579756 
L 278.70813 40.276088 
L 278.840558 40.326962 
L 279.370271 41.293572 
L 279.899984 42.565427 
L 280.16484 42.768924 
L 280.429696 43.175917 
L 280.694553 43.430288 
L 280.959409 43.633785 
L 281.224266 43.277665 
L 281.489122 43.125043 
L 282.945832 40.021717 
L 283.872829 39.055107 
L 284.402542 38.851611 
L 284.932255 39.156856 
L 285.064683 39.105982 
L 285.32954 39.512975 
L 285.594396 39.81822 
L 285.859252 40.225214 
L 286.124109 40.886578 
L 286.256537 40.937453 
L 286.521393 41.39532 
L 286.78625 41.853188 
L 287.051106 42.311056 
L 287.448391 43.074169 
L 287.713247 43.430288 
L 287.845675 43.379414 
L 288.507816 43.989904 
L 288.640244 44.040778 
L 288.772672 44.346024 
L 288.905101 44.295149 
L 289.434813 44.702143 
L 289.567242 44.956514 
L 289.69967 44.956514 
L 289.832098 45.109136 
L 289.964526 45.058262 
L 290.361811 45.465256 
L 290.494239 45.363507 
L 290.759095 45.770501 
L 291.023952 46.024872 
L 291.15638 46.024872 
L 291.421236 46.431865 
L 291.553664 46.380991 
L 291.950949 46.889733 
L 292.083377 46.686236 
L 292.480662 47.042356 
L 292.61309 46.991482 
L 292.877946 47.09323 
L 293.010375 47.09323 
L 293.142803 47.398475 
L 293.275231 47.398475 
L 293.407659 47.551098 
L 293.540087 47.500223 
L 293.804944 47.907217 
L 294.0698 48.05984 
L 294.202228 48.263336 
L 294.334656 47.958091 
L 294.599513 48.263336 
L 295.394082 48.619456 
L 295.52651 48.924701 
L 295.791367 49.026449 
L 296.321079 49.229946 
L 296.453508 49.586065 
L 296.98322 49.687814 
L 297.512933 49.840436 
L 297.910218 48.772078 
L 298.175074 47.551098 
L 298.572359 44.040778 
L 299.102071 35.595662 
L 300.029069 21.350888 
L 300.426353 18.451059 
L 300.558781 17.942318 
L 300.823638 17.942318 
L 301.088494 18.807179 
L 301.485779 20.791272 
L 303.074917 32.441462 
L 303.207345 32.695833 
L 303.60463 34.578179 
L 304.399199 36.714895 
L 305.591053 38.393743 
L 305.855909 38.648114 
L 306.120766 39.055107 
L 307.709904 42.463678 
L 307.97476 42.463678 
L 308.239617 42.36193 
L 308.636901 41.700565 
L 309.43147 40.377836 
L 309.696327 39.970843 
L 310.093611 39.156856 
L 310.226039 39.462101 
L 310.490896 39.004233 
L 310.623324 38.902485 
L 310.88818 39.004233 
L 311.550321 39.105982 
L 312.742175 41.140949 
L 313.13946 42.005811 
L 313.801601 42.921546 
L 314.066457 43.532036 
L 314.331313 43.888156 
L 314.463742 43.93903 
L 314.59617 44.346024 
L 314.728598 44.346024 
L 314.861026 44.753017 
L 314.993454 44.753017 
L 315.390739 45.414382 
L 315.523167 45.414382 
L 315.655595 45.821375 
L 315.788023 45.719627 
L 316.05288 46.024872 
L 316.317736 46.075746 
L 316.715021 46.330117 
L 316.847449 46.279243 
L 317.112305 46.533614 
L 317.244734 46.431865 
L 317.377162 46.737111 
L 317.50959 46.533614 
L 318.436587 47.245852 
L 318.569015 47.09323 
L 318.833872 47.245852 
L 318.9663 47.144104 
L 319.893297 47.856343 
L 320.025726 47.601972 
L 320.290582 47.805469 
L 320.42301 47.805469 
L 320.687867 48.008965 
L 320.820295 48.161588 
L 320.952723 47.856343 
L 321.217579 48.263336 
L 321.614864 48.466833 
L 322.012148 48.517707 
L 322.277005 48.721204 
L 322.409433 48.721204 
L 322.674289 49.026449 
L 323.071574 49.28082 
L 323.204002 49.382569 
L 323.33643 49.28082 
L 323.468859 49.63694 
L 323.601287 49.586065 
L 323.866143 49.687814 
L 324.263428 49.077323 
L 324.79314 46.12662 
L 325.190425 41.293572 
L 326.779563 17.738821 
L 327.04442 16.619589 
L 327.176848 16.466966 
L 327.441704 16.924834 
L 327.574132 17.12833 
L 329.692984 31.881846 
L 330.222696 34.222059 
L 331.282122 36.816643 
L 331.41455 36.918391 
L 332.076691 37.986749 
L 333.268545 40.021717 
L 333.665829 41.242698 
L 334.063114 42.36193 
L 334.195542 42.412804 
L 334.592827 42.97242 
L 335.387396 42.667175 
L 335.652252 42.209307 
L 335.917108 41.802314 
L 336.314393 41.090075 
L 336.446821 41.039201 
L 336.976534 40.17434 
L 337.638675 39.81822 
L 337.771103 40.123466 
L 337.903531 39.970843 
L 338.300816 40.377836 
L 338.698101 40.886578 
L 339.227813 41.954936 
L 339.360241 41.904062 
L 339.49267 42.514553 
L 339.625098 42.514553 
L 340.022382 43.277665 
L 340.287239 43.684659 
L 341.479093 46.024872 
L 341.611521 45.973998 
L 341.876377 46.533614 
L 342.008805 46.533614 
L 342.670946 47.652846 
L 342.803374 47.551098 
L 342.935803 47.500223 
L 343.200659 47.907217 
L 343.465515 47.907217 
L 343.597944 48.212462 
L 343.8628 48.314211 
L 344.127656 48.466833 
L 344.260085 48.263336 
L 344.392513 48.517707 
L 344.524941 48.365085 
L 344.657369 48.415959 
L 344.922225 48.822952 
L 345.054654 48.466833 
L 345.187082 48.822952 
L 345.451938 48.772078 
L 345.716795 48.924701 
L 346.246507 48.975575 
L 346.511364 49.179072 
L 346.643792 49.128198 
L 346.77622 49.28082 
L 346.908648 49.229946 
L 347.305933 49.433443 
L 347.570789 49.63694 
L 347.703218 49.993059 
L 347.835646 49.687814 
L 347.968074 49.738688 
L 348.100502 49.993059 
L 348.23293 49.891311 
L 348.497787 50.24743 
L 348.630215 49.993059 
L 349.027499 50.501801 
L 349.159928 50.501801 
L 349.424784 50.756172 
L 349.557212 50.807046 
L 349.822069 51.010543 
L 349.954497 51.112291 
L 350.086925 51.46841 
L 350.219353 51.366662 
L 350.351781 51.519285 
L 350.48421 51.46841 
L 350.616638 51.621033 
L 350.881494 51.010543 
L 351.14635 50.705298 
L 351.543635 48.517707 
L 351.94092 44.702143 
L 353.662486 19.468543 
L 354.059771 18.298437 
L 354.457055 19.722914 
L 354.721912 21.350888 
L 355.251624 25.36995 
L 356.046194 31.67835 
L 357.105619 37.528882 
L 357.238047 37.732378 
L 357.502904 38.495491 
L 358.165045 40.225214 
L 358.297473 40.326962 
L 358.429901 40.733956 
L 358.562329 40.632207 
L 358.827186 40.988327 
L 358.959614 41.293572 
L 359.22447 41.39532 
L 359.489327 41.904062 
L 359.621755 41.904062 
L 359.886611 42.565427 
L 360.151467 43.226791 
L 360.946037 45.058262 
L 361.608178 44.956514 
L 361.873034 44.54952 
L 362.005462 44.702143 
L 362.667603 43.481162 
L 363.197316 42.514553 
L 363.462172 42.056685 
L 363.727029 41.497069 
L 363.859457 41.598817 
L 364.124313 41.191824 
L 364.38917 41.039201 
L 364.521598 41.140949 
L 364.654026 41.039201 
L 365.448595 41.954936 
L 365.713451 42.36193 
L 365.84588 42.616301 
L 365.978308 43.125043 
L 366.110736 43.074169 
L 367.037733 45.261759 
L 367.170162 45.363507 
L 368.097159 47.449349 
L 368.229587 47.347601 
L 368.7593 48.365085 
L 369.024156 48.67033 
L 369.156584 48.568582 
L 369.289013 48.924701 
L 369.421441 48.772078 
L 369.686297 49.28082 
L 369.951154 49.28082 
L 370.083582 49.28082 
L 370.348438 49.687814 
L 371.010579 49.63694 
L 371.275436 50.043933 
L 371.407864 49.891311 
L 372.202433 50.094807 
L 372.334861 49.942185 
L 372.732146 50.145681 
L 372.864574 50.043933 
L 372.997002 50.24743 
L 373.12943 50.145681 
L 373.394287 50.298304 
L 373.526715 50.196556 
L 373.791571 50.603549 
L 373.923999 50.349178 
L 374.188856 50.501801 
L 375.380709 51.010543 
L 375.910422 51.671907 
L 376.04285 51.621033 
L 376.307707 51.773656 
L 376.704991 51.977152 
L 376.969848 51.773656 
L 377.631989 47.652846 
L 377.896845 44.447772 
L 378.426558 35.239543 
L 379.221127 22.012253 
L 379.618412 18.349311 
L 380.015696 17.535324 
L 380.148124 17.586198 
L 380.412981 18.552808 
L 383.061545 35.239543 
L 383.591257 37.071014 
L 383.723685 37.172762 
L 384.518255 38.851611 
L 384.650683 38.953359 
L 384.783111 39.360353 
L 384.915539 39.309478 
L 386.107393 41.293572 
L 386.769534 43.175917 
L 387.03439 44.142527 
L 387.299247 44.54952 
L 387.828959 45.51613 
L 388.623529 45.160011 
L 389.94781 43.735533 
L 390.345095 43.532036 
L 390.477523 43.277665 
L 391.139664 43.532036 
L 391.272092 43.430288 
L 391.669377 43.786407 
L 393.523372 46.787985 
L 393.788228 47.500223 
L 393.920656 47.601972 
L 394.185513 48.05984 
L 394.715225 48.975575 
L 394.847654 49.077323 
L 395.377366 50.145681 
L 395.642223 50.145681 
L 395.907079 50.552675 
L 397.231361 51.519285 
L 397.496217 51.519285 
L 397.761074 51.315788 
L 397.893502 51.519285 
L 398.158358 51.366662 
L 398.423215 51.621033 
L 398.555643 51.417536 
L 398.688071 51.671907 
L 398.952927 51.519285 
L 399.085356 51.875404 
L 399.350212 51.773656 
L 399.747497 51.82453 
L 400.144781 52.078901 
L 400.409638 52.129775 
L 400.674494 52.333272 
L 400.806922 52.282398 
L 400.93935 52.689391 
L 401.071779 52.282398 
L 401.469063 52.689391 
L 401.601491 52.842014 
L 401.866348 52.842014 
L 403.19063 53.808623 
L 403.323058 53.605127 
L 403.455486 53.656001 
L 403.587914 53.503378 
L 404.117627 51.570159 
L 404.779768 45.668753 
L 405.309481 36.562272 
L 406.10405 24.759459 
L 406.501334 22.012253 
L 406.766191 21.554385 
L 406.898619 21.656134 
L 407.428332 24.047221 
L 407.825616 27.150546 
L 408.885042 35.239543 
L 409.812039 39.767346 
L 410.209324 41.090075 
L 410.341752 41.344446 
L 410.606608 42.158433 
L 411.93089 44.040778 
L 412.195747 44.193401 
L 412.593031 45.058262 
L 412.725459 45.210885 
L 413.3876 46.940607 
L 413.784885 47.601972 
L 413.917313 47.601972 
L 414.049741 47.805469 
L 414.182169 47.754594 
L 414.314598 47.907217 
L 414.84431 47.652846 
L 414.84431 47.652846 
" style="fill:none;stroke:#1f77b4;stroke-linecap:square;stroke-width:1.5;"/>
   </g>
   <g id="patch_3">
    <path d="M 57.6 51.264 
L 57.6 6.912 
" style="fill:none;stroke:#000000;stroke-linecap:square;stroke-linejoin:miter;stroke-width:0.8;"/>
   </g>
   <g id="patch_4">
    <path d="M 414.72 51.264 
L 414.72 6.912 
" style="fill:none;stroke:#000000;stroke-linecap:square;stroke-linejoin:miter;stroke-width:0.8;"/>
   </g>
   <g id="patch_5">
    <path d="M 57.6 51.264 
L 414.72 51.264 
" style="fill:none;stroke:#000000;stroke-linecap:square;stroke-linejoin:miter;stroke-width:0.8;"/>
   </g>
   <g id="patch_6">
    <path d="M 57.6 6.912 
L 414.72 6.912 
" style="fill:none;stroke:#000000;stroke-linecap:square;stroke-linejoin:miter;stroke-width:0.8;"/>
   </g>
  </g>
 </g>
 <defs>
  <clipPath id="p7680c07678">
   <rect height="44.352" width="357.12" x="57.6" y="6.912"/>
  </clipPath>
 </defs>
</svg>
