<?xml version="1.0" encoding="utf-8" standalone="no"?>
<!DOCTYPE svg PUBLIC "-//W3C//DTD SVG 1.1//EN"
  "http://www.w3.org/Graphics/SVG/1.1/DTD/svg11.dtd">
<svg height="345.6pt" version="1.1" viewBox="0 0 460.8 345.6" width="460.8pt" xmlns="http://www.w3.org/2000/svg" xmlns:xlink="http://www.w3.org/1999/xlink">
 <metadata>
  <rdf:RDF xmlns:cc="http://creativecommons.org/ns#" xmlns:dc="http://purl.org/dc/elements/1.1/" xmlns:rdf="http://www.w3.org/1999/02/22-rdf-syntax-ns#">
   <cc:Work>
    <dc:type rdf:resource="http://purl.org/dc/dcmitype/StillImage"/>
    <dc:date>2022-05-17T23:34:57.061658</dc:date>
    <dc:format>image/svg+xml</dc:format>
    <dc:creator>
     <cc:Agent>
      <dc:title>Matplotlib v3.4.2, https://matplotlib.org/</dc:title>
     </cc:Agent>
    </dc:creator>
   </cc:Work>
  </rdf:RDF>
 </metadata>
 <defs>
  <style type="text/css">*{stroke-linecap:butt;stroke-linejoin:round;}</style>
 </defs>
 <g id="figure_1">
  <g id="patch_1">
   <path d="M 0 345.6 
L 460.8 345.6 
L 460.8 0 
L 0 0 
z
" style="fill:#ffffff;"/>
  </g>
  <g id="axes_1">
   <g id="patch_2">
    <path d="M 57.6 307.584 
L 414.72 307.584 
L 414.72 41.472 
L 57.6 41.472 
z
" style="fill:#ffffff;"/>
   </g>
   <g id="matplotlib.axis_1">
    <g id="xtick_1">
     <g id="line2d_1">
      <defs>
       <path d="M 0 0 
L 0 3.5 
" id="med9df22619" style="stroke:#000000;stroke-width:0.8;"/>
      </defs>
      <g>
       <use style="stroke:#000000;stroke-width:0.8;" x="73.832727" xlink:href="#med9df22619" y="307.584"/>
      </g>
     </g>
     <g id="text_1">
      <!-- 0 -->
      <g transform="translate(70.651477 322.182437)scale(0.1 -0.1)">
       <defs>
        <path d="M 2034 4250 
Q 1547 4250 1301 3770 
Q 1056 3291 1056 2328 
Q 1056 1369 1301 889 
Q 1547 409 2034 409 
Q 2525 409 2770 889 
Q 3016 1369 3016 2328 
Q 3016 3291 2770 3770 
Q 2525 4250 2034 4250 
z
M 2034 4750 
Q 2819 4750 3233 4129 
Q 3647 3509 3647 2328 
Q 3647 1150 3233 529 
Q 2819 -91 2034 -91 
Q 1250 -91 836 529 
Q 422 1150 422 2328 
Q 422 3509 836 4129 
Q 1250 4750 2034 4750 
z
" id="DejaVuSans-30" transform="scale(0.015625)"/>
       </defs>
       <use xlink:href="#DejaVuSans-30"/>
      </g>
     </g>
    </g>
    <g id="xtick_2">
     <g id="line2d_2">
      <g>
       <use style="stroke:#000000;stroke-width:0.8;" x="135.320331" xlink:href="#med9df22619" y="307.584"/>
      </g>
     </g>
     <g id="text_2">
      <!-- 50000 -->
      <g transform="translate(119.414081 322.182437)scale(0.1 -0.1)">
       <defs>
        <path d="M 691 4666 
L 3169 4666 
L 3169 4134 
L 1269 4134 
L 1269 2991 
Q 1406 3038 1543 3061 
Q 1681 3084 1819 3084 
Q 2600 3084 3056 2656 
Q 3513 2228 3513 1497 
Q 3513 744 3044 326 
Q 2575 -91 1722 -91 
Q 1428 -91 1123 -41 
Q 819 9 494 109 
L 494 744 
Q 775 591 1075 516 
Q 1375 441 1709 441 
Q 2250 441 2565 725 
Q 2881 1009 2881 1497 
Q 2881 1984 2565 2268 
Q 2250 2553 1709 2553 
Q 1456 2553 1204 2497 
Q 953 2441 691 2322 
L 691 4666 
z
" id="DejaVuSans-35" transform="scale(0.015625)"/>
       </defs>
       <use xlink:href="#DejaVuSans-35"/>
       <use x="63.623047" xlink:href="#DejaVuSans-30"/>
       <use x="127.246094" xlink:href="#DejaVuSans-30"/>
       <use x="190.869141" xlink:href="#DejaVuSans-30"/>
       <use x="254.492188" xlink:href="#DejaVuSans-30"/>
      </g>
     </g>
    </g>
    <g id="xtick_3">
     <g id="line2d_3">
      <g>
       <use style="stroke:#000000;stroke-width:0.8;" x="196.807934" xlink:href="#med9df22619" y="307.584"/>
      </g>
     </g>
     <g id="text_3">
      <!-- 100000 -->
      <g transform="translate(177.720434 322.182437)scale(0.1 -0.1)">
       <defs>
        <path d="M 794 531 
L 1825 531 
L 1825 4091 
L 703 3866 
L 703 4441 
L 1819 4666 
L 2450 4666 
L 2450 531 
L 3481 531 
L 3481 0 
L 794 0 
L 794 531 
z
" id="DejaVuSans-31" transform="scale(0.015625)"/>
       </defs>
       <use xlink:href="#DejaVuSans-31"/>
       <use x="63.623047" xlink:href="#DejaVuSans-30"/>
       <use x="127.246094" xlink:href="#DejaVuSans-30"/>
       <use x="190.869141" xlink:href="#DejaVuSans-30"/>
       <use x="254.492188" xlink:href="#DejaVuSans-30"/>
       <use x="318.115234" xlink:href="#DejaVuSans-30"/>
      </g>
     </g>
    </g>
    <g id="xtick_4">
     <g id="line2d_4">
      <g>
       <use style="stroke:#000000;stroke-width:0.8;" x="258.295537" xlink:href="#med9df22619" y="307.584"/>
      </g>
     </g>
     <g id="text_4">
      <!-- 150000 -->
      <g transform="translate(239.208037 322.182437)scale(0.1 -0.1)">
       <use xlink:href="#DejaVuSans-31"/>
       <use x="63.623047" xlink:href="#DejaVuSans-35"/>
       <use x="127.246094" xlink:href="#DejaVuSans-30"/>
       <use x="190.869141" xlink:href="#DejaVuSans-30"/>
       <use x="254.492188" xlink:href="#DejaVuSans-30"/>
       <use x="318.115234" xlink:href="#DejaVuSans-30"/>
      </g>
     </g>
    </g>
    <g id="xtick_5">
     <g id="line2d_5">
      <g>
       <use style="stroke:#000000;stroke-width:0.8;" x="319.78314" xlink:href="#med9df22619" y="307.584"/>
      </g>
     </g>
     <g id="text_5">
      <!-- 200000 -->
      <g transform="translate(300.69564 322.182437)scale(0.1 -0.1)">
       <defs>
        <path d="M 1228 531 
L 3431 531 
L 3431 0 
L 469 0 
L 469 531 
Q 828 903 1448 1529 
Q 2069 2156 2228 2338 
Q 2531 2678 2651 2914 
Q 2772 3150 2772 3378 
Q 2772 3750 2511 3984 
Q 2250 4219 1831 4219 
Q 1534 4219 1204 4116 
Q 875 4013 500 3803 
L 500 4441 
Q 881 4594 1212 4672 
Q 1544 4750 1819 4750 
Q 2544 4750 2975 4387 
Q 3406 4025 3406 3419 
Q 3406 3131 3298 2873 
Q 3191 2616 2906 2266 
Q 2828 2175 2409 1742 
Q 1991 1309 1228 531 
z
" id="DejaVuSans-32" transform="scale(0.015625)"/>
       </defs>
       <use xlink:href="#DejaVuSans-32"/>
       <use x="63.623047" xlink:href="#DejaVuSans-30"/>
       <use x="127.246094" xlink:href="#DejaVuSans-30"/>
       <use x="190.869141" xlink:href="#DejaVuSans-30"/>
       <use x="254.492188" xlink:href="#DejaVuSans-30"/>
       <use x="318.115234" xlink:href="#DejaVuSans-30"/>
      </g>
     </g>
    </g>
    <g id="xtick_6">
     <g id="line2d_6">
      <g>
       <use style="stroke:#000000;stroke-width:0.8;" x="381.270744" xlink:href="#med9df22619" y="307.584"/>
      </g>
     </g>
     <g id="text_6">
      <!-- 250000 -->
      <g transform="translate(362.183244 322.182437)scale(0.1 -0.1)">
       <use xlink:href="#DejaVuSans-32"/>
       <use x="63.623047" xlink:href="#DejaVuSans-35"/>
       <use x="127.246094" xlink:href="#DejaVuSans-30"/>
       <use x="190.869141" xlink:href="#DejaVuSans-30"/>
       <use x="254.492188" xlink:href="#DejaVuSans-30"/>
       <use x="318.115234" xlink:href="#DejaVuSans-30"/>
      </g>
     </g>
    </g>
   </g>
   <g id="matplotlib.axis_2">
    <g id="ytick_1">
     <g id="line2d_7">
      <defs>
       <path d="M 0 0 
L -3.5 0 
" id="mea5a42ce88" style="stroke:#000000;stroke-width:0.8;"/>
      </defs>
      <g>
       <use style="stroke:#000000;stroke-width:0.8;" x="57.6" xlink:href="#mea5a42ce88" y="297.83251"/>
      </g>
     </g>
     <g id="text_7">
      <!-- 0 -->
      <g transform="translate(44.2375 301.631729)scale(0.1 -0.1)">
       <use xlink:href="#DejaVuSans-30"/>
      </g>
     </g>
    </g>
    <g id="ytick_2">
     <g id="line2d_8">
      <g>
       <use style="stroke:#000000;stroke-width:0.8;" x="57.6" xlink:href="#mea5a42ce88" y="260.200413"/>
      </g>
     </g>
     <g id="text_8">
      <!-- 2 -->
      <g transform="translate(44.2375 263.999631)scale(0.1 -0.1)">
       <use xlink:href="#DejaVuSans-32"/>
      </g>
     </g>
    </g>
    <g id="ytick_3">
     <g id="line2d_9">
      <g>
       <use style="stroke:#000000;stroke-width:0.8;" x="57.6" xlink:href="#mea5a42ce88" y="222.568315"/>
      </g>
     </g>
     <g id="text_9">
      <!-- 4 -->
      <g transform="translate(44.2375 226.367534)scale(0.1 -0.1)">
       <defs>
        <path d="M 2419 4116 
L 825 1625 
L 2419 1625 
L 2419 4116 
z
M 2253 4666 
L 3047 4666 
L 3047 1625 
L 3713 1625 
L 3713 1100 
L 3047 1100 
L 3047 0 
L 2419 0 
L 2419 1100 
L 313 1100 
L 313 1709 
L 2253 4666 
z
" id="DejaVuSans-34" transform="scale(0.015625)"/>
       </defs>
       <use xlink:href="#DejaVuSans-34"/>
      </g>
     </g>
    </g>
    <g id="ytick_4">
     <g id="line2d_10">
      <g>
       <use style="stroke:#000000;stroke-width:0.8;" x="57.6" xlink:href="#mea5a42ce88" y="184.936218"/>
      </g>
     </g>
     <g id="text_10">
      <!-- 6 -->
      <g transform="translate(44.2375 188.735436)scale(0.1 -0.1)">
       <defs>
        <path d="M 2113 2584 
Q 1688 2584 1439 2293 
Q 1191 2003 1191 1497 
Q 1191 994 1439 701 
Q 1688 409 2113 409 
Q 2538 409 2786 701 
Q 3034 994 3034 1497 
Q 3034 2003 2786 2293 
Q 2538 2584 2113 2584 
z
M 3366 4563 
L 3366 3988 
Q 3128 4100 2886 4159 
Q 2644 4219 2406 4219 
Q 1781 4219 1451 3797 
Q 1122 3375 1075 2522 
Q 1259 2794 1537 2939 
Q 1816 3084 2150 3084 
Q 2853 3084 3261 2657 
Q 3669 2231 3669 1497 
Q 3669 778 3244 343 
Q 2819 -91 2113 -91 
Q 1303 -91 875 529 
Q 447 1150 447 2328 
Q 447 3434 972 4092 
Q 1497 4750 2381 4750 
Q 2619 4750 2861 4703 
Q 3103 4656 3366 4563 
z
" id="DejaVuSans-36" transform="scale(0.015625)"/>
       </defs>
       <use xlink:href="#DejaVuSans-36"/>
      </g>
     </g>
    </g>
    <g id="ytick_5">
     <g id="line2d_11">
      <g>
       <use style="stroke:#000000;stroke-width:0.8;" x="57.6" xlink:href="#mea5a42ce88" y="147.30412"/>
      </g>
     </g>
     <g id="text_11">
      <!-- 8 -->
      <g transform="translate(44.2375 151.103339)scale(0.1 -0.1)">
       <defs>
        <path d="M 2034 2216 
Q 1584 2216 1326 1975 
Q 1069 1734 1069 1313 
Q 1069 891 1326 650 
Q 1584 409 2034 409 
Q 2484 409 2743 651 
Q 3003 894 3003 1313 
Q 3003 1734 2745 1975 
Q 2488 2216 2034 2216 
z
M 1403 2484 
Q 997 2584 770 2862 
Q 544 3141 544 3541 
Q 544 4100 942 4425 
Q 1341 4750 2034 4750 
Q 2731 4750 3128 4425 
Q 3525 4100 3525 3541 
Q 3525 3141 3298 2862 
Q 3072 2584 2669 2484 
Q 3125 2378 3379 2068 
Q 3634 1759 3634 1313 
Q 3634 634 3220 271 
Q 2806 -91 2034 -91 
Q 1263 -91 848 271 
Q 434 634 434 1313 
Q 434 1759 690 2068 
Q 947 2378 1403 2484 
z
M 1172 3481 
Q 1172 3119 1398 2916 
Q 1625 2713 2034 2713 
Q 2441 2713 2670 2916 
Q 2900 3119 2900 3481 
Q 2900 3844 2670 4047 
Q 2441 4250 2034 4250 
Q 1625 4250 1398 4047 
Q 1172 3844 1172 3481 
z
" id="DejaVuSans-38" transform="scale(0.015625)"/>
       </defs>
       <use xlink:href="#DejaVuSans-38"/>
      </g>
     </g>
    </g>
    <g id="ytick_6">
     <g id="line2d_12">
      <g>
       <use style="stroke:#000000;stroke-width:0.8;" x="57.6" xlink:href="#mea5a42ce88" y="109.672023"/>
      </g>
     </g>
     <g id="text_12">
      <!-- 10 -->
      <g transform="translate(37.875 113.471241)scale(0.1 -0.1)">
       <use xlink:href="#DejaVuSans-31"/>
       <use x="63.623047" xlink:href="#DejaVuSans-30"/>
      </g>
     </g>
    </g>
    <g id="ytick_7">
     <g id="line2d_13">
      <g>
       <use style="stroke:#000000;stroke-width:0.8;" x="57.6" xlink:href="#mea5a42ce88" y="72.039925"/>
      </g>
     </g>
     <g id="text_13">
      <!-- 12 -->
      <g transform="translate(37.875 75.839144)scale(0.1 -0.1)">
       <use xlink:href="#DejaVuSans-31"/>
       <use x="63.623047" xlink:href="#DejaVuSans-32"/>
      </g>
     </g>
    </g>
   </g>
   <g id="line2d_14">
    <path clip-path="url(#pd1d75e5a29)" d="M 73.832727 259.661536 
L 73.972919 288.104563 
L 73.992595 285.453178 
L 74.035636 267.037477 
L 74.098354 287.762649 
L 74.110651 288.625781 
L 74.147544 277.136421 
L 74.26806 223.226965 
L 74.31602 248.550785 
L 74.46236 285.950128 
L 74.467279 285.852047 
L 74.472198 285.781987 
L 74.475888 285.970678 
L 74.507861 293.744758 
L 74.537375 280.336656 
L 74.650512 154.159453 
L 74.684945 128.533932 
L 74.748893 169.136675 
L 74.980086 251.222171 
L 74.998532 250.631824 
L 74.999762 250.63594 
L 75.002221 250.371296 
L 75.042803 249.022686 
L 75.073547 255.083816 
L 75.222347 288.57276 
L 75.281375 281.888303 
L 75.476906 267.891228 
L 75.497812 271.754097 
L 75.565448 269.417841 
L 75.65522 293.211936 
L 75.657679 293.238135 
L 75.669977 292.376861 
L 75.85444 272.727151 
L 75.891332 280.049098 
L 75.976185 282.510733 
L 75.945441 277.160111 
L 76.005699 281.216239 
L 76.009388 281.341327 
L 76.021686 281.302098 
L 76.045051 284.583142 
L 76.059808 285.962864 
L 76.113917 277.567357 
L 76.212298 232.273108 
L 76.368476 121.524103 
L 76.411517 166.375846 
L 76.627954 277.542655 
L 76.632873 278.243912 
L 76.673455 274.168756 
L 76.818565 266.52344 
L 76.824714 267.171786 
L 76.934162 294.203261 
L 77.039921 287.559311 
L 77.09034 256.789828 
L 77.156747 284.330254 
L 77.230532 293.73189 
L 77.280952 288.272402 
L 77.504767 236.662276 
L 77.514605 253.480171 
L 77.544119 283.303365 
L 77.593309 202.732817 
L 77.596998 196.697592 
L 77.68923 249.191851 
L 77.78884 292.535944 
L 77.852787 291.098298 
L 77.931491 270.9607 
L 77.954856 254.911978 
L 78.015114 283.946351 
L 78.022493 283.615165 
L 78.091359 271.045415 
L 78.104886 266.494154 
L 78.177441 284.176387 
L 78.216793 295.488 
L 78.28197 281.722615 
L 78.33362 262.744781 
L 78.425851 228.249829 
L 78.48242 244.050638 
L 78.551286 244.043508 
L 78.658274 270.894608 
L 78.67918 273.019823 
L 78.709924 259.39086 
L 78.944807 131.263136 
L 78.959564 141.455653 
L 79.103445 277.803941 
L 79.17846 270.552251 
L 79.22519 280.742233 
L 79.366612 289.747496 
L 79.419491 291.941525 
L 79.447775 288.628505 
L 79.484668 290.053239 
L 79.569521 258.893399 
L 79.612562 250.536571 
L 79.648225 269.242612 
L 79.678969 286.017946 
L 79.752754 262.444084 
L 79.809322 253.029092 
L 79.884337 256.730508 
L 79.888026 256.848449 
L 79.901554 253.557439 
L 79.965501 161.982804 
L 80.026988 53.568 
L 80.087246 130.607855 
L 80.174559 272.592324 
L 80.253263 269.810463 
L 80.285236 272.6613 
L 80.325818 270.389333 
" style="fill:none;stroke:#1f77b4;stroke-linecap:square;stroke-width:1.5;"/>
   </g>
   <g id="line2d_15">
    <path clip-path="url(#pd1d75e5a29)" d="M 73.832727 259.661536 
L 74.386116 264.470123 
L 75.246942 268.595771 
L 75.369917 268.873672 
L 75.923306 271.113966 
L 76.722645 272.233428 
L 76.84562 272.324995 
L 77.214545 273.422395 
L 77.767934 277.048517 
L 78.259835 280.846285 
L 78.813223 283.859614 
L 78.936198 284.218342 
L 79.182149 285.057099 
L 79.981488 287.368416 
L 80.042975 287.343138 
L 80.104463 287.327119 
L 80.288926 287.694774 
L 80.350413 287.628448 
L 80.411901 287.630614 
L 80.596364 287.986992 
L 80.657851 287.913498 
L 80.780826 287.960298 
L 80.903802 288.09155 
L 81.026777 287.887718 
L 81.088264 287.928927 
L 81.149752 287.950906 
L 81.641653 286.524123 
L 81.764628 286.019158 
L 83.916694 267.088676 
L 84.039669 267.076915 
L 84.28562 267.696679 
L 84.654545 269.262675 
L 85.084959 272.497681 
L 87.175537 287.979825 
L 87.482975 288.537316 
L 87.790413 288.577207 
L 88.036364 288.219714 
L 88.405289 286.590159 
L 88.958678 282.548316 
L 91.479669 258.26518 
L 92.279008 253.514146 
L 92.709421 251.56434 
L 92.770909 251.530496 
L 92.893884 250.813116 
L 93.816198 240.913492 
L 94.738512 227.852918 
L 95.291901 223.556986 
L 95.476364 223.754367 
L 95.599339 223.226965 
L 95.660826 223.380628 
L 95.783802 223.99941 
L 95.845289 223.915805 
L 95.906777 223.876769 
L 96.58314 227.629415 
L 97.013554 232.187736 
L 99.719008 273.530613 
L 100.149421 278.248179 
L 100.764298 282.248626 
L 101.256198 283.589471 
L 101.625124 283.733705 
L 102.670413 282.014049 
L 102.731901 282.100315 
L 103.223802 282.599463 
L 103.715702 283.99302 
L 104.207603 284.957794 
L 105.06843 285.820752 
L 105.191405 285.823421 
L 105.31438 285.950128 
L 105.498843 285.788918 
L 105.621818 285.85257 
L 105.806281 285.781987 
L 106.113719 286.33691 
L 106.974545 291.235068 
L 107.343471 293.307223 
L 107.589421 293.744758 
L 107.712397 293.662585 
L 107.958347 293.020899 
L 108.265785 290.949428 
L 108.634711 286.772186 
L 109.311074 278.300263 
L 109.802975 276.611332 
L 110.171901 272.820943 
L 110.786777 263.220755 
L 112.50843 222.799798 
L 113.184793 203.087397 
L 113.738182 186.223101 
L 114.967934 146.988898 
L 115.890248 131.317992 
L 116.013223 130.799606 
L 116.259174 128.921165 
L 116.320661 128.869906 
L 116.443636 128.533932 
L 116.628099 129.463913 
L 116.812562 130.508697 
L 117.242975 134.646106 
L 117.673388 139.569822 
L 120.255868 176.78892 
L 120.624793 181.592628 
L 121.670083 195.975248 
L 122.592397 209.250218 
L 123.26876 217.062738 
L 123.945124 223.026626 
L 126.09719 245.427881 
L 126.527603 248.233912 
L 126.958017 249.83225 
L 127.326942 250.480059 
L 127.511405 250.549469 
L 127.757355 250.356349 
L 129.048595 248.535332 
L 129.17157 248.514683 
L 130.032397 250.186627 
L 130.401322 250.8355 
L 130.524298 250.772503 
L 130.647273 251.076424 
L 130.770248 250.854421 
L 130.831736 250.950002 
L 130.954711 251.125318 
L 131.077686 250.961918 
L 131.200661 251.222171 
L 131.323636 250.989897 
L 131.446612 251.17672 
L 131.631074 250.964135 
L 131.692562 251.103803 
L 131.75405 251.065837 
L 131.877025 250.852009 
L 132 250.987793 
L 132.307438 250.371296 
L 132.491901 250.217779 
L 132.676364 249.901105 
L 132.799339 249.8496 
L 132.922314 249.704526 
L 133.045289 249.717814 
L 133.229752 249.592145 
L 133.475702 249.385512 
L 133.78314 249.387241 
L 134.398017 249.033898 
L 134.705455 249.127132 
L 135.012893 249.793178 
L 135.258843 251.232498 
L 137.103471 264.17027 
L 137.65686 268.933336 
L 139.009587 280.047816 
L 139.44 282.21393 
L 139.931901 283.494525 
L 140.362314 283.907168 
L 140.546777 284.128532 
L 140.854215 284.799057 
L 141.161653 285.699578 
L 141.530579 286.610441 
L 141.776529 286.98338 
L 142.26843 287.689291 
L 143.006281 288.494433 
L 143.252231 288.553917 
L 143.436694 288.516457 
L 143.682645 288.258076 
L 144.05157 287.525854 
L 144.481983 286.615158 
L 145.158347 285.991411 
L 145.465785 285.05102 
L 146.449587 281.608084 
L 146.63405 281.502397 
L 147.064463 281.579758 
L 147.433388 281.622888 
L 147.679339 281.407864 
L 148.048264 280.524768 
L 148.41719 279.784434 
L 149.339504 278.882432 
L 149.70843 279.230166 
L 150.200331 279.972352 
L 150.446281 280.001746 
L 151.122645 279.332712 
L 151.430083 278.52806 
L 152.044959 276.983212 
L 152.598347 276.6157 
L 152.844298 276.539561 
L 153.705124 275.346806 
L 154.07405 274.17637 
L 154.811901 270.71704 
L 155.242314 268.897175 
L 155.549752 268.120199 
L 155.85719 267.920419 
L 155.980165 267.923577 
L 156.10314 267.953197 
L 156.533554 268.563185 
L 157.025455 271.283701 
L 157.701818 275.739568 
L 158.070744 276.932184 
L 158.193719 277.083871 
L 158.562645 276.650957 
L 158.747107 276.16947 
L 159.669421 272.938069 
L 160.46876 269.417841 
L 160.591736 269.520273 
L 160.837686 270.573508 
L 161.452562 275.997168 
L 162.374876 284.163775 
L 162.989752 287.728297 
L 163.54314 289.764012 
L 164.711405 292.989849 
L 165.018843 293.22266 
L 165.203306 293.164638 
L 165.572231 292.66425 
L 166.064132 291.329046 
L 166.679008 288.469913 
L 167.232397 285.176145 
L 168.277686 278.54447 
L 168.585124 277.626015 
L 168.769587 277.528771 
L 169.44595 277.723626 
L 169.876364 277.514167 
L 170.122314 278.26313 
L 170.860165 281.258227 
L 171.229091 281.828137 
L 171.352066 281.782364 
L 171.659504 280.926793 
L 171.966942 279.41463 
L 172.335868 277.592833 
L 172.827769 276.546233 
L 173.073719 276.141919 
L 173.688595 274.944992 
L 173.81157 274.84076 
L 174.119008 275.065118 
L 174.364959 274.572546 
L 174.918347 272.727151 
L 175.164298 272.949732 
L 175.533223 272.981592 
L 175.717686 273.791237 
L 176.947438 280.845036 
L 177.193388 281.246192 
L 177.316364 281.231741 
L 178.484628 278.333772 
L 178.730579 277.732598 
L 178.976529 277.517071 
L 179.160992 277.485883 
L 179.406942 277.24802 
L 179.529917 277.193459 
L 180.021818 277.992239 
L 180.390744 279.960636 
L 180.821157 282.260894 
L 181.067107 282.489081 
L 181.313058 282.055728 
L 181.559008 281.622442 
L 182.050909 281.378659 
L 182.173884 281.386395 
L 182.358347 281.244427 
L 182.727273 281.368805 
L 182.973223 281.3858 
L 183.403636 281.330143 
L 183.649587 281.61827 
L 184.08 283.031553 
L 184.571901 284.976342 
L 184.940826 285.835199 
L 185.186777 285.962864 
L 185.494215 285.607715 
L 185.986116 284.461984 
L 186.662479 281.963307 
L 187.523306 278.439841 
L 187.769256 277.880673 
L 188.138182 276.786194 
L 188.507107 275.630296 
L 188.630083 275.394666 
L 189.244959 271.755909 
L 189.675372 267.670801 
L 190.843636 254.234268 
L 191.151074 251.436334 
L 191.335537 250.012578 
L 192.503802 236.832709 
L 192.934215 230.872659 
L 193.364628 227.804319 
L 193.487603 228.18397 
L 193.549091 228.015335 
L 193.979504 229.134227 
L 194.040992 228.931251 
L 194.102479 228.996608 
L 194.163967 229.145872 
L 194.471405 227.954536 
L 195.332231 218.345177 
L 195.701157 211.654861 
L 196.930909 184.693765 
L 197.545785 168.728513 
L 199.513388 129.793325 
L 199.943802 124.243038 
L 200.128264 123.16965 
L 200.620165 121.524103 
L 200.866116 123.937078 
L 201.235041 130.71917 
L 203.141157 172.776552 
L 204.063471 186.572844 
L 206.215537 227.125013 
L 206.64595 231.246702 
L 206.768926 231.810795 
L 207.445289 239.088854 
L 208.18314 248.588162 
L 209.289917 258.491563 
L 210.396694 265.550641 
L 210.827107 267.249763 
L 211.196033 268.646758 
L 211.872397 269.985274 
L 211.995372 269.96526 
L 212.241322 270.740125 
L 212.733223 273.330555 
L 213.102149 275.382859 
L 213.532562 277.458208 
L 213.717025 277.841489 
L 213.84 278.243912 
L 213.901488 278.19526 
L 214.024463 278.111497 
L 214.147438 278.142309 
L 215.192727 275.513425 
L 215.315702 275.468617 
L 215.807603 274.249613 
L 215.930579 273.961455 
L 216.299504 272.634271 
L 217.160331 269.943611 
L 217.221818 269.87242 
L 217.344793 270.434046 
L 217.406281 270.4155 
L 217.529256 270.101217 
L 217.652231 270.58276 
L 217.713719 270.468732 
L 217.775207 270.20468 
L 217.836694 270.229474 
L 217.959669 270.903361 
L 218.021157 270.886939 
L 218.082645 270.768109 
L 218.574545 272.080358 
L 218.636033 271.908208 
L 218.697521 271.879871 
L 218.820496 272.342101 
L 218.881983 272.31844 
L 219.004959 272.035841 
L 219.127934 272.404255 
L 219.189421 272.314624 
L 219.312397 271.944781 
L 219.435372 272.20794 
L 219.619835 271.709735 
L 219.74281 271.950298 
L 219.865785 271.410356 
L 219.927273 271.478827 
L 220.050248 271.676061 
L 220.173223 271.170599 
L 220.234711 271.280351 
L 220.296198 271.365796 
L 220.788099 269.801518 
L 220.849587 269.95769 
L 220.911074 269.945961 
L 221.095537 269.376567 
L 221.157025 269.485636 
L 221.218512 269.425911 
L 221.341488 268.929464 
L 221.402975 269.087981 
L 221.464463 269.262308 
L 221.52595 269.175258 
L 221.648926 268.681954 
L 221.771901 268.986029 
L 221.833388 268.921638 
L 221.956364 268.492287 
L 222.017851 268.606089 
L 222.079339 268.690457 
L 222.878678 266.707735 
L 222.940165 266.85066 
L 223.001653 266.904098 
L 223.124628 266.52344 
L 223.186116 266.599619 
L 223.370579 267.174071 
L 223.432066 267.171786 
L 224.169917 270.379772 
L 224.661818 273.492906 
L 225.399669 279.498604 
L 226.629421 288.347732 
L 227.059835 290.325426 
L 227.42876 291.899528 
L 227.797686 292.902482 
L 227.982149 293.253443 
L 228.228099 293.617921 
L 228.535537 294.052202 
L 228.72 294.184155 
L 229.334876 293.886859 
L 229.703802 293.421384 
L 230.01124 293.126551 
L 230.626116 292.363484 
L 231.486942 292.394396 
L 231.79438 292.48223 
L 232.224793 292.59047 
L 232.409256 292.57644 
L 233.024132 292.181159 
L 233.577521 291.258014 
L 234.130909 288.011041 
L 234.745785 282.693578 
L 235.176198 277.586272 
L 236.590413 257.227969 
L 236.713388 256.789828 
L 236.774876 256.82178 
L 236.959339 257.311368 
L 237.328264 260.230711 
L 237.758678 264.198682 
L 238.127603 267.346402 
L 239.726281 282.433067 
L 240.218182 285.279458 
L 241.324959 289.745626 
L 242.30876 292.50583 
L 242.985124 293.553763 
L 243.231074 293.624801 
L 243.415537 293.667368 
L 243.784463 293.725614 
L 244.214876 293.401574 
L 244.460826 293.119858 
L 245.014215 292.379528 
L 245.567603 290.900424 
L 246.243967 288.272402 
L 246.67438 286.555323 
L 247.104793 284.918909 
L 248.334545 278.921291 
L 248.457521 278.656874 
L 248.949421 280.238147 
L 249.564298 282.964706 
L 250.117686 283.97233 
L 250.425124 283.733776 
L 250.79405 282.816012 
L 251.347438 280.563042 
L 251.777851 277.253433 
L 252.269752 273.220999 
L 252.454215 272.789672 
L 252.57719 272.81993 
L 252.884628 273.439094 
L 253.376529 274.251019 
L 253.745455 274.026256 
L 254.052893 272.950798 
L 254.483306 270.221834 
L 255.344132 263.064481 
L 256.081983 254.674811 
L 257.434711 236.662276 
L 257.496198 237.511214 
L 258.295537 265.368272 
L 258.848926 278.480432 
L 259.217851 282.659786 
L 259.402314 283.303365 
L 259.525289 283.17528 
L 259.709752 282.156272 
L 259.955702 279.230332 
L 260.324628 271.522407 
L 260.816529 255.260461 
L 261.431405 227.18995 
L 262.046281 196.697592 
L 262.107769 196.810468 
L 263.276033 202.335978 
L 264.013884 207.568615 
L 264.62876 217.06133 
L 266.104463 241.160403 
L 268.625455 276.911718 
L 269.301818 282.83141 
L 270.224132 288.680811 
L 270.900496 291.531389 
L 271.269421 292.239061 
L 271.761322 292.480035 
L 271.945785 292.250895 
L 272.683636 291.192584 
L 272.929587 291.271501 
L 273.421488 291.708913 
L 273.974876 292.18276 
L 274.282314 292.008825 
L 274.835702 291.098298 
L 275.266116 289.959446 
L 276.864793 284.334025 
L 277.602645 280.903309 
L 278.217521 276.464738 
L 278.893884 269.257961 
L 279.50876 258.763381 
L 279.754711 255.569046 
L 279.939174 254.911978 
L 280.123636 256.559406 
L 280.369587 260.57887 
L 281.353388 277.676382 
L 281.660826 279.816898 
L 282.029752 281.006473 
L 282.214215 281.338199 
L 282.706116 283.53139 
L 282.829091 283.720775 
L 282.952066 283.946351 
L 283.013554 283.897649 
L 283.136529 283.857862 
L 283.198017 283.882928 
L 284.243306 282.242705 
L 284.366281 282.058744 
L 284.612231 281.382353 
L 285.042645 280.271913 
L 285.16562 280.123198 
L 285.719008 278.452628 
L 285.841983 278.303154 
L 286.210909 276.232877 
L 287.440661 266.494154 
L 287.871074 268.318354 
L 288.916364 272.861358 
L 289.715702 275.997666 
L 291.375868 286.634755 
L 292.052231 292.568099 
L 292.482645 294.679638 
L 292.790083 295.347512 
L 293.036033 295.488 
L 293.281983 295.351761 
L 293.650909 294.567696 
L 294.265785 292.160231 
L 295.864463 283.364486 
L 296.110413 282.545383 
L 296.540826 281.110974 
L 296.725289 280.465828 
L 296.848264 280.033609 
L 297.094215 279.099036 
L 297.770579 274.736782 
L 298.569917 266.090508 
L 298.938843 262.161552 
L 301.029421 240.226733 
L 301.767273 234.504612 
L 302.566612 230.19477 
L 302.751074 229.448715 
L 303.427438 228.292499 
L 303.550413 228.33549 
L 304.288264 230.284967 
L 304.349752 230.254064 
L 304.472727 230.206806 
L 304.841653 230.466945 
L 304.964628 230.873451 
L 305.395041 234.094855 
L 306.440331 245.082552 
L 306.809256 247.080544 
L 307.055207 247.748864 
L 307.116694 247.673709 
L 307.239669 247.622011 
L 307.362645 247.704197 
L 307.48562 247.662425 
L 307.670083 247.80079 
L 307.977521 247.310058 
L 308.407934 245.776497 
L 309.453223 244.143886 
L 309.822149 244.14244 
L 309.945124 244.448074 
L 310.068099 244.171076 
L 310.375537 245.026695 
L 310.498512 245.357194 
L 310.56 245.273633 
L 310.682975 245.093675 
L 310.80595 245.249402 
L 310.928926 245.045145 
L 311.113388 245.55147 
L 311.174876 245.488839 
L 311.236364 245.550418 
L 311.420826 246.123697 
L 311.482314 246.103796 
L 311.605289 246.618561 
L 312.34314 250.596784 
L 312.527603 251.818894 
L 314.310744 267.151094 
L 314.741157 269.469082 
L 315.663471 272.653688 
L 316.21686 272.978 
L 316.46281 272.663931 
L 316.770248 271.243453 
L 317.077686 268.54887 
L 317.877025 256.118745 
L 318.430413 243.716015 
L 319.660165 212.606831 
L 320.520992 194.924592 
L 321.012893 187.034039 
L 321.504793 182.006108 
L 321.627769 181.606627 
L 321.689256 181.681729 
L 322.058182 183.092205 
L 322.181157 183.472606 
L 322.488595 184.912351 
L 322.980496 187.152996 
L 323.718347 192.279753 
L 324.087273 194.014478 
L 324.333223 194.341276 
L 324.763636 193.65322 
L 324.948099 192.740711 
L 325.378512 189.003341 
L 325.747438 183.292456 
L 326.485289 165.89993 
L 326.97719 156.296627 
L 328.821818 135.304176 
L 329.436694 131.263136 
L 329.559669 131.452274 
L 329.744132 133.141483 
L 329.928595 135.875053 
L 330.543471 150.965846 
L 333.310413 221.225319 
L 334.17124 239.603465 
L 336.261818 271.565743 
L 336.630744 275.061107 
L 337.184132 277.502339 
L 337.307107 277.726332 
L 337.368595 277.803941 
L 337.49157 277.554288 
L 337.553058 277.616027 
L 337.614545 277.600007 
L 338.167934 275.079004 
L 338.905785 270.484468 
L 339.151736 269.747161 
L 339.459174 269.101143 
L 339.582149 269.049069 
L 339.705124 268.798268 
L 339.766612 268.841804 
L 340.258512 269.014716 
L 340.996364 270.256843 
L 341.365289 271.129561 
L 341.488264 271.353542 
L 342.349091 274.37558 
L 344.378182 284.753978 
L 344.808595 285.371888 
L 345.239008 285.387517 
L 345.607934 285.249493 
L 345.853884 285.049352 
L 346.038347 284.944025 
L 346.407273 285.244098 
L 346.591736 285.448042 
L 346.776198 285.703218 
L 347.51405 287.186734 
L 348.00595 287.904093 
L 348.374876 288.181816 
L 348.682314 288.354057 
L 349.604628 289.374601 
L 350.096529 289.545634 
L 350.280992 289.607741 
L 350.526942 289.747496 
L 350.772893 290.057765 
L 351.756694 291.325759 
L 352.12562 291.654222 
L 352.433058 291.855951 
L 353.601322 291.716485 
L 353.785785 291.335483 
L 354.216198 289.733789 
L 354.585124 288.628505 
L 354.769587 288.712167 
L 355.015537 289.287057 
L 355.568926 290.799781 
L 355.814876 291.003632 
L 355.999339 290.936061 
L 356.245289 290.540942 
L 356.552727 289.662393 
L 356.98314 287.700424 
L 357.413554 285.072962 
L 359.073719 272.248095 
L 361.410248 254.115411 
L 361.533223 253.815148 
L 361.779174 253.225693 
L 362.39405 251.12723 
L 362.824463 250.536571 
L 362.88595 250.642992 
L 363.008926 250.736371 
L 363.070413 250.711144 
L 363.623802 252.546876 
L 363.93124 256.06384 
L 364.238678 261.720171 
L 365.529917 282.752915 
L 365.898843 285.501062 
L 366.144793 286.017946 
L 366.329256 285.732101 
L 366.513719 284.990172 
L 366.821157 282.667287 
L 367.866446 274.3113 
L 368.973223 267.883223 
L 370.387438 259.079473 
L 371.063802 255.707767 
L 371.61719 254.493482 
L 371.740165 254.235991 
L 372.293554 253.261384 
L 372.355041 253.266958 
L 372.539504 253.060194 
L 372.969917 253.310675 
L 374.261157 259.059559 
L 374.322645 259.113278 
L 374.44562 259.511653 
L 374.507107 259.467291 
L 374.568595 259.460932 
L 374.69157 259.821811 
L 374.814545 259.590856 
L 374.937521 259.73614 
L 375.060496 259.703218 
L 375.183471 259.713318 
L 375.613884 258.916293 
L 376.167273 256.760329 
L 376.413223 256.730508 
L 376.659174 256.827043 
L 376.782149 256.585939 
L 377.028099 255.546928 
L 377.52 251.049947 
L 377.76595 247.510577 
L 378.196364 237.984296 
L 379.672066 197.947505 
L 380.163967 177.659711 
L 380.840331 140.761877 
L 382.070083 70.395141 
L 382.439008 62.038441 
L 382.869421 56.952971 
L 383.42281 53.872255 
L 383.607273 53.581125 
L 383.791736 53.66811 
L 384.160661 56.21125 
L 384.591074 61.31991 
L 385.021488 67.913057 
L 385.390413 76.310838 
L 386.005289 100.960279 
L 387.112066 161.541804 
L 388.403306 221.496214 
L 389.448595 253.865912 
L 390.063471 266.286635 
L 390.493884 271.01241 
L 390.678347 272.277592 
L 390.739835 272.257299 
L 390.801322 272.239402 
L 390.924298 272.592324 
L 390.985785 272.530054 
L 391.170248 271.821306 
L 391.231736 271.840547 
L 391.354711 271.074878 
L 391.723636 269.06622 
L 391.846612 268.835299 
L 392.031074 267.616512 
L 392.092562 267.749699 
L 392.15405 267.721189 
L 392.277025 267.248963 
L 392.338512 267.404646 
L 392.4 267.654216 
L 392.461488 267.613419 
L 392.584463 267.249548 
L 392.64595 267.356972 
L 392.707438 267.48029 
L 392.891901 266.933363 
L 392.953388 267.159533 
L 393.014876 267.349153 
L 393.076364 267.312493 
L 393.137851 267.177231 
L 393.322314 267.676502 
L 393.445289 267.398599 
L 393.568264 267.739932 
L 393.69124 267.320731 
L 393.752727 267.395607 
L 393.814215 267.597392 
L 393.875702 267.5528 
L 393.998678 267.264038 
L 394.121653 267.970494 
L 394.18314 267.952403 
L 394.244628 267.844672 
L 394.920992 270.292298 
L 395.043967 270.620587 
L 395.105455 270.567554 
L 395.289917 271.201495 
L 395.351405 271.101767 
L 395.412893 271.021688 
L 395.535868 271.590385 
L 395.597355 271.544052 
L 395.720331 271.354845 
L 395.843306 272.001851 
L 395.904793 271.943945 
L 395.966281 271.816233 
L 396.027769 271.908626 
L 396.150744 272.415707 
L 396.212231 272.347031 
L 396.273719 272.263299 
L 396.458182 272.6613 
L 396.581157 272.377966 
L 396.704132 272.65561 
L 396.76562 272.554905 
L 396.888595 272.022619 
L 396.950083 272.061293 
L 397.319008 272.557491 
L 397.441983 272.602441 
L 397.503471 272.654989 
L 397.564959 272.572091 
L 397.995372 271.763053 
L 398.118347 271.492981 
L 398.425785 270.264596 
L 398.487273 270.389333 
L 398.487273 270.389333 
" style="fill:none;stroke:#ff7f0e;stroke-linecap:square;stroke-width:1.5;"/>
   </g>
   <g id="patch_3">
    <path d="M 57.6 307.584 
L 57.6 41.472 
" style="fill:none;stroke:#000000;stroke-linecap:square;stroke-linejoin:miter;stroke-width:0.8;"/>
   </g>
   <g id="patch_4">
    <path d="M 414.72 307.584 
L 414.72 41.472 
" style="fill:none;stroke:#000000;stroke-linecap:square;stroke-linejoin:miter;stroke-width:0.8;"/>
   </g>
   <g id="patch_5">
    <path d="M 57.6 307.584 
L 414.72 307.584 
" style="fill:none;stroke:#000000;stroke-linecap:square;stroke-linejoin:miter;stroke-width:0.8;"/>
   </g>
   <g id="patch_6">
    <path d="M 57.6 41.472 
L 414.72 41.472 
" style="fill:none;stroke:#000000;stroke-linecap:square;stroke-linejoin:miter;stroke-width:0.8;"/>
   </g>
  </g>
 </g>
 <defs>
  <clipPath id="pd1d75e5a29">
   <rect height="266.112" width="357.12" x="57.6" y="41.472"/>
  </clipPath>
 </defs>
</svg>
