<?xml version="1.0" encoding="utf-8" standalone="no"?>
<!DOCTYPE svg PUBLIC "-//W3C//DTD SVG 1.1//EN"
  "http://www.w3.org/Graphics/SVG/1.1/DTD/svg11.dtd">
<svg height="345.6pt" version="1.1" viewBox="0 0 460.8 345.6" width="460.8pt" xmlns="http://www.w3.org/2000/svg" xmlns:xlink="http://www.w3.org/1999/xlink">
 <metadata>
  <rdf:RDF xmlns:cc="http://creativecommons.org/ns#" xmlns:dc="http://purl.org/dc/elements/1.1/" xmlns:rdf="http://www.w3.org/1999/02/22-rdf-syntax-ns#">
   <cc:Work>
    <dc:type rdf:resource="http://purl.org/dc/dcmitype/StillImage"/>
    <dc:date>2022-10-12T15:17:09.126850</dc:date>
    <dc:format>image/svg+xml</dc:format>
    <dc:creator>
     <cc:Agent>
      <dc:title>Matplotlib v3.4.2, https://matplotlib.org/</dc:title>
     </cc:Agent>
    </dc:creator>
   </cc:Work>
  </rdf:RDF>
 </metadata>
 <defs>
  <style type="text/css">*{stroke-linecap:butt;stroke-linejoin:round;}</style>
 </defs>
 <g id="figure_1">
  <g id="patch_1">
   <path d="M 0 345.6 
L 460.8 345.6 
L 460.8 0 
L 0 0 
z
" style="fill:#ffffff;"/>
  </g>
  <g id="axes_1">
   <g id="patch_2">
    <path d="M 57.6 307.584 
L 414.72 307.584 
L 414.72 41.472 
L 57.6 41.472 
z
" style="fill:#ffffff;"/>
   </g>
   <g id="matplotlib.axis_1">
    <g id="xtick_1">
     <g id="line2d_1">
      <defs>
       <path d="M 0 0 
L 0 3.5 
" id="m25443db236" style="stroke:#000000;stroke-width:0.8;"/>
      </defs>
      <g>
       <use style="stroke:#000000;stroke-width:0.8;" x="73.832727" xlink:href="#m25443db236" y="307.584"/>
      </g>
     </g>
     <g id="text_1">
      <!-- 0 -->
      <g transform="translate(70.651477 322.182437)scale(0.1 -0.1)">
       <defs>
        <path d="M 2034 4250 
Q 1547 4250 1301 3770 
Q 1056 3291 1056 2328 
Q 1056 1369 1301 889 
Q 1547 409 2034 409 
Q 2525 409 2770 889 
Q 3016 1369 3016 2328 
Q 3016 3291 2770 3770 
Q 2525 4250 2034 4250 
z
M 2034 4750 
Q 2819 4750 3233 4129 
Q 3647 3509 3647 2328 
Q 3647 1150 3233 529 
Q 2819 -91 2034 -91 
Q 1250 -91 836 529 
Q 422 1150 422 2328 
Q 422 3509 836 4129 
Q 1250 4750 2034 4750 
z
" id="DejaVuSans-30" transform="scale(0.015625)"/>
       </defs>
       <use xlink:href="#DejaVuSans-30"/>
      </g>
     </g>
    </g>
    <g id="xtick_2">
     <g id="line2d_2">
      <g>
       <use style="stroke:#000000;stroke-width:0.8;" x="132.914537" xlink:href="#m25443db236" y="307.584"/>
      </g>
     </g>
     <g id="text_2">
      <!-- 200 -->
      <g transform="translate(123.370787 322.182437)scale(0.1 -0.1)">
       <defs>
        <path d="M 1228 531 
L 3431 531 
L 3431 0 
L 469 0 
L 469 531 
Q 828 903 1448 1529 
Q 2069 2156 2228 2338 
Q 2531 2678 2651 2914 
Q 2772 3150 2772 3378 
Q 2772 3750 2511 3984 
Q 2250 4219 1831 4219 
Q 1534 4219 1204 4116 
Q 875 4013 500 3803 
L 500 4441 
Q 881 4594 1212 4672 
Q 1544 4750 1819 4750 
Q 2544 4750 2975 4387 
Q 3406 4025 3406 3419 
Q 3406 3131 3298 2873 
Q 3191 2616 2906 2266 
Q 2828 2175 2409 1742 
Q 1991 1309 1228 531 
z
" id="DejaVuSans-32" transform="scale(0.015625)"/>
       </defs>
       <use xlink:href="#DejaVuSans-32"/>
       <use x="63.623047" xlink:href="#DejaVuSans-30"/>
       <use x="127.246094" xlink:href="#DejaVuSans-30"/>
      </g>
     </g>
    </g>
    <g id="xtick_3">
     <g id="line2d_3">
      <g>
       <use style="stroke:#000000;stroke-width:0.8;" x="191.996347" xlink:href="#m25443db236" y="307.584"/>
      </g>
     </g>
     <g id="text_3">
      <!-- 400 -->
      <g transform="translate(182.452597 322.182437)scale(0.1 -0.1)">
       <defs>
        <path d="M 2419 4116 
L 825 1625 
L 2419 1625 
L 2419 4116 
z
M 2253 4666 
L 3047 4666 
L 3047 1625 
L 3713 1625 
L 3713 1100 
L 3047 1100 
L 3047 0 
L 2419 0 
L 2419 1100 
L 313 1100 
L 313 1709 
L 2253 4666 
z
" id="DejaVuSans-34" transform="scale(0.015625)"/>
       </defs>
       <use xlink:href="#DejaVuSans-34"/>
       <use x="63.623047" xlink:href="#DejaVuSans-30"/>
       <use x="127.246094" xlink:href="#DejaVuSans-30"/>
      </g>
     </g>
    </g>
    <g id="xtick_4">
     <g id="line2d_4">
      <g>
       <use style="stroke:#000000;stroke-width:0.8;" x="251.078157" xlink:href="#m25443db236" y="307.584"/>
      </g>
     </g>
     <g id="text_4">
      <!-- 600 -->
      <g transform="translate(241.534407 322.182437)scale(0.1 -0.1)">
       <defs>
        <path d="M 2113 2584 
Q 1688 2584 1439 2293 
Q 1191 2003 1191 1497 
Q 1191 994 1439 701 
Q 1688 409 2113 409 
Q 2538 409 2786 701 
Q 3034 994 3034 1497 
Q 3034 2003 2786 2293 
Q 2538 2584 2113 2584 
z
M 3366 4563 
L 3366 3988 
Q 3128 4100 2886 4159 
Q 2644 4219 2406 4219 
Q 1781 4219 1451 3797 
Q 1122 3375 1075 2522 
Q 1259 2794 1537 2939 
Q 1816 3084 2150 3084 
Q 2853 3084 3261 2657 
Q 3669 2231 3669 1497 
Q 3669 778 3244 343 
Q 2819 -91 2113 -91 
Q 1303 -91 875 529 
Q 447 1150 447 2328 
Q 447 3434 972 4092 
Q 1497 4750 2381 4750 
Q 2619 4750 2861 4703 
Q 3103 4656 3366 4563 
z
" id="DejaVuSans-36" transform="scale(0.015625)"/>
       </defs>
       <use xlink:href="#DejaVuSans-36"/>
       <use x="63.623047" xlink:href="#DejaVuSans-30"/>
       <use x="127.246094" xlink:href="#DejaVuSans-30"/>
      </g>
     </g>
    </g>
    <g id="xtick_5">
     <g id="line2d_5">
      <g>
       <use style="stroke:#000000;stroke-width:0.8;" x="310.159967" xlink:href="#m25443db236" y="307.584"/>
      </g>
     </g>
     <g id="text_5">
      <!-- 800 -->
      <g transform="translate(300.616217 322.182437)scale(0.1 -0.1)">
       <defs>
        <path d="M 2034 2216 
Q 1584 2216 1326 1975 
Q 1069 1734 1069 1313 
Q 1069 891 1326 650 
Q 1584 409 2034 409 
Q 2484 409 2743 651 
Q 3003 894 3003 1313 
Q 3003 1734 2745 1975 
Q 2488 2216 2034 2216 
z
M 1403 2484 
Q 997 2584 770 2862 
Q 544 3141 544 3541 
Q 544 4100 942 4425 
Q 1341 4750 2034 4750 
Q 2731 4750 3128 4425 
Q 3525 4100 3525 3541 
Q 3525 3141 3298 2862 
Q 3072 2584 2669 2484 
Q 3125 2378 3379 2068 
Q 3634 1759 3634 1313 
Q 3634 634 3220 271 
Q 2806 -91 2034 -91 
Q 1263 -91 848 271 
Q 434 634 434 1313 
Q 434 1759 690 2068 
Q 947 2378 1403 2484 
z
M 1172 3481 
Q 1172 3119 1398 2916 
Q 1625 2713 2034 2713 
Q 2441 2713 2670 2916 
Q 2900 3119 2900 3481 
Q 2900 3844 2670 4047 
Q 2441 4250 2034 4250 
Q 1625 4250 1398 4047 
Q 1172 3844 1172 3481 
z
" id="DejaVuSans-38" transform="scale(0.015625)"/>
       </defs>
       <use xlink:href="#DejaVuSans-38"/>
       <use x="63.623047" xlink:href="#DejaVuSans-30"/>
       <use x="127.246094" xlink:href="#DejaVuSans-30"/>
      </g>
     </g>
    </g>
    <g id="xtick_6">
     <g id="line2d_6">
      <g>
       <use style="stroke:#000000;stroke-width:0.8;" x="369.241777" xlink:href="#m25443db236" y="307.584"/>
      </g>
     </g>
     <g id="text_6">
      <!-- 1000 -->
      <g transform="translate(356.516777 322.182437)scale(0.1 -0.1)">
       <defs>
        <path d="M 794 531 
L 1825 531 
L 1825 4091 
L 703 3866 
L 703 4441 
L 1819 4666 
L 2450 4666 
L 2450 531 
L 3481 531 
L 3481 0 
L 794 0 
L 794 531 
z
" id="DejaVuSans-31" transform="scale(0.015625)"/>
       </defs>
       <use xlink:href="#DejaVuSans-31"/>
       <use x="63.623047" xlink:href="#DejaVuSans-30"/>
       <use x="127.246094" xlink:href="#DejaVuSans-30"/>
       <use x="190.869141" xlink:href="#DejaVuSans-30"/>
      </g>
     </g>
    </g>
   </g>
   <g id="matplotlib.axis_2">
    <g id="ytick_1">
     <g id="line2d_7">
      <defs>
       <path d="M 0 0 
L -3.5 0 
" id="me4af97e459" style="stroke:#000000;stroke-width:0.8;"/>
      </defs>
      <g>
       <use style="stroke:#000000;stroke-width:0.8;" x="57.6" xlink:href="#me4af97e459" y="295.488988"/>
      </g>
     </g>
     <g id="text_7">
      <!-- −1.00 -->
      <g transform="translate(19.954687 299.288207)scale(0.1 -0.1)">
       <defs>
        <path d="M 678 2272 
L 4684 2272 
L 4684 1741 
L 678 1741 
L 678 2272 
z
" id="DejaVuSans-2212" transform="scale(0.015625)"/>
        <path d="M 684 794 
L 1344 794 
L 1344 0 
L 684 0 
L 684 794 
z
" id="DejaVuSans-2e" transform="scale(0.015625)"/>
       </defs>
       <use xlink:href="#DejaVuSans-2212"/>
       <use x="83.789062" xlink:href="#DejaVuSans-31"/>
       <use x="147.412109" xlink:href="#DejaVuSans-2e"/>
       <use x="179.199219" xlink:href="#DejaVuSans-30"/>
       <use x="242.822266" xlink:href="#DejaVuSans-30"/>
      </g>
     </g>
    </g>
    <g id="ytick_2">
     <g id="line2d_8">
      <g>
       <use style="stroke:#000000;stroke-width:0.8;" x="57.6" xlink:href="#me4af97e459" y="265.248864"/>
      </g>
     </g>
     <g id="text_8">
      <!-- −0.75 -->
      <g transform="translate(19.954687 269.048083)scale(0.1 -0.1)">
       <defs>
        <path d="M 525 4666 
L 3525 4666 
L 3525 4397 
L 1831 0 
L 1172 0 
L 2766 4134 
L 525 4134 
L 525 4666 
z
" id="DejaVuSans-37" transform="scale(0.015625)"/>
        <path d="M 691 4666 
L 3169 4666 
L 3169 4134 
L 1269 4134 
L 1269 2991 
Q 1406 3038 1543 3061 
Q 1681 3084 1819 3084 
Q 2600 3084 3056 2656 
Q 3513 2228 3513 1497 
Q 3513 744 3044 326 
Q 2575 -91 1722 -91 
Q 1428 -91 1123 -41 
Q 819 9 494 109 
L 494 744 
Q 775 591 1075 516 
Q 1375 441 1709 441 
Q 2250 441 2565 725 
Q 2881 1009 2881 1497 
Q 2881 1984 2565 2268 
Q 2250 2553 1709 2553 
Q 1456 2553 1204 2497 
Q 953 2441 691 2322 
L 691 4666 
z
" id="DejaVuSans-35" transform="scale(0.015625)"/>
       </defs>
       <use xlink:href="#DejaVuSans-2212"/>
       <use x="83.789062" xlink:href="#DejaVuSans-30"/>
       <use x="147.412109" xlink:href="#DejaVuSans-2e"/>
       <use x="179.199219" xlink:href="#DejaVuSans-37"/>
       <use x="242.822266" xlink:href="#DejaVuSans-35"/>
      </g>
     </g>
    </g>
    <g id="ytick_3">
     <g id="line2d_9">
      <g>
       <use style="stroke:#000000;stroke-width:0.8;" x="57.6" xlink:href="#me4af97e459" y="235.008741"/>
      </g>
     </g>
     <g id="text_9">
      <!-- −0.50 -->
      <g transform="translate(19.954687 238.80796)scale(0.1 -0.1)">
       <use xlink:href="#DejaVuSans-2212"/>
       <use x="83.789062" xlink:href="#DejaVuSans-30"/>
       <use x="147.412109" xlink:href="#DejaVuSans-2e"/>
       <use x="179.199219" xlink:href="#DejaVuSans-35"/>
       <use x="242.822266" xlink:href="#DejaVuSans-30"/>
      </g>
     </g>
    </g>
    <g id="ytick_4">
     <g id="line2d_10">
      <g>
       <use style="stroke:#000000;stroke-width:0.8;" x="57.6" xlink:href="#me4af97e459" y="204.768617"/>
      </g>
     </g>
     <g id="text_10">
      <!-- −0.25 -->
      <g transform="translate(19.954687 208.567836)scale(0.1 -0.1)">
       <use xlink:href="#DejaVuSans-2212"/>
       <use x="83.789062" xlink:href="#DejaVuSans-30"/>
       <use x="147.412109" xlink:href="#DejaVuSans-2e"/>
       <use x="179.199219" xlink:href="#DejaVuSans-32"/>
       <use x="242.822266" xlink:href="#DejaVuSans-35"/>
      </g>
     </g>
    </g>
    <g id="ytick_5">
     <g id="line2d_11">
      <g>
       <use style="stroke:#000000;stroke-width:0.8;" x="57.6" xlink:href="#me4af97e459" y="174.528494"/>
      </g>
     </g>
     <g id="text_11">
      <!-- 0.00 -->
      <g transform="translate(28.334375 178.327713)scale(0.1 -0.1)">
       <use xlink:href="#DejaVuSans-30"/>
       <use x="63.623047" xlink:href="#DejaVuSans-2e"/>
       <use x="95.410156" xlink:href="#DejaVuSans-30"/>
       <use x="159.033203" xlink:href="#DejaVuSans-30"/>
      </g>
     </g>
    </g>
    <g id="ytick_6">
     <g id="line2d_12">
      <g>
       <use style="stroke:#000000;stroke-width:0.8;" x="57.6" xlink:href="#me4af97e459" y="144.28837"/>
      </g>
     </g>
     <g id="text_12">
      <!-- 0.25 -->
      <g transform="translate(28.334375 148.087589)scale(0.1 -0.1)">
       <use xlink:href="#DejaVuSans-30"/>
       <use x="63.623047" xlink:href="#DejaVuSans-2e"/>
       <use x="95.410156" xlink:href="#DejaVuSans-32"/>
       <use x="159.033203" xlink:href="#DejaVuSans-35"/>
      </g>
     </g>
    </g>
    <g id="ytick_7">
     <g id="line2d_13">
      <g>
       <use style="stroke:#000000;stroke-width:0.8;" x="57.6" xlink:href="#me4af97e459" y="114.048247"/>
      </g>
     </g>
     <g id="text_13">
      <!-- 0.50 -->
      <g transform="translate(28.334375 117.847466)scale(0.1 -0.1)">
       <use xlink:href="#DejaVuSans-30"/>
       <use x="63.623047" xlink:href="#DejaVuSans-2e"/>
       <use x="95.410156" xlink:href="#DejaVuSans-35"/>
       <use x="159.033203" xlink:href="#DejaVuSans-30"/>
      </g>
     </g>
    </g>
    <g id="ytick_8">
     <g id="line2d_14">
      <g>
       <use style="stroke:#000000;stroke-width:0.8;" x="57.6" xlink:href="#me4af97e459" y="83.808123"/>
      </g>
     </g>
     <g id="text_14">
      <!-- 0.75 -->
      <g transform="translate(28.334375 87.607342)scale(0.1 -0.1)">
       <use xlink:href="#DejaVuSans-30"/>
       <use x="63.623047" xlink:href="#DejaVuSans-2e"/>
       <use x="95.410156" xlink:href="#DejaVuSans-37"/>
       <use x="159.033203" xlink:href="#DejaVuSans-35"/>
      </g>
     </g>
    </g>
    <g id="ytick_9">
     <g id="line2d_15">
      <g>
       <use style="stroke:#000000;stroke-width:0.8;" x="57.6" xlink:href="#me4af97e459" y="53.568"/>
      </g>
     </g>
     <g id="text_15">
      <!-- 1.00 -->
      <g transform="translate(28.334375 57.367219)scale(0.1 -0.1)">
       <use xlink:href="#DejaVuSans-31"/>
       <use x="63.623047" xlink:href="#DejaVuSans-2e"/>
       <use x="95.410156" xlink:href="#DejaVuSans-30"/>
       <use x="159.033203" xlink:href="#DejaVuSans-30"/>
      </g>
     </g>
    </g>
   </g>
   <g id="line2d_16">
    <path clip-path="url(#p955d67d9db)" d="M 73.832727 53.568 
L 74.718954 53.703385 
L 75.605182 54.113128 
L 76.491409 54.80215 
L 77.377636 55.774734 
L 78.263863 57.034476 
L 79.445499 59.165674 
L 80.627135 61.817054 
L 81.808772 64.990681 
L 83.285817 69.690799 
L 84.762862 75.197853 
L 86.239907 81.496529 
L 88.012362 90.066605 
L 89.784816 99.686932 
L 91.852679 112.139076 
L 94.215952 127.806442 
L 96.874633 146.932574 
L 100.714951 176.414528 
L 107.509359 228.880326 
L 110.16804 247.511434 
L 112.235904 260.549899 
L 114.008358 270.437489 
L 115.485403 277.6162 
L 116.962449 283.71479 
L 118.144085 287.748664 
L 119.325721 290.980873 
L 120.211948 292.853714 
L 121.098175 294.236519 
L 121.984402 295.115548 
L 122.57522 295.415796 
L 123.166039 295.483901 
L 123.756857 295.317327 
L 124.347675 294.913982 
L 124.938493 294.272242 
L 125.82472 292.860264 
L 126.710947 290.907642 
L 127.597174 288.415169 
L 128.77881 284.258481 
L 129.960447 279.164337 
L 131.142083 273.15744 
L 132.619128 264.417574 
L 134.096173 254.391 
L 135.868628 240.814627 
L 137.936491 223.139184 
L 140.595172 198.19083 
L 145.321717 150.989554 
L 148.571217 119.589487 
L 150.63908 101.399046 
L 152.411534 87.498153 
L 153.88858 77.397063 
L 155.365625 68.860533 
L 156.547261 63.280684 
L 157.728897 58.900709 
L 158.615124 56.445876 
L 159.501352 54.730691 
L 160.09217 54.0085 
L 160.682988 53.629244 
L 161.273806 53.596935 
L 161.864624 53.914604 
L 162.455442 54.584273 
L 163.04626 55.606929 
L 163.932487 57.802313 
L 164.818715 60.786696 
L 165.704942 64.54969 
L 166.886578 70.749621 
L 168.068214 78.25071 
L 169.545259 89.345658 
L 171.022305 102.180894 
L 172.794759 119.566782 
L 175.158031 145.352576 
L 178.998349 190.467985 
L 182.247848 227.696211 
L 184.315712 248.975324 
L 186.088166 264.812936 
L 187.565211 275.878428 
L 188.746848 283.122167 
L 189.633075 287.530095 
L 190.519302 291.00666 
L 191.405529 293.511953 
L 191.996347 294.626308 
L 192.587165 295.286949 
L 193.177983 295.488 
L 193.473392 295.414813 
L 194.06421 294.919249 
L 194.655029 293.957051 
L 195.245847 292.528569 
L 196.132074 289.516903 
L 197.018301 285.476892 
L 197.904528 280.433532 
L 199.086164 272.209487 
L 200.2678 262.372662 
L 201.744846 248.020944 
L 203.5173 228.227386 
L 205.585163 202.468265 
L 213.265799 103.669003 
L 214.742844 88.265216 
L 216.219889 75.228362 
L 217.401525 66.784729 
L 218.287753 61.731804 
L 219.17398 57.848327 
L 219.764798 55.935647 
L 220.355616 54.579138 
L 220.946434 53.788926 
L 221.241843 53.608633 
L 221.537252 53.57252 
L 221.832661 53.681104 
L 222.423479 54.333562 
L 223.014297 55.566651 
L 223.605115 57.378181 
L 224.491343 61.168194 
L 225.37757 66.218377 
L 226.263797 72.484878 
L 227.445433 82.629488 
L 228.627069 94.654346 
L 230.104114 111.992164 
L 231.876569 135.493571 
L 234.53525 174.054863 
L 238.080159 225.363963 
L 239.852613 248.174482 
L 241.329658 264.576105 
L 242.511295 275.551306 
L 243.692931 284.325932 
L 244.579158 289.326333 
L 245.465385 292.886071 
L 246.056203 294.429194 
L 246.647021 295.292796 
L 246.94243 295.466804 
L 247.237839 295.467848 
L 247.533248 295.295408 
L 247.828657 294.949213 
L 248.419476 293.735734 
L 249.010294 291.830293 
L 249.601112 289.239854 
L 250.487339 284.095133 
L 251.373566 277.48953 
L 252.555202 266.541858 
L 253.736838 253.364186 
L 255.213884 234.203278 
L 256.986338 208.180905 
L 260.531247 151.667514 
L 262.894519 115.703258 
L 264.371564 95.89545 
L 265.848609 79.146296 
L 267.030246 68.438593 
L 267.916473 62.184514 
L 268.8027 57.572462 
L 269.393518 55.451685 
L 269.984336 54.11618 
L 270.279745 53.747254 
L 270.575154 53.579216 
L 270.870563 53.612905 
L 271.165972 53.848823 
L 271.461381 54.287134 
L 272.0522 55.76989 
L 272.643018 58.055638 
L 273.233836 61.13333 
L 274.120063 67.197041 
L 275.00629 74.925228 
L 276.187926 87.632071 
L 277.369562 102.785588 
L 278.846608 124.558973 
L 280.914471 158.655841 
L 285.345607 233.069585 
L 286.822652 254.227311 
L 288.004288 268.624741 
L 289.185924 280.280813 
L 290.072152 286.993636 
L 290.958379 291.822954 
L 291.549197 293.946927 
L 292.140015 295.169328 
L 292.435424 295.437796 
L 292.730833 295.476157 
L 293.026242 295.283739 
L 293.321651 294.860312 
L 293.912469 293.321732 
L 294.503287 290.867477 
L 295.094105 287.511765 
L 295.980333 280.836597 
L 296.86656 272.28448 
L 298.048196 258.201952 
L 299.229832 241.44018 
L 300.706877 217.495865 
L 303.07015 175.055664 
L 306.02424 122.184613 
L 307.501285 98.951815 
L 308.682922 83.061354 
L 309.864558 70.174065 
L 310.750785 62.762177 
L 311.637012 57.45806 
L 312.22783 55.152441 
L 312.818648 53.861024 
L 313.114057 53.600991 
L 313.409466 53.599841 
L 313.704876 53.858213 
L 314.000285 54.376183 
L 314.591103 56.188429 
L 315.181921 59.025966 
L 315.772739 62.869174 
L 316.658966 70.454748 
L 317.545193 80.103574 
L 318.726829 95.868716 
L 320.203875 119.477682 
L 321.976329 151.839551 
L 326.702874 240.288248 
L 328.179919 262.582759 
L 329.361555 276.863208 
L 330.247782 285.11969 
L 331.134009 291.058271 
L 331.724828 293.657218 
L 332.315646 295.131911 
L 332.611055 295.441228 
L 332.906464 295.463099 
L 333.201873 295.196804 
L 333.497282 294.64231 
L 334.0881 292.672054 
L 334.678918 289.565912 
L 335.269736 285.348531 
L 336.155963 277.019675 
L 337.04219 266.438072 
L 338.223827 249.205809 
L 339.700872 223.571948 
L 341.768735 182.843272 
L 345.018235 118.364437 
L 346.49528 93.402581 
L 347.676916 77.016208 
L 348.563143 67.2884 
L 349.449371 60.028809 
L 350.040189 56.654532 
L 350.631007 54.501466 
L 350.926416 53.892104 
L 351.221825 53.597508 
L 351.517234 53.619145 
L 351.812643 53.957659 
L 352.108052 54.612862 
L 352.69887 56.868407 
L 353.289688 60.367559 
L 353.880506 65.078784 
L 354.766733 74.317086 
L 355.652961 85.975031 
L 356.834597 104.817387 
L 358.311642 132.551892 
L 360.674914 182.175247 
L 363.038187 230.742827 
L 364.515232 256.723348 
L 365.696868 273.535205 
L 366.583095 283.298006 
L 367.469323 290.322845 
L 368.060141 293.384994 
L 368.650959 295.101074 
L 368.946368 295.445835 
L 369.241777 295.445805 
L 369.537186 295.100252 
L 369.832595 294.409433 
L 370.423413 291.99799 
L 371.014231 288.233388 
L 371.605049 283.153313 
L 372.491276 273.187161 
L 373.377504 260.626615 
L 374.55914 240.393571 
L 376.036185 210.815428 
L 381.353548 98.544443 
L 382.535184 79.814224 
L 383.421411 68.70622 
L 384.307638 60.480674 
L 384.898456 56.722477 
L 385.489275 54.407695 
L 385.784684 53.803047 
L 386.080093 53.570769 
L 386.375502 53.712336 
L 386.670911 54.228072 
L 386.96632 55.117138 
L 387.557138 58.00609 
L 388.147956 62.349245 
L 388.738774 68.098273 
L 389.625001 79.208087 
L 390.511228 93.032246 
L 391.692865 115.026921 
L 393.465319 153.387539 
L 397.305637 239.04962 
L 398.487273 260.544684 
L 398.487273 260.544684 
" style="fill:none;stroke:#1f77b4;stroke-linecap:square;stroke-width:1.5;"/>
   </g>
   <g id="patch_3">
    <path d="M 57.6 307.584 
L 57.6 41.472 
" style="fill:none;stroke:#000000;stroke-linecap:square;stroke-linejoin:miter;stroke-width:0.8;"/>
   </g>
   <g id="patch_4">
    <path d="M 414.72 307.584 
L 414.72 41.472 
" style="fill:none;stroke:#000000;stroke-linecap:square;stroke-linejoin:miter;stroke-width:0.8;"/>
   </g>
   <g id="patch_5">
    <path d="M 57.6 307.584 
L 414.72 307.584 
" style="fill:none;stroke:#000000;stroke-linecap:square;stroke-linejoin:miter;stroke-width:0.8;"/>
   </g>
   <g id="patch_6">
    <path d="M 57.6 41.472 
L 414.72 41.472 
" style="fill:none;stroke:#000000;stroke-linecap:square;stroke-linejoin:miter;stroke-width:0.8;"/>
   </g>
  </g>
 </g>
 <defs>
  <clipPath id="p955d67d9db">
   <rect height="266.112" width="357.12" x="57.6" y="41.472"/>
  </clipPath>
 </defs>
</svg>
