<?xml version="1.0" encoding="utf-8" standalone="no"?>
<!DOCTYPE svg PUBLIC "-//W3C//DTD SVG 1.1//EN"
  "http://www.w3.org/Graphics/SVG/1.1/DTD/svg11.dtd">
<svg height="702pt" version="1.1" viewBox="0 0 1382.4 702" width="1382.4pt" xmlns="http://www.w3.org/2000/svg" xmlns:xlink="http://www.w3.org/1999/xlink">
 <metadata>
  <rdf:RDF xmlns:cc="http://creativecommons.org/ns#" xmlns:dc="http://purl.org/dc/elements/1.1/" xmlns:rdf="http://www.w3.org/1999/02/22-rdf-syntax-ns#">
   <cc:Work>
    <dc:type rdf:resource="http://purl.org/dc/dcmitype/StillImage"/>
    <dc:date>2022-07-04T00:49:47.227953</dc:date>
    <dc:format>image/svg+xml</dc:format>
    <dc:creator>
     <cc:Agent>
      <dc:title>Matplotlib v3.4.2, https://matplotlib.org/</dc:title>
     </cc:Agent>
    </dc:creator>
   </cc:Work>
  </rdf:RDF>
 </metadata>
 <defs>
  <style type="text/css">*{stroke-linecap:butt;stroke-linejoin:round;}</style>
 </defs>
 <g id="figure_1">
  <g id="patch_1">
   <path d="M 0 702 
L 1382.4 702 
L 1382.4 0 
L 0 0 
z
" style="fill:#ffffff;"/>
  </g>
  <g id="axes_1">
   <g id="patch_2">
    <path d="M 172.8 624.78 
L 1244.16 624.78 
L 1244.16 84.24 
L 172.8 84.24 
z
" style="fill:#ffffff;"/>
   </g>
   <g id="matplotlib.axis_1">
    <g id="xtick_1">
     <g id="line2d_1">
      <defs>
       <path d="M 0 0 
L 0 3.5 
" id="maff4f500a5" style="stroke:#000000;stroke-width:0.8;"/>
      </defs>
      <g>
       <use style="stroke:#000000;stroke-width:0.8;" x="221.498182" xlink:href="#maff4f500a5" y="624.78"/>
      </g>
     </g>
     <g id="text_1">
      <!-- 0 -->
      <g transform="translate(218.316932 639.378438)scale(0.1 -0.1)">
       <defs>
        <path d="M 2034 4250 
Q 1547 4250 1301 3770 
Q 1056 3291 1056 2328 
Q 1056 1369 1301 889 
Q 1547 409 2034 409 
Q 2525 409 2770 889 
Q 3016 1369 3016 2328 
Q 3016 3291 2770 3770 
Q 2525 4250 2034 4250 
z
M 2034 4750 
Q 2819 4750 3233 4129 
Q 3647 3509 3647 2328 
Q 3647 1150 3233 529 
Q 2819 -91 2034 -91 
Q 1250 -91 836 529 
Q 422 1150 422 2328 
Q 422 3509 836 4129 
Q 1250 4750 2034 4750 
z
" id="DejaVuSans-30" transform="scale(0.015625)"/>
       </defs>
       <use xlink:href="#DejaVuSans-30"/>
      </g>
     </g>
    </g>
    <g id="xtick_2">
     <g id="line2d_2">
      <g>
       <use style="stroke:#000000;stroke-width:0.8;" x="396.671498" xlink:href="#maff4f500a5" y="624.78"/>
      </g>
     </g>
     <g id="text_2">
      <!-- 200 -->
      <g transform="translate(387.127748 639.378438)scale(0.1 -0.1)">
       <defs>
        <path d="M 1228 531 
L 3431 531 
L 3431 0 
L 469 0 
L 469 531 
Q 828 903 1448 1529 
Q 2069 2156 2228 2338 
Q 2531 2678 2651 2914 
Q 2772 3150 2772 3378 
Q 2772 3750 2511 3984 
Q 2250 4219 1831 4219 
Q 1534 4219 1204 4116 
Q 875 4013 500 3803 
L 500 4441 
Q 881 4594 1212 4672 
Q 1544 4750 1819 4750 
Q 2544 4750 2975 4387 
Q 3406 4025 3406 3419 
Q 3406 3131 3298 2873 
Q 3191 2616 2906 2266 
Q 2828 2175 2409 1742 
Q 1991 1309 1228 531 
z
" id="DejaVuSans-32" transform="scale(0.015625)"/>
       </defs>
       <use xlink:href="#DejaVuSans-32"/>
       <use x="63.623047" xlink:href="#DejaVuSans-30"/>
       <use x="127.246094" xlink:href="#DejaVuSans-30"/>
      </g>
     </g>
    </g>
    <g id="xtick_3">
     <g id="line2d_3">
      <g>
       <use style="stroke:#000000;stroke-width:0.8;" x="571.844814" xlink:href="#maff4f500a5" y="624.78"/>
      </g>
     </g>
     <g id="text_3">
      <!-- 400 -->
      <g transform="translate(562.301064 639.378438)scale(0.1 -0.1)">
       <defs>
        <path d="M 2419 4116 
L 825 1625 
L 2419 1625 
L 2419 4116 
z
M 2253 4666 
L 3047 4666 
L 3047 1625 
L 3713 1625 
L 3713 1100 
L 3047 1100 
L 3047 0 
L 2419 0 
L 2419 1100 
L 313 1100 
L 313 1709 
L 2253 4666 
z
" id="DejaVuSans-34" transform="scale(0.015625)"/>
       </defs>
       <use xlink:href="#DejaVuSans-34"/>
       <use x="63.623047" xlink:href="#DejaVuSans-30"/>
       <use x="127.246094" xlink:href="#DejaVuSans-30"/>
      </g>
     </g>
    </g>
    <g id="xtick_4">
     <g id="line2d_4">
      <g>
       <use style="stroke:#000000;stroke-width:0.8;" x="747.018129" xlink:href="#maff4f500a5" y="624.78"/>
      </g>
     </g>
     <g id="text_4">
      <!-- 600 -->
      <g transform="translate(737.474379 639.378438)scale(0.1 -0.1)">
       <defs>
        <path d="M 2113 2584 
Q 1688 2584 1439 2293 
Q 1191 2003 1191 1497 
Q 1191 994 1439 701 
Q 1688 409 2113 409 
Q 2538 409 2786 701 
Q 3034 994 3034 1497 
Q 3034 2003 2786 2293 
Q 2538 2584 2113 2584 
z
M 3366 4563 
L 3366 3988 
Q 3128 4100 2886 4159 
Q 2644 4219 2406 4219 
Q 1781 4219 1451 3797 
Q 1122 3375 1075 2522 
Q 1259 2794 1537 2939 
Q 1816 3084 2150 3084 
Q 2853 3084 3261 2657 
Q 3669 2231 3669 1497 
Q 3669 778 3244 343 
Q 2819 -91 2113 -91 
Q 1303 -91 875 529 
Q 447 1150 447 2328 
Q 447 3434 972 4092 
Q 1497 4750 2381 4750 
Q 2619 4750 2861 4703 
Q 3103 4656 3366 4563 
z
" id="DejaVuSans-36" transform="scale(0.015625)"/>
       </defs>
       <use xlink:href="#DejaVuSans-36"/>
       <use x="63.623047" xlink:href="#DejaVuSans-30"/>
       <use x="127.246094" xlink:href="#DejaVuSans-30"/>
      </g>
     </g>
    </g>
    <g id="xtick_5">
     <g id="line2d_5">
      <g>
       <use style="stroke:#000000;stroke-width:0.8;" x="922.191445" xlink:href="#maff4f500a5" y="624.78"/>
      </g>
     </g>
     <g id="text_5">
      <!-- 800 -->
      <g transform="translate(912.647695 639.378438)scale(0.1 -0.1)">
       <defs>
        <path d="M 2034 2216 
Q 1584 2216 1326 1975 
Q 1069 1734 1069 1313 
Q 1069 891 1326 650 
Q 1584 409 2034 409 
Q 2484 409 2743 651 
Q 3003 894 3003 1313 
Q 3003 1734 2745 1975 
Q 2488 2216 2034 2216 
z
M 1403 2484 
Q 997 2584 770 2862 
Q 544 3141 544 3541 
Q 544 4100 942 4425 
Q 1341 4750 2034 4750 
Q 2731 4750 3128 4425 
Q 3525 4100 3525 3541 
Q 3525 3141 3298 2862 
Q 3072 2584 2669 2484 
Q 3125 2378 3379 2068 
Q 3634 1759 3634 1313 
Q 3634 634 3220 271 
Q 2806 -91 2034 -91 
Q 1263 -91 848 271 
Q 434 634 434 1313 
Q 434 1759 690 2068 
Q 947 2378 1403 2484 
z
M 1172 3481 
Q 1172 3119 1398 2916 
Q 1625 2713 2034 2713 
Q 2441 2713 2670 2916 
Q 2900 3119 2900 3481 
Q 2900 3844 2670 4047 
Q 2441 4250 2034 4250 
Q 1625 4250 1398 4047 
Q 1172 3844 1172 3481 
z
" id="DejaVuSans-38" transform="scale(0.015625)"/>
       </defs>
       <use xlink:href="#DejaVuSans-38"/>
       <use x="63.623047" xlink:href="#DejaVuSans-30"/>
       <use x="127.246094" xlink:href="#DejaVuSans-30"/>
      </g>
     </g>
    </g>
    <g id="xtick_6">
     <g id="line2d_6">
      <g>
       <use style="stroke:#000000;stroke-width:0.8;" x="1097.364761" xlink:href="#maff4f500a5" y="624.78"/>
      </g>
     </g>
     <g id="text_6">
      <!-- 1000 -->
      <g transform="translate(1084.639761 639.378438)scale(0.1 -0.1)">
       <defs>
        <path d="M 794 531 
L 1825 531 
L 1825 4091 
L 703 3866 
L 703 4441 
L 1819 4666 
L 2450 4666 
L 2450 531 
L 3481 531 
L 3481 0 
L 794 0 
L 794 531 
z
" id="DejaVuSans-31" transform="scale(0.015625)"/>
       </defs>
       <use xlink:href="#DejaVuSans-31"/>
       <use x="63.623047" xlink:href="#DejaVuSans-30"/>
       <use x="127.246094" xlink:href="#DejaVuSans-30"/>
       <use x="190.869141" xlink:href="#DejaVuSans-30"/>
      </g>
     </g>
    </g>
   </g>
   <g id="matplotlib.axis_2">
    <g id="ytick_1">
     <g id="line2d_7">
      <defs>
       <path d="M 0 0 
L -3.5 0 
" id="m66fb4c1fb4" style="stroke:#000000;stroke-width:0.8;"/>
      </defs>
      <g>
       <use style="stroke:#000000;stroke-width:0.8;" x="172.8" xlink:href="#m66fb4c1fb4" y="587.434415"/>
      </g>
     </g>
     <g id="text_7">
      <!-- −2000 -->
      <g transform="translate(131.970312 591.233634)scale(0.1 -0.1)">
       <defs>
        <path d="M 678 2272 
L 4684 2272 
L 4684 1741 
L 678 1741 
L 678 2272 
z
" id="DejaVuSans-2212" transform="scale(0.015625)"/>
       </defs>
       <use xlink:href="#DejaVuSans-2212"/>
       <use x="83.789062" xlink:href="#DejaVuSans-32"/>
       <use x="147.412109" xlink:href="#DejaVuSans-30"/>
       <use x="211.035156" xlink:href="#DejaVuSans-30"/>
       <use x="274.658203" xlink:href="#DejaVuSans-30"/>
      </g>
     </g>
    </g>
    <g id="ytick_2">
     <g id="line2d_8">
      <g>
       <use style="stroke:#000000;stroke-width:0.8;" x="172.8" xlink:href="#m66fb4c1fb4" y="483.024367"/>
      </g>
     </g>
     <g id="text_8">
      <!-- −1000 -->
      <g transform="translate(131.970312 486.823585)scale(0.1 -0.1)">
       <use xlink:href="#DejaVuSans-2212"/>
       <use x="83.789062" xlink:href="#DejaVuSans-31"/>
       <use x="147.412109" xlink:href="#DejaVuSans-30"/>
       <use x="211.035156" xlink:href="#DejaVuSans-30"/>
       <use x="274.658203" xlink:href="#DejaVuSans-30"/>
      </g>
     </g>
    </g>
    <g id="ytick_3">
     <g id="line2d_9">
      <g>
       <use style="stroke:#000000;stroke-width:0.8;" x="172.8" xlink:href="#m66fb4c1fb4" y="378.614318"/>
      </g>
     </g>
     <g id="text_9">
      <!-- 0 -->
      <g transform="translate(159.4375 382.413537)scale(0.1 -0.1)">
       <use xlink:href="#DejaVuSans-30"/>
      </g>
     </g>
    </g>
    <g id="ytick_4">
     <g id="line2d_10">
      <g>
       <use style="stroke:#000000;stroke-width:0.8;" x="172.8" xlink:href="#m66fb4c1fb4" y="274.20427"/>
      </g>
     </g>
     <g id="text_10">
      <!-- 1000 -->
      <g transform="translate(140.35 278.003489)scale(0.1 -0.1)">
       <use xlink:href="#DejaVuSans-31"/>
       <use x="63.623047" xlink:href="#DejaVuSans-30"/>
       <use x="127.246094" xlink:href="#DejaVuSans-30"/>
       <use x="190.869141" xlink:href="#DejaVuSans-30"/>
      </g>
     </g>
    </g>
    <g id="ytick_5">
     <g id="line2d_11">
      <g>
       <use style="stroke:#000000;stroke-width:0.8;" x="172.8" xlink:href="#m66fb4c1fb4" y="169.794221"/>
      </g>
     </g>
     <g id="text_11">
      <!-- 2000 -->
      <g transform="translate(140.35 173.59344)scale(0.1 -0.1)">
       <use xlink:href="#DejaVuSans-32"/>
       <use x="63.623047" xlink:href="#DejaVuSans-30"/>
       <use x="127.246094" xlink:href="#DejaVuSans-30"/>
       <use x="190.869141" xlink:href="#DejaVuSans-30"/>
      </g>
     </g>
    </g>
   </g>
   <g id="line2d_12">
    <path clip-path="url(#p0670ed9423)" d="M 221.498182 600.149444 
L 222.374048 600.106524 
L 224.125782 600.21 
L 225.001648 600.161898 
L 225.877515 598.842635 
L 226.753381 599.049194 
L 227.629248 596.968917 
L 228.505114 590.653275 
L 229.380981 465.521079 
L 230.256848 393.331165 
L 231.132714 362.149561 
L 232.008581 365.381119 
L 232.884447 335.775919 
L 233.760314 324.514871 
L 234.636181 324.715864 
L 235.512047 324.530675 
L 236.387914 325.695301 
L 237.26378 325.895688 
L 238.139647 326.840321 
L 239.015513 333.570446 
L 239.89138 334.986817 
L 240.767247 335.88574 
L 241.643113 333.425426 
L 242.51898 332.764108 
L 243.394846 333.73988 
L 244.270713 333.493026 
L 245.146579 330.07414 
L 246.022446 335.163101 
L 246.898313 349.982732 
L 247.774179 343.706206 
L 248.650046 288.626123 
L 249.525912 280.03972 
L 250.401779 289.903369 
L 251.277646 278.869617 
L 252.153512 276.349523 
L 253.029379 269.855417 
L 253.905245 283.536794 
L 254.781112 327.496038 
L 255.656978 343.261269 
L 256.532845 340.751776 
L 258.284578 330.559488 
L 259.160445 327.756733 
L 260.036311 321.013042 
L 260.912178 316.396721 
L 261.788044 307.959699 
L 262.663911 304.885714 
L 263.539778 309.474173 
L 264.415644 311.92197 
L 265.291511 312.839956 
L 266.167377 296.09249 
L 267.043244 283.058115 
L 267.919111 261.799708 
L 268.794977 259.416544 
L 269.670844 280.871094 
L 270.54671 333.369057 
L 271.422577 344.165836 
L 272.298443 381.914638 
L 273.17431 400.93154 
L 274.050177 408.969586 
L 274.926043 420.872285 
L 275.80191 456.966134 
L 276.677776 458.634431 
L 277.553643 461.275059 
L 278.429509 460.318729 
L 279.305376 465.916309 
L 280.181243 479.405675 
L 281.057109 471.692319 
L 281.932976 470.733183 
L 282.808842 477.316457 
L 283.684709 488.157452 
L 284.560576 489.337072 
L 285.436442 491.785762 
L 286.312309 485.176282 
L 287.188175 469.879123 
L 288.939908 483.375283 
L 289.815775 477.593779 
L 290.691642 457.235954 
L 292.443375 410.636299 
L 293.319241 368.210761 
L 294.195108 307.09802 
L 295.070974 307.193708 
L 295.946841 313.956759 
L 296.822708 309.767464 
L 297.698574 275.903595 
L 298.574441 255.39273 
L 299.450307 188.766424 
L 300.326174 153.045279 
L 301.202041 135.205284 
L 302.077907 135.161409 
L 302.953774 142.025824 
L 303.82964 130.11002 
L 304.705507 139.440117 
L 305.581373 137.463713 
L 306.45724 139.396126 
L 307.333107 134.485048 
L 308.208973 148.138698 
L 309.08484 142.902079 
L 309.960706 141.952828 
L 310.836573 136.496947 
L 311.71244 183.974109 
L 312.588306 171.216048 
L 313.464173 171.175893 
L 314.340039 163.085198 
L 315.215906 165.171756 
L 316.091772 174.72458 
L 316.967639 211.420334 
L 317.843506 216.552497 
L 318.719372 225.266531 
L 319.595239 221.367927 
L 320.471105 224.081364 
L 321.346972 233.566776 
L 322.222838 404.350004 
L 323.098705 402.655676 
L 323.974572 386.834218 
L 324.850438 422.476391 
L 325.726305 431.551251 
L 326.602171 454.579514 
L 327.478038 486.8305 
L 328.353905 514.52185 
L 329.229771 524.321596 
L 330.105638 545.157034 
L 330.981504 557.464398 
L 331.857371 558.10683 
L 332.733237 555.616253 
L 333.609104 537.654571 
L 335.360837 560.360666 
L 336.236704 551.719913 
L 337.11257 561.693086 
L 337.988437 556.83176 
L 338.864303 546.445656 
L 339.74017 517.643365 
L 340.616037 405.137117 
L 342.36777 337.838911 
L 343.243636 328.612688 
L 344.119503 317.608344 
L 344.99537 310.210957 
L 345.871236 309.365018 
L 346.747103 312.070849 
L 348.498836 244.490609 
L 349.374702 206.632757 
L 350.250569 190.439697 
L 351.126436 150.63547 
L 352.002302 133.889002 
L 352.878169 139.655971 
L 353.754035 139.247733 
L 354.629902 151.182054 
L 355.505768 164.690735 
L 356.381635 172.306225 
L 357.257502 157.377567 
L 358.133368 161.020929 
L 359.009235 190.487316 
L 359.885101 209.604219 
L 360.760968 195.622224 
L 361.636835 200.834524 
L 362.512701 196.918986 
L 363.388568 222.952637 
L 364.264434 236.292792 
L 365.140301 257.357285 
L 366.016167 323.492102 
L 366.892034 373.238808 
L 367.767901 392.677981 
L 368.643767 464.914283 
L 369.519634 464.000084 
L 370.3955 463.944387 
L 371.271367 462.268148 
L 372.147233 468.202518 
L 373.0231 469.073512 
L 373.898967 477.368283 
L 374.774833 499.347747 
L 375.6507 514.722435 
L 376.526566 527.260959 
L 377.402433 532.688383 
L 378.2783 515.012599 
L 380.030033 504.835983 
L 380.905899 500.280323 
L 381.781766 497.565868 
L 382.657632 493.305829 
L 383.533499 475.486084 
L 384.409366 437.970663 
L 385.285232 432.946114 
L 386.161099 421.719196 
L 387.036965 419.853964 
L 387.912832 417.042511 
L 388.788698 405.906258 
L 389.664565 380.9367 
L 390.540432 370.351085 
L 391.416298 350.375623 
L 392.292165 303.774538 
L 393.168031 306.863645 
L 394.919765 285.325938 
L 395.795631 291.806472 
L 396.671498 288.051454 
L 397.547364 274.936376 
L 398.423231 295.656522 
L 399.299097 267.866727 
L 400.174964 258.670128 
L 401.050831 242.415202 
L 401.926697 233.593351 
L 402.802564 255.509734 
L 403.67843 241.426675 
L 404.554297 262.494484 
L 405.430164 255.849017 
L 406.30603 270.761698 
L 407.181897 289.686522 
L 408.057763 263.583314 
L 408.93363 247.9247 
L 409.809496 235.413138 
L 410.685363 218.552183 
L 411.56123 263.54813 
L 412.437096 270.247721 
L 413.312963 248.694895 
L 414.188829 239.748098 
L 415.064696 273.272147 
L 415.940562 246.685724 
L 416.816429 266.729597 
L 417.692296 397.753666 
L 418.568162 391.421768 
L 419.444029 418.455843 
L 420.319895 436.333511 
L 421.195762 461.504985 
L 422.071629 496.497512 
L 422.947495 516.609039 
L 423.823362 521.806229 
L 425.575095 553.04493 
L 426.450961 556.777856 
L 428.202695 536.386183 
L 429.078561 537.131035 
L 429.954428 540.141332 
L 430.830294 532.362642 
L 431.706161 535.183036 
L 432.582027 536.292082 
L 433.457894 532.538472 
L 434.333761 526.26581 
L 435.209627 464.932609 
L 436.085494 414.686552 
L 436.96136 405.402113 
L 437.837227 376.14268 
L 438.713094 359.897404 
L 439.58896 350.613625 
L 440.464827 315.307962 
L 442.21656 257.53494 
L 443.092426 218.272041 
L 443.968293 204.128258 
L 445.720026 144.72279 
L 446.595893 157.990701 
L 447.471759 146.206675 
L 448.347626 145.106078 
L 449.223492 145.706106 
L 450.099359 154.382512 
L 450.975226 150.826484 
L 451.851092 202.264272 
L 452.726959 194.84917 
L 453.602825 207.337606 
L 454.478692 197.050494 
L 455.354559 201.212641 
L 456.230425 194.054014 
L 457.106292 228.175559 
L 457.982158 333.321061 
L 458.858025 393.469425 
L 459.733891 419.379652 
L 460.609758 456.290068 
L 461.485625 452.337436 
L 462.361491 451.20111 
L 464.113224 462.228771 
L 464.989091 471.850543 
L 465.864957 494.01808 
L 466.740824 490.945544 
L 467.616691 503.438042 
L 468.492557 531.251326 
L 469.368424 526.690522 
L 470.24429 523.232132 
L 472.87189 504.960148 
L 473.747757 502.764412 
L 474.623623 497.063987 
L 475.49949 451.689261 
L 476.375356 369.921409 
L 477.251223 359.17238 
L 478.12709 351.36115 
L 479.002956 349.100699 
L 479.878823 340.079623 
L 480.754689 344.797223 
L 481.630556 328.70157 
L 482.506422 321.370579 
L 483.382289 301.114097 
L 484.258156 314.588474 
L 485.134022 312.037798 
L 486.009889 270.395978 
L 486.885755 276.001618 
L 487.761622 254.982523 
L 488.637489 227.05039 
L 489.513355 224.134029 
L 490.389222 244.350425 
L 491.265088 211.358148 
L 492.140955 236.751709 
L 493.016821 224.795293 
L 493.892688 226.838583 
L 494.768555 190.4037 
L 495.644421 203.215661 
L 496.520288 206.390653 
L 497.396154 217.799235 
L 498.272021 219.365198 
L 499.147888 208.898063 
L 500.023754 194.744341 
L 500.899621 190.488301 
L 501.775487 193.998203 
L 502.651354 226.783584 
L 503.52722 247.200219 
L 504.403087 262.989836 
L 505.278954 252.744974 
L 506.15482 227.754391 
L 507.030687 233.783301 
L 507.906553 277.875258 
L 508.78242 337.325046 
L 509.658286 334.669681 
L 510.534153 326.831599 
L 511.41002 366.723284 
L 512.285886 401.111448 
L 513.161753 417.224663 
L 514.037619 450.943084 
L 514.913486 459.302405 
L 515.789353 475.589403 
L 516.665219 484.713357 
L 517.541086 486.791753 
L 518.416952 480.689741 
L 519.292819 486.77314 
L 520.168685 501.064376 
L 521.044552 507.210482 
L 521.920419 518.690373 
L 522.796285 523.117743 
L 523.672152 518.270396 
L 524.548018 509.489931 
L 525.423885 524.298666 
L 526.299751 493.696556 
L 527.175618 416.684431 
L 528.051485 393.186066 
L 528.927351 349.823403 
L 529.803218 330.830867 
L 530.679084 326.840406 
L 531.554951 319.087137 
L 532.430818 290.1283 
L 533.306684 227.947629 
L 534.182551 192.319969 
L 535.058417 166.675485 
L 535.934284 167.243042 
L 536.81015 144.352762 
L 537.686017 141.86743 
L 538.561884 131.29869 
L 539.43775 139.330467 
L 542.06535 150.234253 
L 542.941216 158.7751 
L 543.817083 180.056826 
L 544.69295 204.126706 
L 545.568816 198.27192 
L 546.444683 193.338682 
L 547.320549 194.261202 
L 548.196416 196.155049 
L 549.072283 209.325656 
L 549.948149 251.664965 
L 550.824016 271.499406 
L 551.699882 286.668757 
L 552.575749 339.326041 
L 553.451615 398.837605 
L 554.327482 447.331559 
L 555.203349 484.686622 
L 556.079215 489.115363 
L 556.955082 483.41437 
L 557.830948 480.308285 
L 558.706815 485.426519 
L 559.582681 497.100709 
L 560.458548 515.449351 
L 561.334415 521.563458 
L 562.210281 532.9193 
L 563.086148 547.806664 
L 563.962014 543.851888 
L 564.837881 535.410291 
L 566.589614 523.93803 
L 567.465481 519.368795 
L 568.341347 509.057513 
L 569.217214 502.60292 
L 570.09308 460.873993 
L 570.968947 400.097938 
L 571.844814 390.192057 
L 572.72068 367.823238 
L 573.596547 358.530577 
L 574.472413 357.002177 
L 575.34828 360.12306 
L 576.224147 343.711965 
L 577.100013 331.149371 
L 577.97588 283.009033 
L 578.851746 287.994631 
L 579.727613 286.567964 
L 580.603479 256.474473 
L 581.479346 274.754013 
L 582.355213 212.332343 
L 583.231079 222.075141 
L 584.106946 194.297831 
L 584.982812 195.032745 
L 585.858679 179.263293 
L 586.734545 151.583318 
L 587.610412 108.81 
L 588.486279 114.017896 
L 589.362145 129.886052 
L 590.238012 191.933429 
L 591.113878 187.80747 
L 591.989745 182.621173 
L 592.865612 128.131905 
L 594.617345 175.956963 
L 595.493211 159.806002 
L 596.369078 115.169235 
L 597.244944 122.903217 
L 598.120811 132.911423 
L 598.996678 177.970254 
L 599.872544 190.630865 
L 600.748411 215.266257 
L 601.624277 225.063611 
L 602.500144 233.412115 
L 603.37601 252.002657 
L 604.251877 248.699812 
L 605.127744 253.956854 
L 606.00361 245.144861 
L 606.879477 364.574211 
L 607.755343 374.163141 
L 608.63121 376.037176 
L 609.507077 381.638588 
L 610.382943 376.079963 
L 611.25881 390.035061 
L 612.134676 406.82815 
L 613.010543 433.685161 
L 614.762276 458.48076 
L 615.638143 461.487278 
L 616.514009 476.368544 
L 617.389876 477.079473 
L 618.265742 492.233511 
L 619.141609 500.325186 
L 620.017475 504.157331 
L 620.893342 522.350838 
L 621.769209 529.083588 
L 622.645075 523.306073 
L 623.520942 512.212901 
L 624.396808 494.835504 
L 625.272675 441.782415 
L 626.148542 373.039842 
L 627.024408 370.08251 
L 627.900275 339.707304 
L 628.776141 324.298721 
L 630.527874 304.960924 
L 631.403741 301.26874 
L 632.279608 363.251837 
L 634.031341 299.225177 
L 635.783074 239.26659 
L 636.65894 264.897282 
L 637.534807 269.38722 
L 638.410674 254.554625 
L 639.28654 243.177327 
L 640.162407 250.609511 
L 641.038273 262.479925 
L 641.91414 213.536167 
L 642.790007 205.194365 
L 643.665873 237.325312 
L 644.54174 283.370692 
L 645.417606 293.306592 
L 646.293473 259.265689 
L 647.169339 264.969078 
L 648.045206 249.20586 
L 648.921073 248.659168 
L 649.796939 224.581433 
L 650.672806 241.854656 
L 652.424539 367.672341 
L 653.300405 382.919766 
L 654.176272 453.441824 
L 655.928005 459.916904 
L 656.803872 459.80666 
L 658.555605 450.749967 
L 659.431472 460.49238 
L 660.307338 471.72156 
L 661.183205 489.258155 
L 662.059071 492.304405 
L 662.934938 521.514099 
L 663.810804 520.430444 
L 664.686671 501.791928 
L 665.562538 485.822236 
L 666.438404 484.794291 
L 667.314271 478.09448 
L 668.190137 469.064336 
L 669.941871 383.978751 
L 670.817737 390.713026 
L 671.693604 379.390451 
L 672.56947 373.019262 
L 673.445337 367.850509 
L 674.321203 364.401445 
L 675.19707 352.105975 
L 676.072937 349.864322 
L 676.948803 332.142701 
L 677.82467 322.625279 
L 678.700536 284.477866 
L 679.576403 292.023682 
L 680.452269 282.58484 
L 681.328136 239.356517 
L 682.204003 223.384162 
L 683.079869 198.749337 
L 683.955736 183.501359 
L 684.831602 185.913083 
L 685.707469 178.184495 
L 686.583336 171.503952 
L 687.459202 170.23931 
L 688.335069 178.184887 
L 689.210935 201.293095 
L 690.086802 221.348618 
L 690.962668 232.734436 
L 691.838535 228.628072 
L 692.714402 209.38344 
L 693.590268 224.378856 
L 694.466135 211.249812 
L 695.342001 187.115648 
L 696.217868 185.770548 
L 697.093734 179.933486 
L 697.969601 186.764206 
L 698.845468 217.806833 
L 699.721334 222.753837 
L 700.597201 243.654291 
L 701.473067 273.382503 
L 702.348934 276.181751 
L 703.224801 280.807337 
L 704.100667 280.537946 
L 704.976534 270.308805 
L 707.604133 260.265757 
L 708.48 269.655524 
L 710.231733 292.738635 
L 711.1076 390.610923 
L 711.983466 394.242228 
L 712.859333 423.952826 
L 713.735199 444.974468 
L 714.611066 461.11162 
L 716.362799 474.915711 
L 717.238666 479.123245 
L 718.114532 513.634497 
L 718.990399 519.550964 
L 719.866266 517.117702 
L 720.742132 518.43866 
L 721.617999 531.465876 
L 722.493865 537.623691 
L 723.369732 528.429889 
L 725.121465 535.811798 
L 725.997332 516.727708 
L 726.873198 489.763826 
L 727.749065 498.329129 
L 728.624931 406.361934 
L 729.500798 347.751361 
L 730.376664 340.197676 
L 732.128398 280.299367 
L 733.004264 246.919334 
L 733.880131 233.417576 
L 734.755997 200.552318 
L 735.631864 181.289806 
L 736.507731 172.053259 
L 737.383597 151.47865 
L 738.259464 162.400943 
L 739.13533 168.411748 
L 740.011197 200.835184 
L 740.887063 188.444286 
L 741.76293 211.413008 
L 742.638797 203.01384 
L 743.514663 245.475415 
L 744.39053 272.927068 
L 745.266396 274.832154 
L 746.142263 243.610067 
L 747.018129 231.576304 
L 747.893996 248.132426 
L 748.769863 260.524607 
L 749.645729 339.285315 
L 750.521596 352.886669 
L 752.273329 409.38236 
L 753.149196 468.278807 
L 754.025062 467.299827 
L 754.900929 462.91151 
L 755.776795 469.357906 
L 757.528528 453.363511 
L 758.404395 459.241481 
L 759.280262 502.280917 
L 760.156128 502.708152 
L 761.031995 522.458757 
L 761.907861 550.879129 
L 762.783728 541.588907 
L 763.659595 527.751307 
L 764.535461 510.968364 
L 765.411328 503.357238 
L 766.287194 499.597375 
L 768.038927 465.120516 
L 768.914794 405.419258 
L 769.790661 391.00909 
L 770.666527 374.429473 
L 771.542394 379.436538 
L 772.41826 372.530383 
L 773.294127 370.156013 
L 774.169993 364.912445 
L 775.04586 361.514805 
L 775.921727 341.725607 
L 776.797593 285.651732 
L 777.67346 303.550806 
L 778.549326 293.827822 
L 779.425193 286.515509 
L 780.30106 283.480973 
L 781.176926 272.48448 
L 782.052793 281.10835 
L 782.928659 286.246747 
L 783.804526 281.290018 
L 784.680392 281.264451 
L 785.556259 275.515385 
L 786.432126 267.601317 
L 787.307992 268.505989 
L 789.059725 252.673424 
L 789.935592 254.711102 
L 791.687325 234.195498 
L 792.563192 253.544125 
L 793.439058 317.68183 
L 794.314925 304.006328 
L 795.190791 302.07808 
L 796.066658 302.090095 
L 796.942525 314.033684 
L 797.818391 333.583926 
L 798.694258 342.714054 
L 799.570124 342.525837 
L 800.445991 342.830155 
L 801.321857 349.671898 
L 802.197724 393.740028 
L 803.073591 398.473829 
L 803.949457 436.637089 
L 804.825324 449.654642 
L 805.70119 464.426172 
L 806.577057 470.769488 
L 807.452923 481.026912 
L 808.32879 483.690485 
L 809.204657 499.252657 
L 810.080523 504.144978 
L 810.95639 457.438307 
L 811.832256 459.939498 
L 812.708123 494.151404 
L 814.459856 434.815868 
L 815.335723 423.963444 
L 817.087456 416.592682 
L 817.963322 398.281124 
L 818.839189 372.102005 
L 819.715056 360.886198 
L 820.590922 323.413948 
L 821.466789 305.390317 
L 822.342655 292.010324 
L 823.218522 285.089163 
L 824.094388 286.966015 
L 824.970255 289.95189 
L 825.846122 278.791662 
L 826.721988 272.040347 
L 827.597855 270.888265 
L 828.473721 264.520139 
L 829.349588 276.939965 
L 830.225455 275.427265 
L 831.101321 279.351491 
L 831.977188 285.190477 
L 832.853054 299.023204 
L 833.728921 371.311176 
L 834.604787 399.459127 
L 835.480654 420.861583 
L 836.356521 446.667542 
L 837.232387 452.614803 
L 838.108254 478.418716 
L 838.98412 490.613723 
L 839.859987 496.115424 
L 840.735853 491.306014 
L 841.61172 500.674812 
L 842.487587 482.738728 
L 843.363453 522.659168 
L 844.23932 523.387788 
L 845.115186 509.455068 
L 845.991053 514.929548 
L 846.86692 504.988724 
L 847.742786 503.057275 
L 848.618653 500.632368 
L 849.494519 491.870105 
L 850.370386 459.773159 
L 851.246252 339.663022 
L 852.122119 301.89307 
L 852.997986 280.678862 
L 853.873852 277.878563 
L 854.749719 244.227237 
L 855.625585 239.531791 
L 856.501452 239.294427 
L 857.377319 243.008757 
L 858.253185 247.561534 
L 859.129052 239.383249 
L 860.004918 256.090792 
L 860.880785 204.156331 
L 861.756651 207.671661 
L 862.632518 198.398014 
L 863.508385 192.122912 
L 864.384251 203.444064 
L 865.260118 210.102536 
L 867.011851 219.652546 
L 867.887717 222.586201 
L 868.763584 217.965883 
L 869.639451 222.995276 
L 870.515317 214.439553 
L 871.391184 200.957688 
L 872.26705 152.304093 
L 873.142917 143.209076 
L 874.018784 144.386922 
L 874.89465 138.533497 
L 875.770517 134.670612 
L 876.646383 138.804785 
L 877.52225 144.033044 
L 878.398116 172.587716 
L 879.273983 236.563245 
L 880.14985 376.665558 
L 881.025716 380.83247 
L 881.901583 411.084215 
L 882.777449 407.639152 
L 883.653316 434.269775 
L 884.529182 464.882852 
L 885.405049 489.340692 
L 886.280916 509.889435 
L 887.156782 518.477761 
L 888.032649 532.610401 
L 888.908515 532.821289 
L 889.784382 523.80514 
L 890.660249 518.079219 
L 891.536115 525.302676 
L 892.411982 535.913918 
L 893.287848 540.961099 
L 894.163715 539.934681 
L 895.039581 542.445943 
L 895.915448 550.701299 
L 896.791315 541.322232 
L 898.543048 369.776098 
L 899.418914 359.64189 
L 900.294781 371.289681 
L 901.170647 356.252569 
L 902.046514 345.428418 
L 902.922381 337.983806 
L 903.798247 344.693718 
L 904.674114 344.021827 
L 905.54998 314.161384 
L 906.425847 277.913254 
L 907.301714 262.403946 
L 908.17758 216.265025 
L 909.053447 190.400277 
L 909.929313 198.193776 
L 910.80518 210.663247 
L 911.681046 209.224626 
L 912.556913 219.900406 
L 913.43278 198.468839 
L 914.308646 195.414532 
L 915.184513 196.878623 
L 916.060379 200.667147 
L 916.936246 205.666923 
L 917.812112 208.293682 
L 918.687979 218.792454 
L 919.563846 211.41473 
L 921.315579 357.594003 
L 922.191445 392.957757 
L 923.067312 412.574985 
L 923.943179 449.180466 
L 926.570778 483.112525 
L 927.446645 481.078374 
L 928.322511 488.122382 
L 929.198378 492.211366 
L 930.074245 497.224909 
L 931.825978 527.123117 
L 932.701844 514.53153 
L 933.577711 518.213623 
L 934.453578 513.922443 
L 935.329444 505.547073 
L 936.205311 501.138499 
L 937.081177 499.912737 
L 937.957044 475.477691 
L 938.83291 406.618456 
L 939.708777 351.982597 
L 940.584644 364.287982 
L 941.46051 325.988163 
L 942.336377 326.075723 
L 943.212243 328.667413 
L 944.08811 313.320934 
L 944.963976 318.614412 
L 945.839843 294.016522 
L 946.71571 264.63069 
L 947.591576 261.793469 
L 948.467443 238.308943 
L 949.343309 220.171497 
L 950.219176 220.248337 
L 951.095043 189.341072 
L 951.970909 166.144307 
L 952.846776 169.252973 
L 953.722642 161.567418 
L 954.598509 155.348415 
L 955.474375 162.523376 
L 956.350242 162.475408 
L 957.226109 157.940775 
L 958.101975 168.517051 
L 958.977842 161.238442 
L 959.853708 166.058328 
L 960.729575 188.59497 
L 961.605441 179.118118 
L 962.481308 154.504447 
L 964.233041 265.75132 
L 965.108908 282.870272 
L 965.984774 270.264122 
L 966.860641 261.697336 
L 967.736508 273.917091 
L 968.612374 289.768022 
L 969.488241 300.067125 
L 970.364107 291.21457 
L 971.239974 283.605388 
L 972.11584 272.197024 
L 972.991707 275.770705 
L 973.867574 354.254573 
L 974.74344 362.708182 
L 975.619307 410.61695 
L 976.495173 429.575563 
L 977.37104 461.076248 
L 978.246906 477.230043 
L 979.122773 476.36363 
L 979.99864 492.448277 
L 980.874506 523.924506 
L 981.750373 527.075245 
L 982.626239 523.482888 
L 983.502106 524.659807 
L 984.377973 520.383755 
L 985.253839 532.196508 
L 986.129706 532.626456 
L 987.005572 508.779934 
L 987.881439 481.514942 
L 988.757305 477.557381 
L 989.633172 458.740647 
L 990.509039 470.090636 
L 991.384905 415.912581 
L 992.260772 391.632635 
L 993.136638 329.869276 
L 994.012505 309.696853 
L 994.888371 253.29789 
L 995.764238 214.662846 
L 996.640105 225.534063 
L 997.515971 224.886839 
L 998.391838 225.071608 
L 999.267704 218.698347 
L 1000.143571 225.695502 
L 1001.019438 220.813783 
L 1001.895304 196.049163 
L 1002.771171 201.480681 
L 1003.647037 216.321218 
L 1004.522904 212.474259 
L 1005.39877 175.167621 
L 1006.274637 198.688488 
L 1007.150504 294.835229 
L 1008.02637 336.934914 
L 1008.902237 350.247581 
L 1009.778103 430.965122 
L 1010.65397 440.417655 
L 1011.529836 452.00827 
L 1013.28157 499.404421 
L 1014.157436 504.613391 
L 1015.909169 490.963811 
L 1016.785036 478.890678 
L 1017.660903 520.75731 
L 1018.536769 512.039638 
L 1019.412636 505.80818 
L 1020.288502 517.321242 
L 1021.164369 510.123079 
L 1022.916102 498.22307 
L 1023.791969 485.534202 
L 1024.667835 470.248614 
L 1025.543702 419.171005 
L 1026.419568 411.05609 
L 1027.295435 369.901494 
L 1028.171302 367.220256 
L 1029.047168 366.510619 
L 1029.923035 355.355113 
L 1030.798901 367.642909 
L 1031.674768 362.999781 
L 1032.550634 351.931361 
L 1033.426501 331.317578 
L 1034.302368 315.52738 
L 1035.178234 292.425389 
L 1036.054101 264.883113 
L 1036.929967 281.967616 
L 1037.805834 245.322839 
L 1038.6817 276.707336 
L 1039.557567 233.464709 
L 1040.433434 252.117064 
L 1041.3093 249.425563 
L 1042.185167 247.421165 
L 1043.061033 244.776307 
L 1043.9369 254.555208 
L 1044.812767 268.720002 
L 1045.688633 254.529746 
L 1046.5645 284.336248 
L 1047.440366 290.970227 
L 1048.316233 253.330847 
L 1049.192099 235.945064 
L 1050.067966 277.990958 
L 1050.943833 312.673747 
L 1051.819699 271.005347 
L 1052.695566 250.357772 
L 1053.571432 256.439112 
L 1054.447299 243.205201 
L 1055.323165 232.139761 
L 1056.199032 214.242677 
L 1057.074899 216.373509 
L 1057.950765 246.253415 
L 1058.826632 253.347587 
L 1060.578365 285.621827 
L 1061.454232 286.388141 
L 1062.330098 289.983269 
L 1063.205965 301.790481 
L 1064.081831 311.621736 
L 1064.957698 319.782005 
L 1066.709431 370.085933 
L 1067.585298 354.66846 
L 1068.461164 323.790827 
L 1069.337031 312.491922 
L 1070.212897 280.276468 
L 1071.088764 243.280298 
L 1071.96463 273.721281 
L 1072.840497 268.983686 
L 1073.716364 274.494246 
L 1075.468097 307.493622 
L 1076.343963 298.114676 
L 1077.21983 275.640549 
L 1078.095697 240.300312 
L 1078.971563 180.478123 
L 1079.84743 156.592224 
L 1080.723296 152.722415 
L 1081.599163 143.711348 
L 1082.475029 140.43266 
L 1083.350896 126.870833 
L 1084.226763 158.517445 
L 1085.102629 148.649304 
L 1085.978496 154.733394 
L 1086.854362 162.660141 
L 1087.730229 222.14565 
L 1088.606095 202.857628 
L 1089.481962 199.749681 
L 1090.357829 204.414833 
L 1091.233695 203.92267 
L 1092.109562 203.945415 
L 1093.861295 286.903633 
L 1094.737162 341.647161 
L 1095.613028 370.68654 
L 1096.488895 457.894343 
L 1097.364761 469.381719 
L 1098.240628 467.111263 
L 1099.116494 468.207772 
L 1099.992361 468.43917 
L 1100.868228 472.971546 
L 1101.744094 470.730026 
L 1102.619961 492.282014 
L 1103.495827 495.462794 
L 1104.371694 511.173211 
L 1105.24756 512.074738 
L 1106.123427 515.433469 
L 1106.999294 505.034645 
L 1107.87516 492.070236 
L 1108.751027 485.580221 
L 1110.50276 475.499136 
L 1111.378627 452.866423 
L 1112.254493 388.844129 
L 1113.13036 363.57855 
L 1114.006226 294.164492 
L 1114.882093 296.29846 
L 1115.757959 304.430205 
L 1116.633826 307.42514 
L 1117.509693 295.933749 
L 1118.385559 317.978259 
L 1119.261426 299.731012 
L 1120.137292 275.185458 
L 1121.013159 279.947116 
L 1121.889026 269.537932 
L 1122.764892 255.21826 
L 1123.640759 252.424446 
L 1124.516625 244.534895 
L 1125.392492 249.3969 
L 1126.268358 248.694449 
L 1127.144225 259.999351 
L 1128.020092 259.678217 
L 1128.895958 233.581668 
L 1129.771825 229.588009 
L 1130.647691 235.022002 
L 1131.523558 253.316526 
L 1132.399424 260.833713 
L 1133.275291 277.287599 
L 1134.151158 286.16349 
L 1135.027024 267.997032 
L 1135.902891 269.425224 
L 1137.654624 247.309594 
L 1138.530491 229.257433 
L 1139.406357 224.866385 
L 1140.282224 217.015214 
L 1141.15809 208.018483 
L 1142.033957 236.131589 
L 1142.909823 235.796625 
L 1143.78569 237.838454 
L 1144.661557 250.00891 
L 1145.537423 319.861859 
L 1146.41329 325.80939 
L 1147.289156 330.287398 
L 1148.165023 317.536443 
L 1149.040889 309.316769 
L 1149.916756 297.075405 
L 1150.792623 295.786904 
L 1151.668489 315.827717 
L 1154.296089 394.765316 
L 1155.171956 391.596069 
L 1156.047822 446.33147 
L 1156.923689 479.81081 
L 1157.799555 479.371166 
L 1158.675422 465.839924 
L 1159.551288 457.477809 
L 1160.427155 470.888234 
L 1162.178888 516.782137 
L 1163.054755 499.937881 
L 1163.930621 504.551037 
L 1164.806488 511.318194 
L 1165.682354 507.306336 
L 1166.558221 506.166769 
L 1167.434088 509.053281 
L 1168.309954 499.238044 
L 1169.185821 495.547867 
L 1170.061687 470.222767 
L 1170.937554 466.782852 
L 1171.813421 426.672023 
L 1172.689287 370.04376 
L 1173.565154 372.69267 
L 1174.44102 338.237742 
L 1175.316887 298.518734 
L 1176.192753 272.377837 
L 1177.06862 267.013512 
L 1177.944487 244.381124 
L 1178.820353 216.878037 
L 1179.69622 206.358511 
L 1180.572086 202.728214 
L 1181.447953 198.04977 
L 1182.323819 197.424974 
L 1183.199686 220.389723 
L 1184.075553 251.553311 
L 1184.951419 237.869873 
L 1185.827286 238.843681 
L 1186.703152 233.058072 
L 1187.579019 240.996128 
L 1188.454886 234.953495 
L 1189.330752 221.038796 
L 1190.206619 218.973642 
L 1191.082485 221.126206 
L 1191.958352 231.475122 
L 1192.834218 260.344033 
L 1193.710085 267.799535 
L 1194.585952 260.766033 
L 1195.461818 297.487178 
L 1195.461818 297.487178 
" style="fill:none;stroke:#1f77b4;stroke-linecap:square;stroke-width:1.5;"/>
   </g>
   <g id="patch_3">
    <path d="M 172.8 624.78 
L 172.8 84.24 
" style="fill:none;stroke:#000000;stroke-linecap:square;stroke-linejoin:miter;stroke-width:0.8;"/>
   </g>
   <g id="patch_4">
    <path d="M 1244.16 624.78 
L 1244.16 84.24 
" style="fill:none;stroke:#000000;stroke-linecap:square;stroke-linejoin:miter;stroke-width:0.8;"/>
   </g>
   <g id="patch_5">
    <path d="M 172.8 624.78 
L 1244.16 624.78 
" style="fill:none;stroke:#000000;stroke-linecap:square;stroke-linejoin:miter;stroke-width:0.8;"/>
   </g>
   <g id="patch_6">
    <path d="M 172.8 84.24 
L 1244.16 84.24 
" style="fill:none;stroke:#000000;stroke-linecap:square;stroke-linejoin:miter;stroke-width:0.8;"/>
   </g>
  </g>
 </g>
 <defs>
  <clipPath id="p0670ed9423">
   <rect height="540.54" width="1071.36" x="172.8" y="84.24"/>
  </clipPath>
 </defs>
</svg>
