<?xml version="1.0" encoding="utf-8" standalone="no"?>
<!DOCTYPE svg PUBLIC "-//W3C//DTD SVG 1.1//EN"
  "http://www.w3.org/Graphics/SVG/1.1/DTD/svg11.dtd">
<svg height="702pt" version="1.1" viewBox="0 0 1382.4 702" width="1382.4pt" xmlns="http://www.w3.org/2000/svg" xmlns:xlink="http://www.w3.org/1999/xlink">
 <metadata>
  <rdf:RDF xmlns:cc="http://creativecommons.org/ns#" xmlns:dc="http://purl.org/dc/elements/1.1/" xmlns:rdf="http://www.w3.org/1999/02/22-rdf-syntax-ns#">
   <cc:Work>
    <dc:type rdf:resource="http://purl.org/dc/dcmitype/StillImage"/>
    <dc:date>2022-06-19T18:18:38.999520</dc:date>
    <dc:format>image/svg+xml</dc:format>
    <dc:creator>
     <cc:Agent>
      <dc:title>Matplotlib v3.4.2, https://matplotlib.org/</dc:title>
     </cc:Agent>
    </dc:creator>
   </cc:Work>
  </rdf:RDF>
 </metadata>
 <defs>
  <style type="text/css">*{stroke-linecap:butt;stroke-linejoin:round;}</style>
 </defs>
 <g id="figure_1">
  <g id="patch_1">
   <path d="M 0 702 
L 1382.4 702 
L 1382.4 0 
L 0 0 
z
" style="fill:#ffffff;"/>
  </g>
  <g id="axes_1">
   <g id="patch_2">
    <path d="M 172.8 624.78 
L 1244.16 624.78 
L 1244.16 84.24 
L 172.8 84.24 
z
" style="fill:#ffffff;"/>
   </g>
   <g id="matplotlib.axis_1">
    <g id="xtick_1">
     <g id="text_1">
      <!-- 29 -->
      <g transform="translate(188.108206 646.15084)rotate(-45)scale(0.1 -0.1)">
       <defs>
        <path d="M 1228 531 
L 3431 531 
L 3431 0 
L 469 0 
L 469 531 
Q 828 903 1448 1529 
Q 2069 2156 2228 2338 
Q 2531 2678 2651 2914 
Q 2772 3150 2772 3378 
Q 2772 3750 2511 3984 
Q 2250 4219 1831 4219 
Q 1534 4219 1204 4116 
Q 875 4013 500 3803 
L 500 4441 
Q 881 4594 1212 4672 
Q 1544 4750 1819 4750 
Q 2544 4750 2975 4387 
Q 3406 4025 3406 3419 
Q 3406 3131 3298 2873 
Q 3191 2616 2906 2266 
Q 2828 2175 2409 1742 
Q 1991 1309 1228 531 
z
" id="DejaVuSans-32" transform="scale(0.015625)"/>
        <path d="M 703 97 
L 703 672 
Q 941 559 1184 500 
Q 1428 441 1663 441 
Q 2288 441 2617 861 
Q 2947 1281 2994 2138 
Q 2813 1869 2534 1725 
Q 2256 1581 1919 1581 
Q 1219 1581 811 2004 
Q 403 2428 403 3163 
Q 403 3881 828 4315 
Q 1253 4750 1959 4750 
Q 2769 4750 3195 4129 
Q 3622 3509 3622 2328 
Q 3622 1225 3098 567 
Q 2575 -91 1691 -91 
Q 1453 -91 1209 -44 
Q 966 3 703 97 
z
M 1959 2075 
Q 2384 2075 2632 2365 
Q 2881 2656 2881 3163 
Q 2881 3666 2632 3958 
Q 2384 4250 1959 4250 
Q 1534 4250 1286 3958 
Q 1038 3666 1038 3163 
Q 1038 2656 1286 2365 
Q 1534 2075 1959 2075 
z
" id="DejaVuSans-39" transform="scale(0.015625)"/>
       </defs>
       <use xlink:href="#DejaVuSans-32"/>
       <use x="63.623047" xlink:href="#DejaVuSans-39"/>
      </g>
     </g>
    </g>
    <g id="xtick_2">
     <g id="text_2">
      <!-- 6 -->
      <g transform="translate(226.069689 641.651874)rotate(-45)scale(0.1 -0.1)">
       <defs>
        <path d="M 2113 2584 
Q 1688 2584 1439 2293 
Q 1191 2003 1191 1497 
Q 1191 994 1439 701 
Q 1688 409 2113 409 
Q 2538 409 2786 701 
Q 3034 994 3034 1497 
Q 3034 2003 2786 2293 
Q 2538 2584 2113 2584 
z
M 3366 4563 
L 3366 3988 
Q 3128 4100 2886 4159 
Q 2644 4219 2406 4219 
Q 1781 4219 1451 3797 
Q 1122 3375 1075 2522 
Q 1259 2794 1537 2939 
Q 1816 3084 2150 3084 
Q 2853 3084 3261 2657 
Q 3669 2231 3669 1497 
Q 3669 778 3244 343 
Q 2819 -91 2113 -91 
Q 1303 -91 875 529 
Q 447 1150 447 2328 
Q 447 3434 972 4092 
Q 1497 4750 2381 4750 
Q 2619 4750 2861 4703 
Q 3103 4656 3366 4563 
z
" id="DejaVuSans-36" transform="scale(0.015625)"/>
       </defs>
       <use xlink:href="#DejaVuSans-36"/>
      </g>
     </g>
    </g>
    <g id="xtick_3">
     <g id="text_3">
      <!-- 8 -->
      <g transform="translate(261.781689 641.651874)rotate(-45)scale(0.1 -0.1)">
       <defs>
        <path d="M 2034 2216 
Q 1584 2216 1326 1975 
Q 1069 1734 1069 1313 
Q 1069 891 1326 650 
Q 1584 409 2034 409 
Q 2484 409 2743 651 
Q 3003 894 3003 1313 
Q 3003 1734 2745 1975 
Q 2488 2216 2034 2216 
z
M 1403 2484 
Q 997 2584 770 2862 
Q 544 3141 544 3541 
Q 544 4100 942 4425 
Q 1341 4750 2034 4750 
Q 2731 4750 3128 4425 
Q 3525 4100 3525 3541 
Q 3525 3141 3298 2862 
Q 3072 2584 2669 2484 
Q 3125 2378 3379 2068 
Q 3634 1759 3634 1313 
Q 3634 634 3220 271 
Q 2806 -91 2034 -91 
Q 1263 -91 848 271 
Q 434 634 434 1313 
Q 434 1759 690 2068 
Q 947 2378 1403 2484 
z
M 1172 3481 
Q 1172 3119 1398 2916 
Q 1625 2713 2034 2713 
Q 2441 2713 2670 2916 
Q 2900 3119 2900 3481 
Q 2900 3844 2670 4047 
Q 2441 4250 2034 4250 
Q 1625 4250 1398 4047 
Q 1172 3844 1172 3481 
z
" id="DejaVuSans-38" transform="scale(0.015625)"/>
       </defs>
       <use xlink:href="#DejaVuSans-38"/>
      </g>
     </g>
    </g>
    <g id="xtick_4">
     <g id="text_4">
      <!-- 4 -->
      <g transform="translate(297.493689 641.651874)rotate(-45)scale(0.1 -0.1)">
       <defs>
        <path d="M 2419 4116 
L 825 1625 
L 2419 1625 
L 2419 4116 
z
M 2253 4666 
L 3047 4666 
L 3047 1625 
L 3713 1625 
L 3713 1100 
L 3047 1100 
L 3047 0 
L 2419 0 
L 2419 1100 
L 313 1100 
L 313 1709 
L 2253 4666 
z
" id="DejaVuSans-34" transform="scale(0.015625)"/>
       </defs>
       <use xlink:href="#DejaVuSans-34"/>
      </g>
     </g>
    </g>
    <g id="xtick_5">
     <g id="text_5">
      <!-- 7 -->
      <g transform="translate(333.205689 641.651874)rotate(-45)scale(0.1 -0.1)">
       <defs>
        <path d="M 525 4666 
L 3525 4666 
L 3525 4397 
L 1831 0 
L 1172 0 
L 2766 4134 
L 525 4134 
L 525 4666 
z
" id="DejaVuSans-37" transform="scale(0.015625)"/>
       </defs>
       <use xlink:href="#DejaVuSans-37"/>
      </g>
     </g>
    </g>
    <g id="xtick_6">
     <g id="text_6">
      <!-- 2 -->
      <g transform="translate(368.917689 641.651874)rotate(-45)scale(0.1 -0.1)">
       <use xlink:href="#DejaVuSans-32"/>
      </g>
     </g>
    </g>
    <g id="xtick_7">
     <g id="text_7">
      <!-- 3 -->
      <g transform="translate(404.629689 641.651874)rotate(-45)scale(0.1 -0.1)">
       <defs>
        <path d="M 2597 2516 
Q 3050 2419 3304 2112 
Q 3559 1806 3559 1356 
Q 3559 666 3084 287 
Q 2609 -91 1734 -91 
Q 1441 -91 1130 -33 
Q 819 25 488 141 
L 488 750 
Q 750 597 1062 519 
Q 1375 441 1716 441 
Q 2309 441 2620 675 
Q 2931 909 2931 1356 
Q 2931 1769 2642 2001 
Q 2353 2234 1838 2234 
L 1294 2234 
L 1294 2753 
L 1863 2753 
Q 2328 2753 2575 2939 
Q 2822 3125 2822 3475 
Q 2822 3834 2567 4026 
Q 2313 4219 1838 4219 
Q 1578 4219 1281 4162 
Q 984 4106 628 3988 
L 628 4550 
Q 988 4650 1302 4700 
Q 1616 4750 1894 4750 
Q 2613 4750 3031 4423 
Q 3450 4097 3450 3541 
Q 3450 3153 3228 2886 
Q 3006 2619 2597 2516 
z
" id="DejaVuSans-33" transform="scale(0.015625)"/>
       </defs>
       <use xlink:href="#DejaVuSans-33"/>
      </g>
     </g>
    </g>
    <g id="xtick_8">
     <g id="text_8">
      <!-- 0 -->
      <g transform="translate(440.341689 641.651874)rotate(-45)scale(0.1 -0.1)">
       <defs>
        <path d="M 2034 4250 
Q 1547 4250 1301 3770 
Q 1056 3291 1056 2328 
Q 1056 1369 1301 889 
Q 1547 409 2034 409 
Q 2525 409 2770 889 
Q 3016 1369 3016 2328 
Q 3016 3291 2770 3770 
Q 2525 4250 2034 4250 
z
M 2034 4750 
Q 2819 4750 3233 4129 
Q 3647 3509 3647 2328 
Q 3647 1150 3233 529 
Q 2819 -91 2034 -91 
Q 1250 -91 836 529 
Q 422 1150 422 2328 
Q 422 3509 836 4129 
Q 1250 4750 2034 4750 
z
" id="DejaVuSans-30" transform="scale(0.015625)"/>
       </defs>
       <use xlink:href="#DejaVuSans-30"/>
      </g>
     </g>
    </g>
    <g id="xtick_9">
     <g id="text_9">
      <!-- 21 -->
      <g transform="translate(473.804206 646.15084)rotate(-45)scale(0.1 -0.1)">
       <defs>
        <path d="M 794 531 
L 1825 531 
L 1825 4091 
L 703 3866 
L 703 4441 
L 1819 4666 
L 2450 4666 
L 2450 531 
L 3481 531 
L 3481 0 
L 794 0 
L 794 531 
z
" id="DejaVuSans-31" transform="scale(0.015625)"/>
       </defs>
       <use xlink:href="#DejaVuSans-32"/>
       <use x="63.623047" xlink:href="#DejaVuSans-31"/>
      </g>
     </g>
    </g>
    <g id="xtick_10">
     <g id="text_10">
      <!-- 11 -->
      <g transform="translate(509.516206 646.15084)rotate(-45)scale(0.1 -0.1)">
       <use xlink:href="#DejaVuSans-31"/>
       <use x="63.623047" xlink:href="#DejaVuSans-31"/>
      </g>
     </g>
    </g>
    <g id="xtick_11">
     <g id="text_11">
      <!-- 14 -->
      <g transform="translate(545.228206 646.15084)rotate(-45)scale(0.1 -0.1)">
       <use xlink:href="#DejaVuSans-31"/>
       <use x="63.623047" xlink:href="#DejaVuSans-34"/>
      </g>
     </g>
    </g>
    <g id="xtick_12">
     <g id="text_12">
      <!-- 23 -->
      <g transform="translate(580.940206 646.15084)rotate(-45)scale(0.1 -0.1)">
       <use xlink:href="#DejaVuSans-32"/>
       <use x="63.623047" xlink:href="#DejaVuSans-33"/>
      </g>
     </g>
    </g>
    <g id="xtick_13">
     <g id="text_13">
      <!-- 16 -->
      <g transform="translate(616.652206 646.15084)rotate(-45)scale(0.1 -0.1)">
       <use xlink:href="#DejaVuSans-31"/>
       <use x="63.623047" xlink:href="#DejaVuSans-36"/>
      </g>
     </g>
    </g>
    <g id="xtick_14">
     <g id="text_14">
      <!-- 25 -->
      <g transform="translate(652.364206 646.15084)rotate(-45)scale(0.1 -0.1)">
       <defs>
        <path d="M 691 4666 
L 3169 4666 
L 3169 4134 
L 1269 4134 
L 1269 2991 
Q 1406 3038 1543 3061 
Q 1681 3084 1819 3084 
Q 2600 3084 3056 2656 
Q 3513 2228 3513 1497 
Q 3513 744 3044 326 
Q 2575 -91 1722 -91 
Q 1428 -91 1123 -41 
Q 819 9 494 109 
L 494 744 
Q 775 591 1075 516 
Q 1375 441 1709 441 
Q 2250 441 2565 725 
Q 2881 1009 2881 1497 
Q 2881 1984 2565 2268 
Q 2250 2553 1709 2553 
Q 1456 2553 1204 2497 
Q 953 2441 691 2322 
L 691 4666 
z
" id="DejaVuSans-35" transform="scale(0.015625)"/>
       </defs>
       <use xlink:href="#DejaVuSans-32"/>
       <use x="63.623047" xlink:href="#DejaVuSans-35"/>
      </g>
     </g>
    </g>
    <g id="xtick_15">
     <g id="text_15">
      <!-- 19 -->
      <g transform="translate(688.076206 646.15084)rotate(-45)scale(0.1 -0.1)">
       <use xlink:href="#DejaVuSans-31"/>
       <use x="63.623047" xlink:href="#DejaVuSans-39"/>
      </g>
     </g>
    </g>
    <g id="xtick_16">
     <g id="text_16">
      <!-- 22 -->
      <g transform="translate(723.788206 646.15084)rotate(-45)scale(0.1 -0.1)">
       <use xlink:href="#DejaVuSans-32"/>
       <use x="63.623047" xlink:href="#DejaVuSans-32"/>
      </g>
     </g>
    </g>
    <g id="xtick_17">
     <g id="text_17">
      <!-- 27 -->
      <g transform="translate(759.500206 646.15084)rotate(-45)scale(0.1 -0.1)">
       <use xlink:href="#DejaVuSans-32"/>
       <use x="63.623047" xlink:href="#DejaVuSans-37"/>
      </g>
     </g>
    </g>
    <g id="xtick_18">
     <g id="text_18">
      <!-- 20 -->
      <g transform="translate(795.212206 646.15084)rotate(-45)scale(0.1 -0.1)">
       <use xlink:href="#DejaVuSans-32"/>
       <use x="63.623047" xlink:href="#DejaVuSans-30"/>
      </g>
     </g>
    </g>
    <g id="xtick_19">
     <g id="text_19">
      <!-- 18 -->
      <g transform="translate(830.924206 646.15084)rotate(-45)scale(0.1 -0.1)">
       <use xlink:href="#DejaVuSans-31"/>
       <use x="63.623047" xlink:href="#DejaVuSans-38"/>
      </g>
     </g>
    </g>
    <g id="xtick_20">
     <g id="text_20">
      <!-- 24 -->
      <g transform="translate(866.636206 646.15084)rotate(-45)scale(0.1 -0.1)">
       <use xlink:href="#DejaVuSans-32"/>
       <use x="63.623047" xlink:href="#DejaVuSans-34"/>
      </g>
     </g>
    </g>
    <g id="xtick_21">
     <g id="text_21">
      <!-- 13 -->
      <g transform="translate(902.348206 646.15084)rotate(-45)scale(0.1 -0.1)">
       <use xlink:href="#DejaVuSans-31"/>
       <use x="63.623047" xlink:href="#DejaVuSans-33"/>
      </g>
     </g>
    </g>
    <g id="xtick_22">
     <g id="text_22">
      <!-- 10 -->
      <g transform="translate(938.060206 646.15084)rotate(-45)scale(0.1 -0.1)">
       <use xlink:href="#DejaVuSans-31"/>
       <use x="63.623047" xlink:href="#DejaVuSans-30"/>
      </g>
     </g>
    </g>
    <g id="xtick_23">
     <g id="text_23">
      <!-- 12 -->
      <g transform="translate(973.772206 646.15084)rotate(-45)scale(0.1 -0.1)">
       <use xlink:href="#DejaVuSans-31"/>
       <use x="63.623047" xlink:href="#DejaVuSans-32"/>
      </g>
     </g>
    </g>
    <g id="xtick_24">
     <g id="text_24">
      <!-- 15 -->
      <g transform="translate(1009.484206 646.15084)rotate(-45)scale(0.1 -0.1)">
       <use xlink:href="#DejaVuSans-31"/>
       <use x="63.623047" xlink:href="#DejaVuSans-35"/>
      </g>
     </g>
    </g>
    <g id="xtick_25">
     <g id="text_25">
      <!-- 9 -->
      <g transform="translate(1047.445689 641.651874)rotate(-45)scale(0.1 -0.1)">
       <use xlink:href="#DejaVuSans-39"/>
      </g>
     </g>
    </g>
    <g id="xtick_26">
     <g id="text_26">
      <!-- 26 -->
      <g transform="translate(1080.908206 646.15084)rotate(-45)scale(0.1 -0.1)">
       <use xlink:href="#DejaVuSans-32"/>
       <use x="63.623047" xlink:href="#DejaVuSans-36"/>
      </g>
     </g>
    </g>
    <g id="xtick_27">
     <g id="text_27">
      <!-- 28 -->
      <g transform="translate(1116.620206 646.15084)rotate(-45)scale(0.1 -0.1)">
       <use xlink:href="#DejaVuSans-32"/>
       <use x="63.623047" xlink:href="#DejaVuSans-38"/>
      </g>
     </g>
    </g>
    <g id="xtick_28">
     <g id="text_28">
      <!-- 1 -->
      <g transform="translate(1154.581689 641.651874)rotate(-45)scale(0.1 -0.1)">
       <use xlink:href="#DejaVuSans-31"/>
      </g>
     </g>
    </g>
    <g id="xtick_29">
     <g id="text_29">
      <!-- 5 -->
      <g transform="translate(1190.293689 641.651874)rotate(-45)scale(0.1 -0.1)">
       <use xlink:href="#DejaVuSans-35"/>
      </g>
     </g>
    </g>
    <g id="xtick_30">
     <g id="text_30">
      <!-- 17 -->
      <g transform="translate(1223.756206 646.15084)rotate(-45)scale(0.1 -0.1)">
       <use xlink:href="#DejaVuSans-31"/>
       <use x="63.623047" xlink:href="#DejaVuSans-37"/>
      </g>
     </g>
    </g>
   </g>
   <g id="matplotlib.axis_2">
    <g id="ytick_1">
     <g id="line2d_1">
      <defs>
       <path d="M 0 0 
L -3.5 0 
" id="m57a28634a0" style="stroke:#000000;stroke-width:0.8;"/>
      </defs>
      <g>
       <use style="stroke:#000000;stroke-width:0.8;" x="172.8" xlink:href="#m57a28634a0" y="624.78"/>
      </g>
     </g>
     <g id="text_31">
      <!-- 0 -->
      <g transform="translate(159.4375 628.579219)scale(0.1 -0.1)">
       <use xlink:href="#DejaVuSans-30"/>
      </g>
     </g>
    </g>
    <g id="ytick_2">
     <g id="line2d_2">
      <g>
       <use style="stroke:#000000;stroke-width:0.8;" x="172.8" xlink:href="#m57a28634a0" y="514.871314"/>
      </g>
     </g>
     <g id="text_32">
      <!-- 500 -->
      <g transform="translate(146.7125 518.670532)scale(0.1 -0.1)">
       <use xlink:href="#DejaVuSans-35"/>
       <use x="63.623047" xlink:href="#DejaVuSans-30"/>
       <use x="127.246094" xlink:href="#DejaVuSans-30"/>
      </g>
     </g>
    </g>
    <g id="ytick_3">
     <g id="line2d_3">
      <g>
       <use style="stroke:#000000;stroke-width:0.8;" x="172.8" xlink:href="#m57a28634a0" y="404.962627"/>
      </g>
     </g>
     <g id="text_33">
      <!-- 1000 -->
      <g transform="translate(140.35 408.761846)scale(0.1 -0.1)">
       <use xlink:href="#DejaVuSans-31"/>
       <use x="63.623047" xlink:href="#DejaVuSans-30"/>
       <use x="127.246094" xlink:href="#DejaVuSans-30"/>
       <use x="190.869141" xlink:href="#DejaVuSans-30"/>
      </g>
     </g>
    </g>
    <g id="ytick_4">
     <g id="line2d_4">
      <g>
       <use style="stroke:#000000;stroke-width:0.8;" x="172.8" xlink:href="#m57a28634a0" y="295.053941"/>
      </g>
     </g>
     <g id="text_34">
      <!-- 1500 -->
      <g transform="translate(140.35 298.85316)scale(0.1 -0.1)">
       <use xlink:href="#DejaVuSans-31"/>
       <use x="63.623047" xlink:href="#DejaVuSans-35"/>
       <use x="127.246094" xlink:href="#DejaVuSans-30"/>
       <use x="190.869141" xlink:href="#DejaVuSans-30"/>
      </g>
     </g>
    </g>
    <g id="ytick_5">
     <g id="line2d_5">
      <g>
       <use style="stroke:#000000;stroke-width:0.8;" x="172.8" xlink:href="#m57a28634a0" y="185.145255"/>
      </g>
     </g>
     <g id="text_35">
      <!-- 2000 -->
      <g transform="translate(140.35 188.944473)scale(0.1 -0.1)">
       <use xlink:href="#DejaVuSans-32"/>
       <use x="63.623047" xlink:href="#DejaVuSans-30"/>
       <use x="127.246094" xlink:href="#DejaVuSans-30"/>
       <use x="190.869141" xlink:href="#DejaVuSans-30"/>
      </g>
     </g>
    </g>
   </g>
   <g id="LineCollection_1">
    <path clip-path="url(#pd97dd4e19c)" d="M 226.368 624.78 
L 226.368 478.138023 
L 262.08 478.138023 
L 262.08 624.78 
" style="fill:none;stroke:#008000;stroke-width:1.5;"/>
   </g>
   <g id="LineCollection_2">
    <path clip-path="url(#pd97dd4e19c)" d="M 369.216 624.78 
L 369.216 279.924884 
L 404.928 279.924884 
L 404.928 624.78 
" style="fill:none;stroke:#ff0000;stroke-width:1.5;"/>
    <path clip-path="url(#pd97dd4e19c)" d="M 333.504 624.78 
L 333.504 274.815572 
L 387.072 274.815572 
L 387.072 279.924884 
" style="fill:none;stroke:#ff0000;stroke-width:1.5;"/>
    <path clip-path="url(#pd97dd4e19c)" d="M 297.792 624.78 
L 297.792 268.860838 
L 360.288 268.860838 
L 360.288 274.815572 
" style="fill:none;stroke:#ff0000;stroke-width:1.5;"/>
   </g>
   <g id="LineCollection_3">
    <path clip-path="url(#pd97dd4e19c)" d="M 512.064 624.78 
L 512.064 418.058002 
L 547.776 418.058002 
L 547.776 624.78 
" style="fill:none;stroke:#00bfbf;stroke-width:1.5;"/>
    <path clip-path="url(#pd97dd4e19c)" d="M 476.352 624.78 
L 476.352 356.40533 
L 529.92 356.40533 
L 529.92 418.058002 
" style="fill:none;stroke:#00bfbf;stroke-width:1.5;"/>
    <path clip-path="url(#pd97dd4e19c)" d="M 690.624 624.78 
L 690.624 539.002191 
L 726.336 539.002191 
L 726.336 624.78 
" style="fill:none;stroke:#00bfbf;stroke-width:1.5;"/>
    <path clip-path="url(#pd97dd4e19c)" d="M 654.912 624.78 
L 654.912 527.638372 
L 708.48 527.638372 
L 708.48 539.002191 
" style="fill:none;stroke:#00bfbf;stroke-width:1.5;"/>
    <path clip-path="url(#pd97dd4e19c)" d="M 833.472 624.78 
L 833.472 543.254526 
L 869.184 543.254526 
L 869.184 624.78 
" style="fill:none;stroke:#00bfbf;stroke-width:1.5;"/>
    <path clip-path="url(#pd97dd4e19c)" d="M 797.76 624.78 
L 797.76 540.295633 
L 851.328 540.295633 
L 851.328 543.254526 
" style="fill:none;stroke:#00bfbf;stroke-width:1.5;"/>
    <path clip-path="url(#pd97dd4e19c)" d="M 976.32 624.78 
L 976.32 575.591661 
L 1012.032 575.591661 
L 1012.032 624.78 
" style="fill:none;stroke:#00bfbf;stroke-width:1.5;"/>
    <path clip-path="url(#pd97dd4e19c)" d="M 940.608 624.78 
L 940.608 569.751319 
L 994.176 569.751319 
L 994.176 575.591661 
" style="fill:none;stroke:#00bfbf;stroke-width:1.5;"/>
    <path clip-path="url(#pd97dd4e19c)" d="M 904.896 624.78 
L 904.896 444.215437 
L 967.392 444.215437 
L 967.392 569.751319 
" style="fill:none;stroke:#00bfbf;stroke-width:1.5;"/>
    <path clip-path="url(#pd97dd4e19c)" d="M 824.544 540.295633 
L 824.544 415.314078 
L 936.144 415.314078 
L 936.144 444.215437 
" style="fill:none;stroke:#00bfbf;stroke-width:1.5;"/>
    <path clip-path="url(#pd97dd4e19c)" d="M 762.048 624.78 
L 762.048 398.851252 
L 880.344 398.851252 
L 880.344 415.314078 
" style="fill:none;stroke:#00bfbf;stroke-width:1.5;"/>
    <path clip-path="url(#pd97dd4e19c)" d="M 681.696 527.638372 
L 681.696 393.1642 
L 821.196 393.1642 
L 821.196 398.851252 
" style="fill:none;stroke:#00bfbf;stroke-width:1.5;"/>
    <path clip-path="url(#pd97dd4e19c)" d="M 619.2 624.78 
L 619.2 343.33487 
L 751.446 343.33487 
L 751.446 393.1642 
" style="fill:none;stroke:#00bfbf;stroke-width:1.5;"/>
    <path clip-path="url(#pd97dd4e19c)" d="M 583.488 624.78 
L 583.488 329.633244 
L 685.323 329.633244 
L 685.323 343.33487 
" style="fill:none;stroke:#00bfbf;stroke-width:1.5;"/>
    <path clip-path="url(#pd97dd4e19c)" d="M 503.136 356.40533 
L 503.136 300.130751 
L 634.4055 300.130751 
L 634.4055 329.633244 
" style="fill:none;stroke:#00bfbf;stroke-width:1.5;"/>
   </g>
   <g id="LineCollection_4">
    <path clip-path="url(#pd97dd4e19c)" d="M 1083.456 624.78 
L 1083.456 478.132046 
L 1119.168 478.132046 
L 1119.168 624.78 
" style="fill:none;stroke:#bf00bf;stroke-width:1.5;"/>
    <path clip-path="url(#pd97dd4e19c)" d="M 1190.592 624.78 
L 1190.592 479.504889 
L 1226.304 479.504889 
L 1226.304 624.78 
" style="fill:none;stroke:#bf00bf;stroke-width:1.5;"/>
    <path clip-path="url(#pd97dd4e19c)" d="M 1154.88 624.78 
L 1154.88 476.150152 
L 1208.448 476.150152 
L 1208.448 479.504889 
" style="fill:none;stroke:#bf00bf;stroke-width:1.5;"/>
    <path clip-path="url(#pd97dd4e19c)" d="M 1101.312 478.132046 
L 1101.312 373.512465 
L 1181.664 373.512465 
L 1181.664 476.150152 
" style="fill:none;stroke:#bf00bf;stroke-width:1.5;"/>
    <path clip-path="url(#pd97dd4e19c)" d="M 1047.744 624.78 
L 1047.744 264.799103 
L 1141.488 264.799103 
L 1141.488 373.512465 
" style="fill:none;stroke:#bf00bf;stroke-width:1.5;"/>
   </g>
   <g id="LineCollection_5">
    <path clip-path="url(#pd97dd4e19c)" d="M 568.77075 300.130751 
L 568.77075 193.816654 
L 1094.616 193.816654 
L 1094.616 264.799103 
" style="fill:none;stroke:#0000ff;stroke-width:1.5;"/>
    <path clip-path="url(#pd97dd4e19c)" d="M 440.64 624.78 
L 440.64 174.669045 
L 831.693375 174.669045 
L 831.693375 193.816654 
" style="fill:none;stroke:#0000ff;stroke-width:1.5;"/>
    <path clip-path="url(#pd97dd4e19c)" d="M 329.04 268.860838 
L 329.04 165.537238 
L 636.166687 165.537238 
L 636.166687 174.669045 
" style="fill:none;stroke:#0000ff;stroke-width:1.5;"/>
    <path clip-path="url(#pd97dd4e19c)" d="M 244.224 478.138023 
L 244.224 150.083501 
L 482.603344 150.083501 
L 482.603344 165.537238 
" style="fill:none;stroke:#0000ff;stroke-width:1.5;"/>
    <path clip-path="url(#pd97dd4e19c)" d="M 190.656 624.78 
L 190.656 109.98 
L 363.413672 109.98 
L 363.413672 150.083501 
" style="fill:none;stroke:#0000ff;stroke-width:1.5;"/>
   </g>
   <g id="patch_3">
    <path d="M 172.8 624.78 
L 172.8 84.24 
" style="fill:none;stroke:#000000;stroke-linecap:square;stroke-linejoin:miter;stroke-width:0.8;"/>
   </g>
   <g id="patch_4">
    <path d="M 1244.16 624.78 
L 1244.16 84.24 
" style="fill:none;stroke:#000000;stroke-linecap:square;stroke-linejoin:miter;stroke-width:0.8;"/>
   </g>
   <g id="patch_5">
    <path d="M 172.8 624.78 
L 1244.16 624.78 
" style="fill:none;stroke:#000000;stroke-linecap:square;stroke-linejoin:miter;stroke-width:0.8;"/>
   </g>
   <g id="patch_6">
    <path d="M 172.8 84.24 
L 1244.16 84.24 
" style="fill:none;stroke:#000000;stroke-linecap:square;stroke-linejoin:miter;stroke-width:0.8;"/>
   </g>
  </g>
 </g>
 <defs>
  <clipPath id="pd97dd4e19c">
   <rect height="540.54" width="1071.36" x="172.8" y="84.24"/>
  </clipPath>
 </defs>
</svg>
