<?xml version="1.0" encoding="utf-8" standalone="no"?>
<!DOCTYPE svg PUBLIC "-//W3C//DTD SVG 1.1//EN"
  "http://www.w3.org/Graphics/SVG/1.1/DTD/svg11.dtd">
<svg height="345.6pt" version="1.1" viewBox="0 0 460.8 345.6" width="460.8pt" xmlns="http://www.w3.org/2000/svg" xmlns:xlink="http://www.w3.org/1999/xlink">
 <metadata>
  <rdf:RDF xmlns:cc="http://creativecommons.org/ns#" xmlns:dc="http://purl.org/dc/elements/1.1/" xmlns:rdf="http://www.w3.org/1999/02/22-rdf-syntax-ns#">
   <cc:Work>
    <dc:type rdf:resource="http://purl.org/dc/dcmitype/StillImage"/>
    <dc:date>2022-06-17T00:02:20.619584</dc:date>
    <dc:format>image/svg+xml</dc:format>
    <dc:creator>
     <cc:Agent>
      <dc:title>Matplotlib v3.4.2, https://matplotlib.org/</dc:title>
     </cc:Agent>
    </dc:creator>
   </cc:Work>
  </rdf:RDF>
 </metadata>
 <defs>
  <style type="text/css">*{stroke-linecap:butt;stroke-linejoin:round;}</style>
 </defs>
 <g id="figure_1">
  <g id="patch_1">
   <path d="M 0 345.6 
L 460.8 345.6 
L 460.8 0 
L 0 0 
z
" style="fill:#ffffff;"/>
  </g>
  <g id="axes_1">
   <g id="patch_2">
    <path d="M 57.6 307.584 
L 414.72 307.584 
L 414.72 41.472 
L 57.6 41.472 
z
" style="fill:#ffffff;"/>
   </g>
   <g id="matplotlib.axis_1">
    <g id="xtick_1">
     <g id="line2d_1">
      <defs>
       <path d="M 0 0 
L 0 3.5 
" id="mcd0bbc5838" style="stroke:#000000;stroke-width:0.8;"/>
      </defs>
      <g>
       <use style="stroke:#000000;stroke-width:0.8;" x="62.355597" xlink:href="#mcd0bbc5838" y="307.584"/>
      </g>
     </g>
     <g id="text_1">
      <!-- 0 -->
      <g transform="translate(59.174347 322.182437)scale(0.1 -0.1)">
       <defs>
        <path d="M 2034 4250 
Q 1547 4250 1301 3770 
Q 1056 3291 1056 2328 
Q 1056 1369 1301 889 
Q 1547 409 2034 409 
Q 2525 409 2770 889 
Q 3016 1369 3016 2328 
Q 3016 3291 2770 3770 
Q 2525 4250 2034 4250 
z
M 2034 4750 
Q 2819 4750 3233 4129 
Q 3647 3509 3647 2328 
Q 3647 1150 3233 529 
Q 2819 -91 2034 -91 
Q 1250 -91 836 529 
Q 422 1150 422 2328 
Q 422 3509 836 4129 
Q 1250 4750 2034 4750 
z
" id="DejaVuSans-30" transform="scale(0.015625)"/>
       </defs>
       <use xlink:href="#DejaVuSans-30"/>
      </g>
     </g>
    </g>
    <g id="xtick_2">
     <g id="line2d_2">
      <g>
       <use style="stroke:#000000;stroke-width:0.8;" x="130.482643" xlink:href="#mcd0bbc5838" y="307.584"/>
      </g>
     </g>
     <g id="text_2">
      <!-- 500 -->
      <g transform="translate(120.938893 322.182437)scale(0.1 -0.1)">
       <defs>
        <path d="M 691 4666 
L 3169 4666 
L 3169 4134 
L 1269 4134 
L 1269 2991 
Q 1406 3038 1543 3061 
Q 1681 3084 1819 3084 
Q 2600 3084 3056 2656 
Q 3513 2228 3513 1497 
Q 3513 744 3044 326 
Q 2575 -91 1722 -91 
Q 1428 -91 1123 -41 
Q 819 9 494 109 
L 494 744 
Q 775 591 1075 516 
Q 1375 441 1709 441 
Q 2250 441 2565 725 
Q 2881 1009 2881 1497 
Q 2881 1984 2565 2268 
Q 2250 2553 1709 2553 
Q 1456 2553 1204 2497 
Q 953 2441 691 2322 
L 691 4666 
z
" id="DejaVuSans-35" transform="scale(0.015625)"/>
       </defs>
       <use xlink:href="#DejaVuSans-35"/>
       <use x="63.623047" xlink:href="#DejaVuSans-30"/>
       <use x="127.246094" xlink:href="#DejaVuSans-30"/>
      </g>
     </g>
    </g>
    <g id="xtick_3">
     <g id="line2d_3">
      <g>
       <use style="stroke:#000000;stroke-width:0.8;" x="198.60969" xlink:href="#mcd0bbc5838" y="307.584"/>
      </g>
     </g>
     <g id="text_3">
      <!-- 1000 -->
      <g transform="translate(185.88469 322.182437)scale(0.1 -0.1)">
       <defs>
        <path d="M 794 531 
L 1825 531 
L 1825 4091 
L 703 3866 
L 703 4441 
L 1819 4666 
L 2450 4666 
L 2450 531 
L 3481 531 
L 3481 0 
L 794 0 
L 794 531 
z
" id="DejaVuSans-31" transform="scale(0.015625)"/>
       </defs>
       <use xlink:href="#DejaVuSans-31"/>
       <use x="63.623047" xlink:href="#DejaVuSans-30"/>
       <use x="127.246094" xlink:href="#DejaVuSans-30"/>
       <use x="190.869141" xlink:href="#DejaVuSans-30"/>
      </g>
     </g>
    </g>
    <g id="xtick_4">
     <g id="line2d_4">
      <g>
       <use style="stroke:#000000;stroke-width:0.8;" x="266.736737" xlink:href="#mcd0bbc5838" y="307.584"/>
      </g>
     </g>
     <g id="text_4">
      <!-- 1500 -->
      <g transform="translate(254.011737 322.182437)scale(0.1 -0.1)">
       <use xlink:href="#DejaVuSans-31"/>
       <use x="63.623047" xlink:href="#DejaVuSans-35"/>
       <use x="127.246094" xlink:href="#DejaVuSans-30"/>
       <use x="190.869141" xlink:href="#DejaVuSans-30"/>
      </g>
     </g>
    </g>
    <g id="xtick_5">
     <g id="line2d_5">
      <g>
       <use style="stroke:#000000;stroke-width:0.8;" x="334.863783" xlink:href="#mcd0bbc5838" y="307.584"/>
      </g>
     </g>
     <g id="text_5">
      <!-- 2000 -->
      <g transform="translate(322.138783 322.182437)scale(0.1 -0.1)">
       <defs>
        <path d="M 1228 531 
L 3431 531 
L 3431 0 
L 469 0 
L 469 531 
Q 828 903 1448 1529 
Q 2069 2156 2228 2338 
Q 2531 2678 2651 2914 
Q 2772 3150 2772 3378 
Q 2772 3750 2511 3984 
Q 2250 4219 1831 4219 
Q 1534 4219 1204 4116 
Q 875 4013 500 3803 
L 500 4441 
Q 881 4594 1212 4672 
Q 1544 4750 1819 4750 
Q 2544 4750 2975 4387 
Q 3406 4025 3406 3419 
Q 3406 3131 3298 2873 
Q 3191 2616 2906 2266 
Q 2828 2175 2409 1742 
Q 1991 1309 1228 531 
z
" id="DejaVuSans-32" transform="scale(0.015625)"/>
       </defs>
       <use xlink:href="#DejaVuSans-32"/>
       <use x="63.623047" xlink:href="#DejaVuSans-30"/>
       <use x="127.246094" xlink:href="#DejaVuSans-30"/>
       <use x="190.869141" xlink:href="#DejaVuSans-30"/>
      </g>
     </g>
    </g>
    <g id="xtick_6">
     <g id="line2d_6">
      <g>
       <use style="stroke:#000000;stroke-width:0.8;" x="402.99083" xlink:href="#mcd0bbc5838" y="307.584"/>
      </g>
     </g>
     <g id="text_6">
      <!-- 2500 -->
      <g transform="translate(390.26583 322.182437)scale(0.1 -0.1)">
       <use xlink:href="#DejaVuSans-32"/>
       <use x="63.623047" xlink:href="#DejaVuSans-35"/>
       <use x="127.246094" xlink:href="#DejaVuSans-30"/>
       <use x="190.869141" xlink:href="#DejaVuSans-30"/>
      </g>
     </g>
    </g>
   </g>
   <g id="matplotlib.axis_2">
    <g id="ytick_1">
     <g id="line2d_7">
      <defs>
       <path d="M 0 0 
L -3.5 0 
" id="m8b55161c6e" style="stroke:#000000;stroke-width:0.8;"/>
      </defs>
      <g>
       <use style="stroke:#000000;stroke-width:0.8;" x="57.6" xlink:href="#m8b55161c6e" y="288.471707"/>
      </g>
     </g>
     <g id="text_7">
      <!-- −2 -->
      <g transform="translate(35.857813 292.270925)scale(0.1 -0.1)">
       <defs>
        <path d="M 678 2272 
L 4684 2272 
L 4684 1741 
L 678 1741 
L 678 2272 
z
" id="DejaVuSans-2212" transform="scale(0.015625)"/>
       </defs>
       <use xlink:href="#DejaVuSans-2212"/>
       <use x="83.789062" xlink:href="#DejaVuSans-32"/>
      </g>
     </g>
    </g>
    <g id="ytick_2">
     <g id="line2d_8">
      <g>
       <use style="stroke:#000000;stroke-width:0.8;" x="57.6" xlink:href="#m8b55161c6e" y="254.764477"/>
      </g>
     </g>
     <g id="text_8">
      <!-- −1 -->
      <g transform="translate(35.857813 258.563696)scale(0.1 -0.1)">
       <use xlink:href="#DejaVuSans-2212"/>
       <use x="83.789062" xlink:href="#DejaVuSans-31"/>
      </g>
     </g>
    </g>
    <g id="ytick_3">
     <g id="line2d_9">
      <g>
       <use style="stroke:#000000;stroke-width:0.8;" x="57.6" xlink:href="#m8b55161c6e" y="221.057248"/>
      </g>
     </g>
     <g id="text_9">
      <!-- 0 -->
      <g transform="translate(44.2375 224.856467)scale(0.1 -0.1)">
       <use xlink:href="#DejaVuSans-30"/>
      </g>
     </g>
    </g>
    <g id="ytick_4">
     <g id="line2d_10">
      <g>
       <use style="stroke:#000000;stroke-width:0.8;" x="57.6" xlink:href="#m8b55161c6e" y="187.350018"/>
      </g>
     </g>
     <g id="text_10">
      <!-- 1 -->
      <g transform="translate(44.2375 191.149237)scale(0.1 -0.1)">
       <use xlink:href="#DejaVuSans-31"/>
      </g>
     </g>
    </g>
    <g id="ytick_5">
     <g id="line2d_11">
      <g>
       <use style="stroke:#000000;stroke-width:0.8;" x="57.6" xlink:href="#m8b55161c6e" y="153.642789"/>
      </g>
     </g>
     <g id="text_11">
      <!-- 2 -->
      <g transform="translate(44.2375 157.442008)scale(0.1 -0.1)">
       <use xlink:href="#DejaVuSans-32"/>
      </g>
     </g>
    </g>
    <g id="ytick_6">
     <g id="line2d_12">
      <g>
       <use style="stroke:#000000;stroke-width:0.8;" x="57.6" xlink:href="#m8b55161c6e" y="119.93556"/>
      </g>
     </g>
     <g id="text_12">
      <!-- 3 -->
      <g transform="translate(44.2375 123.734778)scale(0.1 -0.1)">
       <defs>
        <path d="M 2597 2516 
Q 3050 2419 3304 2112 
Q 3559 1806 3559 1356 
Q 3559 666 3084 287 
Q 2609 -91 1734 -91 
Q 1441 -91 1130 -33 
Q 819 25 488 141 
L 488 750 
Q 750 597 1062 519 
Q 1375 441 1716 441 
Q 2309 441 2620 675 
Q 2931 909 2931 1356 
Q 2931 1769 2642 2001 
Q 2353 2234 1838 2234 
L 1294 2234 
L 1294 2753 
L 1863 2753 
Q 2328 2753 2575 2939 
Q 2822 3125 2822 3475 
Q 2822 3834 2567 4026 
Q 2313 4219 1838 4219 
Q 1578 4219 1281 4162 
Q 984 4106 628 3988 
L 628 4550 
Q 988 4650 1302 4700 
Q 1616 4750 1894 4750 
Q 2613 4750 3031 4423 
Q 3450 4097 3450 3541 
Q 3450 3153 3228 2886 
Q 3006 2619 2597 2516 
z
" id="DejaVuSans-33" transform="scale(0.015625)"/>
       </defs>
       <use xlink:href="#DejaVuSans-33"/>
      </g>
     </g>
    </g>
    <g id="ytick_7">
     <g id="line2d_13">
      <g>
       <use style="stroke:#000000;stroke-width:0.8;" x="57.6" xlink:href="#m8b55161c6e" y="86.22833"/>
      </g>
     </g>
     <g id="text_13">
      <!-- 4 -->
      <g transform="translate(44.2375 90.027549)scale(0.1 -0.1)">
       <defs>
        <path d="M 2419 4116 
L 825 1625 
L 2419 1625 
L 2419 4116 
z
M 2253 4666 
L 3047 4666 
L 3047 1625 
L 3713 1625 
L 3713 1100 
L 3047 1100 
L 3047 0 
L 2419 0 
L 2419 1100 
L 313 1100 
L 313 1709 
L 2253 4666 
z
" id="DejaVuSans-34" transform="scale(0.015625)"/>
       </defs>
       <use xlink:href="#DejaVuSans-34"/>
      </g>
     </g>
    </g>
    <g id="ytick_8">
     <g id="line2d_14">
      <g>
       <use style="stroke:#000000;stroke-width:0.8;" x="57.6" xlink:href="#m8b55161c6e" y="52.521101"/>
      </g>
     </g>
     <g id="text_14">
      <!-- 5 -->
      <g transform="translate(44.2375 56.32032)scale(0.1 -0.1)">
       <use xlink:href="#DejaVuSans-35"/>
      </g>
     </g>
    </g>
   </g>
   <g id="line2d_15">
    <path clip-path="url(#p65ff22610e)" d="M 62.355597 241.614972 
L 62.491851 199.638562 
L 62.764359 74.685525 
L 62.900613 98.602318 
L 63.173121 209.400518 
L 63.309375 205.983833 
L 63.718138 226.972038 
L 63.854392 225.995843 
L 63.990646 225.995843 
L 64.399408 229.412527 
L 64.535662 230.876821 
L 64.671916 230.876821 
L 65.080678 225.019647 
L 65.353187 222.579158 
L 65.489441 222.579158 
L 65.761949 225.019647 
L 65.898203 226.972038 
L 66.034457 226.972038 
L 66.170711 228.436332 
L 66.306965 228.436332 
L 66.851982 222.579158 
L 66.988236 222.579158 
L 67.12449 221.114865 
L 67.396998 226.972038 
L 67.533252 225.995843 
L 68.078269 204.51954 
L 68.350777 193.781388 
L 68.759539 206.960029 
L 69.168301 241.614972 
L 69.440809 246.007852 
L 69.577064 247.472146 
L 69.713318 237.71019 
L 70.12208 91.280852 
L 70.530842 218.674376 
L 70.667096 216.233887 
L 70.939605 236.733994 
L 71.075859 236.733994 
L 71.348367 234.293505 
L 71.484621 235.757799 
L 71.620875 235.757799 
L 71.757129 234.293505 
L 72.029637 228.436332 
L 72.165891 226.972038 
L 72.4384 226.972038 
L 72.574654 228.436332 
L 72.710908 228.436332 
L 73.392178 221.114865 
L 73.664686 223.555354 
L 73.80094 223.555354 
L 74.209703 221.114865 
L 74.482211 225.019647 
L 74.890973 229.412527 
L 75.027227 229.412527 
L 75.299735 221.114865 
L 75.708498 205.983833 
L 76.11726 217.69818 
L 76.389768 247.472146 
L 76.526022 252.353124 
L 76.662276 252.353124 
L 76.798531 250.88883 
L 76.934785 252.353124 
L 77.071039 235.757799 
L 77.479801 79.566504 
L 77.888563 211.841007 
L 78.024817 215.257691 
L 78.297326 229.412527 
L 78.569834 229.412527 
L 78.706088 230.876821 
L 78.842342 230.876821 
L 78.978596 233.31731 
L 79.11485 233.31731 
L 79.251104 231.853016 
L 79.659866 223.555354 
L 79.932375 223.555354 
L 80.068629 225.019647 
L 80.341137 225.019647 
L 80.477391 223.555354 
L 80.613645 223.555354 
L 80.749899 225.019647 
L 81.022407 249.912635 
L 81.158662 247.472146 
L 81.567424 217.69818 
L 81.703678 215.257691 
L 81.976186 250.88883 
L 82.11244 249.912635 
L 82.793711 204.51954 
L 82.929965 201.102855 
L 83.066219 204.51954 
L 83.202473 211.841007 
L 83.338727 211.841007 
L 83.474981 214.281496 
L 83.747489 245.031657 
L 83.883743 248.448341 
L 84.019997 247.472146 
L 84.292506 241.614972 
L 84.42876 216.233887 
L 84.701268 88.840364 
L 84.837522 78.102212 
L 85.11003 215.257691 
L 85.246284 217.69818 
L 85.382538 223.555354 
L 85.655047 241.614972 
L 85.791301 241.614972 
L 85.927555 242.591168 
L 86.063809 241.614972 
L 86.200063 241.614972 
L 86.472571 237.71019 
L 86.608825 235.757799 
L 87.017588 225.019647 
L 87.290096 221.114865 
L 87.835112 225.995843 
L 88.10762 228.436332 
L 88.243874 226.972038 
L 88.380128 226.972038 
L 88.788891 216.233887 
L 89.061399 220.138669 
L 89.333907 223.555354 
L 89.470161 225.019647 
L 89.606415 225.019647 
L 89.742669 223.555354 
L 90.287686 203.543344 
L 90.696448 211.841007 
L 90.832702 217.69818 
L 91.10521 246.007852 
L 91.241464 250.88883 
L 91.377719 250.88883 
L 91.513973 252.353124 
L 91.650227 252.353124 
L 91.786481 226.972038 
L 92.058989 98.602318 
L 92.195243 95.185635 
L 92.467751 222.579158 
L 92.604005 220.138669 
L 92.740259 223.555354 
L 93.012768 236.733994 
L 93.149022 235.757799 
L 93.285276 235.757799 
L 93.42153 234.293505 
L 93.830292 241.614972 
L 93.966546 240.150679 
L 94.511563 225.995843 
L 95.056579 225.995843 
L 95.192833 226.972038 
L 95.465341 226.972038 
L 95.601595 228.436332 
L 95.874104 225.995843 
L 96.146612 221.114865 
L 96.282866 222.579158 
L 96.41912 222.579158 
L 96.555374 223.555354 
L 96.691628 223.555354 
L 96.827882 225.995843 
L 97.10039 220.138669 
L 97.645407 199.638562 
L 97.781661 202.079051 
L 98.190423 218.674376 
L 98.462931 245.031657 
L 98.599185 247.472146 
L 98.871694 247.472146 
L 99.007948 248.448341 
L 99.144202 217.69818 
L 99.41671 87.864166 
L 99.552964 95.185635 
L 99.825472 214.281496 
L 99.961726 215.257691 
L 100.370489 234.293505 
L 100.779251 234.293505 
L 100.915505 233.31731 
L 101.051759 233.31731 
L 101.188013 234.293505 
L 101.324267 233.31731 
L 101.596776 226.972038 
L 101.869284 221.114865 
L 102.005538 221.114865 
L 102.141792 222.579158 
L 102.4143 222.579158 
L 102.959316 225.995843 
L 103.095571 225.995843 
L 103.504333 223.555354 
L 103.640587 225.019647 
L 103.913095 230.876821 
L 104.321857 230.876821 
L 105.003128 205.983833 
L 105.41189 215.257691 
L 105.956906 255.769809 
L 106.093161 255.769809 
L 106.365669 253.329319 
L 106.501923 221.114865 
L 106.774431 93.721339 
L 106.910685 104.459492 
L 107.183193 221.114865 
L 107.319447 220.138669 
L 107.455702 225.019647 
L 107.591956 235.757799 
L 107.72821 237.71019 
L 108.000718 235.757799 
L 108.273226 235.757799 
L 108.40948 236.733994 
L 108.545734 236.733994 
L 108.681988 235.757799 
L 109.227005 222.579158 
L 109.363259 221.114865 
L 109.499513 223.555354 
L 109.635767 223.555354 
L 110.317037 230.876821 
L 110.453292 230.876821 
L 110.862054 226.972038 
L 110.998308 228.436332 
L 111.134562 228.436332 
L 111.40707 231.853016 
L 111.543324 233.31731 
L 111.679578 231.853016 
L 111.952087 225.019647 
L 112.360849 207.936224 
L 112.497103 210.376713 
L 112.905865 225.019647 
L 113.178373 252.353124 
L 113.314628 253.329319 
L 113.450882 250.88883 
L 113.587136 250.88883 
L 113.72339 252.353124 
L 113.859644 216.233887 
L 114.132152 90.304657 
L 114.268406 103.483297 
L 114.540914 220.138669 
L 114.677168 220.138669 
L 114.813423 225.995843 
L 114.949677 239.174483 
L 115.085931 240.150679 
L 115.222185 237.71019 
L 115.630947 237.71019 
L 115.767201 239.174483 
L 115.903455 239.174483 
L 116.175963 233.31731 
L 116.448472 228.436332 
L 116.584726 225.995843 
L 117.40225 225.995843 
L 117.538504 226.972038 
L 117.811013 226.972038 
L 117.947267 225.995843 
L 118.083521 223.555354 
L 118.219775 223.555354 
L 118.764791 228.436332 
L 119.037299 225.995843 
L 119.71857 201.102855 
L 120.127332 212.817202 
L 120.263586 220.138669 
L 120.536094 247.472146 
L 120.672349 249.912635 
L 120.944857 249.912635 
L 121.081111 247.472146 
L 121.217365 210.376713 
L 121.489873 82.98319 
L 121.626127 101.042806 
L 121.898635 214.281496 
L 122.03489 217.69818 
L 122.443652 236.733994 
L 122.71616 233.31731 
L 122.852414 231.853016 
L 123.124922 234.293505 
L 123.261176 233.31731 
L 123.39743 235.757799 
L 123.806193 225.019647 
L 123.942447 225.019647 
L 124.078701 223.555354 
L 124.214955 223.555354 
L 124.351209 225.019647 
L 124.487463 223.555354 
L 124.759971 225.995843 
L 124.896225 225.995843 
L 125.03248 228.436332 
L 125.441242 225.019647 
L 125.71375 225.019647 
L 126.258766 229.412527 
L 126.531275 222.579158 
L 126.940037 207.936224 
L 127.076291 204.51954 
L 127.348799 210.376713 
L 127.485053 214.281496 
L 127.621307 222.579158 
L 127.893816 246.007852 
L 128.166324 244.055461 
L 128.302578 245.031657 
L 128.438832 245.031657 
L 128.575086 204.51954 
L 128.847594 77.126017 
L 128.983848 96.161831 
L 129.256356 205.983833 
L 129.392611 205.983833 
L 129.528865 211.841007 
L 129.801373 226.972038 
L 129.937627 226.972038 
L 130.346389 233.31731 
L 130.618897 233.31731 
L 130.755151 231.853016 
L 131.02766 226.972038 
L 131.163914 225.995843 
L 131.436422 228.436332 
L 131.70893 231.853016 
L 132.390201 231.853016 
L 132.526455 233.31731 
L 132.935217 226.972038 
L 133.071471 226.972038 
L 133.343979 229.412527 
L 133.616487 229.412527 
L 133.752742 226.972038 
L 134.434012 199.638562 
L 134.842774 211.841007 
L 134.979028 220.138669 
L 135.251537 245.031657 
L 135.660299 248.448341 
L 135.796553 246.007852 
L 136.069061 131.792967 
L 136.205315 86.887971 
L 136.341569 102.019004 
L 136.614078 216.233887 
L 136.750332 217.69818 
L 136.886586 223.555354 
L 137.02284 235.757799 
L 137.159094 236.733994 
L 137.295348 236.733994 
L 137.431602 235.757799 
L 137.840364 235.757799 
L 138.112873 231.853016 
L 138.385381 225.019647 
L 138.521635 225.995843 
L 138.794143 225.995843 
L 138.930397 226.972038 
L 139.611668 222.579158 
L 139.884176 222.579158 
L 140.292938 218.674376 
L 140.429192 220.138669 
L 140.7017 225.995843 
L 140.974208 225.995843 
L 141.110463 225.019647 
L 141.791733 202.079051 
L 142.064241 210.376713 
L 142.200495 221.114865 
L 142.473004 269.924644 
L 142.881766 254.793614 
L 143.01802 254.793614 
L 143.154274 264.06747 
L 143.290528 233.31731 
L 143.563036 97.138026 
L 143.69929 110.316666 
L 143.971799 217.69818 
L 144.108053 216.233887 
L 144.516815 239.174483 
L 144.653069 240.150679 
L 144.789323 240.150679 
L 144.925577 241.614972 
L 145.061831 240.150679 
L 145.198085 240.150679 
L 145.470594 230.876821 
L 145.743102 218.674376 
L 146.01561 214.281496 
L 146.151864 216.233887 
L 146.560626 228.436332 
L 146.833135 230.876821 
L 147.241897 225.995843 
L 147.650659 217.69818 
L 148.195675 221.114865 
L 148.33193 221.114865 
L 148.740692 217.69818 
L 148.876946 214.281496 
L 149.0132 207.936224 
L 149.149454 209.400518 
L 149.69447 231.853016 
L 149.966979 252.353124 
L 150.103233 253.329319 
L 150.239487 252.353124 
L 150.375741 253.329319 
L 150.511995 248.448341 
L 150.920757 93.721339 
L 151.057011 126.911992 
L 151.32952 223.555354 
L 151.465774 221.114865 
L 151.874536 235.757799 
L 152.01079 234.293505 
L 152.147044 234.293505 
L 152.283298 231.853016 
L 152.692061 239.174483 
L 152.828315 239.174483 
L 153.237077 229.412527 
L 153.373331 228.436332 
L 153.645839 228.436332 
L 153.918347 225.995843 
L 154.054601 226.972038 
L 154.190856 225.995843 
L 154.32711 226.972038 
L 154.463364 229.412527 
L 155.00838 225.995843 
L 155.144634 225.995843 
L 155.553396 228.436332 
L 155.689651 228.436332 
L 155.825905 225.019647 
L 156.370921 202.079051 
L 156.507175 202.079051 
L 156.779683 207.936224 
L 157.052192 225.019647 
L 157.3247 249.912635 
L 157.460954 250.88883 
L 157.597208 250.88883 
L 157.733462 252.353124 
L 157.869716 245.031657 
L 158.278478 84.447483 
L 158.414732 125.935794 
L 158.550987 205.983833 
L 158.687241 217.69818 
L 158.823495 216.233887 
L 159.096003 231.853016 
L 159.232257 233.31731 
L 159.777273 228.436332 
L 159.913527 229.412527 
L 160.049782 229.412527 
L 160.594798 221.114865 
L 160.731052 220.138669 
L 160.867306 221.114865 
L 161.139814 225.019647 
L 161.412322 226.972038 
L 161.548577 229.412527 
L 161.821085 229.412527 
L 162.366101 220.138669 
L 162.502355 221.114865 
L 162.638609 223.555354 
L 162.911118 231.853016 
L 163.047372 231.853016 
L 163.31988 223.555354 
L 163.864896 203.543344 
L 164.273658 215.257691 
L 164.682421 249.912635 
L 164.818675 249.912635 
L 164.954929 248.448341 
L 165.091183 249.912635 
L 165.227437 244.055461 
L 165.636199 82.98319 
L 165.772453 126.911992 
L 165.908708 206.960029 
L 166.044962 218.674376 
L 166.181216 218.674376 
L 166.453724 234.293505 
L 166.726232 234.293505 
L 166.99874 237.71019 
L 167.407503 241.614972 
L 167.952519 226.972038 
L 168.088773 225.995843 
L 168.361281 225.995843 
L 168.497535 228.436332 
L 168.906298 228.436332 
L 169.178806 225.019647 
L 169.31506 223.555354 
L 169.451314 223.555354 
L 169.587568 222.579158 
L 169.723822 222.579158 
L 170.268839 225.995843 
L 170.541347 225.995843 
L 171.086363 204.51954 
L 171.222617 204.51954 
L 171.767634 225.019647 
L 172.040142 248.448341 
L 172.176396 249.912635 
L 172.31265 248.448341 
L 172.448904 248.448341 
L 172.585158 240.150679 
L 172.99392 77.126017 
L 173.402683 216.233887 
L 173.538937 216.233887 
L 173.811445 234.293505 
L 173.947699 234.293505 
L 174.083953 233.31731 
L 174.492715 233.31731 
L 174.62897 235.757799 
L 174.765224 235.757799 
L 175.446494 223.555354 
L 175.719002 223.555354 
L 175.855256 225.019647 
L 175.99151 225.019647 
L 176.127765 225.995843 
L 176.536527 231.853016 
L 176.672781 230.876821 
L 177.217797 215.257691 
L 177.354051 215.257691 
L 177.490306 216.233887 
L 177.62656 216.233887 
L 177.762814 218.674376 
L 177.899068 217.69818 
L 178.580338 197.198073 
L 178.989101 211.841007 
L 179.397863 244.055461 
L 179.534117 246.007852 
L 179.670371 246.007852 
L 179.806625 248.448341 
L 179.942879 237.71019 
L 180.351641 82.006992 
L 180.760404 218.674376 
L 180.896658 217.69818 
L 181.169166 237.71019 
L 181.30542 240.150679 
L 181.577928 240.150679 
L 181.850436 236.733994 
L 181.986691 237.71019 
L 182.122945 236.733994 
L 182.259199 234.293505 
L 182.667961 222.579158 
L 182.804215 222.579158 
L 183.212977 228.436332 
L 183.757994 228.436332 
L 184.030502 225.995843 
L 184.166756 225.995843 
L 184.439264 222.579158 
L 184.575518 223.555354 
L 184.984281 234.293505 
L 185.256789 234.293505 
L 185.393043 231.853016 
L 185.529297 231.853016 
L 185.801805 225.019647 
L 185.938059 225.995843 
L 186.074313 228.436332 
L 186.210567 228.436332 
L 186.346822 230.876821 
L 186.755584 260.650787 
L 186.891838 261.626983 
L 187.028092 259.186491 
L 187.164346 259.186491 
L 187.3006 240.150679 
L 187.709363 78.102212 
L 187.981871 207.936224 
L 188.526887 226.972038 
L 188.799395 225.019647 
L 188.935649 221.114865 
L 189.61692 221.114865 
L 189.753174 220.138669 
L 190.025682 211.841007 
L 190.161936 212.817202 
L 190.706953 228.436332 
L 190.843207 229.412527 
L 190.979461 229.412527 
L 191.660731 217.69818 
L 191.796985 217.69818 
L 192.205748 225.995843 
L 192.342002 225.995843 
L 192.478256 229.412527 
L 192.61451 229.412527 
L 193.159526 215.257691 
L 193.29578 216.233887 
L 193.840797 237.71019 
L 194.113305 255.769809 
L 194.249559 256.746004 
L 194.385813 256.746004 
L 194.522067 255.769809 
L 194.658321 236.733994 
L 194.930829 114.221449 
L 195.067084 93.721339 
L 195.339592 220.138669 
L 195.475846 221.114865 
L 195.6121 225.019647 
L 195.884608 244.055461 
L 196.157116 241.614972 
L 196.429624 241.614972 
L 196.565879 240.150679 
L 196.702133 240.150679 
L 197.383403 223.555354 
L 197.519657 223.555354 
L 197.655911 225.019647 
L 198.064674 220.138669 
L 198.200928 221.114865 
L 198.60969 226.972038 
L 198.745944 225.995843 
L 198.882198 225.995843 
L 199.018452 225.019647 
L 199.154706 225.995843 
L 199.563469 236.733994 
L 199.699723 236.733994 
L 199.835977 235.757799 
L 200.244739 222.579158 
L 200.653501 201.102855 
L 200.789755 199.638562 
L 200.92601 199.638562 
L 201.062264 205.983833 
L 201.334772 230.876821 
L 201.471026 233.31731 
L 201.879788 221.114865 
L 202.016042 210.376713 
L 202.288551 117.638132 
L 202.424805 109.340471 
L 202.697313 249.912635 
L 202.969821 249.912635 
L 203.106075 258.210296 
L 203.242329 259.186491 
L 203.378583 258.210296 
L 203.514837 259.186491 
L 203.787346 287.984263 
L 204.196108 255.769809 
L 204.332362 250.88883 
L 204.468616 254.793614 
L 204.60487 268.948449 
L 204.741124 271.388937 
L 205.149886 246.007852 
L 205.286141 245.031657 
L 205.422395 242.591168 
L 205.694903 245.031657 
L 205.967411 245.031657 
L 206.376173 237.71019 
L 206.512427 237.71019 
L 206.92119 225.019647 
L 207.874968 197.198073 
L 208.283731 214.281496 
L 208.692493 253.329319 
L 208.828747 255.769809 
L 209.101255 255.769809 
L 209.237509 258.210296 
L 209.373763 235.757799 
L 209.646272 104.459492 
L 209.782526 93.721339 
L 210.055034 216.233887 
L 210.191288 214.281496 
L 210.327542 215.257691 
L 210.60005 226.972038 
L 211.008812 231.853016 
L 211.281321 245.031657 
L 211.553829 261.626983 
L 211.690083 265.531763 
L 211.826337 263.091275 
L 212.235099 239.174483 
L 212.371353 240.150679 
L 212.780116 240.150679 
L 213.188878 231.853016 
L 213.59764 215.257691 
L 213.870148 212.817202 
L 214.142657 216.233887 
L 214.415165 221.114865 
L 214.551419 220.138669 
L 215.232689 180.602748 
L 215.368943 183.043236 
L 215.777706 201.102855 
L 216.050214 228.436332 
L 216.186468 230.876821 
L 216.458976 230.876821 
L 216.59523 231.853016 
L 216.731484 204.51954 
L 217.003993 74.685525 
L 217.140247 69.80455 
L 217.412755 197.198073 
L 217.549009 197.198073 
L 217.685263 201.102855 
L 217.957771 218.674376 
L 218.639042 225.019647 
L 218.775296 225.995843 
L 218.91155 225.995843 
L 219.047804 225.019647 
L 219.320312 220.138669 
L 219.59282 216.233887 
L 219.729074 216.233887 
L 220.001583 221.114865 
L 220.137837 221.114865 
L 220.410345 225.019647 
L 220.682853 225.019647 
L 220.955361 222.579158 
L 221.500378 226.972038 
L 221.636632 228.436332 
L 221.90914 228.436332 
L 222.045394 225.995843 
L 222.454156 206.960029 
L 222.59041 203.543344 
L 222.862919 210.376713 
L 223.135427 220.138669 
L 223.407935 248.448341 
L 223.680443 253.329319 
L 223.952951 253.329319 
L 224.089205 226.972038 
L 224.361714 93.721339 
L 224.497968 85.423678 
L 224.770476 217.69818 
L 224.90673 214.281496 
L 225.042984 217.69818 
L 225.315492 233.31731 
L 225.860509 233.31731 
L 225.996763 234.293505 
L 226.133017 233.31731 
L 226.541779 222.579158 
L 226.678033 221.114865 
L 227.22305 229.412527 
L 227.495558 233.31731 
L 227.631812 235.757799 
L 227.90432 235.757799 
L 228.449336 222.579158 
L 228.585591 223.555354 
L 228.858099 228.436332 
L 228.994353 228.436332 
L 229.130607 230.876821 
L 229.266861 230.876821 
L 229.811877 212.817202 
L 229.948131 207.936224 
L 230.356894 217.69818 
L 230.493148 220.138669 
L 230.90191 248.448341 
L 231.174418 252.353124 
L 231.310672 258.210296 
L 231.446926 237.71019 
L 231.719435 95.185635 
L 231.855689 77.126017 
L 232.128197 211.841007 
L 232.264451 214.281496 
L 232.673213 231.853016 
L 232.809467 231.853016 
L 233.21823 235.757799 
L 233.490738 231.853016 
L 234.172008 215.257691 
L 234.308262 215.257691 
L 234.717025 209.400518 
L 234.853279 209.400518 
L 235.262041 220.138669 
L 235.807057 223.555354 
L 236.624582 250.88883 
L 236.89709 241.614972 
L 237.442107 216.233887 
L 237.578361 217.69818 
L 237.714615 217.69818 
L 237.850869 222.579158 
L 238.259631 252.353124 
L 238.532139 249.912635 
L 238.668393 252.353124 
L 238.804648 234.293505 
L 239.21341 82.98319 
L 239.485918 215.257691 
L 239.622172 216.233887 
L 239.758426 221.114865 
L 240.030934 240.150679 
L 240.167188 240.150679 
L 240.575951 237.71019 
L 240.712205 237.71019 
L 240.848459 236.733994 
L 241.120967 233.31731 
L 241.257221 233.31731 
L 241.665983 241.614972 
L 241.938492 235.757799 
L 242.483508 211.841007 
L 242.619762 210.376713 
L 243.164779 229.412527 
L 243.301033 229.412527 
L 243.437287 230.876821 
L 243.846049 239.174483 
L 243.982303 239.174483 
L 244.118557 231.853016 
L 244.663574 178.16226 
L 245.072336 218.674376 
L 245.20859 225.019647 
L 245.481098 250.88883 
L 245.617352 252.353124 
L 245.753606 250.88883 
L 245.88986 247.472146 
L 246.026114 248.448341 
L 246.162369 233.31731 
L 246.571131 82.98319 
L 246.843639 211.841007 
L 247.252401 201.102855 
L 247.388655 202.079051 
L 247.524909 205.983833 
L 247.797418 205.983833 
L 248.20618 209.400518 
L 248.751196 204.51954 
L 248.88745 203.543344 
L 249.023705 203.543344 
L 249.159959 204.51954 
L 249.296213 207.936224 
L 249.432467 207.936224 
L 249.568721 209.400518 
L 249.704975 206.960029 
L 249.841229 207.936224 
L 250.113737 214.281496 
L 250.249991 215.257691 
L 250.5225 207.936224 
L 250.795008 207.936224 
L 251.067516 210.376713 
L 251.20377 207.936224 
L 251.748786 188.90041 
L 252.021295 193.781388 
L 252.157549 204.51954 
L 252.293803 226.972038 
L 252.430057 228.436332 
L 252.566311 225.995843 
L 252.975073 271.388937 
L 253.111327 275.781818 
L 253.247581 273.829428 
L 253.383836 274.805623 
L 253.52009 271.388937 
L 253.928852 131.792967 
L 254.20136 274.805623 
L 254.337614 274.805623 
L 254.473868 273.829428 
L 254.882631 295.305729 
L 255.018885 296.281924 
L 255.155139 295.305729 
L 255.563901 285.543775 
L 255.972663 277.24611 
L 256.245171 265.531763 
L 256.381426 265.531763 
L 256.51768 266.507961 
L 256.653934 268.948449 
L 256.926442 287.984263 
L 257.062696 286.51997 
L 257.471458 274.805623 
L 257.880221 247.472146 
L 258.152729 236.733994 
L 258.425237 231.853016 
L 258.697745 225.995843 
L 258.833999 225.995843 
L 259.242762 215.257691 
L 259.379016 209.400518 
L 259.51527 209.400518 
L 259.924032 217.69818 
L 260.332794 253.329319 
L 260.469048 253.329319 
L 260.605302 250.88883 
L 260.741557 250.88883 
L 260.877811 230.876821 
L 261.286573 72.245038 
L 261.559081 196.221877 
L 261.695335 198.662366 
L 261.831589 203.543344 
L 261.967843 221.114865 
L 262.104097 223.555354 
L 262.240352 223.555354 
L 262.649114 239.174483 
L 262.785368 239.174483 
L 263.057876 220.138669 
L 263.19413 209.400518 
L 263.330384 210.376713 
L 263.739147 250.88883 
L 264.147909 264.06747 
L 264.284163 263.091275 
L 264.556671 249.912635 
L 264.829179 245.031657 
L 265.101688 280.662797 
L 265.237942 277.24611 
L 265.374196 267.484156 
L 265.51045 267.484156 
L 265.646704 268.948449 
L 265.782958 278.222305 
L 265.919212 295.305729 
L 266.055466 286.51997 
L 266.736737 202.079051 
L 266.872991 203.543344 
L 267.145499 215.257691 
L 267.281753 218.674376 
L 267.418007 226.972038 
L 267.690515 252.353124 
L 267.963024 255.769809 
L 268.099278 254.793614 
L 268.235532 231.853016 
L 268.644294 76.149821 
L 269.053056 226.972038 
L 269.461819 266.507961 
L 269.870581 253.329319 
L 270.006835 252.353124 
L 270.143089 254.793614 
L 270.415597 264.06747 
L 270.551851 261.626983 
L 271.096868 239.174483 
L 271.369376 235.757799 
L 271.50563 231.853016 
L 271.778138 256.746004 
L 272.050646 242.591168 
L 272.1869 234.293505 
L 272.323154 233.31731 
L 272.459409 235.757799 
L 272.595663 229.412527 
L 273.004425 199.638562 
L 273.140679 199.638562 
L 273.276933 202.079051 
L 273.685695 220.138669 
L 273.82195 230.876821 
L 273.958204 231.853016 
L 274.50322 195.245682 
L 274.639474 192.805193 
L 274.775728 201.102855 
L 275.048236 222.579158 
L 275.320745 220.138669 
L 275.456999 222.579158 
L 275.593253 211.841007 
L 276.002015 68.828352 
L 276.410777 211.841007 
L 276.547031 212.817202 
L 276.81954 235.757799 
L 277.092048 235.757799 
L 277.364556 231.853016 
L 277.50081 231.853016 
L 277.773318 239.174483 
L 277.909572 240.150679 
L 278.863351 212.817202 
L 279.272113 217.69818 
L 279.544621 223.555354 
L 279.680876 225.019647 
L 279.953384 218.674376 
L 280.089638 218.674376 
L 280.225892 221.114865 
L 280.634654 233.31731 
L 280.770908 233.31731 
L 280.907162 231.853016 
L 281.315925 221.114865 
L 281.452179 221.114865 
L 281.860941 242.591168 
L 281.997195 242.591168 
L 282.133449 245.031657 
L 282.542211 258.210296 
L 282.678466 255.769809 
L 282.81472 255.769809 
L 282.950974 236.733994 
L 283.359736 54.673516 
L 283.768498 204.51954 
L 284.313515 235.757799 
L 284.586023 228.436332 
L 285.403547 218.674376 
L 285.81231 207.936224 
L 285.948564 209.400518 
L 286.084818 209.400518 
L 286.357326 212.817202 
L 286.629834 212.817202 
L 286.902342 215.257691 
L 287.038597 215.257691 
L 287.311105 220.138669 
L 287.447359 221.114865 
L 287.856121 226.972038 
L 288.264883 230.876821 
L 288.537392 222.579158 
L 288.946154 202.079051 
L 289.218662 214.281496 
L 289.354916 223.555354 
L 289.763678 263.091275 
L 289.899933 263.091275 
L 290.036187 260.650787 
L 290.172441 263.091275 
L 290.308695 255.769809 
L 290.717457 98.602318 
L 291.126219 228.436332 
L 291.262473 233.31731 
L 291.534982 255.769809 
L 291.671236 258.210296 
L 291.80749 256.746004 
L 292.079998 247.472146 
L 292.216252 246.007852 
L 292.352506 246.007852 
L 292.625014 242.591168 
L 293.170031 223.555354 
L 293.306285 222.579158 
L 293.442539 222.579158 
L 293.715047 229.412527 
L 294.123809 240.150679 
L 294.260064 241.614972 
L 294.396318 239.174483 
L 294.668826 229.412527 
L 294.80508 229.412527 
L 294.941334 230.876821 
L 295.213842 240.150679 
L 295.350096 239.174483 
L 295.622604 217.69818 
L 295.758859 218.674376 
L 295.895113 222.579158 
L 296.031367 218.674376 
L 296.167621 207.936224 
L 296.440129 210.376713 
L 296.712637 204.51954 
L 296.848891 211.841007 
L 297.121399 233.31731 
L 297.257654 231.853016 
L 297.393908 228.436332 
L 297.530162 228.436332 
L 297.666416 218.674376 
L 298.075178 80.542699 
L 298.48394 228.436332 
L 298.620195 240.150679 
L 298.892703 275.781818 
L 299.301465 240.150679 
L 299.573973 233.31731 
L 299.710227 228.436332 
L 300.255244 143.995413 
L 300.391498 159.126446 
L 300.80026 235.757799 
L 301.209022 261.626983 
L 301.345276 261.626983 
L 301.48153 259.186491 
L 301.890293 259.186491 
L 302.162801 253.329319 
L 302.844071 225.995843 
L 303.252834 193.781388 
L 303.389088 193.781388 
L 303.525342 196.221877 
L 303.934104 245.031657 
L 304.070358 248.448341 
L 304.479121 268.948449 
L 304.887883 254.793614 
L 305.024137 252.353124 
L 305.432899 125.935794 
L 305.705407 235.757799 
L 305.841661 234.293505 
L 305.977916 228.436332 
L 306.11417 229.412527 
L 306.250424 231.853016 
L 306.386678 228.436332 
L 306.79544 211.841007 
L 306.931694 214.281496 
L 307.340456 240.150679 
L 307.476711 240.150679 
L 307.612965 239.174483 
L 307.749219 236.733994 
L 307.885473 236.733994 
L 308.294235 247.472146 
L 308.430489 247.472146 
L 309.11176 230.876821 
L 309.384268 220.138669 
L 309.520522 220.138669 
L 309.79303 233.31731 
L 310.201792 252.353124 
L 310.338047 247.472146 
L 310.610555 231.853016 
L 310.746809 228.436332 
L 311.019317 218.674376 
L 311.155571 221.114865 
L 311.428079 221.114865 
L 311.836842 241.614972 
L 311.973096 241.614972 
L 312.10935 244.055461 
L 312.245604 240.150679 
L 312.381858 226.972038 
L 312.79062 48.328245 
L 313.199382 193.781388 
L 313.335637 192.805193 
L 313.744399 223.555354 
L 313.880653 225.019647 
L 314.289415 220.138669 
L 314.425669 226.972038 
L 314.834432 282.127089 
L 314.970686 288.960458 
L 315.243194 288.960458 
L 315.515702 301.162903 
L 315.651956 285.543775 
L 315.924464 250.88883 
L 316.060718 249.912635 
L 316.333227 229.412527 
L 316.605735 215.257691 
L 316.741989 212.817202 
L 316.878243 212.817202 
L 317.014497 216.233887 
L 317.150751 216.233887 
L 317.287005 217.69818 
L 317.423259 216.233887 
L 317.559513 216.233887 
L 317.832022 205.983833 
L 318.10453 188.90041 
L 318.240784 177.186062 
L 318.377038 177.186062 
L 318.649546 188.90041 
L 318.7858 193.781388 
L 319.194563 225.995843 
L 319.330817 225.019647 
L 319.467071 226.972038 
L 319.603325 233.31731 
L 319.739579 228.436332 
L 320.148341 79.566504 
L 320.284595 120.07862 
L 320.557104 215.257691 
L 320.693358 215.257691 
L 320.965866 230.876821 
L 321.238374 230.876821 
L 321.374628 229.412527 
L 321.78339 233.31731 
L 322.055899 229.412527 
L 322.192153 226.972038 
L 322.464661 226.972038 
L 322.600915 228.436332 
L 323.009677 228.436332 
L 323.418439 222.579158 
L 323.554694 221.114865 
L 323.690948 221.114865 
L 323.827202 222.579158 
L 323.963456 222.579158 
L 324.09971 223.555354 
L 324.372218 228.436332 
L 324.508472 229.412527 
L 324.644726 229.412527 
L 324.78098 230.876821 
L 324.917235 230.876821 
L 325.053489 228.436332 
L 325.598505 204.51954 
L 325.734759 204.51954 
L 326.007267 210.376713 
L 326.143521 217.69818 
L 326.41603 274.805623 
L 326.552284 273.829428 
L 326.824792 247.472146 
L 326.961046 247.472146 
L 327.0973 244.055461 
L 327.233554 206.960029 
L 327.506062 98.602318 
L 327.642316 126.911992 
L 327.77857 204.51954 
L 327.914825 212.817202 
L 328.051079 211.841007 
L 328.459841 239.174483 
L 328.732349 249.912635 
L 328.868603 249.912635 
L 329.141111 246.007852 
L 329.41362 231.853016 
L 329.822382 209.400518 
L 329.958636 206.960029 
L 330.231144 218.674376 
L 330.503652 234.293505 
L 330.776161 240.150679 
L 331.048669 233.31731 
L 331.321177 228.436332 
L 331.729939 235.757799 
L 331.866193 235.757799 
L 332.138701 229.412527 
L 332.41121 221.114865 
L 332.547464 220.138669 
L 332.683718 217.69818 
L 333.09248 198.662366 
L 333.364988 203.543344 
L 333.501242 209.400518 
L 333.910005 237.71019 
L 334.046259 236.733994 
L 334.182513 239.174483 
L 334.318767 249.912635 
L 334.455021 237.71019 
L 334.863783 78.102212 
L 335.272546 221.114865 
L 335.4088 223.555354 
L 335.545054 230.876821 
L 335.817562 222.579158 
L 336.09007 225.995843 
L 336.226324 225.995843 
L 336.362578 222.579158 
L 336.907595 222.579158 
L 337.043849 221.114865 
L 337.180103 217.69818 
L 337.316357 217.69818 
L 337.725119 225.995843 
L 338.133882 225.995843 
L 338.40639 228.436332 
L 338.815152 225.019647 
L 338.951406 225.995843 
L 339.632677 225.995843 
L 339.768931 223.555354 
L 340.313947 202.079051 
L 340.450201 203.543344 
L 340.858963 221.114865 
L 341.131472 248.448341 
L 341.267726 254.793614 
L 341.40398 254.793614 
L 341.540234 252.353124 
L 341.676488 254.793614 
L 341.812742 242.591168 
L 342.221504 88.840364 
L 342.630267 218.674376 
L 342.766521 221.114865 
L 343.039029 237.71019 
L 343.175283 239.174483 
L 343.311537 237.71019 
L 343.447791 237.71019 
L 343.584045 236.733994 
L 343.856554 240.150679 
L 343.992808 240.150679 
L 344.946586 225.019647 
L 345.08284 223.555354 
L 345.355349 226.972038 
L 345.764111 222.579158 
L 346.172873 222.579158 
L 346.717889 230.876821 
L 346.854144 231.853016 
L 346.990398 230.876821 
L 347.126652 228.436332 
L 347.671668 205.983833 
L 347.807922 206.960029 
L 348.216684 221.114865 
L 348.489193 248.448341 
L 348.625447 249.912635 
L 348.761701 248.448341 
L 348.897955 248.448341 
L 349.034209 250.88883 
L 349.170463 235.757799 
L 349.579225 82.98319 
L 349.851734 211.841007 
L 349.987988 212.817202 
L 350.124242 217.69818 
L 350.39675 230.876821 
L 350.669258 228.436332 
L 350.805512 229.412527 
L 351.07802 229.412527 
L 351.350529 225.019647 
L 351.486783 225.019647 
L 351.623037 223.555354 
L 352.031799 215.257691 
L 352.440561 218.674376 
L 352.71307 222.579158 
L 352.985578 230.876821 
L 353.121832 231.853016 
L 353.258086 230.876821 
L 353.39434 228.436332 
L 353.666848 228.436332 
L 353.803102 226.972038 
L 353.939356 226.972038 
L 354.211865 230.876821 
L 354.348119 231.853016 
L 354.484373 230.876821 
L 354.756881 218.674376 
L 355.029389 205.983833 
L 355.165643 206.960029 
L 355.574406 218.674376 
L 355.846914 247.472146 
L 355.983168 250.88883 
L 356.119422 250.88883 
L 356.39193 253.329319 
L 356.528184 229.412527 
L 356.800692 93.721339 
L 356.936946 72.245038 
L 357.209455 199.638562 
L 357.345709 202.079051 
L 357.481963 209.400518 
L 357.754471 237.71019 
L 358.026979 241.614972 
L 358.435741 241.614972 
L 358.70825 239.174483 
L 359.253266 226.972038 
L 359.662028 230.876821 
L 359.934537 230.876821 
L 360.343299 226.972038 
L 360.615807 222.579158 
L 360.888315 220.138669 
L 361.024569 221.114865 
L 361.297077 225.019647 
L 361.70584 225.019647 
L 362.38711 204.51954 
L 362.523364 207.936224 
L 363.068381 242.591168 
L 363.340889 261.626983 
L 363.749651 265.531763 
L 363.885905 240.150679 
L 364.158413 109.340471 
L 364.294668 103.483297 
L 364.567176 233.31731 
L 364.70343 229.412527 
L 364.839684 233.31731 
L 365.112192 245.031657 
L 365.248446 244.055461 
L 365.3847 244.055461 
L 365.657208 239.174483 
L 365.929717 235.757799 
L 366.474733 229.412527 
L 366.747241 223.555354 
L 366.883495 221.114865 
L 367.019749 221.114865 
L 367.292258 218.674376 
L 367.428512 220.138669 
L 367.564766 218.674376 
L 367.70102 220.138669 
L 367.973528 220.138669 
L 368.246036 216.233887 
L 368.518544 218.674376 
L 368.927307 228.436332 
L 369.063561 226.972038 
L 369.472323 215.257691 
L 369.744831 206.960029 
L 370.153594 218.674376 
L 370.289848 225.995843 
L 370.562356 250.88883 
L 370.69861 254.793614 
L 371.107372 254.793614 
L 371.243626 228.436332 
L 371.516134 101.042806 
L 371.652389 103.483297 
L 371.924897 225.019647 
L 372.061151 221.114865 
L 372.469913 242.591168 
L 372.742421 240.150679 
L 372.878675 237.71019 
L 373.151184 240.150679 
L 373.287438 239.174483 
L 373.423692 236.733994 
L 373.6962 229.412527 
L 373.832454 229.412527 
L 373.968708 228.436332 
L 374.241216 225.019647 
L 374.37747 225.019647 
L 374.513725 226.972038 
L 374.649979 226.972038 
L 374.786233 225.019647 
L 375.331249 201.102855 
L 375.467503 199.638562 
L 375.603757 202.079051 
L 376.01252 226.972038 
L 376.557536 233.31731 
L 377.102552 212.817202 
L 377.511315 225.019647 
L 377.647569 231.853016 
L 378.056331 264.06747 
L 378.328839 261.626983 
L 378.465093 259.186491 
L 378.601347 225.019647 
L 378.873855 111.780958 
L 379.01011 114.221449 
L 379.282618 214.281496 
L 379.418872 212.817202 
L 379.555126 217.69818 
L 379.827634 230.876821 
L 380.100142 233.31731 
L 380.372651 229.412527 
L 380.781413 239.174483 
L 380.917667 239.174483 
L 381.190175 233.31731 
L 381.326429 233.31731 
L 381.598937 239.174483 
L 382.0077 234.293505 
L 382.416462 225.995843 
L 382.825224 218.674376 
L 382.961478 218.674376 
L 383.233986 223.555354 
L 383.506495 223.555354 
L 383.779003 221.114865 
L 384.051511 212.817202 
L 384.460273 199.638562 
L 384.869036 215.257691 
L 385.414052 256.746004 
L 385.68656 260.650787 
L 385.822814 263.091275 
L 385.959068 230.876821 
L 386.231577 115.197644 
L 386.367831 116.661937 
L 386.640339 233.31731 
L 386.776593 234.293505 
L 387.049101 250.88883 
L 387.321609 245.031657 
L 387.457863 245.031657 
L 387.594117 246.007852 
L 387.866626 266.507961 
L 388.139134 236.733994 
L 388.411642 225.019647 
L 388.68415 239.174483 
L 388.820404 239.174483 
L 388.956658 233.31731 
L 389.229167 212.817202 
L 389.365421 206.960029 
L 389.501675 206.960029 
L 389.637929 207.936224 
L 389.774183 207.936224 
L 390.046691 210.376713 
L 390.182945 210.376713 
L 390.727962 225.019647 
L 390.864216 225.019647 
L 391.00047 222.579158 
L 391.68174 198.662366 
L 391.817994 198.662366 
L 392.771773 252.353124 
L 393.180535 252.353124 
L 393.316789 220.138669 
L 393.589298 99.578513 
L 393.725552 110.316666 
L 393.99806 229.412527 
L 394.134314 225.019647 
L 394.270568 226.972038 
L 394.543076 240.150679 
L 394.951839 234.293505 
L 395.496855 234.293505 
L 395.633109 233.31731 
L 396.041871 223.555354 
L 396.314379 226.972038 
L 397.131904 226.972038 
L 397.268158 225.995843 
L 397.540666 222.579158 
L 397.67692 222.579158 
L 397.813174 223.555354 
L 397.949429 223.555354 
L 398.221937 226.972038 
L 398.358191 225.995843 
L 398.903207 210.376713 
L 399.175715 201.102855 
L 399.720732 223.555354 
L 399.99324 252.353124 
L 400.129494 254.793614 
L 400.265748 253.329319 
L 400.402002 253.329319 
L 400.538256 250.88883 
L 400.67451 217.69818 
L 400.947019 95.185635 
L 401.083273 105.923785 
L 401.355781 220.138669 
L 401.492035 220.138669 
L 401.628289 225.995843 
L 401.764543 236.733994 
L 401.900797 237.71019 
L 402.037051 236.733994 
L 402.173305 236.733994 
L 402.30956 237.71019 
L 402.445814 236.733994 
L 402.582068 236.733994 
L 402.99083 233.31731 
L 403.127084 231.853016 
L 403.399592 225.995843 
L 404.080863 225.995843 
L 404.217117 223.555354 
L 404.353371 223.555354 
L 404.489625 225.995843 
L 404.625879 225.995843 
L 404.762133 223.555354 
L 404.898387 223.555354 
L 405.170896 221.114865 
L 405.30715 223.555354 
L 405.579658 230.876821 
L 405.715912 231.853016 
L 405.852166 230.876821 
L 405.98842 228.436332 
L 406.533436 206.960029 
L 407.078453 228.436332 
L 407.350961 254.793614 
L 407.487215 258.210296 
L 407.623469 256.746004 
L 407.895977 259.186491 
L 408.032231 229.412527 
L 408.30474 96.161831 
L 408.440994 97.138026 
L 408.713502 222.579158 
L 408.849756 221.114865 
L 408.98601 225.019647 
L 409.258518 240.150679 
L 409.667281 234.293505 
L 409.803535 234.293505 
L 409.939789 235.757799 
L 410.076043 235.757799 
L 410.348551 231.853016 
L 410.621059 225.995843 
L 410.757313 225.019647 
L 411.029822 226.972038 
L 411.166076 226.972038 
L 411.438584 225.019647 
L 411.711092 225.019647 
L 411.9836 221.114865 
L 412.392362 221.114865 
L 412.801125 228.436332 
L 413.346141 222.579158 
L 413.891157 204.51954 
L 414.027412 205.983833 
L 414.163666 207.936224 
L 414.436174 218.674376 
L 414.708682 247.472146 
L 414.844936 250.88883 
L 414.844936 250.88883 
" style="fill:none;stroke:#1f77b4;stroke-linecap:square;stroke-width:1.5;"/>
   </g>
   <g id="patch_3">
    <path d="M 57.6 307.584 
L 57.6 41.472 
" style="fill:none;stroke:#000000;stroke-linecap:square;stroke-linejoin:miter;stroke-width:0.8;"/>
   </g>
   <g id="patch_4">
    <path d="M 414.72 307.584 
L 414.72 41.472 
" style="fill:none;stroke:#000000;stroke-linecap:square;stroke-linejoin:miter;stroke-width:0.8;"/>
   </g>
   <g id="patch_5">
    <path d="M 57.6 307.584 
L 414.72 307.584 
" style="fill:none;stroke:#000000;stroke-linecap:square;stroke-linejoin:miter;stroke-width:0.8;"/>
   </g>
   <g id="patch_6">
    <path d="M 57.6 41.472 
L 414.72 41.472 
" style="fill:none;stroke:#000000;stroke-linecap:square;stroke-linejoin:miter;stroke-width:0.8;"/>
   </g>
  </g>
 </g>
 <defs>
  <clipPath id="p65ff22610e">
   <rect height="266.112" width="357.12" x="57.6" y="41.472"/>
  </clipPath>
 </defs>
</svg>
