<?xml version="1.0" encoding="utf-8" standalone="no"?>
<!DOCTYPE svg PUBLIC "-//W3C//DTD SVG 1.1//EN"
  "http://www.w3.org/Graphics/SVG/1.1/DTD/svg11.dtd">
<svg height="345.6pt" version="1.1" viewBox="0 0 460.8 345.6" width="460.8pt" xmlns="http://www.w3.org/2000/svg" xmlns:xlink="http://www.w3.org/1999/xlink">
 <metadata>
  <rdf:RDF xmlns:cc="http://creativecommons.org/ns#" xmlns:dc="http://purl.org/dc/elements/1.1/" xmlns:rdf="http://www.w3.org/1999/02/22-rdf-syntax-ns#">
   <cc:Work>
    <dc:type rdf:resource="http://purl.org/dc/dcmitype/StillImage"/>
    <dc:date>2022-05-09T17:22:00.622070</dc:date>
    <dc:format>image/svg+xml</dc:format>
    <dc:creator>
     <cc:Agent>
      <dc:title>Matplotlib v3.4.2, https://matplotlib.org/</dc:title>
     </cc:Agent>
    </dc:creator>
   </cc:Work>
  </rdf:RDF>
 </metadata>
 <defs>
  <style type="text/css">*{stroke-linecap:butt;stroke-linejoin:round;}</style>
 </defs>
 <g id="figure_1">
  <g id="patch_1">
   <path d="M 0 345.6 
L 460.8 345.6 
L 460.8 0 
L 0 0 
z
" style="fill:#ffffff;"/>
  </g>
  <g id="axes_1">
   <g id="patch_2">
    <path d="M 57.6 307.584 
L 414.72 307.584 
L 414.72 41.472 
L 57.6 41.472 
z
" style="fill:#ffffff;"/>
   </g>
   <g id="matplotlib.axis_1">
    <g id="xtick_1">
     <g id="line2d_1">
      <defs>
       <path d="M 0 0 
L 0 3.5 
" id="mef04b89143" style="stroke:#000000;stroke-width:0.8;"/>
      </defs>
      <g>
       <use style="stroke:#000000;stroke-width:0.8;" x="73.832727" xlink:href="#mef04b89143" y="307.584"/>
      </g>
     </g>
     <g id="text_1">
      <!-- 0 -->
      <g transform="translate(70.651477 322.182437)scale(0.1 -0.1)">
       <defs>
        <path d="M 2034 4250 
Q 1547 4250 1301 3770 
Q 1056 3291 1056 2328 
Q 1056 1369 1301 889 
Q 1547 409 2034 409 
Q 2525 409 2770 889 
Q 3016 1369 3016 2328 
Q 3016 3291 2770 3770 
Q 2525 4250 2034 4250 
z
M 2034 4750 
Q 2819 4750 3233 4129 
Q 3647 3509 3647 2328 
Q 3647 1150 3233 529 
Q 2819 -91 2034 -91 
Q 1250 -91 836 529 
Q 422 1150 422 2328 
Q 422 3509 836 4129 
Q 1250 4750 2034 4750 
z
" id="DejaVuSans-30" transform="scale(0.015625)"/>
       </defs>
       <use xlink:href="#DejaVuSans-30"/>
      </g>
     </g>
    </g>
    <g id="xtick_2">
     <g id="line2d_2">
      <g>
       <use style="stroke:#000000;stroke-width:0.8;" x="138.893758" xlink:href="#mef04b89143" y="307.584"/>
      </g>
     </g>
     <g id="text_2">
      <!-- 100 -->
      <g transform="translate(129.350008 322.182437)scale(0.1 -0.1)">
       <defs>
        <path d="M 794 531 
L 1825 531 
L 1825 4091 
L 703 3866 
L 703 4441 
L 1819 4666 
L 2450 4666 
L 2450 531 
L 3481 531 
L 3481 0 
L 794 0 
L 794 531 
z
" id="DejaVuSans-31" transform="scale(0.015625)"/>
       </defs>
       <use xlink:href="#DejaVuSans-31"/>
       <use x="63.623047" xlink:href="#DejaVuSans-30"/>
       <use x="127.246094" xlink:href="#DejaVuSans-30"/>
      </g>
     </g>
    </g>
    <g id="xtick_3">
     <g id="line2d_3">
      <g>
       <use style="stroke:#000000;stroke-width:0.8;" x="203.95479" xlink:href="#mef04b89143" y="307.584"/>
      </g>
     </g>
     <g id="text_3">
      <!-- 200 -->
      <g transform="translate(194.41104 322.182437)scale(0.1 -0.1)">
       <defs>
        <path d="M 1228 531 
L 3431 531 
L 3431 0 
L 469 0 
L 469 531 
Q 828 903 1448 1529 
Q 2069 2156 2228 2338 
Q 2531 2678 2651 2914 
Q 2772 3150 2772 3378 
Q 2772 3750 2511 3984 
Q 2250 4219 1831 4219 
Q 1534 4219 1204 4116 
Q 875 4013 500 3803 
L 500 4441 
Q 881 4594 1212 4672 
Q 1544 4750 1819 4750 
Q 2544 4750 2975 4387 
Q 3406 4025 3406 3419 
Q 3406 3131 3298 2873 
Q 3191 2616 2906 2266 
Q 2828 2175 2409 1742 
Q 1991 1309 1228 531 
z
" id="DejaVuSans-32" transform="scale(0.015625)"/>
       </defs>
       <use xlink:href="#DejaVuSans-32"/>
       <use x="63.623047" xlink:href="#DejaVuSans-30"/>
       <use x="127.246094" xlink:href="#DejaVuSans-30"/>
      </g>
     </g>
    </g>
    <g id="xtick_4">
     <g id="line2d_4">
      <g>
       <use style="stroke:#000000;stroke-width:0.8;" x="269.015821" xlink:href="#mef04b89143" y="307.584"/>
      </g>
     </g>
     <g id="text_4">
      <!-- 300 -->
      <g transform="translate(259.472071 322.182437)scale(0.1 -0.1)">
       <defs>
        <path d="M 2597 2516 
Q 3050 2419 3304 2112 
Q 3559 1806 3559 1356 
Q 3559 666 3084 287 
Q 2609 -91 1734 -91 
Q 1441 -91 1130 -33 
Q 819 25 488 141 
L 488 750 
Q 750 597 1062 519 
Q 1375 441 1716 441 
Q 2309 441 2620 675 
Q 2931 909 2931 1356 
Q 2931 1769 2642 2001 
Q 2353 2234 1838 2234 
L 1294 2234 
L 1294 2753 
L 1863 2753 
Q 2328 2753 2575 2939 
Q 2822 3125 2822 3475 
Q 2822 3834 2567 4026 
Q 2313 4219 1838 4219 
Q 1578 4219 1281 4162 
Q 984 4106 628 3988 
L 628 4550 
Q 988 4650 1302 4700 
Q 1616 4750 1894 4750 
Q 2613 4750 3031 4423 
Q 3450 4097 3450 3541 
Q 3450 3153 3228 2886 
Q 3006 2619 2597 2516 
z
" id="DejaVuSans-33" transform="scale(0.015625)"/>
       </defs>
       <use xlink:href="#DejaVuSans-33"/>
       <use x="63.623047" xlink:href="#DejaVuSans-30"/>
       <use x="127.246094" xlink:href="#DejaVuSans-30"/>
      </g>
     </g>
    </g>
    <g id="xtick_5">
     <g id="line2d_5">
      <g>
       <use style="stroke:#000000;stroke-width:0.8;" x="334.076852" xlink:href="#mef04b89143" y="307.584"/>
      </g>
     </g>
     <g id="text_5">
      <!-- 400 -->
      <g transform="translate(324.533102 322.182437)scale(0.1 -0.1)">
       <defs>
        <path d="M 2419 4116 
L 825 1625 
L 2419 1625 
L 2419 4116 
z
M 2253 4666 
L 3047 4666 
L 3047 1625 
L 3713 1625 
L 3713 1100 
L 3047 1100 
L 3047 0 
L 2419 0 
L 2419 1100 
L 313 1100 
L 313 1709 
L 2253 4666 
z
" id="DejaVuSans-34" transform="scale(0.015625)"/>
       </defs>
       <use xlink:href="#DejaVuSans-34"/>
       <use x="63.623047" xlink:href="#DejaVuSans-30"/>
       <use x="127.246094" xlink:href="#DejaVuSans-30"/>
      </g>
     </g>
    </g>
    <g id="xtick_6">
     <g id="line2d_6">
      <g>
       <use style="stroke:#000000;stroke-width:0.8;" x="399.137883" xlink:href="#mef04b89143" y="307.584"/>
      </g>
     </g>
     <g id="text_6">
      <!-- 500 -->
      <g transform="translate(389.594133 322.182437)scale(0.1 -0.1)">
       <defs>
        <path d="M 691 4666 
L 3169 4666 
L 3169 4134 
L 1269 4134 
L 1269 2991 
Q 1406 3038 1543 3061 
Q 1681 3084 1819 3084 
Q 2600 3084 3056 2656 
Q 3513 2228 3513 1497 
Q 3513 744 3044 326 
Q 2575 -91 1722 -91 
Q 1428 -91 1123 -41 
Q 819 9 494 109 
L 494 744 
Q 775 591 1075 516 
Q 1375 441 1709 441 
Q 2250 441 2565 725 
Q 2881 1009 2881 1497 
Q 2881 1984 2565 2268 
Q 2250 2553 1709 2553 
Q 1456 2553 1204 2497 
Q 953 2441 691 2322 
L 691 4666 
z
" id="DejaVuSans-35" transform="scale(0.015625)"/>
       </defs>
       <use xlink:href="#DejaVuSans-35"/>
       <use x="63.623047" xlink:href="#DejaVuSans-30"/>
       <use x="127.246094" xlink:href="#DejaVuSans-30"/>
      </g>
     </g>
    </g>
   </g>
   <g id="matplotlib.axis_2">
    <g id="ytick_1">
     <g id="line2d_7">
      <defs>
       <path d="M 0 0 
L -3.5 0 
" id="m7d75742489" style="stroke:#000000;stroke-width:0.8;"/>
      </defs>
      <g>
       <use style="stroke:#000000;stroke-width:0.8;" x="57.6" xlink:href="#m7d75742489" y="273.365475"/>
      </g>
     </g>
     <g id="text_7">
      <!-- −0.4 -->
      <g transform="translate(26.317187 277.164694)scale(0.1 -0.1)">
       <defs>
        <path d="M 678 2272 
L 4684 2272 
L 4684 1741 
L 678 1741 
L 678 2272 
z
" id="DejaVuSans-2212" transform="scale(0.015625)"/>
        <path d="M 684 794 
L 1344 794 
L 1344 0 
L 684 0 
L 684 794 
z
" id="DejaVuSans-2e" transform="scale(0.015625)"/>
       </defs>
       <use xlink:href="#DejaVuSans-2212"/>
       <use x="83.789062" xlink:href="#DejaVuSans-30"/>
       <use x="147.412109" xlink:href="#DejaVuSans-2e"/>
       <use x="179.199219" xlink:href="#DejaVuSans-34"/>
      </g>
     </g>
    </g>
    <g id="ytick_2">
     <g id="line2d_8">
      <g>
       <use style="stroke:#000000;stroke-width:0.8;" x="57.6" xlink:href="#m7d75742489" y="227.377834"/>
      </g>
     </g>
     <g id="text_8">
      <!-- −0.2 -->
      <g transform="translate(26.317187 231.177053)scale(0.1 -0.1)">
       <use xlink:href="#DejaVuSans-2212"/>
       <use x="83.789062" xlink:href="#DejaVuSans-30"/>
       <use x="147.412109" xlink:href="#DejaVuSans-2e"/>
       <use x="179.199219" xlink:href="#DejaVuSans-32"/>
      </g>
     </g>
    </g>
    <g id="ytick_3">
     <g id="line2d_9">
      <g>
       <use style="stroke:#000000;stroke-width:0.8;" x="57.6" xlink:href="#m7d75742489" y="181.390193"/>
      </g>
     </g>
     <g id="text_9">
      <!-- 0.0 -->
      <g transform="translate(34.696875 185.189412)scale(0.1 -0.1)">
       <use xlink:href="#DejaVuSans-30"/>
       <use x="63.623047" xlink:href="#DejaVuSans-2e"/>
       <use x="95.410156" xlink:href="#DejaVuSans-30"/>
      </g>
     </g>
    </g>
    <g id="ytick_4">
     <g id="line2d_10">
      <g>
       <use style="stroke:#000000;stroke-width:0.8;" x="57.6" xlink:href="#m7d75742489" y="135.402552"/>
      </g>
     </g>
     <g id="text_10">
      <!-- 0.2 -->
      <g transform="translate(34.696875 139.201771)scale(0.1 -0.1)">
       <use xlink:href="#DejaVuSans-30"/>
       <use x="63.623047" xlink:href="#DejaVuSans-2e"/>
       <use x="95.410156" xlink:href="#DejaVuSans-32"/>
      </g>
     </g>
    </g>
    <g id="ytick_5">
     <g id="line2d_11">
      <g>
       <use style="stroke:#000000;stroke-width:0.8;" x="57.6" xlink:href="#m7d75742489" y="89.414911"/>
      </g>
     </g>
     <g id="text_11">
      <!-- 0.4 -->
      <g transform="translate(34.696875 93.21413)scale(0.1 -0.1)">
       <use xlink:href="#DejaVuSans-30"/>
       <use x="63.623047" xlink:href="#DejaVuSans-2e"/>
       <use x="95.410156" xlink:href="#DejaVuSans-34"/>
      </g>
     </g>
    </g>
    <g id="ytick_6">
     <g id="line2d_12">
      <g>
       <use style="stroke:#000000;stroke-width:0.8;" x="57.6" xlink:href="#m7d75742489" y="43.42727"/>
      </g>
     </g>
     <g id="text_12">
      <!-- 0.6 -->
      <g transform="translate(34.696875 47.226489)scale(0.1 -0.1)">
       <defs>
        <path d="M 2113 2584 
Q 1688 2584 1439 2293 
Q 1191 2003 1191 1497 
Q 1191 994 1439 701 
Q 1688 409 2113 409 
Q 2538 409 2786 701 
Q 3034 994 3034 1497 
Q 3034 2003 2786 2293 
Q 2538 2584 2113 2584 
z
M 3366 4563 
L 3366 3988 
Q 3128 4100 2886 4159 
Q 2644 4219 2406 4219 
Q 1781 4219 1451 3797 
Q 1122 3375 1075 2522 
Q 1259 2794 1537 2939 
Q 1816 3084 2150 3084 
Q 2853 3084 3261 2657 
Q 3669 2231 3669 1497 
Q 3669 778 3244 343 
Q 2819 -91 2113 -91 
Q 1303 -91 875 529 
Q 447 1150 447 2328 
Q 447 3434 972 4092 
Q 1497 4750 2381 4750 
Q 2619 4750 2861 4703 
Q 3103 4656 3366 4563 
z
" id="DejaVuSans-36" transform="scale(0.015625)"/>
       </defs>
       <use xlink:href="#DejaVuSans-30"/>
       <use x="63.623047" xlink:href="#DejaVuSans-2e"/>
       <use x="95.410156" xlink:href="#DejaVuSans-36"/>
      </g>
     </g>
    </g>
   </g>
   <g id="line2d_13">
    <path clip-path="url(#pb46b2f9440)" d="M 73.832727 191.694248 
L 74.483338 191.110945 
L 75.133948 190.994284 
L 76.435169 185.977875 
L 77.085779 185.394571 
L 78.386999 183.178018 
L 79.03761 182.594715 
L 80.33883 194.494105 
L 80.989441 190.644302 
L 81.640051 184.577947 
L 82.941272 184.811268 
L 83.591882 193.327498 
L 84.242492 195.077408 
L 84.893103 197.293961 
L 85.543713 196.827318 
L 86.844934 191.344266 
L 87.495544 193.910801 
L 88.146154 195.194069 
L 88.796764 197.527282 
L 89.447375 197.527282 
L 90.097985 199.860496 
L 90.748595 201.027103 
L 91.399206 200.443799 
L 92.049816 196.943979 
L 92.700426 200.093817 
L 93.351037 200.210478 
L 94.001647 200.910442 
L 94.652257 197.760604 
L 95.302868 198.110586 
L 95.953478 199.743835 
L 96.604088 199.627175 
L 97.254698 198.460568 
L 98.555919 195.42739 
L 99.206529 180.378162 
L 99.85714 158.679275 
L 100.50775 144.679993 
L 101.15836 124.147713 
L 101.808971 91.016079 
L 102.459581 77.833422 
L 103.110191 53.568 
L 103.760802 101.865523 
L 105.062022 246.058126 
L 105.712633 281.872956 
L 106.363243 281.639634 
L 107.013853 283.506205 
L 107.664463 273.590047 
L 108.315074 260.40739 
L 108.965684 241.50836 
L 109.616294 215.95967 
L 110.266905 195.777372 
L 110.917515 188.194428 
L 111.568125 186.677839 
L 112.218736 185.861214 
L 112.869346 183.41134 
L 113.519956 181.894751 
L 114.170567 179.911519 
L 114.821177 179.794859 
L 115.471787 177.228323 
L 116.122398 176.178377 
L 116.773008 173.028539 
L 117.423618 175.361753 
L 118.074228 173.961824 
L 119.375449 169.178736 
L 120.026059 170.228683 
L 121.32728 166.612201 
L 121.97789 163.579024 
L 122.628501 164.62897 
L 123.279111 162.412417 
L 123.929721 161.829113 
L 124.580332 157.86265 
L 125.230942 159.145918 
L 125.881552 156.346061 
L 126.532163 154.829472 
L 127.182773 151.679634 
L 127.833383 149.696402 
L 128.483993 150.97967 
L 130.435824 141.530155 
L 131.086435 141.180173 
L 131.737045 136.980388 
L 132.387655 135.347138 
L 133.038266 130.914033 
L 133.688876 131.147354 
L 134.339486 127.647533 
L 134.990097 126.014284 
L 135.640707 121.231196 
L 136.291317 120.881214 
L 137.592538 117.031411 
L 138.243148 113.181609 
L 138.893758 112.948287 
L 140.845589 107.931878 
L 141.4962 107.465235 
L 142.79742 112.364984 
L 143.448031 110.498413 
L 144.098641 115.16484 
L 144.749251 123.331088 
L 146.050472 132.663943 
L 146.701082 138.613638 
L 147.351692 148.179814 
L 148.002303 153.312884 
L 149.954134 172.445236 
L 150.604744 175.478413 
L 151.255354 179.678198 
L 151.905965 179.911519 
L 152.556575 185.861214 
L 153.207185 187.727785 
L 153.857796 190.177659 
L 154.508406 187.961106 
L 155.159016 191.577587 
L 155.809627 193.79414 
L 156.460237 193.79414 
L 157.110847 192.160891 
L 157.761457 195.310729 
L 158.412068 195.077408 
L 159.062678 195.777372 
L 159.713288 193.210837 
L 160.363899 194.494105 
L 161.014509 196.244015 
L 161.665119 195.660711 
L 162.31573 196.010693 
L 162.96634 194.027462 
L 163.61695 196.827318 
L 164.267561 195.42739 
L 164.918171 197.293961 
L 165.568781 195.544051 
L 166.219392 197.293961 
L 166.870002 195.777372 
L 167.520612 196.943979 
L 168.171222 195.077408 
L 168.821833 196.244015 
L 169.472443 196.943979 
L 170.123053 196.710657 
L 170.773664 195.894033 
L 171.424274 197.293961 
L 172.074884 196.360675 
L 172.725495 198.110586 
L 173.376105 194.027462 
L 174.026715 196.943979 
L 174.677326 197.1773 
L 175.327936 197.760604 
L 175.978546 196.244015 
L 176.629156 196.593997 
L 177.279767 199.160532 
L 177.930377 199.043871 
L 178.580987 199.160532 
L 179.231598 199.160532 
L 179.882208 199.627175 
L 180.532818 201.260424 
L 181.183429 201.727067 
L 181.834039 200.793781 
L 182.484649 203.126995 
L 183.13526 201.843728 
L 183.78587 202.893674 
L 184.43648 201.377085 
L 185.087091 202.19371 
L 185.737701 203.360316 
L 186.388311 204.876905 
L 187.038921 203.710298 
L 187.689532 203.826959 
L 188.340142 204.410263 
L 188.990752 205.226887 
L 189.641363 204.410263 
L 190.291973 205.460209 
L 190.942583 206.860137 
L 191.593194 206.976798 
L 192.243804 203.243656 
L 192.894414 204.643584 
L 193.545025 206.510155 
L 194.195635 206.160173 
L 194.846245 206.976798 
L 195.496856 205.460209 
L 196.147466 206.626816 
L 196.798076 207.44344 
L 197.448686 207.210119 
L 198.099297 206.743476 
L 198.749907 208.960029 
L 199.400517 207.32678 
L 200.051128 208.610047 
L 200.701738 206.160173 
L 201.352348 209.893315 
L 202.002959 208.376726 
L 202.653569 208.026744 
L 203.304179 206.976798 
L 203.95479 190.766086 
L 204.6054 169.487523 
L 205.25601 132.860663 
L 205.906621 231.158471 
L 206.557231 85.803213 
L 207.207841 252.228652 
L 207.858451 177.657782 
L 208.509062 82.013961 
L 209.159672 177.019974 
L 209.810282 244.025136 
L 210.460893 192.081914 
L 211.111503 230.059704 
L 211.762113 89.79664 
L 212.412724 171.699841 
L 213.713944 131.670972 
L 214.364555 197.046483 
L 215.015165 147.718849 
L 215.665775 258.49342 
L 216.316385 98.825055 
L 216.966996 232.086754 
L 217.617606 90.561165 
L 218.268216 288.212476 
L 218.918827 158.448945 
L 219.569437 294.01699 
L 220.220047 154.204923 
L 220.870658 86.966933 
L 221.521268 153.505417 
L 222.171878 113.351915 
L 222.822489 176.881493 
L 223.473099 185.141476 
L 224.123709 251.532333 
L 224.77432 189.190508 
L 225.42493 235.795196 
L 226.07554 177.224624 
L 226.72615 240.475779 
L 227.376761 149.8413 
L 228.027371 139.200987 
L 228.677981 226.933469 
L 229.328592 183.303793 
L 229.979202 240.3249 
L 230.629812 242.337875 
L 231.280423 90.733767 
L 231.931033 242.984513 
L 232.581643 174.212237 
L 233.232254 230.226801 
L 234.533474 98.253563 
L 235.184085 93.188704 
L 235.834695 69.73436 
L 236.485305 168.428518 
L 237.135915 234.534571 
L 237.786526 70.639791 
L 238.437136 80.988874 
L 239.087746 260.833148 
L 239.738357 219.023661 
L 240.388967 167.57687 
L 241.039577 255.105284 
L 241.690188 151.847468 
L 242.340798 204.569129 
L 242.991408 214.415609 
L 243.642019 262.856952 
L 244.292629 174.672114 
L 244.943239 269.134846 
L 245.59385 124.194501 
L 246.24446 114.072261 
L 246.89507 112.916782 
L 247.54568 177.336283 
L 248.196291 214.778478 
L 248.846901 120.30322 
L 249.497511 152.187667 
L 250.148122 224.505377 
L 250.798732 77.913496 
L 251.449342 127.245403 
L 252.099953 229.061637 
L 252.750563 247.01784 
L 253.401173 76.695248 
L 254.051784 155.688532 
L 254.702394 189.616622 
L 255.353004 158.858607 
L 256.003615 118.085252 
L 256.654225 284.523806 
L 257.304835 151.831915 
L 257.955445 105.010762 
L 258.606056 213.611749 
L 259.256666 148.05573 
L 259.907276 104.831329 
L 260.557887 69.867315 
L 261.208497 247.65389 
L 261.859107 202.963948 
L 262.509718 146.068545 
L 263.160328 269.944192 
L 264.461549 153.703818 
L 265.112159 142.39574 
L 265.762769 88.175673 
L 266.413379 280.73671 
L 267.06399 214.022438 
L 267.7146 295.488 
L 268.36521 192.505048 
L 269.015821 191.694248 
L 269.666431 191.110945 
L 270.317041 190.994284 
L 271.618262 185.977875 
L 272.268872 185.394571 
L 273.570093 183.178018 
L 274.220703 182.594715 
L 275.521924 194.494105 
L 276.172534 190.644302 
L 276.823144 184.577947 
L 278.124365 184.811268 
L 278.774975 193.327498 
L 279.425586 195.077408 
L 280.076196 197.293961 
L 280.726806 196.827318 
L 282.028027 191.344266 
L 282.678637 193.910801 
L 283.329248 195.194069 
L 283.979858 197.527282 
L 284.630468 197.527282 
L 285.281079 199.860496 
L 285.931689 201.027103 
L 286.582299 200.443799 
L 287.232909 196.943979 
L 287.88352 200.093817 
L 288.53413 200.210478 
L 289.18474 200.910442 
L 289.835351 197.760604 
L 290.485961 198.110586 
L 291.136571 199.743835 
L 291.787182 199.627175 
L 292.437792 198.460568 
L 293.739013 195.42739 
L 294.389623 180.378162 
L 295.040233 158.679275 
L 295.690844 144.679993 
L 296.341454 124.147713 
L 296.992064 91.016079 
L 297.642674 77.833422 
L 298.293285 53.568 
L 298.943895 101.865523 
L 300.245116 246.058126 
L 300.895726 281.872956 
L 301.546336 281.639634 
L 302.196947 283.506205 
L 302.847557 273.590047 
L 303.498167 260.40739 
L 304.148778 241.50836 
L 304.799388 215.95967 
L 305.449998 195.777372 
L 306.100608 188.194428 
L 306.751219 186.677839 
L 307.401829 185.861214 
L 308.052439 183.41134 
L 308.70305 181.894751 
L 309.35366 179.911519 
L 310.00427 179.794859 
L 310.654881 177.228323 
L 311.305491 176.178377 
L 311.956101 173.028539 
L 312.606712 175.361753 
L 313.257322 173.961824 
L 314.558543 169.178736 
L 315.209153 170.228683 
L 316.510373 166.612201 
L 317.160984 163.579024 
L 317.811594 164.62897 
L 318.462204 162.412417 
L 319.112815 161.829113 
L 319.763425 157.86265 
L 320.414035 159.145918 
L 321.064646 156.346061 
L 321.715256 154.829472 
L 322.365866 151.679634 
L 323.016477 149.696402 
L 323.667087 150.97967 
L 325.618918 141.530155 
L 326.269528 141.180173 
L 326.920138 136.980388 
L 327.570749 135.347138 
L 328.221359 130.914033 
L 328.871969 131.147354 
L 329.52258 127.647533 
L 330.17319 126.014284 
L 330.8238 121.231196 
L 331.474411 120.881214 
L 332.775631 117.031411 
L 333.426242 113.181609 
L 334.076852 112.948287 
L 336.028683 107.931878 
L 336.679293 107.465235 
L 337.980514 112.364984 
L 338.631124 110.498413 
L 339.281734 115.16484 
L 339.932345 123.331088 
L 341.233565 132.663943 
L 341.884176 138.613638 
L 342.534786 148.179814 
L 343.185396 153.312884 
L 345.137227 172.445236 
L 345.787837 175.478413 
L 346.438448 179.678198 
L 347.089058 179.911519 
L 347.739668 185.861214 
L 348.390279 187.727785 
L 349.040889 190.177659 
L 349.691499 187.961106 
L 350.34211 191.577587 
L 350.99272 193.79414 
L 351.64333 193.79414 
L 352.293941 192.160891 
L 352.944551 195.310729 
L 353.595161 195.077408 
L 354.245772 195.777372 
L 354.896382 193.210837 
L 355.546992 194.494105 
L 356.197602 196.244015 
L 356.848213 195.660711 
L 357.498823 196.010693 
L 358.149433 194.027462 
L 358.800044 196.827318 
L 359.450654 195.42739 
L 360.101264 197.293961 
L 360.751875 195.544051 
L 361.402485 197.293961 
L 362.053095 195.777372 
L 362.703706 196.943979 
L 363.354316 195.077408 
L 364.004926 196.244015 
L 364.655537 196.943979 
L 365.306147 196.710657 
L 365.956757 195.894033 
L 366.607367 197.293961 
L 367.257978 196.360675 
L 367.908588 198.110586 
L 368.559198 194.027462 
L 369.209809 196.943979 
L 369.860419 197.1773 
L 370.511029 197.760604 
L 371.16164 196.244015 
L 371.81225 196.593997 
L 372.46286 199.160532 
L 373.113471 199.043871 
L 373.764081 199.160532 
L 374.414691 199.160532 
L 375.065302 199.627175 
L 375.715912 201.260424 
L 376.366522 201.727067 
L 377.017132 200.793781 
L 377.667743 203.126995 
L 378.318353 201.843728 
L 378.968963 202.893674 
L 379.619574 201.377085 
L 380.270184 202.19371 
L 380.920794 203.360316 
L 381.571405 204.876905 
L 382.222015 203.710298 
L 382.872625 203.826959 
L 383.523236 204.410263 
L 384.173846 205.226887 
L 384.824456 204.410263 
L 385.475066 205.460209 
L 386.125677 206.860137 
L 386.776287 206.976798 
L 387.426897 203.243656 
L 388.077508 204.643584 
L 388.728118 206.510155 
L 389.378728 206.160173 
L 390.029339 206.976798 
L 390.679949 205.460209 
L 391.330559 206.626816 
L 391.98117 207.44344 
L 392.63178 207.210119 
L 393.28239 206.743476 
L 393.933001 208.960029 
L 394.583611 207.32678 
L 395.234221 208.610047 
L 395.884831 206.160173 
L 396.535442 209.893315 
L 397.186052 208.376726 
L 397.836662 208.026744 
L 398.487273 206.976798 
L 398.487273 206.976798 
" style="fill:none;stroke:#1f77b4;stroke-linecap:square;stroke-width:1.5;"/>
   </g>
   <g id="patch_3">
    <path d="M 57.6 307.584 
L 57.6 41.472 
" style="fill:none;stroke:#000000;stroke-linecap:square;stroke-linejoin:miter;stroke-width:0.8;"/>
   </g>
   <g id="patch_4">
    <path d="M 414.72 307.584 
L 414.72 41.472 
" style="fill:none;stroke:#000000;stroke-linecap:square;stroke-linejoin:miter;stroke-width:0.8;"/>
   </g>
   <g id="patch_5">
    <path d="M 57.6 307.584 
L 414.72 307.584 
" style="fill:none;stroke:#000000;stroke-linecap:square;stroke-linejoin:miter;stroke-width:0.8;"/>
   </g>
   <g id="patch_6">
    <path d="M 57.6 41.472 
L 414.72 41.472 
" style="fill:none;stroke:#000000;stroke-linecap:square;stroke-linejoin:miter;stroke-width:0.8;"/>
   </g>
  </g>
 </g>
 <defs>
  <clipPath id="pb46b2f9440">
   <rect height="266.112" width="357.12" x="57.6" y="41.472"/>
  </clipPath>
 </defs>
</svg>
