<?xml version="1.0" encoding="utf-8" standalone="no"?>
<!DOCTYPE svg PUBLIC "-//W3C//DTD SVG 1.1//EN"
  "http://www.w3.org/Graphics/SVG/1.1/DTD/svg11.dtd">
<svg height="345.6pt" version="1.1" viewBox="0 0 460.8 345.6" width="460.8pt" xmlns="http://www.w3.org/2000/svg" xmlns:xlink="http://www.w3.org/1999/xlink">
 <metadata>
  <rdf:RDF xmlns:cc="http://creativecommons.org/ns#" xmlns:dc="http://purl.org/dc/elements/1.1/" xmlns:rdf="http://www.w3.org/1999/02/22-rdf-syntax-ns#">
   <cc:Work>
    <dc:type rdf:resource="http://purl.org/dc/dcmitype/StillImage"/>
    <dc:date>2022-06-17T00:01:48.974828</dc:date>
    <dc:format>image/svg+xml</dc:format>
    <dc:creator>
     <cc:Agent>
      <dc:title>Matplotlib v3.4.2, https://matplotlib.org/</dc:title>
     </cc:Agent>
    </dc:creator>
   </cc:Work>
  </rdf:RDF>
 </metadata>
 <defs>
  <style type="text/css">*{stroke-linecap:butt;stroke-linejoin:round;}</style>
 </defs>
 <g id="figure_1">
  <g id="patch_1">
   <path d="M 0 345.6 
L 460.8 345.6 
L 460.8 0 
L 0 0 
z
" style="fill:#ffffff;"/>
  </g>
  <g id="axes_1">
   <g id="patch_2">
    <path d="M 57.6 307.584 
L 414.72 307.584 
L 414.72 41.472 
L 57.6 41.472 
z
" style="fill:#ffffff;"/>
   </g>
   <g id="matplotlib.axis_1">
    <g id="xtick_1">
     <g id="line2d_1">
      <defs>
       <path d="M 0 0 
L 0 3.5 
" id="mbb7984970a" style="stroke:#000000;stroke-width:0.8;"/>
      </defs>
      <g>
       <use style="stroke:#000000;stroke-width:0.8;" x="59.738101" xlink:href="#mbb7984970a" y="307.584"/>
      </g>
     </g>
     <g id="text_1">
      <!-- 0 -->
      <g transform="translate(56.556851 322.182437)scale(0.1 -0.1)">
       <defs>
        <path d="M 2034 4250 
Q 1547 4250 1301 3770 
Q 1056 3291 1056 2328 
Q 1056 1369 1301 889 
Q 1547 409 2034 409 
Q 2525 409 2770 889 
Q 3016 1369 3016 2328 
Q 3016 3291 2770 3770 
Q 2525 4250 2034 4250 
z
M 2034 4750 
Q 2819 4750 3233 4129 
Q 3647 3509 3647 2328 
Q 3647 1150 3233 529 
Q 2819 -91 2034 -91 
Q 1250 -91 836 529 
Q 422 1150 422 2328 
Q 422 3509 836 4129 
Q 1250 4750 2034 4750 
z
" id="DejaVuSans-30" transform="scale(0.015625)"/>
       </defs>
       <use xlink:href="#DejaVuSans-30"/>
      </g>
     </g>
    </g>
    <g id="xtick_2">
     <g id="line2d_2">
      <g>
       <use style="stroke:#000000;stroke-width:0.8;" x="120.997502" xlink:href="#mbb7984970a" y="307.584"/>
      </g>
     </g>
     <g id="text_2">
      <!-- 1000 -->
      <g transform="translate(108.272502 322.182437)scale(0.1 -0.1)">
       <defs>
        <path d="M 794 531 
L 1825 531 
L 1825 4091 
L 703 3866 
L 703 4441 
L 1819 4666 
L 2450 4666 
L 2450 531 
L 3481 531 
L 3481 0 
L 794 0 
L 794 531 
z
" id="DejaVuSans-31" transform="scale(0.015625)"/>
       </defs>
       <use xlink:href="#DejaVuSans-31"/>
       <use x="63.623047" xlink:href="#DejaVuSans-30"/>
       <use x="127.246094" xlink:href="#DejaVuSans-30"/>
       <use x="190.869141" xlink:href="#DejaVuSans-30"/>
      </g>
     </g>
    </g>
    <g id="xtick_3">
     <g id="line2d_3">
      <g>
       <use style="stroke:#000000;stroke-width:0.8;" x="182.256903" xlink:href="#mbb7984970a" y="307.584"/>
      </g>
     </g>
     <g id="text_3">
      <!-- 2000 -->
      <g transform="translate(169.531903 322.182437)scale(0.1 -0.1)">
       <defs>
        <path d="M 1228 531 
L 3431 531 
L 3431 0 
L 469 0 
L 469 531 
Q 828 903 1448 1529 
Q 2069 2156 2228 2338 
Q 2531 2678 2651 2914 
Q 2772 3150 2772 3378 
Q 2772 3750 2511 3984 
Q 2250 4219 1831 4219 
Q 1534 4219 1204 4116 
Q 875 4013 500 3803 
L 500 4441 
Q 881 4594 1212 4672 
Q 1544 4750 1819 4750 
Q 2544 4750 2975 4387 
Q 3406 4025 3406 3419 
Q 3406 3131 3298 2873 
Q 3191 2616 2906 2266 
Q 2828 2175 2409 1742 
Q 1991 1309 1228 531 
z
" id="DejaVuSans-32" transform="scale(0.015625)"/>
       </defs>
       <use xlink:href="#DejaVuSans-32"/>
       <use x="63.623047" xlink:href="#DejaVuSans-30"/>
       <use x="127.246094" xlink:href="#DejaVuSans-30"/>
       <use x="190.869141" xlink:href="#DejaVuSans-30"/>
      </g>
     </g>
    </g>
    <g id="xtick_4">
     <g id="line2d_4">
      <g>
       <use style="stroke:#000000;stroke-width:0.8;" x="243.516303" xlink:href="#mbb7984970a" y="307.584"/>
      </g>
     </g>
     <g id="text_4">
      <!-- 3000 -->
      <g transform="translate(230.791303 322.182437)scale(0.1 -0.1)">
       <defs>
        <path d="M 2597 2516 
Q 3050 2419 3304 2112 
Q 3559 1806 3559 1356 
Q 3559 666 3084 287 
Q 2609 -91 1734 -91 
Q 1441 -91 1130 -33 
Q 819 25 488 141 
L 488 750 
Q 750 597 1062 519 
Q 1375 441 1716 441 
Q 2309 441 2620 675 
Q 2931 909 2931 1356 
Q 2931 1769 2642 2001 
Q 2353 2234 1838 2234 
L 1294 2234 
L 1294 2753 
L 1863 2753 
Q 2328 2753 2575 2939 
Q 2822 3125 2822 3475 
Q 2822 3834 2567 4026 
Q 2313 4219 1838 4219 
Q 1578 4219 1281 4162 
Q 984 4106 628 3988 
L 628 4550 
Q 988 4650 1302 4700 
Q 1616 4750 1894 4750 
Q 2613 4750 3031 4423 
Q 3450 4097 3450 3541 
Q 3450 3153 3228 2886 
Q 3006 2619 2597 2516 
z
" id="DejaVuSans-33" transform="scale(0.015625)"/>
       </defs>
       <use xlink:href="#DejaVuSans-33"/>
       <use x="63.623047" xlink:href="#DejaVuSans-30"/>
       <use x="127.246094" xlink:href="#DejaVuSans-30"/>
       <use x="190.869141" xlink:href="#DejaVuSans-30"/>
      </g>
     </g>
    </g>
    <g id="xtick_5">
     <g id="line2d_5">
      <g>
       <use style="stroke:#000000;stroke-width:0.8;" x="304.775704" xlink:href="#mbb7984970a" y="307.584"/>
      </g>
     </g>
     <g id="text_5">
      <!-- 4000 -->
      <g transform="translate(292.050704 322.182437)scale(0.1 -0.1)">
       <defs>
        <path d="M 2419 4116 
L 825 1625 
L 2419 1625 
L 2419 4116 
z
M 2253 4666 
L 3047 4666 
L 3047 1625 
L 3713 1625 
L 3713 1100 
L 3047 1100 
L 3047 0 
L 2419 0 
L 2419 1100 
L 313 1100 
L 313 1709 
L 2253 4666 
z
" id="DejaVuSans-34" transform="scale(0.015625)"/>
       </defs>
       <use xlink:href="#DejaVuSans-34"/>
       <use x="63.623047" xlink:href="#DejaVuSans-30"/>
       <use x="127.246094" xlink:href="#DejaVuSans-30"/>
       <use x="190.869141" xlink:href="#DejaVuSans-30"/>
      </g>
     </g>
    </g>
    <g id="xtick_6">
     <g id="line2d_6">
      <g>
       <use style="stroke:#000000;stroke-width:0.8;" x="366.035105" xlink:href="#mbb7984970a" y="307.584"/>
      </g>
     </g>
     <g id="text_6">
      <!-- 5000 -->
      <g transform="translate(353.310105 322.182437)scale(0.1 -0.1)">
       <defs>
        <path d="M 691 4666 
L 3169 4666 
L 3169 4134 
L 1269 4134 
L 1269 2991 
Q 1406 3038 1543 3061 
Q 1681 3084 1819 3084 
Q 2600 3084 3056 2656 
Q 3513 2228 3513 1497 
Q 3513 744 3044 326 
Q 2575 -91 1722 -91 
Q 1428 -91 1123 -41 
Q 819 9 494 109 
L 494 744 
Q 775 591 1075 516 
Q 1375 441 1709 441 
Q 2250 441 2565 725 
Q 2881 1009 2881 1497 
Q 2881 1984 2565 2268 
Q 2250 2553 1709 2553 
Q 1456 2553 1204 2497 
Q 953 2441 691 2322 
L 691 4666 
z
" id="DejaVuSans-35" transform="scale(0.015625)"/>
       </defs>
       <use xlink:href="#DejaVuSans-35"/>
       <use x="63.623047" xlink:href="#DejaVuSans-30"/>
       <use x="127.246094" xlink:href="#DejaVuSans-30"/>
       <use x="190.869141" xlink:href="#DejaVuSans-30"/>
      </g>
     </g>
    </g>
   </g>
   <g id="matplotlib.axis_2">
    <g id="ytick_1">
     <g id="line2d_7">
      <defs>
       <path d="M 0 0 
L -3.5 0 
" id="mffba80c102" style="stroke:#000000;stroke-width:0.8;"/>
      </defs>
      <g>
       <use style="stroke:#000000;stroke-width:0.8;" x="57.6" xlink:href="#mffba80c102" y="301.52085"/>
      </g>
     </g>
     <g id="text_7">
      <!-- −3 -->
      <g transform="translate(35.857813 305.320068)scale(0.1 -0.1)">
       <defs>
        <path d="M 678 2272 
L 4684 2272 
L 4684 1741 
L 678 1741 
L 678 2272 
z
" id="DejaVuSans-2212" transform="scale(0.015625)"/>
       </defs>
       <use xlink:href="#DejaVuSans-2212"/>
       <use x="83.789062" xlink:href="#DejaVuSans-33"/>
      </g>
     </g>
    </g>
    <g id="ytick_2">
     <g id="line2d_8">
      <g>
       <use style="stroke:#000000;stroke-width:0.8;" x="57.6" xlink:href="#mffba80c102" y="270.294239"/>
      </g>
     </g>
     <g id="text_8">
      <!-- −2 -->
      <g transform="translate(35.857813 274.093458)scale(0.1 -0.1)">
       <use xlink:href="#DejaVuSans-2212"/>
       <use x="83.789062" xlink:href="#DejaVuSans-32"/>
      </g>
     </g>
    </g>
    <g id="ytick_3">
     <g id="line2d_9">
      <g>
       <use style="stroke:#000000;stroke-width:0.8;" x="57.6" xlink:href="#mffba80c102" y="239.067628"/>
      </g>
     </g>
     <g id="text_9">
      <!-- −1 -->
      <g transform="translate(35.857813 242.866847)scale(0.1 -0.1)">
       <use xlink:href="#DejaVuSans-2212"/>
       <use x="83.789062" xlink:href="#DejaVuSans-31"/>
      </g>
     </g>
    </g>
    <g id="ytick_4">
     <g id="line2d_10">
      <g>
       <use style="stroke:#000000;stroke-width:0.8;" x="57.6" xlink:href="#mffba80c102" y="207.841017"/>
      </g>
     </g>
     <g id="text_10">
      <!-- 0 -->
      <g transform="translate(44.2375 211.640236)scale(0.1 -0.1)">
       <use xlink:href="#DejaVuSans-30"/>
      </g>
     </g>
    </g>
    <g id="ytick_5">
     <g id="line2d_11">
      <g>
       <use style="stroke:#000000;stroke-width:0.8;" x="57.6" xlink:href="#mffba80c102" y="176.614407"/>
      </g>
     </g>
     <g id="text_11">
      <!-- 1 -->
      <g transform="translate(44.2375 180.413625)scale(0.1 -0.1)">
       <use xlink:href="#DejaVuSans-31"/>
      </g>
     </g>
    </g>
    <g id="ytick_6">
     <g id="line2d_12">
      <g>
       <use style="stroke:#000000;stroke-width:0.8;" x="57.6" xlink:href="#mffba80c102" y="145.387796"/>
      </g>
     </g>
     <g id="text_12">
      <!-- 2 -->
      <g transform="translate(44.2375 149.187015)scale(0.1 -0.1)">
       <use xlink:href="#DejaVuSans-32"/>
      </g>
     </g>
    </g>
    <g id="ytick_7">
     <g id="line2d_13">
      <g>
       <use style="stroke:#000000;stroke-width:0.8;" x="57.6" xlink:href="#mffba80c102" y="114.161185"/>
      </g>
     </g>
     <g id="text_13">
      <!-- 3 -->
      <g transform="translate(44.2375 117.960404)scale(0.1 -0.1)">
       <use xlink:href="#DejaVuSans-33"/>
      </g>
     </g>
    </g>
    <g id="ytick_8">
     <g id="line2d_14">
      <g>
       <use style="stroke:#000000;stroke-width:0.8;" x="57.6" xlink:href="#mffba80c102" y="82.934574"/>
      </g>
     </g>
     <g id="text_14">
      <!-- 4 -->
      <g transform="translate(44.2375 86.733793)scale(0.1 -0.1)">
       <use xlink:href="#DejaVuSans-34"/>
      </g>
     </g>
    </g>
    <g id="ytick_9">
     <g id="line2d_15">
      <g>
       <use style="stroke:#000000;stroke-width:0.8;" x="57.6" xlink:href="#mffba80c102" y="51.707964"/>
      </g>
     </g>
     <g id="text_15">
      <!-- 5 -->
      <g transform="translate(44.2375 55.507182)scale(0.1 -0.1)">
       <use xlink:href="#DejaVuSans-35"/>
      </g>
     </g>
    </g>
   </g>
   <g id="line2d_16">
    <path clip-path="url(#pbde558bd24)" d="M 59.738101 226.885836 
L 59.921879 72.24124 
L 59.983139 94.397922 
L 60.105657 197.042142 
L 60.166917 193.876902 
L 60.350695 213.32052 
L 60.473214 212.416166 
L 60.779511 216.937938 
L 61.085808 209.250926 
L 61.147067 209.250926 
L 61.514624 214.677052 
L 61.88218 207.894394 
L 62.004699 213.32052 
L 62.065958 212.416166 
L 62.433515 182.572472 
L 62.494774 187.094244 
L 62.617293 194.781256 
L 62.86233 230.051076 
L 62.984849 232.311962 
L 63.046109 223.268418 
L 63.229887 87.615265 
L 63.413665 205.633508 
L 63.474924 203.372622 
L 63.658703 222.364064 
L 63.781221 220.103178 
L 63.90374 221.45971 
L 64.026259 216.937938 
L 64.210037 213.32052 
L 64.271297 213.32052 
L 64.393815 214.677052 
L 64.700112 207.894394 
L 64.883891 210.15528 
L 65.067669 207.894394 
L 65.435225 215.581406 
L 65.619003 201.563914 
L 65.741522 193.876902 
L 65.9253 204.729154 
L 66.109079 236.833734 
L 66.170338 236.833734 
L 66.231597 235.477202 
L 66.292857 236.833734 
L 66.354116 221.45971 
L 66.537894 76.763013 
L 66.782932 202.468268 
L 66.96671 215.581406 
L 67.02797 215.581406 
L 67.273007 219.198824 
L 67.395526 214.677052 
L 67.579304 210.15528 
L 67.640564 210.15528 
L 67.763082 211.511812 
L 67.824342 211.511812 
L 67.946861 210.15528 
L 68.00812 211.511812 
L 68.130639 234.572848 
L 68.191898 232.311962 
L 68.436936 202.468268 
L 68.559455 235.477202 
L 68.620714 234.572848 
L 68.98827 189.35513 
L 69.233308 201.563914 
L 69.417086 233.216316 
L 69.478346 232.311962 
L 69.600864 226.885836 
L 69.662124 203.372622 
L 69.845902 75.406482 
L 70.02968 204.729154 
L 70.335977 227.79019 
L 70.581015 223.268418 
L 70.703534 216.937938 
L 70.948571 207.894394 
L 71.316128 214.677052 
L 71.499906 210.15528 
L 71.622425 203.372622 
L 71.683684 204.729154 
L 71.928722 211.511812 
L 71.989981 211.511812 
L 72.05124 210.15528 
L 72.296278 191.616016 
L 72.541316 204.729154 
L 72.725094 235.477202 
L 72.786353 235.477202 
L 72.908872 236.833734 
L 72.970131 213.32052 
L 73.15391 91.232684 
L 73.276428 209.250926 
L 73.337688 206.99004 
L 73.398947 210.15528 
L 73.521466 222.364064 
L 73.705244 220.103178 
L 73.889022 226.885836 
L 73.950282 225.529304 
L 74.256579 212.416166 
L 74.440357 212.416166 
L 74.562876 213.32052 
L 74.624135 213.32052 
L 74.685395 214.677052 
L 74.930432 207.894394 
L 74.991692 209.250926 
L 75.052951 209.250926 
L 75.236729 212.416166 
L 75.420508 202.468268 
L 75.604286 187.998598 
L 75.665545 190.259484 
L 75.849323 205.633508 
L 76.033102 232.311962 
L 76.15562 232.311962 
L 76.21688 233.216316 
L 76.339399 132.832984 
L 76.400658 84.450024 
L 76.461917 91.232684 
L 76.645696 202.468268 
L 76.890733 220.103178 
L 77.013252 220.103178 
L 77.135771 219.198824 
L 77.19703 220.103178 
L 77.319549 216.937938 
L 77.564587 207.894394 
L 77.687105 209.250926 
L 77.748365 209.250926 
L 78.054662 212.416166 
L 78.23844 210.15528 
L 78.360959 214.677052 
L 78.483478 216.937938 
L 78.605996 216.937938 
L 78.912293 193.876902 
L 78.973553 197.042142 
L 79.157331 211.511812 
L 79.341109 239.998974 
L 79.402369 239.998974 
L 79.524887 237.738088 
L 79.647406 136.4504 
L 79.708666 89.87615 
L 79.769925 99.824049 
L 79.892444 207.894394 
L 79.953703 206.99004 
L 80.137481 223.268418 
L 80.26 221.45971 
L 80.382519 221.45971 
L 80.505038 222.364064 
L 80.566297 221.45971 
L 80.872594 207.894394 
L 81.056372 211.511812 
L 81.240151 215.581406 
L 81.362669 216.937938 
L 81.546448 213.32052 
L 81.852745 219.198824 
L 81.975263 214.677052 
L 82.159042 200.207382 
L 82.220301 195.68561 
L 82.28156 197.946496 
L 82.526598 226.885836 
L 82.649117 237.738088 
L 82.771636 235.477202 
L 82.832895 236.833734 
L 83.016673 86.710911 
L 83.077933 98.919695 
L 83.261711 206.99004 
L 83.445489 225.529304 
L 83.506748 223.268418 
L 83.690527 223.268418 
L 83.813045 224.62495 
L 84.241861 212.416166 
L 84.486899 212.416166 
L 84.609418 213.32052 
L 84.670677 213.32052 
L 84.854455 210.15528 
L 85.099493 214.677052 
L 85.222012 212.416166 
L 85.528309 189.35513 
L 85.589568 192.52037 
L 85.773346 206.99004 
L 85.957124 234.572848 
L 86.079643 234.572848 
L 86.140903 232.311962 
L 86.324681 79.928254 
L 86.38594 96.658807 
L 86.569718 204.729154 
L 86.753497 222.364064 
L 86.814756 220.103178 
L 86.937275 217.842292 
L 87.059794 220.103178 
L 87.121053 219.198824 
L 87.182312 221.45971 
L 87.42735 211.511812 
L 87.549869 210.15528 
L 87.611128 211.511812 
L 87.672388 210.15528 
L 87.917425 214.677052 
L 88.162463 211.511812 
L 88.223722 211.511812 
L 88.46876 215.581406 
L 88.591279 209.250926 
L 88.836316 192.52037 
L 89.020095 201.563914 
L 89.203873 230.95543 
L 89.326392 229.146722 
L 89.44891 230.051076 
L 89.632689 74.502128 
L 89.693948 92.137038 
L 89.877726 193.876902 
L 90.245283 217.842292 
L 90.367801 219.198824 
L 90.429061 219.198824 
L 90.674098 212.416166 
L 90.735358 213.32052 
L 91.041655 217.842292 
L 91.225433 217.842292 
L 91.286692 219.198824 
L 91.53173 213.32052 
L 91.715508 215.581406 
L 91.776768 215.581406 
L 91.899286 207.894394 
L 92.144324 187.998598 
L 92.389362 206.99004 
L 92.57314 230.95543 
L 92.695659 233.216316 
L 92.756918 230.95543 
L 92.940696 83.54567 
L 93.001956 97.563164 
L 93.185734 204.729154 
L 93.430771 222.364064 
L 93.55329 221.45971 
L 93.675809 221.45971 
L 93.798328 217.842292 
L 93.920847 211.511812 
L 93.982106 212.416166 
L 94.104625 212.416166 
L 94.165884 213.32052 
L 94.533441 209.250926 
L 94.5947 209.250926 
L 94.778478 205.633508 
L 94.839738 206.99004 
L 95.023516 212.416166 
L 95.084775 212.416166 
L 95.146035 211.511812 
L 95.452332 190.259484 
L 95.63611 207.894394 
L 95.758629 253.112112 
L 95.819888 247.685985 
L 96.003666 239.09462 
L 96.064926 247.685985 
L 96.187444 142.78088 
L 96.248704 93.041392 
L 96.309963 105.250175 
L 96.432482 204.729154 
L 96.493741 203.372622 
L 96.738779 225.529304 
L 96.800038 225.529304 
L 96.861298 226.885836 
L 97.045076 222.364064 
L 97.351373 201.563914 
L 97.473892 207.894394 
L 97.718929 216.937938 
L 97.963967 209.250926 
L 98.086486 204.729154 
L 98.392783 207.894394 
L 98.576561 204.729154 
L 98.69908 195.68561 
L 98.760339 197.042142 
L 99.005377 217.842292 
L 99.189155 237.738088 
L 99.250414 236.833734 
L 99.311674 237.738088 
L 99.372933 233.216316 
L 99.556711 89.87615 
L 99.617971 120.6242 
L 99.74049 210.15528 
L 99.801749 207.894394 
L 99.985527 221.45971 
L 100.046787 220.103178 
L 100.108046 220.103178 
L 100.169305 217.842292 
L 100.414343 224.62495 
L 100.659381 214.677052 
L 100.781899 214.677052 
L 100.904418 212.416166 
L 100.965678 213.32052 
L 101.026937 212.416166 
L 101.149456 215.581406 
L 101.210715 214.677052 
L 101.394493 212.416166 
L 101.455753 212.416166 
L 101.70079 214.677052 
L 101.884569 201.563914 
L 102.068347 190.259484 
L 102.190866 195.68561 
L 102.313384 211.511812 
L 102.497163 235.477202 
L 102.558422 235.477202 
L 102.619681 236.833734 
L 102.680941 230.051076 
L 102.864719 81.284785 
L 102.925978 119.719843 
L 103.048497 204.729154 
L 103.109757 203.372622 
L 103.293535 219.198824 
L 103.538573 214.677052 
L 103.661091 215.581406 
L 103.967388 206.99004 
L 104.089907 210.15528 
L 104.396204 215.581406 
L 104.457464 215.581406 
L 104.702501 206.99004 
L 104.763761 207.894394 
L 105.008798 217.842292 
L 105.192576 204.729154 
L 105.376355 191.616016 
L 105.621392 213.32052 
L 105.80517 234.572848 
L 105.86643 233.216316 
L 105.927689 234.572848 
L 105.988949 229.146722 
L 106.172727 79.928254 
L 106.233986 120.6242 
L 106.356505 205.633508 
L 106.417764 205.633508 
L 106.601543 220.103178 
L 106.662802 220.103178 
L 106.90784 225.529304 
L 106.969099 226.885836 
L 107.275396 212.416166 
L 107.397915 212.416166 
L 107.520434 214.677052 
L 107.642952 214.677052 
L 107.826731 210.15528 
L 107.88799 210.15528 
L 108.010509 209.250926 
L 108.316806 212.416166 
L 108.378065 212.416166 
L 108.684362 192.52037 
L 108.9294 211.511812 
L 109.113178 234.572848 
L 109.235697 233.216316 
L 109.296956 225.529304 
L 109.480734 74.502128 
L 109.725772 203.372622 
L 109.90955 220.103178 
L 110.032069 219.198824 
L 110.154588 219.198824 
L 110.277107 221.45971 
L 110.644663 210.15528 
L 110.705922 210.15528 
L 111.073479 217.842292 
L 111.134738 216.937938 
L 111.441035 202.468268 
L 111.624813 205.633508 
L 111.686073 204.729154 
L 111.99237 185.737713 
L 112.237407 211.511812 
L 112.421186 230.95543 
L 112.482445 230.95543 
L 112.543704 233.216316 
L 112.604964 223.268418 
L 112.788742 79.023897 
L 112.97252 205.633508 
L 113.03378 204.729154 
L 113.217558 225.529304 
L 113.340077 225.529304 
L 113.462595 222.364064 
L 113.523855 223.268418 
L 113.646374 220.103178 
L 113.891411 209.250926 
L 114.136449 214.677052 
L 114.320227 214.677052 
L 114.626524 209.250926 
L 114.687783 210.15528 
L 114.932821 220.103178 
L 114.99408 220.103178 
L 115.239118 211.511812 
L 115.300377 212.416166 
L 115.484156 216.937938 
L 115.729193 245.425101 
L 115.851712 243.164213 
L 115.912971 225.529304 
L 116.09675 75.406482 
L 116.280528 200.207382 
L 116.341787 201.563914 
L 116.464306 213.32052 
L 116.525565 212.416166 
L 116.586825 211.511812 
L 116.709344 207.894394 
L 116.954381 207.894394 
L 117.015641 206.99004 
L 117.138159 199.303028 
L 117.199419 200.207382 
L 117.505716 215.581406 
L 117.566975 215.581406 
L 117.934532 204.729154 
L 118.240829 215.581406 
L 118.302088 215.581406 
L 118.547126 202.468268 
L 118.608385 203.372622 
L 118.853423 223.268418 
L 119.037201 240.903328 
L 119.09846 240.903328 
L 119.15972 239.998974 
L 119.220979 222.364064 
L 119.404757 89.87615 
L 119.588536 207.894394 
L 119.649795 211.511812 
L 119.772314 229.146722 
L 119.833573 227.79019 
L 119.956092 226.885836 
L 120.017351 226.885836 
L 120.262389 219.198824 
L 120.507427 210.15528 
L 120.568686 211.511812 
L 120.752464 206.99004 
L 120.813724 207.894394 
L 120.997502 213.32052 
L 121.18128 211.511812 
L 121.242539 212.416166 
L 121.487577 222.364064 
L 121.548836 221.45971 
L 121.732615 209.250926 
L 121.977652 187.998598 
L 122.038912 187.998598 
L 122.16143 207.894394 
L 122.283949 219.198824 
L 122.467727 207.894394 
L 122.528987 197.946496 
L 122.712765 104.345821 
L 122.896543 234.572848 
L 122.957803 234.572848 
L 123.080321 243.164213 
L 123.141581 242.259859 
L 123.20284 243.164213 
L 123.325359 269.842668 
L 123.386618 258.538238 
L 123.570397 235.477202 
L 123.631656 239.09462 
L 123.754175 254.468643 
L 123.999212 230.051076 
L 124.060472 227.79019 
L 124.121731 229.146722 
L 124.24425 230.051076 
L 124.305509 230.051076 
L 124.856844 205.633508 
L 125.163141 185.737713 
L 125.346919 201.563914 
L 125.591957 239.998974 
L 125.714476 239.998974 
L 125.775735 242.259859 
L 125.836994 221.45971 
L 126.020773 89.87615 
L 126.143291 203.372622 
L 126.204551 201.563914 
L 126.26581 202.468268 
L 126.449588 214.677052 
L 126.572107 217.842292 
L 126.878404 249.042516 
L 126.939664 246.781632 
L 127.123442 224.62495 
L 127.245961 225.529304 
L 127.368479 225.529304 
L 127.552258 217.842292 
L 127.797295 201.563914 
L 127.858555 200.207382 
L 128.103592 207.894394 
L 128.164852 206.99004 
L 128.471149 170.363689 
L 128.532408 172.624573 
L 128.777446 203.372622 
L 128.961224 216.937938 
L 129.022483 216.937938 
L 129.083743 217.842292 
L 129.206261 122.885085 
L 129.32878 67.719471 
L 129.512558 185.737713 
L 129.573818 189.35513 
L 129.757596 206.99004 
L 129.941374 211.511812 
L 130.002634 211.511812 
L 130.125152 212.416166 
L 130.186412 211.511812 
L 130.431449 203.372622 
L 130.492709 203.372622 
L 130.799006 211.511812 
L 130.921525 211.511812 
L 131.044043 209.250926 
L 131.472859 214.677052 
L 131.534119 212.416166 
L 131.779156 191.616016 
L 131.962934 201.563914 
L 132.024194 206.99004 
L 132.207972 236.833734 
L 132.330491 237.738088 
L 132.39175 237.738088 
L 132.514269 145.041768 
L 132.636788 82.189139 
L 132.759307 204.729154 
L 132.820566 201.563914 
L 132.881826 204.729154 
L 133.065604 219.198824 
L 133.249382 219.198824 
L 133.310641 220.103178 
L 133.371901 219.198824 
L 133.616938 207.894394 
L 134.045754 221.45971 
L 134.168273 221.45971 
L 134.413311 209.250926 
L 134.535829 212.416166 
L 134.719608 216.937938 
L 134.780867 216.937938 
L 135.087164 195.68561 
L 135.148423 199.303028 
L 135.393461 216.937938 
L 135.577239 234.572848 
L 135.699758 242.259859 
L 135.761017 223.268418 
L 135.944796 74.502128 
L 136.128574 201.563914 
L 136.434871 219.198824 
L 136.55739 221.45971 
L 136.679908 217.842292 
L 137.108724 200.207382 
L 137.292502 197.042142 
L 137.53754 207.894394 
L 137.782578 214.677052 
L 138.088875 235.477202 
L 138.150134 232.311962 
L 138.456431 203.372622 
L 138.51769 204.729154 
L 138.57895 204.729154 
L 138.701469 220.103178 
L 138.823987 236.833734 
L 138.946506 234.572848 
L 139.007766 236.833734 
L 139.069025 220.103178 
L 139.252803 79.928254 
L 139.436581 203.372622 
L 139.5591 219.198824 
L 139.681619 225.529304 
L 140.171694 219.198824 
L 140.355472 226.885836 
L 140.477991 221.45971 
L 140.784288 197.946496 
L 141.151845 216.937938 
L 141.396882 224.62495 
L 141.519401 204.729154 
L 141.703179 168.102804 
L 142.009476 224.62495 
L 142.131995 236.833734 
L 142.254514 232.311962 
L 142.315773 233.216316 
L 142.377033 219.198824 
L 142.560811 79.928254 
L 142.68333 199.303028 
L 142.744589 194.781256 
L 142.867108 189.35513 
L 142.928367 190.259484 
L 143.050886 193.876902 
L 143.112145 193.876902 
L 143.295924 197.042142 
L 143.602221 191.616016 
L 143.66348 191.616016 
L 143.724739 192.52037 
L 143.908518 197.042142 
L 143.969777 194.781256 
L 144.031036 195.68561 
L 144.214815 202.468268 
L 144.398593 195.68561 
L 144.459852 195.68561 
L 144.582371 197.946496 
L 144.70489 190.259484 
L 144.888668 178.050701 
L 145.011187 182.572472 
L 145.501262 258.538238 
L 145.562521 256.72953 
L 145.623781 257.633884 
L 145.68504 254.468643 
L 145.868818 125.14597 
L 146.052597 257.633884 
L 146.113856 256.72953 
L 146.358894 277.529679 
L 146.420153 276.625325 
L 146.971488 249.042516 
L 147.094007 252.207758 
L 147.216525 269.842668 
L 147.277785 268.486137 
L 147.522822 250.851227 
L 147.829119 220.103178 
L 148.257935 202.468268 
L 148.380454 197.042142 
L 148.564232 204.729154 
L 148.80927 237.738088 
L 148.931789 235.477202 
L 148.993048 216.937938 
L 149.176826 69.980355 
L 149.360604 187.094244 
L 149.421864 191.616016 
L 149.544383 210.15528 
L 149.605642 210.15528 
L 149.85068 224.62495 
L 150.034458 197.042142 
L 150.095717 197.946496 
L 150.340755 239.998974 
L 150.463274 247.685985 
L 150.524533 246.781632 
L 150.769571 230.051076 
L 150.892089 263.060011 
L 150.953349 259.894769 
L 151.075868 250.851227 
L 151.137127 252.207758 
L 151.259646 276.625325 
L 151.320905 268.486137 
L 151.627202 190.259484 
L 151.688462 191.616016 
L 152.178537 239.998974 
L 152.239796 239.09462 
L 152.301056 217.842292 
L 152.484834 73.597774 
L 152.729871 225.529304 
L 152.85239 249.946873 
L 153.097428 236.833734 
L 153.281206 247.685985 
L 153.342465 245.425101 
L 153.710022 221.45971 
L 153.771281 217.842292 
L 153.8938 240.903328 
L 153.955059 235.477202 
L 154.138838 219.198824 
L 154.200097 221.45971 
L 154.506394 187.998598 
L 154.567653 190.259484 
L 154.751432 206.99004 
L 154.87395 217.842292 
L 155.180247 181.668118 
L 155.364026 209.250926 
L 155.486544 206.99004 
L 155.547804 209.250926 
L 155.609063 199.303028 
L 155.792841 66.815114 
L 156.037879 200.207382 
L 156.221657 221.45971 
L 156.282917 221.45971 
L 156.466695 217.842292 
L 156.650473 225.529304 
L 157.079289 200.207382 
L 157.324326 207.894394 
L 157.446845 211.511812 
L 157.630623 205.633508 
L 157.814402 215.581406 
L 157.93692 219.198824 
L 158.059439 214.677052 
L 158.243217 207.894394 
L 158.488255 227.79019 
L 158.610774 235.477202 
L 158.733293 242.259859 
L 158.855811 239.998974 
L 158.917071 222.364064 
L 159.100849 53.701976 
L 159.407146 213.32052 
L 159.529665 221.45971 
L 159.774702 211.511812 
L 160.080999 202.468268 
L 160.203518 195.68561 
L 160.264778 197.042142 
L 160.326037 197.042142 
L 160.509815 200.207382 
L 160.571075 200.207382 
L 161.306188 216.937938 
L 161.489966 201.563914 
L 161.612485 190.259484 
L 161.796263 210.15528 
L 162.0413 246.781632 
L 162.10256 244.520747 
L 162.163819 246.781632 
L 162.225079 239.998974 
L 162.408857 94.397922 
L 162.653894 219.198824 
L 162.837673 242.259859 
L 162.898932 240.903328 
L 163.08271 230.95543 
L 163.14397 230.95543 
L 163.327748 222.364064 
L 163.572785 209.250926 
L 163.634045 209.250926 
L 163.879082 222.364064 
L 164.001601 226.885836 
L 164.12412 220.103178 
L 164.246639 215.581406 
L 164.369158 220.103178 
L 164.430417 225.529304 
L 164.491676 224.62495 
L 164.614195 204.729154 
L 164.675455 205.633508 
L 164.736714 209.250926 
L 165.10427 192.52037 
L 165.288049 219.198824 
L 165.410567 214.677052 
L 165.471827 214.677052 
L 165.533086 205.633508 
L 165.716864 77.667366 
L 166.023161 250.851227 
L 166.084421 258.538238 
L 166.329458 223.268418 
L 166.451977 214.677052 
L 166.697015 136.4504 
L 166.880793 202.468268 
L 167.125831 245.425101 
L 167.18709 245.425101 
L 167.309609 243.164213 
L 167.432128 243.164213 
L 167.677165 232.311962 
L 167.860943 212.416166 
L 168.105981 182.572472 
L 168.16724 184.833358 
L 168.473537 239.09462 
L 168.596056 252.207758 
L 168.841094 236.833734 
L 169.024872 119.719843 
L 169.086131 157.250551 
L 169.147391 221.45971 
L 169.20865 220.103178 
L 169.26991 214.677052 
L 169.331169 215.581406 
L 169.392428 217.842292 
L 169.514947 207.894394 
L 169.637466 199.303028 
L 169.698725 201.563914 
L 169.943763 225.529304 
L 170.127541 222.364064 
L 170.372579 232.311962 
L 170.862654 206.99004 
L 171.168951 236.833734 
L 171.23021 232.311962 
L 171.475248 207.894394 
L 171.536507 205.633508 
L 171.659026 207.894394 
L 171.720286 207.894394 
L 171.965323 226.885836 
L 172.026583 229.146722 
L 172.087842 225.529304 
L 172.149101 213.32052 
L 172.33288 47.823673 
L 172.516658 182.572472 
L 172.577917 181.668118 
L 172.822955 211.511812 
L 173.006733 206.99004 
L 173.067992 213.32052 
L 173.31303 270.747022 
L 173.435549 270.747022 
L 173.558068 282.051451 
L 173.986883 206.99004 
L 174.170662 200.207382 
L 174.35444 204.729154 
L 174.538218 199.303028 
L 174.721996 178.050701 
L 174.844515 167.198447 
L 175.212071 212.416166 
L 175.273331 211.511812 
L 175.33459 213.32052 
L 175.39585 219.198824 
L 175.457109 214.677052 
L 175.640887 76.763013 
L 175.702147 114.293717 
L 175.885925 202.468268 
L 176.069703 216.937938 
L 176.130963 216.937938 
L 176.192222 215.581406 
L 176.376 219.198824 
L 176.682297 213.32052 
L 176.804816 214.677052 
L 176.927335 214.677052 
L 177.172372 207.894394 
L 177.233632 207.894394 
L 177.723707 216.937938 
L 177.784966 216.937938 
L 177.907485 209.250926 
L 178.152523 192.52037 
L 178.275042 197.946496 
L 178.336301 204.729154 
L 178.45882 257.633884 
L 178.520079 256.72953 
L 178.703857 232.311962 
L 178.765117 229.146722 
L 178.948895 94.397922 
L 179.010154 120.6242 
L 179.132673 200.207382 
L 179.193933 199.303028 
L 179.50023 234.572848 
L 179.561489 234.572848 
L 179.745267 225.529304 
L 180.051564 194.781256 
L 180.419121 225.529304 
L 180.48038 223.268418 
L 180.664158 214.677052 
L 180.909196 221.45971 
L 181.031715 215.581406 
L 181.215493 206.99004 
L 181.276752 204.729154 
L 181.46053 187.094244 
L 181.52179 189.35513 
L 181.644309 197.042142 
L 181.828087 223.268418 
L 181.889346 222.364064 
L 181.950606 224.62495 
L 182.011865 234.572848 
L 182.073124 223.268418 
L 182.256903 75.406482 
L 182.50194 210.15528 
L 182.5632 216.937938 
L 182.624459 212.416166 
L 182.685718 209.250926 
L 182.746978 211.511812 
L 182.869497 212.416166 
L 182.992015 209.250926 
L 183.175794 209.250926 
L 183.359572 204.729154 
L 183.604609 212.416166 
L 183.727128 212.416166 
L 183.849647 214.677052 
L 184.033425 211.511812 
L 184.155944 212.416166 
L 184.400982 212.416166 
L 184.5235 204.729154 
L 184.707279 190.259484 
L 184.768538 191.616016 
L 185.319873 239.09462 
L 185.381132 227.79019 
L 185.56491 85.354381 
L 185.809948 207.894394 
L 185.993726 224.62495 
L 186.177504 222.364064 
L 186.361282 225.529304 
L 186.851358 210.15528 
L 186.973876 213.32052 
L 187.218914 209.250926 
L 187.341433 209.250926 
L 187.64773 217.842292 
L 187.770249 214.677052 
L 188.015286 193.876902 
L 188.076546 194.781256 
L 188.260324 207.894394 
L 188.444102 234.572848 
L 188.566621 233.216316 
L 188.62788 235.477202 
L 188.68914 221.45971 
L 188.872918 79.928254 
L 189.056696 200.207382 
L 189.240474 216.937938 
L 189.362993 214.677052 
L 189.485512 215.581406 
L 189.546771 215.581406 
L 189.975587 202.468268 
L 190.220625 206.99004 
L 190.465662 217.842292 
L 190.526922 216.937938 
L 190.649441 214.677052 
L 190.7107 214.677052 
L 190.833219 213.32052 
L 191.016997 217.842292 
L 191.078256 216.937938 
L 191.323294 193.876902 
L 191.384553 194.781256 
L 191.629591 220.103178 
L 191.813369 235.477202 
L 191.935888 237.738088 
L 191.997147 215.581406 
L 192.180926 69.980355 
L 192.364704 190.259484 
L 192.487223 215.581406 
L 192.671001 226.885836 
L 192.854779 226.885836 
L 193.099817 219.198824 
L 193.222335 213.32052 
L 193.467373 216.937938 
L 193.528632 216.937938 
L 193.957448 206.99004 
L 194.018708 207.894394 
L 194.202486 211.511812 
L 194.325005 211.511812 
L 194.631302 192.52037 
L 194.81508 204.729154 
L 195.243896 249.042516 
L 195.366414 160.41579 
L 195.488933 98.919695 
L 195.611452 219.198824 
L 195.672711 215.581406 
L 195.85649 230.051076 
L 195.979008 229.146722 
L 196.162787 222.364064 
L 196.285305 220.103178 
L 196.714121 207.894394 
L 196.83664 205.633508 
L 196.897899 206.99004 
L 196.959159 205.633508 
L 197.081678 206.99004 
L 197.142937 206.99004 
L 197.265456 203.372622 
L 197.449234 209.250926 
L 197.571753 214.677052 
L 197.633012 213.32052 
L 197.939309 194.781256 
L 198.000569 197.946496 
L 198.184347 212.416166 
L 198.368125 239.09462 
L 198.551903 239.09462 
L 198.613163 214.677052 
L 198.735681 96.658807 
L 198.796941 98.919695 
L 198.91946 211.511812 
L 198.980719 207.894394 
L 199.164497 227.79019 
L 199.225757 226.885836 
L 199.348275 223.268418 
L 199.409535 224.62495 
L 199.470794 225.529304 
L 199.593313 222.364064 
L 199.777091 215.581406 
L 200.022129 211.511812 
L 200.144648 213.32052 
L 200.205907 211.511812 
L 200.512204 187.998598 
L 200.573463 190.259484 
L 200.87976 215.581406 
L 201.002279 219.198824 
L 201.247317 200.207382 
L 201.308576 203.372622 
L 201.492354 217.842292 
L 201.676133 247.685985 
L 201.737392 246.781632 
L 201.859911 243.164213 
L 202.043689 106.606706 
L 202.104948 108.867594 
L 202.227467 201.563914 
L 202.288727 200.207382 
L 202.595024 219.198824 
L 202.717542 215.581406 
L 202.96258 224.62495 
L 203.146358 219.198824 
L 203.268877 224.62495 
L 203.330136 223.268418 
L 203.452655 220.103178 
L 203.820212 205.633508 
L 203.881471 205.633508 
L 204.065249 210.15528 
L 204.126509 210.15528 
L 204.249027 207.894394 
L 204.555324 187.998598 
L 204.616584 192.52037 
L 204.800362 212.416166 
L 204.98414 240.903328 
L 205.167919 246.781632 
L 205.351697 109.771948 
L 205.412956 111.128479 
L 205.596734 220.103178 
L 205.719253 235.477202 
L 205.780513 230.95543 
L 205.903031 230.051076 
L 205.964291 230.95543 
L 206.08681 249.946873 
L 206.270588 214.677052 
L 206.331847 211.511812 
L 206.515625 224.62495 
L 206.821922 194.781256 
L 206.944441 195.68561 
L 207.189479 201.563914 
L 207.434516 211.511812 
L 207.557035 204.729154 
L 207.802073 187.094244 
L 207.863332 187.094244 
L 208.353407 236.833734 
L 208.475926 236.833734 
L 208.659704 95.302276 
L 208.720964 105.250175 
L 208.843483 215.581406 
L 208.904742 211.511812 
L 208.966001 213.32052 
L 209.08852 225.529304 
L 209.333558 220.103178 
L 209.517336 220.103178 
L 209.578595 219.198824 
L 209.762374 210.15528 
L 209.946152 213.32052 
L 210.252449 213.32052 
L 210.497486 209.250926 
L 210.558746 210.15528 
L 210.620005 210.15528 
L 210.742524 213.32052 
L 210.803783 212.416166 
L 211.17134 189.35513 
L 211.232599 193.876902 
L 211.416377 210.15528 
L 211.600156 239.09462 
L 211.783934 235.477202 
L 211.967712 91.232684 
L 212.028971 101.18058 
L 212.21275 206.99004 
L 212.396528 223.268418 
L 212.457787 222.364064 
L 212.519047 222.364064 
L 212.580306 223.268418 
L 212.947862 217.842292 
L 213.131641 212.416166 
L 213.376678 212.416166 
L 213.499197 210.15528 
L 213.621716 212.416166 
L 213.805494 209.250926 
L 213.866753 207.894394 
L 214.111791 217.842292 
L 214.17305 216.937938 
L 214.295569 209.250926 
L 214.479347 194.781256 
L 214.724385 214.677052 
L 214.908163 242.259859 
L 214.969423 240.903328 
L 215.091941 243.164213 
L 215.21446 145.041768 
L 215.27572 92.137038 
L 215.336979 93.041392 
L 215.459498 209.250926 
L 215.520757 207.894394 
L 215.582017 211.511812 
L 215.704535 225.529304 
L 215.949573 220.103178 
L 216.072092 221.45971 
L 216.194611 217.842292 
L 216.378389 211.511812 
L 216.562167 213.32052 
L 216.745945 211.511812 
L 216.807205 211.511812 
L 216.990983 207.894394 
L 217.113502 207.894394 
L 217.29728 214.677052 
L 217.358539 213.32052 
L 217.542317 209.250926 
L 217.787355 192.52037 
L 217.848614 193.876902 
L 217.971133 199.303028 
L 218.093652 221.45971 
L 218.27743 235.477202 
L 218.399949 239.09462 
L 218.461208 216.937938 
L 218.644987 94.397922 
L 218.767505 211.511812 
L 218.828765 210.15528 
L 218.890024 212.416166 
L 219.073802 227.79019 
L 219.196321 226.885836 
L 219.441359 226.885836 
L 219.747656 217.842292 
L 219.808915 219.198824 
L 219.931434 217.842292 
L 219.992694 217.842292 
L 220.176472 214.677052 
L 220.421509 207.894394 
L 220.666547 214.677052 
L 220.727806 214.677052 
L 220.850325 210.15528 
L 221.034103 195.68561 
L 221.095363 191.616016 
L 221.156622 192.52037 
L 221.279141 194.781256 
L 221.40166 213.32052 
L 221.585438 224.62495 
L 221.646697 224.62495 
L 221.707957 226.885836 
L 221.769216 210.15528 
L 221.952994 83.54567 
L 222.075513 199.303028 
L 222.136773 195.68561 
L 222.44307 220.103178 
L 222.504329 220.103178 
L 222.688107 222.364064 
L 222.810626 220.103178 
L 223.116923 209.250926 
L 223.178182 210.15528 
L 223.239442 210.15528 
L 223.42322 213.32052 
L 223.545739 212.416166 
L 223.913295 212.416166 
L 224.035814 213.32052 
L 224.158333 206.99004 
L 224.40337 182.572472 
L 224.46463 183.929004 
L 224.648408 194.781256 
L 224.832186 226.885836 
L 224.893446 225.529304 
L 225.015964 230.051076 
L 225.077224 211.511812 
L 225.261002 79.023897 
L 225.383521 199.303028 
L 225.44478 197.042142 
L 225.50604 200.207382 
L 225.689818 215.581406 
L 225.873596 215.581406 
L 226.118634 211.511812 
L 226.241152 209.250926 
L 226.302412 209.250926 
L 226.424931 212.416166 
L 226.547449 215.581406 
L 226.669968 214.677052 
L 226.792487 214.677052 
L 226.853746 215.581406 
L 227.037525 211.511812 
L 227.221303 209.250926 
L 227.343822 211.511812 
L 227.405081 210.15528 
L 227.833897 177.146346 
L 227.895156 177.146346 
L 227.956416 179.407232 
L 228.201453 212.416166 
L 228.323972 220.103178 
L 228.385231 207.894394 
L 228.56901 94.397922 
L 228.752788 215.581406 
L 228.814047 217.842292 
L 228.997825 230.051076 
L 229.120344 226.885836 
L 229.242863 224.62495 
L 229.365382 225.529304 
L 229.732938 215.581406 
L 229.977976 211.511812 
L 230.039235 212.416166 
L 230.161754 212.416166 
L 230.345532 209.250926 
L 230.406792 209.250926 
L 230.713089 216.937938 
L 231.019386 193.876902 
L 231.141904 197.946496 
L 231.264423 205.633508 
L 231.448201 236.833734 
L 231.57072 236.833734 
L 231.63198 239.09462 
L 231.754498 151.824425 
L 231.877017 86.710911 
L 232.060795 206.99004 
L 232.428352 227.79019 
L 232.61213 230.95543 
L 232.918427 215.581406 
L 233.224724 212.416166 
L 233.285983 212.416166 
L 233.408502 215.581406 
L 233.531021 220.103178 
L 233.65354 244.520747 
L 233.714799 235.477202 
L 233.898578 222.364064 
L 234.021096 240.903328 
L 234.082356 236.833734 
L 234.327393 179.407232 
L 234.388653 180.311586 
L 234.572431 197.946496 
L 234.756209 226.885836 
L 234.817469 226.885836 
L 234.939987 223.268418 
L 235.062506 125.14597 
L 235.185025 59.128103 
L 235.368803 181.668118 
L 235.430063 187.094244 
L 235.613841 211.511812 
L 235.6751 211.511812 
L 235.73636 212.416166 
L 235.858878 210.15528 
L 236.165175 202.468268 
L 236.226435 202.468268 
L 236.532732 210.15528 
L 236.593991 210.15528 
L 236.839029 215.581406 
L 236.961548 212.416166 
L 237.206585 221.45971 
L 237.329104 221.45971 
L 237.451623 214.677052 
L 237.635401 199.303028 
L 237.69666 200.207382 
L 237.941698 227.79019 
L 238.064217 243.164213 
L 238.186736 243.164213 
L 238.247995 246.781632 
L 238.370514 154.989663 
L 238.493033 94.397922 
L 238.615551 210.15528 
L 238.676811 209.250926 
L 238.73807 211.511812 
L 238.921848 225.529304 
L 239.350664 217.842292 
L 239.534442 207.894394 
L 239.595702 209.250926 
L 239.656961 210.15528 
L 239.840739 214.677052 
L 239.901999 214.677052 
L 240.024518 213.32052 
L 240.085777 213.32052 
L 240.330815 206.99004 
L 240.514593 210.15528 
L 240.575852 209.250926 
L 241.004668 187.998598 
L 241.188446 192.52037 
L 241.494743 236.833734 
L 241.556003 239.998974 
L 241.617262 221.45971 
L 241.80104 85.354381 
L 241.923559 203.372622 
L 241.984818 202.468268 
L 242.229856 224.62495 
L 242.291115 223.268418 
L 242.536153 227.79019 
L 242.84245 215.581406 
L 242.903709 215.581406 
L 243.210006 212.416166 
L 243.271266 212.416166 
L 243.393785 213.32052 
L 243.577563 210.15528 
L 243.8226 216.937938 
L 243.88386 216.937938 
L 244.006379 213.32052 
L 244.251416 193.876902 
L 244.312676 194.781256 
L 244.557713 220.103178 
L 244.741491 234.572848 
L 244.802751 234.572848 
L 244.86401 235.477202 
L 244.92527 216.937938 
L 245.109048 82.189139 
L 245.292826 202.468268 
L 245.354085 203.372622 
L 245.537864 219.198824 
L 245.599123 219.198824 
L 245.660382 217.842292 
L 245.844161 220.103178 
L 245.966679 216.937938 
L 246.211717 209.250926 
L 246.334236 211.511812 
L 246.518014 211.511812 
L 246.640533 213.32052 
L 246.94683 210.15528 
L 247.130608 217.842292 
L 247.191867 219.198824 
L 247.314386 214.677052 
L 247.559424 194.781256 
L 247.620683 195.68561 
L 247.804461 207.894394 
L 247.98824 236.833734 
L 248.110759 235.477202 
L 248.172018 236.833734 
L 248.233277 219.198824 
L 248.417056 81.284785 
L 248.539574 199.303028 
L 248.600834 197.946496 
L 248.662093 200.207382 
L 248.784612 217.842292 
L 248.845871 216.937938 
L 249.02965 219.198824 
L 249.152168 217.842292 
L 249.274687 217.842292 
L 249.580984 213.32052 
L 249.703503 214.677052 
L 249.764762 214.677052 
L 249.887281 213.32052 
L 249.948541 213.32052 
L 250.132319 209.250926 
L 250.254838 207.894394 
L 250.561135 214.677052 
L 250.744913 204.729154 
L 250.928691 193.876902 
L 251.296247 232.311962 
L 251.418766 230.051076 
L 251.480026 230.051076 
L 251.541285 213.32052 
L 251.725063 72.24124 
L 251.908841 194.781256 
L 252.276398 215.581406 
L 252.460176 219.198824 
L 252.582695 215.581406 
L 252.766473 209.250926 
L 252.827732 210.15528 
L 252.888992 209.250926 
L 253.011511 203.372622 
L 253.07277 204.729154 
L 253.134029 203.372622 
L 253.317808 205.633508 
L 253.440326 202.468268 
L 253.501586 203.372622 
L 253.869142 213.32052 
L 253.930402 211.511812 
L 254.175439 190.259484 
L 254.236699 191.616016 
L 254.420477 203.372622 
L 254.604255 232.311962 
L 254.665514 230.95543 
L 254.726774 230.051076 
L 254.788033 232.311962 
L 254.849293 217.842292 
L 255.033071 72.24124 
L 255.216849 193.876902 
L 255.339368 205.633508 
L 255.400627 210.15528 
L 255.461887 209.250926 
L 255.645665 206.99004 
L 256.319518 230.051076 
L 256.503296 274.36444 
L 256.564556 270.747022 
L 256.687075 246.781632 
L 256.748334 247.685985 
L 256.932112 269.842668 
L 256.993372 269.842668 
L 257.299669 254.468643 
L 257.483447 240.903328 
L 257.667225 207.894394 
L 257.728484 206.99004 
L 257.789744 210.15528 
L 258.034781 242.259859 
L 258.096041 242.259859 
L 258.1573 229.146722 
L 258.341078 93.041392 
L 258.524857 215.581406 
L 258.586116 213.32052 
L 258.708635 215.581406 
L 258.892413 212.416166 
L 258.953672 213.32052 
L 259.014932 213.32052 
L 259.137451 204.729154 
L 259.19871 207.894394 
L 259.259969 210.15528 
L 259.443748 193.876902 
L 259.505007 194.781256 
L 259.566266 193.876902 
L 259.688785 187.998598 
L 259.872563 201.563914 
L 259.933823 200.207382 
L 259.995082 192.52037 
L 260.056342 193.876902 
L 260.17886 215.581406 
L 260.301379 249.946873 
L 260.362639 245.425101 
L 260.791454 197.042142 
L 260.852714 200.207382 
L 261.097751 223.268418 
L 261.22027 260.799123 
L 261.28153 254.468643 
L 261.526567 190.259484 
L 261.649086 117.458959 
L 261.832864 209.250926 
L 261.894124 202.468268 
L 261.955383 204.729154 
L 262.077902 212.416166 
L 262.26168 206.99004 
L 262.384199 210.15528 
L 262.445458 204.729154 
L 262.567977 184.833358 
L 262.751755 193.876902 
L 262.874274 195.68561 
L 262.935534 195.68561 
L 263.119312 206.99004 
L 263.180571 204.729154 
L 263.364349 207.894394 
L 263.486868 203.372622 
L 263.670646 210.15528 
L 263.793165 211.511812 
L 263.854425 211.511812 
L 264.160722 195.68561 
L 264.28324 202.468268 
L 264.3445 192.52037 
L 264.405759 197.042142 
L 264.528278 245.425101 
L 264.650797 230.95543 
L 264.712056 235.477202 
L 264.773316 230.051076 
L 264.957094 91.232684 
L 265.018353 127.406858 
L 265.140872 209.250926 
L 265.202131 207.894394 
L 265.32465 249.042516 
L 265.38591 247.685985 
L 265.508428 233.216316 
L 265.630947 237.738088 
L 265.753466 219.198824 
L 265.937244 206.99004 
L 265.998504 207.894394 
L 266.36606 230.95543 
L 266.549838 247.685985 
L 266.856135 230.95543 
L 266.917395 233.216316 
L 267.039913 235.477202 
L 267.101173 239.998974 
L 267.162432 239.09462 
L 267.468729 203.372622 
L 267.529989 200.207382 
L 267.591248 201.563914 
L 267.652507 204.729154 
L 267.836286 230.051076 
L 267.897545 229.146722 
L 268.020064 221.45971 
L 268.081323 223.268418 
L 268.265101 79.023897 
L 268.326361 99.824049 
L 268.510139 199.303028 
L 268.755177 232.311962 
L 268.938955 237.738088 
L 269.000214 237.738088 
L 269.183992 246.781632 
L 269.245252 244.520747 
L 269.367771 236.833734 
L 269.42903 237.738088 
L 269.551549 237.738088 
L 269.735327 230.95543 
L 269.857846 233.216316 
L 270.286662 225.529304 
L 270.347921 226.885836 
L 270.531699 235.477202 
L 270.654218 220.103178 
L 270.837996 194.781256 
L 270.960515 190.259484 
L 271.021774 195.68561 
L 271.205553 222.364064 
L 271.389331 225.529304 
L 271.573109 76.763013 
L 271.634368 88.971796 
L 271.756887 192.52037 
L 271.818147 191.616016 
L 272.185703 216.937938 
L 272.430741 223.268418 
L 272.553259 223.268418 
L 272.737038 221.45971 
L 272.982075 225.529304 
L 273.104594 222.364064 
L 273.410891 205.633508 
L 273.594669 205.633508 
L 273.655929 206.99004 
L 273.839707 201.563914 
L 274.084744 181.668118 
L 274.268523 192.52037 
L 274.391041 214.677052 
L 274.57482 227.79019 
L 274.636079 227.79019 
L 274.697338 229.146722 
L 274.758598 206.99004 
L 274.942376 79.023897 
L 275.064895 194.781256 
L 275.126154 193.876902 
L 275.371192 212.416166 
L 275.432451 211.511812 
L 275.677489 214.677052 
L 275.983786 209.250926 
L 276.290083 209.250926 
L 276.59638 213.32052 
L 276.718899 210.15528 
L 277.025196 220.103178 
L 277.086455 219.198824 
L 277.454012 189.35513 
L 277.515271 191.616016 
L 277.63779 197.042142 
L 277.882827 230.95543 
L 278.005346 240.903328 
L 278.066606 233.216316 
L 278.250384 102.989291 
L 278.434162 232.311962 
L 278.495421 230.051076 
L 278.61794 235.477202 
L 278.740459 232.311962 
L 279.046756 206.99004 
L 279.291794 199.303028 
L 279.414312 202.468268 
L 279.536831 201.563914 
L 279.598091 201.563914 
L 279.904388 207.894394 
L 280.026906 207.894394 
L 280.394463 217.842292 
L 280.455722 216.937938 
L 280.578241 210.15528 
L 280.70076 201.563914 
L 280.762019 202.468268 
L 281.007057 227.79019 
L 281.190835 252.207758 
L 281.252094 252.207758 
L 281.313354 254.468643 
L 281.374613 253.112112 
L 281.558391 106.606706 
L 281.619651 142.78088 
L 281.74217 225.529304 
L 281.803429 221.45971 
L 281.925948 232.311962 
L 281.987207 230.95543 
L 282.109726 225.529304 
L 282.599801 199.303028 
L 282.661061 197.946496 
L 282.906098 205.633508 
L 283.089876 217.842292 
L 283.151136 215.581406 
L 283.212395 210.15528 
L 283.273655 211.511812 
L 283.579952 240.903328 
L 283.70247 245.425101 
L 283.947508 216.937938 
L 284.315064 168.102804 
L 284.74388 247.685985 
L 284.866399 114.293717 
L 284.927658 126.502504 
L 285.111437 230.051076 
L 285.295215 239.998974 
L 285.356474 239.09462 
L 285.601512 200.207382 
L 285.662771 206.99004 
L 285.846549 226.885836 
L 285.907809 229.146722 
L 286.030328 213.32052 
L 286.152846 217.842292 
L 286.275365 212.416166 
L 286.397884 215.581406 
L 286.459143 216.937938 
L 286.642922 227.79019 
L 286.704181 226.885836 
L 286.76544 224.62495 
L 286.8267 225.529304 
L 287.132997 233.216316 
L 287.255516 227.79019 
L 287.378034 212.416166 
L 287.439294 217.842292 
L 287.80685 273.007906 
L 287.86811 269.842668 
L 287.990628 253.112112 
L 288.235666 81.284785 
L 288.419444 201.563914 
L 288.480704 203.372622 
L 288.787001 239.998974 
L 288.84826 240.903328 
L 289.032038 210.15528 
L 289.093298 212.416166 
L 289.215816 227.79019 
L 289.338335 204.729154 
L 289.522113 182.572472 
L 289.644632 190.259484 
L 289.705892 187.998598 
L 290.073448 171.720219 
L 290.379745 192.52037 
L 290.441004 190.259484 
L 290.563523 183.929004 
L 290.624783 184.833358 
L 290.686042 185.737713 
L 290.808561 197.946496 
L 291.176117 230.051076 
L 291.298636 230.051076 
L 291.359895 207.894394 
L 291.543674 53.701976 
L 291.788711 235.477202 
L 291.849971 242.259859 
L 291.91123 240.903328 
L 292.095008 229.146722 
L 292.156268 229.146722 
L 292.340046 245.425101 
L 292.585084 235.477202 
L 292.707602 239.09462 
L 293.136418 226.885836 
L 293.381456 221.45971 
L 293.626493 225.529304 
L 293.687753 224.62495 
L 294.055309 191.616016 
L 294.484125 253.112112 
L 294.545384 250.851227 
L 294.606644 247.685985 
L 294.667903 226.885836 
L 294.851681 57.771572 
L 295.03546 177.146346 
L 295.096719 171.720219 
L 295.341757 193.876902 
L 295.709313 221.45971 
L 295.770572 219.198824 
L 295.954351 201.563914 
L 296.138129 206.99004 
L 296.199388 205.633508 
L 296.321907 202.468268 
L 296.505685 212.416166 
L 296.566945 211.511812 
L 296.689463 203.372622 
L 296.99576 212.416166 
L 297.05702 211.511812 
L 297.363317 178.050701 
L 297.424576 179.407232 
L 297.485836 180.311586 
L 297.608354 195.68561 
L 297.792133 223.268418 
L 297.853392 224.62495 
L 297.914651 229.146722 
L 297.975911 221.45971 
L 298.159689 64.554229 
L 298.220948 97.563164 
L 298.404727 194.781256 
L 298.588505 221.45971 
L 298.711024 216.937938 
L 298.894802 202.468268 
L 299.07858 204.729154 
L 299.201099 203.372622 
L 299.262358 204.729154 
L 299.323618 201.563914 
L 299.507396 174.885461 
L 299.691174 193.876902 
L 299.813693 191.616016 
L 300.05873 201.563914 
L 300.303768 223.268418 
L 300.365027 221.45971 
L 300.671324 197.042142 
L 300.916362 211.511812 
L 301.10014 234.572848 
L 301.222659 237.738088 
L 301.283918 233.216316 
L 301.467697 82.189139 
L 301.528956 105.250175 
L 301.712734 206.99004 
L 301.957772 229.146722 
L 302.019031 229.146722 
L 302.509106 243.164213 
L 302.570366 242.259859 
L 302.815403 239.09462 
L 302.876663 239.09462 
L 303.244219 233.216316 
L 303.305479 232.311962 
L 303.489257 239.09462 
L 303.611776 232.311962 
L 303.979332 181.668118 
L 304.040591 181.668118 
L 304.16311 178.050701 
L 304.22437 185.737713 
L 304.408148 223.268418 
L 304.530667 212.416166 
L 304.591926 203.372622 
L 304.775704 61.38899 
L 304.836964 79.928254 
L 305.020742 195.68561 
L 305.265779 223.268418 
L 305.388298 220.103178 
L 305.572076 215.581406 
L 305.633336 215.581406 
L 305.817114 212.416166 
L 305.939633 211.511812 
L 306.000892 212.416166 
L 306.368449 227.79019 
L 306.490968 225.529304 
L 306.919783 207.894394 
L 307.22608 177.146346 
L 307.28734 179.407232 
L 307.654896 227.79019 
L 307.716156 230.95543 
L 307.777415 230.051076 
L 307.838674 230.95543 
L 307.899934 235.477202 
L 308.022453 131.928627 
L 308.083712 79.928254 
L 308.144971 89.87615 
L 308.26749 193.876902 
L 308.32875 192.52037 
L 308.696306 221.45971 
L 309.063862 211.511812 
L 309.615197 194.781256 
L 309.737716 193.876902 
L 309.798975 193.876902 
L 309.982753 187.998598 
L 310.28905 202.468268 
L 310.411569 201.563914 
L 310.472829 201.563914 
L 310.656607 193.876902 
L 310.717866 195.68561 
L 310.840385 203.372622 
L 311.024163 250.851227 
L 311.085423 249.946873 
L 311.269201 239.998974 
L 311.452979 127.406858 
L 311.636757 232.311962 
L 311.698017 224.62495 
L 311.759276 224.62495 
L 311.820535 225.529304 
L 312.065573 245.425101 
L 312.188092 257.633884 
L 312.249351 254.468643 
L 312.494389 230.051076 
L 312.555648 230.051076 
L 312.739426 234.572848 
L 312.984464 221.45971 
L 313.045723 224.62495 
L 313.106983 221.45971 
L 313.168242 223.268418 
L 313.35202 239.998974 
L 313.41328 240.903328 
L 313.474539 239.998974 
L 313.842096 190.259484 
L 313.964614 164.937562 
L 314.148393 178.050701 
L 314.39343 223.268418 
L 314.515949 234.572848 
L 314.577208 225.529304 
L 314.760987 63.649875 
L 314.822246 95.302276 
L 315.006024 181.668118 
L 315.189802 209.250926 
L 315.251062 206.99004 
L 315.496099 164.937562 
L 315.557359 167.198447 
L 315.924915 207.894394 
L 316.41499 242.259859 
L 316.47625 234.572848 
L 316.660028 206.99004 
L 316.843806 236.833734 
L 316.905066 226.885836 
L 317.150103 178.050701 
L 317.272622 171.720219 
L 317.4564 194.781256 
L 317.578919 214.677052 
L 317.701438 222.364064 
L 317.885216 212.416166 
L 318.068994 65.458583 
L 318.130254 94.397922 
L 318.314032 199.303028 
L 318.49781 222.364064 
L 318.559069 221.45971 
L 318.804107 215.581406 
L 318.926626 212.416166 
L 319.171663 205.633508 
L 319.232923 205.633508 
L 319.416701 207.894394 
L 319.47796 207.894394 
L 319.661739 211.511812 
L 319.784257 210.15528 
L 320.029295 217.842292 
L 320.213073 221.45971 
L 320.274333 221.45971 
L 320.58063 192.52037 
L 320.703149 200.207382 
L 320.825667 229.146722 
L 320.948186 245.425101 
L 321.070705 230.95543 
L 321.131964 234.572848 
L 321.193224 230.95543 
L 321.377002 87.615265 
L 321.438261 96.658807 
L 321.62204 200.207382 
L 321.683299 203.372622 
L 321.867077 220.103178 
L 321.928337 222.364064 
L 321.989596 221.45971 
L 322.112115 217.842292 
L 322.234634 211.511812 
L 322.418412 222.364064 
L 322.479671 221.45971 
L 322.724709 202.468268 
L 322.847228 195.68561 
L 322.908487 197.946496 
L 322.969746 197.042142 
L 323.092265 194.781256 
L 323.398562 209.250926 
L 323.521081 219.198824 
L 323.58234 217.842292 
L 323.6436 220.103178 
L 323.766119 239.998974 
L 323.949897 189.35513 
L 324.072416 190.259484 
L 324.317453 233.216316 
L 324.439972 230.051076 
L 324.501231 230.95543 
L 324.562491 209.250926 
L 324.746269 76.763013 
L 324.930047 202.468268 
L 325.236344 235.477202 
L 325.297604 232.311962 
L 325.726419 189.35513 
L 325.848938 192.52037 
L 325.971457 230.95543 
L 326.093976 294.260235 
L 326.155235 286.121047 
L 326.400273 205.633508 
L 326.522792 192.52037 
L 326.584051 194.781256 
L 326.767829 204.729154 
L 326.890348 205.633508 
L 326.951607 204.729154 
L 327.257904 189.35513 
L 327.502942 204.729154 
L 327.68672 221.45971 
L 327.809239 230.95543 
L 327.870498 219.198824 
L 328.054277 79.023897 
L 328.238055 211.511812 
L 328.299314 215.581406 
L 328.483092 239.09462 
L 328.605611 230.95543 
L 328.789389 220.103178 
L 328.973168 222.364064 
L 329.279465 212.416166 
L 329.585762 215.581406 
L 329.70828 215.581406 
L 330.075837 221.45971 
L 330.137096 221.45971 
L 330.259615 216.937938 
L 330.504653 191.616016 
L 330.565912 192.52037 
L 330.933468 233.216316 
L 331.117247 224.62495 
L 331.178506 213.32052 
L 331.362284 71.336886 
L 331.546062 192.52037 
L 331.607322 192.52037 
L 331.852359 213.32052 
L 331.913619 219.198824 
L 331.974878 215.581406 
L 332.403694 200.207382 
L 332.464953 201.563914 
L 332.893769 212.416166 
L 333.138807 202.468268 
L 333.322585 215.581406 
L 333.445104 222.364064 
L 333.506363 222.364064 
L 333.567623 220.103178 
L 333.81266 202.468268 
L 333.996438 216.937938 
L 334.241476 247.685985 
L 334.302735 246.781632 
L 334.486514 233.216316 
L 334.670292 89.87615 
L 334.915329 209.250926 
L 335.099108 225.529304 
L 335.344145 222.364064 
L 335.466664 223.268418 
L 335.772961 210.15528 
L 335.834221 210.15528 
L 335.89548 209.250926 
L 336.079258 202.468268 
L 336.140518 202.468268 
L 336.263036 203.372622 
L 336.446815 212.416166 
L 336.508074 211.511812 
L 336.569333 212.416166 
L 336.753112 224.62495 
L 337.059409 211.511812 
L 337.181927 203.372622 
L 337.365706 213.32052 
L 337.549484 239.998974 
L 337.733262 232.311962 
L 337.794521 217.842292 
L 337.9783 85.354381 
L 338.162078 189.35513 
L 338.345856 178.050701 
L 338.407115 180.311586 
L 338.713412 225.529304 
L 338.774672 226.885836 
L 338.835931 224.62495 
L 339.264747 169.459335 
L 339.632303 237.738088 
L 339.693563 236.833734 
L 339.9386 217.842292 
L 340.122379 227.79019 
L 340.489935 197.946496 
L 340.918751 232.311962 
L 341.04127 230.95543 
L 341.102529 220.103178 
L 341.286307 82.189139 
L 341.470085 203.372622 
L 341.531345 205.633508 
L 341.715123 221.45971 
L 341.837642 221.45971 
L 341.960161 224.62495 
L 342.02142 224.62495 
L 342.450236 212.416166 
L 342.572755 213.32052 
L 342.879052 213.32052 
L 343.124089 209.250926 
L 343.185349 210.15528 
L 343.369127 214.677052 
L 343.491646 212.416166 
L 343.736683 191.616016 
L 343.797943 192.52037 
L 344.04298 219.198824 
L 344.165499 235.477202 
L 344.226758 235.477202 
L 344.349277 239.998974 
L 344.410537 224.62495 
L 344.594315 81.284785 
L 344.839352 209.250926 
L 345.023131 227.79019 
L 345.206909 234.572848 
L 345.390687 226.885836 
L 345.635725 206.99004 
L 345.696984 206.99004 
L 345.758243 207.894394 
L 346.06454 221.45971 
L 346.187059 221.45971 
L 346.493356 205.633508 
L 346.677134 207.894394 
L 346.738394 206.99004 
L 347.044691 184.833358 
L 347.10595 187.094244 
L 347.289728 201.563914 
L 347.473507 229.146722 
L 347.534766 230.95543 
L 347.596025 229.146722 
L 347.657285 230.95543 
L 347.718544 210.15528 
L 347.902322 85.354381 
L 348.024841 201.563914 
L 348.086101 200.207382 
L 348.453657 223.268418 
L 348.576176 223.268418 
L 348.637435 224.62495 
L 348.759954 221.45971 
L 349.004992 210.15528 
L 349.311289 214.677052 
L 349.433807 213.32052 
L 349.495067 214.677052 
L 349.740105 211.511812 
L 349.923883 211.511812 
L 350.046402 209.250926 
L 350.352699 184.833358 
L 350.413958 187.094244 
L 350.597736 200.207382 
L 350.781514 229.146722 
L 350.904033 227.79019 
L 350.965293 227.79019 
L 351.087811 125.14597 
L 351.149071 77.667366 
L 351.21033 83.54567 
L 351.394108 193.876902 
L 351.761665 216.937938 
L 351.945443 224.62495 
L 352.006702 222.364064 
L 352.25174 203.372622 
L 352.312999 202.468268 
L 352.374259 203.372622 
L 352.558037 210.15528 
L 352.680556 207.894394 
L 352.925593 200.207382 
L 353.354409 209.250926 
L 353.538187 200.207382 
L 353.660706 191.616016 
L 353.905744 212.416166 
L 354.089522 239.09462 
L 354.2733 242.259859 
L 354.457078 91.232684 
L 354.518338 107.51106 
L 354.702116 213.32052 
L 354.947154 230.95543 
L 355.008413 230.95543 
L 355.069672 230.051076 
L 355.192191 230.95543 
L 355.31471 227.79019 
L 355.559748 217.842292 
L 355.621007 217.842292 
L 355.927304 214.677052 
L 355.988563 214.677052 
L 356.233601 211.511812 
L 356.29486 211.511812 
L 356.478639 214.677052 
L 356.662417 217.842292 
L 356.968714 202.468268 
L 357.213751 217.842292 
L 357.39753 243.164213 
L 357.458789 242.259859 
L 357.520048 243.164213 
L 357.581308 239.09462 
L 357.765086 84.450024 
L 357.826345 112.937186 
L 357.948864 206.99004 
L 358.010124 205.633508 
L 358.193902 223.268418 
L 358.255161 221.45971 
L 358.438939 221.45971 
L 358.622718 225.529304 
L 358.806496 220.103178 
L 358.867755 220.103178 
L 358.929015 219.198824 
L 358.990274 220.103178 
L 359.41909 213.32052 
L 359.664127 203.372622 
L 359.725387 203.372622 
L 359.847906 205.633508 
L 359.909165 205.633508 
L 360.031684 202.468268 
L 360.215462 191.616016 
L 360.276721 192.52037 
L 360.705537 244.520747 
L 360.766797 243.164213 
L 360.828056 244.520747 
L 360.889315 237.738088 
L 361.073094 87.615265 
L 361.134353 128.763388 
L 361.256872 207.894394 
L 361.318131 205.633508 
L 361.501909 221.45971 
L 361.624428 219.198824 
L 361.685688 220.103178 
L 361.930725 217.842292 
L 361.991985 219.198824 
L 362.237022 215.581406 
L 362.359541 215.581406 
L 362.4208 217.842292 
L 362.543319 212.416166 
L 362.665838 213.32052 
L 362.727097 212.416166 
L 362.972135 203.372622 
L 363.033394 203.372622 
L 363.278432 209.250926 
L 363.52347 193.876902 
L 363.584729 194.781256 
L 363.952286 239.998974 
L 364.074804 237.738088 
L 364.136064 239.09462 
L 364.197323 225.529304 
L 364.381101 79.023897 
L 364.56488 200.207382 
L 364.626139 203.372622 
L 364.809917 219.198824 
L 364.993695 219.198824 
L 365.054955 222.364064 
L 365.116214 221.45971 
L 365.361252 210.15528 
L 365.422511 210.15528 
L 365.54503 211.511812 
L 365.606289 210.15528 
L 365.851327 197.946496 
L 366.035105 204.729154 
L 366.096365 203.372622 
L 366.280143 209.250926 
L 366.52518 224.62495 
L 366.647699 220.103178 
L 366.770218 213.32052 
L 366.831477 206.99004 
L 366.892737 209.250926 
L 366.953996 211.511812 
L 367.015256 210.15528 
L 367.076515 210.15528 
L 367.321553 239.998974 
L 367.444071 237.738088 
L 367.505331 216.937938 
L 367.689109 88.971796 
L 367.872887 206.99004 
L 368.240444 232.311962 
L 368.424222 236.833734 
L 368.485481 235.477202 
L 368.669259 222.364064 
L 368.791778 234.572848 
L 368.853038 232.311962 
L 368.975556 225.529304 
L 369.220594 229.146722 
L 369.771929 214.677052 
L 369.894447 209.250926 
L 370.139485 189.35513 
L 370.384523 201.563914 
L 370.568301 227.79019 
L 370.69082 227.79019 
L 370.752079 226.885836 
L 370.874598 131.928627 
L 370.997117 76.763013 
L 371.180895 195.68561 
L 371.242154 197.946496 
L 371.548451 257.633884 
L 371.609711 255.372996 
L 371.793489 217.842292 
L 371.916008 239.09462 
L 371.977267 230.95543 
L 372.406083 164.033208 
L 372.467342 174.885461 
L 372.71238 202.468268 
L 372.773639 201.563914 
L 372.896158 197.946496 
L 373.018677 201.563914 
L 373.141196 206.99004 
L 373.202455 205.633508 
L 373.386233 200.207382 
L 373.447493 199.303028 
L 373.876308 232.311962 
L 373.937568 232.311962 
L 374.060087 235.477202 
L 374.243865 96.658807 
L 374.305124 109.771948 
L 374.427643 210.15528 
L 374.488902 205.633508 
L 374.550162 206.99004 
L 374.672681 215.581406 
L 374.917718 207.894394 
L 375.162756 214.677052 
L 375.285275 211.511812 
L 375.469053 214.677052 
L 375.836609 225.529304 
L 375.959128 222.364064 
L 376.142906 213.32052 
L 376.265425 211.511812 
L 376.387944 213.32052 
L 376.449203 211.511812 
L 376.694241 194.781256 
L 376.7555 193.876902 
L 377.184316 242.259859 
L 377.245575 239.09462 
L 377.306835 239.09462 
L 377.368094 237.738088 
L 377.551872 87.615265 
L 377.613132 109.771948 
L 377.735651 209.250926 
L 377.79691 204.729154 
L 378.041948 214.677052 
L 378.103207 214.677052 
L 378.225726 217.842292 
L 378.348245 220.103178 
L 378.409504 219.198824 
L 378.593282 211.511812 
L 378.715801 211.511812 
L 378.899579 214.677052 
L 379.022098 213.32052 
L 379.144617 214.677052 
L 379.205876 214.677052 
L 379.389655 210.15528 
L 379.450914 210.15528 
L 379.695952 215.581406 
L 379.81847 209.250926 
L 380.063508 190.259484 
L 380.369805 226.885836 
L 380.492324 235.477202 
L 380.553583 235.477202 
L 380.614843 236.833734 
L 380.676102 230.95543 
L 380.85988 79.928254 
L 380.92114 112.032832 
L 381.043658 197.946496 
L 381.104918 195.68561 
L 381.288696 216.937938 
L 381.411215 216.937938 
L 381.594993 220.103178 
L 381.656252 219.198824 
L 381.90129 210.15528 
L 381.962549 210.15528 
L 382.023809 209.250926 
L 382.330106 212.416166 
L 382.452625 212.416166 
L 382.575143 209.250926 
L 382.758922 204.729154 
L 383.003959 212.416166 
L 383.187737 201.563914 
L 383.310256 191.616016 
L 383.371516 192.52037 
L 383.616553 213.32052 
L 383.800331 234.572848 
L 383.861591 233.216316 
L 383.92285 235.477202 
L 383.98411 225.529304 
L 384.167888 81.284785 
L 384.351666 203.372622 
L 384.412925 202.468268 
L 384.596704 219.198824 
L 384.780482 219.198824 
L 384.903001 222.364064 
L 385.025519 219.198824 
L 385.270557 212.416166 
L 385.393076 213.32052 
L 385.454335 213.32052 
L 385.576854 211.511812 
L 385.699373 213.32052 
L 386.00567 210.15528 
L 386.066929 210.15528 
L 386.250707 213.32052 
L 386.373226 211.511812 
L 386.618264 194.781256 
L 386.679523 195.68561 
L 386.924561 217.842292 
L 387.108339 233.216316 
L 387.230858 233.216316 
L 387.292117 221.45971 
L 387.475895 82.189139 
L 387.659674 202.468268 
L 387.720933 204.729154 
L 387.904711 219.198824 
L 388.02723 219.198824 
L 388.149749 222.364064 
L 388.272268 221.45971 
L 388.456046 214.677052 
L 388.578565 212.416166 
L 389.06864 212.416166 
L 389.313677 210.15528 
L 389.558715 213.32052 
L 389.619974 213.32052 
L 389.742493 207.894394 
L 389.926271 192.52037 
L 389.987531 193.876902 
L 390.171309 206.99004 
L 390.416347 234.572848 
L 390.477606 234.572848 
L 390.538865 236.833734 
L 390.600125 221.45971 
L 390.783903 83.54567 
L 390.967681 203.372622 
L 391.028941 206.99004 
L 391.212719 223.268418 
L 391.396497 226.885836 
L 391.641535 219.198824 
L 391.825313 211.511812 
L 391.947832 212.416166 
L 392.009091 212.416166 
L 392.13161 211.511812 
L 392.315388 213.32052 
L 392.437907 211.511812 
L 392.621685 205.633508 
L 392.744204 205.633508 
L 392.866723 206.99004 
L 392.927982 206.99004 
L 393.234279 187.998598 
L 393.295539 189.35513 
L 393.418057 191.616016 
L 393.479317 195.68561 
L 393.663095 222.364064 
L 393.724354 222.364064 
L 393.785614 225.529304 
L 393.846873 234.572848 
L 393.969392 146.398298 
L 394.030651 102.989291 
L 394.091911 112.032832 
L 394.21443 219.198824 
L 394.275689 213.32052 
L 394.336948 214.677052 
L 394.459467 224.62495 
L 394.581986 223.268418 
L 394.704505 266.677426 
L 394.888283 229.146722 
L 395.133321 220.103178 
L 395.255839 220.103178 
L 395.439618 217.842292 
L 395.500877 219.198824 
L 395.807174 210.15528 
L 395.868433 207.894394 
L 395.929693 209.250926 
L 396.17473 212.416166 
L 396.358509 200.207382 
L 396.542287 183.929004 
L 396.909843 234.572848 
L 397.093621 236.833734 
L 397.154881 235.477202 
L 397.338659 88.971796 
L 397.399918 102.989291 
L 397.583697 207.894394 
L 397.828734 222.364064 
L 397.951253 225.529304 
L 398.196291 221.45971 
L 398.380069 215.581406 
L 398.441328 215.581406 
L 398.625106 212.416166 
L 398.686366 213.32052 
L 398.747625 213.32052 
L 398.870144 214.677052 
L 398.992663 214.677052 
L 399.115182 213.32052 
L 399.2377 213.32052 
L 399.360219 214.677052 
L 399.543997 244.520747 
L 399.605257 236.833734 
L 399.850294 185.737713 
L 399.911554 187.998598 
L 400.034073 197.946496 
L 400.27911 232.311962 
L 400.34037 232.311962 
L 400.401629 233.216316 
L 400.462888 226.885836 
L 400.646667 76.763013 
L 400.707926 111.128479 
L 400.830445 202.468268 
L 400.891704 201.563914 
L 401.075482 219.198824 
L 401.626817 209.250926 
L 401.933114 216.937938 
L 402.116892 211.511812 
L 402.239411 212.416166 
L 402.30067 212.416166 
L 402.545708 209.250926 
L 402.729486 213.32052 
L 402.852005 210.15528 
L 403.097043 193.876902 
L 403.158302 194.781256 
L 403.587118 226.885836 
L 403.709637 225.529304 
L 403.770896 215.581406 
L 403.954674 74.502128 
L 404.199712 192.52037 
L 404.444749 212.416166 
L 404.751046 215.581406 
L 404.812306 214.677052 
L 404.996084 210.15528 
L 405.179862 210.15528 
L 405.547419 217.842292 
L 405.853716 214.677052 
L 405.914975 215.581406 
L 406.098753 211.511812 
L 406.40505 187.094244 
L 406.46631 189.35513 
L 406.711347 220.103178 
L 406.895125 243.164213 
L 407.017644 237.738088 
L 407.078904 216.937938 
L 407.262682 75.406482 
L 407.44646 201.563914 
L 407.814017 232.311962 
L 407.875276 232.311962 
L 408.059054 211.511812 
L 408.242832 199.303028 
L 408.304092 199.303028 
L 408.610389 204.729154 
L 408.855426 212.416166 
L 408.977945 209.250926 
L 409.100464 207.894394 
L 409.406761 214.677052 
L 409.774317 190.259484 
L 409.958096 203.372622 
L 410.141874 233.216316 
L 410.264393 230.95543 
L 410.325652 232.311962 
L 410.386911 215.581406 
L 410.57069 84.450024 
L 410.693208 203.372622 
L 410.754468 201.563914 
L 410.815727 204.729154 
L 410.999505 217.842292 
L 411.060765 217.842292 
L 411.183284 219.198824 
L 411.367062 215.581406 
L 411.428321 214.677052 
L 411.612099 209.250926 
L 411.795878 215.581406 
L 412.224693 203.372622 
L 412.469731 203.372622 
L 412.714769 211.511812 
L 413.021066 204.729154 
L 413.143584 215.581406 
L 413.204844 214.677052 
L 413.266103 216.937938 
L 413.449881 240.903328 
L 413.511141 239.998974 
L 413.5724 239.998974 
L 413.63366 242.259859 
L 413.756178 147.302652 
L 413.878697 93.041392 
L 414.001216 207.894394 
L 414.062475 205.633508 
L 414.123735 209.250926 
L 414.246254 221.45971 
L 414.307513 221.45971 
L 414.491291 225.529304 
L 414.675069 230.051076 
L 414.736329 229.146722 
L 414.736329 229.146722 
" style="fill:none;stroke:#1f77b4;stroke-linecap:square;stroke-width:1.5;"/>
   </g>
   <g id="patch_3">
    <path d="M 57.6 307.584 
L 57.6 41.472 
" style="fill:none;stroke:#000000;stroke-linecap:square;stroke-linejoin:miter;stroke-width:0.8;"/>
   </g>
   <g id="patch_4">
    <path d="M 414.72 307.584 
L 414.72 41.472 
" style="fill:none;stroke:#000000;stroke-linecap:square;stroke-linejoin:miter;stroke-width:0.8;"/>
   </g>
   <g id="patch_5">
    <path d="M 57.6 307.584 
L 414.72 307.584 
" style="fill:none;stroke:#000000;stroke-linecap:square;stroke-linejoin:miter;stroke-width:0.8;"/>
   </g>
   <g id="patch_6">
    <path d="M 57.6 41.472 
L 414.72 41.472 
" style="fill:none;stroke:#000000;stroke-linecap:square;stroke-linejoin:miter;stroke-width:0.8;"/>
   </g>
  </g>
 </g>
 <defs>
  <clipPath id="pbde558bd24">
   <rect height="266.112" width="357.12" x="57.6" y="41.472"/>
  </clipPath>
 </defs>
</svg>
