<?xml version="1.0" encoding="UTF-8" standalone="no"?>
<svg
   xmlns:dc="http://purl.org/dc/elements/1.1/"
   xmlns:cc="http://creativecommons.org/ns#"
   xmlns:rdf="http://www.w3.org/1999/02/22-rdf-syntax-ns#"
   xmlns:svg="http://www.w3.org/2000/svg"
   xmlns="http://www.w3.org/2000/svg"
   xmlns:sodipodi="http://sodipodi.sourceforge.net/DTD/sodipodi-0.dtd"
   xmlns:inkscape="http://www.inkscape.org/namespaces/inkscape"
   width="210mm"
   height="297mm"
   viewBox="0 0 210 297"
   version="1.1"
   id="svg116324"
   inkscape:version="1.0.2-2 (e86c870879, 2021-01-15)">
  <defs
     id="defs116318">
    <clipPath
       id="pb46b2f9440-0-9-7-3-0">
      <rect
         height="266.112"
         width="357.12"
         x="57.599998"
         y="41.472"
         id="rect115072-7-20-2-4" />
    </clipPath>
    <clipPath
       id="pb46b2f9440-0-9-7-3-9">
      <rect
         height="266.112"
         width="357.12"
         x="57.599998"
         y="41.472"
         id="rect115072-7-20-2-6" />
    </clipPath>
    <clipPath
       id="pb46b2f9440-0-9-7-3-1">
      <rect
         height="266.112"
         width="357.12"
         x="57.599998"
         y="41.472"
         id="rect115072-7-20-2-7" />
    </clipPath>
    <clipPath
       id="pb46b2f9440-0-9-7-3-0-6">
      <rect
         height="266.112"
         width="357.12"
         x="57.599998"
         y="41.472"
         id="rect115072-7-20-2-4-4" />
    </clipPath>
    <clipPath
       id="pb46b2f9440-0-9-7-3">
      <rect
         height="266.112"
         width="357.12"
         x="57.599998"
         y="41.472"
         id="rect115072-7-20-2" />
    </clipPath>
    <clipPath
       id="pb46b2f9440-0-9-0">
      <rect
         height="266.112"
         width="357.12"
         x="57.599998"
         y="41.472"
         id="rect115072-7-6" />
    </clipPath>
    <clipPath
       id="pb46b2f9440-0-9-1">
      <rect
         height="266.112"
         width="357.12"
         x="57.599998"
         y="41.472"
         id="rect115072-7-33" />
    </clipPath>
    <clipPath
       id="pb46b2f9440-0-9-7">
      <rect
         height="266.112"
         width="357.12"
         x="57.599998"
         y="41.472"
         id="rect115072-7-20" />
    </clipPath>
    <clipPath
       id="clipPath117033">
      <rect
         height="266.112"
         width="357.12"
         x="57.599998"
         y="41.472"
         id="rect117031" />
    </clipPath>
    <clipPath
       id="clipPath117037">
      <rect
         height="266.112"
         width="357.12"
         x="57.599998"
         y="41.472"
         id="rect117035" />
    </clipPath>
    <clipPath
       id="pb46b2f9440-0-8-7">
      <rect
         height="266.112"
         width="357.12"
         x="57.599998"
         y="41.472"
         id="rect115072-9-8" />
    </clipPath>
    <clipPath
       id="pb46b2f9440-0-9-9">
      <rect
         height="266.112"
         width="357.12"
         x="57.599998"
         y="41.472"
         id="rect115072-7-2" />
    </clipPath>
    <clipPath
       id="pb46b2f9440-0-9-7-7">
      <rect
         height="266.112"
         width="357.12"
         x="57.599998"
         y="41.472"
         id="rect115072-7-20-1" />
    </clipPath>
    <clipPath
       id="clipPath120871">
      <rect
         height="266.112"
         width="357.12"
         x="57.599998"
         y="41.472"
         id="rect120869" />
    </clipPath>
    <clipPath
       id="clipPath120875">
      <rect
         height="266.112"
         width="357.12"
         x="57.599998"
         y="41.472"
         id="rect120873" />
    </clipPath>
    <clipPath
       id="pb46b2f9440-0-8-7-3">
      <rect
         height="266.112"
         width="357.12"
         x="57.599998"
         y="41.472"
         id="rect115072-9-8-2" />
    </clipPath>
    <clipPath
       id="pb46b2f9440-0-9-9-1">
      <rect
         height="266.112"
         width="357.12"
         x="57.599998"
         y="41.472"
         id="rect115072-7-2-5" />
    </clipPath>
    <clipPath
       id="pb46b2f9440-0-9-0-5">
      <rect
         height="266.112"
         width="357.12"
         x="57.599998"
         y="41.472"
         id="rect115072-7-6-1" />
    </clipPath>
    <clipPath
       id="pb46b2f9440-0-9-1-5">
      <rect
         height="266.112"
         width="357.12"
         x="57.599998"
         y="41.472"
         id="rect115072-7-33-1" />
    </clipPath>
    <clipPath
       id="pb46b2f9440-0-9-7-3-9-7">
      <rect
         height="266.112"
         width="357.12"
         x="57.599998"
         y="41.472"
         id="rect115072-7-20-2-6-6" />
    </clipPath>
    <clipPath
       id="pb46b2f9440-0-9-7-3-1-4">
      <rect
         height="266.112"
         width="357.12"
         x="57.599998"
         y="41.472"
         id="rect115072-7-20-2-7-8" />
    </clipPath>
    <clipPath
       id="pb46b2f9440-0-9-7-3-0-6-3">
      <rect
         height="266.112"
         width="357.12"
         x="57.599998"
         y="41.472"
         id="rect115072-7-20-2-4-4-0" />
    </clipPath>
    <clipPath
       id="p7680c07678">
      <rect
         height="44.352001"
         width="357.12"
         x="57.599998"
         y="6.9120002"
         id="rect129165" />
    </clipPath>
    <clipPath
       id="p7680c07678-6">
      <rect
         height="44.352001"
         width="357.12"
         x="57.599998"
         y="6.9120002"
         id="rect129165-7" />
    </clipPath>
    <clipPath
       id="p7680c07678-5">
      <rect
         height="44.352001"
         width="357.12"
         x="57.599998"
         y="6.9120002"
         id="rect129165-9" />
    </clipPath>
    <clipPath
       id="p7680c07678-7">
      <rect
         height="44.352001"
         width="357.12"
         x="57.599998"
         y="6.9120002"
         id="rect129165-5" />
    </clipPath>
    <clipPath
       id="p7680c07678-0">
      <rect
         height="44.352001"
         width="357.12"
         x="57.599998"
         y="6.9120002"
         id="rect129165-0" />
    </clipPath>
    <clipPath
       id="pb46b2f9440-0-9-7-7-5">
      <rect
         height="266.112"
         width="357.12"
         x="57.599998"
         y="41.472"
         id="rect115072-7-20-1-9" />
    </clipPath>
    <clipPath
       id="clipPath129833">
      <rect
         height="266.112"
         width="357.12"
         x="57.599998"
         y="41.472"
         id="rect129831" />
    </clipPath>
    <clipPath
       id="clipPath129837">
      <rect
         height="266.112"
         width="357.12"
         x="57.599998"
         y="41.472"
         id="rect129835" />
    </clipPath>
    <clipPath
       id="pb46b2f9440-0-8-7-3-8">
      <rect
         height="266.112"
         width="357.12"
         x="57.599998"
         y="41.472"
         id="rect115072-9-8-2-4" />
    </clipPath>
    <clipPath
       id="pb46b2f9440-0-9-9-1-7">
      <rect
         height="266.112"
         width="357.12"
         x="57.599998"
         y="41.472"
         id="rect115072-7-2-5-2" />
    </clipPath>
    <clipPath
       id="pb46b2f9440-0-9-0-5-1">
      <rect
         height="266.112"
         width="357.12"
         x="57.599998"
         y="41.472"
         id="rect115072-7-6-1-4" />
    </clipPath>
    <clipPath
       id="pb46b2f9440-0-9-1-5-1">
      <rect
         height="266.112"
         width="357.12"
         x="57.599998"
         y="41.472"
         id="rect115072-7-33-1-3" />
    </clipPath>
    <clipPath
       id="pb46b2f9440-0-9-7-3-9-7-6">
      <rect
         height="266.112"
         width="357.12"
         x="57.599998"
         y="41.472"
         id="rect115072-7-20-2-6-6-4" />
    </clipPath>
    <clipPath
       id="pb46b2f9440-0-9-7-3-1-4-6">
      <rect
         height="266.112"
         width="357.12"
         x="57.599998"
         y="41.472"
         id="rect115072-7-20-2-7-8-9" />
    </clipPath>
    <clipPath
       id="pb46b2f9440-0-9-7-3-0-6-3-0">
      <rect
         height="266.112"
         width="357.12"
         x="57.599998"
         y="41.472"
         id="rect115072-7-20-2-4-4-0-1" />
    </clipPath>
    <clipPath
       id="pb46b2f9440-0-9-7-7-2">
      <rect
         height="266.112"
         width="357.12"
         x="57.599998"
         y="41.472"
         id="rect115072-7-20-1-7" />
    </clipPath>
    <clipPath
       id="clipPath130195">
      <rect
         height="266.112"
         width="357.12"
         x="57.599998"
         y="41.472"
         id="rect130193" />
    </clipPath>
    <clipPath
       id="clipPath130199">
      <rect
         height="266.112"
         width="357.12"
         x="57.599998"
         y="41.472"
         id="rect130197" />
    </clipPath>
    <clipPath
       id="pb46b2f9440-0-8-7-3-1">
      <rect
         height="266.112"
         width="357.12"
         x="57.599998"
         y="41.472"
         id="rect115072-9-8-2-7" />
    </clipPath>
    <clipPath
       id="pb46b2f9440-0-9-9-1-1">
      <rect
         height="266.112"
         width="357.12"
         x="57.599998"
         y="41.472"
         id="rect115072-7-2-5-2-0" />
    </clipPath>
    <clipPath
       id="pb46b2f9440-0-9-0-5-6">
      <rect
         height="266.112"
         width="357.12"
         x="57.599998"
         y="41.472"
         id="rect115072-7-6-1-8" />
    </clipPath>
    <clipPath
       id="pb46b2f9440-0-9-1-5-1-5">
      <rect
         height="266.112"
         width="357.12"
         x="57.599998"
         y="41.472"
         id="rect115072-7-33-1-3-8" />
    </clipPath>
    <clipPath
       id="pb46b2f9440-0-9-7-3-9-7-1">
      <rect
         height="266.112"
         width="357.12"
         x="57.599998"
         y="41.472"
         id="rect115072-7-20-2-6-6-5" />
    </clipPath>
    <clipPath
       id="pb46b2f9440-0-9-7-3-1-4-4">
      <rect
         height="266.112"
         width="357.12"
         x="57.599998"
         y="41.472"
         id="rect115072-7-20-2-7-8-3" />
    </clipPath>
    <clipPath
       id="pb46b2f9440-0-9-7-3-0-6-3-9">
      <rect
         height="266.112"
         width="357.12"
         x="57.599998"
         y="41.472"
         id="rect115072-7-20-2-4-4-0-6" />
    </clipPath>
    <clipPath
       id="p7680c07678-9">
      <rect
         height="44.352001"
         width="357.12"
         x="57.599998"
         y="6.9120002"
         id="rect129165-1" />
    </clipPath>
    <clipPath
       id="p7680c07678-6-6">
      <rect
         height="44.352001"
         width="357.12"
         x="57.599998"
         y="6.9120002"
         id="rect129165-7-0" />
    </clipPath>
    <clipPath
       id="p7680c07678-5-1">
      <rect
         height="44.352001"
         width="357.12"
         x="57.599998"
         y="6.9120002"
         id="rect129165-9-4" />
    </clipPath>
    <clipPath
       id="p7680c07678-7-1">
      <rect
         height="44.352001"
         width="357.12"
         x="57.599998"
         y="6.9120002"
         id="rect129165-5-3" />
    </clipPath>
    <clipPath
       id="p7680c07678-0-3">
      <rect
         height="44.352001"
         width="357.12"
         x="57.599998"
         y="6.9120002"
         id="rect129165-0-6" />
    </clipPath>
    <clipPath
       id="pb46b2f9440-0-9-9-7">
      <rect
         height="266.112"
         width="357.12"
         x="57.599998"
         y="41.472"
         id="rect115072-7-2-5-1" />
    </clipPath>
    <clipPath
       id="pb46b2f9440-0-9-0-9">
      <rect
         height="266.112"
         width="357.12"
         x="57.599998"
         y="41.472"
         id="rect115072-7-6-0" />
    </clipPath>
    <style
       type="text/css"
       id="style130536">*{stroke-linecap:butt;stroke-linejoin:round;}</style>
    <path
       d="M 0 0  L 0 3.5  "
       id="me8c9a68ef8"
       style="stroke:#000000;stroke-width:0.8;" />
    <path
       d="M 2597 2516  Q 3050 2419 3304 2112  Q 3559 1806 3559 1356  Q 3559 666 3084 287  Q 2609 -91 1734 -91  Q 1441 -91 1130 -33  Q 819 25 488 141  L 488 750  Q 750 597 1062 519  Q 1375 441 1716 441  Q 2309 441 2620 675  Q 2931 909 2931 1356  Q 2931 1769 2642 2001  Q 2353 2234 1838 2234  L 1294 2234  L 1294 2753  L 1863 2753  Q 2328 2753 2575 2939  Q 2822 3125 2822 3475  Q 2822 3834 2567 4026  Q 2313 4219 1838 4219  Q 1578 4219 1281 4162  Q 984 4106 628 3988  L 628 4550  Q 988 4650 1302 4700  Q 1616 4750 1894 4750  Q 2613 4750 3031 4423  Q 3450 4097 3450 3541  Q 3450 3153 3228 2886  Q 3006 2619 2597 2516  z "
       id="DejaVuSans-33"
       transform="scale(0.015625)" />
    <path
       d="M 1228 531  L 3431 531  L 3431 0  L 469 0  L 469 531  Q 828 903 1448 1529  Q 2069 2156 2228 2338  Q 2531 2678 2651 2914  Q 2772 3150 2772 3378  Q 2772 3750 2511 3984  Q 2250 4219 1831 4219  Q 1534 4219 1204 4116  Q 875 4013 500 3803  L 500 4441  Q 881 4594 1212 4672  Q 1544 4750 1819 4750  Q 2544 4750 2975 4387  Q 3406 4025 3406 3419  Q 3406 3131 3298 2873  Q 3191 2616 2906 2266  Q 2828 2175 2409 1742  Q 1991 1309 1228 531  z "
       id="DejaVuSans-32"
       transform="scale(0.015625)" />
    <path
       d="M 2034 4250  Q 1547 4250 1301 3770  Q 1056 3291 1056 2328  Q 1056 1369 1301 889  Q 1547 409 2034 409  Q 2525 409 2770 889  Q 3016 1369 3016 2328  Q 3016 3291 2770 3770  Q 2525 4250 2034 4250  z M 2034 4750  Q 2819 4750 3233 4129  Q 3647 3509 3647 2328  Q 3647 1150 3233 529  Q 2819 -91 2034 -91  Q 1250 -91 836 529  Q 422 1150 422 2328  Q 422 3509 836 4129  Q 1250 4750 2034 4750  z "
       id="DejaVuSans-30"
       transform="scale(0.015625)" />
    <path
       d="M 2419 4116  L 825 1625  L 2419 1625  L 2419 4116  z M 2253 4666  L 3047 4666  L 3047 1625  L 3713 1625  L 3713 1100  L 3047 1100  L 3047 0  L 2419 0  L 2419 1100  L 313 1100  L 313 1709  L 2253 4666  z "
       id="DejaVuSans-34"
       transform="scale(0.015625)" />
    <path
       d="M 2113 2584  Q 1688 2584 1439 2293  Q 1191 2003 1191 1497  Q 1191 994 1439 701  Q 1688 409 2113 409  Q 2538 409 2786 701  Q 3034 994 3034 1497  Q 3034 2003 2786 2293  Q 2538 2584 2113 2584  z M 3366 4563  L 3366 3988  Q 3128 4100 2886 4159  Q 2644 4219 2406 4219  Q 1781 4219 1451 3797  Q 1122 3375 1075 2522  Q 1259 2794 1537 2939  Q 1816 3084 2150 3084  Q 2853 3084 3261 2657  Q 3669 2231 3669 1497  Q 3669 778 3244 343  Q 2819 -91 2113 -91  Q 1303 -91 875 529  Q 447 1150 447 2328  Q 447 3434 972 4092  Q 1497 4750 2381 4750  Q 2619 4750 2861 4703  Q 3103 4656 3366 4563  z "
       id="DejaVuSans-36"
       transform="scale(0.015625)" />
    <path
       d="M 2034 2216  Q 1584 2216 1326 1975  Q 1069 1734 1069 1313  Q 1069 891 1326 650  Q 1584 409 2034 409  Q 2484 409 2743 651  Q 3003 894 3003 1313  Q 3003 1734 2745 1975  Q 2488 2216 2034 2216  z M 1403 2484  Q 997 2584 770 2862  Q 544 3141 544 3541  Q 544 4100 942 4425  Q 1341 4750 2034 4750  Q 2731 4750 3128 4425  Q 3525 4100 3525 3541  Q 3525 3141 3298 2862  Q 3072 2584 2669 2484  Q 3125 2378 3379 2068  Q 3634 1759 3634 1313  Q 3634 634 3220 271  Q 2806 -91 2034 -91  Q 1263 -91 848 271  Q 434 634 434 1313  Q 434 1759 690 2068  Q 947 2378 1403 2484  z M 1172 3481  Q 1172 3119 1398 2916  Q 1625 2713 2034 2713  Q 2441 2713 2670 2916  Q 2900 3119 2900 3481  Q 2900 3844 2670 4047  Q 2441 4250 2034 4250  Q 1625 4250 1398 4047  Q 1172 3844 1172 3481  z "
       id="DejaVuSans-38"
       transform="scale(0.015625)" />
    <path
       d="M 0 0  L -3.5 0  "
       id="m58c5982523"
       style="stroke:#000000;stroke-width:0.8;" />
    <path
       d="M 678 2272  L 4684 2272  L 4684 1741  L 678 1741  L 678 2272  z "
       id="DejaVuSans-2212"
       transform="scale(0.015625)" />
    <path
       d="M 794 531  L 1825 531  L 1825 4091  L 703 3866  L 703 4441  L 1819 4666  L 2450 4666  L 2450 531  L 3481 531  L 3481 0  L 794 0  L 794 531  z "
       id="DejaVuSans-31"
       transform="scale(0.015625)" />
    <clipPath
       id="p6b37f14cc6">
      <rect
         height="43.2432"
         width="395.622"
         x="63.81"
         y="6.7392"
         id="rect130713" />
    </clipPath>
    <clipPath
       id="pb46b2f9440-0-9-0-9-7">
      <rect
         height="266.112"
         width="357.12"
         x="57.599998"
         y="41.472"
         id="rect115072-7-6-0-6" />
    </clipPath>
    <clipPath
       id="p6b37f14cc6-7">
      <rect
         height="43.243198"
         width="395.62201"
         x="63.810001"
         y="6.7392001"
         id="rect130713-4" />
    </clipPath>
    <clipPath
       id="p6b37f14cc6-6">
      <rect
         height="43.243198"
         width="395.62201"
         x="63.810001"
         y="6.7392001"
         id="rect130713-9" />
    </clipPath>
    <clipPath
       id="p6b37f14cc6-1">
      <rect
         height="43.243198"
         width="395.62201"
         x="63.810001"
         y="6.7392001"
         id="rect130713-1" />
    </clipPath>
    <clipPath
       id="p6b37f14cc6-9">
      <rect
         height="43.243198"
         width="395.62201"
         x="63.810001"
         y="6.7392001"
         id="rect130713-6" />
    </clipPath>
    <clipPath
       id="p6b37f14cc6-14">
      <rect
         height="43.243198"
         width="395.62201"
         x="63.810001"
         y="6.7392001"
         id="rect130713-3" />
    </clipPath>
    <clipPath
       id="p6b37f14cc6-0">
      <rect
         height="43.243198"
         width="395.62201"
         x="63.810001"
         y="6.7392001"
         id="rect130713-61" />
    </clipPath>
    <clipPath
       id="p6b37f14cc6-8">
      <rect
         height="43.243198"
         width="395.62201"
         x="63.810001"
         y="6.7392001"
         id="rect130713-45" />
    </clipPath>
    <clipPath
       id="p6b37f14cc6-68">
      <rect
         height="43.243198"
         width="395.62201"
         x="63.810001"
         y="6.7392001"
         id="rect130713-8" />
    </clipPath>
    <clipPath
       id="p6b37f14cc6-65">
      <rect
         height="43.243198"
         width="395.62201"
         x="63.810001"
         y="6.7392001"
         id="rect130713-31" />
    </clipPath>
  </defs>
  <sodipodi:namedview
     id="base"
     pagecolor="#ffffff"
     bordercolor="#666666"
     borderopacity="1.0"
     inkscape:pageopacity="0.0"
     inkscape:pageshadow="2"
     inkscape:zoom="0.81604863"
     inkscape:cx="597.44765"
     inkscape:cy="444.77036"
     inkscape:document-units="mm"
     inkscape:current-layer="layer1"
     inkscape:document-rotation="0"
     showgrid="false"
     inkscape:window-width="2400"
     inkscape:window-height="1261"
     inkscape:window-x="2391"
     inkscape:window-y="-9"
     inkscape:window-maximized="1" />
  <metadata
     id="metadata116321">
    <rdf:RDF>
      <cc:Work
         rdf:about="">
        <dc:format>image/svg+xml</dc:format>
        <dc:type
           rdf:resource="http://purl.org/dc/dcmitype/StillImage" />
        <dc:title></dc:title>
      </cc:Work>
    </rdf:RDF>
  </metadata>
  <g
     inkscape:label="Camada 1"
     inkscape:groupmode="layer"
     id="layer1">
    <g
       id="patch_1"
       transform="matrix(0.35277778,0,0,0.35277778,-180.98702,204.168)">
      <path
         d="M 0,56.16 H 510.48 V 0 H 0 Z"
         style="fill:#ffffff"
         id="path130540" />
    </g>
    <g
       id="g131733">
      <g
         id="line2d_9"
         transform="matrix(0.99741161,0,0,1.2176353,-223.85731,77.594665)"
         style="stroke-width:1.63334031;stroke-miterlimit:4;stroke-dasharray:none;font-variation-settings:normal;opacity:1;vector-effect:none;fill:none;fill-opacity:1;stroke:#c357ab;stroke-linecap:square;stroke-linejoin:round;stroke-dashoffset:0;stroke-opacity:1;stop-color:#000000;stop-opacity:1">
        <path
           clip-path="url(#p6b37f14cc6)"
           d="m 287.11737,41.286265 0.40543,-3.448948 0.40543,-5.496148 0.40543,-13.339928 0.40543,5.850489 0.40543,-4.245978 0.40543,3.356703 0.40543,0.580278 0.81086,3.487028 0.81087,0.956299 0.40543,1.125703 0.81086,1.153512 1.21629,0.308024 0.40543,-0.268264 0.40543,0.145547 0.40543,-0.526385 0.40543,-0.257149 0.40543,-0.51248 0.40543,-0.291048 0.40544,-0.820023 0.81086,-2.353237 0.40543,-0.552104 0.40543,-0.853831 0.40543,0.02272 0.40543,1.803995 0.40543,-1.596331 0.40543,-2.671913 0.40543,1.80445 0.40543,3.581544 0.40543,1.168553 0.43228,6.962633 0.9639,6.651935 1.62533,-5.597804 c 0.71707,2.029211 -0.0147,10.238328 1.87411,5.136445 l 0.15304,-2.652955 0.3213,-6.664514 -0.0994,-9.627792 0.40544,6.444081 0.40543,-4.588283 0.40543,-1.723566 0.40543,-0.661617 0.40543,1.056042 0.81086,2.908659 1.21629,3.222381 0.40543,0.769902 0.81087,0.660144 0.81086,-1.063703 0.40543,-0.386564 0.40543,-0.759132 0.40543,-1.033776 0.40543,-1.44924 0.81086,-1.243712 0.40543,0.938351 0.40543,-0.473947 0.40543,-1.654041 0.40544,1.457738 0.81086,6.255152 1.62172,9.239669 0.40543,1.386396 0.40543,0.934715 0.81086,-1.198271 0.40544,0.374431"
           style="fill:none;stroke:#cdcdcd;stroke-width:0.64312079;stroke-linecap:square;stroke-miterlimit:4;stroke-dasharray:none;font-variation-settings:normal;vector-effect:none;fill-opacity:1;stroke-linejoin:round;stroke-dashoffset:0;stroke-opacity:1;stop-color:#000000;stop-opacity:1"
           id="path130696"
           sodipodi:nodetypes="cccccccccccccccccccccccccccccccccccccccccccccccccccccccccccccc"
           transform="matrix(2.53971,0,0,2.53971,-440.79577,-69.188704)" />
      </g>
      <path
         clip-path="url(#p6b37f14cc6-7)"
         d="m 289.95538,24.542733 0.81086,3.487028 0.81087,0.956299 0.40543,1.125703 0.81086,1.153512 1.21629,0.308024 0.40543,-0.268264 0.40543,0.145547 0.40543,-0.526385 0.40543,-0.257149 0.40543,-0.51248 0.40543,-0.291048 0.40544,-0.820023 0.81086,-2.353237 0.40543,-0.552104 0.40543,-0.853831"
         style="font-variation-settings:normal;vector-effect:none;fill:none;fill-opacity:1;stroke:#f2c621;stroke-width:0.64312079;stroke-linecap:square;stroke-linejoin:round;stroke-miterlimit:4;stroke-dasharray:none;stroke-dashoffset:0;stroke-opacity:1;stop-color:#000000"
         id="path130696-3"
         sodipodi:nodetypes="cccccccccccccccc"
         transform="matrix(2.5331363,0,0,3.0924405,-663.51215,-6.6519418)" />
      <g
         id="line2d_9-7"
         transform="matrix(0.99741161,0,0,1.2176353,-173.38007,4.2147817)"
         style="font-variation-settings:normal;vector-effect:none;fill:none;fill-opacity:1;stroke:#c357ab;stroke-width:1.63334031;stroke-linecap:square;stroke-linejoin:round;stroke-miterlimit:4;stroke-dasharray:none;stroke-dashoffset:0;stroke-opacity:1;stop-color:#000000">
        <path
           clip-path="url(#p6b37f14cc6-6)"
           d="m 308.60516,24.131948 0.81086,2.908659 1.21629,3.222381 0.40543,0.769902 0.81087,0.660144 0.81086,-1.063703 0.40543,-0.386564 0.40543,-0.759132 0.40543,-1.033776 0.40543,-1.44924 0.81086,-1.243712 0.40543,0.938351 0.40543,-0.473947 0.40543,-1.654041 0.40544,1.457738"
           style="font-variation-settings:normal;vector-effect:none;fill:none;fill-opacity:1;stroke:#f2c621;stroke-width:0.64312079;stroke-linecap:square;stroke-linejoin:round;stroke-miterlimit:4;stroke-dasharray:none;stroke-dashoffset:0;stroke-opacity:1;stop-color:#000000;stop-opacity:1"
           id="path130696-0"
           sodipodi:nodetypes="ccccccccccccccc"
           transform="matrix(2.53971,0,0,2.53971,-491.404,-8.9244498)" />
      </g>
      <g
         id="line2d_9-6"
         transform="matrix(0.99741161,0,0,1.2176353,-223.85731,77.594665)"
         style="font-variation-settings:normal;vector-effect:none;fill:none;fill-opacity:1;stroke:#1fb1b1;stroke-width:1.63334031;stroke-linecap:round;stroke-linejoin:round;stroke-miterlimit:4;stroke-dasharray:none;stroke-dashoffset:0;stroke-opacity:1;stop-color:#000000">
        <path
           clip-path="url(#p6b37f14cc6-1)"
           d="m 302.70362,43.011911 1.62533,-5.597804 c 0.71707,2.029211 -0.0147,10.238328 1.87411,5.136445"
           style="font-variation-settings:normal;vector-effect:none;fill:none;fill-opacity:1;stroke:#1fb1b1;stroke-width:0.64312079;stroke-linecap:round;stroke-linejoin:round;stroke-miterlimit:4;stroke-dasharray:none;stroke-dashoffset:0;stroke-opacity:1;stop-color:#000000;stop-opacity:1"
           id="path130696-8"
           sodipodi:nodetypes="ccc"
           transform="matrix(2.53971,0,0,2.53971,-440.79577,-69.188704)" />
      </g>
      <g
         id="line2d_9-4"
         transform="matrix(0.99741161,0,0,1.2176353,-135.23071,69.392157)"
         style="font-variation-settings:normal;vector-effect:none;fill:none;fill-opacity:1;stroke:#c357ab;stroke-width:1.63334031;stroke-linecap:square;stroke-linejoin:round;stroke-miterlimit:4;stroke-dasharray:none;stroke-dashoffset:0;stroke-opacity:1;stop-color:#000000">
        <path
           clip-path="url(#p6b37f14cc6-9)"
           d="m 304.77391,41.911211 c 0.12741,2.131227 0.35271,3.546918 1.42915,0.639341 l 0.15304,-2.652955"
           style="font-variation-settings:normal;vector-effect:none;fill:none;fill-opacity:1;stroke:#c357ab;stroke-width:0.64312079;stroke-linecap:square;stroke-linejoin:round;stroke-miterlimit:4;stroke-dasharray:none;stroke-dashoffset:0;stroke-opacity:1;stop-color:#000000;stop-opacity:1"
           id="path130696-9"
           sodipodi:nodetypes="ccc"
           transform="matrix(2.53971,0,0,2.53971,-529.65237,-62.45228)" />
      </g>
      <g
         id="line2d_9-3"
         transform="matrix(0.99741161,0,0,1.2176353,-223.85731,77.594665)"
         style="font-variation-settings:normal;vector-effect:none;fill:none;fill-opacity:1;stroke:#c357ab;stroke-width:1.63334031;stroke-linecap:square;stroke-linejoin:round;stroke-miterlimit:4;stroke-dasharray:none;stroke-dashoffset:0;stroke-opacity:1;stop-color:#000000">
        <path
           clip-path="url(#p6b37f14cc6-14)"
           d="m 301.73972,36.359976 0.9639,6.651935 0.41143,-1.417022"
           style="font-variation-settings:normal;vector-effect:none;fill:none;fill-opacity:1;stroke:#c357ab;stroke-width:0.64312079;stroke-linecap:square;stroke-linejoin:round;stroke-miterlimit:4;stroke-dasharray:none;stroke-dashoffset:0;stroke-opacity:1;stop-color:#000000;stop-opacity:1"
           id="path130696-90"
           sodipodi:nodetypes="ccc"
           transform="matrix(2.53971,0,0,2.53971,-440.79577,-69.188704)" />
      </g>
      <g
         id="line2d_9-2"
         transform="matrix(0.99741161,0,0,1.2176353,-373.48936,41.374529)"
         style="font-variation-settings:normal;vector-effect:none;fill:none;fill-opacity:1;stroke:#c357ab;stroke-width:1.63334031;stroke-linecap:square;stroke-linejoin:round;stroke-miterlimit:4;stroke-dasharray:none;stroke-dashoffset:0;stroke-opacity:1;stop-color:#000000">
        <path
           clip-path="url(#p6b37f14cc6-0)"
           d="m 297.65857,26.69026 0.40543,-0.552104 0.40543,-0.853831 0.40543,0.02272 0.40543,1.803995 0.40543,-1.596331 0.40543,-2.671913 0.40543,1.80445 0.40543,3.581544 0.40543,1.168553"
           style="font-variation-settings:normal;vector-effect:none;fill:none;fill-opacity:1;stroke:#2f3e65;stroke-width:0.64312079;stroke-linecap:square;stroke-linejoin:round;stroke-miterlimit:4;stroke-dasharray:none;stroke-dashoffset:0;stroke-opacity:1;stop-color:#000000;stop-opacity:1"
           id="path130696-4"
           sodipodi:nodetypes="cccccccccc"
           transform="matrix(2.53971,0,0,2.53971,-290.77541,-39.442411)" />
      </g>
      <g
         id="line2d_9-43"
         transform="matrix(0.99741161,0,0,1.2176353,-316.54164,49.070452)"
         style="font-variation-settings:normal;vector-effect:none;fill:none;fill-opacity:1;stroke:#c357ab;stroke-width:1.63334031;stroke-linecap:square;stroke-linejoin:round;stroke-miterlimit:4;stroke-dasharray:none;stroke-dashoffset:0;stroke-opacity:1;stop-color:#000000">
        <path
           clip-path="url(#p6b37f14cc6-8)"
           d="m 288.09909,26.719426 0.23457,-7.718185 0.40543,5.850489 0.40543,-4.245978 0.40543,3.356703 0.40543,0.580278"
           style="font-variation-settings:normal;vector-effect:none;fill:none;fill-opacity:1;stroke:#2f3e65;stroke-width:0.64312079;stroke-linecap:square;stroke-linejoin:round;stroke-miterlimit:4;stroke-dasharray:none;stroke-dashoffset:0;stroke-opacity:1;stop-color:#000000;stop-opacity:1"
           id="path130696-48"
           sodipodi:nodetypes="cccccc"
           transform="matrix(2.53971,0,0,2.53971,-347.87091,-45.762796)" />
      </g>
      <g
         id="line2d_9-9"
         transform="matrix(0.99741161,0,0,1.2176353,-200.79965,-15.743877)"
         style="font-variation-settings:normal;vector-effect:none;fill:none;fill-opacity:1;stroke:#c357ab;stroke-width:1.63334031;stroke-linecap:square;stroke-linejoin:round;stroke-miterlimit:4;stroke-dasharray:none;stroke-dashoffset:0;stroke-opacity:1;stop-color:#000000">
        <path
           clip-path="url(#p6b37f14cc6-68)"
           d="m 306.578,23.605291 0.40544,6.444081 0.40543,-4.588283 0.40543,-1.723566 0.40543,-0.661617 0.40543,1.056042 0.81086,2.908659"
           style="font-variation-settings:normal;vector-effect:none;fill:none;fill-opacity:1;stroke:#2f3e65;stroke-width:0.64312079;stroke-linecap:square;stroke-linejoin:round;stroke-miterlimit:4;stroke-dasharray:none;stroke-dashoffset:0;stroke-opacity:1;stop-color:#000000;stop-opacity:1"
           id="path130696-31"
           sodipodi:nodetypes="ccccccc"
           transform="matrix(2.53971,0,0,2.53971,-463.91327,7.4668775)" />
      </g>
      <g
         id="line2d_9-70"
         transform="matrix(0.99741161,0,0,1.2176353,-176.8606,-1.9015673)"
         style="font-variation-settings:normal;vector-effect:none;fill:none;fill-opacity:1;stroke:#c357ab;stroke-width:1.63334031;stroke-linecap:square;stroke-linejoin:round;stroke-miterlimit:4;stroke-dasharray:none;stroke-dashoffset:0;stroke-opacity:1;stop-color:#000000">
        <path
           clip-path="url(#p6b37f14cc6-65)"
           d="m 313.96264,28.112584 0.31855,-1.111965 0.81086,-1.243712 0.40543,0.938351 0.40543,-0.473947 0.40543,-1.654041 0.40544,1.457738 0.81086,6.255152"
           style="font-variation-settings:normal;vector-effect:none;fill:none;fill-opacity:1;stroke:#2f3e65;stroke-width:0.64312079;stroke-linecap:square;stroke-linejoin:round;stroke-miterlimit:4;stroke-dasharray:none;stroke-dashoffset:0;stroke-opacity:1;stop-color:#000000;stop-opacity:1"
           id="path130696-89"
           sodipodi:nodetypes="cccccccc"
           transform="matrix(2.53971,0,0,2.53971,-487.91444,-3.9013127)" />
      </g>
    </g>
  </g>
</svg>
