<?xml version="1.0" encoding="utf-8" standalone="no"?>
<!DOCTYPE svg PUBLIC "-//W3C//DTD SVG 1.1//EN"
  "http://www.w3.org/Graphics/SVG/1.1/DTD/svg11.dtd">
<svg height="345.6pt" version="1.1" viewBox="0 0 460.8 345.6" width="460.8pt" xmlns="http://www.w3.org/2000/svg" xmlns:xlink="http://www.w3.org/1999/xlink">
 <metadata>
  <rdf:RDF xmlns:cc="http://creativecommons.org/ns#" xmlns:dc="http://purl.org/dc/elements/1.1/" xmlns:rdf="http://www.w3.org/1999/02/22-rdf-syntax-ns#">
   <cc:Work>
    <dc:type rdf:resource="http://purl.org/dc/dcmitype/StillImage"/>
    <dc:date>2022-06-16T01:21:41.769825</dc:date>
    <dc:format>image/svg+xml</dc:format>
    <dc:creator>
     <cc:Agent>
      <dc:title>Matplotlib v3.4.2, https://matplotlib.org/</dc:title>
     </cc:Agent>
    </dc:creator>
   </cc:Work>
  </rdf:RDF>
 </metadata>
 <defs>
  <style type="text/css">*{stroke-linecap:butt;stroke-linejoin:round;}</style>
 </defs>
 <g id="figure_1">
  <g id="patch_1">
   <path d="M 0 345.6 
L 460.8 345.6 
L 460.8 0 
L 0 0 
z
" style="fill:#ffffff;"/>
  </g>
  <g id="axes_1">
   <g id="patch_2">
    <path d="M 57.6 307.584 
L 414.72 307.584 
L 414.72 41.472 
L 57.6 41.472 
z
" style="fill:#ffffff;"/>
   </g>
   <g id="matplotlib.axis_1">
    <g id="xtick_1">
     <g id="line2d_1">
      <defs>
       <path d="M 0 0 
L 0 3.5 
" id="md53ecb3e43" style="stroke:#000000;stroke-width:0.8;"/>
      </defs>
      <g>
       <use style="stroke:#000000;stroke-width:0.8;" x="73.832727" xlink:href="#md53ecb3e43" y="307.584"/>
      </g>
     </g>
     <g id="text_1">
      <!-- 0 -->
      <g transform="translate(70.651477 322.182437)scale(0.1 -0.1)">
       <defs>
        <path d="M 2034 4250 
Q 1547 4250 1301 3770 
Q 1056 3291 1056 2328 
Q 1056 1369 1301 889 
Q 1547 409 2034 409 
Q 2525 409 2770 889 
Q 3016 1369 3016 2328 
Q 3016 3291 2770 3770 
Q 2525 4250 2034 4250 
z
M 2034 4750 
Q 2819 4750 3233 4129 
Q 3647 3509 3647 2328 
Q 3647 1150 3233 529 
Q 2819 -91 2034 -91 
Q 1250 -91 836 529 
Q 422 1150 422 2328 
Q 422 3509 836 4129 
Q 1250 4750 2034 4750 
z
" id="DejaVuSans-30" transform="scale(0.015625)"/>
       </defs>
       <use xlink:href="#DejaVuSans-30"/>
      </g>
     </g>
    </g>
    <g id="xtick_2">
     <g id="line2d_2">
      <g>
       <use style="stroke:#000000;stroke-width:0.8;" x="127.941818" xlink:href="#md53ecb3e43" y="307.584"/>
      </g>
     </g>
     <g id="text_2">
      <!-- 500 -->
      <g transform="translate(118.398068 322.182437)scale(0.1 -0.1)">
       <defs>
        <path d="M 691 4666 
L 3169 4666 
L 3169 4134 
L 1269 4134 
L 1269 2991 
Q 1406 3038 1543 3061 
Q 1681 3084 1819 3084 
Q 2600 3084 3056 2656 
Q 3513 2228 3513 1497 
Q 3513 744 3044 326 
Q 2575 -91 1722 -91 
Q 1428 -91 1123 -41 
Q 819 9 494 109 
L 494 744 
Q 775 591 1075 516 
Q 1375 441 1709 441 
Q 2250 441 2565 725 
Q 2881 1009 2881 1497 
Q 2881 1984 2565 2268 
Q 2250 2553 1709 2553 
Q 1456 2553 1204 2497 
Q 953 2441 691 2322 
L 691 4666 
z
" id="DejaVuSans-35" transform="scale(0.015625)"/>
       </defs>
       <use xlink:href="#DejaVuSans-35"/>
       <use x="63.623047" xlink:href="#DejaVuSans-30"/>
       <use x="127.246094" xlink:href="#DejaVuSans-30"/>
      </g>
     </g>
    </g>
    <g id="xtick_3">
     <g id="line2d_3">
      <g>
       <use style="stroke:#000000;stroke-width:0.8;" x="182.050909" xlink:href="#md53ecb3e43" y="307.584"/>
      </g>
     </g>
     <g id="text_3">
      <!-- 1000 -->
      <g transform="translate(169.325909 322.182437)scale(0.1 -0.1)">
       <defs>
        <path d="M 794 531 
L 1825 531 
L 1825 4091 
L 703 3866 
L 703 4441 
L 1819 4666 
L 2450 4666 
L 2450 531 
L 3481 531 
L 3481 0 
L 794 0 
L 794 531 
z
" id="DejaVuSans-31" transform="scale(0.015625)"/>
       </defs>
       <use xlink:href="#DejaVuSans-31"/>
       <use x="63.623047" xlink:href="#DejaVuSans-30"/>
       <use x="127.246094" xlink:href="#DejaVuSans-30"/>
       <use x="190.869141" xlink:href="#DejaVuSans-30"/>
      </g>
     </g>
    </g>
    <g id="xtick_4">
     <g id="line2d_4">
      <g>
       <use style="stroke:#000000;stroke-width:0.8;" x="236.16" xlink:href="#md53ecb3e43" y="307.584"/>
      </g>
     </g>
     <g id="text_4">
      <!-- 1500 -->
      <g transform="translate(223.435 322.182437)scale(0.1 -0.1)">
       <use xlink:href="#DejaVuSans-31"/>
       <use x="63.623047" xlink:href="#DejaVuSans-35"/>
       <use x="127.246094" xlink:href="#DejaVuSans-30"/>
       <use x="190.869141" xlink:href="#DejaVuSans-30"/>
      </g>
     </g>
    </g>
    <g id="xtick_5">
     <g id="line2d_5">
      <g>
       <use style="stroke:#000000;stroke-width:0.8;" x="290.269091" xlink:href="#md53ecb3e43" y="307.584"/>
      </g>
     </g>
     <g id="text_5">
      <!-- 2000 -->
      <g transform="translate(277.544091 322.182437)scale(0.1 -0.1)">
       <defs>
        <path d="M 1228 531 
L 3431 531 
L 3431 0 
L 469 0 
L 469 531 
Q 828 903 1448 1529 
Q 2069 2156 2228 2338 
Q 2531 2678 2651 2914 
Q 2772 3150 2772 3378 
Q 2772 3750 2511 3984 
Q 2250 4219 1831 4219 
Q 1534 4219 1204 4116 
Q 875 4013 500 3803 
L 500 4441 
Q 881 4594 1212 4672 
Q 1544 4750 1819 4750 
Q 2544 4750 2975 4387 
Q 3406 4025 3406 3419 
Q 3406 3131 3298 2873 
Q 3191 2616 2906 2266 
Q 2828 2175 2409 1742 
Q 1991 1309 1228 531 
z
" id="DejaVuSans-32" transform="scale(0.015625)"/>
       </defs>
       <use xlink:href="#DejaVuSans-32"/>
       <use x="63.623047" xlink:href="#DejaVuSans-30"/>
       <use x="127.246094" xlink:href="#DejaVuSans-30"/>
       <use x="190.869141" xlink:href="#DejaVuSans-30"/>
      </g>
     </g>
    </g>
    <g id="xtick_6">
     <g id="line2d_6">
      <g>
       <use style="stroke:#000000;stroke-width:0.8;" x="344.378182" xlink:href="#md53ecb3e43" y="307.584"/>
      </g>
     </g>
     <g id="text_6">
      <!-- 2500 -->
      <g transform="translate(331.653182 322.182437)scale(0.1 -0.1)">
       <use xlink:href="#DejaVuSans-32"/>
       <use x="63.623047" xlink:href="#DejaVuSans-35"/>
       <use x="127.246094" xlink:href="#DejaVuSans-30"/>
       <use x="190.869141" xlink:href="#DejaVuSans-30"/>
      </g>
     </g>
    </g>
    <g id="xtick_7">
     <g id="line2d_7">
      <g>
       <use style="stroke:#000000;stroke-width:0.8;" x="398.487273" xlink:href="#md53ecb3e43" y="307.584"/>
      </g>
     </g>
     <g id="text_7">
      <!-- 3000 -->
      <g transform="translate(385.762273 322.182437)scale(0.1 -0.1)">
       <defs>
        <path d="M 2597 2516 
Q 3050 2419 3304 2112 
Q 3559 1806 3559 1356 
Q 3559 666 3084 287 
Q 2609 -91 1734 -91 
Q 1441 -91 1130 -33 
Q 819 25 488 141 
L 488 750 
Q 750 597 1062 519 
Q 1375 441 1716 441 
Q 2309 441 2620 675 
Q 2931 909 2931 1356 
Q 2931 1769 2642 2001 
Q 2353 2234 1838 2234 
L 1294 2234 
L 1294 2753 
L 1863 2753 
Q 2328 2753 2575 2939 
Q 2822 3125 2822 3475 
Q 2822 3834 2567 4026 
Q 2313 4219 1838 4219 
Q 1578 4219 1281 4162 
Q 984 4106 628 3988 
L 628 4550 
Q 988 4650 1302 4700 
Q 1616 4750 1894 4750 
Q 2613 4750 3031 4423 
Q 3450 4097 3450 3541 
Q 3450 3153 3228 2886 
Q 3006 2619 2597 2516 
z
" id="DejaVuSans-33" transform="scale(0.015625)"/>
       </defs>
       <use xlink:href="#DejaVuSans-33"/>
       <use x="63.623047" xlink:href="#DejaVuSans-30"/>
       <use x="127.246094" xlink:href="#DejaVuSans-30"/>
       <use x="190.869141" xlink:href="#DejaVuSans-30"/>
      </g>
     </g>
    </g>
   </g>
   <g id="matplotlib.axis_2">
    <g id="ytick_1">
     <g id="line2d_8">
      <defs>
       <path d="M 0 0 
L -3.5 0 
" id="m5db246b074" style="stroke:#000000;stroke-width:0.8;"/>
      </defs>
      <g>
       <use style="stroke:#000000;stroke-width:0.8;" x="57.6" xlink:href="#m5db246b074" y="280.768194"/>
      </g>
     </g>
     <g id="text_8">
      <!-- −1.5 -->
      <g transform="translate(26.317187 284.567413)scale(0.1 -0.1)">
       <defs>
        <path d="M 678 2272 
L 4684 2272 
L 4684 1741 
L 678 1741 
L 678 2272 
z
" id="DejaVuSans-2212" transform="scale(0.015625)"/>
        <path d="M 684 794 
L 1344 794 
L 1344 0 
L 684 0 
L 684 794 
z
" id="DejaVuSans-2e" transform="scale(0.015625)"/>
       </defs>
       <use xlink:href="#DejaVuSans-2212"/>
       <use x="83.789062" xlink:href="#DejaVuSans-31"/>
       <use x="147.412109" xlink:href="#DejaVuSans-2e"/>
       <use x="179.199219" xlink:href="#DejaVuSans-35"/>
      </g>
     </g>
    </g>
    <g id="ytick_2">
     <g id="line2d_9">
      <g>
       <use style="stroke:#000000;stroke-width:0.8;" x="57.6" xlink:href="#m5db246b074" y="244.387013"/>
      </g>
     </g>
     <g id="text_9">
      <!-- −1.0 -->
      <g transform="translate(26.317187 248.186232)scale(0.1 -0.1)">
       <use xlink:href="#DejaVuSans-2212"/>
       <use x="83.789062" xlink:href="#DejaVuSans-31"/>
       <use x="147.412109" xlink:href="#DejaVuSans-2e"/>
       <use x="179.199219" xlink:href="#DejaVuSans-30"/>
      </g>
     </g>
    </g>
    <g id="ytick_3">
     <g id="line2d_10">
      <g>
       <use style="stroke:#000000;stroke-width:0.8;" x="57.6" xlink:href="#m5db246b074" y="208.005832"/>
      </g>
     </g>
     <g id="text_10">
      <!-- −0.5 -->
      <g transform="translate(26.317187 211.805051)scale(0.1 -0.1)">
       <use xlink:href="#DejaVuSans-2212"/>
       <use x="83.789062" xlink:href="#DejaVuSans-30"/>
       <use x="147.412109" xlink:href="#DejaVuSans-2e"/>
       <use x="179.199219" xlink:href="#DejaVuSans-35"/>
      </g>
     </g>
    </g>
    <g id="ytick_4">
     <g id="line2d_11">
      <g>
       <use style="stroke:#000000;stroke-width:0.8;" x="57.6" xlink:href="#m5db246b074" y="171.624651"/>
      </g>
     </g>
     <g id="text_11">
      <!-- 0.0 -->
      <g transform="translate(34.696875 175.42387)scale(0.1 -0.1)">
       <use xlink:href="#DejaVuSans-30"/>
       <use x="63.623047" xlink:href="#DejaVuSans-2e"/>
       <use x="95.410156" xlink:href="#DejaVuSans-30"/>
      </g>
     </g>
    </g>
    <g id="ytick_5">
     <g id="line2d_12">
      <g>
       <use style="stroke:#000000;stroke-width:0.8;" x="57.6" xlink:href="#m5db246b074" y="135.24347"/>
      </g>
     </g>
     <g id="text_12">
      <!-- 0.5 -->
      <g transform="translate(34.696875 139.042689)scale(0.1 -0.1)">
       <use xlink:href="#DejaVuSans-30"/>
       <use x="63.623047" xlink:href="#DejaVuSans-2e"/>
       <use x="95.410156" xlink:href="#DejaVuSans-35"/>
      </g>
     </g>
    </g>
    <g id="ytick_6">
     <g id="line2d_13">
      <g>
       <use style="stroke:#000000;stroke-width:0.8;" x="57.6" xlink:href="#m5db246b074" y="98.862289"/>
      </g>
     </g>
     <g id="text_13">
      <!-- 1.0 -->
      <g transform="translate(34.696875 102.661508)scale(0.1 -0.1)">
       <use xlink:href="#DejaVuSans-31"/>
       <use x="63.623047" xlink:href="#DejaVuSans-2e"/>
       <use x="95.410156" xlink:href="#DejaVuSans-30"/>
      </g>
     </g>
    </g>
    <g id="ytick_7">
     <g id="line2d_14">
      <g>
       <use style="stroke:#000000;stroke-width:0.8;" x="57.6" xlink:href="#m5db246b074" y="62.481108"/>
      </g>
     </g>
     <g id="text_14">
      <!-- 1.5 -->
      <g transform="translate(34.696875 66.280326)scale(0.1 -0.1)">
       <use xlink:href="#DejaVuSans-31"/>
       <use x="63.623047" xlink:href="#DejaVuSans-2e"/>
       <use x="95.410156" xlink:href="#DejaVuSans-35"/>
      </g>
     </g>
    </g>
   </g>
   <g id="line2d_15">
    <path clip-path="url(#peff7bc45be)" d="M 73.832727 157.094905 
L 74.049164 168.353105 
L 74.157382 167.345466 
L 74.373818 172.130095 
L 74.590255 197.796933 
L 74.914909 205.975096 
L 75.023127 204.449001 
L 75.456 213.462768 
L 75.672436 194.856628 
L 75.780655 198.369213 
L 75.888873 190.473416 
L 76.105309 164.715144 
L 76.321745 154.868636 
L 76.429964 156.737333 
L 76.754618 149.700157 
L 76.971055 151.515514 
L 77.079273 150.967496 
L 77.295709 148.234232 
L 77.403927 157.483219 
L 77.512145 176.366876 
L 77.620364 174.406104 
L 77.8368 160.710609 
L 78.269673 179.978633 
L 78.486109 196.169173 
L 78.702545 204.46865 
L 78.810764 203.279505 
L 78.918982 204.266364 
L 79.243636 217.511201 
L 79.460073 198.655323 
L 79.568291 199.885054 
L 79.676509 198.406107 
L 80.001164 159.686103 
L 80.542255 147.026022 
L 80.866909 150.564989 
L 80.975127 150.458635 
L 81.191564 148.488221 
L 81.408 175.745544 
L 81.624436 159.243055 
L 81.732655 160.46656 
L 82.490182 207.420157 
L 82.5984 209.616795 
L 82.706618 203.464893 
L 83.139491 220.33587 
L 83.355927 209.688389 
L 83.464145 211.933187 
L 83.572364 207.568137 
L 83.7888 193.332242 
L 84.005236 194.056148 
L 84.113455 193.981677 
L 84.329891 193.587194 
L 84.438109 193.673611 
L 84.654545 193.615308 
L 84.762764 193.70067 
L 84.9792 193.325159 
L 85.087418 192.928255 
L 85.195636 192.961278 
L 85.412073 191.952039 
L 85.520291 192.181483 
L 85.736727 187.841406 
L 86.061382 185.042487 
L 86.1696 184.697154 
L 86.386036 183.951327 
L 86.494255 183.212916 
L 86.710691 180.404173 
L 86.818909 180.154106 
L 86.927127 181.141063 
L 87.035345 180.438109 
L 87.251782 182.420266 
L 87.36 184.139356 
L 87.468218 190.858015 
L 87.684655 178.337088 
L 87.901091 179.314498 
L 88.009309 178.892537 
L 88.225745 179.369725 
L 88.442182 178.316817 
L 88.658618 179.367378 
L 88.875055 178.985459 
L 88.983273 178.200656 
L 89.091491 178.531325 
L 89.199709 178.46144 
L 89.416145 175.986242 
L 89.632582 178.397782 
L 89.849018 177.636109 
L 89.957236 178.105948 
L 90.281891 185.099314 
L 90.498327 184.428512 
L 90.606545 187.173996 
L 90.714764 185.955677 
L 90.822982 188.197171 
L 91.147636 179.974094 
L 91.472291 167.112406 
L 92.1216 151.255478 
L 92.229818 152.181636 
L 92.338036 152.283645 
L 92.554473 183.875093 
L 92.662691 178.501682 
L 92.770909 167.67504 
L 92.987345 173.711392 
L 93.636655 205.966132 
L 93.744873 206.078206 
L 93.961309 204.938761 
L 94.177745 209.866976 
L 94.285964 211.09351 
L 94.5024 196.896273 
L 94.610618 199.135868 
L 94.718836 197.748098 
L 95.043491 166.303949 
L 95.6928 158.159661 
L 95.909236 160.054548 
L 96.125673 157.674619 
L 96.342109 187.6221 
L 96.558545 175.675137 
L 96.774982 181.116296 
L 97.099636 200.776718 
L 97.207855 199.886085 
L 97.316073 202.225658 
L 97.424291 207.53516 
L 97.532509 206.933317 
L 97.640727 204.07306 
L 97.965382 206.751762 
L 98.0736 206.597108 
L 98.290036 195.487573 
L 98.398255 199.228678 
L 98.506473 194.599572 
L 98.722909 170.717751 
L 98.939345 161.388856 
L 99.372218 153.428302 
L 99.480436 149.737036 
L 99.805091 152.983398 
L 100.021527 182.30591 
L 100.237964 165.146042 
L 100.4544 173.968924 
L 101.103709 205.020359 
L 101.211927 205.41599 
L 101.320145 204.916654 
L 101.6448 214.154363 
L 101.753018 210.449097 
L 101.969455 199.002272 
L 102.077673 201.481748 
L 102.510545 170.513781 
L 102.618764 170.35744 
L 102.726982 169.307746 
L 102.943418 163.070044 
L 103.268073 159.953527 
L 103.376291 156.440164 
L 103.484509 157.30084 
L 103.592727 155.876352 
L 103.809164 187.50211 
L 104.133818 172.973498 
L 104.566691 188.787837 
L 104.783127 198.73863 
L 104.891345 200.582594 
L 104.999564 204.718079 
L 105.107782 203.575438 
L 105.216 204.524077 
L 105.540655 212.229699 
L 105.757091 196.851386 
L 105.865309 200.404228 
L 105.973527 198.911775 
L 106.298182 173.82064 
L 106.4064 172.056237 
L 106.839273 157.797556 
L 106.947491 158.038555 
L 107.055709 154.743638 
L 107.163927 157.874854 
L 107.272145 156.619889 
L 107.380364 157.88466 
L 107.488582 156.302275 
L 107.705018 185.483773 
L 107.813236 182.718447 
L 108.029673 170.891113 
L 108.462545 190.576993 
L 108.678982 201.978215 
L 108.895418 209.69101 
L 109.003636 207.61213 
L 109.220073 210.596654 
L 109.328291 210.150371 
L 109.436509 212.559596 
L 109.544727 209.351097 
L 109.652945 202.412529 
L 109.869382 204.287261 
L 110.302255 167.310256 
L 110.410473 166.542091 
L 111.059782 158.206008 
L 111.168 157.518592 
L 111.384436 193.179683 
L 111.600873 176.402063 
L 111.709091 176.967441 
L 111.925527 187.808365 
L 112.033745 186.431718 
L 112.250182 204.219773 
L 112.466618 208.715306 
L 112.574836 210.399745 
L 112.683055 208.409787 
L 112.791273 209.04552 
L 113.007709 211.639113 
L 113.115927 213.095824 
L 113.332364 199.707252 
L 113.440582 204.007727 
L 113.5488 202.407109 
L 113.765236 178.042057 
L 113.873455 176.51738 
L 113.981673 173.300709 
L 114.306327 159.745538 
L 114.414545 159.202781 
L 114.630982 154.295297 
L 114.7392 154.236585 
L 114.847418 153.696109 
L 114.955636 158.493514 
L 115.063855 185.572921 
L 115.172073 184.130084 
L 115.388509 168.050392 
L 115.604945 179.151497 
L 115.713164 180.060929 
L 115.821382 184.836091 
L 116.037818 204.615509 
L 116.254255 210.189329 
L 116.362473 209.522767 
L 116.470691 207.091587 
L 116.795345 216.73159 
L 116.903564 212.603105 
L 117.011782 204.145385 
L 117.12 204.919216 
L 117.228218 206.747723 
L 117.661091 179.390575 
L 117.877527 172.91053 
L 118.202182 165.528331 
L 118.3104 166.088997 
L 118.418618 166.022485 
L 118.635055 162.36914 
L 118.851491 196.856241 
L 119.067927 179.595365 
L 119.609018 200.618045 
L 119.825455 208.951053 
L 120.041891 212.609173 
L 120.258327 210.095982 
L 120.474764 212.455823 
L 120.582982 214.415598 
L 120.799418 200.519529 
L 121.015855 204.719966 
L 121.340509 182.970677 
L 122.206255 166.668853 
L 122.314473 165.550256 
L 122.422691 176.405421 
L 122.530909 199.428784 
L 122.747345 186.868241 
L 122.855564 187.849688 
L 123.072 189.666841 
L 123.396655 209.27757 
L 123.504873 208.298871 
L 123.721309 212.90548 
L 123.829527 210.420259 
L 123.937745 210.529262 
L 124.045964 210.477016 
L 124.154182 210.560416 
L 124.2624 212.24533 
L 124.478836 200.87372 
L 124.587055 205.140897 
L 124.695273 204.850539 
L 125.019927 182.652438 
L 125.561018 171.288405 
L 125.669236 168.605045 
L 125.777455 168.893806 
L 125.885673 167.861531 
L 125.993891 165.645228 
L 126.210327 204.503605 
L 126.534982 182.115524 
L 126.751418 189.725961 
L 126.859636 190.527964 
L 127.184291 204.752137 
L 127.292509 207.066046 
L 127.400727 206.471311 
L 127.508945 206.500878 
L 127.617164 207.334395 
L 127.941818 213.68552 
L 128.158255 200.740545 
L 128.266473 204.735817 
L 128.374691 202.712839 
L 128.807564 178.203468 
L 129.348655 171.238101 
L 129.565091 166.742587 
L 129.781527 162.811201 
L 129.997964 196.535731 
L 130.106182 191.163336 
L 130.2144 181.610556 
L 130.322618 182.172263 
L 130.430836 184.188253 
L 130.863709 207.532147 
L 130.971927 206.201243 
L 131.080145 206.860476 
L 131.188364 208.523869 
L 131.296582 206.072915 
L 131.4048 206.190086 
L 131.621236 212.151996 
L 131.729455 214.164917 
L 131.945891 200.717422 
L 132.162327 205.094394 
L 132.486982 183.769175 
L 132.5952 182.066301 
L 132.811636 176.2583 
L 133.244509 168.971912 
L 133.352727 169.123891 
L 133.677382 166.407268 
L 133.893818 198.474003 
L 134.110255 185.189235 
L 134.434909 195.312709 
L 134.543127 197.008595 
L 134.759564 209.549053 
L 135.084218 215.89077 
L 135.192436 212.29805 
L 135.408873 214.304734 
L 135.517091 213.632707 
L 135.625309 215.500412 
L 135.841745 205.024527 
L 135.949964 207.841441 
L 136.058182 205.89238 
L 136.274618 185.336155 
L 136.707491 173.890694 
L 136.815709 171.661819 
L 136.923927 164.7112 
L 137.248582 118.868758 
L 137.3568 111.542806 
L 137.465018 113.799949 
L 137.681455 108.943359 
L 137.897891 107.890943 
L 138.006109 108.768696 
L 138.5472 122.157047 
L 138.763636 135.463059 
L 138.871855 134.926464 
L 139.088291 135.254958 
L 139.196509 135.012217 
L 139.304727 142.956765 
L 139.629382 98.925252 
L 139.7376 95.118315 
L 140.062255 78.096782 
L 140.170473 77.312166 
L 140.386909 85.852583 
L 140.711564 118.277943 
L 140.819782 132.588507 
L 141.036218 131.679866 
L 141.360873 90.480948 
L 141.577309 74.379721 
L 141.793745 68.015757 
L 142.010182 75.285463 
L 142.334836 95.840445 
L 142.659491 150.533958 
L 142.875927 134.839976 
L 142.984145 134.951468 
L 143.092364 156.798319 
L 143.525236 95.14536 
L 143.633455 92.368444 
L 143.958109 77.734064 
L 144.066327 78.440707 
L 144.282764 88.329693 
L 144.715636 132.262159 
L 144.823855 131.882249 
L 144.932073 131.362085 
L 145.148509 99.605885 
L 145.473164 73.597534 
L 145.6896 68.515396 
L 145.906036 76.810756 
L 146.230691 99.68772 
L 146.555345 138.777877 
L 146.663564 134.490257 
L 146.771782 134.805953 
L 146.88 134.555655 
L 146.988218 150.454956 
L 147.421091 98.226113 
L 147.745745 79.354029 
L 147.853964 77.800114 
L 147.962182 79.276601 
L 148.178618 90.517475 
L 148.503273 132.202086 
L 148.611491 131.896122 
L 148.827927 130.904259 
L 149.044364 95.297854 
L 149.369018 72.202189 
L 149.477236 68.231436 
L 149.585455 68.750386 
L 149.801891 78.360302 
L 150.234764 119.62799 
L 150.342982 137.895551 
L 150.559418 133.625924 
L 150.667636 133.729079 
L 150.775855 133.667073 
L 150.884073 145.227771 
L 151.316945 96.329 
L 151.6416 78.395481 
L 151.749818 77.848714 
L 151.858036 79.833139 
L 152.074473 92.676234 
L 152.399127 130.843193 
L 152.507345 130.461162 
L 152.615564 129.988336 
L 153.048436 81.131945 
L 153.373091 68.21802 
L 153.481309 69.85752 
L 153.805964 82.004652 
L 154.130618 124.978559 
L 154.238836 145.325114 
L 154.455273 134.329228 
L 154.563491 134.239919 
L 154.671709 160.055162 
L 155.104582 96.594286 
L 155.2128 93.252034 
L 155.537455 77.750737 
L 155.645673 78.369184 
L 155.753891 81.024799 
L 155.970327 96.969775 
L 156.294982 145.376917 
L 156.619636 211.076698 
L 157.052509 206.548029 
L 157.160727 207.096559 
L 157.377164 210.268509 
L 157.485382 210.826505 
L 157.5936 208.394167 
L 157.701818 210.060658 
L 157.810036 209.726494 
L 157.918255 208.604299 
L 158.134691 201.24414 
L 158.242909 204.121446 
L 158.784 183.519006 
L 159.000436 179.309377 
L 159.325091 172.091766 
L 159.433309 175.631766 
L 159.649745 203.613158 
L 159.866182 188.335241 
L 160.190836 194.302188 
L 160.299055 196.94781 
L 160.623709 210.230828 
L 160.840145 213.157351 
L 160.948364 211.040149 
L 161.1648 215.165663 
L 161.381236 213.590791 
L 161.597673 201.424653 
L 161.705891 204.857689 
L 161.814109 204.173352 
L 162.246982 187.327405 
L 162.463418 182.338793 
L 162.896291 176.614525 
L 163.112727 173.713498 
L 163.220945 202.541243 
L 163.329164 201.219519 
L 163.5456 185.326185 
L 163.653818 187.508924 
L 163.762036 187.43429 
L 163.978473 192.545368 
L 164.194909 209.515178 
L 164.303127 210.219494 
L 164.411345 211.919444 
L 164.519564 210.730045 
L 164.627782 208.05469 
L 164.952436 213.830042 
L 165.060655 211.242511 
L 165.277091 204.423279 
L 165.385309 207.77175 
L 166.034618 190.448208 
L 166.467491 180.380681 
L 166.575709 181.111877 
L 166.683927 180.701575 
L 166.900364 174.318201 
L 167.1168 206.995502 
L 167.441455 187.563195 
L 167.657891 194.109112 
L 167.874327 200.52371 
L 168.090764 210.786471 
L 168.198982 213.001421 
L 168.415418 210.582578 
L 168.740073 214.527246 
L 168.848291 215.208922 
L 169.064727 204.369457 
L 169.281164 207.582357 
L 169.4976 198.804718 
L 169.605818 196.397756 
L 169.714036 197.095895 
L 169.930473 186.071954 
L 170.146909 183.318516 
L 170.363345 181.755865 
L 170.579782 174.57671 
L 170.796218 167.753085 
L 171.012655 201.434668 
L 171.229091 189.415984 
L 171.337309 189.365922 
L 171.553745 196.45639 
L 171.661964 199.403056 
L 171.986618 212.907885 
L 172.203055 215.14839 
L 172.311273 212.064159 
L 172.419491 215.225823 
L 172.527709 215.164354 
L 172.744145 215.842597 
L 172.960582 204.209093 
L 173.177018 208.747188 
L 173.501673 191.891055 
L 173.934545 182.448556 
L 174.042764 181.865099 
L 174.367418 175.404385 
L 174.692073 164.08279 
L 174.908509 200.682412 
L 175.124945 182.760445 
L 175.233164 183.573817 
L 175.4496 190.509282 
L 175.557818 190.67569 
L 175.774255 206.252906 
L 175.882473 206.778706 
L 175.990691 211.329535 
L 176.098909 210.944552 
L 176.207127 209.541264 
L 176.531782 215.288158 
L 176.64 213.395543 
L 176.856436 203.181035 
L 177.072873 206.900409 
L 177.289309 198.057828 
L 177.505745 195.47296 
L 177.938618 173.872881 
L 178.046836 173.850491 
L 178.155055 173.668345 
L 178.263273 174.100334 
L 178.696145 162.08208 
L 178.912582 193.884341 
L 179.129018 179.360079 
L 179.237236 180.314111 
L 179.994764 213.210816 
L 180.102982 212.804878 
L 180.2112 209.385634 
L 180.427636 213.413665 
L 180.535855 215.142995 
L 180.644073 214.430205 
L 180.860509 202.630571 
L 180.968727 204.892378 
L 181.076945 204.10248 
L 181.293382 191.576046 
L 181.4016 188.880942 
L 181.509818 188.975565 
L 181.726255 176.138591 
L 182.159127 169.410276 
L 182.592 160.942095 
L 182.700218 163.86117 
L 182.916655 190.392851 
L 183.024873 180.419348 
L 183.133091 180.47225 
L 183.565964 194.95055 
L 183.674182 205.147066 
L 183.7824 205.00897 
L 183.998836 213.974435 
L 184.215273 211.49488 
L 184.431709 213.803641 
L 184.539927 215.042826 
L 184.864582 200.744058 
L 184.9728 204.066203 
L 185.297455 181.580831 
L 185.513891 175.688084 
L 185.730327 164.539035 
L 185.838545 162.579632 
L 185.946764 163.235768 
L 186.054982 165.389203 
L 186.271418 161.740173 
L 186.487855 156.034498 
L 186.596073 155.139534 
L 186.812509 188.422393 
L 187.028945 172.701311 
L 187.137164 173.960878 
L 187.245382 176.092423 
L 187.786473 207.016083 
L 188.002909 209.700506 
L 188.111127 207.919841 
L 188.435782 214.833657 
L 188.544 214.071807 
L 188.760436 200.324138 
L 188.868655 202.707969 
L 188.976873 199.475727 
L 189.301527 180.17129 
L 189.517964 170.902058 
L 189.842618 162.221435 
L 189.950836 161.296111 
L 190.059055 163.009458 
L 190.275491 162.476734 
L 190.383709 160.60899 
L 190.491927 156.808064 
L 190.600145 161.333951 
L 190.816582 188.66221 
L 191.033018 173.04994 
L 191.465891 191.962638 
L 191.682327 208.664907 
L 191.790545 210.440886 
L 191.898764 217.316971 
L 192.1152 213.682468 
L 192.223418 215.853973 
L 192.331636 215.416167 
L 192.439855 218.545599 
L 192.764509 203.546765 
L 192.872727 207.164246 
L 193.3056 173.569499 
L 193.522036 165.192463 
L 193.630255 164.177453 
L 193.846691 159.54885 
L 193.954909 159.887425 
L 194.279564 154.428054 
L 194.387782 156.666841 
L 194.604218 183.421774 
L 194.820655 173.091965 
L 195.253527 191.419806 
L 195.361745 207.760743 
L 195.469964 207.345076 
L 195.6864 213.595368 
L 195.902836 210.759599 
L 196.011055 213.676111 
L 196.119273 213.076379 
L 196.227491 215.41579 
L 196.768582 193.800128 
L 197.093236 168.371746 
L 197.417891 157.362016 
L 197.634327 151.3534 
L 197.742545 150.802459 
L 197.850764 152.201715 
L 197.958982 150.116887 
L 198.0672 150.140513 
L 198.175418 148.197366 
L 198.391855 178.79427 
L 198.716509 164.607213 
L 199.041164 175.545446 
L 199.149382 182.745007 
L 199.365818 201.051731 
L 199.582255 207.190946 
L 199.690473 204.358744 
L 200.123345 215.435115 
L 200.339782 197.988117 
L 200.448 200.08995 
L 200.556218 197.27617 
L 200.772655 177.956516 
L 201.421964 159.087974 
L 201.530182 159.121378 
L 201.6384 161.28566 
L 201.746618 159.542 
L 201.854836 159.868382 
L 201.963055 158.444876 
L 202.071273 155.24062 
L 202.179491 159.221736 
L 202.395927 184.472351 
L 202.612364 169.874105 
L 203.045236 186.53633 
L 203.261673 203.462913 
L 203.478109 214.267553 
L 203.586327 212.905457 
L 203.694545 211.005692 
L 203.802764 213.393772 
L 203.910982 212.735019 
L 204.0192 215.946966 
L 204.127418 212.068597 
L 204.343855 201.34398 
L 204.452073 206.489479 
L 204.776727 177.70701 
L 205.2096 159.83561 
L 205.534255 154.84244 
L 205.642473 156.460016 
L 205.750691 155.261101 
L 205.858909 158.581259 
L 206.075345 182.192667 
L 206.291782 172.174205 
L 206.4 175.127133 
L 206.616436 183.804682 
L 206.724655 185.959102 
L 206.941091 200.635845 
L 207.157527 211.985772 
L 207.265745 210.670476 
L 207.373964 207.860055 
L 207.5904 211.863243 
L 207.698618 214.1762 
L 208.023273 195.725748 
L 208.131491 195.4612 
L 208.456145 167.557613 
L 209.213673 152.508599 
L 209.321891 155.831219 
L 209.538327 153.184073 
L 209.646545 155.807346 
L 209.862982 180.813329 
L 210.079418 168.881463 
L 210.512291 185.733551 
L 210.728727 204.547401 
L 210.836945 206.333915 
L 211.053382 211.34323 
L 211.1616 208.021735 
L 211.486255 215.678954 
L 211.810909 198.195759 
L 211.919127 203.414868 
L 212.352 177.62258 
L 212.460218 173.866763 
L 212.676655 163.068134 
L 212.784873 159.294814 
L 212.893091 159.759939 
L 213.001309 160.775362 
L 213.109527 160.136991 
L 213.325964 155.62643 
L 213.434182 158.643916 
L 213.650618 183.920256 
L 213.867055 171.858699 
L 214.299927 186.770813 
L 214.516364 204.085172 
L 214.7328 210.772404 
L 214.949236 207.106332 
L 215.057455 209.463889 
L 215.165673 208.769513 
L 215.273891 212.210619 
L 215.382109 208.409516 
L 215.598545 198.962158 
L 215.706764 202.59513 
L 216.031418 177.946691 
L 216.247855 174.4497 
L 216.464291 159.607741 
L 216.680727 156.419565 
L 216.897164 160.457631 
L 217.1136 195.200461 
L 217.330036 177.855093 
L 217.438255 180.499239 
L 217.979345 212.066602 
L 218.304 217.977125 
L 218.412218 215.425676 
L 218.520436 216.571806 
L 218.628655 216.409344 
L 218.736873 217.259362 
L 218.845091 215.780799 
L 219.061527 201.399454 
L 219.169745 206.777389 
L 219.277964 203.492999 
L 219.4944 186.086578 
L 219.710836 179.150879 
L 219.927273 167.622834 
L 220.251927 155.88183 
L 220.360145 155.046286 
L 220.468364 155.6181 
L 220.576582 154.301684 
L 220.793018 190.56523 
L 221.009455 173.56366 
L 221.334109 184.216467 
L 221.550545 199.401345 
L 221.766982 208.191164 
L 221.983418 212.580177 
L 222.091636 210.227179 
L 222.416291 216.967417 
L 222.524509 215.442043 
L 222.740945 203.009418 
L 222.849164 209.400509 
L 222.957382 206.129647 
L 223.173818 189.772069 
L 223.390255 183.11483 
L 223.714909 167.184552 
L 224.147782 159.694668 
L 224.256 159.679799 
L 224.364218 159.551683 
L 224.580655 190.030628 
L 224.797091 177.715729 
L 225.121745 191.774338 
L 225.229964 196.130547 
L 225.4464 208.509871 
L 225.662836 215.053578 
L 225.771055 213.723024 
L 225.879273 210.18797 
L 225.987491 211.314996 
L 226.095709 211.2061 
L 226.203927 214.000691 
L 226.312145 210.919287 
L 226.528582 202.071025 
L 226.6368 206.032778 
L 227.286109 171.991643 
L 227.394327 170.967737 
L 227.718982 163.768119 
L 227.935418 166.745155 
L 228.043636 199.537235 
L 228.151855 195.901067 
L 228.368291 181.15439 
L 229.234036 215.163147 
L 229.450473 211.175472 
L 229.558691 214.270583 
L 229.666909 214.253952 
L 229.775127 216.124722 
L 229.991564 201.238078 
L 230.099782 201.434094 
L 230.208 206.461319 
L 230.749091 173.012627 
L 231.181964 158.238266 
L 231.290182 158.287161 
L 231.3984 158.489284 
L 231.614836 154.826606 
L 231.723055 160.088035 
L 231.831273 188.260861 
L 231.939491 188.035304 
L 232.155927 173.583675 
L 232.5888 192.462575 
L 232.805236 206.470123 
L 233.021673 213.866405 
L 233.238109 210.706594 
L 233.454545 216.33918 
L 233.562764 219.04674 
L 233.887418 204.312336 
L 233.995636 210.177741 
L 234.320291 188.608942 
L 234.536727 182.134831 
L 234.753164 169.803498 
L 234.9696 164.637036 
L 235.077818 164.742822 
L 235.294255 161.258945 
L 235.510691 155.386589 
L 235.618909 158.656145 
L 235.835345 186.081195 
L 236.051782 173.273536 
L 236.484655 186.752028 
L 236.701091 202.423671 
L 236.917527 209.039354 
L 237.133964 205.975162 
L 237.242182 209.238174 
L 237.3504 208.677042 
L 237.458618 212.201214 
L 237.566836 208.763716 
L 237.783273 200.283333 
L 237.891491 204.942185 
L 238.432582 168.295439 
L 238.973673 158.092785 
L 239.081891 158.886726 
L 239.298327 154.956998 
L 239.514764 191.441687 
L 239.7312 173.353735 
L 239.839418 176.2594 
L 240.380509 205.757201 
L 240.596945 211.389054 
L 240.705164 210.985065 
L 240.813382 210.285811 
L 240.9216 213.333481 
L 241.029818 213.318086 
L 241.138036 215.103389 
L 241.246255 213.463023 
L 241.462691 199.402276 
L 241.570909 205.683208 
L 241.679127 200.211446 
L 241.895564 181.076105 
L 242.003782 176.903624 
L 242.112 177.394497 
L 242.328436 167.589498 
L 242.544873 162.428554 
L 242.761309 161.718985 
L 242.977745 158.972192 
L 243.085964 157.735373 
L 243.3024 191.540241 
L 243.518836 173.565281 
L 243.627055 175.860054 
L 244.384582 210.589657 
L 244.4928 210.653733 
L 244.601018 208.587534 
L 244.925673 217.544188 
L 245.033891 216.651713 
L 245.250327 201.202336 
L 245.358545 208.176672 
L 245.466764 203.906953 
L 245.6832 182.981878 
L 246.116073 166.067348 
L 246.332509 161.954723 
L 246.440727 161.32251 
L 246.548945 157.657836 
L 246.657164 159.62154 
L 246.8736 155.062644 
L 246.981818 154.896908 
L 247.198255 182.129069 
L 247.414691 167.755435 
L 247.631127 174.213015 
L 248.280436 203.83279 
L 248.388655 207.455239 
L 248.496873 203.046541 
L 248.713309 208.073594 
L 248.821527 210.38296 
L 248.929745 209.607704 
L 249.146182 196.761108 
L 249.2544 201.465051 
L 249.687273 161.397102 
L 250.120145 154.245289 
L 250.228364 153.443652 
L 250.336582 153.593508 
L 250.4448 155.554303 
L 250.553018 154.271447 
L 250.661236 159.563373 
L 250.769455 182.346698 
L 250.877673 181.558871 
L 251.094109 170.142774 
L 251.418764 185.764247 
L 251.526982 191.940457 
L 251.743418 209.747282 
L 251.959855 214.307864 
L 252.176291 208.793974 
L 252.392727 211.92996 
L 252.500945 214.259227 
L 252.8256 195.892866 
L 252.933818 193.307605 
L 253.366691 161.415782 
L 253.799564 150.69687 
L 254.232436 155.256883 
L 254.340655 155.413199 
L 254.557091 185.301271 
L 254.773527 168.150316 
L 254.989964 176.831768 
L 255.098182 178.605442 
L 255.2064 183.562742 
L 255.422836 204.664808 
L 255.531055 206.417051 
L 255.639273 212.357571 
L 255.747491 212.193169 
L 255.855709 208.046634 
L 256.180364 216.807296 
L 256.288582 213.447698 
L 256.505018 198.187855 
L 256.613236 201.304784 
L 257.154327 160.285744 
L 257.695418 145.237685 
L 257.803636 145.702585 
L 257.911855 147.131049 
L 258.020073 146.404951 
L 258.128291 156.039893 
L 258.236509 177.524589 
L 258.344727 173.813622 
L 258.452945 163.212055 
L 258.669382 169.835942 
L 258.885818 177.140597 
L 259.426909 210.31783 
L 259.535127 208.185207 
L 259.751564 210.31265 
L 259.859782 210.593852 
L 259.968 213.378663 
L 260.184436 200.638077 
L 260.400873 205.608101 
L 260.617309 178.30501 
L 260.941964 162.635449 
L 261.050182 162.632999 
L 261.266618 158.493781 
L 261.591273 161.444406 
L 261.699491 167.004296 
L 261.807709 194.720814 
L 261.915927 191.698924 
L 262.132364 178.278155 
L 262.3488 187.883141 
L 262.565236 199.641891 
L 262.781673 215.611059 
L 262.998109 222.128779 
L 263.106327 217.040045 
L 263.214545 217.445684 
L 263.322764 218.843265 
L 263.430982 217.907801 
L 263.5392 219.667531 
L 263.755636 203.572141 
L 263.863855 204.368991 
L 263.972073 210.089435 
L 264.296727 181.362749 
L 264.7296 166.455333 
L 264.946036 157.635773 
L 265.162473 157.146788 
L 265.378909 153.259277 
L 265.595345 187.791447 
L 265.811782 171.798527 
L 265.92 173.154127 
L 266.136436 181.900839 
L 266.244655 184.908499 
L 266.569309 206.800353 
L 266.785745 212.436884 
L 266.893964 208.041455 
L 267.1104 215.472066 
L 267.218618 216.882645 
L 267.326836 216.859241 
L 267.543273 202.112852 
L 267.651491 206.988101 
L 267.759709 205.255484 
L 267.976145 183.921087 
L 268.192582 179.544824 
L 268.733673 159.380856 
L 268.841891 160.536848 
L 269.058327 157.885743 
L 269.274764 154.696033 
L 269.382982 158.575532 
L 269.599418 186.820336 
L 269.815855 168.846058 
L 270.248727 184.858126 
L 270.465164 203.274739 
L 270.6816 210.144168 
L 270.789818 209.936462 
L 270.898036 207.980233 
L 271.222691 213.930349 
L 271.330909 210.609981 
L 271.439127 200.329125 
L 271.547345 200.377556 
L 271.655564 204.469564 
L 272.088436 167.848873 
L 272.845964 152.470706 
L 272.954182 152.978467 
L 273.0624 150.793284 
L 273.278836 185.213589 
L 273.495273 167.853932 
L 273.928145 188.914912 
L 274.2528 210.233444 
L 274.361018 209.154396 
L 274.469236 209.675 
L 274.577455 207.859759 
L 274.793891 211.970841 
L 274.902109 211.929123 
L 275.010327 212.791496 
L 275.226764 197.304351 
L 275.334982 201.470844 
L 275.4432 196.820655 
L 275.659636 166.419988 
L 275.767855 164.28612 
L 276.092509 152.176651 
L 276.308945 148.972398 
L 276.525382 148.468805 
L 276.6336 149.81437 
L 276.850036 148.828754 
L 276.958255 150.539763 
L 277.174691 178.061374 
L 277.391127 160.755552 
L 277.607564 166.265526 
L 277.824 171.79407 
L 278.040436 196.356666 
L 278.797964 213.458295 
L 278.906182 210.8883 
L 279.122618 196.602262 
L 279.230836 197.756629 
L 279.880145 154.728547 
L 279.988364 154.033811 
L 280.313018 147.734825 
L 280.421236 150.504581 
L 280.529455 150.285583 
L 280.637673 148.972524 
L 280.745891 149.513565 
L 280.854109 148.303394 
L 281.070545 177.582406 
L 281.286982 160.889092 
L 281.503418 165.045527 
L 281.719855 176.16061 
L 281.936291 194.032789 
L 282.260945 200.388185 
L 282.369164 199.868869 
L 282.802036 209.699286 
L 283.018473 192.628383 
L 283.126691 197.161366 
L 283.343127 174.060256 
L 283.559564 157.410166 
L 283.992436 150.924231 
L 284.208873 154.595269 
L 284.317091 156.590225 
L 284.425309 156.229305 
L 284.533527 157.03605 
L 284.641745 155.442154 
L 284.858182 184.446908 
L 285.074618 169.626048 
L 285.182836 170.203485 
L 285.507491 184.128693 
L 285.832145 202.788777 
L 286.048582 207.991781 
L 286.1568 202.888941 
L 286.481455 206.112515 
L 286.589673 208.849069 
L 286.806109 195.470453 
L 286.914327 201.253511 
L 287.022545 196.627764 
L 287.238982 165.780006 
L 287.671855 152.023413 
L 287.780073 152.567947 
L 287.888291 153.495221 
L 287.996509 153.422077 
L 288.104727 156.587806 
L 288.212945 155.887921 
L 288.321164 153.850415 
L 288.429382 157.775963 
L 288.645818 180.243304 
L 288.862255 163.117068 
L 289.295127 181.915787 
L 289.511564 203.988364 
L 289.728 213.78433 
L 289.944436 210.388366 
L 290.052655 213.168953 
L 290.160873 212.973567 
L 290.269091 217.20166 
L 290.377309 213.514272 
L 290.593745 201.830507 
L 290.701964 204.986849 
L 291.026618 170.379138 
L 291.459491 154.331231 
L 291.675927 151.05544 
L 291.784145 152.861838 
L 292.000582 149.99934 
L 292.1088 149.791794 
L 292.217018 148.618513 
L 292.433455 177.069693 
L 292.649891 158.363081 
L 292.974545 167.448075 
L 293.082764 172.457157 
L 293.2992 196.03723 
L 293.623855 208.094027 
L 293.732073 206.558465 
L 294.164945 219.506363 
L 294.381382 199.169092 
L 294.4896 202.753394 
L 294.597818 199.423652 
L 294.814255 171.789724 
L 295.030691 163.47231 
L 295.355345 150.807165 
L 295.571782 151.132828 
L 295.68 152.576711 
L 295.788218 151.352296 
L 295.896436 151.674746 
L 296.004655 151.005657 
L 296.112873 158.50201 
L 296.221091 176.945852 
L 296.329309 174.199989 
L 296.545745 162.81398 
L 296.8704 175.733064 
L 297.411491 207.766761 
L 297.519709 203.508723 
L 297.736145 206.338446 
L 297.844364 205.805786 
L 297.952582 209.955258 
L 298.169018 194.509541 
L 298.277236 197.795593 
L 298.385455 195.634679 
L 298.710109 156.92374 
L 299.142982 147.831448 
L 299.2512 149.006687 
L 299.359418 148.008033 
L 299.684073 150.877209 
L 299.792291 150.950526 
L 300.008727 176.988183 
L 300.225164 161.367673 
L 300.4416 165.180486 
L 300.658036 175.710546 
L 300.874473 201.067857 
L 300.982691 202.607197 
L 301.199127 208.851883 
L 301.307345 206.31322 
L 301.415564 207.452709 
L 301.523782 207.053163 
L 301.632 211.68835 
L 301.740218 210.25543 
L 301.956655 193.525141 
L 302.064873 196.045579 
L 302.497745 155.843052 
L 302.8224 148.813061 
L 302.930618 146.08746 
L 303.147055 147.483703 
L 303.255273 146.271466 
L 303.471709 148.631727 
L 303.579927 149.550068 
L 303.688145 148.672934 
L 303.904582 175.146695 
L 304.121018 158.437758 
L 304.229236 159.92443 
L 304.553891 171.01592 
L 304.878545 197.37879 
L 305.094982 205.059942 
L 305.2032 203.428919 
L 305.311418 204.308654 
L 305.527855 211.254926 
L 305.636073 215.038285 
L 305.852509 194.257052 
L 305.960727 197.105325 
L 306.3936 160.289476 
L 306.501818 163.085616 
L 306.826473 153.285879 
L 306.934691 151.850358 
L 307.042909 151.865098 
L 307.151127 152.683232 
L 307.475782 150.552967 
L 307.584 150.77348 
L 307.800436 175.488461 
L 308.016873 162.717657 
L 308.341527 164.745442 
L 308.449745 167.182085 
L 308.666182 192.037974 
L 308.990836 201.729314 
L 309.099055 201.912571 
L 309.315491 206.276018 
L 309.423709 208.790711 
L 309.531927 207.475605 
L 309.748364 195.209158 
L 309.856582 197.992263 
L 310.181236 161.206809 
L 310.505891 150.783906 
L 310.830545 147.592432 
L 310.938764 147.315509 
L 311.046982 148.638652 
L 311.1552 147.5446 
L 311.263418 148.351372 
L 311.479855 175.969972 
L 311.696291 157.101314 
L 312.129164 173.86435 
L 312.3456 194.062423 
L 312.670255 203.424166 
L 312.778473 203.548914 
L 313.103127 214.704053 
L 313.211345 211.046274 
L 313.427782 194.611578 
L 313.536 198.336634 
L 313.860655 162.287591 
L 314.401745 152.14599 
L 314.509964 152.493308 
L 314.618182 151.839271 
L 314.7264 148.832891 
L 314.834618 149.157979 
L 314.942836 150.345451 
L 315.051055 149.331831 
L 315.267491 176.605781 
L 315.483927 160.546464 
L 315.592145 161.132332 
L 315.700364 162.970539 
L 316.457891 201.652723 
L 316.566109 200.375385 
L 316.998982 213.668172 
L 317.215418 193.624518 
L 317.323636 196.102145 
L 317.431855 189.45985 
L 317.756509 156.414556 
L 317.972945 150.489361 
L 318.2976 146.297166 
L 318.405818 146.914764 
L 318.622255 150.528308 
L 318.838691 149.132594 
L 318.946909 149.064415 
L 319.055127 157.080817 
L 319.163345 173.870772 
L 319.271564 171.166895 
L 319.488 159.546996 
L 319.920873 178.174509 
L 320.137309 194.977719 
L 320.353745 205.00614 
L 320.461964 200.418646 
L 320.570182 201.133467 
L 320.894836 211.401549 
L 321.111273 195.493294 
L 321.219491 197.084297 
L 321.327709 195.188617 
L 321.544145 168.320507 
L 322.085236 156.968991 
L 322.193455 155.876959 
L 322.301673 157.416991 
L 322.518109 153.704058 
L 322.626327 154.867899 
L 322.734545 153.649693 
L 322.950982 180.335371 
L 323.167418 165.206355 
L 323.600291 178.995302 
L 323.924945 205.438476 
L 324.141382 208.553546 
L 324.2496 207.106564 
L 324.466036 212.006935 
L 324.574255 211.727416 
L 324.682473 215.432331 
L 324.898909 195.172542 
L 325.007127 198.935379 
L 325.115345 193.080934 
L 325.331782 166.234325 
L 325.44 161.930448 
L 325.548218 163.151274 
L 325.656436 161.876115 
L 325.872873 155.637127 
L 326.197527 155.10144 
L 326.413964 156.530467 
L 326.522182 155.017818 
L 326.738618 179.908111 
L 326.846836 176.505868 
L 327.063273 163.210697 
L 327.279709 173.517592 
L 327.387927 174.532043 
L 327.496145 178.412137 
L 327.712582 197.571211 
L 327.929018 201.603512 
L 328.037236 201.094324 
L 328.145455 198.928702 
L 328.470109 214.30556 
L 328.686545 193.047031 
L 328.794764 193.962089 
L 329.0112 174.784713 
L 329.335855 153.237314 
L 329.444073 151.744363 
L 329.660509 152.310363 
L 329.768727 150.290495 
L 329.876945 150.511668 
L 329.985164 149.728263 
L 330.2016 152.587071 
L 330.418036 151.12611 
L 330.526255 157.741273 
L 330.634473 173.584983 
L 330.742691 172.214477 
L 330.959127 161.382387 
L 331.175564 171.2744 
L 331.283782 172.732614 
L 331.392 176.302393 
L 331.608436 190.963867 
L 331.933091 200.906326 
L 332.041309 200.174928 
L 332.365964 208.06943 
L 332.474182 203.002168 
L 332.690618 191.529327 
L 332.798836 189.065568 
L 333.015273 162.53458 
L 333.231709 157.600056 
L 333.339927 156.824399 
L 333.556364 148.049285 
L 333.664582 148.571428 
L 333.881018 151.880293 
L 334.205673 154.859348 
L 334.422109 179.194601 
L 334.638545 163.720263 
L 335.071418 178.786176 
L 335.287855 199.327703 
L 335.504291 207.62053 
L 335.612509 207.147443 
L 335.720727 202.906199 
L 336.045382 213.336132 
L 336.1536 209.029161 
L 336.370036 193.354182 
L 336.478255 194.378101 
L 336.911127 160.78399 
L 337.127564 155.928956 
L 337.344 152.78966 
L 337.452218 152.35923 
L 337.560436 150.157577 
L 337.668655 150.66222 
L 337.776873 151.969445 
L 337.885091 151.493597 
L 338.101527 175.925576 
L 338.209745 172.767619 
L 338.426182 159.843709 
L 338.642618 165.396489 
L 339.075491 197.930309 
L 339.508364 208.400524 
L 339.833018 218.107272 
L 340.049455 199.550756 
L 340.157673 201.226446 
L 340.265891 198.041509 
L 340.590545 166.524867 
L 340.806982 161.117311 
L 341.131636 156.020257 
L 341.239855 156.196804 
L 341.456291 157.439387 
L 341.672727 154.963351 
L 341.780945 160.435567 
L 341.997382 180.191472 
L 342.213818 167.902836 
L 342.322036 171.558278 
L 342.430255 171.447342 
L 342.538473 174.602604 
L 342.971345 206.0854 
L 343.079564 208.212882 
L 343.296 207.26592 
L 343.404218 210.592703 
L 343.512436 209.314295 
L 343.620655 211.572814 
L 343.837091 200.387508 
L 343.945309 202.144638 
L 344.053527 204.148767 
L 344.378182 169.918814 
L 344.594618 165.26976 
L 344.702836 165.149457 
L 345.027491 163.080785 
L 345.135709 164.046646 
L 345.243927 163.843699 
L 345.352145 166.80228 
L 345.568582 196.571624 
L 345.785018 181.615154 
L 346.217891 197.788963 
L 346.434327 217.90126 
L 346.650764 222.062122 
L 346.8672 217.755956 
L 347.191855 221.36042 
L 347.516509 204.300221 
L 347.624727 203.972097 
L 348.0576 173.919375 
L 348.274036 165.712153 
L 348.490473 160.216819 
L 348.706909 157.370154 
L 348.815127 157.087454 
L 348.923345 159.224089 
L 349.031564 171.333884 
L 349.139782 197.52096 
L 349.464436 178.357431 
L 349.897309 199.875892 
L 350.113745 210.003968 
L 350.330182 215.626225 
L 350.546618 212.325311 
L 350.654836 215.306926 
L 350.763055 215.252526 
L 350.871273 216.913303 
L 351.087709 203.017921 
L 351.195927 203.561684 
L 351.304145 201.931381 
L 351.6288 178.574426 
L 352.169891 161.825936 
L 352.278109 156.189122 
L 352.386327 156.678415 
L 352.494545 155.869226 
L 352.602764 157.893957 
L 352.710982 156.734963 
L 352.927418 191.901307 
L 353.143855 180.188916 
L 353.360291 183.656997 
L 353.468509 190.427173 
L 353.576727 189.219172 
L 353.793164 203.561416 
L 354.117818 213.840206 
L 354.226036 211.260028 
L 354.442473 215.397523 
L 354.658909 216.686286 
L 354.875345 204.583587 
L 354.983564 208.0416 
L 355.091782 206.613758 
L 355.308218 183.628563 
L 355.632873 176.757225 
L 355.849309 169.306175 
L 355.957527 168.521586 
L 356.173964 160.844313 
L 356.282182 162.321508 
L 356.3904 163.072512 
L 356.606836 200.590951 
L 356.823273 181.756871 
L 356.931491 184.854523 
L 357.147927 192.893986 
L 357.256145 195.221432 
L 357.472582 211.527221 
L 357.689018 214.266566 
L 357.905455 210.853314 
L 358.013673 214.982195 
L 358.121891 214.152883 
L 358.230109 216.62464 
L 358.338327 213.042864 
L 358.554764 203.84587 
L 358.662982 206.38749 
L 359.204073 168.859503 
L 359.636945 159.667304 
L 359.745164 159.693577 
L 359.853382 156.562484 
L 359.9616 156.943247 
L 360.069818 155.849655 
L 360.178036 157.349301 
L 360.394473 188.375036 
L 360.610909 173.475098 
L 361.043782 191.457907 
L 361.260218 206.268142 
L 361.368436 207.184792 
L 361.584873 211.772904 
L 361.693091 208.447026 
L 362.017745 216.302066 
L 362.125964 212.701369 
L 362.3424 201.020975 
L 362.450618 202.2942 
L 362.667055 186.036334 
L 362.883491 174.491551 
L 363.316364 163.912064 
L 363.5328 159.897945 
L 363.641018 160.936667 
L 363.965673 154.672257 
L 364.073891 164.503121 
L 364.182109 187.791825 
L 364.290327 184.674475 
L 364.398545 173.150165 
L 364.506764 175.363905 
L 364.831418 186.577314 
L 364.939636 190.618052 
L 365.156073 205.772084 
L 365.372509 211.818753 
L 365.480727 209.256327 
L 365.588945 209.819953 
L 365.805382 213.158609 
L 365.9136 215.367602 
L 366.130036 205.346829 
L 366.238255 207.250621 
L 366.346473 208.777322 
L 366.671127 180.984465 
L 366.995782 172.205285 
L 367.104 173.521062 
L 367.320436 166.044721 
L 367.428655 164.491186 
L 367.536873 165.831269 
L 367.645091 163.97524 
L 367.861527 202.707365 
L 368.077964 183.835138 
L 368.186182 184.856809 
L 368.402618 192.689454 
L 368.510836 194.698047 
L 368.727273 208.104457 
L 369.051927 215.318934 
L 369.160145 213.890087 
L 369.376582 217.481981 
L 369.4848 217.057386 
L 369.593018 218.10931 
L 369.809455 202.997212 
L 369.917673 208.145511 
L 370.025891 205.842682 
L 370.350545 176.091555 
L 371.108073 152.905325 
L 371.216291 152.257579 
L 371.324509 152.757372 
L 371.432727 151.769181 
L 371.649164 187.618319 
L 371.757382 181.177395 
L 371.8656 168.973414 
L 371.973818 170.672248 
L 372.406691 191.808273 
L 372.623127 206.930189 
L 372.839564 212.25358 
L 372.947782 211.239584 
L 373.056 211.443351 
L 373.380655 215.747443 
L 373.597091 201.760377 
L 373.813527 207.259668 
L 374.2464 174.100526 
L 374.787491 162.837182 
L 374.895709 163.978169 
L 375.003927 164.248853 
L 375.220364 158.491487 
L 375.328582 157.180961 
L 375.545018 189.599058 
L 375.653236 183.679136 
L 375.761455 171.766281 
L 375.869673 171.92552 
L 376.410764 203.778411 
L 376.518982 204.475564 
L 376.6272 206.761806 
L 376.735418 206.736563 
L 376.843636 204.59346 
L 377.168291 209.424622 
L 377.276509 212.583779 
L 377.492945 199.453138 
L 377.709382 208.509411 
L 377.925818 183.250759 
L 378.250473 172.637872 
L 378.358691 171.916026 
L 378.575127 169.385348 
L 378.683345 169.020358 
L 378.791564 167.336015 
L 378.899782 168.016778 
L 379.008 166.333946 
L 379.224436 200.381656 
L 379.549091 186.157048 
L 379.873745 195.043944 
L 380.090182 209.688408 
L 380.414836 214.677345 
L 380.523055 210.399674 
L 380.631273 211.685773 
L 380.739491 211.540306 
L 380.955927 212.662843 
L 381.172364 200.513221 
L 381.280582 204.79098 
L 381.3888 204.425381 
L 381.713455 174.062658 
L 381.929891 167.450056 
L 382.146327 157.286508 
L 382.254545 155.682212 
L 382.362764 155.957495 
L 382.470982 155.007476 
L 382.795636 157.278257 
L 383.012073 189.447452 
L 383.228509 169.071977 
L 383.661382 186.416169 
L 383.877818 205.562153 
L 384.094255 209.786734 
L 384.310691 206.975385 
L 384.635345 215.133669 
L 384.743564 212.728743 
L 384.96 201.369286 
L 385.068218 205.019269 
L 385.501091 171.185998 
L 385.825745 161.920091 
L 386.258618 156.708402 
L 386.366836 156.77076 
L 386.475055 156.974943 
L 386.583273 156.09346 
L 386.799709 189.187605 
L 387.016145 169.800666 
L 387.449018 181.7001 
L 387.665455 202.334046 
L 387.881891 205.504509 
L 387.990109 208.725899 
L 388.098327 206.828561 
L 388.314764 213.41676 
L 388.422982 213.950284 
L 388.5312 216.384365 
L 388.747636 202.764104 
L 388.855855 207.870903 
L 388.964073 201.672777 
L 389.180509 179.407399 
L 389.396945 172.519958 
L 389.7216 163.287009 
L 389.829818 163.753523 
L 390.046255 162.146113 
L 390.154473 163.121407 
L 390.262691 162.785586 
L 390.479127 194.118593 
L 390.695564 179.597115 
L 391.020218 189.323101 
L 391.128436 191.106822 
L 391.344873 204.438709 
L 391.561309 210.811485 
L 391.669527 210.011854 
L 391.777745 207.667391 
L 391.885964 208.349088 
L 391.994182 207.995992 
L 392.1024 208.87007 
L 392.210618 208.314601 
L 392.427055 196.373676 
L 392.535273 199.229536 
L 393.076364 158.065965 
L 393.617455 146.428791 
L 393.833891 148.244851 
L 393.942109 147.824902 
L 394.158545 177.795241 
L 394.374982 158.450511 
L 394.807855 174.336835 
L 395.024291 196.892759 
L 395.240727 202.220852 
L 395.890036 215.917156 
L 396.106473 201.861886 
L 396.214691 205.711416 
L 396.972218 164.540531 
L 397.188655 160.207382 
L 397.621527 156.631097 
L 397.837964 151.931896 
L 397.946182 152.983789 
L 398.162618 149.404269 
L 398.270836 150.189877 
L 398.379055 148.765298 
L 398.487273 156.018352 
L 398.487273 156.018352 
" style="fill:none;stroke:#1f77b4;stroke-linecap:square;stroke-width:1.5;"/>
   </g>
   <g id="line2d_16">
    <path clip-path="url(#peff7bc45be)" d="M 73.832727 212.235546 
L 74.157382 229.654786 
L 74.373818 209.862471 
L 74.482036 213.874227 
L 74.806691 193.108327 
L 75.456 125.525724 
L 75.564218 121.231033 
L 75.672436 133.200041 
L 75.888873 180.478855 
L 76.105309 188.32905 
L 76.321745 201.891742 
L 76.6464 228.50987 
L 77.079273 256.407811 
L 77.187491 252.362139 
L 77.295709 252.506103 
L 77.512145 295.488 
L 78.161455 220.622826 
L 78.702545 191.149042 
L 79.243636 129.145906 
L 79.351855 122.343195 
L 79.460073 134.492889 
L 79.784727 190.437535 
L 80.001164 196.317745 
L 80.866909 254.765449 
L 80.975127 257.589881 
L 81.083345 252.771706 
L 81.191564 253.629098 
L 81.408 294.215201 
L 81.732655 247.403759 
L 81.949091 232.984195 
L 82.5984 160.296439 
L 82.814836 129.679159 
L 83.139491 111.274918 
L 83.247709 112.921551 
L 83.572364 150.944254 
L 83.680582 148.63774 
L 83.7888 150.36988 
L 83.897018 150.200215 
L 84.005236 149.768044 
L 84.113455 149.871836 
L 84.329891 148.180372 
L 84.438109 148.536965 
L 84.654545 148.104482 
L 84.762764 148.539669 
L 84.870982 147.978677 
L 85.087418 145.4365 
L 85.195636 145.652696 
L 85.412073 142.922888 
L 85.520291 143.541906 
L 85.736727 138.831142 
L 85.953164 141.129176 
L 86.277818 152.126919 
L 86.602473 162.566576 
L 86.818909 169.222601 
L 87.468218 201.107539 
L 87.684655 189.876739 
L 87.901091 190.441485 
L 88.009309 190.205757 
L 88.225745 190.452747 
L 88.442182 189.853162 
L 88.658618 190.62451 
L 88.766836 190.483737 
L 88.875055 190.382301 
L 88.983273 189.864755 
L 89.199709 190.078407 
L 89.307927 188.334985 
L 89.524364 193.242419 
L 89.632582 192.784561 
L 89.957236 188.10644 
L 90.065455 189.949788 
L 90.281891 184.841528 
L 90.498327 175.166221 
L 90.606545 174.760492 
L 90.714764 172.926442 
L 90.9312 176.402436 
L 91.039418 176.319765 
L 91.147636 178.473211 
L 91.364073 172.2833 
L 92.338036 243.837398 
L 92.554473 279.637414 
L 92.879127 210.358821 
L 93.095564 189.34854 
L 93.312 181.723218 
L 93.420218 181.341924 
L 93.744873 163.568413 
L 94.069527 128.633823 
L 94.177745 127.296449 
L 94.285964 123.188978 
L 94.394182 110.956071 
L 94.610618 139.245209 
L 94.935273 169.042123 
L 95.043491 172.383434 
L 95.909236 239.940005 
L 96.017455 239.114704 
L 96.125673 241.827959 
L 96.342109 272.939188 
L 96.666764 219.333655 
L 96.991418 195.429706 
L 97.099636 198.68197 
L 97.316073 183.827678 
L 97.424291 182.321458 
L 98.181818 127.18111 
L 98.290036 134.490117 
L 98.506473 166.500935 
L 98.831127 175.650915 
L 99.155782 195.177563 
L 99.805091 240.987023 
L 99.913309 276.436637 
L 100.4544 179.87219 
L 100.670836 169.189469 
L 100.779055 175.825698 
L 101.211927 147.763442 
L 101.6448 113.777447 
L 101.861236 104.807581 
L 102.185891 149.446449 
L 103.159855 225.215238 
L 103.376291 237.091023 
L 103.592727 241.098096 
L 103.809164 279.233091 
L 104.242036 200.632933 
L 104.566691 177.596338 
L 104.674909 178.87743 
L 105.107782 145.896794 
L 105.324218 125.21877 
L 105.432436 126.072476 
L 105.648873 109.718824 
L 105.757091 112.609696 
L 105.973527 147.667043 
L 106.839273 208.110155 
L 107.163927 236.757945 
L 107.488582 240.932554 
L 107.705018 280.443267 
L 108.246109 198.595603 
L 108.462545 192.744379 
L 108.570764 193.555769 
L 109.003636 163.548914 
L 109.220073 143.820965 
L 109.436509 135.251116 
L 109.652945 124.208856 
L 109.869382 159.466798 
L 109.9776 168.480992 
L 110.085818 167.833131 
L 110.843345 215.090712 
L 111.168 240.426449 
L 111.384436 276.570242 
L 111.709091 197.52115 
L 112.033745 172.836862 
L 112.141964 175.829595 
L 112.250182 175.65856 
L 112.3584 172.55276 
L 113.224145 119.285969 
L 113.332364 123.532352 
L 113.657018 160.796289 
L 113.873455 173.578742 
L 114.522764 215.561732 
L 114.955636 251.125423 
L 115.063855 278.332651 
L 115.496727 188.249008 
L 115.821382 165.613049 
L 115.9296 174.28653 
L 116.254255 159.391766 
L 116.578909 125.06839 
L 116.903564 106.571069 
L 117.011782 110.106466 
L 117.228218 138.167838 
L 117.444655 147.588779 
L 118.202182 199.650304 
L 118.526836 225.831935 
L 118.635055 230.540752 
L 118.851491 263.784958 
L 119.176145 193.712332 
L 119.609018 165.507066 
L 119.717236 169.362183 
L 120.150109 137.778362 
L 120.366545 119.866168 
L 120.474764 118.544933 
L 120.6912 104.795948 
L 120.799418 108.043405 
L 121.015855 132.791238 
L 122.206255 213.709169 
L 122.314473 221.650084 
L 122.530909 253.921907 
L 122.855564 183.912624 
L 123.072 164.873139 
L 123.288436 161.810722 
L 123.396655 164.482757 
L 123.613091 155.481616 
L 123.721309 151.516706 
L 124.154182 126.979009 
L 124.370618 111.303352 
L 124.478836 116.181716 
L 124.695273 141.281336 
L 125.128145 161.774601 
L 125.344582 171.630174 
L 125.777455 213.668795 
L 125.993891 229.597217 
L 126.210327 266.193914 
L 126.534982 178.715777 
L 126.967855 152.565041 
L 127.076073 155.562465 
L 127.292509 147.855954 
L 127.725382 115.055119 
L 127.8336 114.212614 
L 128.050036 102.247068 
L 128.158255 105.635386 
L 128.374691 126.636355 
L 128.807564 149.882831 
L 129.889745 244.609787 
L 129.997964 257.916103 
L 130.430836 173.511598 
L 130.755491 158.141763 
L 130.863709 164.10183 
L 131.296582 130.809821 
L 131.513018 118.324319 
L 131.621236 117.428884 
L 131.837673 99.460003 
L 131.945891 106.285703 
L 132.162327 134.74199 
L 132.270545 137.118282 
L 133.244509 206.324025 
L 133.460945 222.701294 
L 133.677382 227.518356 
L 133.893818 258.147222 
L 134.218473 200.979207 
L 134.543127 177.429921 
L 134.651345 177.169605 
L 134.759564 176.46601 
L 135.084218 159.199142 
L 135.408873 128.362194 
L 135.517091 130.023698 
L 135.733527 111.463226 
L 136.1664 148.820515 
L 136.815709 181.210089 
L 136.923927 177.746097 
L 137.789673 250.020914 
L 137.897891 238.087331 
L 138.438982 258.110392 
L 139.088291 274.736553 
L 139.196509 274.793951 
L 140.062255 181.009651 
L 140.170473 184.860311 
L 140.711564 117.566577 
L 140.819782 122.868358 
L 141.036218 122.015102 
L 141.144436 107.504754 
L 141.469091 146.492999 
L 141.685527 168.073206 
L 141.793745 167.700334 
L 142.551273 248.424419 
L 142.767709 271.892789 
L 142.984145 271.807272 
L 143.092364 278.219816 
L 143.417018 230.162975 
L 143.958109 177.981107 
L 144.066327 178.957958 
L 144.607418 113.762837 
L 144.715636 122.689875 
L 144.932073 121.85614 
L 145.040291 110.892565 
L 145.364945 149.826622 
L 145.581382 164.274651 
L 145.797818 181.037752 
L 146.447127 253.633654 
L 146.663564 272.307645 
L 146.88 273.370432 
L 146.988218 270.491604 
L 147.312873 226.626772 
L 148.286836 140.207685 
L 148.395055 122.286488 
L 148.503273 122.708761 
L 148.827927 121.497766 
L 148.936145 113.606603 
L 149.2608 152.8603 
L 149.477236 163.738633 
L 150.234764 241.320173 
L 150.4512 273.731286 
L 150.667636 273.779545 
L 150.775855 273.686352 
L 152.182691 136.196502 
L 152.290909 117.45557 
L 152.399127 121.613853 
L 152.615564 120.809949 
L 152.723782 104.986124 
L 153.048436 144.535144 
L 153.264873 165.845869 
L 153.373091 166.21142 
L 154.130618 245.102823 
L 154.347055 271.679645 
L 154.455273 271.669395 
L 154.563491 271.540663 
L 154.671709 281.475615 
L 154.996364 231.684419 
L 155.537455 178.805106 
L 155.645673 180.081608 
L 156.727855 62.223569 
L 157.052509 61.39191 
L 157.268945 62.643335 
L 157.377164 64.662147 
L 157.5936 53.568 
L 157.810036 57.955621 
L 158.026473 69.363019 
L 158.242909 83.121085 
L 158.351127 71.077658 
L 158.459345 72.005102 
L 158.675782 82.964146 
L 159.216873 110.438065 
L 159.649745 159.614745 
L 159.9744 109.132409 
L 160.299055 89.888612 
L 160.407273 89.489603 
L 160.515491 95.728437 
L 161.056582 74.451264 
L 161.273018 82.877242 
L 161.489455 70.989576 
L 161.705891 83.462539 
L 161.922327 65.807363 
L 162.246982 75.705895 
L 162.571636 90.423508 
L 162.788073 112.047385 
L 163.220945 166.604301 
L 163.329164 161.419962 
L 163.653818 108.364349 
L 163.978473 85.506366 
L 164.086691 90.083892 
L 164.194909 102.534155 
L 164.303127 99.806084 
L 164.627782 74.41593 
L 164.844218 67.454844 
L 165.060655 68.259722 
L 165.168873 67.543409 
L 165.277091 73.997551 
L 165.385309 73.976614 
L 165.601745 55.839399 
L 165.818182 62.096026 
L 166.034618 70.294929 
L 166.467491 101.299146 
L 167.1168 166.364903 
L 167.657891 93.747827 
L 167.874327 81.713706 
L 167.982545 100.033706 
L 168.090764 99.643434 
L 168.523636 74.727474 
L 168.631855 76.963271 
L 168.740073 77.518403 
L 168.956509 66.857869 
L 169.064727 71.359937 
L 169.172945 81.153918 
L 169.389382 56.774741 
L 169.4976 58.367841 
L 169.930473 70.684091 
L 170.038691 73.388711 
L 170.255127 89.367638 
L 170.904436 159.524669 
L 171.012655 168.091048 
L 171.445527 105.662309 
L 171.770182 92.27707 
L 171.8784 102.530829 
L 172.311273 80.768924 
L 172.419491 75.934455 
L 172.635927 83.340579 
L 172.852364 70.353868 
L 173.0688 86.232942 
L 173.285236 64.446509 
L 173.718109 82.674217 
L 173.934545 92.856321 
L 174.583855 162.841757 
L 174.692073 166.610362 
L 174.800291 189.913224 
L 174.908509 183.719766 
L 175.233164 119.439306 
L 175.557818 94.851019 
L 175.666036 97.704691 
L 175.774255 112.357512 
L 175.882473 109.816607 
L 176.315345 80.605159 
L 176.531782 74.462662 
L 176.64 75.924671 
L 176.748218 74.755983 
L 176.964655 83.347904 
L 177.181091 62.48177 
L 177.938618 107.624887 
L 178.371491 169.222087 
L 178.696145 183.892182 
L 178.804364 205.778127 
L 178.912582 198.546243 
L 179.237236 136.501375 
L 179.670109 112.113848 
L 179.886545 126.859893 
L 180.427636 85.394674 
L 180.535855 85.879356 
L 180.752291 81.107366 
L 180.968727 89.896993 
L 181.185164 71.380118 
L 182.159127 156.084527 
L 182.483782 182.560328 
L 182.700218 193.435148 
L 182.808436 212.620626 
L 183.565964 117.64559 
L 183.674182 128.841544 
L 184.107055 94.812493 
L 184.215273 85.65866 
L 184.539927 88.521484 
L 184.648145 79.746852 
L 184.756364 82.80992 
L 184.9728 99.794266 
L 185.081018 85.906653 
L 185.946764 154.504161 
L 186.271418 192.075704 
L 186.379636 193.841556 
L 186.596073 201.097866 
L 186.704291 224.577293 
L 186.812509 220.994645 
L 187.245382 144.378485 
L 187.570036 125.455666 
L 187.678255 137.590386 
L 187.786473 133.951754 
L 188.111127 92.26503 
L 188.327564 79.523076 
L 188.435782 83.87193 
L 188.652218 74.532358 
L 188.868655 94.856081 
L 189.085091 81.619728 
L 190.275491 200.165006 
L 190.600145 214.546432 
L 190.708364 236.303244 
L 190.816582 223.812789 
L 191.141236 165.603877 
L 191.465891 141.776975 
L 191.574109 148.684611 
L 191.682327 147.083579 
L 191.898764 129.643041 
L 192.223418 91.717698 
L 192.331636 95.298535 
L 192.656291 83.25997 
L 192.872727 107.337874 
L 192.980945 95.547794 
L 194.496 225.343212 
L 195.253527 127.172251 
L 195.361745 145.208122 
L 196.011055 89.006956 
L 196.119273 93.977926 
L 196.227491 90.638031 
L 196.335709 80.115887 
L 196.443927 83.884349 
L 196.660364 105.448478 
L 196.768582 98.350615 
L 197.526109 160.018345 
L 198.0672 207.250219 
L 198.175418 210.579269 
L 198.391855 232.128642 
L 198.824727 159.217678 
L 199.149382 134.001814 
L 199.2576 148.779878 
L 199.365818 144.09792 
L 199.906909 90.453214 
L 200.015127 94.634891 
L 200.231564 80.408085 
L 200.339782 84.545707 
L 200.448 105.780185 
L 200.556218 98.15512 
L 200.664436 99.715448 
L 201.205527 157.814566 
L 201.854836 214.258072 
L 201.963055 217.173494 
L 202.071273 216.279038 
L 202.179491 224.738342 
L 202.287709 247.793473 
L 202.504145 211.987018 
L 202.720582 184.08107 
L 202.937018 170.976839 
L 203.045236 160.630099 
L 203.153455 168.466289 
L 203.478109 139.396201 
L 203.694545 101.762033 
L 203.802764 101.449845 
L 203.910982 105.111786 
L 204.0192 100.090195 
L 204.127418 87.376009 
L 204.235636 92.016548 
L 204.560291 126.096465 
L 204.668509 129.377086 
L 204.993164 149.25719 
L 205.967127 234.117053 
L 206.616436 144.719089 
L 206.724655 132.988405 
L 206.832873 146.419868 
L 207.157527 119.683367 
L 207.373964 92.345891 
L 207.482182 84.2172 
L 207.5904 88.278256 
L 207.806836 78.823484 
L 207.915055 81.402722 
L 208.131491 105.987539 
L 208.239709 103.678886 
L 208.456145 121.201098 
L 209.538327 212.714847 
L 209.646545 219.729875 
L 209.754764 239.505066 
L 210.512291 139.439156 
L 210.620509 150.281372 
L 210.728727 148.935279 
L 210.836945 141.360973 
L 211.1616 99.266795 
L 211.486255 81.551483 
L 211.702691 80.034514 
L 211.919127 105.920947 
L 212.027345 96.472217 
L 213.109527 201.899076 
L 213.434182 218.160853 
L 213.5424 238.429012 
L 214.299927 140.179527 
L 214.408145 151.050022 
L 214.624582 139.818629 
L 214.7328 133.26061 
L 214.949236 104.347928 
L 215.057455 105.445916 
L 215.165673 109.285044 
L 215.490327 88.981181 
L 215.706764 110.966239 
L 215.814982 101.97277 
L 216.356073 138.600385 
L 216.464291 142.600853 
L 216.788945 182.304666 
L 217.005382 222.784569 
L 217.1136 212.625332 
L 217.438255 145.265916 
L 217.871127 119.044811 
L 217.979345 135.149888 
L 218.195782 120.942173 
L 218.520436 89.608309 
L 218.628655 84.350467 
L 218.736873 89.207577 
L 218.953309 79.737302 
L 219.169745 100.841015 
L 219.386182 90.754106 
L 219.710836 121.560052 
L 219.927273 138.876292 
L 220.251927 166.609135 
L 220.6848 225.258666 
L 220.793018 214.753225 
L 221.117673 148.700274 
L 221.442327 121.928828 
L 221.550545 121.739767 
L 221.658764 135.631984 
L 221.766982 131.747713 
L 222.199855 88.65205 
L 222.308073 91.110581 
L 222.632727 77.857133 
L 222.849164 97.749941 
L 222.957382 81.442163 
L 223.0656 86.76568 
L 223.606691 138.997435 
L 223.823127 157.298283 
L 224.256 199.631019 
L 224.364218 203.592906 
L 224.472436 229.786503 
L 225.121745 140.436412 
L 225.229964 132.006211 
L 225.338182 139.006156 
L 225.554618 131.668699 
L 226.095709 97.816451 
L 226.420364 89.214443 
L 226.6368 104.650734 
L 226.745018 94.066357 
L 226.853236 96.519193 
L 227.286109 124.697394 
L 227.935418 196.301607 
L 228.043636 222.064129 
L 228.476509 138.265762 
L 228.801164 114.843408 
L 228.909382 128.467948 
L 229.125818 120.24966 
L 229.558691 91.230865 
L 229.666909 91.48492 
L 229.775127 88.786893 
L 229.991564 78.231036 
L 230.208 97.748856 
L 230.316218 83.612336 
L 231.723055 215.358831 
L 231.831273 233.512921 
L 232.372364 143.641162 
L 232.5888 125.896941 
L 232.697018 144.26513 
L 233.021673 115.819613 
L 233.346327 89.899282 
L 233.454545 92.57376 
L 233.562764 88.895554 
L 233.670982 79.270335 
L 233.7792 84.019268 
L 233.995636 98.371002 
L 234.103855 84.908917 
L 235.294255 206.485856 
L 235.402473 206.846143 
L 235.510691 211.072957 
L 235.618909 219.659209 
L 235.727127 242.424297 
L 236.268218 158.723749 
L 236.484655 143.255583 
L 236.592873 153.374466 
L 237.242182 110.42882 
L 237.3504 112.918915 
L 237.675055 96.596141 
L 237.891491 115.291299 
L 238.107927 113.433657 
L 238.216145 117.338206 
L 238.865455 176.70392 
L 239.190109 209.139166 
L 239.298327 212.611258 
L 239.406545 241.960513 
L 239.514764 231.254639 
L 239.839418 162.214985 
L 240.164073 136.94448 
L 240.272291 138.535054 
L 240.380509 143.80923 
L 240.596945 134.379178 
L 240.9216 99.97345 
L 241.029818 102.886646 
L 241.138036 102.592631 
L 241.354473 87.343009 
L 241.570909 112.521338 
L 241.679127 110.386591 
L 241.787345 111.727039 
L 242.220218 158.64179 
L 242.869527 218.418255 
L 243.085964 222.983217 
L 243.194182 251.215723 
L 243.3024 246.236876 
L 243.627055 183.286462 
L 244.059927 151.559418 
L 244.168145 158.846149 
L 244.384582 138.859129 
L 244.601018 114.31962 
L 244.925673 92.155529 
L 245.142109 87.533332 
L 246.440727 205.091727 
L 246.548945 210.176271 
L 246.657164 222.786202 
L 246.765382 222.598744 
L 246.981818 226.609177 
L 247.090036 253.598073 
L 247.198255 247.291388 
L 247.522909 198.888475 
L 248.064 171.744118 
L 248.280436 155.289428 
L 248.605091 118.827986 
L 248.713309 115.724219 
L 248.821527 118.467032 
L 249.037964 100.023233 
L 249.470836 142.664388 
L 249.579055 146.371869 
L 250.661236 238.073775 
L 250.769455 256.699115 
L 251.202327 182.683708 
L 251.418764 167.523657 
L 251.526982 158.141311 
L 251.6352 165.46982 
L 251.851636 152.546618 
L 252.284509 100.092796 
L 252.392727 99.110193 
L 252.609164 90.66004 
L 252.717382 91.132629 
L 252.933818 121.335979 
L 253.150255 134.863388 
L 253.907782 208.702262 
L 254.232436 231.710205 
L 254.340655 234.298497 
L 254.448873 265.845048 
L 254.557091 254.273702 
L 254.881745 193.990448 
L 255.2064 159.778744 
L 255.314618 164.811467 
L 255.422836 163.385506 
L 255.639273 141.220537 
L 255.963927 106.34365 
L 256.3968 81.651039 
L 256.613236 119.986857 
L 256.721455 115.737717 
L 257.911855 219.889017 
L 258.020073 225.035652 
L 258.236509 252.592661 
L 258.561164 188.751068 
L 258.994036 156.960179 
L 259.102255 164.844536 
L 259.426909 138.816594 
L 259.643345 114.694143 
L 259.751564 115.745781 
L 259.859782 118.453509 
L 259.968 110.508471 
L 260.076218 92.122046 
L 260.617309 136.672446 
L 260.941964 155.789994 
L 261.807709 255.38549 
L 262.240582 169.566835 
L 262.565236 142.725591 
L 262.673455 156.46868 
L 262.998109 130.261908 
L 263.322764 98.642328 
L 263.430982 101.990138 
L 263.5392 98.643984 
L 263.647418 86.074715 
L 263.755636 86.592688 
L 263.972073 117.571663 
L 264.080291 112.920928 
L 264.621382 166.99347 
L 265.378909 222.063338 
L 265.487127 251.362502 
L 265.595345 242.366044 
L 265.92 175.823952 
L 266.352873 146.790107 
L 266.461091 155.162277 
L 266.569309 152.270113 
L 267.1104 98.494762 
L 267.218618 101.014967 
L 267.326836 99.00198 
L 267.435055 87.355641 
L 267.651491 114.533258 
L 267.759709 105.79566 
L 267.976145 126.969942 
L 268.950109 222.58885 
L 269.058327 224.310918 
L 269.166545 223.985003 
L 269.274764 226.613685 
L 269.382982 236.589124 
L 269.4912 261.233535 
L 269.599418 250.632536 
L 269.924073 192.002696 
L 270.248727 169.498098 
L 270.356945 174.514236 
L 270.573382 163.674028 
L 271.006255 114.504695 
L 271.114473 115.480878 
L 271.222691 109.800115 
L 271.439127 96.44132 
L 271.655564 131.794852 
L 271.763782 129.467232 
L 272.521309 188.975196 
L 272.737745 204.706024 
L 272.954182 221.20048 
L 273.0624 224.240252 
L 273.170618 251.942451 
L 273.278836 249.849862 
L 273.603491 185.660612 
L 273.928145 166.288635 
L 274.036364 162.724221 
L 274.144582 167.480783 
L 274.469236 145.352612 
L 274.685673 119.59625 
L 274.793891 120.631472 
L 274.902109 119.249906 
L 275.118545 98.493356 
L 275.4432 136.437593 
L 276.6336 229.189707 
L 276.850036 232.939789 
L 276.958255 238.925489 
L 277.066473 267.699433 
L 277.824 168.268608 
L 277.932218 175.49561 
L 278.148655 163.513309 
L 278.689745 108.619986 
L 278.797964 105.667737 
L 278.906182 96.833261 
L 279.0144 98.360502 
L 279.447273 139.154752 
L 279.771927 168.444548 
L 280.529455 230.92722 
L 280.854109 236.237236 
L 281.070545 266.73858 
L 281.3952 214.021676 
L 281.719855 192.880532 
L 281.828073 191.066578 
L 282.044509 178.217131 
L 282.260945 156.723767 
L 282.5856 125.956611 
L 282.693818 122.543316 
L 282.910255 98.932829 
L 283.018473 111.608156 
L 283.234909 147.381692 
L 284.425309 236.981858 
L 284.641745 239.771973 
L 284.858182 275.069917 
L 285.291055 214.752116 
L 285.399273 214.832793 
L 285.615709 207.735556 
L 285.940364 189.01921 
L 286.048582 182.263426 
L 286.265018 151.234477 
L 286.373236 148.435374 
L 286.697891 124.658988 
L 286.806109 130.703468 
L 287.022545 176.19571 
L 287.238982 183.395882 
L 288.104727 238.399703 
L 288.212945 240.245181 
L 288.321164 239.744464 
L 288.429382 249.044664 
L 288.5376 270.972947 
L 288.754036 240.137727 
L 288.970473 211.182381 
L 289.295127 189.465963 
L 289.403345 194.498742 
L 289.728 170.912489 
L 290.052655 124.620174 
L 290.160873 124.093706 
L 290.269091 116.828795 
L 290.377309 100.837698 
L 290.485527 108.411486 
L 290.810182 155.624366 
L 291.567709 216.069837 
L 291.892364 237.30645 
L 292.217018 241.115313 
L 292.433455 271.219194 
L 292.758109 221.121701 
L 293.082764 196.16184 
L 293.190982 199.749466 
L 293.515636 181.975247 
L 294.056727 118.265081 
L 294.273164 100.702786 
L 294.922473 187.828641 
L 295.788218 239.888167 
L 295.896436 239.94462 
L 296.004655 241.807195 
L 296.221091 274.35974 
L 296.653964 222.507952 
L 296.978618 212.78442 
L 297.086836 213.161762 
L 297.411491 189.786012 
L 297.736145 149.269191 
L 297.844364 147.107618 
L 298.0608 128.483098 
L 298.169018 130.110435 
L 298.385455 179.809815 
L 298.601891 188.225696 
L 298.818327 198.666355 
L 299.575855 242.924031 
L 299.792291 245.169091 
L 299.900509 274.989032 
L 300.008727 268.363385 
L 300.549818 207.616968 
L 300.658036 198.280487 
L 300.766255 202.766034 
L 300.982691 187.608931 
L 301.199127 160.953083 
L 301.523782 119.112992 
L 301.632 114.198102 
L 301.848436 98.151816 
L 302.173091 156.459539 
L 303.255273 238.829611 
L 303.471709 243.455085 
L 303.579927 242.755098 
L 303.688145 243.981603 
L 303.904582 275.130185 
L 304.229236 231.727104 
L 304.553891 209.534949 
L 304.662109 211.518209 
L 305.094982 176.768991 
L 305.527855 128.304131 
L 305.744291 111.011124 
L 305.852509 120.325271 
L 306.068945 165.663205 
L 306.501818 202.636236 
L 307.367564 246.555465 
L 307.475782 244.461085 
L 307.584 245.74673 
L 307.692218 275.656451 
L 307.800436 273.454545 
L 308.449745 213.657979 
L 308.557964 220.295421 
L 308.7744 208.327405 
L 309.531927 133.773138 
L 309.640145 129.344971 
L 310.073018 186.649842 
L 311.046982 245.452696 
L 311.1552 244.591426 
L 311.263418 246.353281 
L 311.371636 277.332723 
L 311.479855 272.783483 
L 311.804509 220.349714 
L 312.129164 194.354824 
L 312.237382 198.836284 
L 313.211345 108.840396 
L 313.319564 110.930043 
L 313.860655 178.313844 
L 314.509964 227.675813 
L 314.834618 242.882284 
L 315.051055 245.155912 
L 315.267491 277.402989 
L 315.592145 231.699876 
L 315.9168 203.384772 
L 316.025018 204.281233 
L 316.349673 178.378209 
L 317.1072 107.535435 
L 317.215418 114.826233 
L 317.431855 158.410249 
L 317.972945 197.067843 
L 318.622255 246.649196 
L 318.730473 244.415695 
L 318.946909 245.26319 
L 319.163345 280.880976 
L 319.596218 233.916734 
L 319.704436 230.949169 
L 319.920873 220.039029 
L 320.029091 217.835327 
L 320.353745 195.111038 
L 320.6784 152.534886 
L 321.003055 124.311405 
L 321.111273 129.913268 
L 321.435927 185.908453 
L 321.544145 188.730732 
L 322.085236 220.22804 
L 322.626327 240.966481 
L 322.734545 242.253549 
L 322.950982 273.777744 
L 323.275636 236.010542 
L 323.383855 232.905054 
L 323.600291 214.065666 
L 323.708509 214.589756 
L 324.141382 184.628126 
L 324.466036 144.482006 
L 324.574255 138.954135 
L 324.790691 118.630781 
L 325.223564 193.149737 
L 325.331782 195.319898 
L 326.197527 244.633484 
L 326.413964 248.966955 
L 326.522182 249.117501 
L 326.738618 284.930236 
L 327.387927 223.023449 
L 327.929018 183.392621 
L 328.361891 123.809809 
L 328.578327 101.023748 
L 328.686545 114.886627 
L 328.902982 162.85458 
L 329.119418 182.116522 
L 329.227636 185.871751 
L 329.876945 234.172681 
L 330.2016 251.1153 
L 330.309818 247.715822 
L 330.418036 248.168702 
L 330.634473 282.005609 
L 331.067345 249.835717 
L 331.608436 220.937547 
L 331.824873 205.162762 
L 332.257745 151.480839 
L 332.474182 127.876349 
L 332.5824 138.217907 
L 332.907055 193.052014 
L 333.015273 194.238008 
L 333.448145 218.553162 
L 333.881018 242.828113 
L 334.097455 251.361991 
L 334.205673 252.692884 
L 334.313891 286.796233 
L 334.422109 285.236573 
L 334.854982 230.14425 
L 334.9632 227.426486 
L 335.071418 218.55175 
L 335.179636 220.606999 
L 335.612509 178.602065 
L 335.937164 135.310787 
L 336.261818 110.894372 
L 336.586473 185.223544 
L 337.452218 233.085744 
L 337.560436 234.072289 
L 337.885091 248.008985 
L 338.101527 281.208458 
L 338.642618 217.616049 
L 339.291927 172.765612 
L 339.833018 112.288814 
L 339.941236 107.817872 
L 340.049455 109.403214 
L 340.265891 157.66862 
L 340.590545 182.271523 
L 341.456291 240.451021 
L 341.564509 239.859752 
L 341.672727 241.952207 
L 341.889164 277.63678 
L 341.997382 273.338501 
L 342.322036 228.044701 
L 342.538473 204.302334 
L 342.646691 202.315703 
L 342.754909 202.716152 
L 343.296 144.194574 
L 343.512436 131.252444 
L 343.728873 110.262277 
L 343.837091 116.770818 
L 344.269964 169.2791 
L 344.378182 171.32838 
L 345.027491 214.213104 
L 345.352145 238.885219 
L 345.460364 275.03715 
L 345.6768 232.680851 
L 345.893236 193.849546 
L 346.217891 163.830808 
L 346.326109 176.118663 
L 346.542545 163.652697 
L 347.083636 106.191189 
L 347.300073 92.502094 
L 347.408291 93.978234 
L 347.732945 138.694628 
L 348.165818 171.371986 
L 348.490473 194.254428 
L 348.923345 234.792811 
L 349.139782 278.051228 
L 349.572655 178.357592 
L 349.897309 151.477191 
L 350.005527 159.804224 
L 350.221964 147.425783 
L 350.979491 91.496231 
L 352.169891 183.469699 
L 352.278109 189.233712 
L 352.8192 259.877873 
L 352.927418 259.294725 
L 353.252073 191.489196 
L 353.576727 158.936709 
L 353.793164 159.972969 
L 354.0096 151.27538 
L 354.767127 97.541106 
L 354.875345 103.773281 
L 355.091782 133.645762 
L 355.2 135.620876 
L 356.173964 206.562712 
L 356.3904 227.770057 
L 356.498618 274.90738 
L 357.039709 163.003294 
L 357.256145 146.630749 
L 357.364364 159.778145 
L 357.797236 131.094435 
L 358.013673 111.776791 
L 358.121891 112.682715 
L 358.230109 107.833439 
L 358.338327 96.817422 
L 358.446545 99.797159 
L 358.879418 137.223831 
L 359.204073 158.407956 
L 360.178036 235.445786 
L 360.286255 271.271533 
L 361.043782 159.371178 
L 361.152 168.999958 
L 361.584873 135.088568 
L 361.909527 106.564722 
L 362.125964 97.300781 
L 362.234182 95.393577 
L 362.558836 125.036658 
L 363.5328 208.649987 
L 363.749236 227.08847 
L 363.857455 228.171761 
L 363.965673 230.742311 
L 364.182109 270.51253 
L 364.614982 192.350792 
L 364.939636 167.521668 
L 365.047855 171.867889 
L 365.372509 157.638273 
L 365.805382 128.254347 
L 365.9136 123.647615 
L 366.130036 111.482599 
L 366.346473 140.283018 
L 366.562909 151.593114 
L 366.995782 177.742079 
L 367.645091 232.131425 
L 367.861527 267.387056 
L 368.186182 185.862952 
L 368.619055 159.164143 
L 368.727273 161.315403 
L 368.943709 150.05867 
L 369.376582 114.316524 
L 369.4848 114.850101 
L 369.701236 100.633818 
L 369.809455 107.200628 
L 370.025891 135.49488 
L 370.566982 166.219442 
L 371.432727 230.343455 
L 371.649164 266.369194 
L 371.973818 189.566652 
L 372.298473 165.41255 
L 372.406691 161.190415 
L 372.514909 168.018326 
L 372.731345 156.738325 
L 373.164218 115.912245 
L 373.272436 115.594587 
L 373.488873 100.12431 
L 373.597091 102.747234 
L 373.813527 134.063516 
L 373.921745 137.111943 
L 374.787491 208.315163 
L 375.003927 231.300855 
L 375.112145 230.513991 
L 375.328582 234.770108 
L 375.545018 275.324913 
L 375.869673 204.276485 
L 376.302545 178.592733 
L 376.410764 182.78849 
L 376.843636 148.041597 
L 377.060073 128.653874 
L 377.168291 130.179866 
L 377.384727 110.233943 
L 377.601164 136.98087 
L 377.8176 155.855056 
L 379.008 233.549791 
L 379.224436 266.493872 
L 379.657309 189.313346 
L 379.873745 177.908119 
L 379.981964 178.932022 
L 380.090182 179.18079 
L 380.414836 165.577923 
L 380.739491 142.194378 
L 381.064145 122.326501 
L 381.172364 128.762705 
L 381.3888 164.309424 
L 381.929891 195.023486 
L 382.038109 198.120159 
L 382.687418 247.174842 
L 382.795636 250.763374 
L 382.903855 294.536914 
L 383.553164 187.274027 
L 383.661382 181.323877 
L 383.7696 187.009236 
L 383.986036 175.423725 
L 384.851782 105.334815 
L 385.176436 150.645643 
L 386.366836 245.707505 
L 386.583273 249.285679 
L 386.691491 290.204665 
L 386.799709 287.804349 
L 387.124364 219.53246 
L 387.449018 192.515672 
L 387.557236 197.66205 
L 387.773673 186.501757 
L 388.098327 160.253449 
L 388.639418 121.972046 
L 388.747636 130.13586 
L 388.964073 169.954014 
L 390.262691 248.745026 
L 390.370909 285.509737 
L 390.479127 280.904711 
L 390.803782 223.091258 
L 391.128436 201.724217 
L 391.236655 204.732488 
L 391.669527 177.739033 
L 391.885964 156.59604 
L 392.1024 147.333874 
L 392.210618 136.767176 
L 392.318836 137.853211 
L 392.859927 193.343362 
L 393.942109 250.479633 
L 394.050327 284.234297 
L 394.158545 277.643034 
L 394.4832 216.19187 
L 394.807855 188.405438 
L 394.916073 190.357574 
L 395.024291 189.310867 
L 395.348945 162.258243 
L 395.6736 132.326723 
L 395.890036 118.381444 
L 395.998255 108.284566 
L 396.431127 169.584157 
L 397.296873 232.526127 
L 397.621527 250.64111 
L 397.837964 244.271115 
L 398.0544 241.659877 
L 398.162618 240.702609 
L 398.379055 237.220224 
L 398.487273 218.185671 
L 398.487273 218.185671 
" style="fill:none;stroke:#ff7f0e;stroke-linecap:square;stroke-width:1.5;"/>
   </g>
   <g id="patch_3">
    <path d="M 57.6 307.584 
L 57.6 41.472 
" style="fill:none;stroke:#000000;stroke-linecap:square;stroke-linejoin:miter;stroke-width:0.8;"/>
   </g>
   <g id="patch_4">
    <path d="M 414.72 307.584 
L 414.72 41.472 
" style="fill:none;stroke:#000000;stroke-linecap:square;stroke-linejoin:miter;stroke-width:0.8;"/>
   </g>
   <g id="patch_5">
    <path d="M 57.6 307.584 
L 414.72 307.584 
" style="fill:none;stroke:#000000;stroke-linecap:square;stroke-linejoin:miter;stroke-width:0.8;"/>
   </g>
   <g id="patch_6">
    <path d="M 57.6 41.472 
L 414.72 41.472 
" style="fill:none;stroke:#000000;stroke-linecap:square;stroke-linejoin:miter;stroke-width:0.8;"/>
   </g>
  </g>
 </g>
 <defs>
  <clipPath id="peff7bc45be">
   <rect height="266.112" width="357.12" x="57.6" y="41.472"/>
  </clipPath>
 </defs>
</svg>
