<?xml version="1.0" encoding="utf-8" standalone="no"?>
<!DOCTYPE svg PUBLIC "-//W3C//DTD SVG 1.1//EN"
  "http://www.w3.org/Graphics/SVG/1.1/DTD/svg11.dtd">
<svg height="702pt" version="1.1" viewBox="0 0 1382.4 702" width="1382.4pt" xmlns="http://www.w3.org/2000/svg" xmlns:xlink="http://www.w3.org/1999/xlink">
 <metadata>
  <rdf:RDF xmlns:cc="http://creativecommons.org/ns#" xmlns:dc="http://purl.org/dc/elements/1.1/" xmlns:rdf="http://www.w3.org/1999/02/22-rdf-syntax-ns#">
   <cc:Work>
    <dc:type rdf:resource="http://purl.org/dc/dcmitype/StillImage"/>
    <dc:date>2022-06-16T01:21:25.069569</dc:date>
    <dc:format>image/svg+xml</dc:format>
    <dc:creator>
     <cc:Agent>
      <dc:title>Matplotlib v3.4.2, https://matplotlib.org/</dc:title>
     </cc:Agent>
    </dc:creator>
   </cc:Work>
  </rdf:RDF>
 </metadata>
 <defs>
  <style type="text/css">*{stroke-linecap:butt;stroke-linejoin:round;}</style>
 </defs>
 <g id="figure_1">
  <g id="patch_1">
   <path d="M 0 702 
L 1382.4 702 
L 1382.4 0 
L 0 0 
z
" style="fill:#ffffff;"/>
  </g>
  <g id="axes_1">
   <g id="patch_2">
    <path d="M 172.8 624.78 
L 1244.16 624.78 
L 1244.16 84.24 
L 172.8 84.24 
z
" style="fill:#ffffff;"/>
   </g>
   <g id="matplotlib.axis_1">
    <g id="xtick_1">
     <g id="line2d_1">
      <defs>
       <path d="M 0 0 
L 0 3.5 
" id="m09b8d6da3e" style="stroke:#000000;stroke-width:0.8;"/>
      </defs>
      <g>
       <use style="stroke:#000000;stroke-width:0.8;" x="221.498182" xlink:href="#m09b8d6da3e" y="624.78"/>
      </g>
     </g>
     <g id="text_1">
      <!-- 0 -->
      <g transform="translate(218.316932 639.378438)scale(0.1 -0.1)">
       <defs>
        <path d="M 2034 4250 
Q 1547 4250 1301 3770 
Q 1056 3291 1056 2328 
Q 1056 1369 1301 889 
Q 1547 409 2034 409 
Q 2525 409 2770 889 
Q 3016 1369 3016 2328 
Q 3016 3291 2770 3770 
Q 2525 4250 2034 4250 
z
M 2034 4750 
Q 2819 4750 3233 4129 
Q 3647 3509 3647 2328 
Q 3647 1150 3233 529 
Q 2819 -91 2034 -91 
Q 1250 -91 836 529 
Q 422 1150 422 2328 
Q 422 3509 836 4129 
Q 1250 4750 2034 4750 
z
" id="DejaVuSans-30" transform="scale(0.015625)"/>
       </defs>
       <use xlink:href="#DejaVuSans-30"/>
      </g>
     </g>
    </g>
    <g id="xtick_2">
     <g id="line2d_2">
      <g>
       <use style="stroke:#000000;stroke-width:0.8;" x="383.825455" xlink:href="#m09b8d6da3e" y="624.78"/>
      </g>
     </g>
     <g id="text_2">
      <!-- 500 -->
      <g transform="translate(374.281705 639.378438)scale(0.1 -0.1)">
       <defs>
        <path d="M 691 4666 
L 3169 4666 
L 3169 4134 
L 1269 4134 
L 1269 2991 
Q 1406 3038 1543 3061 
Q 1681 3084 1819 3084 
Q 2600 3084 3056 2656 
Q 3513 2228 3513 1497 
Q 3513 744 3044 326 
Q 2575 -91 1722 -91 
Q 1428 -91 1123 -41 
Q 819 9 494 109 
L 494 744 
Q 775 591 1075 516 
Q 1375 441 1709 441 
Q 2250 441 2565 725 
Q 2881 1009 2881 1497 
Q 2881 1984 2565 2268 
Q 2250 2553 1709 2553 
Q 1456 2553 1204 2497 
Q 953 2441 691 2322 
L 691 4666 
z
" id="DejaVuSans-35" transform="scale(0.015625)"/>
       </defs>
       <use xlink:href="#DejaVuSans-35"/>
       <use x="63.623047" xlink:href="#DejaVuSans-30"/>
       <use x="127.246094" xlink:href="#DejaVuSans-30"/>
      </g>
     </g>
    </g>
    <g id="xtick_3">
     <g id="line2d_3">
      <g>
       <use style="stroke:#000000;stroke-width:0.8;" x="546.152727" xlink:href="#m09b8d6da3e" y="624.78"/>
      </g>
     </g>
     <g id="text_3">
      <!-- 1000 -->
      <g transform="translate(533.427727 639.378438)scale(0.1 -0.1)">
       <defs>
        <path d="M 794 531 
L 1825 531 
L 1825 4091 
L 703 3866 
L 703 4441 
L 1819 4666 
L 2450 4666 
L 2450 531 
L 3481 531 
L 3481 0 
L 794 0 
L 794 531 
z
" id="DejaVuSans-31" transform="scale(0.015625)"/>
       </defs>
       <use xlink:href="#DejaVuSans-31"/>
       <use x="63.623047" xlink:href="#DejaVuSans-30"/>
       <use x="127.246094" xlink:href="#DejaVuSans-30"/>
       <use x="190.869141" xlink:href="#DejaVuSans-30"/>
      </g>
     </g>
    </g>
    <g id="xtick_4">
     <g id="line2d_4">
      <g>
       <use style="stroke:#000000;stroke-width:0.8;" x="708.48" xlink:href="#m09b8d6da3e" y="624.78"/>
      </g>
     </g>
     <g id="text_4">
      <!-- 1500 -->
      <g transform="translate(695.755 639.378438)scale(0.1 -0.1)">
       <use xlink:href="#DejaVuSans-31"/>
       <use x="63.623047" xlink:href="#DejaVuSans-35"/>
       <use x="127.246094" xlink:href="#DejaVuSans-30"/>
       <use x="190.869141" xlink:href="#DejaVuSans-30"/>
      </g>
     </g>
    </g>
    <g id="xtick_5">
     <g id="line2d_5">
      <g>
       <use style="stroke:#000000;stroke-width:0.8;" x="870.807273" xlink:href="#m09b8d6da3e" y="624.78"/>
      </g>
     </g>
     <g id="text_5">
      <!-- 2000 -->
      <g transform="translate(858.082273 639.378438)scale(0.1 -0.1)">
       <defs>
        <path d="M 1228 531 
L 3431 531 
L 3431 0 
L 469 0 
L 469 531 
Q 828 903 1448 1529 
Q 2069 2156 2228 2338 
Q 2531 2678 2651 2914 
Q 2772 3150 2772 3378 
Q 2772 3750 2511 3984 
Q 2250 4219 1831 4219 
Q 1534 4219 1204 4116 
Q 875 4013 500 3803 
L 500 4441 
Q 881 4594 1212 4672 
Q 1544 4750 1819 4750 
Q 2544 4750 2975 4387 
Q 3406 4025 3406 3419 
Q 3406 3131 3298 2873 
Q 3191 2616 2906 2266 
Q 2828 2175 2409 1742 
Q 1991 1309 1228 531 
z
" id="DejaVuSans-32" transform="scale(0.015625)"/>
       </defs>
       <use xlink:href="#DejaVuSans-32"/>
       <use x="63.623047" xlink:href="#DejaVuSans-30"/>
       <use x="127.246094" xlink:href="#DejaVuSans-30"/>
       <use x="190.869141" xlink:href="#DejaVuSans-30"/>
      </g>
     </g>
    </g>
    <g id="xtick_6">
     <g id="line2d_6">
      <g>
       <use style="stroke:#000000;stroke-width:0.8;" x="1033.134545" xlink:href="#m09b8d6da3e" y="624.78"/>
      </g>
     </g>
     <g id="text_6">
      <!-- 2500 -->
      <g transform="translate(1020.409545 639.378438)scale(0.1 -0.1)">
       <use xlink:href="#DejaVuSans-32"/>
       <use x="63.623047" xlink:href="#DejaVuSans-35"/>
       <use x="127.246094" xlink:href="#DejaVuSans-30"/>
       <use x="190.869141" xlink:href="#DejaVuSans-30"/>
      </g>
     </g>
    </g>
    <g id="xtick_7">
     <g id="line2d_7">
      <g>
       <use style="stroke:#000000;stroke-width:0.8;" x="1195.461818" xlink:href="#m09b8d6da3e" y="624.78"/>
      </g>
     </g>
     <g id="text_7">
      <!-- 3000 -->
      <g transform="translate(1182.736818 639.378438)scale(0.1 -0.1)">
       <defs>
        <path d="M 2597 2516 
Q 3050 2419 3304 2112 
Q 3559 1806 3559 1356 
Q 3559 666 3084 287 
Q 2609 -91 1734 -91 
Q 1441 -91 1130 -33 
Q 819 25 488 141 
L 488 750 
Q 750 597 1062 519 
Q 1375 441 1716 441 
Q 2309 441 2620 675 
Q 2931 909 2931 1356 
Q 2931 1769 2642 2001 
Q 2353 2234 1838 2234 
L 1294 2234 
L 1294 2753 
L 1863 2753 
Q 2328 2753 2575 2939 
Q 2822 3125 2822 3475 
Q 2822 3834 2567 4026 
Q 2313 4219 1838 4219 
Q 1578 4219 1281 4162 
Q 984 4106 628 3988 
L 628 4550 
Q 988 4650 1302 4700 
Q 1616 4750 1894 4750 
Q 2613 4750 3031 4423 
Q 3450 4097 3450 3541 
Q 3450 3153 3228 2886 
Q 3006 2619 2597 2516 
z
" id="DejaVuSans-33" transform="scale(0.015625)"/>
       </defs>
       <use xlink:href="#DejaVuSans-33"/>
       <use x="63.623047" xlink:href="#DejaVuSans-30"/>
       <use x="127.246094" xlink:href="#DejaVuSans-30"/>
       <use x="190.869141" xlink:href="#DejaVuSans-30"/>
      </g>
     </g>
    </g>
   </g>
   <g id="matplotlib.axis_2">
    <g id="ytick_1">
     <g id="line2d_8">
      <defs>
       <path d="M 0 0 
L -3.5 0 
" id="ma1d0670b5c" style="stroke:#000000;stroke-width:0.8;"/>
      </defs>
      <g>
       <use style="stroke:#000000;stroke-width:0.8;" x="172.8" xlink:href="#ma1d0670b5c" y="591.229475"/>
      </g>
     </g>
     <g id="text_8">
      <!-- −2.0 -->
      <g transform="translate(141.517187 595.028694)scale(0.1 -0.1)">
       <defs>
        <path d="M 678 2272 
L 4684 2272 
L 4684 1741 
L 678 1741 
L 678 2272 
z
" id="DejaVuSans-2212" transform="scale(0.015625)"/>
        <path d="M 684 794 
L 1344 794 
L 1344 0 
L 684 0 
L 684 794 
z
" id="DejaVuSans-2e" transform="scale(0.015625)"/>
       </defs>
       <use xlink:href="#DejaVuSans-2212"/>
       <use x="83.789062" xlink:href="#DejaVuSans-32"/>
       <use x="147.412109" xlink:href="#DejaVuSans-2e"/>
       <use x="179.199219" xlink:href="#DejaVuSans-30"/>
      </g>
     </g>
    </g>
    <g id="ytick_2">
     <g id="line2d_9">
      <g>
       <use style="stroke:#000000;stroke-width:0.8;" x="172.8" xlink:href="#ma1d0670b5c" y="510.826229"/>
      </g>
     </g>
     <g id="text_9">
      <!-- −1.5 -->
      <g transform="translate(141.517187 514.625448)scale(0.1 -0.1)">
       <use xlink:href="#DejaVuSans-2212"/>
       <use x="83.789062" xlink:href="#DejaVuSans-31"/>
       <use x="147.412109" xlink:href="#DejaVuSans-2e"/>
       <use x="179.199219" xlink:href="#DejaVuSans-35"/>
      </g>
     </g>
    </g>
    <g id="ytick_3">
     <g id="line2d_10">
      <g>
       <use style="stroke:#000000;stroke-width:0.8;" x="172.8" xlink:href="#ma1d0670b5c" y="430.422984"/>
      </g>
     </g>
     <g id="text_10">
      <!-- −1.0 -->
      <g transform="translate(141.517187 434.222202)scale(0.1 -0.1)">
       <use xlink:href="#DejaVuSans-2212"/>
       <use x="83.789062" xlink:href="#DejaVuSans-31"/>
       <use x="147.412109" xlink:href="#DejaVuSans-2e"/>
       <use x="179.199219" xlink:href="#DejaVuSans-30"/>
      </g>
     </g>
    </g>
    <g id="ytick_4">
     <g id="line2d_11">
      <g>
       <use style="stroke:#000000;stroke-width:0.8;" x="172.8" xlink:href="#ma1d0670b5c" y="350.019738"/>
      </g>
     </g>
     <g id="text_11">
      <!-- −0.5 -->
      <g transform="translate(141.517187 353.818956)scale(0.1 -0.1)">
       <use xlink:href="#DejaVuSans-2212"/>
       <use x="83.789062" xlink:href="#DejaVuSans-30"/>
       <use x="147.412109" xlink:href="#DejaVuSans-2e"/>
       <use x="179.199219" xlink:href="#DejaVuSans-35"/>
      </g>
     </g>
    </g>
    <g id="ytick_5">
     <g id="line2d_12">
      <g>
       <use style="stroke:#000000;stroke-width:0.8;" x="172.8" xlink:href="#ma1d0670b5c" y="269.616492"/>
      </g>
     </g>
     <g id="text_12">
      <!-- 0.0 -->
      <g transform="translate(149.896875 273.415711)scale(0.1 -0.1)">
       <use xlink:href="#DejaVuSans-30"/>
       <use x="63.623047" xlink:href="#DejaVuSans-2e"/>
       <use x="95.410156" xlink:href="#DejaVuSans-30"/>
      </g>
     </g>
    </g>
    <g id="ytick_6">
     <g id="line2d_13">
      <g>
       <use style="stroke:#000000;stroke-width:0.8;" x="172.8" xlink:href="#ma1d0670b5c" y="189.213246"/>
      </g>
     </g>
     <g id="text_13">
      <!-- 0.5 -->
      <g transform="translate(149.896875 193.012465)scale(0.1 -0.1)">
       <use xlink:href="#DejaVuSans-30"/>
       <use x="63.623047" xlink:href="#DejaVuSans-2e"/>
       <use x="95.410156" xlink:href="#DejaVuSans-35"/>
      </g>
     </g>
    </g>
    <g id="ytick_7">
     <g id="line2d_14">
      <g>
       <use style="stroke:#000000;stroke-width:0.8;" x="172.8" xlink:href="#ma1d0670b5c" y="108.81"/>
      </g>
     </g>
     <g id="text_14">
      <!-- 1.0 -->
      <g transform="translate(149.896875 112.609219)scale(0.1 -0.1)">
       <use xlink:href="#DejaVuSans-31"/>
       <use x="63.623047" xlink:href="#DejaVuSans-2e"/>
       <use x="95.410156" xlink:href="#DejaVuSans-30"/>
      </g>
     </g>
    </g>
   </g>
   <g id="line2d_15">
    <path clip-path="url(#pdef26079d0)" d="M 221.498182 255.262966 
L 222.147491 258.854002 
L 222.472145 258.671193 
L 222.7968 259.000465 
L 223.770764 262.295492 
L 224.744727 265.970198 
L 225.394036 269.460343 
L 226.043345 274.000409 
L 226.368 275.093554 
L 226.692655 274.545067 
L 227.017309 276.123559 
L 227.666618 283.778074 
L 227.991273 284.702554 
L 228.315927 284.693305 
L 230.263855 283.200671 
L 230.588509 283.26132 
L 230.913164 283.66272 
L 231.887127 285.479145 
L 232.211782 285.253603 
L 232.536436 280.898777 
L 233.185745 263.683071 
L 233.5104 260.193386 
L 233.835055 259.342313 
L 234.159709 259.450127 
L 234.484364 259.893178 
L 235.133673 261.34787 
L 235.782982 263.483773 
L 236.432291 266.393925 
L 237.0816 270.562023 
L 237.730909 274.951971 
L 238.055564 274.67655 
L 238.380218 275.166095 
L 239.029527 282.981008 
L 239.354182 284.538707 
L 239.678836 284.763365 
L 240.328145 284.299552 
L 241.626764 283.353406 
L 241.951418 283.301328 
L 242.276073 283.553111 
L 243.574691 285.732478 
L 243.899345 284.781883 
L 244.224 279.065048 
L 244.873309 263.168504 
L 245.197964 260.796224 
L 245.522618 260.40138 
L 245.847273 260.330988 
L 246.171927 260.499033 
L 246.496582 260.961307 
L 246.821236 261.723843 
L 247.470545 264.28258 
L 248.119855 268.231567 
L 248.769164 273.964482 
L 249.418473 280.173208 
L 249.743127 280.46947 
L 250.067782 281.494125 
L 250.717091 286.433112 
L 251.041745 286.794787 
L 253.314327 286.811145 
L 256.560873 286.810978 
L 256.885527 286.571073 
L 257.859491 285.500122 
L 258.5088 285.040516 
L 259.158109 284.791509 
L 259.807418 284.751868 
L 260.456727 284.929334 
L 261.106036 285.332095 
L 261.755345 285.92038 
L 262.404655 286.720402 
L 263.053964 286.811302 
L 267.599127 286.811016 
L 268.248436 286.593329 
L 269.871709 286.215768 
L 270.521018 285.879415 
L 271.170327 285.499077 
L 272.7936 285.317262 
L 274.416873 284.093737 
L 275.390836 283.252255 
L 275.715491 283.107868 
L 276.040145 283.164952 
L 276.3648 283.533467 
L 277.014109 284.952148 
L 277.338764 284.767318 
L 277.663418 280.378056 
L 278.312727 264.536867 
L 278.637382 261.26473 
L 278.962036 260.533041 
L 279.286691 260.730355 
L 279.936 261.924252 
L 280.585309 263.683461 
L 281.234618 266.026856 
L 281.883927 269.316432 
L 282.857891 275.001728 
L 283.182545 274.524573 
L 283.5072 275.281175 
L 284.156509 282.880968 
L 284.481164 284.514143 
L 284.805818 284.797075 
L 285.455127 284.355468 
L 286.753745 283.43646 
L 287.0784 283.444786 
L 287.403055 283.779538 
L 288.377018 285.637331 
L 288.701673 284.621746 
L 289.026327 278.972194 
L 289.675636 264.443014 
L 290.000291 262.440317 
L 290.324945 262.257368 
L 290.974255 263.101018 
L 291.623564 264.409376 
L 292.272873 266.205395 
L 292.922182 268.778479 
L 293.571491 272.500258 
L 293.896145 274.537588 
L 294.2208 275.383162 
L 294.545455 274.875201 
L 294.870109 276.490173 
L 295.519418 283.78797 
L 295.844073 284.732545 
L 296.168727 284.709678 
L 298.116655 283.127348 
L 298.441309 283.326293 
L 298.765964 283.932482 
L 299.415273 285.388868 
L 299.739927 283.146462 
L 300.713891 261.764178 
L 301.038545 260.215062 
L 301.3632 260.11989 
L 301.687855 260.490145 
L 302.337164 261.829932 
L 302.986473 263.808335 
L 303.635782 266.453177 
L 304.285091 270.166284 
L 304.9344 274.586971 
L 305.259055 274.89524 
L 305.583709 274.587591 
L 305.908364 277.247774 
L 306.233018 281.636068 
L 306.557673 284.093833 
L 306.882327 284.721116 
L 307.206982 284.627833 
L 308.830255 283.335907 
L 309.154909 283.218206 
L 309.479564 283.377822 
L 310.128873 284.549541 
L 310.778182 285.640444 
L 311.102836 285.189594 
L 311.427491 280.445186 
L 312.0768 263.278544 
L 312.401455 259.789388 
L 312.726109 258.992786 
L 313.050764 259.170936 
L 313.700073 260.372791 
L 314.349382 262.268785 
L 314.998691 264.822635 
L 315.648 268.392378 
L 316.621964 274.899094 
L 316.946618 274.539833 
L 317.271273 275.201643 
L 317.920582 282.972984 
L 318.245236 284.557969 
L 318.569891 284.775391 
L 319.543855 284.008146 
L 320.517818 283.260988 
L 320.842473 283.220908 
L 321.167127 283.498308 
L 322.465745 285.740068 
L 322.7904 285.519994 
L 323.115055 281.531901 
L 323.764364 264.872837 
L 324.089018 261.192083 
L 324.413673 260.369217 
L 324.738327 260.584834 
L 325.387636 261.736873 
L 326.036945 263.394261 
L 326.686255 265.618774 
L 327.335564 268.749729 
L 328.309527 274.955644 
L 328.634182 274.790095 
L 328.958836 275.227612 
L 329.608145 282.938671 
L 329.9328 284.731256 
L 330.257455 285.020487 
L 330.906764 284.554716 
L 332.205382 283.476613 
L 332.530036 283.415513 
L 332.854691 283.716454 
L 333.504 285.165863 
L 333.828655 284.825519 
L 334.153309 280.002072 
L 334.802618 264.261934 
L 335.127273 261.549677 
L 335.451927 261.08014 
L 335.776582 261.343345 
L 336.425891 262.435721 
L 337.0752 264.039794 
L 337.724509 266.253805 
L 338.373818 269.436396 
L 339.023127 273.585561 
L 339.347782 274.742138 
L 339.672436 274.202653 
L 339.997091 275.30503 
L 340.6464 283.288181 
L 340.971055 284.667837 
L 341.295709 284.807412 
L 342.269673 284.006739 
L 343.243636 283.265856 
L 343.568291 283.334058 
L 343.892945 283.78072 
L 344.542255 285.147343 
L 344.866909 285.420457 
L 345.191564 282.113684 
L 345.840873 264.04053 
L 346.165527 259.412769 
L 346.490182 258.089493 
L 346.814836 258.064792 
L 347.139491 258.479329 
L 347.7888 259.958875 
L 348.438109 262.222083 
L 349.087418 265.269963 
L 349.736727 269.530877 
L 350.386036 274.452394 
L 350.710691 274.637922 
L 351.035345 274.593045 
L 352.009309 284.359817 
L 352.333964 284.796139 
L 352.983273 284.41923 
L 354.606545 283.363741 
L 354.9312 283.544682 
L 355.580509 284.715117 
L 355.905164 285.370875 
L 356.229818 285.068064 
L 356.554473 280.218784 
L 357.203782 263.347897 
L 357.528436 260.264235 
L 357.853091 259.592076 
L 358.177745 259.754893 
L 358.5024 260.205383 
L 359.151709 261.690592 
L 359.801018 263.864677 
L 360.450327 266.832552 
L 361.099636 271.055353 
L 361.748945 275.192095 
L 362.0736 274.788327 
L 362.398255 275.576716 
L 363.047564 283.291621 
L 363.372218 284.627722 
L 363.696873 284.778851 
L 364.995491 283.945948 
L 365.6448 283.547021 
L 365.969455 283.537604 
L 366.294109 283.835905 
L 366.943418 285.186317 
L 367.268073 285.171922 
L 367.592727 281.176347 
L 368.242036 265.831274 
L 368.566691 263.0186 
L 368.891345 262.525695 
L 369.216 262.750075 
L 369.865309 263.723632 
L 370.514618 265.153562 
L 371.163927 267.164752 
L 371.813236 270.099756 
L 372.7872 275.395128 
L 373.111855 274.931315 
L 373.436509 275.581206 
L 374.085818 283.20188 
L 374.410473 284.570144 
L 374.735127 284.682806 
L 375.709091 283.86403 
L 376.3584 283.300437 
L 376.683055 283.149225 
L 377.007709 283.272171 
L 377.332364 283.787349 
L 377.981673 285.314742 
L 378.306327 284.985508 
L 378.630982 280.151588 
L 379.280291 263.551177 
L 379.604945 260.502538 
L 379.9296 259.780313 
L 380.254255 259.899329 
L 380.578909 260.326888 
L 381.228218 261.829532 
L 381.877527 264.047101 
L 382.526836 267.058303 
L 383.176145 271.410752 
L 383.5008 273.922218 
L 383.825455 275.443828 
L 384.150109 274.954129 
L 384.474764 275.655572 
L 385.124073 283.0666 
L 385.448727 284.354939 
L 385.773382 284.506279 
L 387.721309 283.374815 
L 388.045964 283.384556 
L 388.370618 283.692579 
L 389.344582 285.468372 
L 389.669236 285.298893 
L 389.993891 281.135372 
L 390.6432 264.490654 
L 390.967855 261.031642 
L 391.292509 260.150669 
L 391.617164 260.2251 
L 391.941818 260.64132 
L 392.591127 262.073189 
L 393.240436 264.167529 
L 393.889745 267.047182 
L 394.539055 271.207187 
L 395.188364 275.373385 
L 395.513018 275.005461 
L 395.837673 275.336064 
L 396.486982 282.734519 
L 396.811636 284.262104 
L 397.136291 284.500707 
L 399.408873 283.423093 
L 399.733527 283.757879 
L 400.707491 285.458701 
L 401.032145 285.845197 
L 401.3568 284.929729 
L 401.681455 279.246332 
L 402.330764 263.823701 
L 402.655418 261.681561 
L 402.980073 261.395335 
L 403.304727 261.663834 
L 403.954036 262.762925 
L 404.603345 264.349961 
L 405.252655 266.647066 
L 405.901964 269.992513 
L 406.551273 274.481117 
L 406.875927 275.670541 
L 407.200582 275.157993 
L 407.525236 276.583822 
L 408.174545 283.932157 
L 408.4992 284.831296 
L 408.823855 284.807127 
L 410.447127 283.516826 
L 410.771782 281.188076 
L 411.421091 256.265136 
L 412.0704 241.132889 
L 412.719709 232.232219 
L 413.044364 229.843027 
L 413.369018 228.848941 
L 413.693673 229.229512 
L 414.018327 231.010288 
L 414.342982 234.129113 
L 414.992291 244.147487 
L 415.6416 259.002029 
L 416.615564 286.811489 
L 417.589527 286.811494 
L 418.563491 188.451331 
L 419.2128 144.125885 
L 419.862109 117.720179 
L 420.186764 111.224565 
L 420.511418 109.20102 
L 420.836073 111.66489 
L 421.160727 118.599964 
L 421.485382 129.997988 
L 422.459345 174.092316 
L 423.108655 174.092316 
L 423.433309 170.483312 
L 424.082618 132.542042 
L 424.407273 120.299311 
L 424.731927 112.536519 
L 425.056582 109.248603 
L 425.381236 110.435291 
L 425.705891 116.08615 
L 426.030545 126.225804 
L 426.679855 159.930703 
L 427.329164 211.547143 
L 427.978473 281.063632 
L 428.303127 286.811498 
L 428.952436 286.811507 
L 429.277091 276.856102 
L 429.9264 208.280915 
L 430.575709 157.623816 
L 431.225018 124.849234 
L 431.549673 115.18583 
L 431.874327 109.989017 
L 432.198982 109.273343 
L 432.523636 113.029146 
L 432.848291 121.261606 
L 433.172945 133.980248 
L 433.822255 172.831524 
L 434.146909 173.755843 
L 434.796218 173.761543 
L 435.120873 163.661548 
L 435.770182 128.35227 
L 436.094836 117.41019 
L 436.419491 110.945322 
L 436.744145 108.961225 
L 437.0688 111.443145 
L 437.393455 118.403385 
L 437.718109 129.855113 
L 438.367418 166.162282 
L 439.016727 220.390178 
L 439.666036 286.811272 
L 440.64 286.811503 
L 440.964655 265.661569 
L 441.613964 199.690486 
L 442.263273 151.623101 
L 442.912582 121.453237 
L 443.237236 113.082152 
L 443.561891 109.185551 
L 443.886545 109.768642 
L 444.2112 114.830231 
L 444.535855 124.361576 
L 445.185164 156.867659 
L 445.509818 173.512353 
L 446.483782 173.52376 
L 447.457745 124.611672 
L 447.7824 114.962923 
L 448.107055 109.804827 
L 448.431709 109.108839 
L 448.756364 112.896367 
L 449.081018 121.162902 
L 449.405673 133.888528 
L 450.054982 172.791748 
L 450.704291 229.598254 
L 451.028945 264.705615 
L 451.3536 286.811491 
L 452.327564 286.811502 
L 453.626182 166.580004 
L 454.275491 130.049127 
L 454.600145 118.504654 
L 454.9248 111.42137 
L 455.249455 108.81 
L 455.574109 110.682282 
L 455.898764 117.028078 
L 456.223418 127.841588 
L 457.197382 173.467319 
L 458.171345 173.473021 
L 458.820655 134.401643 
L 459.145309 121.625623 
L 459.469964 113.338994 
L 459.794618 109.527951 
L 460.119273 110.177708 
L 460.443927 115.311491 
L 460.768582 124.927705 
L 461.417891 157.583067 
L 462.0672 208.147356 
L 462.716509 276.594399 
L 463.041164 286.811489 
L 463.690473 286.811488 
L 464.015127 281.381665 
L 464.664436 211.974186 
L 465.313745 160.408829 
L 465.963055 126.779468 
L 466.287709 116.659259 
L 466.612364 111.014636 
L 466.937018 109.856382 
L 467.261673 113.180653 
L 467.586327 120.962774 
L 467.910982 133.227921 
L 468.560291 171.198271 
L 469.2096 224.6724 
L 469.858909 284.506682 
L 471.482182 278.322782 
L 471.806836 277.395173 
L 472.131491 276.987442 
L 472.456145 276.946816 
L 473.430109 277.126733 
L 473.754764 277.154199 
L 474.079418 277.330024 
L 474.404073 278.203501 
L 474.728727 282.115039 
L 475.053382 284.092983 
L 475.378036 284.505143 
L 477.650618 283.840044 
L 477.975273 284.057292 
L 478.299927 284.711518 
L 478.624582 284.466277 
L 478.949236 279.106528 
L 479.273891 269.920601 
L 479.598545 264.013231 
L 479.9232 262.170844 
L 480.247855 261.881844 
L 480.572509 262.068406 
L 480.897164 262.467532 
L 481.546473 263.876931 
L 482.195782 265.847757 
L 482.845091 268.558151 
L 484.143709 275.645773 
L 484.468364 274.980314 
L 484.793018 276.429729 
L 485.117673 280.882768 
L 485.442327 283.686529 
L 485.766982 284.335994 
L 486.416291 284.103796 
L 487.390255 283.731463 
L 487.714909 283.569924 
L 488.039564 283.540501 
L 488.364218 283.786046 
L 489.338182 285.53648 
L 489.662836 283.782692 
L 490.6368 259.631881 
L 490.961455 257.784664 
L 491.286109 257.339178 
L 491.610764 257.357522 
L 491.935418 257.637596 
L 492.260073 258.279662 
L 492.909382 260.679247 
L 493.558691 263.916439 
L 494.208 268.535764 
L 494.857309 274.428475 
L 495.181964 275.546244 
L 495.506618 274.788149 
L 495.831273 276.798482 
L 496.155927 281.042047 
L 496.480582 283.086933 
L 496.805236 283.433705 
L 497.454545 283.302649 
L 498.103855 283.627752 
L 498.753164 283.467516 
L 499.077818 283.419426 
L 499.402473 283.592859 
L 500.051782 284.594833 
L 500.701091 285.581095 
L 501.025745 285.391175 
L 501.3504 280.860096 
L 501.999709 262.885198 
L 502.324364 259.618842 
L 502.649018 258.749219 
L 502.973673 258.619431 
L 503.298327 258.786482 
L 503.622982 259.210272 
L 504.272291 261.121618 
L 504.9216 263.844577 
L 505.570909 267.828124 
L 506.544873 275.451232 
L 506.869527 275.07308 
L 507.194182 275.149123 
L 507.843491 282.254319 
L 508.168145 283.308039 
L 508.4928 283.379384 
L 508.817455 283.300112 
L 509.142109 283.362477 
L 509.466764 283.548226 
L 509.791418 283.572533 
L 510.440727 283.285095 
L 510.765382 283.354395 
L 511.090036 283.75665 
L 511.739345 284.999522 
L 512.388655 285.741358 
L 512.713309 285.382484 
L 513.037964 280.76565 
L 513.687273 264.268896 
L 514.011927 261.826828 
L 514.336582 261.376832 
L 514.661236 261.462448 
L 514.985891 261.724572 
L 515.310545 262.194757 
L 515.959855 263.755523 
L 516.609164 266.022894 
L 517.258473 269.488553 
L 518.232436 275.637922 
L 518.557091 275.02378 
L 518.881745 275.525294 
L 519.531055 283.047023 
L 519.855709 283.937321 
L 520.180364 283.881027 
L 520.829673 283.571489 
L 521.478982 283.301619 
L 521.803636 283.111846 
L 522.128291 283.081266 
L 522.452945 283.370323 
L 523.426909 285.203579 
L 524.076218 285.831916 
L 524.400873 284.39493 
L 524.725527 277.609364 
L 525.050182 267.493088 
L 525.374836 261.203605 
L 525.699491 259.118338 
L 526.024145 258.619915 
L 526.3488 258.61912 
L 526.673455 258.82466 
L 526.998109 259.357316 
L 527.647418 261.531332 
L 528.296727 264.506413 
L 528.946036 268.902672 
L 529.595345 274.590469 
L 529.92 275.708183 
L 530.244655 274.834714 
L 530.569309 276.125984 
L 530.893964 280.265038 
L 531.218618 282.714351 
L 531.543273 283.192116 
L 532.192582 283.008321 
L 533.166545 283.338635 
L 533.815855 283.109204 
L 534.140509 283.284228 
L 534.789818 284.52173 
L 535.114473 285.094103 
L 535.763782 285.593572 
L 536.088436 285.810452 
L 536.413091 284.562921 
L 536.737745 277.885952 
L 537.0624 267.584847 
L 537.387055 261.178271 
L 537.711709 259.221492 
L 538.036364 258.855763 
L 538.361018 258.931865 
L 538.685673 259.187492 
L 539.010327 259.679685 
L 539.659636 261.630178 
L 540.308945 264.428781 
L 540.958255 268.666554 
L 541.607564 274.298706 
L 541.932218 275.628043 
L 542.256873 274.883247 
L 542.581527 276.304001 
L 542.906182 280.743978 
L 543.230836 283.374246 
L 543.555491 283.82628 
L 544.529455 283.456477 
L 544.854109 283.548481 
L 545.503418 283.35126 
L 545.828073 283.266432 
L 546.152727 283.437758 
L 546.802036 284.759284 
L 547.126691 285.361647 
L 547.776 285.89843 
L 548.100655 285.999163 
L 548.425309 283.557567 
L 549.399273 262.639606 
L 549.723927 261.789831 
L 550.048582 261.828609 
L 550.373236 262.098877 
L 550.697891 262.523451 
L 551.3472 263.932858 
L 551.996509 265.954082 
L 552.645818 268.875412 
L 553.619782 275.164726 
L 553.944436 275.406318 
L 554.269091 274.962243 
L 554.593745 277.899482 
L 554.9184 282.43117 
L 555.243055 284.204049 
L 555.567709 284.342154 
L 556.541673 283.745822 
L 557.515636 283.278485 
L 557.840291 283.339392 
L 558.164945 283.749004 
L 558.814255 285.104812 
L 559.463564 285.734015 
L 559.788218 285.95282 
L 560.112873 284.700901 
L 560.437527 278.492808 
L 561.086836 261.563169 
L 561.411491 259.219 
L 561.736145 258.75222 
L 562.0608 258.83918 
L 562.385455 259.143312 
L 562.710109 259.680024 
L 563.359418 261.791656 
L 564.008727 264.801682 
L 564.658036 269.117231 
L 565.307345 274.813508 
L 565.632 276.17532 
L 565.956655 275.440795 
L 566.281309 276.401968 
L 566.930618 283.180159 
L 567.255273 283.74645 
L 568.229236 283.281863 
L 568.878545 283.353746 
L 569.527855 283.169321 
L 569.852509 283.299132 
L 570.177164 283.739275 
L 570.826473 285.038704 
L 571.475782 285.724869 
L 571.800436 285.879047 
L 572.125091 283.650099 
L 573.099055 262.1325 
L 573.423709 260.892924 
L 573.748364 260.848641 
L 574.397673 261.504669 
L 574.722327 262.101659 
L 575.371636 263.973264 
L 576.020945 266.679777 
L 576.670255 270.774925 
L 577.319564 275.753437 
L 577.644218 276.230919 
L 577.968873 275.675383 
L 578.293527 277.89923 
L 578.618182 282.163343 
L 578.942836 284.220906 
L 579.267491 284.47238 
L 580.241455 283.876096 
L 581.540073 283.458723 
L 581.864727 283.744453 
L 582.838691 285.517645 
L 583.163345 285.760948 
L 583.488 283.334075 
L 584.461964 262.795974 
L 584.786618 261.721357 
L 585.111273 261.679224 
L 585.435927 261.93795 
L 585.760582 262.349389 
L 586.409891 263.843556 
L 587.0592 266.016241 
L 587.708509 269.165389 
L 588.682473 275.756951 
L 589.007127 275.886626 
L 589.331782 275.364554 
L 589.656436 277.865535 
L 589.981091 281.989363 
L 590.305745 283.822146 
L 590.6304 284.033272 
L 591.604364 283.574241 
L 592.253673 283.355816 
L 592.578327 283.215772 
L 592.902982 283.250167 
L 593.227636 283.622577 
L 594.2016 285.416559 
L 594.526255 285.780508 
L 594.850909 285.335415 
L 595.175564 280.401507 
L 595.824873 262.984622 
L 596.149527 260.122712 
L 596.474182 259.503666 
L 596.798836 259.557435 
L 597.123491 259.865896 
L 597.448145 260.36986 
L 598.097455 262.232858 
L 598.746764 264.938122 
L 599.396073 268.740263 
L 600.370036 275.78217 
L 600.694691 275.303945 
L 601.019345 275.757598 
L 601.668655 283.049262 
L 601.993309 283.971586 
L 602.317964 283.912318 
L 602.967273 283.546286 
L 603.616582 283.561549 
L 604.265891 283.350024 
L 604.590545 283.401583 
L 604.9152 283.74786 
L 605.889164 285.450885 
L 606.213818 285.767261 
L 606.538473 285.845299 
L 606.863127 283.172094 
L 607.837091 262.701256 
L 608.161745 261.725873 
L 608.4864 261.761212 
L 609.135709 262.513 
L 609.785018 263.979788 
L 610.434327 266.207661 
L 611.083636 269.438761 
L 612.0576 276.227578 
L 612.382255 276.446448 
L 612.706909 276.107472 
L 613.031564 278.703403 
L 613.356218 282.750468 
L 613.680873 284.528808 
L 614.005527 284.693752 
L 615.304145 283.892003 
L 615.953455 283.553095 
L 616.278109 283.568249 
L 616.602764 283.891986 
L 617.576727 285.528507 
L 617.901382 282.717586 
L 618.550691 266.538814 
L 618.875345 262.695582 
L 619.2 261.783214 
L 619.524655 261.797091 
L 619.849309 262.086642 
L 620.173964 262.542173 
L 620.823273 264.096166 
L 621.472582 266.373978 
L 622.121891 269.554297 
L 623.095855 276.0229 
L 623.420509 275.962953 
L 623.745164 275.680395 
L 624.069818 278.562331 
L 624.394473 282.529109 
L 624.719127 284.127486 
L 625.043782 284.26755 
L 625.693091 283.85434 
L 627.316364 283.491024 
L 627.641018 283.809978 
L 628.614982 285.511882 
L 628.939636 285.743682 
L 629.264291 283.108583 
L 630.238255 261.162565 
L 630.562909 259.793376 
L 630.887564 259.637108 
L 631.212218 259.875306 
L 631.536873 260.323058 
L 631.861527 261.031086 
L 632.510836 263.244416 
L 633.160145 266.279764 
L 633.809455 270.618455 
L 634.458764 275.712398 
L 634.783418 276.075812 
L 635.108073 275.569757 
L 635.432727 277.980154 
L 635.757382 282.010197 
L 636.082036 283.884245 
L 636.406691 284.156622 
L 637.380655 283.750315 
L 638.029964 283.63365 
L 638.679273 283.518085 
L 639.003927 283.747489 
L 640.302545 285.6734 
L 640.6272 283.099093 
L 641.601164 262.570938 
L 641.925818 261.597081 
L 642.250473 261.633817 
L 642.899782 262.436601 
L 643.549091 263.965794 
L 644.1984 266.148205 
L 644.847709 269.301622 
L 645.821673 275.999806 
L 646.146327 276.202755 
L 646.470982 275.869782 
L 646.795636 278.56956 
L 647.120291 282.674997 
L 647.444945 284.422456 
L 647.7696 284.602219 
L 649.068218 283.88654 
L 649.717527 283.491945 
L 650.042182 283.46863 
L 650.366836 283.853246 
L 650.691491 284.70315 
L 651.016145 284.170472 
L 651.3408 278.222579 
L 651.665455 268.775482 
L 651.990109 262.954269 
L 652.314764 261.203994 
L 652.639418 260.941391 
L 652.964073 261.123573 
L 653.288727 261.498141 
L 653.613382 262.07754 
L 654.262691 263.888178 
L 654.912 266.316435 
L 655.561309 269.93474 
L 656.210618 274.572023 
L 656.535273 275.528581 
L 656.859927 274.794701 
L 657.184582 276.402917 
L 657.509236 280.891661 
L 657.833891 283.532604 
L 658.158545 284.046722 
L 659.132509 283.678104 
L 659.781818 283.608732 
L 660.431127 283.419524 
L 660.755782 283.589917 
L 661.080436 284.0426 
L 661.729745 285.389756 
L 662.0544 284.150306 
L 662.379055 277.156505 
L 662.703709 266.875378 
L 663.028364 260.757425 
L 663.353018 258.901822 
L 663.677673 258.576049 
L 664.002327 258.716935 
L 664.326982 259.064164 
L 664.651636 259.674042 
L 665.300945 261.762075 
L 665.950255 264.653971 
L 666.599564 268.78401 
L 667.248873 274.03541 
L 667.573527 275.132671 
L 667.898182 274.368039 
L 668.222836 276.163458 
L 668.547491 280.775382 
L 668.872145 283.355819 
L 669.1968 283.83443 
L 670.170764 283.556503 
L 670.495418 283.65417 
L 671.794036 283.617923 
L 672.443345 284.646912 
L 673.092655 285.648091 
L 673.417309 283.651313 
L 674.391273 261.615127 
L 674.715927 260.469807 
L 675.040582 260.455799 
L 675.689891 261.173035 
L 676.3392 262.649283 
L 676.988509 264.825069 
L 677.637818 268.030597 
L 678.611782 274.853735 
L 678.936436 275.395901 
L 679.261091 274.871415 
L 679.585745 277.532855 
L 679.9104 282.180494 
L 680.235055 284.268401 
L 680.559709 284.5084 
L 681.533673 283.898045 
L 682.182982 283.631581 
L 682.507636 283.453434 
L 682.832291 283.408632 
L 683.156945 283.690683 
L 683.806255 285.091229 
L 684.130909 282.518906 
L 684.780218 265.185821 
L 685.104873 261.328883 
L 685.429527 260.423315 
L 685.754182 260.415547 
L 686.078836 260.688142 
L 686.403491 261.12582 
L 687.0528 262.719923 
L 687.702109 264.969082 
L 688.351418 268.157501 
L 689.325382 274.678011 
L 689.650036 274.648675 
L 689.974691 274.328605 
L 690.948655 283.761972 
L 691.273309 283.917383 
L 691.922618 283.566905 
L 692.571927 283.540382 
L 693.221236 283.303715 
L 693.545891 283.358513 
L 693.870545 283.684857 
L 694.844509 285.398751 
L 695.169164 285.573982 
L 695.493818 282.216917 
L 696.143127 263.300665 
L 696.467782 259.104562 
L 696.792436 258.082826 
L 697.117091 258.033909 
L 697.441745 258.278422 
L 697.7664 258.709163 
L 698.091055 259.435372 
L 698.740364 261.715507 
L 699.389673 264.834162 
L 700.038982 269.365412 
L 700.688291 274.547374 
L 701.012945 274.617971 
L 701.3376 274.259517 
L 702.311564 283.617613 
L 702.636218 283.715989 
L 703.285527 283.339226 
L 703.934836 283.432159 
L 704.9088 283.248216 
L 705.233455 283.556446 
L 706.207418 285.309751 
L 706.532073 285.638288 
L 706.856727 285.788259 
L 707.181382 283.051308 
L 707.830691 265.339853 
L 708.155345 261.041017 
L 708.48 260.108333 
L 708.804655 260.182567 
L 709.453964 260.956662 
L 710.103273 262.431119 
L 710.752582 264.632197 
L 711.401891 267.866525 
L 712.375855 274.766589 
L 712.700509 275.01254 
L 713.025164 274.673025 
L 713.349818 277.813773 
L 713.674473 282.457756 
L 713.999127 284.359953 
L 714.323782 284.534466 
L 715.297745 283.851774 
L 716.271709 283.304111 
L 716.596364 283.336195 
L 716.921018 283.713091 
L 717.894982 285.63154 
L 718.219636 284.206906 
L 718.544291 277.353949 
L 718.868945 267.647676 
L 719.1936 262.119112 
L 719.518255 260.560475 
L 719.842909 260.38836 
L 720.167564 260.609778 
L 720.492218 261.006132 
L 721.141527 262.456328 
L 721.790836 264.598227 
L 722.440145 267.651735 
L 723.414109 274.328765 
L 723.738764 275.046978 
L 724.063418 274.317616 
L 724.388073 276.354699 
L 724.712727 281.065195 
L 725.037382 283.616275 
L 725.362036 284.092223 
L 727.309964 283.292584 
L 727.634618 283.274565 
L 727.959273 283.534007 
L 729.257891 285.677155 
L 729.582545 284.424021 
L 729.9072 277.456599 
L 730.231855 267.158266 
L 730.556509 260.932908 
L 730.881164 259.068896 
L 731.205818 258.772056 
L 731.530473 258.936809 
L 731.855127 259.323319 
L 732.179782 259.926959 
L 732.829091 261.911537 
L 733.4784 264.650374 
L 734.127709 268.613516 
L 734.777018 273.771059 
L 735.101673 274.949136 
L 735.426327 274.230288 
L 735.750982 276.043551 
L 736.075636 280.755205 
L 736.400291 283.484699 
L 736.724945 284.0009 
L 737.698909 283.555525 
L 738.348218 283.517319 
L 738.997527 283.302592 
L 739.322182 283.43054 
L 739.646836 283.873192 
L 740.296145 285.093262 
L 740.945455 285.813921 
L 741.270109 284.206879 
L 741.594764 277.431996 
L 741.919418 268.121389 
L 742.244073 262.890191 
L 742.568727 261.500609 
L 742.893382 261.449967 
L 743.218036 261.739618 
L 743.867345 262.771421 
L 744.516655 264.441765 
L 745.165964 266.844218 
L 745.815273 270.426352 
L 746.464582 274.981739 
L 746.789236 275.732463 
L 747.113891 275.18086 
L 747.438545 277.312995 
L 747.7632 281.873975 
L 748.087855 284.312038 
L 748.412509 284.728709 
L 750.685091 283.369582 
L 751.009745 283.600093 
L 751.983709 285.291923 
L 752.308364 282.050277 
L 752.957673 266.127028 
L 753.282327 262.722444 
L 753.606982 261.950796 
L 753.931636 262.016799 
L 754.256291 262.34516 
L 754.580945 262.84907 
L 755.230255 264.437427 
L 755.879564 266.63705 
L 756.528873 269.838761 
L 757.502836 275.974238 
L 757.827491 275.673248 
L 758.152145 275.666967 
L 758.801455 282.732077 
L 759.126109 284.195868 
L 759.450764 284.326876 
L 760.424727 283.806071 
L 761.398691 283.385862 
L 761.723345 283.454817 
L 762.048 283.811797 
L 763.021964 285.602601 
L 763.346618 283.790652 
L 764.320582 261.814074 
L 764.645236 260.080162 
L 764.969891 259.821958 
L 765.294545 260.052335 
L 765.6192 260.514931 
L 766.268509 262.170141 
L 766.917818 264.632361 
L 767.567127 268.031945 
L 768.541091 275.22401 
L 768.865745 275.886295 
L 769.1904 275.281199 
L 769.515055 277.212536 
L 769.839709 281.406409 
L 770.164364 283.80444 
L 770.489018 284.308994 
L 772.7616 283.530366 
L 773.086255 283.671509 
L 773.735564 284.707206 
L 774.060218 285.364548 
L 774.384873 285.273655 
L 774.709527 281.182019 
L 775.358836 264.846856 
L 775.683491 261.912298 
L 776.008145 261.399239 
L 776.3328 261.588622 
L 776.982109 262.561227 
L 777.631418 264.177106 
L 778.280727 266.464447 
L 778.930036 269.768011 
L 779.904 275.913691 
L 780.228655 275.536233 
L 780.553309 275.971098 
L 781.202618 283.455773 
L 781.527273 284.669978 
L 781.851927 284.689926 
L 783.4752 283.566804 
L 783.799855 283.407666 
L 784.124509 283.484878 
L 784.449164 283.961887 
L 784.773818 284.775969 
L 785.098473 285.178075 
L 785.423127 281.855087 
L 786.072436 264.937076 
L 786.397091 261.340456 
L 786.721745 260.538139 
L 787.0464 260.606516 
L 787.695709 261.481278 
L 788.345018 263.171441 
L 788.994327 265.510416 
L 789.643636 268.89456 
L 790.6176 275.19491 
L 790.942255 274.870301 
L 791.266909 274.861022 
L 791.916218 282.530181 
L 792.240873 284.116364 
L 792.565527 284.280695 
L 793.539491 283.764338 
L 794.838109 283.387129 
L 795.162764 283.763589 
L 796.136727 285.558382 
L 796.461382 284.563909 
L 796.786036 278.059596 
L 797.435345 260.615202 
L 797.76 258.371537 
L 798.084655 257.995386 
L 798.409309 258.166093 
L 798.733964 258.570181 
L 799.058618 259.188129 
L 799.707927 261.222727 
L 800.357236 264.059058 
L 801.006545 268.077728 
L 801.655855 273.291478 
L 801.980509 274.649328 
L 802.305164 273.977294 
L 802.629818 275.48798 
L 803.279127 283.465907 
L 803.603782 284.208918 
L 803.928436 284.113547 
L 804.577745 283.722501 
L 805.227055 283.551509 
L 805.876364 283.208932 
L 806.201018 283.286457 
L 806.525673 283.702393 
L 807.174982 284.954609 
L 807.824291 285.623755 
L 808.148945 285.729657 
L 808.4736 282.772295 
L 809.122909 264.554513 
L 809.447564 260.096932 
L 809.772218 259.03581 
L 810.096873 259.081829 
L 810.421527 259.436623 
L 811.070836 260.673614 
L 811.720145 262.683965 
L 812.369455 265.50308 
L 813.018764 269.638027 
L 813.668073 274.405451 
L 813.992727 274.639571 
L 814.317382 274.396466 
L 814.642036 277.716514 
L 814.966691 282.454092 
L 815.291345 284.466417 
L 815.616 284.745295 
L 817.563927 283.629539 
L 817.888582 283.63056 
L 818.213236 283.932801 
L 819.1872 285.693887 
L 819.511855 284.968929 
L 819.836509 279.405044 
L 820.485818 263.729692 
L 820.810473 261.784809 
L 821.135127 261.578921 
L 821.459782 261.831698 
L 822.109091 262.793683 
L 822.7584 264.322092 
L 823.407709 266.44441 
L 824.057018 269.58606 
L 824.706327 273.686874 
L 825.030982 274.708301 
L 825.355636 274.044522 
L 825.680291 275.528235 
L 826.3296 283.648163 
L 826.654255 284.524158 
L 826.978909 284.474104 
L 828.602182 283.341942 
L 828.926836 283.241572 
L 829.251491 283.444113 
L 830.550109 285.595906 
L 830.874764 285.801377 
L 831.199418 283.382423 
L 832.173382 259.652196 
L 832.498036 258.04507 
L 832.822691 257.853543 
L 833.147345 258.131559 
L 833.472 258.64339 
L 834.121309 260.415225 
L 834.770618 263.034323 
L 835.419927 266.654249 
L 836.393891 274.286186 
L 836.718545 274.957718 
L 837.0432 274.434697 
L 837.367855 277.013575 
L 837.692509 281.65234 
L 838.017164 284.001288 
L 838.341818 284.4533 
L 838.991127 284.07447 
L 840.6144 283.278244 
L 840.939055 283.420789 
L 841.588364 284.534757 
L 842.237673 285.472649 
L 842.562327 285.795176 
L 842.886982 284.965465 
L 843.211636 279.29979 
L 843.860945 262.538522 
L 844.1856 260.008494 
L 844.510255 259.591705 
L 844.834909 259.813996 
L 845.484218 260.900639 
L 846.133527 262.726346 
L 846.782836 265.259657 
L 847.432145 268.854277 
L 848.406109 275.100263 
L 848.730764 274.563149 
L 849.055418 275.783827 
L 849.704727 283.684844 
L 850.029382 284.726478 
L 850.354036 284.723751 
L 851.652655 283.882993 
L 852.301964 283.558208 
L 852.626618 283.642407 
L 852.951273 284.036242 
L 853.925236 285.703685 
L 854.249891 285.215869 
L 854.574545 280.354276 
L 855.223855 264.682206 
L 855.548509 262.407549 
L 855.873164 262.150923 
L 856.197818 262.421009 
L 856.847127 263.409373 
L 857.496436 264.816842 
L 858.145745 266.833416 
L 858.795055 269.761524 
L 859.769018 275.010321 
L 860.093673 274.490424 
L 860.418327 275.605424 
L 861.067636 283.66971 
L 861.392291 284.742047 
L 861.716945 284.721569 
L 863.015564 283.542522 
L 863.664873 283.116432 
L 863.989527 283.323548 
L 865.288145 285.568604 
L 865.6128 282.337292 
L 866.262109 264.79969 
L 866.586764 260.442988 
L 866.911418 259.288962 
L 867.236073 259.274169 
L 867.560727 259.646597 
L 867.885382 260.213401 
L 868.534691 262.009827 
L 869.184 264.543548 
L 869.833309 268.016807 
L 870.807273 274.916648 
L 871.131927 274.99972 
L 871.456582 274.870264 
L 871.781236 278.063017 
L 872.105891 282.365394 
L 872.430545 284.282034 
L 872.7552 284.589424 
L 874.053818 283.735303 
L 874.703127 283.297929 
L 875.027782 283.247218 
L 875.352436 283.493431 
L 876.651055 285.694051 
L 876.975709 284.853177 
L 877.300364 278.938002 
L 877.949673 262.499528 
L 878.274327 260.088196 
L 878.598982 259.659606 
L 878.923636 259.865024 
L 879.248291 260.315418 
L 879.8976 261.815064 
L 880.546909 263.97577 
L 881.196218 266.959927 
L 881.845527 271.214424 
L 882.170182 273.681292 
L 882.494836 275.165304 
L 882.819491 274.666933 
L 883.144145 276.068261 
L 883.793455 283.763448 
L 884.118109 284.712236 
L 884.442764 284.706953 
L 886.066036 283.677659 
L 886.390691 283.517575 
L 886.715345 283.524394 
L 887.04 283.844185 
L 888.013964 285.576271 
L 888.338618 285.511267 
L 888.663273 281.658241 
L 889.312582 265.6551 
L 889.637236 262.610483 
L 889.961891 262.082913 
L 890.286545 262.301609 
L 890.935855 263.257398 
L 891.585164 264.674998 
L 892.234473 266.688516 
L 892.883782 269.595206 
L 893.857745 275.194757 
L 894.1824 274.905618 
L 894.507055 275.393204 
L 895.156364 283.186789 
L 895.481018 284.654959 
L 895.805673 284.759009 
L 896.779636 283.893993 
L 897.7536 283.121338 
L 898.078255 283.219192 
L 898.402909 283.722472 
L 899.052218 285.164932 
L 899.376873 285.666434 
L 899.701527 283.899476 
L 900.675491 261.920958 
L 901.000145 260.087451 
L 901.3248 259.843127 
L 901.649455 260.135433 
L 901.974109 260.65805 
L 902.623418 262.321693 
L 903.272727 264.684741 
L 903.922036 267.901615 
L 905.220655 275.586792 
L 905.545309 275.090306 
L 905.869964 277.195518 
L 906.194618 281.470004 
L 906.519273 284.034923 
L 906.843927 284.664088 
L 907.168582 284.55732 
L 908.142545 283.855038 
L 909.116509 283.244483 
L 909.441164 283.326154 
L 909.765818 283.73918 
L 910.739782 285.459661 
L 911.064436 285.820676 
L 911.389091 284.979098 
L 911.713745 279.383431 
L 912.363055 263.114695 
L 912.687709 260.445435 
L 913.012364 259.924086 
L 913.337018 260.125694 
L 913.986327 261.255778 
L 914.635636 263.128945 
L 915.284945 265.706278 
L 915.934255 269.318056 
L 916.908218 275.572669 
L 917.232873 275.122015 
L 917.557527 276.293404 
L 918.206836 283.657978 
L 918.531491 284.743634 
L 918.856145 284.799624 
L 920.804073 283.508969 
L 921.128727 283.511334 
L 921.453382 283.826173 
L 922.427345 285.49029 
L 922.752 285.839182 
L 923.076655 284.150567 
L 924.050618 264.126952 
L 924.375273 262.660611 
L 924.699927 262.613792 
L 925.349236 263.449738 
L 925.998545 264.799633 
L 926.647855 266.712931 
L 927.297164 269.439476 
L 928.595782 276.114878 
L 928.920436 275.720981 
L 929.245091 277.873806 
L 929.569745 281.973532 
L 929.8944 284.399973 
L 930.219055 284.944913 
L 930.543709 284.796762 
L 932.166982 283.425921 
L 932.491636 283.329468 
L 932.816291 283.557125 
L 933.790255 285.494951 
L 934.114909 283.625912 
L 935.088873 263.289528 
L 935.413527 261.710998 
L 935.738182 261.53641 
L 936.062836 261.834279 
L 936.712145 263.055843 
L 937.361455 264.9447 
L 938.010764 267.479624 
L 938.660073 271.049268 
L 939.309382 275.448602 
L 939.634036 275.973954 
L 939.958691 275.581839 
L 940.283345 277.84305 
L 940.608 281.859981 
L 940.932655 284.177689 
L 941.257309 284.75648 
L 941.581964 284.680307 
L 943.205236 283.544977 
L 943.529891 283.428992 
L 943.854545 283.55275 
L 944.503855 284.616063 
L 945.153164 285.682094 
L 945.477818 285.0564 
L 945.802473 279.915657 
L 946.451782 264.089467 
L 946.776436 261.305934 
L 947.101091 260.704231 
L 947.425745 260.866182 
L 948.075055 261.961024 
L 948.724364 263.805282 
L 949.373673 266.325821 
L 950.022982 269.834882 
L 950.996945 275.999955 
L 951.3216 275.574482 
L 951.646255 276.536472 
L 952.295564 283.569485 
L 952.620218 284.696223 
L 952.944873 284.769864 
L 954.8928 283.413764 
L 955.217455 283.414958 
L 955.542109 283.716487 
L 956.840727 285.767426 
L 957.165382 285.608574 
L 957.490036 281.870715 
L 958.139345 266.369758 
L 958.464 262.980998 
L 958.788655 262.191261 
L 959.113309 262.331831 
L 959.762618 263.332906 
L 960.411927 264.889054 
L 961.061236 267.047373 
L 961.710545 270.098855 
L 962.684509 276.077295 
L 963.009164 275.941947 
L 963.333818 276.30282 
L 963.983127 283.286222 
L 964.307782 284.865928 
L 964.632436 285.113604 
L 965.281745 284.709642 
L 966.580364 283.744243 
L 966.905018 283.72393 
L 967.229673 284.021969 
L 968.203636 285.705292 
L 968.528291 284.998164 
L 968.852945 279.971467 
L 969.502255 266.049024 
L 969.826909 263.864924 
L 970.151564 263.503178 
L 970.476218 263.72913 
L 971.125527 264.711863 
L 971.774836 266.191616 
L 972.424145 268.250316 
L 973.073455 271.211054 
L 973.722764 275.098792 
L 974.047418 276.131804 
L 974.372073 275.601109 
L 974.696727 276.840589 
L 975.346036 283.690367 
L 975.670691 284.728521 
L 975.995345 284.799231 
L 977.293964 283.77528 
L 977.943273 283.338711 
L 978.267927 283.438305 
L 978.592582 283.879659 
L 979.566545 285.6341 
L 979.8912 285.467858 
L 980.215855 281.384647 
L 980.865164 265.762357 
L 981.189818 262.343882 
L 981.514473 261.415369 
L 981.839127 261.434573 
L 982.163782 261.803547 
L 982.813091 263.183083 
L 983.4624 265.296743 
L 984.111709 268.114269 
L 984.761018 272.11632 
L 985.410327 276.483882 
L 985.734982 276.363331 
L 986.059636 276.762578 
L 986.708945 283.247201 
L 987.0336 284.624916 
L 987.358255 284.804707 
L 988.981527 283.707773 
L 989.630836 283.419416 
L 989.955491 283.592163 
L 990.6048 284.679305 
L 991.254109 285.686721 
L 991.578764 285.614807 
L 991.903418 282.210299 
L 992.552727 267.762926 
L 992.877382 264.456092 
L 993.202036 263.651609 
L 993.526691 263.76034 
L 994.176 264.689029 
L 994.825309 266.099566 
L 995.474618 268.11807 
L 996.123927 271.041306 
L 997.097891 276.778051 
L 997.422545 276.71754 
L 997.7472 277.022215 
L 998.396509 283.3861 
L 998.721164 284.885988 
L 999.045818 285.127049 
L 999.695127 284.707817 
L 1000.993745 283.699542 
L 1001.3184 283.627029 
L 1001.643055 283.851853 
L 1002.617018 285.529466 
L 1002.941673 283.672136 
L 1003.915636 265.649655 
L 1004.240291 264.178546 
L 1004.564945 264.019827 
L 1004.8896 264.310751 
L 1005.538909 265.441579 
L 1006.188218 267.123195 
L 1006.837527 269.46925 
L 1007.486836 272.770778 
L 1008.136145 276.771724 
L 1008.4608 277.13121 
L 1008.785455 276.817935 
L 1009.110109 278.820704 
L 1009.434764 282.260464 
L 1009.759418 284.357531 
L 1010.084073 284.928776 
L 1010.408727 284.874559 
L 1012.356655 283.607766 
L 1012.681309 283.745773 
L 1013.330618 284.748915 
L 1013.655273 285.388312 
L 1013.979927 285.256067 
L 1014.304582 281.448392 
L 1014.953891 266.991964 
L 1015.278545 263.634948 
L 1015.6032 262.67556 
L 1015.927855 262.690106 
L 1016.252509 263.074357 
L 1016.901818 264.426085 
L 1017.551127 266.516634 
L 1018.200436 269.380003 
L 1018.849745 273.361436 
L 1019.499055 277.391607 
L 1019.823709 277.157429 
L 1020.148364 277.495709 
L 1020.797673 283.364152 
L 1021.122327 284.743795 
L 1021.446982 284.991264 
L 1022.096291 284.615411 
L 1023.394909 283.802173 
L 1023.719564 283.772187 
L 1024.044218 283.990027 
L 1025.018182 285.549664 
L 1025.342836 285.619322 
L 1025.667491 282.63635 
L 1026.3168 268.636454 
L 1026.641455 265.041136 
L 1026.966109 264.065835 
L 1027.290764 264.094783 
L 1027.615418 264.46266 
L 1028.264727 265.702491 
L 1028.914036 267.508516 
L 1029.563345 269.997419 
L 1030.212655 273.48172 
L 1030.861964 277.472977 
L 1031.511273 277.60783 
L 1032.485236 284.935095 
L 1032.809891 285.212316 
L 1033.4592 284.856951 
L 1034.757818 283.948874 
L 1035.082473 283.876203 
L 1035.407127 284.095355 
L 1036.056436 285.178848 
L 1036.381091 282.907329 
L 1037.355055 265.335842 
L 1037.679709 264.167497 
L 1038.004364 264.082881 
L 1038.329018 264.398714 
L 1038.978327 265.544363 
L 1039.627636 267.305877 
L 1040.276945 269.732329 
L 1040.926255 273.160622 
L 1041.575564 277.004742 
L 1041.900218 277.021551 
L 1042.224873 276.877817 
L 1042.549527 279.280021 
L 1042.874182 282.687032 
L 1043.198836 284.445652 
L 1043.523491 284.844944 
L 1043.848145 284.744978 
L 1045.471418 283.68095 
L 1045.796073 283.635517 
L 1046.120727 283.858408 
L 1046.770036 285.048782 
L 1047.094691 285.018302 
L 1047.419345 280.840642 
L 1048.068655 265.599647 
L 1048.393309 262.443331 
L 1048.717964 261.517979 
L 1049.042618 261.474975 
L 1049.367273 261.784413 
L 1049.691927 262.347974 
L 1050.341236 264.201729 
L 1050.990545 266.75342 
L 1051.639855 270.297746 
L 1052.613818 276.851079 
L 1052.938473 276.56245 
L 1053.263127 277.005862 
L 1053.912436 283.180897 
L 1054.237091 284.345587 
L 1054.561745 284.509957 
L 1056.834327 283.46724 
L 1057.158982 283.653943 
L 1057.808291 284.720137 
L 1058.132945 285.364874 
L 1058.4576 284.668051 
L 1058.782255 279.570507 
L 1059.431564 265.491857 
L 1059.756218 263.291429 
L 1060.080873 262.883225 
L 1060.405527 263.06484 
L 1061.054836 264.055778 
L 1061.704145 265.702947 
L 1062.353455 268.023191 
L 1063.002764 271.38346 
L 1063.652073 275.777025 
L 1063.976727 276.866707 
L 1064.301382 276.378253 
L 1064.626036 277.597115 
L 1065.275345 284.063667 
L 1065.6 284.933347 
L 1065.924655 284.943423 
L 1067.872582 283.602291 
L 1068.197236 283.656238 
L 1068.521891 284.039866 
L 1069.1712 285.273428 
L 1069.495855 283.312713 
L 1070.469818 264.661224 
L 1070.794473 263.346831 
L 1071.119127 263.191233 
L 1071.443782 263.436938 
L 1071.768436 263.890984 
L 1072.417745 265.355564 
L 1073.067055 267.404005 
L 1073.716364 270.263887 
L 1074.690327 276.071508 
L 1075.014982 276.220841 
L 1075.339636 275.861271 
L 1075.664291 278.309422 
L 1075.988945 282.10279 
L 1076.3136 284.068453 
L 1076.638255 284.550855 
L 1076.962909 284.474266 
L 1078.910836 283.405432 
L 1079.235491 283.617308 
L 1080.534109 285.629829 
L 1080.858764 283.367638 
L 1081.832727 262.409907 
L 1082.157382 260.724096 
L 1082.482036 260.426531 
L 1082.806691 260.649983 
L 1083.131345 261.14556 
L 1083.780655 262.843494 
L 1084.429964 265.307359 
L 1085.079273 268.707619 
L 1086.053236 275.805864 
L 1086.377891 276.272141 
L 1086.702545 275.810955 
L 1087.0272 278.042125 
L 1087.351855 281.835059 
L 1087.676509 283.912255 
L 1088.001164 284.423768 
L 1088.325818 284.356231 
L 1089.949091 283.513124 
L 1090.273745 283.429054 
L 1090.5984 283.572739 
L 1091.247709 284.643182 
L 1091.897018 285.652598 
L 1092.221673 285.51927 
L 1092.546327 281.75288 
L 1093.195636 266.138334 
L 1093.520291 262.920138 
L 1093.844945 262.186439 
L 1094.1696 262.323121 
L 1094.818909 263.289278 
L 1095.468218 264.80972 
L 1096.117527 266.961077 
L 1096.766836 270.083026 
L 1097.7408 276.108632 
L 1098.065455 275.887525 
L 1098.390109 276.241377 
L 1099.039418 283.296319 
L 1099.364073 284.73366 
L 1099.688727 284.914845 
L 1100.662691 284.203718 
L 1101.636655 283.484701 
L 1101.961309 283.474356 
L 1102.285964 283.833443 
L 1102.935273 285.275344 
L 1103.259927 284.831913 
L 1103.584582 279.7314 
L 1104.233891 264.42404 
L 1104.558545 262.062413 
L 1104.8832 261.64835 
L 1105.207855 261.850557 
L 1105.857164 262.870062 
L 1106.506473 264.521205 
L 1107.155782 266.792419 
L 1107.805091 270.065391 
L 1108.4544 274.351522 
L 1108.779055 275.490872 
L 1109.103709 274.913208 
L 1109.428364 276.104986 
L 1110.077673 283.549287 
L 1110.402327 284.603787 
L 1110.726982 284.648048 
L 1112.674909 283.34184 
L 1112.999564 283.443749 
L 1113.324218 283.865724 
L 1114.298182 285.580726 
L 1114.622836 285.279815 
L 1114.947491 280.628471 
L 1115.5968 263.00095 
L 1115.921455 259.591084 
L 1116.246109 258.761711 
L 1116.570764 258.856414 
L 1116.895418 259.288809 
L 1117.544727 260.756585 
L 1118.194036 262.98854 
L 1118.843345 266.079566 
L 1119.492655 270.519883 
L 1120.141964 274.936838 
L 1120.466618 274.570886 
L 1120.791273 275.064586 
L 1121.440582 282.883004 
L 1121.765236 284.317336 
L 1122.089891 284.485749 
L 1124.037818 283.140661 
L 1124.362473 283.173349 
L 1124.687127 283.54009 
L 1125.661091 285.317332 
L 1125.985745 285.677357 
L 1126.3104 285.383604 
L 1126.635055 280.767324 
L 1127.284364 263.462101 
L 1127.609018 260.400247 
L 1127.933673 259.822457 
L 1128.258327 260.031577 
L 1128.907636 261.082644 
L 1129.556945 262.719944 
L 1130.206255 264.982437 
L 1130.855564 268.260539 
L 1131.829527 274.582541 
L 1132.154182 274.238246 
L 1132.478836 274.957219 
L 1133.128145 283.309917 
L 1133.4528 284.735 
L 1133.777455 284.882925 
L 1136.050036 283.638597 
L 1136.374691 284.006162 
L 1137.024 285.412419 
L 1137.348655 285.026717 
L 1137.673309 279.983455 
L 1138.322618 264.486323 
L 1138.647273 262.384889 
L 1138.971927 262.178731 
L 1139.296582 262.457367 
L 1139.945891 263.41271 
L 1140.5952 264.741868 
L 1141.244509 266.631731 
L 1141.893818 269.490113 
L 1142.543127 273.274426 
L 1142.867782 274.23777 
L 1143.192436 273.608931 
L 1143.517091 275.012679 
L 1144.1664 283.4788 
L 1144.491055 284.585776 
L 1144.815709 284.590227 
L 1146.763636 283.067362 
L 1147.088291 283.236235 
L 1147.7376 284.605907 
L 1148.062255 285.25839 
L 1148.386909 285.65585 
L 1148.711564 283.30024 
L 1149.685527 260.117153 
L 1150.010182 258.569563 
L 1150.334836 258.460653 
L 1150.659491 258.809428 
L 1151.3088 260.118641 
L 1151.958109 262.245558 
L 1152.607418 265.122713 
L 1153.256727 269.177601 
L 1153.906036 274.075891 
L 1154.230691 274.581083 
L 1154.555345 274.141937 
L 1154.88 276.912821 
L 1155.204655 281.629542 
L 1155.529309 284.08087 
L 1155.853964 284.600344 
L 1156.178618 284.46197 
L 1157.152582 283.769814 
L 1158.126545 283.210571 
L 1158.4512 283.335559 
L 1159.100509 284.443305 
L 1159.749818 285.53699 
L 1160.074473 284.3196 
L 1160.399127 277.925552 
L 1160.723782 268.368769 
L 1161.048436 262.246511 
L 1161.373091 260.283579 
L 1161.697745 260.042756 
L 1162.0224 260.315887 
L 1162.671709 261.417929 
L 1163.321018 263.157919 
L 1163.970327 265.611127 
L 1164.619636 269.22048 
L 1165.268945 273.931445 
L 1165.5936 274.904061 
L 1165.918255 274.324428 
L 1166.242909 276.191435 
L 1166.567564 280.862302 
L 1166.892218 283.883714 
L 1167.216873 284.680982 
L 1167.541527 284.61435 
L 1169.1648 283.479485 
L 1169.489455 283.359772 
L 1169.814109 283.499506 
L 1170.138764 284.007628 
L 1170.788073 285.467634 
L 1171.112727 283.98507 
L 1172.086691 264.385798 
L 1172.411345 263.182352 
L 1172.736 263.216584 
L 1173.385309 264.025592 
L 1174.034618 265.225527 
L 1174.683927 266.892521 
L 1175.333236 269.256853 
L 1176.3072 274.407629 
L 1176.631855 274.735852 
L 1176.956509 274.324014 
L 1177.281164 276.924685 
L 1177.605818 281.591131 
L 1177.930473 284.140388 
L 1178.255127 284.705386 
L 1178.579782 284.574532 
L 1180.203055 283.163366 
L 1180.527709 283.121027 
L 1180.852364 283.468631 
L 1181.826327 285.568888 
L 1182.150982 284.279115 
L 1182.475636 277.621189 
L 1182.800291 267.847787 
L 1183.124945 261.498022 
L 1183.4496 259.331103 
L 1183.774255 258.990048 
L 1184.098909 259.25741 
L 1184.748218 260.480279 
L 1185.397527 262.559158 
L 1186.046836 265.398898 
L 1186.696145 269.316759 
L 1187.345455 274.316489 
L 1187.670109 275.425945 
L 1187.994764 274.855177 
L 1188.319418 276.576999 
L 1188.968727 283.862493 
L 1189.293382 284.639038 
L 1189.618036 284.583314 
L 1191.241309 283.449301 
L 1191.565964 283.292068 
L 1191.890618 283.362872 
L 1192.215273 283.763011 
L 1193.189236 285.576053 
L 1193.838545 286.163688 
L 1194.487855 286.462883 
L 1195.137164 286.597435 
L 1195.461818 283.727155 
L 1195.461818 283.727155 
" style="fill:none;stroke:#1f77b4;stroke-linecap:square;stroke-width:1.5;"/>
   </g>
   <g id="line2d_16">
    <path clip-path="url(#pdef26079d0)" d="M 221.498182 278.988962 
L 222.147491 284.540712 
L 222.472145 283.328831 
L 224.095418 263.082991 
L 224.744727 256.129628 
L 226.043345 238.612897 
L 226.368 236.863526 
L 226.692655 240.448842 
L 227.017309 251.469131 
L 227.666618 280.241546 
L 228.315927 294.400079 
L 229.9392 314.566923 
L 230.588509 323.672273 
L 231.887127 347.77171 
L 232.211782 347.385085 
L 232.536436 337.270352 
L 233.185745 302.445428 
L 233.5104 291.418439 
L 234.159709 280.203428 
L 235.458327 266.163977 
L 236.107636 259.516756 
L 237.730909 238.647803 
L 238.055564 240.019472 
L 238.380218 248.663681 
L 239.354182 288.059709 
L 240.003491 299.314669 
L 242.276073 329.152118 
L 243.250036 347.858116 
L 243.574691 351.650391 
L 243.899345 348.852427 
L 244.224 336.194173 
L 244.873309 302.577159 
L 245.197964 293.227827 
L 249.418473 219.105448 
L 249.743127 218.597618 
L 250.067782 224.438166 
L 250.717091 241.234398 
L 251.041745 243.902024 
L 251.3664 243.69563 
L 252.989673 243.681039 
L 254.612945 243.676136 
L 255.586909 243.594931 
L 256.560873 243.690804 
L 256.885527 245.361982 
L 259.482764 268.334118 
L 262.404655 296.36496 
L 262.729309 297.219994 
L 263.703273 297.261895 
L 265.975855 297.254461 
L 266.949818 297.249441 
L 267.599127 297.283871 
L 268.248436 299.163546 
L 268.573091 298.267749 
L 269.2224 295.284575 
L 269.871709 292.827635 
L 270.196364 290.967995 
L 271.494982 281.176488 
L 271.819636 280.219885 
L 272.144291 280.122691 
L 272.468945 280.57851 
L 272.7936 281.45836 
L 273.442909 284.235607 
L 273.767564 284.710307 
L 274.092218 286.15955 
L 274.741527 293.104 
L 276.040145 309.478005 
L 277.014109 327.15571 
L 277.338764 326.938114 
L 277.663418 317.417703 
L 278.312727 285.360885 
L 278.637382 274.767901 
L 278.962036 268.31212 
L 279.611345 260.753985 
L 281.559273 240.980545 
L 282.533236 227.706919 
L 282.857891 225.483863 
L 283.182545 227.843489 
L 283.5072 237.157081 
L 284.481164 276.056649 
L 285.130473 287.121741 
L 287.0784 309.702357 
L 288.377018 331.619485 
L 288.701673 328.793582 
L 289.026327 316.595263 
L 289.675636 285.322156 
L 290.000291 276.69628 
L 290.6496 268.374361 
L 292.272873 254.799388 
L 292.922182 245.49464 
L 293.571491 235.67435 
L 293.896145 232.102864 
L 294.2208 230.620917 
L 294.545455 234.390343 
L 294.870109 245.258043 
L 295.519418 272.790786 
L 295.844073 280.843446 
L 296.493382 289.140689 
L 298.116655 304.821314 
L 298.765964 316.648013 
L 299.090618 323.173867 
L 299.415273 326.318797 
L 299.739927 320.832433 
L 300.713891 275.535434 
L 301.038545 267.532053 
L 301.687855 258.635763 
L 302.986473 245.663935 
L 303.635782 238.454704 
L 304.9344 221.347963 
L 305.259055 220.976737 
L 305.583709 226.93695 
L 306.882327 274.809226 
L 307.531636 284.433117 
L 309.479564 309.43364 
L 310.778182 332.553615 
L 311.102836 331.336955 
L 311.427491 320.633674 
L 312.0768 286.051935 
L 312.401455 274.874664 
L 313.050764 263.415993 
L 314.349382 249.222352 
L 314.998691 242.503097 
L 316.621964 221.480442 
L 316.946618 223.258604 
L 317.271273 232.239285 
L 318.245236 271.400557 
L 318.894545 282.67839 
L 321.167127 312.411444 
L 322.141091 330.861718 
L 322.465745 335.183163 
L 322.7904 334.728507 
L 323.115055 325.20995 
L 324.089018 279.793749 
L 324.413673 273.084455 
L 325.062982 265.648878 
L 326.686255 250.291181 
L 328.309527 227.850819 
L 328.634182 228.878043 
L 328.958836 236.807381 
L 329.9328 275.008192 
L 330.257455 281.035628 
L 330.906764 287.999801 
L 332.530036 304.168188 
L 333.504 321.531469 
L 333.828655 320.815006 
L 334.153309 310.428993 
L 334.802618 278.358162 
L 335.127273 268.67612 
L 335.451927 263.017558 
L 336.101236 256.351425 
L 337.724509 241.40744 
L 339.023127 223.969636 
L 339.347782 222.030825 
L 339.672436 224.851076 
L 339.997091 234.863554 
L 340.6464 263.949702 
L 340.971055 273.340008 
L 341.620364 283.332382 
L 343.568291 306.32525 
L 344.542255 324.860651 
L 344.866909 326.544333 
L 345.191564 318.796452 
L 346.165527 271.354464 
L 346.814836 258.550051 
L 348.113455 243.235532 
L 348.762764 236.265603 
L 349.736727 221.777661 
L 350.386036 213.665338 
L 350.710691 213.649726 
L 351.035345 220.647671 
L 352.009309 260.664804 
L 352.658618 272.573396 
L 354.9312 301.53134 
L 355.905164 319.289896 
L 356.229818 318.670943 
L 356.554473 308.126255 
L 357.203782 274.506988 
L 357.528436 264.158138 
L 358.177745 253.415317 
L 359.476364 239.225718 
L 360.125673 232.235027 
L 361.748945 210.819815 
L 362.0736 212.74769 
L 362.398255 222.118936 
L 363.047564 250.831245 
L 363.372218 260.185654 
L 364.021527 270.597758 
L 365.320145 285.581959 
L 365.969455 293.657148 
L 366.943418 311.113035 
L 367.268073 311.474792 
L 367.592727 302.554923 
L 368.242036 271.268347 
L 368.566691 261.575404 
L 368.891345 256.02606 
L 369.540655 249.448972 
L 371.163927 234.581616 
L 372.462545 216.446164 
L 372.7872 214.300133 
L 373.111855 216.352714 
L 373.436509 225.375015 
L 374.085818 253.8298 
L 374.410473 263.094072 
L 375.059782 272.73234 
L 377.007709 295.284713 
L 377.981673 313.83933 
L 378.306327 313.137159 
L 378.630982 302.675878 
L 379.280291 269.46699 
L 379.604945 259.173774 
L 380.254255 248.086373 
L 381.552873 232.783763 
L 382.202182 225.91284 
L 383.825455 205.420909 
L 384.150109 207.623781 
L 384.474764 217.109901 
L 385.124073 245.881423 
L 385.773382 261.752882 
L 387.072 280.262896 
L 388.045964 292.775532 
L 389.344582 316.380832 
L 389.669236 316.174153 
L 389.993891 306.688945 
L 390.6432 273.367242 
L 390.967855 262.473175 
L 391.617164 251.075361 
L 392.915782 236.27678 
L 393.565091 229.477155 
L 395.188364 208.878397 
L 395.513018 210.413283 
L 395.837673 219.055593 
L 396.811636 257.988849 
L 397.460945 269.619007 
L 399.733527 300.979882 
L 400.707491 319.212925 
L 401.032145 322.703642 
L 401.3568 319.984078 
L 401.681455 307.615495 
L 402.330764 275.192825 
L 402.655418 266.281029 
L 403.304727 257.15603 
L 404.603345 244.809646 
L 405.252655 237.391262 
L 406.551273 218.28503 
L 406.875927 216.315265 
L 407.200582 219.379105 
L 407.525236 229.865802 
L 408.174545 257.381992 
L 408.4992 265.334662 
L 409.148509 274.087342 
L 410.771782 292.028943 
L 411.745745 330.375073 
L 413.044364 380.815278 
L 414.342982 431.164696 
L 415.316945 476.509268 
L 415.966255 516.861975 
L 416.290909 546.819711 
L 416.615564 600.195394 
L 417.589527 600.199449 
L 417.914182 486.413414 
L 418.563491 400.122221 
L 419.537455 316.162905 
L 420.511418 251.87159 
L 421.810036 181.219214 
L 422.134691 165.345993 
L 422.459345 160.876077 
L 423.108655 160.876077 
L 423.433309 162.47755 
L 424.731927 229.48995 
L 425.705891 289.107901 
L 426.679855 363.290055 
L 427.329164 429.823766 
L 427.653818 475.75719 
L 427.978473 555.994111 
L 428.303127 600.203595 
L 428.952436 600.21 
L 429.9264 425.590205 
L 430.575709 360.241643 
L 431.549673 286.779754 
L 432.848291 209.755426 
L 433.822255 160.759216 
L 434.796218 160.737379 
L 435.120873 166.886196 
L 436.419491 234.758335 
L 437.393455 295.416335 
L 438.367418 371.640508 
L 439.016727 441.643894 
L 439.341382 492.486423 
L 439.666036 600.056213 
L 439.990691 600.205705 
L 440.64 600.207839 
L 441.289309 455.567114 
L 441.938618 381.09557 
L 442.912582 302.438485 
L 443.886545 240.591281 
L 445.185164 171.797253 
L 445.509818 160.632406 
L 446.483782 160.632404 
L 446.808436 171.391402 
L 448.107055 240.114642 
L 449.081018 301.867132 
L 450.054982 380.303408 
L 450.704291 454.386933 
L 451.028945 512.301037 
L 451.3536 600.19741 
L 452.327564 600.203595 
L 452.652218 493.780313 
L 453.301527 404.239745 
L 454.275491 319.06184 
L 455.249455 254.238668 
L 456.548073 183.188138 
L 456.872727 167.245552 
L 457.197382 160.984875 
L 458.171345 160.984876 
L 459.469964 227.417747 
L 460.443927 286.633974 
L 461.417891 360.051303 
L 462.0672 425.342618 
L 462.391855 469.682231 
L 463.041164 600.195394 
L 463.690473 600.195394 
L 464.015127 557.207013 
L 464.339782 476.252195 
L 464.989091 394.170063 
L 465.963055 311.946489 
L 466.937018 248.421095 
L 468.235636 178.351702 
L 469.534255 114.773045 
L 469.858909 108.81 
L 471.157527 129.184115 
L 472.456145 152.106909 
L 473.105455 163.373798 
L 474.079418 186.178154 
L 474.404073 195.721277 
L 475.053382 221.040266 
L 475.702691 233.091007 
L 477.001309 250.020399 
L 477.650618 257.794444 
L 478.299927 267.924602 
L 478.624582 267.659749 
L 478.949236 257.345549 
L 479.598545 227.80642 
L 479.9232 219.93803 
L 480.897164 206.467549 
L 481.546473 199.06911 
L 482.195782 192.606835 
L 483.819055 171.410544 
L 484.143709 169.711447 
L 484.468364 173.057329 
L 484.793018 184.16613 
L 485.442327 212.034899 
L 486.091636 225.069313 
L 487.714909 246.526517 
L 488.364218 256.418231 
L 489.013527 269.289507 
L 489.338182 272.988261 
L 489.662836 268.716692 
L 490.961455 212.962438 
L 492.260073 189.132905 
L 492.909382 180.503019 
L 493.558691 172.329089 
L 494.857309 153.262505 
L 495.181964 151.650162 
L 495.506618 156.359313 
L 496.805236 204.104296 
L 498.428509 233.057366 
L 499.402473 246.961209 
L 500.701091 270.796884 
L 501.025745 270.566582 
L 501.3504 260.713412 
L 501.999709 226.44557 
L 502.324364 215.817776 
L 502.973673 203.371229 
L 503.947636 187.575233 
L 505.246255 171.79217 
L 506.220218 157.192216 
L 506.544873 154.35724 
L 506.869527 155.720693 
L 507.194182 164.636043 
L 507.843491 193.922498 
L 508.4928 210.070271 
L 510.116073 237.229409 
L 510.765382 246.391352 
L 512.388655 275.601692 
L 512.713309 274.648532 
L 513.037964 264.359287 
L 513.687273 231.625571 
L 514.011927 222.447695 
L 514.661236 212.723467 
L 515.6352 200.8732 
L 516.284509 194.216888 
L 517.258473 180.117316 
L 517.907782 171.906621 
L 518.232436 169.722961 
L 518.557091 171.926287 
L 518.881745 181.576503 
L 519.531055 210.775789 
L 520.180364 225.252327 
L 522.7776 265.762531 
L 523.751564 284.209999 
L 524.076218 287.076048 
L 524.400873 282.952427 
L 524.725527 269.198591 
L 525.374836 236.042267 
L 526.024145 221.051003 
L 527.322764 199.813516 
L 528.296727 188.298972 
L 529.595345 169.660695 
L 529.92 168.087648 
L 530.244655 172.153043 
L 530.569309 183.794048 
L 531.218618 212.163713 
L 531.867927 226.611983 
L 533.815855 259.424194 
L 534.465164 271.360083 
L 535.439127 290.27666 
L 535.763782 295.078905 
L 536.088436 297.858596 
L 536.413091 294.124446 
L 536.737745 280.395781 
L 537.387055 246.771889 
L 537.711709 238.295335 
L 539.010327 218.038072 
L 539.659636 210.006085 
L 540.308945 202.243304 
L 541.607564 182.817177 
L 541.932218 180.90279 
L 542.256873 184.474492 
L 542.581527 195.979031 
L 543.230836 224.491583 
L 543.880145 237.727727 
L 546.477382 278.185528 
L 547.451345 296.238067 
L 547.776 300.523224 
L 548.100655 301.791077 
L 548.425309 295.17206 
L 549.399273 249.971922 
L 549.723927 243.60427 
L 551.022545 228.038024 
L 551.996509 217.898696 
L 553.619782 196.859615 
L 553.944436 196.640397 
L 554.269091 202.904871 
L 555.243055 242.599876 
L 555.892364 253.417932 
L 557.840291 280.138739 
L 559.463564 309.470882 
L 559.788218 312.014833 
L 560.112873 308.158552 
L 560.437527 294.874203 
L 561.086836 260.442545 
L 561.411491 251.052623 
L 562.385455 234.737703 
L 563.034764 224.711401 
L 564.333382 207.899967 
L 565.307345 193.636618 
L 565.632 191.648069 
L 565.956655 194.936384 
L 566.281309 205.606602 
L 566.930618 234.204202 
L 567.579927 248.506773 
L 570.501818 297.261551 
L 571.151127 309.553089 
L 571.475782 314.202561 
L 571.800436 315.70812 
L 572.125091 309.580256 
L 573.099055 263.32711 
L 573.423709 255.994116 
L 574.722327 238.750516 
L 576.020945 223.159365 
L 576.994909 207.937932 
L 577.319564 204.489537 
L 577.644218 203.814019 
L 577.968873 209.196367 
L 578.942836 247.826642 
L 579.592145 258.866438 
L 581.540073 284.29413 
L 582.189382 296.373212 
L 582.838691 308.616016 
L 583.163345 310.424273 
L 583.488 304.1362 
L 584.461964 259.59282 
L 585.111273 247.907413 
L 586.409891 231.769046 
L 587.0592 224.983095 
L 588.682473 204.090047 
L 589.007127 204.099393 
L 589.331782 210.411728 
L 590.305745 249.861598 
L 590.955055 261.798175 
L 593.227636 296.176617 
L 594.2016 315.19467 
L 594.526255 319.32375 
L 594.850909 318.076776 
L 595.175564 306.991425 
L 595.824873 272.130148 
L 596.149527 262.028859 
L 596.798836 251.004223 
L 598.097455 232.941946 
L 599.071418 221.149879 
L 600.045382 207.343531 
L 600.370036 204.715718 
L 600.694691 206.555783 
L 601.019345 215.919043 
L 601.668655 245.224573 
L 602.317964 260.392371 
L 605.239855 307.307268 
L 605.889164 319.529507 
L 606.213818 324.062266 
L 606.538473 325.028196 
L 606.863127 317.931535 
L 607.837091 272.749793 
L 608.161745 265.989086 
L 609.460364 249.8772 
L 610.434327 239.050403 
L 612.0576 216.199419 
L 612.382255 216.036049 
L 612.706909 222.145828 
L 613.680873 259.812706 
L 614.330182 269.90956 
L 616.278109 293.859954 
L 617.252073 312.284503 
L 617.576727 314.218636 
L 617.901382 307.39712 
L 618.875345 263.757605 
L 619.524655 252.617897 
L 621.147927 233.228166 
L 621.797236 225.416062 
L 622.7712 212.011856 
L 623.095855 209.118694 
L 623.420509 209.583571 
L 623.745164 216.57943 
L 624.719127 255.332104 
L 625.368436 266.712652 
L 627.641018 300.097093 
L 628.614982 318.310422 
L 628.939636 320.030416 
L 629.264291 313.295042 
L 630.238255 266.64347 
L 630.887564 253.430996 
L 632.186182 234.854041 
L 633.160145 223.063435 
L 634.134109 208.769538 
L 634.458764 205.36864 
L 634.783418 204.951066 
L 635.108073 210.952776 
L 636.082036 249.972508 
L 636.731345 262.350632 
L 639.653236 308.940916 
L 639.977891 314.45904 
L 640.302545 316.284954 
L 640.6272 309.786281 
L 641.601164 265.36455 
L 641.925818 258.676727 
L 643.224436 242.472712 
L 644.1984 231.796682 
L 645.497018 212.033175 
L 645.821673 208.887528 
L 646.146327 208.759159 
L 646.470982 214.982449 
L 647.444945 252.83689 
L 648.094255 262.950178 
L 650.042182 286.735416 
L 650.691491 298.098189 
L 651.016145 297.033155 
L 651.3408 285.465987 
L 651.990109 254.831513 
L 652.314764 246.952701 
L 653.288727 232.928926 
L 653.938036 224.634319 
L 654.912 214.352025 
L 656.210618 197.423925 
L 656.535273 195.996563 
L 656.859927 199.992418 
L 657.184582 211.702497 
L 657.833891 240.025828 
L 658.4832 253.386817 
L 661.080436 293.914617 
L 661.729745 305.019182 
L 662.0544 301.892535 
L 662.379055 288.220079 
L 663.028364 255.314411 
L 663.677673 241.276812 
L 665.300945 218.173233 
L 665.950255 210.620005 
L 667.248873 193.066969 
L 667.573527 191.502253 
L 667.898182 195.759962 
L 668.547491 224.021102 
L 668.872145 236.511764 
L 669.521455 250.16177 
L 673.092655 307.54579 
L 673.417309 302.403631 
L 674.391273 256.729216 
L 674.715927 249.763764 
L 676.014545 233.098929 
L 677.313164 217.919121 
L 678.287127 203.16628 
L 678.611782 199.881439 
L 678.936436 199.114902 
L 679.261091 204.587538 
L 680.235055 244.162599 
L 680.884364 255.034239 
L 682.832291 280.258592 
L 683.4816 292.794031 
L 683.806255 296.180385 
L 684.130909 290.431 
L 685.104873 246.908246 
L 685.754182 235.977122 
L 687.0528 219.599993 
L 688.026764 208.921298 
L 689.000727 195.913236 
L 689.325382 193.094276 
L 689.650036 193.4707 
L 689.974691 200.799755 
L 690.948655 241.684696 
L 691.597964 253.633977 
L 694.1952 295.779168 
L 694.844509 308.004778 
L 695.169164 309.416813 
L 695.493818 301.473333 
L 696.467782 253.761097 
L 697.117091 241.685254 
L 698.740364 219.326897 
L 699.389673 211.226154 
L 700.363636 197.11192 
L 700.688291 193.948205 
L 701.012945 194.159843 
L 701.3376 201.566398 
L 702.311564 242.738262 
L 702.960873 254.85367 
L 705.882764 304.65652 
L 706.532073 315.586733 
L 706.856727 317.026112 
L 707.181382 309.968323 
L 708.155345 263.283852 
L 708.48 256.666803 
L 709.778618 241.042476 
L 710.752582 230.63316 
L 712.375855 207.926238 
L 712.700509 207.738843 
L 713.025164 214.201209 
L 713.999127 254.044308 
L 714.648436 264.312171 
L 716.596364 289.135636 
L 717.894982 312.451597 
L 718.219636 308.630447 
L 719.518255 255.096903 
L 720.492218 241.759682 
L 721.141527 233.965052 
L 722.115491 223.450679 
L 723.414109 206.744783 
L 723.738764 205.699663 
L 724.063418 210.458502 
L 725.362036 259.122387 
L 726.660655 279.835359 
L 727.959273 298.794616 
L 728.933236 318.060709 
L 729.257891 321.786333 
L 729.582545 318.322441 
L 729.9072 304.187175 
L 730.556509 270.517053 
L 730.881164 262.073462 
L 731.855127 247.321671 
L 732.504436 238.457531 
L 733.803055 223.254939 
L 734.777018 210.257086 
L 735.101673 208.570768 
L 735.426327 212.561682 
L 735.750982 224.678729 
L 736.400291 253.77734 
L 737.0496 267.476566 
L 739.971491 315.374673 
L 740.6208 327.037908 
L 740.945455 329.779964 
L 741.270109 325.223585 
L 742.568727 272.130916 
L 743.218036 264.165589 
L 745.490618 237.648696 
L 746.139927 227.982772 
L 746.464582 224.509836 
L 746.789236 223.341737 
L 747.113891 227.958265 
L 748.412509 273.89871 
L 749.711127 289.982649 
L 750.685091 301.319525 
L 751.659055 319.764375 
L 751.983709 321.360567 
L 752.308364 313.807654 
L 753.282327 271.126676 
L 753.931636 260.581418 
L 755.230255 245.659789 
L 755.879564 238.950399 
L 757.502836 219.021537 
L 757.827491 220.169411 
L 758.152145 228.051229 
L 759.126109 266.804019 
L 759.775418 277.959039 
L 762.048 310.853086 
L 762.697309 323.543935 
L 763.021964 326.760253 
L 763.346618 322.013001 
L 764.645236 267.432648 
L 765.6192 252.648664 
L 766.268509 244.222652 
L 767.242473 233.193143 
L 768.541091 215.618087 
L 768.865745 214.637514 
L 769.1904 219.545598 
L 770.489018 266.641027 
L 771.787636 286.954661 
L 773.086255 304.728048 
L 774.060218 322.383111 
L 774.384873 322.467375 
L 774.709527 313.148138 
L 775.358836 280.187544 
L 775.683491 270.17551 
L 776.3328 260.497856 
L 778.605382 234.078574 
L 779.254691 223.889396 
L 779.579345 219.972669 
L 779.904 217.503489 
L 780.228655 219.103412 
L 780.553309 227.687463 
L 781.202618 255.993402 
L 781.527273 264.887639 
L 782.176582 274.056642 
L 784.124509 297.691348 
L 784.773818 310.211 
L 785.098473 312.150161 
L 785.423127 304.66673 
L 786.397091 260.880303 
L 787.0464 250.100011 
L 788.669673 231.453313 
L 789.318982 223.414897 
L 790.292945 210.212363 
L 790.6176 207.676827 
L 790.942255 208.837596 
L 791.266909 216.860176 
L 792.240873 256.674334 
L 792.890182 267.91859 
L 795.162764 301.775491 
L 795.812073 314.873306 
L 796.136727 319.172505 
L 796.461382 316.475042 
L 796.786036 303.156997 
L 797.435345 268.488544 
L 797.76 259.425572 
L 798.409309 249.250349 
L 799.707927 232.368679 
L 800.357236 224.996353 
L 801.655855 207.07574 
L 801.980509 205.120984 
L 802.305164 208.53565 
L 802.629818 219.958108 
L 803.279127 249.676946 
L 803.928436 263.819918 
L 806.525673 304.418146 
L 807.499636 323.064848 
L 807.824291 327.597652 
L 808.148945 328.802081 
L 808.4736 321.271034 
L 809.447564 273.508134 
L 809.772218 266.613717 
L 810.746182 254.563062 
L 812.694109 230.186956 
L 813.343418 220.752276 
L 813.668073 217.592045 
L 813.992727 217.448496 
L 814.317382 224.044606 
L 815.291345 264.252795 
L 815.940655 274.759817 
L 817.888582 298.494386 
L 819.1872 321.484884 
L 819.511855 319.436932 
L 819.836509 307.370624 
L 820.485818 274.802907 
L 820.810473 266.428046 
L 821.459782 258.151254 
L 822.7584 245.883558 
L 823.407709 239.166387 
L 824.706327 222.761225 
L 825.030982 221.18893 
L 825.355636 224.627057 
L 825.680291 235.796282 
L 826.3296 265.321098 
L 826.654255 273.635558 
L 827.303564 283.191236 
L 829.251491 309.650657 
L 830.550109 333.808187 
L 830.874764 335.659179 
L 831.199418 329.208857 
L 832.173382 279.747302 
L 832.822691 266.241079 
L 834.445964 245.309976 
L 835.095273 237.515014 
L 836.393891 219.466063 
L 836.718545 218.506443 
L 837.0432 224.001266 
L 838.341818 272.26805 
L 839.640436 292.037974 
L 840.939055 310.487214 
L 842.237673 334.722787 
L 842.562327 338.246359 
L 842.886982 335.706744 
L 843.211636 323.225048 
L 843.860945 288.774499 
L 844.1856 279.250113 
L 844.834909 269.631188 
L 847.432145 238.602258 
L 848.081455 230.052292 
L 848.406109 227.877906 
L 848.730764 230.617826 
L 849.055418 240.977555 
L 849.704727 270.07664 
L 850.029382 278.781063 
L 850.678691 288.446083 
L 852.626618 313.117095 
L 853.925236 335.74867 
L 854.249891 334.387296 
L 854.574545 323.371956 
L 855.223855 290.562832 
L 855.548509 281.609592 
L 856.197818 273.417542 
L 858.145745 255.714636 
L 859.444364 237.869109 
L 859.769018 235.89205 
L 860.093673 238.48703 
L 860.418327 248.495479 
L 861.067636 277.453096 
L 861.392291 285.90543 
L 862.0416 294.560791 
L 863.664873 311.837417 
L 864.314182 323.702681 
L 864.963491 336.262323 
L 865.288145 337.803006 
L 865.6128 329.931063 
L 866.586764 282.86991 
L 867.236073 270.805638 
L 868.859345 252.016737 
L 869.508655 244.076849 
L 870.482618 230.075428 
L 870.807273 226.897423 
L 871.131927 227.095167 
L 871.456582 234.167617 
L 872.430545 274.181128 
L 873.079855 286.005691 
L 875.352436 317.545784 
L 876.3264 336.517586 
L 876.651055 340.528438 
L 876.975709 338.107312 
L 877.300364 325.328222 
L 877.949673 291.408801 
L 878.274327 282.079535 
L 878.923636 272.166701 
L 880.222255 257.736713 
L 880.871564 250.973931 
L 882.170182 233.174481 
L 882.494836 230.857897 
L 882.819491 233.717407 
L 883.144145 244.416528 
L 883.793455 273.223614 
L 884.118109 281.837671 
L 884.767418 291.957736 
L 887.04 322.282685 
L 888.013964 339.733033 
L 888.338618 339.955519 
L 888.663273 330.759357 
L 889.312582 297.638781 
L 889.637236 287.43425 
L 889.961891 281.745485 
L 890.6112 275.294011 
L 892.234473 260.405623 
L 893.533091 242.07115 
L 893.857745 239.541728 
L 894.1824 240.880339 
L 894.507055 249.368816 
L 895.156364 278.302269 
L 895.481018 287.767533 
L 896.130327 297.179865 
L 897.7536 314.178917 
L 898.402909 325.39404 
L 899.052218 338.407078 
L 899.376873 341.707344 
L 899.701527 336.97815 
L 901.000145 281.633141 
L 901.649455 272.066398 
L 902.948073 257.353214 
L 903.597382 250.078319 
L 904.896 232.391067 
L 905.220655 231.097573 
L 905.545309 235.817841 
L 906.843927 283.277709 
L 907.493236 293.175094 
L 909.441164 319.30099 
L 910.739782 343.500967 
L 911.064436 347.073846 
L 911.389091 344.518003 
L 911.713745 332.069817 
L 912.363055 297.983005 
L 912.687709 288.0424 
L 913.337018 277.479067 
L 914.635636 263.203138 
L 915.284945 256.242771 
L 916.583564 238.208978 
L 916.908218 235.865449 
L 917.232873 238.422366 
L 917.557527 248.500132 
L 918.206836 276.79352 
L 918.856145 291.566911 
L 920.154764 308.114614 
L 921.128727 320.138167 
L 922.752 346.171068 
L 923.076655 341.411222 
L 924.375273 289.262277 
L 925.024582 281.408764 
L 926.647855 266.363225 
L 927.297164 256.868156 
L 927.946473 247.287457 
L 928.271127 243.816221 
L 928.595782 242.67368 
L 928.920436 247.347319 
L 930.219055 292.139537 
L 930.868364 299.840854 
L 932.491636 316.666092 
L 933.140945 328.509651 
L 933.4656 334.90783 
L 933.790255 338.321796 
L 934.114909 333.514103 
L 935.413527 281.462726 
L 936.062836 272.440383 
L 937.361455 258.862802 
L 938.010764 251.797221 
L 939.309382 234.852638 
L 939.634036 234.029231 
L 939.958691 239.336021 
L 941.257309 285.570052 
L 941.906618 295.124197 
L 943.854545 320.292696 
L 945.153164 342.789482 
L 945.477818 340.998923 
L 945.802473 329.466443 
L 946.451782 296.242096 
L 946.776436 286.227299 
L 947.425745 275.617806 
L 948.724364 261.157463 
L 949.373673 254.218725 
L 950.996945 233.975772 
L 951.3216 236.268722 
L 951.646255 245.879279 
L 952.295564 273.791108 
L 952.944873 288.85937 
L 954.243491 305.95952 
L 955.217455 318.34121 
L 956.840727 346.211488 
L 957.165382 345.990212 
L 957.490036 336.78746 
L 958.139345 303.97244 
L 958.464 293.056711 
L 958.788655 286.604667 
L 959.437964 279.068748 
L 961.385891 258.793637 
L 962.359855 244.762411 
L 962.684509 241.89208 
L 963.009164 242.785589 
L 963.333818 250.526266 
L 964.307782 287.220147 
L 964.957091 296.960715 
L 966.905018 317.200247 
L 968.203636 339.07621 
L 968.528291 337.025668 
L 968.852945 325.649274 
L 969.502255 295.027349 
L 969.826909 286.165608 
L 970.476218 277.339491 
L 971.450182 268.63981 
L 972.099491 263.234591 
L 972.7488 255.370898 
L 973.722764 242.962009 
L 974.047418 241.190382 
L 974.372073 244.378037 
L 974.696727 254.667484 
L 975.346036 282.049927 
L 975.670691 290.64312 
L 976.32 300.336962 
L 978.267927 323.766176 
L 979.566545 347.194116 
L 979.8912 347.0239 
L 980.215855 337.258679 
L 980.865164 304.299246 
L 981.189818 293.379379 
L 981.839127 281.864013 
L 983.137745 266.914693 
L 984.111709 256.065802 
L 985.085673 242.296733 
L 985.410327 239.156 
L 985.734982 240.069829 
L 986.059636 248.120006 
L 987.0336 284.999213 
L 987.682909 296.309384 
L 990.280145 332.186581 
L 990.929455 344.329005 
L 991.254109 348.90688 
L 991.578764 349.04716 
L 991.903418 340.495561 
L 992.877382 298.439881 
L 993.202036 292.002103 
L 993.851345 284.506549 
L 995.799273 265.317481 
L 996.773236 251.283875 
L 997.097891 248.258456 
L 997.422545 248.930292 
L 997.7472 256.274858 
L 998.721164 291.967371 
L 999.370473 301.88309 
L 1001.3184 321.778934 
L 1002.617018 341.936254 
L 1002.941673 337.041657 
L 1004.240291 288.228966 
L 1004.8896 279.621925 
L 1007.162182 255.899296 
L 1008.136145 243.667323 
L 1008.4608 243.100272 
L 1008.785455 248.428086 
L 1010.084073 292.135557 
L 1010.733382 301.138494 
L 1012.681309 324.384824 
L 1013.655273 341.346047 
L 1013.979927 341.254533 
L 1014.304582 332.264279 
L 1015.278545 290.435299 
L 1015.927855 278.633548 
L 1017.226473 263.829445 
L 1017.875782 256.822118 
L 1019.499055 236.015743 
L 1019.823709 237.284074 
L 1020.148364 245.063619 
L 1021.122327 280.180184 
L 1021.771636 291.22193 
L 1024.044218 319.655591 
L 1025.018182 336.233582 
L 1025.342836 336.969995 
L 1025.667491 329.402589 
L 1026.641455 288.244208 
L 1027.290764 277.015542 
L 1028.264727 266.849737 
L 1029.238691 257.079186 
L 1030.861964 234.828705 
L 1031.186618 235.102154 
L 1031.511273 241.618632 
L 1032.485236 275.830623 
L 1033.134545 285.621573 
L 1034.433164 297.748324 
L 1035.082473 304.816201 
L 1035.731782 315.680357 
L 1036.056436 318.215559 
L 1036.381091 312.761305 
L 1037.355055 273.438057 
L 1038.004364 261.876039 
L 1038.978327 251.359891 
L 1039.952291 241.929763 
L 1041.575564 221.702556 
L 1041.900218 221.987242 
L 1042.224873 228.418807 
L 1043.198836 264.575662 
L 1043.848145 276.297572 
L 1046.120727 305.41007 
L 1046.770036 316.95614 
L 1047.094691 317.293217 
L 1047.419345 308.096221 
L 1048.068655 277.058533 
L 1048.393309 266.805413 
L 1049.042618 255.058514 
L 1050.016582 242.048385 
L 1051.3152 227.420601 
L 1052.289164 213.68436 
L 1052.613818 210.82558 
L 1052.938473 212.273005 
L 1053.263127 220.81323 
L 1053.912436 247.642193 
L 1054.561745 263.517303 
L 1055.860364 283.020912 
L 1056.834327 295.542355 
L 1058.132945 317.795305 
L 1058.4576 315.934897 
L 1058.782255 304.947208 
L 1059.431564 274.986619 
L 1059.756218 266.234577 
L 1060.405527 256.833225 
L 1061.704145 243.537296 
L 1062.353455 236.343343 
L 1063.652073 218.083971 
L 1063.976727 216.185159 
L 1064.301382 219.240218 
L 1064.626036 229.150767 
L 1065.275345 255.212514 
L 1065.6 263.200801 
L 1066.249309 272.564508 
L 1068.197236 295.872573 
L 1068.846545 307.953399 
L 1069.1712 311.073407 
L 1069.495855 306.229874 
L 1070.469818 265.674214 
L 1071.119127 253.91906 
L 1072.093091 243.092065 
L 1073.391709 230.062516 
L 1074.365673 217.100202 
L 1074.690327 214.17234 
L 1075.014982 214.114023 
L 1075.339636 220.216912 
L 1076.3136 258.223653 
L 1076.962909 270.926037 
L 1078.261527 288.397828 
L 1078.910836 296.859736 
L 1079.560145 308.571194 
L 1080.209455 320.704362 
L 1080.534109 322.935178 
L 1080.858764 317.067418 
L 1081.832727 272.145181 
L 1082.482036 258.363073 
L 1083.780655 241.456418 
L 1084.754618 230.395443 
L 1086.053236 212.714837 
L 1086.377891 212.056172 
L 1086.702545 217.569665 
L 1088.001164 263.488598 
L 1088.975127 278.851039 
L 1090.923055 307.182014 
L 1091.572364 319.611733 
L 1091.897018 324.097364 
L 1092.221673 323.995869 
L 1092.546327 315.001917 
L 1093.195636 282.764213 
L 1093.520291 272.26713 
L 1094.1696 261.857467 
L 1095.468218 249.150658 
L 1096.117527 242.285463 
L 1097.416145 223.019181 
L 1097.7408 220.278761 
L 1098.065455 221.379508 
L 1098.390109 229.293891 
L 1099.364073 265.854109 
L 1100.013382 275.651361 
L 1101.961309 297.101178 
L 1102.935273 314.806616 
L 1103.259927 313.781384 
L 1103.584582 302.907181 
L 1104.233891 271.395223 
L 1104.558545 262.406399 
L 1105.207855 253.118389 
L 1106.506473 240.219407 
L 1107.155782 233.354329 
L 1108.4544 216.084496 
L 1108.779055 214.242669 
L 1109.103709 217.218031 
L 1109.428364 227.563937 
L 1110.077673 255.958685 
L 1110.402327 264.687449 
L 1111.051636 274.767435 
L 1112.999564 299.956213 
L 1114.298182 323.567505 
L 1114.622836 322.880548 
L 1114.947491 312.420613 
L 1115.5968 277.555008 
L 1115.921455 266.653507 
L 1116.570764 255.324914 
L 1118.194036 236.755341 
L 1118.843345 228.317327 
L 1119.817309 214.22502 
L 1120.141964 211.5605 
L 1120.466618 213.118234 
L 1120.791273 222.122107 
L 1121.440582 251.604161 
L 1122.089891 268.022634 
L 1123.388509 286.264438 
L 1124.362473 299.437074 
L 1125.985745 328.612385 
L 1126.3104 327.911706 
L 1126.635055 317.39142 
L 1127.284364 282.783047 
L 1127.609018 272.488269 
L 1128.258327 262.641609 
L 1130.530909 238.326948 
L 1131.504873 224.126443 
L 1131.829527 221.503543 
L 1132.154182 223.079323 
L 1132.478836 232.233259 
L 1133.128145 261.677609 
L 1133.4528 270.915694 
L 1134.102109 280.371289 
L 1136.050036 301.829166 
L 1137.024 319.511173 
L 1137.348655 318.636238 
L 1137.673309 307.722759 
L 1138.322618 275.659629 
L 1138.647273 267.071486 
L 1138.971927 262.32745 
L 1139.945891 253.901562 
L 1140.919855 246.589198 
L 1141.569164 238.56987 
L 1142.218473 229.693692 
L 1142.543127 226.430267 
L 1142.867782 224.8621 
L 1143.192436 228.072767 
L 1143.517091 238.918472 
L 1144.1664 268.769265 
L 1144.491055 277.513244 
L 1145.140364 286.87287 
L 1146.763636 305.392464 
L 1147.412945 317.261314 
L 1148.062255 330.233312 
L 1148.386909 332.796423 
L 1148.711564 326.744239 
L 1149.685527 278.41233 
L 1150.010182 270.424276 
L 1150.659491 261.257801 
L 1151.958109 246.426526 
L 1152.607418 238.894932 
L 1153.906036 221.29124 
L 1154.230691 220.584145 
L 1154.555345 226.339769 
L 1155.529309 267.514696 
L 1156.178618 280.2759 
L 1158.4512 311.841747 
L 1159.425164 331.232186 
L 1159.749818 335.045902 
L 1160.074473 331.676523 
L 1160.399127 318.301281 
L 1161.048436 285.577705 
L 1161.373091 277.112934 
L 1162.0224 268.41806 
L 1164.294982 243.564117 
L 1164.944291 233.741843 
L 1165.268945 230.059398 
L 1165.5936 228.537475 
L 1165.918255 232.561516 
L 1166.242909 244.18429 
L 1166.892218 272.779172 
L 1167.216873 280.843029 
L 1167.866182 289.989061 
L 1169.814109 313.638569 
L 1170.788073 330.450598 
L 1171.112727 326.614436 
L 1172.411345 277.168231 
L 1173.060655 270.403595 
L 1174.683927 257.792991 
L 1176.3072 237.869812 
L 1176.631855 237.418168 
L 1176.956509 242.952353 
L 1178.255127 290.427038 
L 1178.904436 298.591581 
L 1180.527709 316.44627 
L 1181.826327 339.595806 
L 1182.150982 336.13008 
L 1182.475636 322.324567 
L 1183.124945 288.692263 
L 1183.4496 279.596187 
L 1184.098909 269.606895 
L 1187.670109 226.668026 
L 1187.994764 230.53863 
L 1188.319418 241.966115 
L 1188.968727 270.214437 
L 1189.618036 283.874091 
L 1192.215273 320.12443 
L 1193.189236 337.86913 
L 1193.838545 344.573001 
L 1194.487855 348.357187 
L 1194.812509 349.434581 
L 1195.137164 350.053161 
L 1195.461818 352.476347 
L 1195.461818 352.476347 
" style="fill:none;stroke:#ff7f0e;stroke-linecap:square;stroke-width:1.5;"/>
   </g>
   <g id="patch_3">
    <path d="M 172.8 624.78 
L 172.8 84.24 
" style="fill:none;stroke:#000000;stroke-linecap:square;stroke-linejoin:miter;stroke-width:0.8;"/>
   </g>
   <g id="patch_4">
    <path d="M 1244.16 624.78 
L 1244.16 84.24 
" style="fill:none;stroke:#000000;stroke-linecap:square;stroke-linejoin:miter;stroke-width:0.8;"/>
   </g>
   <g id="patch_5">
    <path d="M 172.8 624.78 
L 1244.16 624.78 
" style="fill:none;stroke:#000000;stroke-linecap:square;stroke-linejoin:miter;stroke-width:0.8;"/>
   </g>
   <g id="patch_6">
    <path d="M 172.8 84.24 
L 1244.16 84.24 
" style="fill:none;stroke:#000000;stroke-linecap:square;stroke-linejoin:miter;stroke-width:0.8;"/>
   </g>
  </g>
 </g>
 <defs>
  <clipPath id="pdef26079d0">
   <rect height="540.54" width="1071.36" x="172.8" y="84.24"/>
  </clipPath>
 </defs>
</svg>
