<?xml version="1.0" encoding="utf-8" standalone="no"?>
<!DOCTYPE svg PUBLIC "-//W3C//DTD SVG 1.1//EN"
  "http://www.w3.org/Graphics/SVG/1.1/DTD/svg11.dtd">
<svg height="345.6pt" version="1.1" viewBox="0 0 460.8 345.6" width="460.8pt" xmlns="http://www.w3.org/2000/svg" xmlns:xlink="http://www.w3.org/1999/xlink">
 <metadata>
  <rdf:RDF xmlns:cc="http://creativecommons.org/ns#" xmlns:dc="http://purl.org/dc/elements/1.1/" xmlns:rdf="http://www.w3.org/1999/02/22-rdf-syntax-ns#">
   <cc:Work>
    <dc:type rdf:resource="http://purl.org/dc/dcmitype/StillImage"/>
    <dc:date>2022-06-16T00:41:06.053773</dc:date>
    <dc:format>image/svg+xml</dc:format>
    <dc:creator>
     <cc:Agent>
      <dc:title>Matplotlib v3.4.2, https://matplotlib.org/</dc:title>
     </cc:Agent>
    </dc:creator>
   </cc:Work>
  </rdf:RDF>
 </metadata>
 <defs>
  <style type="text/css">*{stroke-linecap:butt;stroke-linejoin:round;}</style>
 </defs>
 <g id="figure_1">
  <g id="patch_1">
   <path d="M 0 345.6 
L 460.8 345.6 
L 460.8 0 
L 0 0 
z
" style="fill:#ffffff;"/>
  </g>
  <g id="axes_1">
   <g id="patch_2">
    <path d="M 57.6 307.584 
L 414.72 307.584 
L 414.72 41.472 
L 57.6 41.472 
z
" style="fill:#ffffff;"/>
   </g>
   <g id="matplotlib.axis_1">
    <g id="xtick_1">
     <g id="line2d_1">
      <defs>
       <path d="M 0 0 
L 0 3.5 
" id="m17fa5c4ea4" style="stroke:#000000;stroke-width:0.8;"/>
      </defs>
      <g>
       <use style="stroke:#000000;stroke-width:0.8;" x="73.832727" xlink:href="#m17fa5c4ea4" y="307.584"/>
      </g>
     </g>
     <g id="text_1">
      <!-- 0 -->
      <g transform="translate(70.651477 322.182437)scale(0.1 -0.1)">
       <defs>
        <path d="M 2034 4250 
Q 1547 4250 1301 3770 
Q 1056 3291 1056 2328 
Q 1056 1369 1301 889 
Q 1547 409 2034 409 
Q 2525 409 2770 889 
Q 3016 1369 3016 2328 
Q 3016 3291 2770 3770 
Q 2525 4250 2034 4250 
z
M 2034 4750 
Q 2819 4750 3233 4129 
Q 3647 3509 3647 2328 
Q 3647 1150 3233 529 
Q 2819 -91 2034 -91 
Q 1250 -91 836 529 
Q 422 1150 422 2328 
Q 422 3509 836 4129 
Q 1250 4750 2034 4750 
z
" id="DejaVuSans-30" transform="scale(0.015625)"/>
       </defs>
       <use xlink:href="#DejaVuSans-30"/>
      </g>
     </g>
    </g>
    <g id="xtick_2">
     <g id="line2d_2">
      <g>
       <use style="stroke:#000000;stroke-width:0.8;" x="127.941818" xlink:href="#m17fa5c4ea4" y="307.584"/>
      </g>
     </g>
     <g id="text_2">
      <!-- 500 -->
      <g transform="translate(118.398068 322.182437)scale(0.1 -0.1)">
       <defs>
        <path d="M 691 4666 
L 3169 4666 
L 3169 4134 
L 1269 4134 
L 1269 2991 
Q 1406 3038 1543 3061 
Q 1681 3084 1819 3084 
Q 2600 3084 3056 2656 
Q 3513 2228 3513 1497 
Q 3513 744 3044 326 
Q 2575 -91 1722 -91 
Q 1428 -91 1123 -41 
Q 819 9 494 109 
L 494 744 
Q 775 591 1075 516 
Q 1375 441 1709 441 
Q 2250 441 2565 725 
Q 2881 1009 2881 1497 
Q 2881 1984 2565 2268 
Q 2250 2553 1709 2553 
Q 1456 2553 1204 2497 
Q 953 2441 691 2322 
L 691 4666 
z
" id="DejaVuSans-35" transform="scale(0.015625)"/>
       </defs>
       <use xlink:href="#DejaVuSans-35"/>
       <use x="63.623047" xlink:href="#DejaVuSans-30"/>
       <use x="127.246094" xlink:href="#DejaVuSans-30"/>
      </g>
     </g>
    </g>
    <g id="xtick_3">
     <g id="line2d_3">
      <g>
       <use style="stroke:#000000;stroke-width:0.8;" x="182.050909" xlink:href="#m17fa5c4ea4" y="307.584"/>
      </g>
     </g>
     <g id="text_3">
      <!-- 1000 -->
      <g transform="translate(169.325909 322.182437)scale(0.1 -0.1)">
       <defs>
        <path d="M 794 531 
L 1825 531 
L 1825 4091 
L 703 3866 
L 703 4441 
L 1819 4666 
L 2450 4666 
L 2450 531 
L 3481 531 
L 3481 0 
L 794 0 
L 794 531 
z
" id="DejaVuSans-31" transform="scale(0.015625)"/>
       </defs>
       <use xlink:href="#DejaVuSans-31"/>
       <use x="63.623047" xlink:href="#DejaVuSans-30"/>
       <use x="127.246094" xlink:href="#DejaVuSans-30"/>
       <use x="190.869141" xlink:href="#DejaVuSans-30"/>
      </g>
     </g>
    </g>
    <g id="xtick_4">
     <g id="line2d_4">
      <g>
       <use style="stroke:#000000;stroke-width:0.8;" x="236.16" xlink:href="#m17fa5c4ea4" y="307.584"/>
      </g>
     </g>
     <g id="text_4">
      <!-- 1500 -->
      <g transform="translate(223.435 322.182437)scale(0.1 -0.1)">
       <use xlink:href="#DejaVuSans-31"/>
       <use x="63.623047" xlink:href="#DejaVuSans-35"/>
       <use x="127.246094" xlink:href="#DejaVuSans-30"/>
       <use x="190.869141" xlink:href="#DejaVuSans-30"/>
      </g>
     </g>
    </g>
    <g id="xtick_5">
     <g id="line2d_5">
      <g>
       <use style="stroke:#000000;stroke-width:0.8;" x="290.269091" xlink:href="#m17fa5c4ea4" y="307.584"/>
      </g>
     </g>
     <g id="text_5">
      <!-- 2000 -->
      <g transform="translate(277.544091 322.182437)scale(0.1 -0.1)">
       <defs>
        <path d="M 1228 531 
L 3431 531 
L 3431 0 
L 469 0 
L 469 531 
Q 828 903 1448 1529 
Q 2069 2156 2228 2338 
Q 2531 2678 2651 2914 
Q 2772 3150 2772 3378 
Q 2772 3750 2511 3984 
Q 2250 4219 1831 4219 
Q 1534 4219 1204 4116 
Q 875 4013 500 3803 
L 500 4441 
Q 881 4594 1212 4672 
Q 1544 4750 1819 4750 
Q 2544 4750 2975 4387 
Q 3406 4025 3406 3419 
Q 3406 3131 3298 2873 
Q 3191 2616 2906 2266 
Q 2828 2175 2409 1742 
Q 1991 1309 1228 531 
z
" id="DejaVuSans-32" transform="scale(0.015625)"/>
       </defs>
       <use xlink:href="#DejaVuSans-32"/>
       <use x="63.623047" xlink:href="#DejaVuSans-30"/>
       <use x="127.246094" xlink:href="#DejaVuSans-30"/>
       <use x="190.869141" xlink:href="#DejaVuSans-30"/>
      </g>
     </g>
    </g>
    <g id="xtick_6">
     <g id="line2d_6">
      <g>
       <use style="stroke:#000000;stroke-width:0.8;" x="344.378182" xlink:href="#m17fa5c4ea4" y="307.584"/>
      </g>
     </g>
     <g id="text_6">
      <!-- 2500 -->
      <g transform="translate(331.653182 322.182437)scale(0.1 -0.1)">
       <use xlink:href="#DejaVuSans-32"/>
       <use x="63.623047" xlink:href="#DejaVuSans-35"/>
       <use x="127.246094" xlink:href="#DejaVuSans-30"/>
       <use x="190.869141" xlink:href="#DejaVuSans-30"/>
      </g>
     </g>
    </g>
    <g id="xtick_7">
     <g id="line2d_7">
      <g>
       <use style="stroke:#000000;stroke-width:0.8;" x="398.487273" xlink:href="#m17fa5c4ea4" y="307.584"/>
      </g>
     </g>
     <g id="text_7">
      <!-- 3000 -->
      <g transform="translate(385.762273 322.182437)scale(0.1 -0.1)">
       <defs>
        <path d="M 2597 2516 
Q 3050 2419 3304 2112 
Q 3559 1806 3559 1356 
Q 3559 666 3084 287 
Q 2609 -91 1734 -91 
Q 1441 -91 1130 -33 
Q 819 25 488 141 
L 488 750 
Q 750 597 1062 519 
Q 1375 441 1716 441 
Q 2309 441 2620 675 
Q 2931 909 2931 1356 
Q 2931 1769 2642 2001 
Q 2353 2234 1838 2234 
L 1294 2234 
L 1294 2753 
L 1863 2753 
Q 2328 2753 2575 2939 
Q 2822 3125 2822 3475 
Q 2822 3834 2567 4026 
Q 2313 4219 1838 4219 
Q 1578 4219 1281 4162 
Q 984 4106 628 3988 
L 628 4550 
Q 988 4650 1302 4700 
Q 1616 4750 1894 4750 
Q 2613 4750 3031 4423 
Q 3450 4097 3450 3541 
Q 3450 3153 3228 2886 
Q 3006 2619 2597 2516 
z
" id="DejaVuSans-33" transform="scale(0.015625)"/>
       </defs>
       <use xlink:href="#DejaVuSans-33"/>
       <use x="63.623047" xlink:href="#DejaVuSans-30"/>
       <use x="127.246094" xlink:href="#DejaVuSans-30"/>
       <use x="190.869141" xlink:href="#DejaVuSans-30"/>
      </g>
     </g>
    </g>
   </g>
   <g id="matplotlib.axis_2">
    <g id="ytick_1">
     <g id="line2d_8">
      <defs>
       <path d="M 0 0 
L -3.5 0 
" id="mfb72eb84d1" style="stroke:#000000;stroke-width:0.8;"/>
      </defs>
      <g>
       <use style="stroke:#000000;stroke-width:0.8;" x="57.6" xlink:href="#mfb72eb84d1" y="295.486788"/>
      </g>
     </g>
     <g id="text_8">
      <!-- 0 -->
      <g transform="translate(44.2375 299.286007)scale(0.1 -0.1)">
       <use xlink:href="#DejaVuSans-30"/>
      </g>
     </g>
    </g>
    <g id="ytick_2">
     <g id="line2d_9">
      <g>
       <use style="stroke:#000000;stroke-width:0.8;" x="57.6" xlink:href="#mfb72eb84d1" y="246.991684"/>
      </g>
     </g>
     <g id="text_9">
      <!-- 500 -->
      <g transform="translate(31.5125 250.790903)scale(0.1 -0.1)">
       <use xlink:href="#DejaVuSans-35"/>
       <use x="63.623047" xlink:href="#DejaVuSans-30"/>
       <use x="127.246094" xlink:href="#DejaVuSans-30"/>
      </g>
     </g>
    </g>
    <g id="ytick_3">
     <g id="line2d_10">
      <g>
       <use style="stroke:#000000;stroke-width:0.8;" x="57.6" xlink:href="#mfb72eb84d1" y="198.496581"/>
      </g>
     </g>
     <g id="text_10">
      <!-- 1000 -->
      <g transform="translate(25.15 202.295799)scale(0.1 -0.1)">
       <use xlink:href="#DejaVuSans-31"/>
       <use x="63.623047" xlink:href="#DejaVuSans-30"/>
       <use x="127.246094" xlink:href="#DejaVuSans-30"/>
       <use x="190.869141" xlink:href="#DejaVuSans-30"/>
      </g>
     </g>
    </g>
    <g id="ytick_4">
     <g id="line2d_11">
      <g>
       <use style="stroke:#000000;stroke-width:0.8;" x="57.6" xlink:href="#mfb72eb84d1" y="150.001477"/>
      </g>
     </g>
     <g id="text_11">
      <!-- 1500 -->
      <g transform="translate(25.15 153.800696)scale(0.1 -0.1)">
       <use xlink:href="#DejaVuSans-31"/>
       <use x="63.623047" xlink:href="#DejaVuSans-35"/>
       <use x="127.246094" xlink:href="#DejaVuSans-30"/>
       <use x="190.869141" xlink:href="#DejaVuSans-30"/>
      </g>
     </g>
    </g>
    <g id="ytick_5">
     <g id="line2d_12">
      <g>
       <use style="stroke:#000000;stroke-width:0.8;" x="57.6" xlink:href="#mfb72eb84d1" y="101.506373"/>
      </g>
     </g>
     <g id="text_12">
      <!-- 2000 -->
      <g transform="translate(25.15 105.305592)scale(0.1 -0.1)">
       <use xlink:href="#DejaVuSans-32"/>
       <use x="63.623047" xlink:href="#DejaVuSans-30"/>
       <use x="127.246094" xlink:href="#DejaVuSans-30"/>
       <use x="190.869141" xlink:href="#DejaVuSans-30"/>
      </g>
     </g>
    </g>
    <g id="ytick_6">
     <g id="line2d_13">
      <g>
       <use style="stroke:#000000;stroke-width:0.8;" x="57.6" xlink:href="#mfb72eb84d1" y="53.01127"/>
      </g>
     </g>
     <g id="text_13">
      <!-- 2500 -->
      <g transform="translate(25.15 56.810488)scale(0.1 -0.1)">
       <use xlink:href="#DejaVuSans-32"/>
       <use x="63.623047" xlink:href="#DejaVuSans-35"/>
       <use x="127.246094" xlink:href="#DejaVuSans-30"/>
       <use x="190.869141" xlink:href="#DejaVuSans-30"/>
      </g>
     </g>
    </g>
   </g>
   <g id="line2d_14">
    <path clip-path="url(#p48bfb649b3)" d="M 73.832727 289.489866 
L 74.157382 289.54237 
L 75.456 288.431016 
L 75.672436 288.71346 
L 75.997091 289.36823 
L 76.6464 289.894238 
L 77.403927 290.521229 
L 77.620364 290.132759 
L 77.945018 289.564089 
L 79.243636 288.468054 
L 79.351855 288.498112 
L 80.325818 289.830147 
L 80.975127 290.41976 
L 81.191564 290.599185 
L 81.299782 290.556571 
L 82.273745 289.126121 
L 83.247709 288.01816 
L 83.7888 288.457049 
L 85.736727 288.550276 
L 87.684655 289.512797 
L 89.957236 289.431836 
L 90.9312 289.216973 
L 91.580509 289.463832 
L 92.446255 290.122675 
L 92.662691 289.756118 
L 92.987345 289.212415 
L 94.285964 288.204226 
L 94.394182 288.255761 
L 95.259927 289.491078 
L 95.909236 290.021546 
L 96.125673 290.204509 
L 96.233891 290.161217 
L 96.991418 289.129709 
L 97.640727 288.664543 
L 98.0736 288.303465 
L 98.290036 288.585715 
L 98.614691 289.210961 
L 99.155782 289.562635 
L 99.588655 289.928852 
L 99.805091 290.102798 
L 100.021527 289.814682 
L 100.346182 289.199714 
L 100.995491 288.716175 
L 101.753018 288.115072 
L 101.969455 288.470381 
L 102.294109 289.091749 
L 103.592727 290.222932 
L 103.700945 290.204509 
L 104.0256 289.54746 
L 104.350255 289.125927 
L 105.648873 288.163891 
L 106.514618 289.420782 
L 107.5968 290.267436 
L 107.813236 289.888614 
L 108.137891 289.312333 
L 109.544727 288.274037 
L 109.869382 288.916397 
L 110.194036 289.28945 
L 111.059782 289.915811 
L 111.276218 290.000748 
L 111.600873 289.378847 
L 111.925527 289.020095 
L 112.791273 288.387771 
L 113.115927 288.137518 
L 113.224145 288.198797 
L 113.981673 289.337057 
L 115.063855 289.993234 
L 115.604945 289.03716 
L 116.903564 287.970892 
L 117.12 288.358538 
L 117.444655 288.950527 
L 118.635055 289.964049 
L 118.743273 289.955419 
L 119.067927 289.309763 
L 119.392582 288.914555 
L 120.6912 287.951549 
L 121.448727 289.091216 
L 122.422691 289.81187 
L 122.639127 289.450791 
L 122.963782 288.940152 
L 124.370618 288.02233 
L 125.128145 289.126897 
L 125.777455 289.634482 
L 126.102109 289.846921 
L 126.426764 289.204416 
L 126.751418 288.803923 
L 128.050036 287.847753 
L 128.915782 289.122631 
L 129.889745 289.903303 
L 130.106182 289.523366 
L 130.430836 288.957944 
L 131.729455 287.869181 
L 131.837673 287.90302 
L 132.811636 289.259683 
L 133.460945 289.857878 
L 133.677382 290.025812 
L 133.7856 289.983053 
L 134.543127 288.898605 
L 135.300655 288.279952 
L 135.625309 288.015058 
L 135.733527 288.080796 
L 136.382836 289.079047 
L 136.923927 289.470911 
L 138.222545 293.757266 
L 138.871855 295.487806 
L 139.196509 295.487806 
L 140.819782 287.729753 
L 141.144436 287.79588 
L 142.767709 295.487806 
L 142.984145 295.487952 
L 143.092364 295.342027 
L 144.715636 287.729559 
L 144.932073 287.729511 
L 145.040291 287.952955 
L 146.555345 295.487273 
L 146.88 295.487806 
L 147.096436 294.641249 
L 148.503273 287.729317 
L 148.827927 287.72922 
L 149.152582 289.196417 
L 150.4512 295.487758 
L 150.775855 295.488 
L 151.425164 292.312466 
L 152.399127 287.737461 
L 152.723782 287.737413 
L 154.347055 295.487806 
L 154.671709 295.395403 
L 156.619636 285.814359 
L 157.810036 287.084921 
L 159.000436 288.607919 
L 159.541527 288.952951 
L 160.515491 287.771009 
L 161.056582 287.312195 
L 161.381236 287.086085 
L 161.489455 287.15798 
L 162.138764 288.205196 
L 163.112727 289.04739 
L 163.220945 288.980778 
L 163.870255 287.862927 
L 164.952436 286.767862 
L 165.060655 286.727333 
L 165.277091 287.063784 
L 165.601745 287.705319 
L 166.900364 289.003661 
L 167.008582 289.001043 
L 167.225018 288.592842 
L 167.549673 288.015688 
L 168.848291 286.781921 
L 168.956509 286.811931 
L 169.930473 288.275249 
L 170.579782 288.909319 
L 170.904436 289.081762 
L 171.8784 287.815902 
L 172.419491 287.343028 
L 172.744145 287.086376 
L 172.852364 287.135098 
L 173.718109 288.419574 
L 174.800291 289.256241 
L 175.557818 288.036583 
L 176.531782 287.093357 
L 176.64 287.053264 
L 176.856436 287.362711 
L 177.181091 288.029941 
L 178.587927 289.483079 
L 178.804364 289.475516 
L 179.453673 288.405467 
L 180.644073 287.309141 
L 180.752291 287.38637 
L 181.4016 288.468491 
L 182.700218 289.611115 
L 182.916655 289.278251 
L 183.241309 288.693825 
L 184.648145 287.624697 
L 184.864582 288.000223 
L 185.189236 288.582225 
L 186.704291 289.751706 
L 187.570036 288.425198 
L 188.544 287.518768 
L 188.760436 287.795056 
L 189.085091 288.464952 
L 190.491927 289.859332 
L 190.600145 289.887256 
L 190.816582 289.574173 
L 191.141236 288.955956 
L 192.548073 287.76078 
L 192.764509 288.101352 
L 193.089164 288.690286 
L 194.387782 289.784285 
L 194.604218 289.469844 
L 194.928873 288.878728 
L 196.335709 287.76941 
L 196.552145 288.141687 
L 196.8768 288.740851 
L 198.283636 289.940487 
L 198.608291 289.264919 
L 199.041164 288.767612 
L 200.123345 287.782596 
L 200.231564 287.823416 
L 201.097309 289.13063 
L 202.179491 290.071723 
L 202.395927 289.740556 
L 202.720582 289.152252 
L 204.127418 288.002647 
L 204.343855 288.359411 
L 204.668509 288.914021 
L 205.858909 289.86195 
L 206.075345 289.539461 
L 206.4 288.970646 
L 207.806836 287.87815 
L 208.023273 288.265553 
L 208.347927 288.839799 
L 209.646545 289.974229 
L 209.862982 289.648008 
L 210.187636 289.026155 
L 211.486255 287.796219 
L 211.594473 287.784778 
L 211.810909 288.146099 
L 212.135564 288.74599 
L 213.434182 289.901073 
L 213.650618 289.584257 
L 213.975273 289.003758 
L 215.382109 287.859631 
L 215.598545 288.221243 
L 215.9232 288.777114 
L 217.005382 289.537425 
L 217.871127 288.382439 
L 218.845091 287.610832 
L 219.061527 287.916595 
L 219.386182 288.56545 
L 220.576582 289.68175 
L 220.6848 289.6339 
L 221.442327 288.467618 
L 222.524509 287.524489 
L 222.740945 287.842808 
L 223.0656 288.499081 
L 224.364218 289.728727 
L 224.580655 289.435084 
L 224.905309 288.832623 
L 226.312145 287.674147 
L 226.528582 288.024996 
L 226.853236 288.615045 
L 227.935418 289.510373 
L 228.151855 289.205046 
L 228.476509 288.643697 
L 229.883345 287.567781 
L 230.099782 287.979764 
L 230.424436 288.577813 
L 231.723055 289.766541 
L 231.939491 289.402748 
L 232.264145 288.794082 
L 233.670982 287.581792 
L 233.887418 287.997508 
L 234.212073 288.601665 
L 235.618909 289.914357 
L 235.835345 289.574173 
L 236.16 288.977675 
L 237.566836 287.849547 
L 237.783273 288.228515 
L 238.107927 288.80402 
L 239.406545 289.766735 
L 240.055855 288.754716 
L 241.246255 287.808533 
L 241.462691 288.140766 
L 241.787345 288.78778 
L 243.085964 290.009717 
L 243.194182 289.956195 
L 243.843491 288.893757 
L 245.033891 287.866709 
L 245.250327 288.178726 
L 245.574982 288.841398 
L 246.981818 290.165968 
L 247.198255 289.894238 
L 247.522909 289.280675 
L 248.929745 288.154825 
L 249.146182 288.472805 
L 249.470836 289.073666 
L 250.661236 290.005935 
L 250.877673 289.671666 
L 251.202327 289.127866 
L 252.609164 288.091995 
L 252.933818 288.755249 
L 253.258473 289.160299 
L 254.340655 290.108907 
L 254.557091 289.835237 
L 254.881745 289.199083 
L 256.180364 288.005071 
L 256.288582 287.979667 
L 256.505018 288.306519 
L 256.829673 288.934383 
L 258.020073 290.025279 
L 258.128291 290.028042 
L 258.344727 289.654019 
L 258.669382 289.124085 
L 260.076218 288.071925 
L 260.941964 289.236558 
L 261.807709 289.715007 
L 262.240582 288.929341 
L 263.647418 287.87272 
L 263.972073 288.552118 
L 264.296727 288.961968 
L 265.487127 289.917944 
L 266.244655 288.747832 
L 267.326836 287.800388 
L 267.435055 287.874417 
L 268.084364 288.980875 
L 269.382982 290.147691 
L 269.599418 289.797762 
L 269.924073 289.193169 
L 271.330909 288.046812 
L 271.547345 288.429464 
L 271.872 289.0072 
L 273.170618 289.971757 
L 273.928145 288.919112 
L 275.118545 288.195742 
L 275.767855 289.262689 
L 277.066473 290.184826 
L 277.607564 289.197871 
L 278.906182 288.065137 
L 279.122618 288.417635 
L 279.447273 289.044238 
L 280.854109 290.333466 
L 280.962327 290.293809 
L 281.828073 289.080114 
L 282.910255 288.310931 
L 283.559564 289.364061 
L 284.749964 290.264527 
L 285.615709 289.173147 
L 286.1568 288.779005 
L 286.589673 288.412351 
L 286.697891 288.469169 
L 287.3472 289.485261 
L 288.104727 290.068765 
L 288.429382 290.3276 
L 288.645818 289.978932 
L 288.970473 289.376714 
L 290.269091 288.233266 
L 290.377309 288.236465 
L 290.593745 288.627117 
L 290.9184 289.216973 
L 292.217018 290.379861 
L 292.325236 290.342774 
L 293.082764 289.214646 
L 294.273164 288.372015 
L 294.922473 289.433484 
L 296.112873 290.370892 
L 296.329309 290.001475 
L 296.653964 289.472074 
L 298.0608 288.513189 
L 298.926545 289.676417 
L 299.467636 290.104883 
L 299.792291 290.403519 
L 300.008727 290.129753 
L 300.333382 289.49166 
L 301.090909 288.876546 
L 301.740218 288.311125 
L 301.956655 288.630801 
L 302.281309 289.259829 
L 303.579927 290.441673 
L 303.796364 290.468095 
L 304.662109 289.236849 
L 305.744291 288.461946 
L 306.501818 289.598025 
L 307.692218 290.417336 
L 308.341527 289.455591 
L 309.099055 288.887939 
L 309.531927 288.537623 
L 309.748364 288.848961 
L 310.073018 289.432078 
L 311.263418 290.338799 
L 311.479855 290.069541 
L 311.804509 289.470329 
L 312.562036 288.896569 
L 313.211345 288.366149 
L 313.427782 288.699498 
L 313.752436 289.304188 
L 315.051055 290.424705 
L 315.159273 290.397411 
L 316.133236 289.108911 
L 316.782545 288.532096 
L 316.998982 288.36484 
L 317.1072 288.414629 
L 317.864727 289.548575 
L 319.055127 290.488941 
L 319.271564 290.12316 
L 319.596218 289.570925 
L 321.003055 288.541501 
L 321.977018 289.72703 
L 322.518109 290.162913 
L 322.734545 290.351016 
L 322.842764 290.319504 
L 323.600291 289.295946 
L 324.466036 288.642727 
L 324.682473 288.507808 
L 324.898909 288.770424 
L 325.331782 289.514349 
L 326.6304 290.511242 
L 326.846836 290.135183 
L 327.171491 289.578972 
L 328.470109 288.463836 
L 328.578327 288.483228 
L 329.552291 289.775946 
L 330.2016 290.35247 
L 330.526255 290.549299 
L 330.742691 290.203976 
L 331.067345 289.665655 
L 332.474182 288.656932 
L 332.798836 289.258326 
L 333.123491 289.62464 
L 334.313891 290.336763 
L 334.9632 289.404202 
L 336.261818 288.645927 
L 336.802909 289.531947 
L 337.993309 290.399883 
L 338.209745 290.049179 
L 338.5344 289.501647 
L 339.833018 288.392668 
L 339.941236 288.420156 
L 340.9152 289.657704 
L 341.889164 290.197964 
L 342.430255 289.353153 
L 343.728873 288.373227 
L 343.945309 288.717435 
L 344.269964 289.222936 
L 345.352145 289.945093 
L 345.568582 289.673411 
L 345.893236 289.137756 
L 347.191855 288.110708 
L 347.300073 288.116235 
L 347.516509 288.468781 
L 347.841164 289.023295 
L 348.923345 289.921726 
L 349.031564 289.928755 
L 349.248 289.568307 
L 349.572655 289.033864 
L 350.871273 287.895215 
L 350.979491 287.926582 
L 351.953455 289.262689 
L 352.8192 289.906018 
L 353.684945 288.796215 
L 354.334255 288.258378 
L 354.658909 288.001919 
L 354.875345 288.25387 
L 355.308218 288.963762 
L 356.3904 289.802756 
L 356.606836 289.536213 
L 356.931491 288.984366 
L 358.230109 287.968759 
L 358.338327 287.966287 
L 358.554764 288.321111 
L 358.879418 288.91087 
L 360.069818 289.992846 
L 360.178036 290.032987 
L 360.394473 289.733381 
L 360.719127 289.121225 
L 361.909527 288.033383 
L 362.125964 287.924788 
L 362.3424 288.265117 
L 362.667055 288.870874 
L 363.857455 289.972387 
L 364.073891 290.055288 
L 364.290327 289.689894 
L 364.614982 289.147695 
L 366.021818 288.114248 
L 366.995782 289.321592 
L 367.428655 289.659788 
L 367.753309 289.861465 
L 368.619055 288.736779 
L 369.376582 288.113714 
L 369.593018 287.975255 
L 369.701236 288.039782 
L 370.350545 289.093882 
L 371.540945 290.036138 
L 371.757382 289.630555 
L 372.082036 289.059267 
L 373.380655 287.926533 
L 373.488873 287.960857 
L 374.462836 289.330707 
L 375.112145 289.955807 
L 375.4368 290.134359 
L 375.653236 289.728485 
L 375.977891 289.183618 
L 377.384727 288.163018 
L 378.142255 289.273161 
L 379.116218 289.955225 
L 379.981964 288.887891 
L 380.523055 288.53292 
L 380.955927 288.1987 
L 381.064145 288.268705 
L 381.713455 289.334488 
L 382.5792 290.070705 
L 382.795636 290.227537 
L 383.012073 289.914017 
L 383.336727 289.276651 
L 384.635345 288.128695 
L 384.743564 288.11003 
L 384.96 288.470187 
L 385.284655 289.098197 
L 386.583273 290.273496 
L 386.691491 290.222107 
L 387.3408 289.216876 
L 388.206545 288.517552 
L 388.5312 288.266184 
L 388.747636 288.567099 
L 389.072291 289.211494 
L 389.829818 289.776819 
L 390.370909 290.125875 
L 390.912 289.284844 
L 391.885964 288.626778 
L 392.210618 288.445463 
L 392.427055 288.7919 
L 392.751709 289.400809 
L 393.942109 290.363039 
L 394.050327 290.310923 
L 394.807855 289.164711 
L 395.998255 288.306664 
L 396.647564 289.361588 
L 398.270836 290.544499 
L 398.487273 290.64272 
L 398.487273 290.64272 
" style="fill:none;stroke:#1f77b4;stroke-linecap:square;stroke-width:1.5;"/>
   </g>
   <g id="line2d_15">
    <path clip-path="url(#p48bfb649b3)" d="M 73.832727 252.60962 
L 74.049164 257.490132 
L 74.157382 257.24168 
L 74.2656 257.689188 
L 74.914909 267.161628 
L 75.239564 274.940152 
L 75.456 279.561018 
L 75.564218 278.815581 
L 75.672436 280.96088 
L 75.888873 291.363995 
L 75.997091 292.62044 
L 76.105309 292.607869 
L 76.754618 290.579258 
L 76.862836 290.661684 
L 77.079273 292.092121 
L 77.295709 293.675891 
L 77.403927 293.369361 
L 77.512145 287.450794 
L 77.8368 259.310465 
L 77.945018 258.153788 
L 78.053236 258.300316 
L 78.269673 259.771449 
L 78.594327 263.782372 
L 78.918982 270.303968 
L 79.243636 279.368596 
L 79.351855 278.994276 
L 79.460073 279.659609 
L 79.784727 292.397759 
L 79.892945 292.703086 
L 80.325818 291.421806 
L 80.650473 290.716058 
L 80.758691 291.058253 
L 81.191564 294.020191 
L 81.299782 292.728254 
L 81.840873 259.593146 
L 81.949091 259.497478 
L 82.057309 259.725865 
L 82.273745 261.390482 
L 82.5984 267.307123 
L 82.923055 278.026517 
L 83.139491 286.464687 
L 83.247709 286.867331 
L 83.355927 288.259921 
L 83.572364 294.97241 
L 83.7888 295.485695 
L 85.520291 295.485962 
L 85.736727 294.617593 
L 86.1696 293.079758 
L 86.494255 292.678395 
L 86.710691 292.770299 
L 86.927127 293.167003 
L 87.251782 294.275566 
L 87.576436 295.486207 
L 89.199709 295.486013 
L 89.416145 295.190158 
L 89.632582 294.949062 
L 90.173673 294.219891 
L 90.390109 293.70298 
L 90.9312 293.455878 
L 91.580509 291.373039 
L 91.905164 290.45313 
L 92.013382 290.530712 
L 92.229818 291.904783 
L 92.338036 292.959659 
L 92.446255 292.70846 
L 92.662691 275.185018 
L 92.879127 260.76651 
L 92.987345 259.772085 
L 93.095564 260.040251 
L 93.420218 262.769629 
L 93.744873 267.238631 
L 94.069527 274.599569 
L 94.285964 279.436219 
L 94.394182 278.787727 
L 94.5024 279.816011 
L 94.827055 292.364374 
L 94.935273 292.748902 
L 95.259927 291.812968 
L 95.584582 290.899714 
L 95.6928 290.91103 
L 95.909236 292.196229 
L 96.125673 293.890879 
L 96.233891 292.510614 
L 96.666764 262.364229 
L 96.774982 262.115587 
L 96.991418 263.262177 
L 97.316073 266.141869 
L 97.640727 270.978313 
L 98.0736 279.954619 
L 98.181818 279.264259 
L 98.290036 281.459138 
L 98.506473 291.377445 
L 98.614691 292.6612 
L 98.722909 292.630122 
L 99.372218 290.479605 
L 99.480436 290.749988 
L 99.805091 293.553197 
L 99.913309 290.505582 
L 100.346182 259.339925 
L 100.4544 259.210579 
L 100.670836 260.5072 
L 100.995491 264.223478 
L 101.320145 270.128805 
L 101.753018 279.291494 
L 101.861236 278.873374 
L 102.294109 292.645667 
L 102.402327 292.518887 
L 103.051636 290.603089 
L 103.159855 290.820019 
L 103.592727 293.895109 
L 103.700945 293.282367 
L 103.917382 274.351143 
L 104.133818 258.761399 
L 104.242036 257.678752 
L 104.350255 257.920871 
L 104.566691 259.554292 
L 104.891345 263.733462 
L 105.216 270.45357 
L 105.540655 279.296731 
L 105.648873 278.808466 
L 105.757091 279.707921 
L 106.081745 292.423937 
L 106.189964 292.719432 
L 106.947491 290.606761 
L 107.055709 290.983771 
L 107.488582 294.030506 
L 107.5968 293.731407 
L 107.705018 288.311262 
L 108.029673 260.667777 
L 108.137891 259.549435 
L 108.246109 259.842476 
L 108.570764 262.460809 
L 108.895418 266.684013 
L 109.220073 273.788848 
L 109.436509 279.373588 
L 109.544727 279.148593 
L 109.652945 279.743214 
L 109.9776 292.659447 
L 110.085818 293.052536 
L 110.410473 292.034467 
L 110.843345 290.871245 
L 110.951564 291.280248 
L 111.168 293.250115 
L 111.276218 292.78756 
L 111.492655 274.336976 
L 111.709091 261.153776 
L 111.817309 260.515637 
L 112.033745 261.527058 
L 112.3584 264.538051 
L 112.683055 269.517999 
L 113.115927 279.083415 
L 113.224145 278.350211 
L 113.332364 279.848432 
L 113.657018 292.573256 
L 113.765236 292.762951 
L 114.414545 290.667849 
L 114.522764 290.76054 
L 114.7392 292.297446 
L 114.955636 293.596128 
L 115.063855 289.101952 
L 115.388509 258.249543 
L 115.604945 256.417531 
L 115.821382 257.84117 
L 116.146036 262.067632 
L 116.470691 268.862705 
L 116.903564 278.941777 
L 117.011782 278.880785 
L 117.444655 292.747629 
L 117.661091 292.23538 
L 118.202182 290.800882 
L 118.3104 291.046796 
L 118.635055 293.528742 
L 118.743273 293.117197 
L 118.959709 273.929322 
L 119.176145 259.406755 
L 119.284364 258.493236 
L 119.392582 258.714517 
L 119.609018 260.200342 
L 119.933673 264.300052 
L 120.258327 270.945283 
L 120.582982 279.694944 
L 120.6912 279.146191 
L 120.799418 280.217676 
L 121.124073 292.518736 
L 121.232291 292.724133 
L 121.989818 291.037176 
L 122.206255 292.250373 
L 122.314473 293.277914 
L 122.422691 293.258349 
L 122.530909 287.828035 
L 122.855564 263.150164 
L 122.963782 262.480265 
L 123.180218 263.363086 
L 123.504873 266.051753 
L 123.829527 270.5785 
L 124.2624 279.970883 
L 124.370618 279.340523 
L 124.478836 280.223778 
L 124.803491 292.440483 
L 124.911709 292.5936 
L 125.561018 290.509338 
L 125.669236 290.676431 
L 125.993891 293.452454 
L 126.102109 293.004997 
L 126.318545 274.011489 
L 126.534982 259.730629 
L 126.6432 258.749065 
L 126.751418 258.910818 
L 126.967855 260.362774 
L 127.292509 264.547982 
L 127.617164 271.353711 
L 127.941818 280.03707 
L 128.050036 279.371528 
L 128.158255 280.324848 
L 128.482909 292.148003 
L 128.591127 292.353686 
L 129.348655 290.829172 
L 129.565091 292.018674 
L 129.781527 293.661249 
L 129.889745 293.430914 
L 129.997964 287.772346 
L 130.322618 260.449724 
L 130.430836 259.25241 
L 130.539055 259.353568 
L 130.755491 260.750182 
L 131.080145 264.711653 
L 131.4048 271.193074 
L 131.729455 279.941332 
L 131.837673 279.441293 
L 131.945891 279.89061 
L 132.270545 292.021831 
L 132.378764 292.346113 
L 133.136291 290.881548 
L 133.352727 292.156077 
L 133.677382 294.173385 
L 133.7856 292.929189 
L 134.326691 260.944013 
L 134.543127 261.961357 
L 134.867782 264.959593 
L 135.192436 270.127943 
L 135.625309 280.345192 
L 135.733527 279.648596 
L 135.841745 281.586416 
L 136.058182 291.573406 
L 136.1664 292.795411 
L 136.274618 292.762563 
L 136.815709 291.008937 
L 136.923927 287.843975 
L 137.248582 242.369652 
L 137.573236 221.308941 
L 137.789673 216.710789 
L 137.897891 217.228016 
L 138.114327 223.886976 
L 138.438982 246.797678 
L 138.980073 295.486652 
L 139.196509 295.486662 
L 139.629382 128.640775 
L 139.954036 65.677666 
L 140.170473 54.099428 
L 140.278691 57.448031 
L 140.495127 82.364218 
L 140.819782 142.292034 
L 141.036218 142.292034 
L 141.144436 137.387101 
L 141.469091 69.182918 
L 141.685527 54.164098 
L 141.793745 55.776904 
L 142.010182 77.23751 
L 142.334836 155.069738 
L 142.767709 295.486668 
L 142.984145 295.486681 
L 143.092364 281.956466 
L 143.525236 119.909988 
L 143.849891 62.233276 
L 144.066327 54.197721 
L 144.174545 59.302166 
L 144.390982 87.776436 
L 144.715636 141.83474 
L 144.932073 141.842486 
L 145.148509 101.087327 
L 145.473164 56.470079 
L 145.581382 53.773527 
L 145.6896 57.146661 
L 145.906036 82.170038 
L 146.230691 165.318831 
L 146.663564 295.48667 
L 146.88 295.486674 
L 147.096436 218.871077 
L 147.529309 88.203758 
L 147.745745 59.374206 
L 147.853964 54.078405 
L 147.962182 54.870873 
L 148.178618 74.703871 
L 148.611491 141.519326 
L 148.827927 141.51932 
L 149.2608 61.930328 
L 149.477236 53.974146 
L 149.585455 59.121708 
L 149.801891 87.651781 
L 150.126545 176.08977 
L 150.4512 295.486658 
L 150.775855 295.486673 
L 151.316945 104.210091 
L 151.6416 57.117066 
L 151.749818 53.568 
L 151.858036 56.112585 
L 152.074473 79.433493 
L 152.507345 141.442611 
L 152.723782 141.450361 
L 153.048436 70.985485 
L 153.264873 54.543755 
L 153.373091 55.426828 
L 153.589527 75.473286 
L 153.914182 151.169549 
L 154.347055 295.486656 
L 154.563491 295.486654 
L 154.671709 288.107078 
L 155.104582 123.69505 
L 155.429236 64.235788 
L 155.645673 54.99012 
L 155.753891 59.508077 
L 155.970327 86.753961 
L 156.294982 169.773494 
L 156.619636 292.354234 
L 157.268945 282.689108 
L 157.485382 282.079755 
L 157.810036 282.324276 
L 157.918255 282.361604 
L 158.026473 282.600566 
L 158.134691 283.787693 
L 158.351127 291.791983 
L 158.459345 292.352142 
L 159.216873 291.448218 
L 159.325091 291.743475 
L 159.433309 292.632622 
L 159.541527 292.29932 
L 160.082618 261.605219 
L 160.190836 261.858772 
L 160.407273 263.227535 
L 160.840145 268.66104 
L 161.1648 276.014497 
L 161.381236 280.31153 
L 161.489455 279.407116 
L 161.597673 281.37699 
L 161.814109 291.239578 
L 161.922327 292.122254 
L 162.030545 292.037043 
L 162.571636 291.081103 
L 162.679855 291.041114 
L 162.788073 291.37483 
L 163.112727 293.753814 
L 163.220945 291.370272 
L 163.653818 256.036815 
L 163.762036 255.431362 
L 163.870255 255.456294 
L 163.978473 255.836937 
L 164.194909 258.177581 
L 164.519564 264.370401 
L 164.844218 274.677135 
L 165.060655 280.176261 
L 165.168873 279.145949 
L 165.277091 281.878156 
L 165.493527 290.424678 
L 165.601745 290.89597 
L 165.818182 290.717853 
L 166.142836 291.117985 
L 166.359273 290.876563 
L 166.467491 291.112272 
L 166.900364 293.814449 
L 167.008582 293.556332 
L 167.1168 287.398224 
L 167.441455 258.529613 
L 167.657891 257.171331 
L 167.766109 257.398368 
L 167.982545 259.080555 
L 168.3072 264.272735 
L 168.631855 273.30864 
L 168.848291 280.047133 
L 168.956509 279.533193 
L 169.064727 279.636542 
L 169.389382 290.725179 
L 169.4976 290.822143 
L 169.605818 290.714406 
L 169.714036 290.799165 
L 169.930473 291.084648 
L 170.146909 290.693996 
L 170.255127 290.788181 
L 170.471564 292.209984 
L 170.796218 294.03226 
L 170.904436 293.54452 
L 171.120873 274.646797 
L 171.337309 261.530447 
L 171.445527 260.918866 
L 171.553745 261.035225 
L 171.770182 262.030493 
L 172.094836 265.548319 
L 172.419491 271.943361 
L 172.744145 280.300859 
L 172.852364 279.46619 
L 172.960582 280.147789 
L 173.285236 291.580425 
L 173.393455 291.503917 
L 173.934545 290.458536 
L 174.042764 290.416975 
L 174.150982 290.809828 
L 174.692073 294.155335 
L 174.800291 292.202354 
L 175.233164 257.849387 
L 175.4496 257.170909 
L 175.557818 257.450255 
L 175.774255 259.493426 
L 176.098909 265.172223 
L 176.423564 275.042639 
L 176.64 280.39635 
L 176.748218 279.209233 
L 176.856436 280.964176 
L 177.072873 289.918308 
L 177.181091 290.56763 
L 177.397527 290.317838 
L 177.722182 290.766761 
L 177.938618 290.454945 
L 178.046836 290.692818 
L 178.587927 293.831407 
L 178.696145 294.126164 
L 178.804364 292.430667 
L 179.237236 257.989581 
L 179.345455 257.492526 
L 179.453673 257.595955 
L 179.670109 258.612304 
L 179.994764 262.997416 
L 180.319418 270.826197 
L 180.644073 280.287434 
L 180.752291 279.275194 
L 180.860509 281.206115 
L 181.076945 290.815161 
L 181.185164 291.429511 
L 181.509818 290.926919 
L 181.618036 291.051959 
L 181.726255 290.988624 
L 181.942691 290.668631 
L 182.050909 290.901478 
L 182.592 294.245734 
L 182.700218 294.382637 
L 182.808436 291.064309 
L 183.133091 262.63508 
L 183.241309 261.480166 
L 183.349527 261.532868 
L 183.565964 262.477215 
L 183.890618 265.65809 
L 184.215273 271.110053 
L 184.648145 279.98609 
L 184.756364 279.382556 
L 185.189236 292.130627 
L 185.622109 291.139327 
L 185.838545 290.685013 
L 185.946764 290.76779 
L 186.1632 292.264371 
L 186.379636 293.714245 
L 186.596073 294.319654 
L 186.704291 292.618194 
L 187.245382 257.351803 
L 187.3536 257.469988 
L 187.570036 258.612765 
L 187.894691 263.369816 
L 188.219345 271.438704 
L 188.544 281.031228 
L 188.652218 280.032948 
L 188.760436 281.339261 
L 188.976873 290.55138 
L 189.085091 291.321016 
L 189.409745 290.689604 
L 189.626182 290.787298 
L 189.842618 290.536649 
L 189.950836 290.713074 
L 190.600145 294.219391 
L 190.708364 291.190067 
L 191.141236 260.261195 
L 191.249455 260.201011 
L 191.465891 261.092607 
L 191.682327 263.052125 
L 192.006982 268.126005 
L 192.548073 281.106791 
L 192.656291 280.351772 
L 193.089164 292.307614 
L 193.522036 291.363601 
L 193.846691 290.929972 
L 194.063127 292.120271 
L 194.387782 294.058885 
L 194.496 290.760564 
L 194.820655 262.847597 
L 195.037091 261.329841 
L 195.253527 262.240651 
L 195.578182 265.630938 
L 195.902836 271.504155 
L 196.335709 280.638869 
L 196.443927 279.92933 
L 196.8768 291.71083 
L 197.201455 291.08697 
L 197.309673 291.007495 
L 197.526109 290.59978 
L 197.634327 290.646526 
L 197.850764 292.045043 
L 198.175418 294.085468 
L 198.283636 293.48055 
L 198.500073 273.68779 
L 198.716509 259.214414 
L 198.824727 258.373079 
L 198.932945 258.446156 
L 199.149382 259.550308 
L 199.474036 263.786932 
L 199.798691 270.926374 
L 200.123345 280.496904 
L 200.231564 279.846957 
L 200.339782 280.46351 
L 200.664436 291.626994 
L 200.772655 291.546445 
L 200.989091 291.048977 
L 201.205527 291.069721 
L 201.421964 290.782241 
L 201.530182 290.852314 
L 201.746618 292.126586 
L 202.071273 294.067464 
L 202.179491 294.173523 
L 202.287709 290.540418 
L 202.612364 262.718867 
L 202.720582 261.393242 
L 202.8288 261.44127 
L 203.045236 262.463012 
L 203.369891 265.83456 
L 203.694545 271.87569 
L 204.127418 281.399713 
L 204.235636 280.939016 
L 204.668509 292.608476 
L 205.317818 291.05823 
L 205.426036 291.078826 
L 205.642473 292.336302 
L 205.858909 293.742978 
L 205.967127 289.922706 
L 206.291782 262.711155 
L 206.4 261.471172 
L 206.508218 261.490033 
L 206.724655 262.502661 
L 207.049309 266.042503 
L 207.373964 272.032713 
L 207.698618 280.824077 
L 207.806836 280.742603 
L 207.915055 280.358584 
L 208.347927 292.029234 
L 208.672582 291.359576 
L 209.105455 290.973871 
L 209.321891 292.179836 
L 209.646545 294.035419 
L 209.754764 290.454102 
L 210.079418 260.627659 
L 210.295855 258.554438 
L 210.512291 259.4867 
L 210.728727 261.814813 
L 211.053382 267.582353 
L 211.594473 280.895989 
L 211.702691 280.208217 
L 212.135564 291.878473 
L 212.460218 291.326268 
L 212.676655 291.167711 
L 212.893091 291.010648 
L 213.001309 291.322428 
L 213.434182 293.939899 
L 213.5424 290.441205 
L 213.867055 262.541754 
L 213.975273 261.218202 
L 214.083491 261.26813 
L 214.299927 262.35918 
L 214.624582 265.797273 
L 214.949236 271.689306 
L 215.382109 281.068514 
L 215.490327 280.615977 
L 215.9232 292.484076 
L 216.572509 290.975123 
L 216.680727 290.943436 
L 216.788945 291.46616 
L 216.897164 292.621249 
L 217.005382 291.897297 
L 217.438255 260.683964 
L 217.546473 260.327066 
L 217.762909 261.083735 
L 217.979345 262.99354 
L 218.304 267.632192 
L 218.628655 275.732512 
L 218.845091 280.152256 
L 218.953309 279.154853 
L 219.061527 281.340551 
L 219.277964 291.030381 
L 219.386182 291.729109 
L 219.819055 291.246895 
L 220.143709 290.876697 
L 220.251927 291.108275 
L 220.576582 293.554404 
L 220.6848 291.869889 
L 221.117673 257.555124 
L 221.225891 257.112371 
L 221.334109 257.303848 
L 221.550545 258.604634 
L 221.8752 263.251049 
L 222.199855 270.98583 
L 222.524509 279.614181 
L 222.632727 278.574985 
L 222.740945 281.015107 
L 222.957382 290.790116 
L 223.0656 291.440588 
L 223.390255 291.062862 
L 223.606691 291.157627 
L 223.823127 290.951587 
L 223.931345 291.146337 
L 224.364218 293.905502 
L 224.472436 291.191716 
L 224.905309 259.686144 
L 225.013527 259.667106 
L 225.229964 260.64189 
L 225.554618 263.997591 
L 225.879273 269.961879 
L 226.312145 279.971933 
L 226.420364 279.259113 
L 226.853236 292.356568 
L 227.394327 291.1649 
L 227.610764 290.861893 
L 227.718982 291.245224 
L 227.935418 293.14868 
L 228.043636 289.652683 
L 228.368291 260.853699 
L 228.584727 259.612401 
L 228.801164 260.577719 
L 229.125818 264.163777 
L 229.450473 270.134353 
L 229.775127 278.996262 
L 229.883345 278.956392 
L 229.991564 278.521391 
L 230.316218 291.342112 
L 230.424436 291.553327 
L 230.640873 291.077 
L 230.857309 291.040952 
L 231.073745 290.719302 
L 231.181964 290.793778 
L 231.3984 292.039038 
L 231.723055 293.804782 
L 231.831273 289.242255 
L 232.155927 257.830664 
L 232.372364 256.375559 
L 232.5888 257.293284 
L 232.805236 259.698843 
L 233.129891 265.617662 
L 233.670982 278.914662 
L 233.7792 278.427494 
L 234.103855 291.145916 
L 234.212073 291.279616 
L 234.428509 290.767565 
L 234.644945 290.893868 
L 234.9696 290.643875 
L 235.186036 291.872098 
L 235.510691 293.892179 
L 235.618909 294.096002 
L 235.727127 290.376261 
L 236.051782 260.462466 
L 236.16 259.194872 
L 236.268218 259.295761 
L 236.484655 260.34782 
L 236.809309 263.716424 
L 237.133964 269.738892 
L 237.566836 279.450913 
L 237.675055 278.989485 
L 238.107927 292.391994 
L 238.757236 290.71984 
L 238.865455 290.763446 
L 239.081891 292.215546 
L 239.298327 293.883008 
L 239.406545 291.946813 
L 239.839418 259.80937 
L 239.947636 259.575451 
L 240.164073 260.415054 
L 240.488727 263.733521 
L 240.813382 269.446975 
L 241.246255 279.497718 
L 241.354473 278.506455 
L 241.462691 281.275019 
L 241.679127 291.144097 
L 241.787345 291.79095 
L 242.436655 290.704174 
L 242.544873 290.679685 
L 242.653091 291.032288 
L 243.085964 293.945003 
L 243.194182 292.241891 
L 243.627055 257.782191 
L 243.735273 257.378761 
L 243.843491 257.602675 
L 244.059927 258.94837 
L 244.384582 263.362848 
L 244.709236 270.754114 
L 245.033891 279.364743 
L 245.142109 278.38777 
L 245.250327 280.852143 
L 245.466764 290.965275 
L 245.574982 291.666834 
L 246.007855 291.093081 
L 246.332509 290.717776 
L 246.440727 290.891667 
L 246.981818 294.130879 
L 247.090036 291.946777 
L 247.522909 261.08709 
L 247.631127 261.018262 
L 247.847564 262.008834 
L 248.172218 265.084362 
L 248.496873 270.530294 
L 248.929745 280.429349 
L 249.037964 279.679675 
L 249.146182 282.577421 
L 249.362618 292.089696 
L 249.470836 292.655987 
L 250.228364 290.808821 
L 250.336582 291.122104 
L 250.661236 293.42144 
L 250.769455 289.015777 
L 251.094109 262.747663 
L 251.202327 261.69893 
L 251.310545 261.788634 
L 251.526982 262.919759 
L 251.851636 266.455492 
L 252.176291 272.419324 
L 252.500945 280.757941 
L 252.717382 280.340334 
L 253.042036 291.931812 
L 253.150255 292.109862 
L 253.691345 290.987569 
L 253.799564 290.830947 
L 253.907782 290.924662 
L 254.124218 292.236234 
L 254.340655 293.843677 
L 254.448873 291.381089 
L 254.881745 259.156585 
L 254.989964 258.805665 
L 255.2064 259.747471 
L 255.531055 263.553011 
L 255.855709 269.963712 
L 256.288582 280.638419 
L 256.3968 279.816044 
L 256.505018 282.440889 
L 256.721455 291.399828 
L 256.829673 292.085559 
L 257.5872 291.027339 
L 257.695418 291.219164 
L 258.020073 293.520144 
L 258.128291 293.396612 
L 258.236509 287.835743 
L 258.561164 261.646608 
L 258.669382 260.949319 
L 258.7776 261.206706 
L 258.994036 262.528556 
L 259.318691 266.136814 
L 259.643345 272.323168 
L 259.968 280.675652 
L 260.076218 280.162656 
L 260.184436 280.753673 
L 260.509091 292.576166 
L 260.617309 292.603277 
L 261.266618 290.86058 
L 261.374836 290.965518 
L 261.699491 293.266711 
L 261.807709 288.750498 
L 262.132364 260.869428 
L 262.240582 259.779014 
L 262.3488 259.871943 
L 262.565236 261.060817 
L 262.889891 264.820584 
L 263.214545 271.136076 
L 263.5392 279.69877 
L 263.755636 279.244989 
L 264.080291 291.82376 
L 264.188509 292.047099 
L 264.7296 290.928445 
L 264.837818 290.741325 
L 264.946036 290.832669 
L 265.162473 292.176813 
L 265.378909 293.783581 
L 265.487127 292.43201 
L 266.028218 256.323203 
L 266.136436 256.555207 
L 266.352873 257.944239 
L 266.677527 262.485539 
L 267.002182 270.025934 
L 267.326836 278.957279 
L 267.435055 278.043929 
L 267.543273 280.097076 
L 267.759709 290.939735 
L 267.867927 291.949548 
L 267.976145 291.81993 
L 268.192582 291.288467 
L 268.409018 291.056074 
L 268.625455 290.590484 
L 268.733673 290.695847 
L 269.382982 294.016357 
L 269.4912 289.997059 
L 269.815855 259.179377 
L 269.924073 257.737225 
L 270.032291 257.799769 
L 270.248727 258.99303 
L 270.573382 262.695368 
L 270.898036 269.075276 
L 271.330909 278.944019 
L 271.439127 278.613619 
L 271.872 292.678529 
L 272.521309 291.162124 
L 272.629527 291.163512 
L 272.845964 292.389178 
L 273.0624 293.967743 
L 273.170618 292.982465 
L 273.711709 261.193521 
L 273.928145 262.094524 
L 274.2528 264.921716 
L 274.577455 269.713693 
L 275.010327 279.037429 
L 275.118545 278.135298 
L 275.226764 280.151786 
L 275.4432 291.187435 
L 275.551418 292.377985 
L 275.659636 292.309957 
L 276.308945 290.634845 
L 276.417164 290.910115 
L 276.958255 294.11383 
L 277.066473 290.826273 
L 277.499345 256.390728 
L 277.607564 256.130426 
L 277.824 257.203893 
L 278.148655 261.270019 
L 278.473309 268.09131 
L 278.906182 279.376406 
L 279.0144 278.665578 
L 279.447273 292.281683 
L 279.880145 291.356506 
L 280.2048 290.684686 
L 280.313018 290.878416 
L 280.854109 294.105403 
L 280.962327 292.977758 
L 281.503418 258.492732 
L 281.719855 259.414565 
L 282.044509 262.752966 
L 282.369164 268.407783 
L 282.802036 279.570136 
L 282.910255 278.840154 
L 283.018473 280.499157 
L 283.343127 292.652954 
L 283.451345 292.649248 
L 283.992436 291.243989 
L 284.100655 291.06518 
L 284.208873 291.179613 
L 284.533527 293.326009 
L 284.641745 293.981059 
L 284.749964 293.318076 
L 284.9664 274.595308 
L 285.182836 262.319695 
L 285.291055 261.97092 
L 285.507491 262.932639 
L 285.832145 265.594123 
L 286.1568 270.106793 
L 286.589673 279.447899 
L 286.697891 278.741315 
L 286.806109 280.256692 
L 287.130764 292.674113 
L 287.238982 292.646283 
L 287.888291 290.46477 
L 287.996509 290.746257 
L 288.429382 293.797473 
L 288.5376 289.405855 
L 288.862255 259.649695 
L 289.078691 258.061174 
L 289.295127 259.337668 
L 289.619782 263.362371 
L 289.944436 269.943138 
L 290.377309 279.433491 
L 290.485527 279.25755 
L 290.9184 292.466687 
L 291.675927 290.642518 
L 291.784145 290.977142 
L 292.217018 293.967965 
L 292.325236 292.825149 
L 292.866327 258.585015 
L 292.974545 258.864194 
L 293.190982 260.351891 
L 293.515636 264.451036 
L 293.840291 271.151097 
L 294.164945 279.658534 
L 294.273164 278.981205 
L 294.381382 280.885726 
L 294.597818 291.344117 
L 294.814255 292.626418 
L 295.463564 291.009955 
L 295.571782 291.019223 
L 295.788218 292.259752 
L 296.004655 293.807893 
L 296.112873 293.719547 
L 296.221091 288.482968 
L 296.545745 262.595499 
L 296.653964 261.878488 
L 296.8704 262.746341 
L 297.195055 265.401344 
L 297.519709 269.93171 
L 297.952582 279.698562 
L 298.0608 279.305598 
L 298.169018 279.968268 
L 298.493673 292.555754 
L 298.601891 292.697167 
L 299.2512 290.471437 
L 299.359418 290.604429 
L 299.792291 293.930431 
L 299.900509 291.528991 
L 300.333382 259.166491 
L 300.4416 258.834435 
L 300.658036 259.941982 
L 300.982691 263.695906 
L 301.307345 269.786582 
L 301.740218 280.23137 
L 301.848436 279.556605 
L 301.956655 282.41776 
L 302.173091 291.713074 
L 302.281309 292.568162 
L 302.389527 292.423054 
L 302.930618 290.848469 
L 303.038836 290.638802 
L 303.147055 290.749799 
L 303.363491 292.20319 
L 303.688145 294.140059 
L 303.796364 292.996286 
L 304.337455 258.944465 
L 304.445673 259.218466 
L 304.662109 260.754343 
L 304.986764 264.9203 
L 305.311418 271.711642 
L 305.636073 280.212175 
L 305.744291 279.599699 
L 305.852509 281.191714 
L 306.177164 292.676271 
L 306.285382 292.752366 
L 307.042909 291.001474 
L 307.259345 292.207591 
L 307.584 294.165211 
L 307.692218 291.870244 
L 308.125091 262.663628 
L 308.233309 262.599996 
L 308.449745 263.736115 
L 308.7744 266.754615 
L 309.099055 271.876662 
L 309.531927 280.949082 
L 309.640145 280.413744 
L 309.856582 288.911474 
L 310.073018 292.949825 
L 310.289455 292.363237 
L 310.830545 290.754302 
L 310.938764 291.063707 
L 311.263418 293.697373 
L 311.371636 291.157195 
L 311.804509 261.373025 
L 311.912727 261.135745 
L 312.129164 262.25036 
L 312.453818 265.767891 
L 312.778473 271.421389 
L 313.211345 280.757554 
L 313.319564 280.224638 
L 313.752436 292.69373 
L 313.860655 292.590204 
L 314.509964 290.889564 
L 314.618182 291.057761 
L 315.051055 293.951715 
L 315.159273 293.101346 
L 315.375709 274.030658 
L 315.592145 260.82251 
L 315.700364 260.004746 
L 315.808582 260.224851 
L 316.025018 261.71283 
L 316.349673 265.80048 
L 316.674327 272.414051 
L 316.998982 280.792892 
L 317.1072 280.21464 
L 317.215418 281.522063 
L 317.540073 292.611836 
L 317.648291 292.71192 
L 318.405818 290.87049 
L 318.622255 292.050093 
L 318.946909 294.067688 
L 319.055127 293.851795 
L 319.163345 288.771738 
L 319.488 263.09906 
L 319.596218 262.025742 
L 319.704436 262.216788 
L 319.920873 263.577331 
L 320.245527 267.032066 
L 320.570182 272.772812 
L 320.894836 280.898004 
L 321.003055 280.714054 
L 321.111273 281.204511 
L 321.435927 292.842479 
L 321.544145 293.17909 
L 321.8688 292.293325 
L 322.193455 291.318016 
L 322.301673 291.29041 
L 322.518109 292.472207 
L 322.734545 293.983242 
L 322.842764 293.022199 
L 323.383855 263.808744 
L 323.600291 264.693805 
L 323.924945 267.462554 
L 324.2496 272.079452 
L 324.682473 280.972085 
L 324.790691 280.250827 
L 324.898909 281.935383 
L 325.223564 292.65573 
L 325.331782 292.751831 
L 325.981091 290.766865 
L 326.089309 290.902221 
L 326.522182 293.886488 
L 326.6304 293.66055 
L 326.738618 288.111131 
L 327.063273 262.233166 
L 327.171491 260.971241 
L 327.279709 260.997341 
L 327.496145 262.29779 
L 327.8208 266.246348 
L 328.145455 272.571018 
L 328.470109 281.450589 
L 328.578327 281.28675 
L 328.686545 281.829359 
L 329.0112 292.514924 
L 329.119418 292.759273 
L 329.876945 290.876549 
L 329.985164 291.111327 
L 330.418036 293.958003 
L 330.526255 293.860266 
L 330.634473 289.23326 
L 330.959127 265.103834 
L 331.067345 264.010475 
L 331.175564 264.158249 
L 331.500218 266.299672 
L 331.824873 270.080763 
L 332.149527 276.630041 
L 332.365964 281.850389 
L 332.474182 281.768149 
L 332.5824 282.182227 
L 332.907055 292.869742 
L 333.015273 293.197363 
L 333.339927 292.275568 
L 333.7728 291.158713 
L 333.881018 291.464266 
L 334.205673 293.744281 
L 334.313891 291.220017 
L 334.746764 264.726626 
L 334.854982 264.510914 
L 335.071418 265.573005 
L 335.396073 268.728645 
L 335.720727 273.969451 
L 336.1536 282.330361 
L 336.261818 281.904594 
L 336.694691 292.927893 
L 336.802909 292.854208 
L 337.452218 291.132532 
L 337.560436 291.320096 
L 337.885091 293.552442 
L 337.993309 293.372709 
L 338.209745 277.890846 
L 338.426182 263.987831 
L 338.5344 262.683944 
L 338.642618 262.703713 
L 338.859055 264.01502 
L 339.183709 267.90428 
L 339.508364 274.272233 
L 339.833018 282.684262 
L 339.941236 282.365994 
L 340.049455 282.825745 
L 340.374109 292.676489 
L 340.482327 293.01282 
L 340.806982 292.216586 
L 341.239855 291.355995 
L 341.348073 291.652057 
L 341.780945 293.866403 
L 341.889164 289.812299 
L 342.213818 265.898957 
L 342.322036 264.573442 
L 342.430255 264.612784 
L 342.646691 265.857062 
L 342.971345 269.252328 
L 343.296 274.783512 
L 343.728873 282.862458 
L 343.837091 282.978127 
L 344.269964 293.313248 
L 344.4864 292.830278 
L 345.027491 291.497361 
L 345.135709 291.795206 
L 345.352145 293.267763 
L 345.460364 290.180581 
L 345.785018 266.299487 
L 346.001455 264.596609 
L 346.217891 265.698331 
L 346.542545 268.976926 
L 346.8672 274.39842 
L 347.300073 282.181325 
L 347.408291 281.985979 
L 347.841164 292.813959 
L 348.0576 292.372159 
L 348.598691 291.170249 
L 348.706909 291.473176 
L 348.923345 293.090992 
L 349.031564 293.049567 
L 349.248 276.20588 
L 349.464436 262.368326 
L 349.680873 261.05225 
L 349.897309 262.238728 
L 350.221964 266.372206 
L 350.546618 273.043122 
L 350.871273 281.949639 
L 350.979491 281.55737 
L 351.087709 282.160003 
L 351.412364 292.135293 
L 351.520582 292.358684 
L 352.278109 290.941547 
L 352.386327 291.195291 
L 352.710982 293.520587 
L 352.8192 292.573547 
L 353.360291 262.966178 
L 353.468509 263.213008 
L 353.684945 264.559774 
L 354.0096 268.227337 
L 354.334255 274.518696 
L 354.658909 281.97088 
L 354.767127 281.307031 
L 354.875345 282.963564 
L 355.2 292.934106 
L 355.308218 292.947801 
L 355.957527 291.125091 
L 356.065745 291.19841 
L 356.282182 292.61388 
L 356.3904 293.396305 
L 356.498618 290.731532 
L 356.823273 265.382624 
L 357.039709 263.384786 
L 357.256145 264.335806 
L 357.5808 267.62255 
L 357.905455 272.997104 
L 358.338327 281.093094 
L 358.446545 280.60441 
L 358.879418 292.414269 
L 358.987636 292.310177 
L 359.636945 290.857545 
L 359.745164 291.145502 
L 360.178036 293.880683 
L 360.286255 290.806179 
L 360.719127 260.031744 
L 360.827345 259.627328 
L 360.935564 259.931019 
L 361.152 261.603983 
L 361.476655 266.260776 
L 361.801309 273.889922 
L 362.125964 281.162816 
L 362.234182 280.536025 
L 362.667055 292.241547 
L 362.775273 292.149758 
L 363.316364 291.003906 
L 363.424582 290.889648 
L 363.5328 291.084928 
L 363.965673 293.911628 
L 364.073891 293.730424 
L 364.182109 288.61159 
L 364.506764 263.016346 
L 364.614982 262.019189 
L 364.7232 262.204951 
L 365.047855 264.458501 
L 365.372509 268.508314 
L 365.697164 275.579369 
L 365.9136 280.940594 
L 366.021818 280.64009 
L 366.130036 281.121005 
L 366.454691 292.662716 
L 366.562909 292.908961 
L 366.995782 291.584605 
L 367.212218 290.965278 
L 367.320436 290.951217 
L 367.536873 292.352071 
L 367.645091 293.398908 
L 367.753309 292.79625 
L 368.2944 261.287881 
L 368.510836 262.140756 
L 368.835491 265.192327 
L 369.160145 270.292369 
L 369.593018 280.101007 
L 369.701236 279.315913 
L 369.809455 280.935638 
L 370.134109 292.486207 
L 370.242327 292.546362 
L 370.891636 290.771117 
L 370.999855 290.90962 
L 371.324509 293.167638 
L 371.432727 293.813948 
L 371.540945 293.404985 
L 371.649164 287.083426 
L 371.973818 258.491887 
L 372.082036 257.364701 
L 372.190255 257.493411 
L 372.406691 258.93415 
L 372.731345 263.109309 
L 373.056 270.068515 
L 373.380655 279.348029 
L 373.488873 278.85067 
L 373.597091 279.521649 
L 373.921745 292.096896 
L 374.029964 292.325784 
L 374.679273 290.497699 
L 374.787491 290.542124 
L 375.003927 291.935618 
L 375.328582 293.945277 
L 375.4368 293.546043 
L 375.545018 287.272139 
L 375.869673 259.591607 
L 375.977891 258.806343 
L 376.086109 259.090553 
L 376.410764 261.537323 
L 376.735418 265.81918 
L 377.060073 273.269572 
L 377.276509 278.86651 
L 377.384727 278.398584 
L 377.492945 279.375729 
L 377.8176 292.664537 
L 377.925818 292.865579 
L 378.683345 291.174434 
L 378.899782 292.585293 
L 379.008 293.585204 
L 379.116218 293.061003 
L 379.332655 273.877014 
L 379.549091 262.288898 
L 379.657309 262.008713 
L 379.873745 262.966554 
L 380.1984 265.492226 
L 380.523055 269.798025 
L 380.955927 278.397938 
L 381.064145 277.543293 
L 381.172364 279.451103 
L 381.497018 292.461729 
L 381.605236 292.467778 
L 382.254545 290.398079 
L 382.362764 290.627591 
L 382.795636 293.916048 
L 382.903855 290.714579 
L 383.336727 257.103557 
L 383.444945 256.955539 
L 383.661382 258.187737 
L 383.986036 262.099537 
L 384.310691 268.533116 
L 384.743564 278.864529 
L 384.851782 278.267693 
L 385.284655 292.481528 
L 385.501091 291.930036 
L 386.042182 290.592712 
L 386.1504 290.762582 
L 386.583273 293.754507 
L 386.691491 292.099974 
L 387.124364 259.433045 
L 387.232582 259.105747 
L 387.449018 260.112215 
L 387.773673 263.339509 
L 388.098327 268.885195 
L 388.5312 279.303482 
L 388.639418 278.515713 
L 388.747636 281.05313 
L 388.964073 291.507569 
L 389.072291 292.591121 
L 389.180509 292.500563 
L 389.829818 290.795489 
L 389.938036 290.985398 
L 390.262691 293.660246 
L 390.370909 291.645319 
L 390.803782 263.372716 
L 390.912 263.41924 
L 391.236655 265.269608 
L 391.561309 268.415141 
L 391.885964 273.790226 
L 392.210618 279.074873 
L 392.318836 278.515151 
L 392.751709 292.624288 
L 392.968145 292.078756 
L 393.509236 290.471014 
L 393.725673 291.882455 
L 393.942109 293.797858 
L 394.050327 292.044952 
L 394.4832 258.138553 
L 394.591418 257.67503 
L 394.807855 258.735187 
L 395.132509 262.525744 
L 395.457164 268.829961 
L 395.890036 280.012765 
L 395.998255 279.237044 
L 396.106473 281.577142 
L 396.322909 291.478728 
L 396.431127 292.534116 
L 396.539345 292.458382 
L 397.188655 290.703473 
L 397.296873 290.799701 
L 397.513309 292.216241 
L 397.837964 294.279079 
L 398.162618 295.012871 
L 398.379055 295.195738 
L 398.487273 291.294793 
L 398.487273 291.294793 
" style="fill:none;stroke:#ff7f0e;stroke-linecap:square;stroke-width:1.5;"/>
   </g>
   <g id="patch_3">
    <path d="M 57.6 307.584 
L 57.6 41.472 
" style="fill:none;stroke:#000000;stroke-linecap:square;stroke-linejoin:miter;stroke-width:0.8;"/>
   </g>
   <g id="patch_4">
    <path d="M 414.72 307.584 
L 414.72 41.472 
" style="fill:none;stroke:#000000;stroke-linecap:square;stroke-linejoin:miter;stroke-width:0.8;"/>
   </g>
   <g id="patch_5">
    <path d="M 57.6 307.584 
L 414.72 307.584 
" style="fill:none;stroke:#000000;stroke-linecap:square;stroke-linejoin:miter;stroke-width:0.8;"/>
   </g>
   <g id="patch_6">
    <path d="M 57.6 41.472 
L 414.72 41.472 
" style="fill:none;stroke:#000000;stroke-linecap:square;stroke-linejoin:miter;stroke-width:0.8;"/>
   </g>
  </g>
 </g>
 <defs>
  <clipPath id="p48bfb649b3">
   <rect height="266.112" width="357.12" x="57.6" y="41.472"/>
  </clipPath>
 </defs>
</svg>
