<?xml version="1.0" encoding="utf-8" standalone="no"?>
<!DOCTYPE svg PUBLIC "-//W3C//DTD SVG 1.1//EN"
  "http://www.w3.org/Graphics/SVG/1.1/DTD/svg11.dtd">
<svg height="360pt" version="1.1" viewBox="0 0 360 360" width="360pt" xmlns="http://www.w3.org/2000/svg" xmlns:xlink="http://www.w3.org/1999/xlink">
 <metadata>
  <rdf:RDF xmlns:cc="http://creativecommons.org/ns#" xmlns:dc="http://purl.org/dc/elements/1.1/" xmlns:rdf="http://www.w3.org/1999/02/22-rdf-syntax-ns#">
   <cc:Work>
    <dc:type rdf:resource="http://purl.org/dc/dcmitype/StillImage"/>
    <dc:date>2022-11-02T12:53:47.251663</dc:date>
    <dc:format>image/svg+xml</dc:format>
    <dc:creator>
     <cc:Agent>
      <dc:title>Matplotlib v3.4.2, https://matplotlib.org/</dc:title>
     </cc:Agent>
    </dc:creator>
   </cc:Work>
  </rdf:RDF>
 </metadata>
 <defs>
  <style type="text/css">*{stroke-linecap:butt;stroke-linejoin:round;}</style>
 </defs>
 <g id="figure_1">
  <g id="patch_1">
   <path d="M 0 360 
L 360 360 
L 360 0 
L 0 0 
z
" style="fill:#ffffff;"/>
  </g>
  <g id="axes_1">
   <g id="patch_2">
    <path d="M 45 320.4 
L 324 320.4 
L 324 43.2 
L 45 43.2 
z
" style="fill:#ffffff;"/>
   </g>
   <g id="matplotlib.axis_1">
    <g id="xtick_1">
     <g id="line2d_1">
      <path clip-path="url(#pf30971629a)" d="M 45 320.4 
L 45 43.2 
" style="fill:none;stroke:#cccccc;stroke-linecap:round;"/>
     </g>
     <g id="text_1">
      <!-- 0.0 -->
      <g style="fill:#262626;" transform="translate(37.355 337.773594)scale(0.11 -0.11)">
       <defs>
        <path d="M 266 2259 
Q 266 3072 433 3567 
Q 600 4063 929 4331 
Q 1259 4600 1759 4600 
Q 2128 4600 2406 4451 
Q 2684 4303 2865 4023 
Q 3047 3744 3150 3342 
Q 3253 2941 3253 2259 
Q 3253 1453 3087 958 
Q 2922 463 2592 192 
Q 2263 -78 1759 -78 
Q 1097 -78 719 397 
Q 266 969 266 2259 
z
M 844 2259 
Q 844 1131 1108 757 
Q 1372 384 1759 384 
Q 2147 384 2411 759 
Q 2675 1134 2675 2259 
Q 2675 3391 2411 3762 
Q 2147 4134 1753 4134 
Q 1366 4134 1134 3806 
Q 844 3388 844 2259 
z
" id="ArialMT-30" transform="scale(0.015625)"/>
        <path d="M 581 0 
L 581 641 
L 1222 641 
L 1222 0 
L 581 0 
z
" id="ArialMT-2e" transform="scale(0.015625)"/>
       </defs>
       <use xlink:href="#ArialMT-30"/>
       <use x="55.615234" xlink:href="#ArialMT-2e"/>
       <use x="83.398438" xlink:href="#ArialMT-30"/>
      </g>
     </g>
    </g>
    <g id="xtick_2">
     <g id="line2d_2">
      <path clip-path="url(#pf30971629a)" d="M 100.8 320.4 
L 100.8 43.2 
" style="fill:none;stroke:#cccccc;stroke-linecap:round;"/>
     </g>
     <g id="text_2">
      <!-- 0.2 -->
      <g style="fill:#262626;" transform="translate(93.155 337.773594)scale(0.11 -0.11)">
       <defs>
        <path d="M 3222 541 
L 3222 0 
L 194 0 
Q 188 203 259 391 
Q 375 700 629 1000 
Q 884 1300 1366 1694 
Q 2113 2306 2375 2664 
Q 2638 3022 2638 3341 
Q 2638 3675 2398 3904 
Q 2159 4134 1775 4134 
Q 1369 4134 1125 3890 
Q 881 3647 878 3216 
L 300 3275 
Q 359 3922 746 4261 
Q 1134 4600 1788 4600 
Q 2447 4600 2831 4234 
Q 3216 3869 3216 3328 
Q 3216 3053 3103 2787 
Q 2991 2522 2730 2228 
Q 2469 1934 1863 1422 
Q 1356 997 1212 845 
Q 1069 694 975 541 
L 3222 541 
z
" id="ArialMT-32" transform="scale(0.015625)"/>
       </defs>
       <use xlink:href="#ArialMT-30"/>
       <use x="55.615234" xlink:href="#ArialMT-2e"/>
       <use x="83.398438" xlink:href="#ArialMT-32"/>
      </g>
     </g>
    </g>
    <g id="xtick_3">
     <g id="line2d_3">
      <path clip-path="url(#pf30971629a)" d="M 156.6 320.4 
L 156.6 43.2 
" style="fill:none;stroke:#cccccc;stroke-linecap:round;"/>
     </g>
     <g id="text_3">
      <!-- 0.4 -->
      <g style="fill:#262626;" transform="translate(148.955 337.773594)scale(0.11 -0.11)">
       <defs>
        <path d="M 2069 0 
L 2069 1097 
L 81 1097 
L 81 1613 
L 2172 4581 
L 2631 4581 
L 2631 1613 
L 3250 1613 
L 3250 1097 
L 2631 1097 
L 2631 0 
L 2069 0 
z
M 2069 1613 
L 2069 3678 
L 634 1613 
L 2069 1613 
z
" id="ArialMT-34" transform="scale(0.015625)"/>
       </defs>
       <use xlink:href="#ArialMT-30"/>
       <use x="55.615234" xlink:href="#ArialMT-2e"/>
       <use x="83.398438" xlink:href="#ArialMT-34"/>
      </g>
     </g>
    </g>
    <g id="xtick_4">
     <g id="line2d_4">
      <path clip-path="url(#pf30971629a)" d="M 212.4 320.4 
L 212.4 43.2 
" style="fill:none;stroke:#cccccc;stroke-linecap:round;"/>
     </g>
     <g id="text_4">
      <!-- 0.6 -->
      <g style="fill:#262626;" transform="translate(204.755 337.773594)scale(0.11 -0.11)">
       <defs>
        <path d="M 3184 3459 
L 2625 3416 
Q 2550 3747 2413 3897 
Q 2184 4138 1850 4138 
Q 1581 4138 1378 3988 
Q 1113 3794 959 3422 
Q 806 3050 800 2363 
Q 1003 2672 1297 2822 
Q 1591 2972 1913 2972 
Q 2475 2972 2870 2558 
Q 3266 2144 3266 1488 
Q 3266 1056 3080 686 
Q 2894 316 2569 119 
Q 2244 -78 1831 -78 
Q 1128 -78 684 439 
Q 241 956 241 2144 
Q 241 3472 731 4075 
Q 1159 4600 1884 4600 
Q 2425 4600 2770 4297 
Q 3116 3994 3184 3459 
z
M 888 1484 
Q 888 1194 1011 928 
Q 1134 663 1356 523 
Q 1578 384 1822 384 
Q 2178 384 2434 671 
Q 2691 959 2691 1453 
Q 2691 1928 2437 2201 
Q 2184 2475 1800 2475 
Q 1419 2475 1153 2201 
Q 888 1928 888 1484 
z
" id="ArialMT-36" transform="scale(0.015625)"/>
       </defs>
       <use xlink:href="#ArialMT-30"/>
       <use x="55.615234" xlink:href="#ArialMT-2e"/>
       <use x="83.398438" xlink:href="#ArialMT-36"/>
      </g>
     </g>
    </g>
    <g id="xtick_5">
     <g id="line2d_5">
      <path clip-path="url(#pf30971629a)" d="M 268.2 320.4 
L 268.2 43.2 
" style="fill:none;stroke:#cccccc;stroke-linecap:round;"/>
     </g>
     <g id="text_5">
      <!-- 0.8 -->
      <g style="fill:#262626;" transform="translate(260.555 337.773594)scale(0.11 -0.11)">
       <defs>
        <path d="M 1131 2484 
Q 781 2613 612 2850 
Q 444 3088 444 3419 
Q 444 3919 803 4259 
Q 1163 4600 1759 4600 
Q 2359 4600 2725 4251 
Q 3091 3903 3091 3403 
Q 3091 3084 2923 2848 
Q 2756 2613 2416 2484 
Q 2838 2347 3058 2040 
Q 3278 1734 3278 1309 
Q 3278 722 2862 322 
Q 2447 -78 1769 -78 
Q 1091 -78 675 323 
Q 259 725 259 1325 
Q 259 1772 486 2073 
Q 713 2375 1131 2484 
z
M 1019 3438 
Q 1019 3113 1228 2906 
Q 1438 2700 1772 2700 
Q 2097 2700 2305 2904 
Q 2513 3109 2513 3406 
Q 2513 3716 2298 3927 
Q 2084 4138 1766 4138 
Q 1444 4138 1231 3931 
Q 1019 3725 1019 3438 
z
M 838 1322 
Q 838 1081 952 856 
Q 1066 631 1291 507 
Q 1516 384 1775 384 
Q 2178 384 2440 643 
Q 2703 903 2703 1303 
Q 2703 1709 2433 1975 
Q 2163 2241 1756 2241 
Q 1359 2241 1098 1978 
Q 838 1716 838 1322 
z
" id="ArialMT-38" transform="scale(0.015625)"/>
       </defs>
       <use xlink:href="#ArialMT-30"/>
       <use x="55.615234" xlink:href="#ArialMT-2e"/>
       <use x="83.398438" xlink:href="#ArialMT-38"/>
      </g>
     </g>
    </g>
    <g id="xtick_6">
     <g id="line2d_6">
      <path clip-path="url(#pf30971629a)" d="M 324 320.4 
L 324 43.2 
" style="fill:none;stroke:#cccccc;stroke-linecap:round;"/>
     </g>
     <g id="text_6">
      <!-- 1.0 -->
      <g style="fill:#262626;" transform="translate(316.355 337.773594)scale(0.11 -0.11)">
       <defs>
        <path d="M 2384 0 
L 1822 0 
L 1822 3584 
Q 1619 3391 1289 3197 
Q 959 3003 697 2906 
L 697 3450 
Q 1169 3672 1522 3987 
Q 1875 4303 2022 4600 
L 2384 4600 
L 2384 0 
z
" id="ArialMT-31" transform="scale(0.015625)"/>
       </defs>
       <use xlink:href="#ArialMT-31"/>
       <use x="55.615234" xlink:href="#ArialMT-2e"/>
       <use x="83.398438" xlink:href="#ArialMT-30"/>
      </g>
     </g>
    </g>
    <g id="text_7">
     <!-- NB+BOW -->
     <g style="fill:#1a1a1a;" transform="translate(158.327812 352.549219)scale(0.12 -0.12)">
      <defs>
       <path d="M 488 0 
L 488 4581 
L 1109 4581 
L 3516 984 
L 3516 4581 
L 4097 4581 
L 4097 0 
L 3475 0 
L 1069 3600 
L 1069 0 
L 488 0 
z
" id="ArialMT-4e" transform="scale(0.015625)"/>
       <path d="M 469 0 
L 469 4581 
L 2188 4581 
Q 2713 4581 3030 4442 
Q 3347 4303 3526 4014 
Q 3706 3725 3706 3409 
Q 3706 3116 3547 2856 
Q 3388 2597 3066 2438 
Q 3481 2316 3704 2022 
Q 3928 1728 3928 1328 
Q 3928 1006 3792 729 
Q 3656 453 3456 303 
Q 3256 153 2954 76 
Q 2653 0 2216 0 
L 469 0 
z
M 1075 2656 
L 2066 2656 
Q 2469 2656 2644 2709 
Q 2875 2778 2992 2937 
Q 3109 3097 3109 3338 
Q 3109 3566 3000 3739 
Q 2891 3913 2687 3977 
Q 2484 4041 1991 4041 
L 1075 4041 
L 1075 2656 
z
M 1075 541 
L 2216 541 
Q 2509 541 2628 563 
Q 2838 600 2978 687 
Q 3119 775 3209 942 
Q 3300 1109 3300 1328 
Q 3300 1584 3169 1773 
Q 3038 1963 2805 2039 
Q 2572 2116 2134 2116 
L 1075 2116 
L 1075 541 
z
" id="ArialMT-42" transform="scale(0.015625)"/>
       <path d="M 1603 741 
L 1603 1997 
L 356 1997 
L 356 2522 
L 1603 2522 
L 1603 3769 
L 2134 3769 
L 2134 2522 
L 3381 2522 
L 3381 1997 
L 2134 1997 
L 2134 741 
L 1603 741 
z
" id="ArialMT-2b" transform="scale(0.015625)"/>
       <path d="M 309 2231 
Q 309 3372 921 4017 
Q 1534 4663 2503 4663 
Q 3138 4663 3647 4359 
Q 4156 4056 4423 3514 
Q 4691 2972 4691 2284 
Q 4691 1588 4409 1038 
Q 4128 488 3612 205 
Q 3097 -78 2500 -78 
Q 1853 -78 1343 234 
Q 834 547 571 1087 
Q 309 1628 309 2231 
z
M 934 2222 
Q 934 1394 1379 917 
Q 1825 441 2497 441 
Q 3181 441 3623 922 
Q 4066 1403 4066 2288 
Q 4066 2847 3877 3264 
Q 3688 3681 3323 3911 
Q 2959 4141 2506 4141 
Q 1863 4141 1398 3698 
Q 934 3256 934 2222 
z
" id="ArialMT-4f" transform="scale(0.015625)"/>
       <path d="M 1294 0 
L 78 4581 
L 700 4581 
L 1397 1578 
Q 1509 1106 1591 641 
Q 1766 1375 1797 1488 
L 2669 4581 
L 3400 4581 
L 4056 2263 
Q 4303 1400 4413 641 
Q 4500 1075 4641 1638 
L 5359 4581 
L 5969 4581 
L 4713 0 
L 4128 0 
L 3163 3491 
Q 3041 3928 3019 4028 
Q 2947 3713 2884 3491 
L 1913 0 
L 1294 0 
z
" id="ArialMT-57" transform="scale(0.015625)"/>
      </defs>
      <use xlink:href="#ArialMT-4e"/>
      <use x="72.216797" xlink:href="#ArialMT-42"/>
      <use x="138.916016" xlink:href="#ArialMT-2b"/>
      <use x="197.314453" xlink:href="#ArialMT-42"/>
      <use x="264.013672" xlink:href="#ArialMT-4f"/>
      <use x="341.796875" xlink:href="#ArialMT-57"/>
     </g>
    </g>
   </g>
   <g id="matplotlib.axis_2">
    <g id="ytick_1">
     <g id="line2d_7">
      <path clip-path="url(#pf30971629a)" d="M 45 320.4 
L 324 320.4 
" style="fill:none;stroke:#cccccc;stroke-linecap:round;"/>
     </g>
     <g id="text_8">
      <!-- 0.0 -->
      <g style="fill:#262626;" transform="translate(20.21 324.336797)scale(0.11 -0.11)">
       <use xlink:href="#ArialMT-30"/>
       <use x="55.615234" xlink:href="#ArialMT-2e"/>
       <use x="83.398438" xlink:href="#ArialMT-30"/>
      </g>
     </g>
    </g>
    <g id="ytick_2">
     <g id="line2d_8">
      <path clip-path="url(#pf30971629a)" d="M 45 264.96 
L 324 264.96 
" style="fill:none;stroke:#cccccc;stroke-linecap:round;"/>
     </g>
     <g id="text_9">
      <!-- 0.2 -->
      <g style="fill:#262626;" transform="translate(20.21 268.896797)scale(0.11 -0.11)">
       <use xlink:href="#ArialMT-30"/>
       <use x="55.615234" xlink:href="#ArialMT-2e"/>
       <use x="83.398438" xlink:href="#ArialMT-32"/>
      </g>
     </g>
    </g>
    <g id="ytick_3">
     <g id="line2d_9">
      <path clip-path="url(#pf30971629a)" d="M 45 209.52 
L 324 209.52 
" style="fill:none;stroke:#cccccc;stroke-linecap:round;"/>
     </g>
     <g id="text_10">
      <!-- 0.4 -->
      <g style="fill:#262626;" transform="translate(20.21 213.456797)scale(0.11 -0.11)">
       <use xlink:href="#ArialMT-30"/>
       <use x="55.615234" xlink:href="#ArialMT-2e"/>
       <use x="83.398438" xlink:href="#ArialMT-34"/>
      </g>
     </g>
    </g>
    <g id="ytick_4">
     <g id="line2d_10">
      <path clip-path="url(#pf30971629a)" d="M 45 154.08 
L 324 154.08 
" style="fill:none;stroke:#cccccc;stroke-linecap:round;"/>
     </g>
     <g id="text_11">
      <!-- 0.6 -->
      <g style="fill:#262626;" transform="translate(20.21 158.016797)scale(0.11 -0.11)">
       <use xlink:href="#ArialMT-30"/>
       <use x="55.615234" xlink:href="#ArialMT-2e"/>
       <use x="83.398438" xlink:href="#ArialMT-36"/>
      </g>
     </g>
    </g>
    <g id="ytick_5">
     <g id="line2d_11">
      <path clip-path="url(#pf30971629a)" d="M 45 98.64 
L 324 98.64 
" style="fill:none;stroke:#cccccc;stroke-linecap:round;"/>
     </g>
     <g id="text_12">
      <!-- 0.8 -->
      <g style="fill:#262626;" transform="translate(20.21 102.576797)scale(0.11 -0.11)">
       <use xlink:href="#ArialMT-30"/>
       <use x="55.615234" xlink:href="#ArialMT-2e"/>
       <use x="83.398438" xlink:href="#ArialMT-38"/>
      </g>
     </g>
    </g>
    <g id="ytick_6">
     <g id="line2d_12">
      <path clip-path="url(#pf30971629a)" d="M 45 43.2 
L 324 43.2 
" style="fill:none;stroke:#cccccc;stroke-linecap:round;"/>
     </g>
     <g id="text_13">
      <!-- 1.0 -->
      <g style="fill:#262626;" transform="translate(20.21 47.136797)scale(0.11 -0.11)">
       <use xlink:href="#ArialMT-31"/>
       <use x="55.615234" xlink:href="#ArialMT-2e"/>
       <use x="83.398438" xlink:href="#ArialMT-30"/>
      </g>
     </g>
    </g>
    <g id="text_14">
     <!-- SVM+BOW -->
     <g style="fill:#1a1a1a;" transform="translate(13.825 212.639062)rotate(-90)scale(0.12 -0.12)">
      <defs>
       <path d="M 288 1472 
L 859 1522 
Q 900 1178 1048 958 
Q 1197 738 1509 602 
Q 1822 466 2213 466 
Q 2559 466 2825 569 
Q 3091 672 3220 851 
Q 3350 1031 3350 1244 
Q 3350 1459 3225 1620 
Q 3100 1781 2813 1891 
Q 2628 1963 1997 2114 
Q 1366 2266 1113 2400 
Q 784 2572 623 2826 
Q 463 3081 463 3397 
Q 463 3744 659 4045 
Q 856 4347 1234 4503 
Q 1613 4659 2075 4659 
Q 2584 4659 2973 4495 
Q 3363 4331 3572 4012 
Q 3781 3694 3797 3291 
L 3216 3247 
Q 3169 3681 2898 3903 
Q 2628 4125 2100 4125 
Q 1550 4125 1298 3923 
Q 1047 3722 1047 3438 
Q 1047 3191 1225 3031 
Q 1400 2872 2139 2705 
Q 2878 2538 3153 2413 
Q 3553 2228 3743 1945 
Q 3934 1663 3934 1294 
Q 3934 928 3725 604 
Q 3516 281 3123 101 
Q 2731 -78 2241 -78 
Q 1619 -78 1198 103 
Q 778 284 539 648 
Q 300 1013 288 1472 
z
" id="ArialMT-53" transform="scale(0.015625)"/>
       <path d="M 1803 0 
L 28 4581 
L 684 4581 
L 1875 1253 
Q 2019 853 2116 503 
Q 2222 878 2363 1253 
L 3600 4581 
L 4219 4581 
L 2425 0 
L 1803 0 
z
" id="ArialMT-56" transform="scale(0.015625)"/>
       <path d="M 475 0 
L 475 4581 
L 1388 4581 
L 2472 1338 
Q 2622 884 2691 659 
Q 2769 909 2934 1394 
L 4031 4581 
L 4847 4581 
L 4847 0 
L 4263 0 
L 4263 3834 
L 2931 0 
L 2384 0 
L 1059 3900 
L 1059 0 
L 475 0 
z
" id="ArialMT-4d" transform="scale(0.015625)"/>
      </defs>
      <use xlink:href="#ArialMT-53"/>
      <use x="66.699219" xlink:href="#ArialMT-56"/>
      <use x="133.398438" xlink:href="#ArialMT-4d"/>
      <use x="216.699219" xlink:href="#ArialMT-2b"/>
      <use x="275.097656" xlink:href="#ArialMT-42"/>
      <use x="341.796875" xlink:href="#ArialMT-4f"/>
      <use x="419.580078" xlink:href="#ArialMT-57"/>
     </g>
    </g>
   </g>
   <g id="PathCollection_1">
    <defs>
     <path d="M 0 1.581139 
C 0.419323 1.581139 0.821528 1.41454 1.118034 1.118034 
C 1.41454 0.821528 1.581139 0.419323 1.581139 -0 
C 1.581139 -0.419323 1.41454 -0.821528 1.118034 -1.118034 
C 0.821528 -1.41454 0.419323 -1.581139 0 -1.581139 
C -0.419323 -1.581139 -0.821528 -1.41454 -1.118034 -1.118034 
C -1.41454 -0.821528 -1.581139 -0.419323 -1.581139 0 
C -1.581139 0.419323 -1.41454 0.821528 -1.118034 1.118034 
C -0.821528 1.41454 -0.419323 1.581139 0 1.581139 
z
" id="C0_0_f04c49ad22"/>
    </defs>
    <g clip-path="url(#pf30971629a)">
     <use style="fill:#c35047;stroke:#c35047;stroke-width:2;" x="170.948571" xlink:href="#C0_0_f04c49ad22" y="139.824"/>
    </g>
    <g clip-path="url(#pf30971629a)">
     <use style="fill:#7260a7;stroke:#7260a7;stroke-width:2;" x="147.3" xlink:href="#C0_0_f04c49ad22" y="218.76"/>
    </g>
    <g clip-path="url(#pf30971629a)">
     <use style="fill:#ff4500;stroke:#ff4500;stroke-width:2;" x="212.4" xlink:href="#C0_0_f04c49ad22" y="57.06"/>
    </g>
    <g clip-path="url(#pf30971629a)">
     <use style="fill:#5e63bf;stroke:#5e63bf;stroke-width:2;" x="254.25" xlink:href="#C0_0_f04c49ad22" y="126.36"/>
    </g>
    <g clip-path="url(#pf30971629a)">
     <use style="fill:#7260a7;stroke:#7260a7;stroke-width:2;" x="324" xlink:href="#C0_0_f04c49ad22" y="43.2"/>
    </g>
    <g clip-path="url(#pf30971629a)">
     <use style="fill:#d74d30;stroke:#d74d30;stroke-width:2;" x="184.5" xlink:href="#C0_0_f04c49ad22" y="112.5"/>
    </g>
    <g clip-path="url(#pf30971629a)">
     <use style="fill:#795e9f;stroke:#795e9f;stroke-width:2;" x="301.06" xlink:href="#C0_0_f04c49ad22" y="61.064"/>
    </g>
    <g clip-path="url(#pf30971629a)">
     <use style="fill:#6d61ad;stroke:#6d61ad;stroke-width:2;" x="263.80758" xlink:href="#C0_0_f04c49ad22" y="106.236735"/>
    </g>
    <g clip-path="url(#pf30971629a)">
     <use style="fill:#aa5565;stroke:#aa5565;stroke-width:2;" x="173.819531" xlink:href="#C0_0_f04c49ad22" y="154.08"/>
    </g>
    <g clip-path="url(#pf30971629a)">
     <use style="fill:#9d5774;stroke:#9d5774;stroke-width:2;" x="264.214286" xlink:href="#C0_0_f04c49ad22" y="72.9"/>
    </g>
    <g clip-path="url(#pf30971629a)">
     <use style="fill:#5465cb;stroke:#5465cb;stroke-width:2;" x="258.156" xlink:href="#C0_0_f04c49ad22" y="129.6864"/>
    </g>
    <g clip-path="url(#pf30971629a)">
     <use style="fill:#895b8c;stroke:#895b8c;stroke-width:2;" x="179.492308" xlink:href="#C0_0_f04c49ad22" y="171.138462"/>
    </g>
    <g clip-path="url(#pf30971629a)">
     <use style="fill:#7a5e9d;stroke:#7a5e9d;stroke-width:2;" x="171.623077" xlink:href="#C0_0_f04c49ad22" y="188.907692"/>
    </g>
    <g clip-path="url(#pf30971629a)">
     <use style="fill:#825d94;stroke:#825d94;stroke-width:2;" x="194.515385" xlink:href="#C0_0_f04c49ad22" y="161.187692"/>
    </g>
    <g clip-path="url(#pf30971629a)">
     <use style="fill:#7f5d98;stroke:#7f5d98;stroke-width:2;" x="182.789464" xlink:href="#C0_0_f04c49ad22" y="174.5235"/>
    </g>
    <g clip-path="url(#pf30971629a)">
     <use style="fill:#795e9f;stroke:#795e9f;stroke-width:2;" x="297.558824" xlink:href="#C0_0_f04c49ad22" y="64.941176"/>
    </g>
    <g clip-path="url(#pf30971629a)">
     <use style="fill:#4169e1;stroke:#4169e1;stroke-width:2;" x="253.748201" xlink:href="#C0_0_f04c49ad22" y="146.900719"/>
    </g>
    <g clip-path="url(#pf30971629a)">
     <use style="fill:#a85667;stroke:#a85667;stroke-width:2;" x="203.706522" xlink:href="#C0_0_f04c49ad22" y="125.556522"/>
    </g>
    <g clip-path="url(#pf30971629a)">
     <use style="fill:#6662b5;stroke:#6662b5;stroke-width:2;" x="227.654676" xlink:href="#C0_0_f04c49ad22" y="146.900719"/>
    </g>
    <g clip-path="url(#pf30971629a)">
     <use style="fill:#7d5e9a;stroke:#7d5e9a;stroke-width:2;" x="237.690647" xlink:href="#C0_0_f04c49ad22" y="120.97554"/>
    </g>
    <g clip-path="url(#pf30971629a)">
     <use style="fill:#7260a7;stroke:#7260a7;stroke-width:2;" x="254.25" xlink:href="#C0_0_f04c49ad22" y="112.5"/>
    </g>
    <g clip-path="url(#pf30971629a)">
     <use style="fill:#865c8f;stroke:#865c8f;stroke-width:2;" x="300.020906" xlink:href="#C0_0_f04c49ad22" y="53.180488"/>
    </g>
    <g clip-path="url(#pf30971629a)">
     <use style="fill:#8b5b8a;stroke:#8b5b8a;stroke-width:2;" x="165.232044" xlink:href="#C0_0_f04c49ad22" y="184.097238"/>
    </g>
    <g clip-path="url(#pf30971629a)">
     <use style="fill:#825d94;stroke:#825d94;stroke-width:2;" x="155.212707" xlink:href="#C0_0_f04c49ad22" y="200.177901"/>
    </g>
    <g clip-path="url(#pf30971629a)">
     <use style="fill:#7d5e9a;stroke:#7d5e9a;stroke-width:2;" x="168.876" xlink:href="#C0_0_f04c49ad22" y="189.5616"/>
    </g>
    <g clip-path="url(#pf30971629a)">
     <use style="fill:#7a5e9e;stroke:#7a5e9e;stroke-width:2;" x="240.134911" xlink:href="#C0_0_f04c49ad22" y="121.275266"/>
    </g>
    <g clip-path="url(#pf30971629a)">
     <use style="fill:#7260a7;stroke:#7260a7;stroke-width:2;" x="280.954286" xlink:href="#C0_0_f04c49ad22" y="85.968"/>
    </g>
    <g clip-path="url(#pf30971629a)">
     <use style="fill:#895b8b;stroke:#895b8b;stroke-width:2;" x="250.868182" xlink:href="#C0_0_f04c49ad22" y="100.11"/>
    </g>
    <g clip-path="url(#pf30971629a)">
     <use style="fill:#95597d;stroke:#95597d;stroke-width:2;" x="207.233333" xlink:href="#C0_0_f04c49ad22" y="134.915556"/>
    </g>
    <g clip-path="url(#pf30971629a)">
     <use style="fill:#8c5b88;stroke:#8c5b88;stroke-width:2;" x="299.526316" xlink:href="#C0_0_f04c49ad22" y="49.619368"/>
    </g>
    <g clip-path="url(#pf30971629a)">
     <use style="fill:#845c92;stroke:#845c92;stroke-width:2;" x="302.561053" xlink:href="#C0_0_f04c49ad22" y="52.342737"/>
    </g>
    <g clip-path="url(#pf30971629a)">
     <use style="fill:#8a5b8b;stroke:#8a5b8b;stroke-width:2;" x="296.629747" xlink:href="#C0_0_f04c49ad22" y="53.726582"/>
    </g>
    <g clip-path="url(#pf30971629a)">
     <use style="fill:#775fa1;stroke:#775fa1;stroke-width:2;" x="308.107595" xlink:href="#C0_0_f04c49ad22" y="55.481013"/>
    </g>
    <g clip-path="url(#pf30971629a)">
     <use style="fill:#7260a7;stroke:#7260a7;stroke-width:2;" x="307.171429" xlink:href="#C0_0_f04c49ad22" y="59.92"/>
    </g>
    <g clip-path="url(#pf30971629a)">
     <use style="fill:#745fa4;stroke:#745fa4;stroke-width:2;" x="312.84" xlink:href="#C0_0_f04c49ad22" y="52.44"/>
    </g>
    <g clip-path="url(#pf30971629a)">
     <use style="fill:#5f63be;stroke:#5f63be;stroke-width:2;" x="228.342857" xlink:href="#C0_0_f04c49ad22" y="151.44"/>
    </g>
    <g clip-path="url(#pf30971629a)">
     <use style="fill:#b85254;stroke:#b85254;stroke-width:2;" x="236.52973" xlink:href="#C0_0_f04c49ad22" y="82.157838"/>
    </g>
    <g clip-path="url(#pf30971629a)">
     <use style="fill:#6b61af;stroke:#6b61af;stroke-width:2;" x="131.961039" xlink:href="#C0_0_f04c49ad22" y="238.5"/>
    </g>
    <g clip-path="url(#pf30971629a)">
     <use style="fill:#855c91;stroke:#855c91;stroke-width:2;" x="206.296875" xlink:href="#C0_0_f04c49ad22" y="147.15"/>
    </g>
    <g clip-path="url(#pf30971629a)">
     <use style="fill:#835c92;stroke:#835c92;stroke-width:2;" x="300.554622" xlink:href="#C0_0_f04c49ad22" y="54.847059"/>
    </g>
    <g clip-path="url(#pf30971629a)">
     <use style="fill:#7d5e9a;stroke:#7d5e9a;stroke-width:2;" x="119.569091" xlink:href="#C0_0_f04c49ad22" y="238.752"/>
    </g>
    <g clip-path="url(#pf30971629a)">
     <use style="fill:#785fa0;stroke:#785fa0;stroke-width:2;" x="311.674699" xlink:href="#C0_0_f04c49ad22" y="50.992771"/>
    </g>
    <g clip-path="url(#pf30971629a)">
     <use style="fill:#7f5d98;stroke:#7f5d98;stroke-width:2;" x="294.86747" xlink:href="#C0_0_f04c49ad22" y="63.238554"/>
    </g>
    <g clip-path="url(#pf30971629a)">
     <use style="fill:#7360a6;stroke:#7360a6;stroke-width:2;" x="154.063636" xlink:href="#C0_0_f04c49ad22" y="211.34"/>
    </g>
    <g clip-path="url(#pf30971629a)">
     <use style="fill:#6b61af;stroke:#6b61af;stroke-width:2;" x="286.854227" xlink:href="#C0_0_f04c49ad22" y="84.416327"/>
    </g>
    <g clip-path="url(#pf30971629a)">
     <use style="fill:#7a5e9d;stroke:#7a5e9d;stroke-width:2;" x="248.112" xlink:href="#C0_0_f04c49ad22" y="112.6848"/>
    </g>
    <g clip-path="url(#pf30971629a)">
     <use style="fill:#6b61af;stroke:#6b61af;stroke-width:2;" x="273.688525" xlink:href="#C0_0_f04c49ad22" y="97.731148"/>
    </g>
    <g clip-path="url(#pf30971629a)">
     <use style="fill:#835d93;stroke:#835d93;stroke-width:2;" x="224.630137" xlink:href="#C0_0_f04c49ad22" y="130.536986"/>
    </g>
    <g clip-path="url(#pf30971629a)">
     <use style="fill:#7160a8;stroke:#7160a8;stroke-width:2;" x="301.156503" xlink:href="#C0_0_f04c49ad22" y="66.132537"/>
    </g>
    <g clip-path="url(#pf30971629a)">
     <use style="fill:#a85667;stroke:#a85667;stroke-width:2;" x="268.2" xlink:href="#C0_0_f04c49ad22" y="61.68"/>
    </g>
    <g clip-path="url(#pf30971629a)">
     <use style="fill:#8c5b88;stroke:#8c5b88;stroke-width:2;" x="197.826568" xlink:href="#C0_0_f04c49ad22" y="150.715867"/>
    </g>
    <g clip-path="url(#pf30971629a)">
     <use style="fill:#6f60aa;stroke:#6f60aa;stroke-width:2;" x="213.487013" xlink:href="#C0_0_f04c49ad22" y="154.8"/>
    </g>
    <g clip-path="url(#pf30971629a)">
     <use style="fill:#895b8c;stroke:#895b8c;stroke-width:2;" x="219.494845" xlink:href="#C0_0_f04c49ad22" y="131.789691"/>
    </g>
    <g clip-path="url(#pf30971629a)">
     <use style="fill:#9a5878;stroke:#9a5878;stroke-width:2;" x="184.5" xlink:href="#C0_0_f04c49ad22" y="154.8"/>
    </g>
    <g clip-path="url(#pf30971629a)">
     <use style="fill:#745fa5;stroke:#745fa5;stroke-width:2;" x="272.456907" xlink:href="#C0_0_f04c49ad22" y="93.267464"/>
    </g>
    <g clip-path="url(#pf30971629a)">
     <use style="fill:#915a82;stroke:#915a82;stroke-width:2;" x="284.652371" xlink:href="#C0_0_f04c49ad22" y="60.803629"/>
    </g>
    <g clip-path="url(#pf30971629a)">
     <use style="fill:#745fa4;stroke:#745fa4;stroke-width:2;" x="187.694656" xlink:href="#C0_0_f04c49ad22" y="176.93313"/>
    </g>
    <g clip-path="url(#pf30971629a)">
     <use style="fill:#6d61ad;stroke:#6d61ad;stroke-width:2;" x="222.764885" xlink:href="#C0_0_f04c49ad22" y="147.026565"/>
    </g>
    <g clip-path="url(#pf30971629a)">
     <use style="fill:#b55357;stroke:#b55357;stroke-width:2;" x="184.5" xlink:href="#C0_0_f04c49ad22" y="135.6"/>
    </g>
    <g clip-path="url(#pf30971629a)">
     <use style="fill:#7c5e9b;stroke:#7c5e9b;stroke-width:2;" x="290.566116" xlink:href="#C0_0_f04c49ad22" y="69.545455"/>
    </g>
    <g clip-path="url(#pf30971629a)">
     <use style="fill:#835d93;stroke:#835d93;stroke-width:2;" x="224.496503" xlink:href="#C0_0_f04c49ad22" y="130.753846"/>
    </g>
    <g clip-path="url(#pf30971629a)">
     <use style="fill:#8b5b8a;stroke:#8b5b8a;stroke-width:2;" x="260.45" xlink:href="#C0_0_f04c49ad22" y="89.4"/>
    </g>
    <g clip-path="url(#pf30971629a)">
     <use style="fill:#6a61b0;stroke:#6a61b0;stroke-width:2;" x="277.726829" xlink:href="#C0_0_f04c49ad22" y="94.583415"/>
    </g>
    <g clip-path="url(#pf30971629a)">
     <use style="fill:#895b8c;stroke:#895b8c;stroke-width:2;" x="232.917526" xlink:href="#C0_0_f04c49ad22" y="118.453608"/>
    </g>
    <g clip-path="url(#pf30971629a)">
     <use style="fill:#765fa2;stroke:#765fa2;stroke-width:2;" x="242.341463" xlink:href="#C0_0_f04c49ad22" y="121.627317"/>
    </g>
    <g clip-path="url(#pf30971629a)">
     <use style="fill:#7c5e9b;stroke:#7c5e9b;stroke-width:2;" x="179.664" xlink:href="#C0_0_f04c49ad22" y="179.952"/>
    </g>
    <g clip-path="url(#pf30971629a)">
     <use style="fill:#7a5e9d;stroke:#7a5e9d;stroke-width:2;" x="206.82" xlink:href="#C0_0_f04c49ad22" y="154.08"/>
    </g>
    <g clip-path="url(#pf30971629a)">
     <use style="fill:#745fa4;stroke:#745fa4;stroke-width:2;" x="217.98" xlink:href="#C0_0_f04c49ad22" y="147.15"/>
    </g>
    <g clip-path="url(#pf30971629a)">
     <use style="fill:#7f5d98;stroke:#7f5d98;stroke-width:2;" x="141.72" xlink:href="#C0_0_f04c49ad22" y="215.68"/>
    </g>
    <g clip-path="url(#pf30971629a)">
     <use style="fill:#815d95;stroke:#815d95;stroke-width:2;" x="173.34" xlink:href="#C0_0_f04c49ad22" y="182.416"/>
    </g>
    <g clip-path="url(#pf30971629a)">
     <use style="fill:#745fa4;stroke:#745fa4;stroke-width:2;" x="322.45" xlink:href="#C0_0_f04c49ad22" y="43.2"/>
    </g>
    <g clip-path="url(#pf30971629a)">
     <use style="fill:#ae5460;stroke:#ae5460;stroke-width:2;" x="213.33" xlink:href="#C0_0_f04c49ad22" y="112.038"/>
    </g>
    <g clip-path="url(#pf30971629a)">
     <use style="fill:#6e60ab;stroke:#6e60ab;stroke-width:2;" x="262.248" xlink:href="#C0_0_f04c49ad22" y="106.7712"/>
    </g>
    <g clip-path="url(#pf30971629a)">
     <use style="fill:#885c8d;stroke:#885c8d;stroke-width:2;" x="257.04" xlink:href="#C0_0_f04c49ad22" y="94.944"/>
    </g>
    <g clip-path="url(#pf30971629a)">
     <use style="fill:#5465cb;stroke:#5465cb;stroke-width:2;" x="267.828619" xlink:href="#C0_0_f04c49ad22" y="119.764393"/>
    </g>
    <g clip-path="url(#pf30971629a)">
     <use style="fill:#775fa1;stroke:#775fa1;stroke-width:2;" x="280.671563" xlink:href="#C0_0_f04c49ad22" y="82.758447"/>
    </g>
    <g clip-path="url(#pf30971629a)">
     <use style="fill:#765fa2;stroke:#765fa2;stroke-width:2;" x="309.230209" xlink:href="#C0_0_f04c49ad22" y="55.114619"/>
    </g>
    <g clip-path="url(#pf30971629a)">
     <use style="fill:#98587a;stroke:#98587a;stroke-width:2;" x="277.248649" xlink:href="#C0_0_f04c49ad22" y="63.428108"/>
    </g>
    <g clip-path="url(#pf30971629a)">
     <use style="fill:#855c91;stroke:#855c91;stroke-width:2;" x="272.2176" xlink:href="#C0_0_f04c49ad22" y="81.78624"/>
    </g>
    <g clip-path="url(#pf30971629a)">
     <use style="fill:#745fa4;stroke:#745fa4;stroke-width:2;" x="306.33" xlink:href="#C0_0_f04c49ad22" y="58.908"/>
    </g>
    <g clip-path="url(#pf30971629a)">
     <use style="fill:#6e60ab;stroke:#6e60ab;stroke-width:2;" x="304.421053" xlink:href="#C0_0_f04c49ad22" y="65.084211"/>
    </g>
    <g clip-path="url(#pf30971629a)">
     <use style="fill:#5366cc;stroke:#5366cc;stroke-width:2;" x="298.246154" xlink:href="#C0_0_f04c49ad22" y="90.110769"/>
    </g>
    <g clip-path="url(#pf30971629a)">
     <use style="fill:#765fa2;stroke:#765fa2;stroke-width:2;" x="321.21" xlink:href="#C0_0_f04c49ad22" y="43.2"/>
    </g>
    <g clip-path="url(#pf30971629a)">
     <use style="fill:#7260a7;stroke:#7260a7;stroke-width:2;" x="303.424056" xlink:href="#C0_0_f04c49ad22" y="63.643196"/>
    </g>
    <g clip-path="url(#pf30971629a)">
     <use style="fill:#7260a7;stroke:#7260a7;stroke-width:2;" x="323.79075" xlink:href="#C0_0_f04c49ad22" y="43.2"/>
    </g>
    <g clip-path="url(#pf30971629a)">
     <use style="fill:#6f60aa;stroke:#6f60aa;stroke-width:2;" x="314.3125" xlink:href="#C0_0_f04c49ad22" y="54.75"/>
    </g>
    <g clip-path="url(#pf30971629a)">
     <use style="fill:#8e5a85;stroke:#8e5a85;stroke-width:2;" x="250.628141" xlink:href="#C0_0_f04c49ad22" y="96.751759"/>
    </g>
    <g clip-path="url(#pf30971629a)">
     <use style="fill:#7d5e9a;stroke:#7d5e9a;stroke-width:2;" x="224.924623" xlink:href="#C0_0_f04c49ad22" y="134.361809"/>
    </g>
    <g clip-path="url(#pf30971629a)">
     <use style="fill:#7060a9;stroke:#7060a9;stroke-width:2;" x="197.273869" xlink:href="#C0_0_f04c49ad22" y="170.501508"/>
    </g>
    <g clip-path="url(#pf30971629a)">
     <use style="fill:#7360a6;stroke:#7360a6;stroke-width:2;" x="323.275795" xlink:href="#C0_0_f04c49ad22" y="43.379883"/>
    </g>
    <g clip-path="url(#pf30971629a)">
     <use style="fill:#7260a7;stroke:#7260a7;stroke-width:2;" x="200" xlink:href="#C0_0_f04c49ad22" y="166.4"/>
    </g>
    <g clip-path="url(#pf30971629a)">
     <use style="fill:#865c90;stroke:#865c90;stroke-width:2;" x="253.878" xlink:href="#C0_0_f04c49ad22" y="99.3792"/>
    </g>
   </g>
   <g id="line2d_13">
    <path clip-path="url(#pf30971629a)" d="M 45 320.4 
L 324 43.2 
" style="fill:none;stroke:#1a1a1a;stroke-linecap:round;stroke-width:1.5;"/>
   </g>
   <g id="patch_3">
    <path d="M 45 320.4 
L 45 43.2 
" style="fill:none;stroke:#cccccc;stroke-linecap:square;stroke-linejoin:miter;stroke-width:1.25;"/>
   </g>
   <g id="patch_4">
    <path d="M 324 320.4 
L 324 43.2 
" style="fill:none;stroke:#cccccc;stroke-linecap:square;stroke-linejoin:miter;stroke-width:1.25;"/>
   </g>
   <g id="patch_5">
    <path d="M 45 320.4 
L 324 320.4 
" style="fill:none;stroke:#cccccc;stroke-linecap:square;stroke-linejoin:miter;stroke-width:1.25;"/>
   </g>
   <g id="patch_6">
    <path d="M 45 43.2 
L 324 43.2 
" style="fill:none;stroke:#cccccc;stroke-linecap:square;stroke-linejoin:miter;stroke-width:1.25;"/>
   </g>
  </g>
 </g>
 <defs>
  <clipPath id="pf30971629a">
   <rect height="277.2" width="279" x="45" y="43.2"/>
  </clipPath>
 </defs>
</svg>
