<?xml version="1.0" encoding="utf-8" standalone="no"?>
<!DOCTYPE svg PUBLIC "-//W3C//DTD SVG 1.1//EN"
  "http://www.w3.org/Graphics/SVG/1.1/DTD/svg11.dtd">
<svg height="360pt" version="1.1" viewBox="0 0 360 360" width="360pt" xmlns="http://www.w3.org/2000/svg" xmlns:xlink="http://www.w3.org/1999/xlink">
 <metadata>
  <rdf:RDF xmlns:cc="http://creativecommons.org/ns#" xmlns:dc="http://purl.org/dc/elements/1.1/" xmlns:rdf="http://www.w3.org/1999/02/22-rdf-syntax-ns#">
   <cc:Work>
    <dc:type rdf:resource="http://purl.org/dc/dcmitype/StillImage"/>
    <dc:date>2022-11-02T13:00:37.918933</dc:date>
    <dc:format>image/svg+xml</dc:format>
    <dc:creator>
     <cc:Agent>
      <dc:title>Matplotlib v3.4.2, https://matplotlib.org/</dc:title>
     </cc:Agent>
    </dc:creator>
   </cc:Work>
  </rdf:RDF>
 </metadata>
 <defs>
  <style type="text/css">*{stroke-linecap:butt;stroke-linejoin:round;}</style>
 </defs>
 <g id="figure_1">
  <g id="patch_1">
   <path d="M 0 360 
L 360 360 
L 360 0 
L 0 0 
z
" style="fill:#ffffff;"/>
  </g>
  <g id="axes_1">
   <g id="patch_2">
    <path d="M 45 320.4 
L 324 320.4 
L 324 43.2 
L 45 43.2 
z
" style="fill:#ffffff;"/>
   </g>
   <g id="matplotlib.axis_1">
    <g id="xtick_1">
     <g id="line2d_1">
      <path clip-path="url(#pfa6319a5a0)" d="M 45 320.4 
L 45 43.2 
" style="fill:none;stroke:#cccccc;stroke-linecap:round;"/>
     </g>
     <g id="text_1">
      <!-- 0.0 -->
      <g style="fill:#262626;" transform="translate(37.355 337.773594)scale(0.11 -0.11)">
       <defs>
        <path d="M 266 2259 
Q 266 3072 433 3567 
Q 600 4063 929 4331 
Q 1259 4600 1759 4600 
Q 2128 4600 2406 4451 
Q 2684 4303 2865 4023 
Q 3047 3744 3150 3342 
Q 3253 2941 3253 2259 
Q 3253 1453 3087 958 
Q 2922 463 2592 192 
Q 2263 -78 1759 -78 
Q 1097 -78 719 397 
Q 266 969 266 2259 
z
M 844 2259 
Q 844 1131 1108 757 
Q 1372 384 1759 384 
Q 2147 384 2411 759 
Q 2675 1134 2675 2259 
Q 2675 3391 2411 3762 
Q 2147 4134 1753 4134 
Q 1366 4134 1134 3806 
Q 844 3388 844 2259 
z
" id="ArialMT-30" transform="scale(0.015625)"/>
        <path d="M 581 0 
L 581 641 
L 1222 641 
L 1222 0 
L 581 0 
z
" id="ArialMT-2e" transform="scale(0.015625)"/>
       </defs>
       <use xlink:href="#ArialMT-30"/>
       <use x="55.615234" xlink:href="#ArialMT-2e"/>
       <use x="83.398438" xlink:href="#ArialMT-30"/>
      </g>
     </g>
    </g>
    <g id="xtick_2">
     <g id="line2d_2">
      <path clip-path="url(#pfa6319a5a0)" d="M 100.8 320.4 
L 100.8 43.2 
" style="fill:none;stroke:#cccccc;stroke-linecap:round;"/>
     </g>
     <g id="text_2">
      <!-- 0.2 -->
      <g style="fill:#262626;" transform="translate(93.155 337.773594)scale(0.11 -0.11)">
       <defs>
        <path d="M 3222 541 
L 3222 0 
L 194 0 
Q 188 203 259 391 
Q 375 700 629 1000 
Q 884 1300 1366 1694 
Q 2113 2306 2375 2664 
Q 2638 3022 2638 3341 
Q 2638 3675 2398 3904 
Q 2159 4134 1775 4134 
Q 1369 4134 1125 3890 
Q 881 3647 878 3216 
L 300 3275 
Q 359 3922 746 4261 
Q 1134 4600 1788 4600 
Q 2447 4600 2831 4234 
Q 3216 3869 3216 3328 
Q 3216 3053 3103 2787 
Q 2991 2522 2730 2228 
Q 2469 1934 1863 1422 
Q 1356 997 1212 845 
Q 1069 694 975 541 
L 3222 541 
z
" id="ArialMT-32" transform="scale(0.015625)"/>
       </defs>
       <use xlink:href="#ArialMT-30"/>
       <use x="55.615234" xlink:href="#ArialMT-2e"/>
       <use x="83.398438" xlink:href="#ArialMT-32"/>
      </g>
     </g>
    </g>
    <g id="xtick_3">
     <g id="line2d_3">
      <path clip-path="url(#pfa6319a5a0)" d="M 156.6 320.4 
L 156.6 43.2 
" style="fill:none;stroke:#cccccc;stroke-linecap:round;"/>
     </g>
     <g id="text_3">
      <!-- 0.4 -->
      <g style="fill:#262626;" transform="translate(148.955 337.773594)scale(0.11 -0.11)">
       <defs>
        <path d="M 2069 0 
L 2069 1097 
L 81 1097 
L 81 1613 
L 2172 4581 
L 2631 4581 
L 2631 1613 
L 3250 1613 
L 3250 1097 
L 2631 1097 
L 2631 0 
L 2069 0 
z
M 2069 1613 
L 2069 3678 
L 634 1613 
L 2069 1613 
z
" id="ArialMT-34" transform="scale(0.015625)"/>
       </defs>
       <use xlink:href="#ArialMT-30"/>
       <use x="55.615234" xlink:href="#ArialMT-2e"/>
       <use x="83.398438" xlink:href="#ArialMT-34"/>
      </g>
     </g>
    </g>
    <g id="xtick_4">
     <g id="line2d_4">
      <path clip-path="url(#pfa6319a5a0)" d="M 212.4 320.4 
L 212.4 43.2 
" style="fill:none;stroke:#cccccc;stroke-linecap:round;"/>
     </g>
     <g id="text_4">
      <!-- 0.6 -->
      <g style="fill:#262626;" transform="translate(204.755 337.773594)scale(0.11 -0.11)">
       <defs>
        <path d="M 3184 3459 
L 2625 3416 
Q 2550 3747 2413 3897 
Q 2184 4138 1850 4138 
Q 1581 4138 1378 3988 
Q 1113 3794 959 3422 
Q 806 3050 800 2363 
Q 1003 2672 1297 2822 
Q 1591 2972 1913 2972 
Q 2475 2972 2870 2558 
Q 3266 2144 3266 1488 
Q 3266 1056 3080 686 
Q 2894 316 2569 119 
Q 2244 -78 1831 -78 
Q 1128 -78 684 439 
Q 241 956 241 2144 
Q 241 3472 731 4075 
Q 1159 4600 1884 4600 
Q 2425 4600 2770 4297 
Q 3116 3994 3184 3459 
z
M 888 1484 
Q 888 1194 1011 928 
Q 1134 663 1356 523 
Q 1578 384 1822 384 
Q 2178 384 2434 671 
Q 2691 959 2691 1453 
Q 2691 1928 2437 2201 
Q 2184 2475 1800 2475 
Q 1419 2475 1153 2201 
Q 888 1928 888 1484 
z
" id="ArialMT-36" transform="scale(0.015625)"/>
       </defs>
       <use xlink:href="#ArialMT-30"/>
       <use x="55.615234" xlink:href="#ArialMT-2e"/>
       <use x="83.398438" xlink:href="#ArialMT-36"/>
      </g>
     </g>
    </g>
    <g id="xtick_5">
     <g id="line2d_5">
      <path clip-path="url(#pfa6319a5a0)" d="M 268.2 320.4 
L 268.2 43.2 
" style="fill:none;stroke:#cccccc;stroke-linecap:round;"/>
     </g>
     <g id="text_5">
      <!-- 0.8 -->
      <g style="fill:#262626;" transform="translate(260.555 337.773594)scale(0.11 -0.11)">
       <defs>
        <path d="M 1131 2484 
Q 781 2613 612 2850 
Q 444 3088 444 3419 
Q 444 3919 803 4259 
Q 1163 4600 1759 4600 
Q 2359 4600 2725 4251 
Q 3091 3903 3091 3403 
Q 3091 3084 2923 2848 
Q 2756 2613 2416 2484 
Q 2838 2347 3058 2040 
Q 3278 1734 3278 1309 
Q 3278 722 2862 322 
Q 2447 -78 1769 -78 
Q 1091 -78 675 323 
Q 259 725 259 1325 
Q 259 1772 486 2073 
Q 713 2375 1131 2484 
z
M 1019 3438 
Q 1019 3113 1228 2906 
Q 1438 2700 1772 2700 
Q 2097 2700 2305 2904 
Q 2513 3109 2513 3406 
Q 2513 3716 2298 3927 
Q 2084 4138 1766 4138 
Q 1444 4138 1231 3931 
Q 1019 3725 1019 3438 
z
M 838 1322 
Q 838 1081 952 856 
Q 1066 631 1291 507 
Q 1516 384 1775 384 
Q 2178 384 2440 643 
Q 2703 903 2703 1303 
Q 2703 1709 2433 1975 
Q 2163 2241 1756 2241 
Q 1359 2241 1098 1978 
Q 838 1716 838 1322 
z
" id="ArialMT-38" transform="scale(0.015625)"/>
       </defs>
       <use xlink:href="#ArialMT-30"/>
       <use x="55.615234" xlink:href="#ArialMT-2e"/>
       <use x="83.398438" xlink:href="#ArialMT-38"/>
      </g>
     </g>
    </g>
    <g id="xtick_6">
     <g id="line2d_6">
      <path clip-path="url(#pfa6319a5a0)" d="M 324 320.4 
L 324 43.2 
" style="fill:none;stroke:#cccccc;stroke-linecap:round;"/>
     </g>
     <g id="text_6">
      <!-- 1.0 -->
      <g style="fill:#262626;" transform="translate(316.355 337.773594)scale(0.11 -0.11)">
       <defs>
        <path d="M 2384 0 
L 1822 0 
L 1822 3584 
Q 1619 3391 1289 3197 
Q 959 3003 697 2906 
L 697 3450 
Q 1169 3672 1522 3987 
Q 1875 4303 2022 4600 
L 2384 4600 
L 2384 0 
z
" id="ArialMT-31" transform="scale(0.015625)"/>
       </defs>
       <use xlink:href="#ArialMT-31"/>
       <use x="55.615234" xlink:href="#ArialMT-2e"/>
       <use x="83.398438" xlink:href="#ArialMT-30"/>
      </g>
     </g>
    </g>
    <g id="text_7">
     <!-- CV NB+TFIDF -->
     <g style="fill:#1a1a1a;" transform="translate(145.664062 352.549219)scale(0.12 -0.12)">
      <defs>
       <path d="M 3763 1606 
L 4369 1453 
Q 4178 706 3683 314 
Q 3188 -78 2472 -78 
Q 1731 -78 1267 223 
Q 803 525 561 1097 
Q 319 1669 319 2325 
Q 319 3041 592 3573 
Q 866 4106 1370 4382 
Q 1875 4659 2481 4659 
Q 3169 4659 3637 4309 
Q 4106 3959 4291 3325 
L 3694 3184 
Q 3534 3684 3231 3912 
Q 2928 4141 2469 4141 
Q 1941 4141 1586 3887 
Q 1231 3634 1087 3207 
Q 944 2781 944 2328 
Q 944 1744 1114 1308 
Q 1284 872 1643 656 
Q 2003 441 2422 441 
Q 2931 441 3284 734 
Q 3638 1028 3763 1606 
z
" id="ArialMT-43" transform="scale(0.015625)"/>
       <path d="M 1803 0 
L 28 4581 
L 684 4581 
L 1875 1253 
Q 2019 853 2116 503 
Q 2222 878 2363 1253 
L 3600 4581 
L 4219 4581 
L 2425 0 
L 1803 0 
z
" id="ArialMT-56" transform="scale(0.015625)"/>
       <path id="ArialMT-20" transform="scale(0.015625)"/>
       <path d="M 488 0 
L 488 4581 
L 1109 4581 
L 3516 984 
L 3516 4581 
L 4097 4581 
L 4097 0 
L 3475 0 
L 1069 3600 
L 1069 0 
L 488 0 
z
" id="ArialMT-4e" transform="scale(0.015625)"/>
       <path d="M 469 0 
L 469 4581 
L 2188 4581 
Q 2713 4581 3030 4442 
Q 3347 4303 3526 4014 
Q 3706 3725 3706 3409 
Q 3706 3116 3547 2856 
Q 3388 2597 3066 2438 
Q 3481 2316 3704 2022 
Q 3928 1728 3928 1328 
Q 3928 1006 3792 729 
Q 3656 453 3456 303 
Q 3256 153 2954 76 
Q 2653 0 2216 0 
L 469 0 
z
M 1075 2656 
L 2066 2656 
Q 2469 2656 2644 2709 
Q 2875 2778 2992 2937 
Q 3109 3097 3109 3338 
Q 3109 3566 3000 3739 
Q 2891 3913 2687 3977 
Q 2484 4041 1991 4041 
L 1075 4041 
L 1075 2656 
z
M 1075 541 
L 2216 541 
Q 2509 541 2628 563 
Q 2838 600 2978 687 
Q 3119 775 3209 942 
Q 3300 1109 3300 1328 
Q 3300 1584 3169 1773 
Q 3038 1963 2805 2039 
Q 2572 2116 2134 2116 
L 1075 2116 
L 1075 541 
z
" id="ArialMT-42" transform="scale(0.015625)"/>
       <path d="M 1603 741 
L 1603 1997 
L 356 1997 
L 356 2522 
L 1603 2522 
L 1603 3769 
L 2134 3769 
L 2134 2522 
L 3381 2522 
L 3381 1997 
L 2134 1997 
L 2134 741 
L 1603 741 
z
" id="ArialMT-2b" transform="scale(0.015625)"/>
       <path d="M 1659 0 
L 1659 4041 
L 150 4041 
L 150 4581 
L 3781 4581 
L 3781 4041 
L 2266 4041 
L 2266 0 
L 1659 0 
z
" id="ArialMT-54" transform="scale(0.015625)"/>
       <path d="M 525 0 
L 525 4581 
L 3616 4581 
L 3616 4041 
L 1131 4041 
L 1131 2622 
L 3281 2622 
L 3281 2081 
L 1131 2081 
L 1131 0 
L 525 0 
z
" id="ArialMT-46" transform="scale(0.015625)"/>
       <path d="M 597 0 
L 597 4581 
L 1203 4581 
L 1203 0 
L 597 0 
z
" id="ArialMT-49" transform="scale(0.015625)"/>
       <path d="M 494 0 
L 494 4581 
L 2072 4581 
Q 2606 4581 2888 4516 
Q 3281 4425 3559 4188 
Q 3922 3881 4101 3404 
Q 4281 2928 4281 2316 
Q 4281 1794 4159 1391 
Q 4038 988 3847 723 
Q 3656 459 3429 307 
Q 3203 156 2883 78 
Q 2563 0 2147 0 
L 494 0 
z
M 1100 541 
L 2078 541 
Q 2531 541 2789 625 
Q 3047 709 3200 863 
Q 3416 1078 3536 1442 
Q 3656 1806 3656 2325 
Q 3656 3044 3420 3430 
Q 3184 3816 2847 3947 
Q 2603 4041 2063 4041 
L 1100 4041 
L 1100 541 
z
" id="ArialMT-44" transform="scale(0.015625)"/>
      </defs>
      <use xlink:href="#ArialMT-43"/>
      <use x="72.216797" xlink:href="#ArialMT-56"/>
      <use x="138.916016" xlink:href="#ArialMT-20"/>
      <use x="166.699219" xlink:href="#ArialMT-4e"/>
      <use x="238.916016" xlink:href="#ArialMT-42"/>
      <use x="305.615234" xlink:href="#ArialMT-2b"/>
      <use x="364.013672" xlink:href="#ArialMT-54"/>
      <use x="425.097656" xlink:href="#ArialMT-46"/>
      <use x="486.181641" xlink:href="#ArialMT-49"/>
      <use x="513.964844" xlink:href="#ArialMT-44"/>
      <use x="586.181641" xlink:href="#ArialMT-46"/>
     </g>
    </g>
   </g>
   <g id="matplotlib.axis_2">
    <g id="ytick_1">
     <g id="line2d_7">
      <path clip-path="url(#pfa6319a5a0)" d="M 45 320.4 
L 324 320.4 
" style="fill:none;stroke:#cccccc;stroke-linecap:round;"/>
     </g>
     <g id="text_8">
      <!-- 0.0 -->
      <g style="fill:#262626;" transform="translate(20.21 324.336797)scale(0.11 -0.11)">
       <use xlink:href="#ArialMT-30"/>
       <use x="55.615234" xlink:href="#ArialMT-2e"/>
       <use x="83.398438" xlink:href="#ArialMT-30"/>
      </g>
     </g>
    </g>
    <g id="ytick_2">
     <g id="line2d_8">
      <path clip-path="url(#pfa6319a5a0)" d="M 45 264.96 
L 324 264.96 
" style="fill:none;stroke:#cccccc;stroke-linecap:round;"/>
     </g>
     <g id="text_9">
      <!-- 0.2 -->
      <g style="fill:#262626;" transform="translate(20.21 268.896797)scale(0.11 -0.11)">
       <use xlink:href="#ArialMT-30"/>
       <use x="55.615234" xlink:href="#ArialMT-2e"/>
       <use x="83.398438" xlink:href="#ArialMT-32"/>
      </g>
     </g>
    </g>
    <g id="ytick_3">
     <g id="line2d_9">
      <path clip-path="url(#pfa6319a5a0)" d="M 45 209.52 
L 324 209.52 
" style="fill:none;stroke:#cccccc;stroke-linecap:round;"/>
     </g>
     <g id="text_10">
      <!-- 0.4 -->
      <g style="fill:#262626;" transform="translate(20.21 213.456797)scale(0.11 -0.11)">
       <use xlink:href="#ArialMT-30"/>
       <use x="55.615234" xlink:href="#ArialMT-2e"/>
       <use x="83.398438" xlink:href="#ArialMT-34"/>
      </g>
     </g>
    </g>
    <g id="ytick_4">
     <g id="line2d_10">
      <path clip-path="url(#pfa6319a5a0)" d="M 45 154.08 
L 324 154.08 
" style="fill:none;stroke:#cccccc;stroke-linecap:round;"/>
     </g>
     <g id="text_11">
      <!-- 0.6 -->
      <g style="fill:#262626;" transform="translate(20.21 158.016797)scale(0.11 -0.11)">
       <use xlink:href="#ArialMT-30"/>
       <use x="55.615234" xlink:href="#ArialMT-2e"/>
       <use x="83.398438" xlink:href="#ArialMT-36"/>
      </g>
     </g>
    </g>
    <g id="ytick_5">
     <g id="line2d_11">
      <path clip-path="url(#pfa6319a5a0)" d="M 45 98.64 
L 324 98.64 
" style="fill:none;stroke:#cccccc;stroke-linecap:round;"/>
     </g>
     <g id="text_12">
      <!-- 0.8 -->
      <g style="fill:#262626;" transform="translate(20.21 102.576797)scale(0.11 -0.11)">
       <use xlink:href="#ArialMT-30"/>
       <use x="55.615234" xlink:href="#ArialMT-2e"/>
       <use x="83.398438" xlink:href="#ArialMT-38"/>
      </g>
     </g>
    </g>
    <g id="ytick_6">
     <g id="line2d_12">
      <path clip-path="url(#pfa6319a5a0)" d="M 45 43.2 
L 324 43.2 
" style="fill:none;stroke:#cccccc;stroke-linecap:round;"/>
     </g>
     <g id="text_13">
      <!-- 1.0 -->
      <g style="fill:#262626;" transform="translate(20.21 47.136797)scale(0.11 -0.11)">
       <use xlink:href="#ArialMT-31"/>
       <use x="55.615234" xlink:href="#ArialMT-2e"/>
       <use x="83.398438" xlink:href="#ArialMT-30"/>
      </g>
     </g>
    </g>
    <g id="text_14">
     <!-- NB+TFIDF -->
     <g style="fill:#1a1a1a;" transform="translate(13.825 210.63375)rotate(-90)scale(0.12 -0.12)">
      <use xlink:href="#ArialMT-4e"/>
      <use x="72.216797" xlink:href="#ArialMT-42"/>
      <use x="138.916016" xlink:href="#ArialMT-2b"/>
      <use x="197.314453" xlink:href="#ArialMT-54"/>
      <use x="258.398438" xlink:href="#ArialMT-46"/>
      <use x="319.482422" xlink:href="#ArialMT-49"/>
      <use x="347.265625" xlink:href="#ArialMT-44"/>
      <use x="419.482422" xlink:href="#ArialMT-46"/>
     </g>
    </g>
   </g>
   <g id="PathCollection_1">
    <defs>
     <path d="M 0 1.581139 
C 0.419323 1.581139 0.821528 1.41454 1.118034 1.118034 
C 1.41454 0.821528 1.581139 0.419323 1.581139 -0 
C 1.581139 -0.419323 1.41454 -0.821528 1.118034 -1.118034 
C 0.821528 -1.41454 0.419323 -1.581139 0 -1.581139 
C -0.419323 -1.581139 -0.821528 -1.41454 -1.118034 -1.118034 
C -1.41454 -0.821528 -1.581139 -0.419323 -1.581139 0 
C -1.581139 0.419323 -1.41454 0.821528 -1.118034 1.118034 
C -0.821528 1.41454 -0.419323 1.581139 0 1.581139 
z
" id="C0_0_ef3ff8c6b8"/>
    </defs>
    <g clip-path="url(#pfa6319a5a0)">
     <use style="fill:#895b8c;stroke:#895b8c;stroke-width:2;" x="277.5" xlink:href="#C0_0_ef3ff8c6b8" y="162"/>
    </g>
    <g clip-path="url(#pfa6319a5a0)">
     <use style="fill:#ec4917;stroke:#ec4917;stroke-width:2;" x="138" xlink:href="#C0_0_ef3ff8c6b8" y="209.52"/>
    </g>
    <g clip-path="url(#pfa6319a5a0)">
     <use style="fill:#9b5876;stroke:#9b5876;stroke-width:2;" x="268.2" xlink:href="#C0_0_ef3ff8c6b8" y="154.08"/>
    </g>
    <g clip-path="url(#pfa6319a5a0)">
     <use style="fill:#d84c2f;stroke:#d84c2f;stroke-width:2;" x="254.25" xlink:href="#C0_0_ef3ff8c6b8" y="112.5"/>
    </g>
    <g clip-path="url(#pfa6319a5a0)">
     <use style="fill:#db4c2a;stroke:#db4c2a;stroke-width:2;" x="314.7" xlink:href="#C0_0_ef3ff8c6b8" y="48.744"/>
    </g>
    <g clip-path="url(#pfa6319a5a0)">
     <use style="fill:#4b67d6;stroke:#4b67d6;stroke-width:2;" x="235.65" xlink:href="#C0_0_ef3ff8c6b8" y="260.34"/>
    </g>
    <g clip-path="url(#pfa6319a5a0)">
     <use style="fill:#98587a;stroke:#98587a;stroke-width:2;" x="314.7" xlink:href="#C0_0_ef3ff8c6b8" y="110.344"/>
    </g>
    <g clip-path="url(#pfa6319a5a0)">
     <use style="fill:#925a81;stroke:#925a81;stroke-width:2;" x="324" xlink:href="#C0_0_ef3ff8c6b8" y="106.236735"/>
    </g>
    <g clip-path="url(#pfa6319a5a0)">
     <use style="fill:#c65044;stroke:#c65044;stroke-width:2;" x="209.909389" xlink:href="#C0_0_ef3ff8c6b8" y="172.776562"/>
    </g>
    <g clip-path="url(#pfa6319a5a0)">
     <use style="fill:#ac5562;stroke:#ac5562;stroke-width:2;" x="294.107143" xlink:href="#C0_0_ef3ff8c6b8" y="112.5"/>
    </g>
    <g clip-path="url(#pfa6319a5a0)">
     <use style="fill:#c94f40;stroke:#c94f40;stroke-width:2;" x="263.736" xlink:href="#C0_0_ef3ff8c6b8" y="116.3808"/>
    </g>
    <g clip-path="url(#pfa6319a5a0)">
     <use style="fill:#ac5563;stroke:#ac5563;stroke-width:2;" x="179.492308" xlink:href="#C0_0_ef3ff8c6b8" y="226.578462"/>
    </g>
    <g clip-path="url(#pfa6319a5a0)">
     <use style="fill:#c45046;stroke:#c45046;stroke-width:2;" x="184.5" xlink:href="#C0_0_ef3ff8c6b8" y="199.569231"/>
    </g>
    <g clip-path="url(#pfa6319a5a0)">
     <use style="fill:#9d5774;stroke:#9d5774;stroke-width:2;" x="172.338462" xlink:href="#C0_0_ef3ff8c6b8" y="247.190769"/>
    </g>
    <g clip-path="url(#pfa6319a5a0)">
     <use style="fill:#d84c2f;stroke:#d84c2f;stroke-width:2;" x="169.465" xlink:href="#C0_0_ef3ff8c6b8" y="196.5015"/>
    </g>
    <g clip-path="url(#pfa6319a5a0)">
     <use style="fill:#4169e1;stroke:#4169e1;stroke-width:2;" x="289.125" xlink:href="#C0_0_ef3ff8c6b8" y="216.223529"/>
    </g>
    <g clip-path="url(#pfa6319a5a0)">
     <use style="fill:#a85667;stroke:#a85667;stroke-width:2;" x="279.36" xlink:href="#C0_0_ef3ff8c6b8" y="130.946763"/>
    </g>
    <g clip-path="url(#pfa6319a5a0)">
     <use style="fill:#7d5e9a;stroke:#7d5e9a;stroke-width:2;" x="265.41" xlink:href="#C0_0_ef3ff8c6b8" y="183.808696"/>
    </g>
    <g clip-path="url(#pfa6319a5a0)">
     <use style="fill:#9a5877;stroke:#9a5877;stroke-width:2;" x="264.015" xlink:href="#C0_0_ef3ff8c6b8" y="158.866187"/>
    </g>
    <g clip-path="url(#pfa6319a5a0)">
     <use style="fill:#c45046;stroke:#c45046;stroke-width:2;" x="277.209375" xlink:href="#C0_0_ef3ff8c6b8" y="107.015827"/>
    </g>
    <g clip-path="url(#pfa6319a5a0)">
     <use style="fill:#bf514c;stroke:#bf514c;stroke-width:2;" x="248.67" xlink:href="#C0_0_ef3ff8c6b8" y="140.22"/>
    </g>
    <g clip-path="url(#pfa6319a5a0)">
     <use style="fill:#885c8d;stroke:#885c8d;stroke-width:2;" x="299.73913" xlink:href="#C0_0_ef3ff8c6b8" y="140.429268"/>
    </g>
    <g clip-path="url(#pfa6319a5a0)">
     <use style="fill:#9b5876;stroke:#9b5876;stroke-width:2;" x="224.464865" xlink:href="#C0_0_ef3ff8c6b8" y="197.114917"/>
    </g>
    <g clip-path="url(#pfa6319a5a0)">
     <use style="fill:#a2576e;stroke:#a2576e;stroke-width:2;" x="214.62027" xlink:href="#C0_0_ef3ff8c6b8" y="200.943646"/>
    </g>
    <g clip-path="url(#pfa6319a5a0)">
     <use style="fill:#b55357;stroke:#b55357;stroke-width:2;" x="207.782824" xlink:href="#C0_0_ef3ff8c6b8" y="190.116"/>
    </g>
    <g clip-path="url(#pfa6319a5a0)">
     <use style="fill:#c65043;stroke:#c65043;stroke-width:2;" x="248.271429" xlink:href="#C0_0_ef3ff8c6b8" y="134.069112"/>
    </g>
    <g clip-path="url(#pfa6319a5a0)">
     <use style="fill:#5a64c3;stroke:#5a64c3;stroke-width:2;" x="256.255882" xlink:href="#C0_0_ef3ff8c6b8" y="225.36"/>
    </g>
    <g clip-path="url(#pfa6319a5a0)">
     <use style="fill:#d04e38;stroke:#d04e38;stroke-width:2;" x="259.846101" xlink:href="#C0_0_ef3ff8c6b8" y="113.55"/>
    </g>
    <g clip-path="url(#pfa6319a5a0)">
     <use style="fill:#94597e;stroke:#94597e;stroke-width:2;" x="273.510485" xlink:href="#C0_0_ef3ff8c6b8" y="154.422222"/>
    </g>
    <g clip-path="url(#pfa6319a5a0)">
     <use style="fill:#c84f41;stroke:#c84f41;stroke-width:2;" x="314.7" xlink:href="#C0_0_ef3ff8c6b8" y="66.543158"/>
    </g>
    <g clip-path="url(#pfa6319a5a0)">
     <use style="fill:#bd514e;stroke:#bd514e;stroke-width:2;" x="324" xlink:href="#C0_0_ef3ff8c6b8" y="66.932211"/>
    </g>
    <g clip-path="url(#pfa6319a5a0)">
     <use style="fill:#ba5252;stroke:#ba5252;stroke-width:2;" x="322.007143" xlink:href="#C0_0_ef3ff8c6b8" y="72.148101"/>
    </g>
    <g clip-path="url(#pfa6319a5a0)">
     <use style="fill:#d54d32;stroke:#d54d32;stroke-width:2;" x="311.42967" xlink:href="#C0_0_ef3ff8c6b8" y="58.112658"/>
    </g>
    <g clip-path="url(#pfa6319a5a0)">
     <use style="fill:#d84c2f;stroke:#d84c2f;stroke-width:2;" x="301.465385" xlink:href="#C0_0_ef3ff8c6b8" y="65.2"/>
    </g>
    <g clip-path="url(#pfa6319a5a0)">
     <use style="fill:#cd4e3b;stroke:#cd4e3b;stroke-width:2;" x="318.42" xlink:href="#C0_0_ef3ff8c6b8" y="57.984"/>
    </g>
    <g clip-path="url(#pfa6319a5a0)">
     <use style="fill:#d14e37;stroke:#d14e37;stroke-width:2;" x="239.792727" xlink:href="#C0_0_ef3ff8c6b8" y="132.96"/>
    </g>
    <g clip-path="url(#pfa6319a5a0)">
     <use style="fill:#b2545b;stroke:#b2545b;stroke-width:2;" x="270.711" xlink:href="#C0_0_ef3ff8c6b8" y="130.105946"/>
    </g>
    <g clip-path="url(#pfa6319a5a0)">
     <use style="fill:#b3535a;stroke:#b3535a;stroke-width:2;" x="163.575" xlink:href="#C0_0_ef3ff8c6b8" y="235.8"/>
    </g>
    <g clip-path="url(#pfa6319a5a0)">
     <use style="fill:#ce4e3a;stroke:#ce4e3a;stroke-width:2;" x="228.09375" xlink:href="#C0_0_ef3ff8c6b8" y="147.15"/>
    </g>
    <g clip-path="url(#pfa6319a5a0)">
     <use style="fill:#9d5874;stroke:#9d5874;stroke-width:2;" x="324" xlink:href="#C0_0_ef3ff8c6b8" y="96.776471"/>
    </g>
    <g clip-path="url(#pfa6319a5a0)">
     <use style="fill:#b75355;stroke:#b75355;stroke-width:2;" x="134.28" xlink:href="#C0_0_ef3ff8c6b8" y="260.928"/>
    </g>
    <g clip-path="url(#pfa6319a5a0)">
     <use style="fill:#b55357;stroke:#b55357;stroke-width:2;" x="301.5" xlink:href="#C0_0_ef3ff8c6b8" y="96.636145"/>
    </g>
    <g clip-path="url(#pfa6319a5a0)">
     <use style="fill:#b45359;stroke:#b45359;stroke-width:2;" x="258.352941" xlink:href="#C0_0_ef3ff8c6b8" y="141.166265"/>
    </g>
    <g clip-path="url(#pfa6319a5a0)">
     <use style="fill:#be514d;stroke:#be514d;stroke-width:2;" x="164.209091" xlink:href="#C0_0_ef3ff8c6b8" y="225.2"/>
    </g>
    <g clip-path="url(#pfa6319a5a0)">
     <use style="fill:#c65043;stroke:#c65043;stroke-width:2;" x="299.014925" xlink:href="#C0_0_ef3ff8c6b8" y="83.338776"/>
    </g>
    <g clip-path="url(#pfa6319a5a0)">
     <use style="fill:#c55045;stroke:#c55045;stroke-width:2;" x="267.445946" xlink:href="#C0_0_ef3ff8c6b8" y="116.3808"/>
    </g>
    <g clip-path="url(#pfa6319a5a0)">
     <use style="fill:#a2576e;stroke:#a2576e;stroke-width:2;" x="249.6" xlink:href="#C0_0_ef3ff8c6b8" y="165.895082"/>
    </g>
    <g clip-path="url(#pfa6319a5a0)">
     <use style="fill:#a85667;stroke:#a85667;stroke-width:2;" x="172.542857" xlink:href="#C0_0_ef3ff8c6b8" y="236.860274"/>
    </g>
    <g clip-path="url(#pfa6319a5a0)">
     <use style="fill:#e34a22;stroke:#e34a22;stroke-width:2;" x="202.254545" xlink:href="#C0_0_ef3ff8c6b8" y="153.843582"/>
    </g>
    <g clip-path="url(#pfa6319a5a0)">
     <use style="fill:#e14b23;stroke:#e14b23;stroke-width:2;" x="286.8" xlink:href="#C0_0_ef3ff8c6b8" y="70.92"/>
    </g>
    <g clip-path="url(#pfa6319a5a0)">
     <use style="fill:#ca4f3f;stroke:#ca4f3f;stroke-width:2;" x="207.640588" xlink:href="#C0_0_ef3ff8c6b8" y="170.718819"/>
    </g>
    <g clip-path="url(#pfa6319a5a0)">
     <use style="fill:#9e5773;stroke:#9e5773;stroke-width:2;" x="271.6875" xlink:href="#C0_0_ef3ff8c6b8" y="147.6"/>
    </g>
    <g clip-path="url(#pfa6319a5a0)">
     <use style="fill:#c45046;stroke:#c45046;stroke-width:2;" x="257.505" xlink:href="#C0_0_ef3ff8c6b8" y="127.026804"/>
    </g>
    <g clip-path="url(#pfa6319a5a0)">
     <use style="fill:#c65044;stroke:#c65044;stroke-width:2;" x="224.007115" xlink:href="#C0_0_ef3ff8c6b8" y="158.4"/>
    </g>
    <g clip-path="url(#pfa6319a5a0)">
     <use style="fill:#ef4813;stroke:#ef4813;stroke-width:2;" x="245.88" xlink:href="#C0_0_ef3ff8c6b8" y="98.525691"/>
    </g>
    <g clip-path="url(#pfa6319a5a0)">
     <use style="fill:#dc4c29;stroke:#dc4c29;stroke-width:2;" x="278.802" xlink:href="#C0_0_ef3ff8c6b8" y="83.894103"/>
    </g>
    <g clip-path="url(#pfa6319a5a0)">
     <use style="fill:#e04b25;stroke:#e04b25;stroke-width:2;" x="161.715" xlink:href="#C0_0_ef3ff8c6b8" y="196.400611"/>
    </g>
    <g clip-path="url(#pfa6319a5a0)">
     <use style="fill:#b75356;stroke:#b75356;stroke-width:2;" x="183.57" xlink:href="#C0_0_ef3ff8c6b8" y="212.341374"/>
    </g>
    <g clip-path="url(#pfa6319a5a0)">
     <use style="fill:#7360a6;stroke:#7360a6;stroke-width:2;" x="249.6" xlink:href="#C0_0_ef3ff8c6b8" y="209.52"/>
    </g>
    <g clip-path="url(#pfa6319a5a0)">
     <use style="fill:#ac5563;stroke:#ac5563;stroke-width:2;" x="264.015" xlink:href="#C0_0_ef3ff8c6b8" y="142.854545"/>
    </g>
    <g clip-path="url(#pfa6319a5a0)">
     <use style="fill:#c0514b;stroke:#c0514b;stroke-width:2;" x="253.32" xlink:href="#C0_0_ef3ff8c6b8" y="134.953846"/>
    </g>
    <g clip-path="url(#pfa6319a5a0)">
     <use style="fill:#c0514b;stroke:#c0514b;stroke-width:2;" x="274.4" xlink:href="#C0_0_ef3ff8c6b8" y="114.04"/>
    </g>
    <g clip-path="url(#pfa6319a5a0)">
     <use style="fill:#dd4b29;stroke:#dd4b29;stroke-width:2;" x="277.965" xlink:href="#C0_0_ef3ff8c6b8" y="83.765854"/>
    </g>
    <g clip-path="url(#pfa6319a5a0)">
     <use style="fill:#cd4e3b;stroke:#cd4e3b;stroke-width:2;" x="260.295" xlink:href="#C0_0_ef3ff8c6b8" y="115.595876"/>
    </g>
    <g clip-path="url(#pfa6319a5a0)">
     <use style="fill:#c25148;stroke:#c25148;stroke-width:2;" x="257.7375" xlink:href="#C0_0_ef3ff8c6b8" y="128.388293"/>
    </g>
    <g clip-path="url(#pfa6319a5a0)">
     <use style="fill:#b2545b;stroke:#b2545b;stroke-width:2;" x="212.300782" xlink:href="#C0_0_ef3ff8c6b8" y="188.0832"/>
    </g>
    <g clip-path="url(#pfa6319a5a0)">
     <use style="fill:#ef4813;stroke:#ef4813;stroke-width:2;" x="156.6" xlink:href="#C0_0_ef3ff8c6b8" y="187.344"/>
    </g>
    <g clip-path="url(#pfa6319a5a0)">
     <use style="fill:#c15149;stroke:#c15149;stroke-width:2;" x="257.04" xlink:href="#C0_0_ef3ff8c6b8" y="130.056"/>
    </g>
    <g clip-path="url(#pfa6319a5a0)">
     <use style="fill:#cb4f3e;stroke:#cb4f3e;stroke-width:2;" x="144.2" xlink:href="#C0_0_ef3ff8c6b8" y="232.928"/>
    </g>
    <g clip-path="url(#pfa6319a5a0)">
     <use style="fill:#ad5561;stroke:#ad5561;stroke-width:2;" x="198.14" xlink:href="#C0_0_ef3ff8c6b8" y="207.056"/>
    </g>
    <g clip-path="url(#pfa6319a5a0)">
     <use style="fill:#ff4500;stroke:#ff4500;stroke-width:2;" x="282.15" xlink:href="#C0_0_ef3ff8c6b8" y="47.82"/>
    </g>
    <g clip-path="url(#pfa6319a5a0)">
     <use style="fill:#cc4f3c;stroke:#cc4f3c;stroke-width:2;" x="222.63" xlink:href="#C0_0_ef3ff8c6b8" y="153.618"/>
    </g>
    <g clip-path="url(#pfa6319a5a0)">
     <use style="fill:#df4b26;stroke:#df4b26;stroke-width:2;" x="259.329943" xlink:href="#C0_0_ef3ff8c6b8" y="100.1184"/>
    </g>
    <g clip-path="url(#pfa6319a5a0)">
     <use style="fill:#d84c2f;stroke:#d84c2f;stroke-width:2;" x="258.9" xlink:href="#C0_0_ef3ff8c6b8" y="107.88"/>
    </g>
    <g clip-path="url(#pfa6319a5a0)">
     <use style="fill:#4e66d1;stroke:#4e66d1;stroke-width:2;" x="310.05" xlink:href="#C0_0_ef3ff8c6b8" y="182.953078"/>
    </g>
    <g clip-path="url(#pfa6319a5a0)">
     <use style="fill:#8f5a84;stroke:#8f5a84;stroke-width:2;" x="313.666667" xlink:href="#C0_0_ef3ff8c6b8" y="119.408185"/>
    </g>
    <g clip-path="url(#pfa6319a5a0)">
     <use style="fill:#d74d30;stroke:#d74d30;stroke-width:2;" x="313.119" xlink:href="#C0_0_ef3ff8c6b8" y="54.677076"/>
    </g>
    <g clip-path="url(#pfa6319a5a0)">
     <use style="fill:#d94c2d;stroke:#d94c2d;stroke-width:2;" x="283.883607" xlink:href="#C0_0_ef3ff8c6b8" y="81.408649"/>
    </g>
    <g clip-path="url(#pfa6319a5a0)">
     <use style="fill:#aa5565;stroke:#aa5565;stroke-width:2;" x="249.786" xlink:href="#C0_0_ef3ff8c6b8" y="158.07168"/>
    </g>
    <g clip-path="url(#pfa6319a5a0)">
     <use style="fill:#d04e38;stroke:#d04e38;stroke-width:2;" x="308.19" xlink:href="#C0_0_ef3ff8c6b8" y="65.376"/>
    </g>
    <g clip-path="url(#pfa6319a5a0)">
     <use style="fill:#e34a22;stroke:#e34a22;stroke-width:2;" x="275.175" xlink:href="#C0_0_ef3ff8c6b8" y="80.889474"/>
    </g>
    <g clip-path="url(#pfa6319a5a0)">
     <use style="fill:#e54a1f;stroke:#e54a1f;stroke-width:2;" x="285.25" xlink:href="#C0_0_ef3ff8c6b8" y="68.787692"/>
    </g>
    <g clip-path="url(#pfa6319a5a0)">
     <use style="fill:#d44d33;stroke:#d44d33;stroke-width:2;" x="324" xlink:href="#C0_0_ef3ff8c6b8" y="45.972"/>
    </g>
    <g clip-path="url(#pfa6319a5a0)">
     <use style="fill:#d24d35;stroke:#d24d35;stroke-width:2;" x="299.73913" xlink:href="#C0_0_ef3ff8c6b8" y="71.674451"/>
    </g>
    <g clip-path="url(#pfa6319a5a0)">
     <use style="fill:#d74d30;stroke:#d74d30;stroke-width:2;" x="323.721" xlink:href="#C0_0_ef3ff8c6b8" y="44.1009"/>
    </g>
    <g clip-path="url(#pfa6319a5a0)">
     <use style="fill:#d54d31;stroke:#d54d31;stroke-width:2;" x="300.75" xlink:href="#C0_0_ef3ff8c6b8" y="68.225"/>
    </g>
    <g clip-path="url(#pfa6319a5a0)">
     <use style="fill:#a5566b;stroke:#a5566b;stroke-width:2;" x="249.596517" xlink:href="#C0_0_ef3ff8c6b8" y="163.38191"/>
    </g>
    <g clip-path="url(#pfa6319a5a0)">
     <use style="fill:#d24d35;stroke:#d24d35;stroke-width:2;" x="223.392809" xlink:href="#C0_0_ef3ff8c6b8" y="147.362814"/>
    </g>
    <g clip-path="url(#pfa6319a5a0)">
     <use style="fill:#d84c2f;stroke:#d84c2f;stroke-width:2;" x="192.281348" xlink:href="#C0_0_ef3ff8c6b8" y="173.829146"/>
    </g>
    <g clip-path="url(#pfa6319a5a0)">
     <use style="fill:#d34d34;stroke:#d34d34;stroke-width:2;" x="322.884" xlink:href="#C0_0_ef3ff8c6b8" y="48.011875"/>
    </g>
    <g clip-path="url(#pfa6319a5a0)">
     <use style="fill:#bb5250;stroke:#bb5250;stroke-width:2;" x="226.105263" xlink:href="#C0_0_ef3ff8c6b8" y="166.4"/>
    </g>
    <g clip-path="url(#pfa6319a5a0)">
     <use style="fill:#d54d32;stroke:#d54d32;stroke-width:2;" x="246.81" xlink:href="#C0_0_ef3ff8c6b8" y="122.5716"/>
    </g>
   </g>
   <g id="line2d_13">
    <path clip-path="url(#pfa6319a5a0)" d="M 45 320.4 
L 324 43.2 
" style="fill:none;stroke:#1a1a1a;stroke-linecap:round;stroke-width:1.5;"/>
   </g>
   <g id="patch_3">
    <path d="M 45 320.4 
L 45 43.2 
" style="fill:none;stroke:#cccccc;stroke-linecap:square;stroke-linejoin:miter;stroke-width:1.25;"/>
   </g>
   <g id="patch_4">
    <path d="M 324 320.4 
L 324 43.2 
" style="fill:none;stroke:#cccccc;stroke-linecap:square;stroke-linejoin:miter;stroke-width:1.25;"/>
   </g>
   <g id="patch_5">
    <path d="M 45 320.4 
L 324 320.4 
" style="fill:none;stroke:#cccccc;stroke-linecap:square;stroke-linejoin:miter;stroke-width:1.25;"/>
   </g>
   <g id="patch_6">
    <path d="M 45 43.2 
L 324 43.2 
" style="fill:none;stroke:#cccccc;stroke-linecap:square;stroke-linejoin:miter;stroke-width:1.25;"/>
   </g>
  </g>
 </g>
 <defs>
  <clipPath id="pfa6319a5a0">
   <rect height="277.2" width="279" x="45" y="43.2"/>
  </clipPath>
 </defs>
</svg>
