<?xml version="1.0" encoding="utf-8" standalone="no"?>
<!DOCTYPE svg PUBLIC "-//W3C//DTD SVG 1.1//EN"
  "http://www.w3.org/Graphics/SVG/1.1/DTD/svg11.dtd">
<svg height="360pt" version="1.1" viewBox="0 0 360 360" width="360pt" xmlns="http://www.w3.org/2000/svg" xmlns:xlink="http://www.w3.org/1999/xlink">
 <metadata>
  <rdf:RDF xmlns:cc="http://creativecommons.org/ns#" xmlns:dc="http://purl.org/dc/elements/1.1/" xmlns:rdf="http://www.w3.org/1999/02/22-rdf-syntax-ns#">
   <cc:Work>
    <dc:type rdf:resource="http://purl.org/dc/dcmitype/StillImage"/>
    <dc:date>2022-07-04T02:12:21.425145</dc:date>
    <dc:format>image/svg+xml</dc:format>
    <dc:creator>
     <cc:Agent>
      <dc:title>Matplotlib v3.4.2, https://matplotlib.org/</dc:title>
     </cc:Agent>
    </dc:creator>
   </cc:Work>
  </rdf:RDF>
 </metadata>
 <defs>
  <style type="text/css">*{stroke-linecap:butt;stroke-linejoin:round;}</style>
 </defs>
 <g id="figure_1">
  <g id="patch_1">
   <path d="M 0 360 
L 360 360 
L 360 0 
L 0 0 
z
" style="fill:#ffffff;"/>
  </g>
  <g id="axes_1">
   <g id="patch_2">
    <path d="M 45 320.4 
L 324 320.4 
L 324 43.2 
L 45 43.2 
z
" style="fill:#ffffff;"/>
   </g>
   <g id="matplotlib.axis_1">
    <g id="xtick_1">
     <g id="line2d_1">
      <path clip-path="url(#p8a0358ef97)" d="M 45 320.4 
L 45 43.2 
" style="fill:none;stroke:#cccccc;stroke-linecap:round;"/>
     </g>
     <g id="text_1">
      <!-- 0.0 -->
      <g style="fill:#262626;" transform="translate(37.355 337.773594)scale(0.11 -0.11)">
       <defs>
        <path d="M 266 2259 
Q 266 3072 433 3567 
Q 600 4063 929 4331 
Q 1259 4600 1759 4600 
Q 2128 4600 2406 4451 
Q 2684 4303 2865 4023 
Q 3047 3744 3150 3342 
Q 3253 2941 3253 2259 
Q 3253 1453 3087 958 
Q 2922 463 2592 192 
Q 2263 -78 1759 -78 
Q 1097 -78 719 397 
Q 266 969 266 2259 
z
M 844 2259 
Q 844 1131 1108 757 
Q 1372 384 1759 384 
Q 2147 384 2411 759 
Q 2675 1134 2675 2259 
Q 2675 3391 2411 3762 
Q 2147 4134 1753 4134 
Q 1366 4134 1134 3806 
Q 844 3388 844 2259 
z
" id="ArialMT-30" transform="scale(0.015625)"/>
        <path d="M 581 0 
L 581 641 
L 1222 641 
L 1222 0 
L 581 0 
z
" id="ArialMT-2e" transform="scale(0.015625)"/>
       </defs>
       <use xlink:href="#ArialMT-30"/>
       <use x="55.615234" xlink:href="#ArialMT-2e"/>
       <use x="83.398438" xlink:href="#ArialMT-30"/>
      </g>
     </g>
    </g>
    <g id="xtick_2">
     <g id="line2d_2">
      <path clip-path="url(#p8a0358ef97)" d="M 100.8 320.4 
L 100.8 43.2 
" style="fill:none;stroke:#cccccc;stroke-linecap:round;"/>
     </g>
     <g id="text_2">
      <!-- 0.2 -->
      <g style="fill:#262626;" transform="translate(93.155 337.773594)scale(0.11 -0.11)">
       <defs>
        <path d="M 3222 541 
L 3222 0 
L 194 0 
Q 188 203 259 391 
Q 375 700 629 1000 
Q 884 1300 1366 1694 
Q 2113 2306 2375 2664 
Q 2638 3022 2638 3341 
Q 2638 3675 2398 3904 
Q 2159 4134 1775 4134 
Q 1369 4134 1125 3890 
Q 881 3647 878 3216 
L 300 3275 
Q 359 3922 746 4261 
Q 1134 4600 1788 4600 
Q 2447 4600 2831 4234 
Q 3216 3869 3216 3328 
Q 3216 3053 3103 2787 
Q 2991 2522 2730 2228 
Q 2469 1934 1863 1422 
Q 1356 997 1212 845 
Q 1069 694 975 541 
L 3222 541 
z
" id="ArialMT-32" transform="scale(0.015625)"/>
       </defs>
       <use xlink:href="#ArialMT-30"/>
       <use x="55.615234" xlink:href="#ArialMT-2e"/>
       <use x="83.398438" xlink:href="#ArialMT-32"/>
      </g>
     </g>
    </g>
    <g id="xtick_3">
     <g id="line2d_3">
      <path clip-path="url(#p8a0358ef97)" d="M 156.6 320.4 
L 156.6 43.2 
" style="fill:none;stroke:#cccccc;stroke-linecap:round;"/>
     </g>
     <g id="text_3">
      <!-- 0.4 -->
      <g style="fill:#262626;" transform="translate(148.955 337.773594)scale(0.11 -0.11)">
       <defs>
        <path d="M 2069 0 
L 2069 1097 
L 81 1097 
L 81 1613 
L 2172 4581 
L 2631 4581 
L 2631 1613 
L 3250 1613 
L 3250 1097 
L 2631 1097 
L 2631 0 
L 2069 0 
z
M 2069 1613 
L 2069 3678 
L 634 1613 
L 2069 1613 
z
" id="ArialMT-34" transform="scale(0.015625)"/>
       </defs>
       <use xlink:href="#ArialMT-30"/>
       <use x="55.615234" xlink:href="#ArialMT-2e"/>
       <use x="83.398438" xlink:href="#ArialMT-34"/>
      </g>
     </g>
    </g>
    <g id="xtick_4">
     <g id="line2d_4">
      <path clip-path="url(#p8a0358ef97)" d="M 212.4 320.4 
L 212.4 43.2 
" style="fill:none;stroke:#cccccc;stroke-linecap:round;"/>
     </g>
     <g id="text_4">
      <!-- 0.6 -->
      <g style="fill:#262626;" transform="translate(204.755 337.773594)scale(0.11 -0.11)">
       <defs>
        <path d="M 3184 3459 
L 2625 3416 
Q 2550 3747 2413 3897 
Q 2184 4138 1850 4138 
Q 1581 4138 1378 3988 
Q 1113 3794 959 3422 
Q 806 3050 800 2363 
Q 1003 2672 1297 2822 
Q 1591 2972 1913 2972 
Q 2475 2972 2870 2558 
Q 3266 2144 3266 1488 
Q 3266 1056 3080 686 
Q 2894 316 2569 119 
Q 2244 -78 1831 -78 
Q 1128 -78 684 439 
Q 241 956 241 2144 
Q 241 3472 731 4075 
Q 1159 4600 1884 4600 
Q 2425 4600 2770 4297 
Q 3116 3994 3184 3459 
z
M 888 1484 
Q 888 1194 1011 928 
Q 1134 663 1356 523 
Q 1578 384 1822 384 
Q 2178 384 2434 671 
Q 2691 959 2691 1453 
Q 2691 1928 2437 2201 
Q 2184 2475 1800 2475 
Q 1419 2475 1153 2201 
Q 888 1928 888 1484 
z
" id="ArialMT-36" transform="scale(0.015625)"/>
       </defs>
       <use xlink:href="#ArialMT-30"/>
       <use x="55.615234" xlink:href="#ArialMT-2e"/>
       <use x="83.398438" xlink:href="#ArialMT-36"/>
      </g>
     </g>
    </g>
    <g id="xtick_5">
     <g id="line2d_5">
      <path clip-path="url(#p8a0358ef97)" d="M 268.2 320.4 
L 268.2 43.2 
" style="fill:none;stroke:#cccccc;stroke-linecap:round;"/>
     </g>
     <g id="text_5">
      <!-- 0.8 -->
      <g style="fill:#262626;" transform="translate(260.555 337.773594)scale(0.11 -0.11)">
       <defs>
        <path d="M 1131 2484 
Q 781 2613 612 2850 
Q 444 3088 444 3419 
Q 444 3919 803 4259 
Q 1163 4600 1759 4600 
Q 2359 4600 2725 4251 
Q 3091 3903 3091 3403 
Q 3091 3084 2923 2848 
Q 2756 2613 2416 2484 
Q 2838 2347 3058 2040 
Q 3278 1734 3278 1309 
Q 3278 722 2862 322 
Q 2447 -78 1769 -78 
Q 1091 -78 675 323 
Q 259 725 259 1325 
Q 259 1772 486 2073 
Q 713 2375 1131 2484 
z
M 1019 3438 
Q 1019 3113 1228 2906 
Q 1438 2700 1772 2700 
Q 2097 2700 2305 2904 
Q 2513 3109 2513 3406 
Q 2513 3716 2298 3927 
Q 2084 4138 1766 4138 
Q 1444 4138 1231 3931 
Q 1019 3725 1019 3438 
z
M 838 1322 
Q 838 1081 952 856 
Q 1066 631 1291 507 
Q 1516 384 1775 384 
Q 2178 384 2440 643 
Q 2703 903 2703 1303 
Q 2703 1709 2433 1975 
Q 2163 2241 1756 2241 
Q 1359 2241 1098 1978 
Q 838 1716 838 1322 
z
" id="ArialMT-38" transform="scale(0.015625)"/>
       </defs>
       <use xlink:href="#ArialMT-30"/>
       <use x="55.615234" xlink:href="#ArialMT-2e"/>
       <use x="83.398438" xlink:href="#ArialMT-38"/>
      </g>
     </g>
    </g>
    <g id="xtick_6">
     <g id="line2d_6">
      <path clip-path="url(#p8a0358ef97)" d="M 324 320.4 
L 324 43.2 
" style="fill:none;stroke:#cccccc;stroke-linecap:round;"/>
     </g>
     <g id="text_6">
      <!-- 1.0 -->
      <g style="fill:#262626;" transform="translate(316.355 337.773594)scale(0.11 -0.11)">
       <defs>
        <path d="M 2384 0 
L 1822 0 
L 1822 3584 
Q 1619 3391 1289 3197 
Q 959 3003 697 2906 
L 697 3450 
Q 1169 3672 1522 3987 
Q 1875 4303 2022 4600 
L 2384 4600 
L 2384 0 
z
" id="ArialMT-31" transform="scale(0.015625)"/>
       </defs>
       <use xlink:href="#ArialMT-31"/>
       <use x="55.615234" xlink:href="#ArialMT-2e"/>
       <use x="83.398438" xlink:href="#ArialMT-30"/>
      </g>
     </g>
    </g>
    <g id="text_7">
     <!-- TFIDF with SVM -->
     <g style="fill:#1a1a1a;" transform="translate(140.500313 352.549219)scale(0.12 -0.12)">
      <defs>
       <path d="M 1659 0 
L 1659 4041 
L 150 4041 
L 150 4581 
L 3781 4581 
L 3781 4041 
L 2266 4041 
L 2266 0 
L 1659 0 
z
" id="ArialMT-54" transform="scale(0.015625)"/>
       <path d="M 525 0 
L 525 4581 
L 3616 4581 
L 3616 4041 
L 1131 4041 
L 1131 2622 
L 3281 2622 
L 3281 2081 
L 1131 2081 
L 1131 0 
L 525 0 
z
" id="ArialMT-46" transform="scale(0.015625)"/>
       <path d="M 597 0 
L 597 4581 
L 1203 4581 
L 1203 0 
L 597 0 
z
" id="ArialMT-49" transform="scale(0.015625)"/>
       <path d="M 494 0 
L 494 4581 
L 2072 4581 
Q 2606 4581 2888 4516 
Q 3281 4425 3559 4188 
Q 3922 3881 4101 3404 
Q 4281 2928 4281 2316 
Q 4281 1794 4159 1391 
Q 4038 988 3847 723 
Q 3656 459 3429 307 
Q 3203 156 2883 78 
Q 2563 0 2147 0 
L 494 0 
z
M 1100 541 
L 2078 541 
Q 2531 541 2789 625 
Q 3047 709 3200 863 
Q 3416 1078 3536 1442 
Q 3656 1806 3656 2325 
Q 3656 3044 3420 3430 
Q 3184 3816 2847 3947 
Q 2603 4041 2063 4041 
L 1100 4041 
L 1100 541 
z
" id="ArialMT-44" transform="scale(0.015625)"/>
       <path id="ArialMT-20" transform="scale(0.015625)"/>
       <path d="M 1034 0 
L 19 3319 
L 600 3319 
L 1128 1403 
L 1325 691 
Q 1338 744 1497 1375 
L 2025 3319 
L 2603 3319 
L 3100 1394 
L 3266 759 
L 3456 1400 
L 4025 3319 
L 4572 3319 
L 3534 0 
L 2950 0 
L 2422 1988 
L 2294 2553 
L 1622 0 
L 1034 0 
z
" id="ArialMT-77" transform="scale(0.015625)"/>
       <path d="M 425 3934 
L 425 4581 
L 988 4581 
L 988 3934 
L 425 3934 
z
M 425 0 
L 425 3319 
L 988 3319 
L 988 0 
L 425 0 
z
" id="ArialMT-69" transform="scale(0.015625)"/>
       <path d="M 1650 503 
L 1731 6 
Q 1494 -44 1306 -44 
Q 1000 -44 831 53 
Q 663 150 594 308 
Q 525 466 525 972 
L 525 2881 
L 113 2881 
L 113 3319 
L 525 3319 
L 525 4141 
L 1084 4478 
L 1084 3319 
L 1650 3319 
L 1650 2881 
L 1084 2881 
L 1084 941 
Q 1084 700 1114 631 
Q 1144 563 1211 522 
Q 1278 481 1403 481 
Q 1497 481 1650 503 
z
" id="ArialMT-74" transform="scale(0.015625)"/>
       <path d="M 422 0 
L 422 4581 
L 984 4581 
L 984 2938 
Q 1378 3394 1978 3394 
Q 2347 3394 2619 3248 
Q 2891 3103 3008 2847 
Q 3125 2591 3125 2103 
L 3125 0 
L 2563 0 
L 2563 2103 
Q 2563 2525 2380 2717 
Q 2197 2909 1863 2909 
Q 1613 2909 1392 2779 
Q 1172 2650 1078 2428 
Q 984 2206 984 1816 
L 984 0 
L 422 0 
z
" id="ArialMT-68" transform="scale(0.015625)"/>
       <path d="M 288 1472 
L 859 1522 
Q 900 1178 1048 958 
Q 1197 738 1509 602 
Q 1822 466 2213 466 
Q 2559 466 2825 569 
Q 3091 672 3220 851 
Q 3350 1031 3350 1244 
Q 3350 1459 3225 1620 
Q 3100 1781 2813 1891 
Q 2628 1963 1997 2114 
Q 1366 2266 1113 2400 
Q 784 2572 623 2826 
Q 463 3081 463 3397 
Q 463 3744 659 4045 
Q 856 4347 1234 4503 
Q 1613 4659 2075 4659 
Q 2584 4659 2973 4495 
Q 3363 4331 3572 4012 
Q 3781 3694 3797 3291 
L 3216 3247 
Q 3169 3681 2898 3903 
Q 2628 4125 2100 4125 
Q 1550 4125 1298 3923 
Q 1047 3722 1047 3438 
Q 1047 3191 1225 3031 
Q 1400 2872 2139 2705 
Q 2878 2538 3153 2413 
Q 3553 2228 3743 1945 
Q 3934 1663 3934 1294 
Q 3934 928 3725 604 
Q 3516 281 3123 101 
Q 2731 -78 2241 -78 
Q 1619 -78 1198 103 
Q 778 284 539 648 
Q 300 1013 288 1472 
z
" id="ArialMT-53" transform="scale(0.015625)"/>
       <path d="M 1803 0 
L 28 4581 
L 684 4581 
L 1875 1253 
Q 2019 853 2116 503 
Q 2222 878 2363 1253 
L 3600 4581 
L 4219 4581 
L 2425 0 
L 1803 0 
z
" id="ArialMT-56" transform="scale(0.015625)"/>
       <path d="M 475 0 
L 475 4581 
L 1388 4581 
L 2472 1338 
Q 2622 884 2691 659 
Q 2769 909 2934 1394 
L 4031 4581 
L 4847 4581 
L 4847 0 
L 4263 0 
L 4263 3834 
L 2931 0 
L 2384 0 
L 1059 3900 
L 1059 0 
L 475 0 
z
" id="ArialMT-4d" transform="scale(0.015625)"/>
      </defs>
      <use xlink:href="#ArialMT-54"/>
      <use x="61.083984" xlink:href="#ArialMT-46"/>
      <use x="122.167969" xlink:href="#ArialMT-49"/>
      <use x="149.951172" xlink:href="#ArialMT-44"/>
      <use x="222.167969" xlink:href="#ArialMT-46"/>
      <use x="283.251953" xlink:href="#ArialMT-20"/>
      <use x="311.035156" xlink:href="#ArialMT-77"/>
      <use x="383.251953" xlink:href="#ArialMT-69"/>
      <use x="405.46875" xlink:href="#ArialMT-74"/>
      <use x="433.251953" xlink:href="#ArialMT-68"/>
      <use x="488.867188" xlink:href="#ArialMT-20"/>
      <use x="516.650391" xlink:href="#ArialMT-53"/>
      <use x="583.349609" xlink:href="#ArialMT-56"/>
      <use x="650.048828" xlink:href="#ArialMT-4d"/>
     </g>
    </g>
   </g>
   <g id="matplotlib.axis_2">
    <g id="ytick_1">
     <g id="line2d_7">
      <path clip-path="url(#p8a0358ef97)" d="M 45 320.4 
L 324 320.4 
" style="fill:none;stroke:#cccccc;stroke-linecap:round;"/>
     </g>
     <g id="text_8">
      <!-- 0.0 -->
      <g style="fill:#262626;" transform="translate(20.21 324.336797)scale(0.11 -0.11)">
       <use xlink:href="#ArialMT-30"/>
       <use x="55.615234" xlink:href="#ArialMT-2e"/>
       <use x="83.398438" xlink:href="#ArialMT-30"/>
      </g>
     </g>
    </g>
    <g id="ytick_2">
     <g id="line2d_8">
      <path clip-path="url(#p8a0358ef97)" d="M 45 264.96 
L 324 264.96 
" style="fill:none;stroke:#cccccc;stroke-linecap:round;"/>
     </g>
     <g id="text_9">
      <!-- 0.2 -->
      <g style="fill:#262626;" transform="translate(20.21 268.896797)scale(0.11 -0.11)">
       <use xlink:href="#ArialMT-30"/>
       <use x="55.615234" xlink:href="#ArialMT-2e"/>
       <use x="83.398438" xlink:href="#ArialMT-32"/>
      </g>
     </g>
    </g>
    <g id="ytick_3">
     <g id="line2d_9">
      <path clip-path="url(#p8a0358ef97)" d="M 45 209.52 
L 324 209.52 
" style="fill:none;stroke:#cccccc;stroke-linecap:round;"/>
     </g>
     <g id="text_10">
      <!-- 0.4 -->
      <g style="fill:#262626;" transform="translate(20.21 213.456797)scale(0.11 -0.11)">
       <use xlink:href="#ArialMT-30"/>
       <use x="55.615234" xlink:href="#ArialMT-2e"/>
       <use x="83.398438" xlink:href="#ArialMT-34"/>
      </g>
     </g>
    </g>
    <g id="ytick_4">
     <g id="line2d_10">
      <path clip-path="url(#p8a0358ef97)" d="M 45 154.08 
L 324 154.08 
" style="fill:none;stroke:#cccccc;stroke-linecap:round;"/>
     </g>
     <g id="text_11">
      <!-- 0.6 -->
      <g style="fill:#262626;" transform="translate(20.21 158.016797)scale(0.11 -0.11)">
       <use xlink:href="#ArialMT-30"/>
       <use x="55.615234" xlink:href="#ArialMT-2e"/>
       <use x="83.398438" xlink:href="#ArialMT-36"/>
      </g>
     </g>
    </g>
    <g id="ytick_5">
     <g id="line2d_11">
      <path clip-path="url(#p8a0358ef97)" d="M 45 98.64 
L 324 98.64 
" style="fill:none;stroke:#cccccc;stroke-linecap:round;"/>
     </g>
     <g id="text_12">
      <!-- 0.8 -->
      <g style="fill:#262626;" transform="translate(20.21 102.576797)scale(0.11 -0.11)">
       <use xlink:href="#ArialMT-30"/>
       <use x="55.615234" xlink:href="#ArialMT-2e"/>
       <use x="83.398438" xlink:href="#ArialMT-38"/>
      </g>
     </g>
    </g>
    <g id="ytick_6">
     <g id="line2d_12">
      <path clip-path="url(#p8a0358ef97)" d="M 45 43.2 
L 324 43.2 
" style="fill:none;stroke:#cccccc;stroke-linecap:round;"/>
     </g>
     <g id="text_13">
      <!-- 1.0 -->
      <g style="fill:#262626;" transform="translate(20.21 47.136797)scale(0.11 -0.11)">
       <use xlink:href="#ArialMT-31"/>
       <use x="55.615234" xlink:href="#ArialMT-2e"/>
       <use x="83.398438" xlink:href="#ArialMT-30"/>
      </g>
     </g>
    </g>
    <g id="text_14">
     <!-- 1-NN Euclidean Distance -->
     <g style="fill:#1a1a1a;" transform="translate(13.825 248.828437)rotate(-90)scale(0.12 -0.12)">
      <defs>
       <path d="M 203 1375 
L 203 1941 
L 1931 1941 
L 1931 1375 
L 203 1375 
z
" id="ArialMT-2d" transform="scale(0.015625)"/>
       <path d="M 488 0 
L 488 4581 
L 1109 4581 
L 3516 984 
L 3516 4581 
L 4097 4581 
L 4097 0 
L 3475 0 
L 1069 3600 
L 1069 0 
L 488 0 
z
" id="ArialMT-4e" transform="scale(0.015625)"/>
       <path d="M 506 0 
L 506 4581 
L 3819 4581 
L 3819 4041 
L 1113 4041 
L 1113 2638 
L 3647 2638 
L 3647 2100 
L 1113 2100 
L 1113 541 
L 3925 541 
L 3925 0 
L 506 0 
z
" id="ArialMT-45" transform="scale(0.015625)"/>
       <path d="M 2597 0 
L 2597 488 
Q 2209 -75 1544 -75 
Q 1250 -75 995 37 
Q 741 150 617 320 
Q 494 491 444 738 
Q 409 903 409 1263 
L 409 3319 
L 972 3319 
L 972 1478 
Q 972 1038 1006 884 
Q 1059 663 1231 536 
Q 1403 409 1656 409 
Q 1909 409 2131 539 
Q 2353 669 2445 892 
Q 2538 1116 2538 1541 
L 2538 3319 
L 3100 3319 
L 3100 0 
L 2597 0 
z
" id="ArialMT-75" transform="scale(0.015625)"/>
       <path d="M 2588 1216 
L 3141 1144 
Q 3050 572 2676 248 
Q 2303 -75 1759 -75 
Q 1078 -75 664 370 
Q 250 816 250 1647 
Q 250 2184 428 2587 
Q 606 2991 970 3192 
Q 1334 3394 1763 3394 
Q 2303 3394 2647 3120 
Q 2991 2847 3088 2344 
L 2541 2259 
Q 2463 2594 2264 2762 
Q 2066 2931 1784 2931 
Q 1359 2931 1093 2626 
Q 828 2322 828 1663 
Q 828 994 1084 691 
Q 1341 388 1753 388 
Q 2084 388 2306 591 
Q 2528 794 2588 1216 
z
" id="ArialMT-63" transform="scale(0.015625)"/>
       <path d="M 409 0 
L 409 4581 
L 972 4581 
L 972 0 
L 409 0 
z
" id="ArialMT-6c" transform="scale(0.015625)"/>
       <path d="M 2575 0 
L 2575 419 
Q 2259 -75 1647 -75 
Q 1250 -75 917 144 
Q 584 363 401 755 
Q 219 1147 219 1656 
Q 219 2153 384 2558 
Q 550 2963 881 3178 
Q 1213 3394 1622 3394 
Q 1922 3394 2156 3267 
Q 2391 3141 2538 2938 
L 2538 4581 
L 3097 4581 
L 3097 0 
L 2575 0 
z
M 797 1656 
Q 797 1019 1065 703 
Q 1334 388 1700 388 
Q 2069 388 2326 689 
Q 2584 991 2584 1609 
Q 2584 2291 2321 2609 
Q 2059 2928 1675 2928 
Q 1300 2928 1048 2622 
Q 797 2316 797 1656 
z
" id="ArialMT-64" transform="scale(0.015625)"/>
       <path d="M 2694 1069 
L 3275 997 
Q 3138 488 2766 206 
Q 2394 -75 1816 -75 
Q 1088 -75 661 373 
Q 234 822 234 1631 
Q 234 2469 665 2931 
Q 1097 3394 1784 3394 
Q 2450 3394 2872 2941 
Q 3294 2488 3294 1666 
Q 3294 1616 3291 1516 
L 816 1516 
Q 847 969 1125 678 
Q 1403 388 1819 388 
Q 2128 388 2347 550 
Q 2566 713 2694 1069 
z
M 847 1978 
L 2700 1978 
Q 2663 2397 2488 2606 
Q 2219 2931 1791 2931 
Q 1403 2931 1139 2672 
Q 875 2413 847 1978 
z
" id="ArialMT-65" transform="scale(0.015625)"/>
       <path d="M 2588 409 
Q 2275 144 1986 34 
Q 1697 -75 1366 -75 
Q 819 -75 525 192 
Q 231 459 231 875 
Q 231 1119 342 1320 
Q 453 1522 633 1644 
Q 813 1766 1038 1828 
Q 1203 1872 1538 1913 
Q 2219 1994 2541 2106 
Q 2544 2222 2544 2253 
Q 2544 2597 2384 2738 
Q 2169 2928 1744 2928 
Q 1347 2928 1158 2789 
Q 969 2650 878 2297 
L 328 2372 
Q 403 2725 575 2942 
Q 747 3159 1072 3276 
Q 1397 3394 1825 3394 
Q 2250 3394 2515 3294 
Q 2781 3194 2906 3042 
Q 3031 2891 3081 2659 
Q 3109 2516 3109 2141 
L 3109 1391 
Q 3109 606 3145 398 
Q 3181 191 3288 0 
L 2700 0 
Q 2613 175 2588 409 
z
M 2541 1666 
Q 2234 1541 1622 1453 
Q 1275 1403 1131 1340 
Q 988 1278 909 1158 
Q 831 1038 831 891 
Q 831 666 1001 516 
Q 1172 366 1500 366 
Q 1825 366 2078 508 
Q 2331 650 2450 897 
Q 2541 1088 2541 1459 
L 2541 1666 
z
" id="ArialMT-61" transform="scale(0.015625)"/>
       <path d="M 422 0 
L 422 3319 
L 928 3319 
L 928 2847 
Q 1294 3394 1984 3394 
Q 2284 3394 2536 3286 
Q 2788 3178 2913 3003 
Q 3038 2828 3088 2588 
Q 3119 2431 3119 2041 
L 3119 0 
L 2556 0 
L 2556 2019 
Q 2556 2363 2490 2533 
Q 2425 2703 2258 2804 
Q 2091 2906 1866 2906 
Q 1506 2906 1245 2678 
Q 984 2450 984 1813 
L 984 0 
L 422 0 
z
" id="ArialMT-6e" transform="scale(0.015625)"/>
       <path d="M 197 991 
L 753 1078 
Q 800 744 1014 566 
Q 1228 388 1613 388 
Q 2000 388 2187 545 
Q 2375 703 2375 916 
Q 2375 1106 2209 1216 
Q 2094 1291 1634 1406 
Q 1016 1563 777 1677 
Q 538 1791 414 1992 
Q 291 2194 291 2438 
Q 291 2659 392 2848 
Q 494 3038 669 3163 
Q 800 3259 1026 3326 
Q 1253 3394 1513 3394 
Q 1903 3394 2198 3281 
Q 2494 3169 2634 2976 
Q 2775 2784 2828 2463 
L 2278 2388 
Q 2241 2644 2061 2787 
Q 1881 2931 1553 2931 
Q 1166 2931 1000 2803 
Q 834 2675 834 2503 
Q 834 2394 903 2306 
Q 972 2216 1119 2156 
Q 1203 2125 1616 2013 
Q 2213 1853 2448 1751 
Q 2684 1650 2818 1456 
Q 2953 1263 2953 975 
Q 2953 694 2789 445 
Q 2625 197 2315 61 
Q 2006 -75 1616 -75 
Q 969 -75 630 194 
Q 291 463 197 991 
z
" id="ArialMT-73" transform="scale(0.015625)"/>
      </defs>
      <use xlink:href="#ArialMT-31"/>
      <use x="55.615234" xlink:href="#ArialMT-2d"/>
      <use x="88.916016" xlink:href="#ArialMT-4e"/>
      <use x="161.132812" xlink:href="#ArialMT-4e"/>
      <use x="233.349609" xlink:href="#ArialMT-20"/>
      <use x="261.132812" xlink:href="#ArialMT-45"/>
      <use x="327.832031" xlink:href="#ArialMT-75"/>
      <use x="383.447266" xlink:href="#ArialMT-63"/>
      <use x="433.447266" xlink:href="#ArialMT-6c"/>
      <use x="455.664062" xlink:href="#ArialMT-69"/>
      <use x="477.880859" xlink:href="#ArialMT-64"/>
      <use x="533.496094" xlink:href="#ArialMT-65"/>
      <use x="589.111328" xlink:href="#ArialMT-61"/>
      <use x="644.726562" xlink:href="#ArialMT-6e"/>
      <use x="700.341797" xlink:href="#ArialMT-20"/>
      <use x="728.125" xlink:href="#ArialMT-44"/>
      <use x="800.341797" xlink:href="#ArialMT-69"/>
      <use x="822.558594" xlink:href="#ArialMT-73"/>
      <use x="872.558594" xlink:href="#ArialMT-74"/>
      <use x="900.341797" xlink:href="#ArialMT-61"/>
      <use x="955.957031" xlink:href="#ArialMT-6e"/>
      <use x="1011.572266" xlink:href="#ArialMT-63"/>
      <use x="1061.572266" xlink:href="#ArialMT-65"/>
     </g>
    </g>
   </g>
   <g id="PathCollection_1">
    <defs>
     <path d="M 0 1.581139 
C 0.419323 1.581139 0.821528 1.41454 1.118034 1.118034 
C 1.41454 0.821528 1.581139 0.419323 1.581139 -0 
C 1.581139 -0.419323 1.41454 -0.821528 1.118034 -1.118034 
C 0.821528 -1.41454 0.419323 -1.581139 0 -1.581139 
C -0.419323 -1.581139 -0.821528 -1.41454 -1.118034 -1.118034 
C -1.41454 -0.821528 -1.581139 -0.419323 -1.581139 0 
C -1.581139 0.419323 -1.41454 0.821528 -1.118034 1.118034 
C -0.821528 1.41454 -0.419323 1.581139 0 1.581139 
z
" id="C0_0_26ad6ba500"/>
    </defs>
    <g clip-path="url(#p8a0358ef97)">
     <use style="fill:#40ccd3;stroke:#40ccd3;stroke-width:2;" x="251.46" xlink:href="#C0_0_26ad6ba500" y="170.712"/>
    </g>
    <g clip-path="url(#p8a0358ef97)">
     <use style="fill:#d96d46;stroke:#d96d46;stroke-width:2;" x="152.033248" xlink:href="#C0_0_26ad6ba500" y="150.960614"/>
    </g>
    <g clip-path="url(#p8a0358ef97)">
     <use style="fill:#fda204;stroke:#fda204;stroke-width:2;" x="249.068571" xlink:href="#C0_0_26ad6ba500" y="98.64"/>
    </g>
    <g clip-path="url(#p8a0358ef97)">
     <use style="fill:#40dbd1;stroke:#40dbd1;stroke-width:2;" x="324" xlink:href="#C0_0_26ad6ba500" y="91.248"/>
    </g>
    <g clip-path="url(#p8a0358ef97)">
     <use style="fill:#77cf94;stroke:#77cf94;stroke-width:2;" x="258.9" xlink:href="#C0_0_26ad6ba500" y="135.6"/>
    </g>
    <g clip-path="url(#p8a0358ef97)">
     <use style="fill:#40b0d7;stroke:#40b0d7;stroke-width:2;" x="324" xlink:href="#C0_0_26ad6ba500" y="112.5"/>
    </g>
    <g clip-path="url(#p8a0358ef97)">
     <use style="fill:#4d65db;stroke:#4d65db;stroke-width:2;" x="324" xlink:href="#C0_0_26ad6ba500" y="167.94"/>
    </g>
    <g clip-path="url(#p8a0358ef97)">
     <use style="fill:#62d5aa;stroke:#62d5aa;stroke-width:2;" x="317.18" xlink:href="#C0_0_26ad6ba500" y="84.164"/>
    </g>
    <g clip-path="url(#p8a0358ef97)">
     <use style="fill:#92c776;stroke:#92c776;stroke-width:2;" x="268.2" xlink:href="#C0_0_26ad6ba500" y="117.12"/>
    </g>
    <g clip-path="url(#p8a0358ef97)">
     <use style="fill:#e9ac18;stroke:#e9ac18;stroke-width:2;" x="299.597668" xlink:href="#C0_0_26ad6ba500" y="58.555102"/>
    </g>
    <g clip-path="url(#p8a0358ef97)">
     <use style="fill:#d1b332;stroke:#d1b332;stroke-width:2;" x="224.969531" xlink:href="#C0_0_26ad6ba500" y="140.22"/>
    </g>
    <g clip-path="url(#p8a0358ef97)">
     <use style="fill:#ceb435;stroke:#ceb435;stroke-width:2;" x="324" xlink:href="#C0_0_26ad6ba500" y="43.2"/>
    </g>
    <g clip-path="url(#p8a0358ef97)">
     <use style="fill:#40bcd5;stroke:#40bcd5;stroke-width:2;" x="270.432" xlink:href="#C0_0_26ad6ba500" y="160.7328"/>
    </g>
    <g clip-path="url(#p8a0358ef97)">
     <use style="fill:#e0ae21;stroke:#e0ae21;stroke-width:2;" x="200.238462" xlink:href="#C0_0_26ad6ba500" y="160.476923"/>
    </g>
    <g clip-path="url(#p8a0358ef97)">
     <use style="fill:#ddaf25;stroke:#ddaf25;stroke-width:2;" x="198.092308" xlink:href="#C0_0_26ad6ba500" y="163.32"/>
    </g>
    <g clip-path="url(#p8a0358ef97)">
     <use style="fill:#bfb945;stroke:#bfb945;stroke-width:2;" x="213.115385" xlink:href="#C0_0_26ad6ba500" y="157.633846"/>
    </g>
    <g clip-path="url(#p8a0358ef97)">
     <use style="fill:#e47d32;stroke:#e47d32;stroke-width:2;" x="198.865179" xlink:href="#C0_0_26ad6ba500" y="118.539"/>
    </g>
    <g clip-path="url(#p8a0358ef97)">
     <use style="fill:#f5a80b;stroke:#f5a80b;stroke-width:2;" x="293" xlink:href="#C0_0_26ad6ba500" y="61.317647"/>
    </g>
    <g clip-path="url(#p8a0358ef97)">
     <use style="fill:#40dbd1;stroke:#40dbd1;stroke-width:2;" x="267.798561" xlink:href="#C0_0_26ad6ba500" y="146.900719"/>
    </g>
    <g clip-path="url(#p8a0358ef97)">
     <use style="fill:#95c673;stroke:#95c673;stroke-width:2;" x="263.347826" xlink:href="#C0_0_26ad6ba500" y="121.53913"/>
    </g>
    <g clip-path="url(#p8a0358ef97)">
     <use style="fill:#95c673;stroke:#95c673;stroke-width:2;" x="239.697842" xlink:href="#C0_0_26ad6ba500" y="144.906475"/>
    </g>
    <g clip-path="url(#p8a0358ef97)">
     <use style="fill:#fea401;stroke:#fea401;stroke-width:2;" x="273.78" xlink:href="#C0_0_26ad6ba500" y="76.464"/>
    </g>
    <g clip-path="url(#p8a0358ef97)">
     <use style="fill:#c5b73f;stroke:#c5b73f;stroke-width:2;" x="305.648" xlink:href="#C0_0_26ad6ba500" y="64.0208"/>
    </g>
    <g clip-path="url(#p8a0358ef97)">
     <use style="fill:#40ddd0;stroke:#40ddd0;stroke-width:2;" x="313.954704" xlink:href="#C0_0_26ad6ba500" y="99.541463"/>
    </g>
    <g clip-path="url(#p8a0358ef97)">
     <use style="fill:#74d097;stroke:#74d097;stroke-width:2;" x="196.831492" xlink:href="#C0_0_26ad6ba500" y="197.880663"/>
    </g>
    <g clip-path="url(#p8a0358ef97)">
     <use style="fill:#40dbd1;stroke:#40dbd1;stroke-width:2;" x="193.748619" xlink:href="#C0_0_26ad6ba500" y="220.087293"/>
    </g>
    <g clip-path="url(#p8a0358ef97)">
     <use style="fill:#7dcd8d;stroke:#7dcd8d;stroke-width:2;" x="269.805755" xlink:href="#C0_0_26ad6ba500" y="122.969784"/>
    </g>
    <g clip-path="url(#p8a0358ef97)">
     <use style="fill:#40bcd5;stroke:#40bcd5;stroke-width:2;" x="186.174" xlink:href="#C0_0_26ad6ba500" y="244.4472"/>
    </g>
    <g clip-path="url(#p8a0358ef97)">
     <use style="fill:#8cc87d;stroke:#8cc87d;stroke-width:2;" x="265.393491" xlink:href="#C0_0_26ad6ba500" y="122.587456"/>
    </g>
    <g clip-path="url(#p8a0358ef97)">
     <use style="fill:#fda204;stroke:#fda204;stroke-width:2;" x="241.38878" xlink:href="#C0_0_26ad6ba500" y="107.158829"/>
    </g>
    <g clip-path="url(#p8a0358ef97)">
     <use style="fill:#ddaf25;stroke:#ddaf25;stroke-width:2;" x="216.079121" xlink:href="#C0_0_26ad6ba500" y="145.550769"/>
    </g>
    <g clip-path="url(#p8a0358ef97)">
     <use style="fill:#6ed29d;stroke:#6ed29d;stroke-width:2;" x="293.708571" xlink:href="#C0_0_26ad6ba500" y="103.392"/>
    </g>
    <g clip-path="url(#p8a0358ef97)">
     <use style="fill:#40ddd0;stroke:#40ddd0;stroke-width:2;" x="277.077273" xlink:href="#C0_0_26ad6ba500" y="136.02"/>
    </g>
    <g clip-path="url(#p8a0358ef97)">
     <use style="fill:#86ca83;stroke:#86ca83;stroke-width:2;" x="237.2" xlink:href="#C0_0_26ad6ba500" y="152.368889"/>
    </g>
    <g clip-path="url(#p8a0358ef97)">
     <use style="fill:#40d9d1;stroke:#40d9d1;stroke-width:2;" x="318.713684" xlink:href="#C0_0_26ad6ba500" y="97.278316"/>
    </g>
    <g clip-path="url(#p8a0358ef97)">
     <use style="fill:#4193db;stroke:#4193db;stroke-width:2;" x="319.203158" xlink:href="#C0_0_26ad6ba500" y="133.071158"/>
    </g>
    <g clip-path="url(#p8a0358ef97)">
     <use style="fill:#fca105;stroke:#fca105;stroke-width:2;" x="259.5" xlink:href="#C0_0_26ad6ba500" y="87.909677"/>
    </g>
    <g clip-path="url(#p8a0358ef97)">
     <use style="fill:#89c980;stroke:#89c980;stroke-width:2;" x="322.14" xlink:href="#C0_0_26ad6ba500" y="67.224"/>
    </g>
    <g clip-path="url(#p8a0358ef97)">
     <use style="fill:#b6bb4f;stroke:#b6bb4f;stroke-width:2;" x="322.234177" xlink:href="#C0_0_26ad6ba500" y="51.972152"/>
    </g>
    <g clip-path="url(#p8a0358ef97)">
     <use style="fill:#e0ae21;stroke:#e0ae21;stroke-width:2;" x="316.053797" xlink:href="#C0_0_26ad6ba500" y="44.95443"/>
    </g>
    <g clip-path="url(#p8a0358ef97)">
     <use style="fill:#e6ad1b;stroke:#e6ad1b;stroke-width:2;" x="316.028571" xlink:href="#C0_0_26ad6ba500" y="43.2"/>
    </g>
    <g clip-path="url(#p8a0358ef97)">
     <use style="fill:#41e0ce;stroke:#41e0ce;stroke-width:2;" x="257.571429" xlink:href="#C0_0_26ad6ba500" y="154.08"/>
    </g>
    <g clip-path="url(#p8a0358ef97)">
     <use style="fill:#cbb538;stroke:#cbb538;stroke-width:2;" x="286.297297" xlink:href="#C0_0_26ad6ba500" y="81.408649"/>
    </g>
    <g clip-path="url(#p8a0358ef97)">
     <use style="fill:#aabf5c;stroke:#aabf5c;stroke-width:2;" x="159.136364" xlink:href="#C0_0_26ad6ba500" y="217.8"/>
    </g>
    <g clip-path="url(#p8a0358ef97)">
     <use style="fill:#40cbd3;stroke:#40cbd3;stroke-width:2;" x="245.53125" xlink:href="#C0_0_26ad6ba500" y="177.46875"/>
    </g>
    <g clip-path="url(#p8a0358ef97)">
     <use style="fill:#419ada;stroke:#419ada;stroke-width:2;" x="316.966387" xlink:href="#C0_0_26ad6ba500" y="131.717647"/>
    </g>
    <g clip-path="url(#p8a0358ef97)">
     <use style="fill:#98c570;stroke:#98c570;stroke-width:2;" x="157.107273" xlink:href="#C0_0_26ad6ba500" y="225.648"/>
    </g>
    <g clip-path="url(#p8a0358ef97)">
     <use style="fill:#dab028;stroke:#dab028;stroke-width:2;" x="319.518072" xlink:href="#C0_0_26ad6ba500" y="43.2"/>
    </g>
    <g clip-path="url(#p8a0358ef97)">
     <use style="fill:#e6ad1b;stroke:#e6ad1b;stroke-width:2;" x="316.156627" xlink:href="#C0_0_26ad6ba500" y="43.2"/>
    </g>
    <g clip-path="url(#p8a0358ef97)">
     <use style="fill:#f0901b;stroke:#f0901b;stroke-width:2;" x="167.731818" xlink:href="#C0_0_26ad6ba500" y="164.72"/>
    </g>
    <g clip-path="url(#p8a0358ef97)">
     <use style="fill:#ceb435;stroke:#ceb435;stroke-width:2;" x="310.985423" xlink:href="#C0_0_26ad6ba500" y="55.591837"/>
    </g>
    <g clip-path="url(#p8a0358ef97)">
     <use style="fill:#4169e1;stroke:#4169e1;stroke-width:2;" x="289.032" xlink:href="#C0_0_26ad6ba500" y="183.648"/>
    </g>
    <g clip-path="url(#p8a0358ef97)">
     <use style="fill:#86ca83;stroke:#86ca83;stroke-width:2;" x="278.262295" xlink:href="#C0_0_26ad6ba500" y="111.363934"/>
    </g>
    <g clip-path="url(#p8a0358ef97)">
     <use style="fill:#56d9b8;stroke:#56d9b8;stroke-width:2;" x="243.739726" xlink:href="#C0_0_26ad6ba500" y="160.915068"/>
    </g>
    <g clip-path="url(#p8a0358ef97)">
     <use style="fill:#e6ad1b;stroke:#e6ad1b;stroke-width:2;" x="292.471215" xlink:href="#C0_0_26ad6ba500" y="66.96"/>
    </g>
    <g clip-path="url(#p8a0358ef97)">
     <use style="fill:#ceb435;stroke:#ceb435;stroke-width:2;" x="305.4" xlink:href="#C0_0_26ad6ba500" y="61.68"/>
    </g>
    <g clip-path="url(#p8a0358ef97)">
     <use style="fill:#ceb435;stroke:#ceb435;stroke-width:2;" x="235.160526" xlink:href="#C0_0_26ad6ba500" y="130.736842"/>
    </g>
    <g clip-path="url(#p8a0358ef97)">
     <use style="fill:#cd5c5c;stroke:#cd5c5c;stroke-width:2;" x="230.656827" xlink:href="#C0_0_26ad6ba500" y="58.42952"/>
    </g>
    <g clip-path="url(#p8a0358ef97)">
     <use style="fill:#4addc5;stroke:#4addc5;stroke-width:2;" x="231.603896" xlink:href="#C0_0_26ad6ba500" y="176.4"/>
    </g>
    <g clip-path="url(#p8a0358ef97)">
     <use style="fill:#bfb945;stroke:#bfb945;stroke-width:2;" x="263.597938" xlink:href="#C0_0_26ad6ba500" y="107.975258"/>
    </g>
    <g clip-path="url(#p8a0358ef97)">
     <use style="fill:#83cb87;stroke:#83cb87;stroke-width:2;" x="211.675325" xlink:href="#C0_0_26ad6ba500" y="178.2"/>
    </g>
    <g clip-path="url(#p8a0358ef97)">
     <use style="fill:#a7c05f;stroke:#a7c05f;stroke-width:2;" x="307.777732" xlink:href="#C0_0_26ad6ba500" y="71.66301"/>
    </g>
    <g clip-path="url(#p8a0358ef97)">
     <use style="fill:#adbe59;stroke:#adbe59;stroke-width:2;" x="287.988866" xlink:href="#C0_0_26ad6ba500" y="88.809402"/>
    </g>
    <g clip-path="url(#p8a0358ef97)">
     <use style="fill:#d6694c;stroke:#d6694c;stroke-width:2;" x="209.276336" xlink:href="#C0_0_26ad6ba500" y="90.599084"/>
    </g>
    <g clip-path="url(#p8a0358ef97)">
     <use style="fill:#df763b;stroke:#df763b;stroke-width:2;" x="235.259542" xlink:href="#C0_0_26ad6ba500" y="76.492214"/>
    </g>
    <g clip-path="url(#p8a0358ef97)">
     <use style="fill:#4169e1;stroke:#4169e1;stroke-width:2;" x="297.483471" xlink:href="#C0_0_26ad6ba500" y="176.072727"/>
    </g>
    <g clip-path="url(#p8a0358ef97)">
     <use style="fill:#b0bd56;stroke:#b0bd56;stroke-width:2;" x="296.1" xlink:href="#C0_0_26ad6ba500" y="80.16"/>
    </g>
    <g clip-path="url(#p8a0358ef97)">
     <use style="fill:#e3ae1e;stroke:#e3ae1e;stroke-width:2;" x="250.51049" xlink:href="#C0_0_26ad6ba500" y="109.430769"/>
    </g>
    <g clip-path="url(#p8a0358ef97)">
     <use style="fill:#40c5d4;stroke:#40c5d4;stroke-width:2;" x="134.615506" xlink:href="#C0_0_26ad6ba500" y="290.136076"/>
    </g>
    <g clip-path="url(#p8a0358ef97)">
     <use style="fill:#416be1;stroke:#416be1;stroke-width:2;" x="176.451923" xlink:href="#C0_0_26ad6ba500" y="295.078846"/>
    </g>
    <g clip-path="url(#p8a0358ef97)">
     <use style="fill:#6a5acd;stroke:#6a5acd;stroke-width:2;" x="294.490385" xlink:href="#C0_0_26ad6ba500" y="240.438462"/>
    </g>
    <g clip-path="url(#p8a0358ef97)">
     <use style="fill:#695ace;stroke:#695ace;stroke-width:2;" x="250.225962" xlink:href="#C0_0_26ad6ba500" y="281.751923"/>
    </g>
    <g clip-path="url(#p8a0358ef97)">
     <use style="fill:#adbe59;stroke:#adbe59;stroke-width:2;" x="324" xlink:href="#C0_0_26ad6ba500" y="53.76"/>
    </g>
    <g clip-path="url(#p8a0358ef97)">
     <use style="fill:#f89b0d;stroke:#f89b0d;stroke-width:2;" x="293" xlink:href="#C0_0_26ad6ba500" y="49.36"/>
    </g>
    <g clip-path="url(#p8a0358ef97)">
     <use style="fill:#77cf94;stroke:#77cf94;stroke-width:2;" x="291.336585" xlink:href="#C0_0_26ad6ba500" y="102.696585"/>
    </g>
    <g clip-path="url(#p8a0358ef97)">
     <use style="fill:#cbb538;stroke:#cbb538;stroke-width:2;" x="271.268041" xlink:href="#C0_0_26ad6ba500" y="96.54433"/>
    </g>
    <g clip-path="url(#p8a0358ef97)">
     <use style="fill:#89c980;stroke:#89c980;stroke-width:2;" x="264.117073" xlink:href="#C0_0_26ad6ba500" y="124.331707"/>
    </g>
    <g clip-path="url(#p8a0358ef97)">
     <use style="fill:#40c7d4;stroke:#40c7d4;stroke-width:2;" x="213.888" xlink:href="#C0_0_26ad6ba500" y="210.9984"/>
    </g>
    <g clip-path="url(#p8a0358ef97)">
     <use style="fill:#53dabb;stroke:#53dabb;stroke-width:2;" x="262.62" xlink:href="#C0_0_26ad6ba500" y="142.992"/>
    </g>
    <g clip-path="url(#p8a0358ef97)">
     <use style="fill:#40a7d8;stroke:#40a7d8;stroke-width:2;" x="220.584" xlink:href="#C0_0_26ad6ba500" y="220.608"/>
    </g>
    <g clip-path="url(#p8a0358ef97)">
     <use style="fill:#f49514;stroke:#f49514;stroke-width:2;" x="265.875" xlink:href="#C0_0_26ad6ba500" y="71.382"/>
    </g>
    <g clip-path="url(#p8a0358ef97)">
     <use style="fill:#e57f2f;stroke:#e57f2f;stroke-width:2;" x="164.04" xlink:href="#C0_0_26ad6ba500" y="154.696"/>
    </g>
    <g clip-path="url(#p8a0358ef97)">
     <use style="fill:#e6812e;stroke:#e6812e;stroke-width:2;" x="218.6" xlink:href="#C0_0_26ad6ba500" y="101.104"/>
    </g>
    <g clip-path="url(#p8a0358ef97)">
     <use style="fill:#4e64da;stroke:#4e64da;stroke-width:2;" x="322.45" xlink:href="#C0_0_26ad6ba500" y="171.02"/>
    </g>
    <g clip-path="url(#p8a0358ef97)">
     <use style="fill:#c5b73f;stroke:#c5b73f;stroke-width:2;" x="257.04" xlink:href="#C0_0_26ad6ba500" y="112.038"/>
    </g>
    <g clip-path="url(#p8a0358ef97)">
     <use style="fill:#5362d8;stroke:#5362d8;stroke-width:2;" x="274.152" xlink:href="#C0_0_26ad6ba500" y="225.7824"/>
    </g>
    <g clip-path="url(#p8a0358ef97)">
     <use style="fill:#f79910;stroke:#f79910;stroke-width:2;" x="284.94" xlink:href="#C0_0_26ad6ba500" y="56.136"/>
    </g>
    <g clip-path="url(#p8a0358ef97)">
     <use style="fill:#62d5aa;stroke:#62d5aa;stroke-width:2;" x="273.399334" xlink:href="#C0_0_26ad6ba500" y="127.605324"/>
    </g>
    <g clip-path="url(#p8a0358ef97)">
     <use style="fill:#ceb435;stroke:#ceb435;stroke-width:2;" x="284.47744" xlink:href="#C0_0_26ad6ba500" y="82.176705"/>
    </g>
    <g clip-path="url(#p8a0358ef97)">
     <use style="fill:#5fd6ae;stroke:#5fd6ae;stroke-width:2;" x="317.360369" xlink:href="#C0_0_26ad6ba500" y="85.103108"/>
    </g>
    <g clip-path="url(#p8a0358ef97)">
     <use style="fill:#e0ae21;stroke:#e0ae21;stroke-width:2;" x="302.886486" xlink:href="#C0_0_26ad6ba500" y="58.183784"/>
    </g>
    <g clip-path="url(#p8a0358ef97)">
     <use style="fill:#83cb87;stroke:#83cb87;stroke-width:2;" x="289.1808" xlink:href="#C0_0_26ad6ba500" y="101.74464"/>
    </g>
    <g clip-path="url(#p8a0358ef97)">
     <use style="fill:#aabf5c;stroke:#aabf5c;stroke-width:2;" x="307.456281" xlink:href="#C0_0_26ad6ba500" y="71.059296"/>
    </g>
    <g clip-path="url(#p8a0358ef97)">
     <use style="fill:#89c980;stroke:#89c980;stroke-width:2;" x="311.91" xlink:href="#C0_0_26ad6ba500" y="76.464"/>
    </g>
    <g clip-path="url(#p8a0358ef97)">
     <use style="fill:#40abd8;stroke:#40abd8;stroke-width:2;" x="308.092105" xlink:href="#C0_0_26ad6ba500" y="131.952632"/>
    </g>
    <g clip-path="url(#p8a0358ef97)">
     <use style="fill:#68d4a4;stroke:#68d4a4;stroke-width:2;" x="302.538462" xlink:href="#C0_0_26ad6ba500" y="96.507692"/>
    </g>
    <g clip-path="url(#p8a0358ef97)">
     <use style="fill:#40b6d6;stroke:#40b6d6;stroke-width:2;" x="324" xlink:href="#C0_0_26ad6ba500" y="109.728"/>
    </g>
    <g clip-path="url(#p8a0358ef97)">
     <use style="fill:#40c9d3;stroke:#40c9d3;stroke-width:2;" x="310.772608" xlink:href="#C0_0_26ad6ba500" y="113.290957"/>
    </g>
    <g clip-path="url(#p8a0358ef97)">
     <use style="fill:#7dcd8d;stroke:#7dcd8d;stroke-width:2;" x="324" xlink:href="#C0_0_26ad6ba500" y="69.0489"/>
    </g>
    <g clip-path="url(#p8a0358ef97)">
     <use style="fill:#40d2d2;stroke:#40d2d2;stroke-width:2;" x="322.0625" xlink:href="#C0_0_26ad6ba500" y="97.1"/>
    </g>
    <g clip-path="url(#p8a0358ef97)">
     <use style="fill:#f0901b;stroke:#f0901b;stroke-width:2;" x="275.396985" xlink:href="#C0_0_26ad6ba500" y="57.59397"/>
    </g>
    <g clip-path="url(#p8a0358ef97)">
     <use style="fill:#e0ae21;stroke:#e0ae21;stroke-width:2;" x="244.942211" xlink:href="#C0_0_26ad6ba500" y="115.479397"/>
    </g>
    <g clip-path="url(#p8a0358ef97)">
     <use style="fill:#fea303;stroke:#fea303;stroke-width:2;" x="212.306533" xlink:href="#C0_0_26ad6ba500" y="136.992965"/>
    </g>
    <g clip-path="url(#p8a0358ef97)">
     <use style="fill:#c8b63c;stroke:#c8b63c;stroke-width:2;" x="323.909474" xlink:href="#C0_0_26ad6ba500" y="44.459182"/>
    </g>
    <g clip-path="url(#p8a0358ef97)">
     <use style="fill:#40ddd0;stroke:#40ddd0;stroke-width:2;" x="262" xlink:href="#C0_0_26ad6ba500" y="151"/>
    </g>
    <g clip-path="url(#p8a0358ef97)">
     <use style="fill:#f89b0d;stroke:#f89b0d;stroke-width:2;" x="192.808777" xlink:href="#C0_0_26ad6ba500" y="149.213793"/>
    </g>
    <g clip-path="url(#p8a0358ef97)">
     <use style="fill:#c5b73f;stroke:#c5b73f;stroke-width:2;" x="278.802" xlink:href="#C0_0_26ad6ba500" y="90.2316"/>
    </g>
   </g>
   <g id="line2d_13">
    <path clip-path="url(#p8a0358ef97)" d="M 45 320.4 
L 324 43.2 
" style="fill:none;stroke:#1a1a1a;stroke-linecap:round;stroke-width:1.5;"/>
   </g>
   <g id="patch_3">
    <path d="M 45 320.4 
L 45 43.2 
" style="fill:none;stroke:#cccccc;stroke-linecap:square;stroke-linejoin:miter;stroke-width:1.25;"/>
   </g>
   <g id="patch_4">
    <path d="M 324 320.4 
L 324 43.2 
" style="fill:none;stroke:#cccccc;stroke-linecap:square;stroke-linejoin:miter;stroke-width:1.25;"/>
   </g>
   <g id="patch_5">
    <path d="M 45 320.4 
L 324 320.4 
" style="fill:none;stroke:#cccccc;stroke-linecap:square;stroke-linejoin:miter;stroke-width:1.25;"/>
   </g>
   <g id="patch_6">
    <path d="M 45 43.2 
L 324 43.2 
" style="fill:none;stroke:#cccccc;stroke-linecap:square;stroke-linejoin:miter;stroke-width:1.25;"/>
   </g>
  </g>
 </g>
 <defs>
  <clipPath id="p8a0358ef97">
   <rect height="277.2" width="279" x="45" y="43.2"/>
  </clipPath>
 </defs>
</svg>
