<?xml version="1.0" encoding="utf-8" standalone="no"?>
<!DOCTYPE svg PUBLIC "-//W3C//DTD SVG 1.1//EN"
  "http://www.w3.org/Graphics/SVG/1.1/DTD/svg11.dtd">
<svg height="702pt" version="1.1" viewBox="0 0 1382.4 702" width="1382.4pt" xmlns="http://www.w3.org/2000/svg" xmlns:xlink="http://www.w3.org/1999/xlink">
 <metadata>
  <rdf:RDF xmlns:cc="http://creativecommons.org/ns#" xmlns:dc="http://purl.org/dc/elements/1.1/" xmlns:rdf="http://www.w3.org/1999/02/22-rdf-syntax-ns#">
   <cc:Work>
    <dc:type rdf:resource="http://purl.org/dc/dcmitype/StillImage"/>
    <dc:date>2022-10-28T17:22:22.397008</dc:date>
    <dc:format>image/svg+xml</dc:format>
    <dc:creator>
     <cc:Agent>
      <dc:title>Matplotlib v3.4.2, https://matplotlib.org/</dc:title>
     </cc:Agent>
    </dc:creator>
   </cc:Work>
  </rdf:RDF>
 </metadata>
 <defs>
  <style type="text/css">*{stroke-linecap:butt;stroke-linejoin:round;}</style>
 </defs>
 <g id="figure_1">
  <g id="patch_1">
   <path d="M 0 702 
L 1382.4 702 
L 1382.4 0 
L 0 0 
z
" style="fill:#ffffff;"/>
  </g>
  <g id="axes_1">
   <g id="patch_2">
    <path d="M 51.46 674.12 
L 1371.6 674.12 
L 1371.6 10.8 
L 51.46 10.8 
z
" style="fill:#ffffff;"/>
   </g>
   <g id="matplotlib.axis_1">
    <g id="xtick_1">
     <g id="line2d_1">
      <defs>
       <path d="M 0 0 
L 0 3.5 
" id="m7fa8af1adb" style="stroke:#000000;stroke-width:0.8;"/>
      </defs>
      <g>
       <use style="stroke:#000000;stroke-width:0.8;" x="111.466364" xlink:href="#m7fa8af1adb" y="674.12"/>
      </g>
     </g>
     <g id="text_1">
      <!-- 0 -->
      <g transform="translate(108.285114 688.718438)scale(0.1 -0.1)">
       <defs>
        <path d="M 2034 4250 
Q 1547 4250 1301 3770 
Q 1056 3291 1056 2328 
Q 1056 1369 1301 889 
Q 1547 409 2034 409 
Q 2525 409 2770 889 
Q 3016 1369 3016 2328 
Q 3016 3291 2770 3770 
Q 2525 4250 2034 4250 
z
M 2034 4750 
Q 2819 4750 3233 4129 
Q 3647 3509 3647 2328 
Q 3647 1150 3233 529 
Q 2819 -91 2034 -91 
Q 1250 -91 836 529 
Q 422 1150 422 2328 
Q 422 3509 836 4129 
Q 1250 4750 2034 4750 
z
" id="DejaVuSans-30" transform="scale(0.015625)"/>
       </defs>
       <use xlink:href="#DejaVuSans-30"/>
      </g>
     </g>
    </g>
    <g id="xtick_2">
     <g id="line2d_2">
      <g>
       <use style="stroke:#000000;stroke-width:0.8;" x="322.015008" xlink:href="#m7fa8af1adb" y="674.12"/>
      </g>
     </g>
     <g id="text_2">
      <!-- 50 -->
      <g transform="translate(315.652508 688.718438)scale(0.1 -0.1)">
       <defs>
        <path d="M 691 4666 
L 3169 4666 
L 3169 4134 
L 1269 4134 
L 1269 2991 
Q 1406 3038 1543 3061 
Q 1681 3084 1819 3084 
Q 2600 3084 3056 2656 
Q 3513 2228 3513 1497 
Q 3513 744 3044 326 
Q 2575 -91 1722 -91 
Q 1428 -91 1123 -41 
Q 819 9 494 109 
L 494 744 
Q 775 591 1075 516 
Q 1375 441 1709 441 
Q 2250 441 2565 725 
Q 2881 1009 2881 1497 
Q 2881 1984 2565 2268 
Q 2250 2553 1709 2553 
Q 1456 2553 1204 2497 
Q 953 2441 691 2322 
L 691 4666 
z
" id="DejaVuSans-35" transform="scale(0.015625)"/>
       </defs>
       <use xlink:href="#DejaVuSans-35"/>
       <use x="63.623047" xlink:href="#DejaVuSans-30"/>
      </g>
     </g>
    </g>
    <g id="xtick_3">
     <g id="line2d_3">
      <g>
       <use style="stroke:#000000;stroke-width:0.8;" x="532.563652" xlink:href="#m7fa8af1adb" y="674.12"/>
      </g>
     </g>
     <g id="text_3">
      <!-- 100 -->
      <g transform="translate(523.019902 688.718438)scale(0.1 -0.1)">
       <defs>
        <path d="M 794 531 
L 1825 531 
L 1825 4091 
L 703 3866 
L 703 4441 
L 1819 4666 
L 2450 4666 
L 2450 531 
L 3481 531 
L 3481 0 
L 794 0 
L 794 531 
z
" id="DejaVuSans-31" transform="scale(0.015625)"/>
       </defs>
       <use xlink:href="#DejaVuSans-31"/>
       <use x="63.623047" xlink:href="#DejaVuSans-30"/>
       <use x="127.246094" xlink:href="#DejaVuSans-30"/>
      </g>
     </g>
    </g>
    <g id="xtick_4">
     <g id="line2d_4">
      <g>
       <use style="stroke:#000000;stroke-width:0.8;" x="743.112297" xlink:href="#m7fa8af1adb" y="674.12"/>
      </g>
     </g>
     <g id="text_4">
      <!-- 150 -->
      <g transform="translate(733.568547 688.718438)scale(0.1 -0.1)">
       <use xlink:href="#DejaVuSans-31"/>
       <use x="63.623047" xlink:href="#DejaVuSans-35"/>
       <use x="127.246094" xlink:href="#DejaVuSans-30"/>
      </g>
     </g>
    </g>
    <g id="xtick_5">
     <g id="line2d_5">
      <g>
       <use style="stroke:#000000;stroke-width:0.8;" x="953.660941" xlink:href="#m7fa8af1adb" y="674.12"/>
      </g>
     </g>
     <g id="text_5">
      <!-- 200 -->
      <g transform="translate(944.117191 688.718438)scale(0.1 -0.1)">
       <defs>
        <path d="M 1228 531 
L 3431 531 
L 3431 0 
L 469 0 
L 469 531 
Q 828 903 1448 1529 
Q 2069 2156 2228 2338 
Q 2531 2678 2651 2914 
Q 2772 3150 2772 3378 
Q 2772 3750 2511 3984 
Q 2250 4219 1831 4219 
Q 1534 4219 1204 4116 
Q 875 4013 500 3803 
L 500 4441 
Q 881 4594 1212 4672 
Q 1544 4750 1819 4750 
Q 2544 4750 2975 4387 
Q 3406 4025 3406 3419 
Q 3406 3131 3298 2873 
Q 3191 2616 2906 2266 
Q 2828 2175 2409 1742 
Q 1991 1309 1228 531 
z
" id="DejaVuSans-32" transform="scale(0.015625)"/>
       </defs>
       <use xlink:href="#DejaVuSans-32"/>
       <use x="63.623047" xlink:href="#DejaVuSans-30"/>
       <use x="127.246094" xlink:href="#DejaVuSans-30"/>
      </g>
     </g>
    </g>
    <g id="xtick_6">
     <g id="line2d_6">
      <g>
       <use style="stroke:#000000;stroke-width:0.8;" x="1164.209585" xlink:href="#m7fa8af1adb" y="674.12"/>
      </g>
     </g>
     <g id="text_6">
      <!-- 250 -->
      <g transform="translate(1154.665835 688.718438)scale(0.1 -0.1)">
       <use xlink:href="#DejaVuSans-32"/>
       <use x="63.623047" xlink:href="#DejaVuSans-35"/>
       <use x="127.246094" xlink:href="#DejaVuSans-30"/>
      </g>
     </g>
    </g>
   </g>
   <g id="matplotlib.axis_2">
    <g id="ytick_1">
     <g id="line2d_7">
      <defs>
       <path d="M 0 0 
L -3.5 0 
" id="m2782a40436" style="stroke:#000000;stroke-width:0.8;"/>
      </defs>
      <g>
       <use style="stroke:#000000;stroke-width:0.8;" x="51.46" xlink:href="#m2782a40436" y="672.315328"/>
      </g>
     </g>
     <g id="text_7">
      <!-- −8000 -->
      <g transform="translate(10.630313 676.114546)scale(0.1 -0.1)">
       <defs>
        <path d="M 678 2272 
L 4684 2272 
L 4684 1741 
L 678 1741 
L 678 2272 
z
" id="DejaVuSans-2212" transform="scale(0.015625)"/>
        <path d="M 2034 2216 
Q 1584 2216 1326 1975 
Q 1069 1734 1069 1313 
Q 1069 891 1326 650 
Q 1584 409 2034 409 
Q 2484 409 2743 651 
Q 3003 894 3003 1313 
Q 3003 1734 2745 1975 
Q 2488 2216 2034 2216 
z
M 1403 2484 
Q 997 2584 770 2862 
Q 544 3141 544 3541 
Q 544 4100 942 4425 
Q 1341 4750 2034 4750 
Q 2731 4750 3128 4425 
Q 3525 4100 3525 3541 
Q 3525 3141 3298 2862 
Q 3072 2584 2669 2484 
Q 3125 2378 3379 2068 
Q 3634 1759 3634 1313 
Q 3634 634 3220 271 
Q 2806 -91 2034 -91 
Q 1263 -91 848 271 
Q 434 634 434 1313 
Q 434 1759 690 2068 
Q 947 2378 1403 2484 
z
M 1172 3481 
Q 1172 3119 1398 2916 
Q 1625 2713 2034 2713 
Q 2441 2713 2670 2916 
Q 2900 3119 2900 3481 
Q 2900 3844 2670 4047 
Q 2441 4250 2034 4250 
Q 1625 4250 1398 4047 
Q 1172 3844 1172 3481 
z
" id="DejaVuSans-38" transform="scale(0.015625)"/>
       </defs>
       <use xlink:href="#DejaVuSans-2212"/>
       <use x="83.789062" xlink:href="#DejaVuSans-38"/>
       <use x="147.412109" xlink:href="#DejaVuSans-30"/>
       <use x="211.035156" xlink:href="#DejaVuSans-30"/>
       <use x="274.658203" xlink:href="#DejaVuSans-30"/>
      </g>
     </g>
    </g>
    <g id="ytick_2">
     <g id="line2d_8">
      <g>
       <use style="stroke:#000000;stroke-width:0.8;" x="51.46" xlink:href="#m2782a40436" y="575.785894"/>
      </g>
     </g>
     <g id="text_8">
      <!-- −6000 -->
      <g transform="translate(10.630313 579.585113)scale(0.1 -0.1)">
       <defs>
        <path d="M 2113 2584 
Q 1688 2584 1439 2293 
Q 1191 2003 1191 1497 
Q 1191 994 1439 701 
Q 1688 409 2113 409 
Q 2538 409 2786 701 
Q 3034 994 3034 1497 
Q 3034 2003 2786 2293 
Q 2538 2584 2113 2584 
z
M 3366 4563 
L 3366 3988 
Q 3128 4100 2886 4159 
Q 2644 4219 2406 4219 
Q 1781 4219 1451 3797 
Q 1122 3375 1075 2522 
Q 1259 2794 1537 2939 
Q 1816 3084 2150 3084 
Q 2853 3084 3261 2657 
Q 3669 2231 3669 1497 
Q 3669 778 3244 343 
Q 2819 -91 2113 -91 
Q 1303 -91 875 529 
Q 447 1150 447 2328 
Q 447 3434 972 4092 
Q 1497 4750 2381 4750 
Q 2619 4750 2861 4703 
Q 3103 4656 3366 4563 
z
" id="DejaVuSans-36" transform="scale(0.015625)"/>
       </defs>
       <use xlink:href="#DejaVuSans-2212"/>
       <use x="83.789062" xlink:href="#DejaVuSans-36"/>
       <use x="147.412109" xlink:href="#DejaVuSans-30"/>
       <use x="211.035156" xlink:href="#DejaVuSans-30"/>
       <use x="274.658203" xlink:href="#DejaVuSans-30"/>
      </g>
     </g>
    </g>
    <g id="ytick_3">
     <g id="line2d_9">
      <g>
       <use style="stroke:#000000;stroke-width:0.8;" x="51.46" xlink:href="#m2782a40436" y="479.256461"/>
      </g>
     </g>
     <g id="text_9">
      <!-- −4000 -->
      <g transform="translate(10.630313 483.05568)scale(0.1 -0.1)">
       <defs>
        <path d="M 2419 4116 
L 825 1625 
L 2419 1625 
L 2419 4116 
z
M 2253 4666 
L 3047 4666 
L 3047 1625 
L 3713 1625 
L 3713 1100 
L 3047 1100 
L 3047 0 
L 2419 0 
L 2419 1100 
L 313 1100 
L 313 1709 
L 2253 4666 
z
" id="DejaVuSans-34" transform="scale(0.015625)"/>
       </defs>
       <use xlink:href="#DejaVuSans-2212"/>
       <use x="83.789062" xlink:href="#DejaVuSans-34"/>
       <use x="147.412109" xlink:href="#DejaVuSans-30"/>
       <use x="211.035156" xlink:href="#DejaVuSans-30"/>
       <use x="274.658203" xlink:href="#DejaVuSans-30"/>
      </g>
     </g>
    </g>
    <g id="ytick_4">
     <g id="line2d_10">
      <g>
       <use style="stroke:#000000;stroke-width:0.8;" x="51.46" xlink:href="#m2782a40436" y="382.727028"/>
      </g>
     </g>
     <g id="text_10">
      <!-- −2000 -->
      <g transform="translate(10.630313 386.526247)scale(0.1 -0.1)">
       <use xlink:href="#DejaVuSans-2212"/>
       <use x="83.789062" xlink:href="#DejaVuSans-32"/>
       <use x="147.412109" xlink:href="#DejaVuSans-30"/>
       <use x="211.035156" xlink:href="#DejaVuSans-30"/>
       <use x="274.658203" xlink:href="#DejaVuSans-30"/>
      </g>
     </g>
    </g>
    <g id="ytick_5">
     <g id="line2d_11">
      <g>
       <use style="stroke:#000000;stroke-width:0.8;" x="51.46" xlink:href="#m2782a40436" y="286.197595"/>
      </g>
     </g>
     <g id="text_11">
      <!-- 0 -->
      <g transform="translate(38.0975 289.996814)scale(0.1 -0.1)">
       <use xlink:href="#DejaVuSans-30"/>
      </g>
     </g>
    </g>
    <g id="ytick_6">
     <g id="line2d_12">
      <g>
       <use style="stroke:#000000;stroke-width:0.8;" x="51.46" xlink:href="#m2782a40436" y="189.668162"/>
      </g>
     </g>
     <g id="text_12">
      <!-- 2000 -->
      <g transform="translate(19.01 193.467381)scale(0.1 -0.1)">
       <use xlink:href="#DejaVuSans-32"/>
       <use x="63.623047" xlink:href="#DejaVuSans-30"/>
       <use x="127.246094" xlink:href="#DejaVuSans-30"/>
       <use x="190.869141" xlink:href="#DejaVuSans-30"/>
      </g>
     </g>
    </g>
    <g id="ytick_7">
     <g id="line2d_13">
      <g>
       <use style="stroke:#000000;stroke-width:0.8;" x="51.46" xlink:href="#m2782a40436" y="93.138729"/>
      </g>
     </g>
     <g id="text_13">
      <!-- 4000 -->
      <g transform="translate(19.01 96.937948)scale(0.1 -0.1)">
       <use xlink:href="#DejaVuSans-34"/>
       <use x="63.623047" xlink:href="#DejaVuSans-30"/>
       <use x="127.246094" xlink:href="#DejaVuSans-30"/>
       <use x="190.869141" xlink:href="#DejaVuSans-30"/>
      </g>
     </g>
    </g>
   </g>
   <g id="line2d_14">
    <path clip-path="url(#pf4a8f7dcb0)" d="M 111.466364 304.709168 
L 115.677337 253.445514 
L 119.888309 203.700705 
L 124.099282 156.774818 
L 128.310255 115.445223 
L 132.521228 85.410474 
L 136.732201 72.794566 
L 140.943174 81.749727 
L 145.154147 113.889157 
L 149.36512 164.048474 
L 153.576093 221.024536 
L 157.787065 273.390097 
L 161.998038 309.912865 
L 166.209011 321.087668 
L 170.419984 303.880173 
L 174.630957 262.580427 
L 178.84193 206.955935 
L 183.052903 149.413874 
L 187.263876 102.130934 
L 191.474848 73.379987 
L 195.685821 64.601477 
L 199.896794 74.423554 
L 204.107767 102.333521 
L 208.31874 142.393452 
L 212.529713 185.127993 
L 216.740686 221.990592 
L 220.951659 243.951222 
L 225.162632 244.933782 
L 229.373604 224.044855 
L 233.584577 185.82547 
L 237.79555 138.932765 
L 242.006523 93.903475 
L 246.217496 61.103701 
L 250.428469 47.209374 
L 254.639442 53.064048 
L 258.850415 78.310377 
L 263.061388 118.010962 
L 267.27236 161.370003 
L 271.483333 198.31378 
L 275.694306 219.758446 
L 279.905279 220.120268 
L 284.116252 199.295331 
L 288.327225 162.602253 
L 292.538198 119.071687 
L 296.749171 78.793602 
L 300.960144 50.874243 
L 305.171116 40.950909 
L 309.382089 50.663454 
L 313.593062 82.761702 
L 317.804035 139.399228 
L 322.015008 215.993765 
L 326.225981 302.418216 
L 330.436954 385.632637 
L 334.647927 450.767731 
L 338.8589 483.190395 
L 343.069872 474.881379 
L 347.280845 427.55175 
L 351.491818 351.643085 
L 355.702791 264.270907 
L 359.913764 184.097934 
L 364.124737 124.059123 
L 368.33571 91.122141 
L 372.546683 88.55482 
L 376.757656 115.212651 
L 380.968628 164.115856 
L 385.179601 222.107503 
L 389.390574 276.564966 
L 393.601547 317.378276 
L 397.81252 335.859411 
L 402.023493 328.448249 
L 406.234466 297.01884 
L 410.445439 247.657008 
L 414.656411 191.44825 
L 418.867384 141.582187 
L 423.078357 108.468855 
L 427.28933 98.151596 
L 431.500303 112.301665 
L 435.711276 151.013318 
L 439.922249 210.141866 
L 444.133222 277.125576 
L 448.344195 337.386951 
L 452.555167 379.15929 
L 456.76614 393.812092 
L 460.977113 378.358867 
L 465.188086 336.157789 
L 469.399059 274.9385 
L 473.610032 206.029838 
L 477.821005 141.806112 
L 482.031978 92.375189 
L 486.242951 63.949918 
L 490.453923 57.973136 
L 494.664896 74.908335 
L 498.875869 114.070917 
L 507.297815 221.252509 
L 511.508788 265.536597 
L 515.719761 289.576674 
L 519.930734 287.723759 
L 524.141707 260.752672 
L 528.352679 214.780837 
L 532.563652 160.185383 
L 536.774625 110.247276 
L 540.985598 77.902052 
L 545.196571 72.693348 
L 549.407544 97.6107 
L 553.618517 150.817744 
L 557.82949 226.938897 
L 566.251435 405.83276 
L 570.462408 487.162652 
L 574.673381 553.163603 
L 578.884354 601.714209 
L 583.095327 632.342871 
L 587.3063 643.969091 
L 591.517273 636.551571 
L 595.728246 609.129081 
L 599.939219 559.495572 
L 604.150191 488.917181 
L 608.361164 402.83828 
L 612.572137 309.956933 
L 616.78311 221.387458 
L 620.994083 149.133597 
L 625.205056 103.277265 
L 629.416029 89.066863 
L 633.627002 107.431338 
L 637.837974 153.942148 
L 646.25992 278.257597 
L 650.470893 327.048169 
L 654.681866 350.730294 
L 658.892839 342.892793 
L 663.103812 305.598715 
L 667.314785 248.062035 
L 671.525758 183.29777 
L 675.73673 124.011037 
L 679.947703 81.628602 
L 684.158676 66.318052 
L 688.369649 83.976768 
L 692.580622 135.0446 
L 696.791595 212.736031 
L 701.002568 301.758035 
L 705.213541 383.677729 
L 709.424514 440.690615 
L 713.635486 459.303381 
L 717.846459 435.420824 
L 722.057432 375.026634 
L 726.268405 292.800919 
L 730.479378 208.072264 
L 734.690351 137.357329 
L 738.901324 91.887836 
L 743.112297 77.009025 
L 747.32327 92.596105 
L 751.534242 135.856462 
L 755.745215 199.430144 
L 759.956188 269.77373 
L 764.167161 332.442337 
L 768.378134 374.545519 
L 772.589107 385.966064 
L 776.80008 364.57542 
L 781.011053 315.433634 
L 785.222026 248.860325 
L 789.432998 178.877033 
L 793.643971 121.446907 
L 797.854944 89.956683 
L 802.065917 89.272512 
L 806.27689 117.715233 
L 810.487863 171.033557 
L 818.909809 308.049284 
L 823.120781 362.550978 
L 827.331754 390.73753 
L 831.542727 385.671715 
L 835.7537 349.296749 
L 839.964673 290.750937 
L 844.175646 222.369811 
L 848.386619 156.451762 
L 852.597592 106.623818 
L 856.808565 86.341034 
L 861.019537 102.142026 
L 865.23051 152.100181 
L 869.441483 228.974 
L 873.652456 317.943047 
L 877.863429 401.250095 
L 882.074402 462.385557 
L 886.285375 486.769191 
L 890.496348 468.49795 
L 894.707321 412.101513 
L 898.918293 330.855413 
L 903.129266 242.268198 
L 907.340239 161.438868 
L 911.551212 100.2663 
L 915.762185 69.447341 
L 919.973158 75.019204 
L 924.184131 117.263805 
L 928.395104 188.996102 
L 932.606077 275.168224 
L 936.817049 358.010136 
L 941.028022 419.005327 
L 945.238995 443.60802 
L 949.449968 426.478652 
L 953.660941 372.206019 
L 957.871914 294.056878 
L 962.082887 210.852071 
L 966.29386 139.531983 
L 970.504833 92.401539 
L 974.715805 76.085814 
L 978.926778 90.514512 
L 983.137751 130.867113 
L 991.559697 240.506487 
L 995.77067 282.454419 
L 999.981643 300.743266 
L 1004.192616 290.995296 
L 1008.403589 256.566731 
L 1012.614561 206.956183 
L 1016.825534 154.873865 
L 1021.036507 112.940091 
L 1025.24748 91.902425 
L 1029.458453 97.612144 
L 1033.669426 129.981356 
L 1037.880399 185.622002 
L 1046.302344 322.629824 
L 1050.513317 376.06744 
L 1054.72429 401.356804 
L 1058.935263 391.419147 
L 1063.146236 348.461008 
L 1067.357209 282.560962 
L 1071.568182 208.083389 
L 1075.779155 139.959859 
L 1079.990128 90.977713 
L 1084.2011 69.063335 
L 1088.412073 76.535554 
L 1092.623046 111.507614 
L 1096.834019 163.910155 
L 1101.044992 219.275409 
L 1105.255965 265.599857 
L 1109.466938 291.656468 
L 1113.677911 290.760904 
L 1117.888884 263.440837 
L 1122.099856 216.551823 
L 1126.310829 161.212026 
L 1130.521802 110.212118 
L 1134.732775 74.987096 
L 1138.943748 62.316283 
L 1143.154721 73.732413 
L 1147.365694 108.049308 
L 1151.576667 157.607105 
L 1155.78764 210.343394 
L 1159.998612 255.229658 
L 1164.209585 281.366592 
L 1168.420558 282.242558 
L 1172.631531 258.101989 
L 1176.842504 215.028091 
L 1181.053477 162.931418 
L 1185.26445 114.423888 
L 1189.475423 82.520428 
L 1193.686396 76.196512 
L 1197.897368 98.271111 
L 1202.108341 146.49467 
L 1210.530287 277.867749 
L 1214.74126 329.632626 
L 1218.952233 353.868416 
L 1223.163206 344.589493 
L 1227.374179 305.038317 
L 1231.585152 246.423047 
L 1235.796124 183.7772 
L 1240.007097 133.462696 
L 1244.21807 108.87841 
L 1248.429043 114.826545 
L 1252.640016 148.580445 
L 1256.850989 203.958489 
L 1261.061962 273.287955 
L 1265.272935 348.122555 
L 1269.483907 420.632815 
L 1273.69488 484.445494 
L 1277.905853 535.896846 
L 1282.116826 575.277902 
L 1286.327799 605.497864 
L 1290.538772 626.355062 
L 1294.749745 633.51993 
L 1298.960718 624.254473 
L 1303.171691 599.944838 
L 1307.382663 563.991068 
L 1311.593636 521.316358 
L 1311.593636 521.316358 
" style="fill:none;stroke:#1f77b4;stroke-linecap:square;stroke-width:1.5;"/>
   </g>
   <g id="patch_3">
    <path d="M 51.46 674.12 
L 51.46 10.8 
" style="fill:none;stroke:#000000;stroke-linecap:square;stroke-linejoin:miter;stroke-width:0.8;"/>
   </g>
   <g id="patch_4">
    <path d="M 1371.6 674.12 
L 1371.6 10.8 
" style="fill:none;stroke:#000000;stroke-linecap:square;stroke-linejoin:miter;stroke-width:0.8;"/>
   </g>
   <g id="patch_5">
    <path d="M 51.46 674.12 
L 1371.6 674.12 
" style="fill:none;stroke:#000000;stroke-linecap:square;stroke-linejoin:miter;stroke-width:0.8;"/>
   </g>
   <g id="patch_6">
    <path d="M 51.46 10.8 
L 1371.6 10.8 
" style="fill:none;stroke:#000000;stroke-linecap:square;stroke-linejoin:miter;stroke-width:0.8;"/>
   </g>
  </g>
 </g>
 <defs>
  <clipPath id="pf4a8f7dcb0">
   <rect height="663.32" width="1320.14" x="51.46" y="10.8"/>
  </clipPath>
 </defs>
</svg>
