<?xml version="1.0" encoding="utf-8" standalone="no"?>
<!DOCTYPE svg PUBLIC "-//W3C//DTD SVG 1.1//EN"
  "http://www.w3.org/Graphics/SVG/1.1/DTD/svg11.dtd">
<svg height="702pt" version="1.1" viewBox="0 0 1382.4 702" width="1382.4pt" xmlns="http://www.w3.org/2000/svg" xmlns:xlink="http://www.w3.org/1999/xlink">
 <metadata>
  <rdf:RDF xmlns:cc="http://creativecommons.org/ns#" xmlns:dc="http://purl.org/dc/elements/1.1/" xmlns:rdf="http://www.w3.org/1999/02/22-rdf-syntax-ns#">
   <cc:Work>
    <dc:type rdf:resource="http://purl.org/dc/dcmitype/StillImage"/>
    <dc:date>2022-10-28T17:23:04.265002</dc:date>
    <dc:format>image/svg+xml</dc:format>
    <dc:creator>
     <cc:Agent>
      <dc:title>Matplotlib v3.4.2, https://matplotlib.org/</dc:title>
     </cc:Agent>
    </dc:creator>
   </cc:Work>
  </rdf:RDF>
 </metadata>
 <defs>
  <style type="text/css">*{stroke-linecap:butt;stroke-linejoin:round;}</style>
 </defs>
 <g id="figure_1">
  <g id="patch_1">
   <path d="M 0 702 
L 1382.4 702 
L 1382.4 0 
L 0 0 
z
" style="fill:#ffffff;"/>
  </g>
  <g id="axes_1">
   <g id="patch_2">
    <path d="M 55.69 674.12 
L 1371.6 674.12 
L 1371.6 10.8 
L 55.69 10.8 
z
" style="fill:#ffffff;"/>
   </g>
   <g id="matplotlib.axis_1">
    <g id="xtick_1">
     <g id="line2d_1">
      <defs>
       <path d="M 0 0 
L 0 3.5 
" id="m3ec41292af" style="stroke:#000000;stroke-width:0.8;"/>
      </defs>
      <g>
       <use style="stroke:#000000;stroke-width:0.8;" x="115.504091" xlink:href="#m3ec41292af" y="674.12"/>
      </g>
     </g>
     <g id="text_1">
      <!-- 0 -->
      <g transform="translate(112.322841 688.718438)scale(0.1 -0.1)">
       <defs>
        <path d="M 2034 4250 
Q 1547 4250 1301 3770 
Q 1056 3291 1056 2328 
Q 1056 1369 1301 889 
Q 1547 409 2034 409 
Q 2525 409 2770 889 
Q 3016 1369 3016 2328 
Q 3016 3291 2770 3770 
Q 2525 4250 2034 4250 
z
M 2034 4750 
Q 2819 4750 3233 4129 
Q 3647 3509 3647 2328 
Q 3647 1150 3233 529 
Q 2819 -91 2034 -91 
Q 1250 -91 836 529 
Q 422 1150 422 2328 
Q 422 3509 836 4129 
Q 1250 4750 2034 4750 
z
" id="DejaVuSans-30" transform="scale(0.015625)"/>
       </defs>
       <use xlink:href="#DejaVuSans-30"/>
      </g>
     </g>
    </g>
    <g id="xtick_2">
     <g id="line2d_2">
      <g>
       <use style="stroke:#000000;stroke-width:0.8;" x="325.378094" xlink:href="#m3ec41292af" y="674.12"/>
      </g>
     </g>
     <g id="text_2">
      <!-- 50 -->
      <g transform="translate(319.015594 688.718438)scale(0.1 -0.1)">
       <defs>
        <path d="M 691 4666 
L 3169 4666 
L 3169 4134 
L 1269 4134 
L 1269 2991 
Q 1406 3038 1543 3061 
Q 1681 3084 1819 3084 
Q 2600 3084 3056 2656 
Q 3513 2228 3513 1497 
Q 3513 744 3044 326 
Q 2575 -91 1722 -91 
Q 1428 -91 1123 -41 
Q 819 9 494 109 
L 494 744 
Q 775 591 1075 516 
Q 1375 441 1709 441 
Q 2250 441 2565 725 
Q 2881 1009 2881 1497 
Q 2881 1984 2565 2268 
Q 2250 2553 1709 2553 
Q 1456 2553 1204 2497 
Q 953 2441 691 2322 
L 691 4666 
z
" id="DejaVuSans-35" transform="scale(0.015625)"/>
       </defs>
       <use xlink:href="#DejaVuSans-35"/>
       <use x="63.623047" xlink:href="#DejaVuSans-30"/>
      </g>
     </g>
    </g>
    <g id="xtick_3">
     <g id="line2d_3">
      <g>
       <use style="stroke:#000000;stroke-width:0.8;" x="535.252097" xlink:href="#m3ec41292af" y="674.12"/>
      </g>
     </g>
     <g id="text_3">
      <!-- 100 -->
      <g transform="translate(525.708347 688.718438)scale(0.1 -0.1)">
       <defs>
        <path d="M 794 531 
L 1825 531 
L 1825 4091 
L 703 3866 
L 703 4441 
L 1819 4666 
L 2450 4666 
L 2450 531 
L 3481 531 
L 3481 0 
L 794 0 
L 794 531 
z
" id="DejaVuSans-31" transform="scale(0.015625)"/>
       </defs>
       <use xlink:href="#DejaVuSans-31"/>
       <use x="63.623047" xlink:href="#DejaVuSans-30"/>
       <use x="127.246094" xlink:href="#DejaVuSans-30"/>
      </g>
     </g>
    </g>
    <g id="xtick_4">
     <g id="line2d_4">
      <g>
       <use style="stroke:#000000;stroke-width:0.8;" x="745.1261" xlink:href="#m3ec41292af" y="674.12"/>
      </g>
     </g>
     <g id="text_4">
      <!-- 150 -->
      <g transform="translate(735.58235 688.718438)scale(0.1 -0.1)">
       <use xlink:href="#DejaVuSans-31"/>
       <use x="63.623047" xlink:href="#DejaVuSans-35"/>
       <use x="127.246094" xlink:href="#DejaVuSans-30"/>
      </g>
     </g>
    </g>
    <g id="xtick_5">
     <g id="line2d_5">
      <g>
       <use style="stroke:#000000;stroke-width:0.8;" x="955.000104" xlink:href="#m3ec41292af" y="674.12"/>
      </g>
     </g>
     <g id="text_5">
      <!-- 200 -->
      <g transform="translate(945.456354 688.718438)scale(0.1 -0.1)">
       <defs>
        <path d="M 1228 531 
L 3431 531 
L 3431 0 
L 469 0 
L 469 531 
Q 828 903 1448 1529 
Q 2069 2156 2228 2338 
Q 2531 2678 2651 2914 
Q 2772 3150 2772 3378 
Q 2772 3750 2511 3984 
Q 2250 4219 1831 4219 
Q 1534 4219 1204 4116 
Q 875 4013 500 3803 
L 500 4441 
Q 881 4594 1212 4672 
Q 1544 4750 1819 4750 
Q 2544 4750 2975 4387 
Q 3406 4025 3406 3419 
Q 3406 3131 3298 2873 
Q 3191 2616 2906 2266 
Q 2828 2175 2409 1742 
Q 1991 1309 1228 531 
z
" id="DejaVuSans-32" transform="scale(0.015625)"/>
       </defs>
       <use xlink:href="#DejaVuSans-32"/>
       <use x="63.623047" xlink:href="#DejaVuSans-30"/>
       <use x="127.246094" xlink:href="#DejaVuSans-30"/>
      </g>
     </g>
    </g>
    <g id="xtick_6">
     <g id="line2d_6">
      <g>
       <use style="stroke:#000000;stroke-width:0.8;" x="1164.874107" xlink:href="#m3ec41292af" y="674.12"/>
      </g>
     </g>
     <g id="text_6">
      <!-- 250 -->
      <g transform="translate(1155.330357 688.718438)scale(0.1 -0.1)">
       <use xlink:href="#DejaVuSans-32"/>
       <use x="63.623047" xlink:href="#DejaVuSans-35"/>
       <use x="127.246094" xlink:href="#DejaVuSans-30"/>
      </g>
     </g>
    </g>
   </g>
   <g id="matplotlib.axis_2">
    <g id="ytick_1">
     <g id="line2d_7">
      <defs>
       <path d="M 0 0 
L -3.5 0 
" id="ma3295ecf99" style="stroke:#000000;stroke-width:0.8;"/>
      </defs>
      <g>
       <use style="stroke:#000000;stroke-width:0.8;" x="55.69" xlink:href="#ma3295ecf99" y="643.969091"/>
      </g>
     </g>
     <g id="text_7">
      <!-- 0 -->
      <g transform="translate(42.3275 647.76831)scale(0.1 -0.1)">
       <use xlink:href="#DejaVuSans-30"/>
      </g>
     </g>
    </g>
    <g id="ytick_2">
     <g id="line2d_8">
      <g>
       <use style="stroke:#000000;stroke-width:0.8;" x="55.69" xlink:href="#ma3295ecf99" y="566.29898"/>
      </g>
     </g>
     <g id="text_8">
      <!-- 50000 -->
      <g transform="translate(16.8775 570.098199)scale(0.1 -0.1)">
       <use xlink:href="#DejaVuSans-35"/>
       <use x="63.623047" xlink:href="#DejaVuSans-30"/>
       <use x="127.246094" xlink:href="#DejaVuSans-30"/>
       <use x="190.869141" xlink:href="#DejaVuSans-30"/>
       <use x="254.492188" xlink:href="#DejaVuSans-30"/>
      </g>
     </g>
    </g>
    <g id="ytick_3">
     <g id="line2d_9">
      <g>
       <use style="stroke:#000000;stroke-width:0.8;" x="55.69" xlink:href="#ma3295ecf99" y="488.62887"/>
      </g>
     </g>
     <g id="text_9">
      <!-- 100000 -->
      <g transform="translate(10.515 492.428088)scale(0.1 -0.1)">
       <use xlink:href="#DejaVuSans-31"/>
       <use x="63.623047" xlink:href="#DejaVuSans-30"/>
       <use x="127.246094" xlink:href="#DejaVuSans-30"/>
       <use x="190.869141" xlink:href="#DejaVuSans-30"/>
       <use x="254.492188" xlink:href="#DejaVuSans-30"/>
       <use x="318.115234" xlink:href="#DejaVuSans-30"/>
      </g>
     </g>
    </g>
    <g id="ytick_4">
     <g id="line2d_10">
      <g>
       <use style="stroke:#000000;stroke-width:0.8;" x="55.69" xlink:href="#ma3295ecf99" y="410.958759"/>
      </g>
     </g>
     <g id="text_10">
      <!-- 150000 -->
      <g transform="translate(10.515 414.757978)scale(0.1 -0.1)">
       <use xlink:href="#DejaVuSans-31"/>
       <use x="63.623047" xlink:href="#DejaVuSans-35"/>
       <use x="127.246094" xlink:href="#DejaVuSans-30"/>
       <use x="190.869141" xlink:href="#DejaVuSans-30"/>
       <use x="254.492188" xlink:href="#DejaVuSans-30"/>
       <use x="318.115234" xlink:href="#DejaVuSans-30"/>
      </g>
     </g>
    </g>
    <g id="ytick_5">
     <g id="line2d_11">
      <g>
       <use style="stroke:#000000;stroke-width:0.8;" x="55.69" xlink:href="#ma3295ecf99" y="333.288648"/>
      </g>
     </g>
     <g id="text_11">
      <!-- 200000 -->
      <g transform="translate(10.515 337.087867)scale(0.1 -0.1)">
       <use xlink:href="#DejaVuSans-32"/>
       <use x="63.623047" xlink:href="#DejaVuSans-30"/>
       <use x="127.246094" xlink:href="#DejaVuSans-30"/>
       <use x="190.869141" xlink:href="#DejaVuSans-30"/>
       <use x="254.492188" xlink:href="#DejaVuSans-30"/>
       <use x="318.115234" xlink:href="#DejaVuSans-30"/>
      </g>
     </g>
    </g>
    <g id="ytick_6">
     <g id="line2d_12">
      <g>
       <use style="stroke:#000000;stroke-width:0.8;" x="55.69" xlink:href="#ma3295ecf99" y="255.618538"/>
      </g>
     </g>
     <g id="text_12">
      <!-- 250000 -->
      <g transform="translate(10.515 259.417756)scale(0.1 -0.1)">
       <use xlink:href="#DejaVuSans-32"/>
       <use x="63.623047" xlink:href="#DejaVuSans-35"/>
       <use x="127.246094" xlink:href="#DejaVuSans-30"/>
       <use x="190.869141" xlink:href="#DejaVuSans-30"/>
       <use x="254.492188" xlink:href="#DejaVuSans-30"/>
       <use x="318.115234" xlink:href="#DejaVuSans-30"/>
      </g>
     </g>
    </g>
    <g id="ytick_7">
     <g id="line2d_13">
      <g>
       <use style="stroke:#000000;stroke-width:0.8;" x="55.69" xlink:href="#ma3295ecf99" y="177.948427"/>
      </g>
     </g>
     <g id="text_13">
      <!-- 300000 -->
      <g transform="translate(10.515 181.747646)scale(0.1 -0.1)">
       <defs>
        <path d="M 2597 2516 
Q 3050 2419 3304 2112 
Q 3559 1806 3559 1356 
Q 3559 666 3084 287 
Q 2609 -91 1734 -91 
Q 1441 -91 1130 -33 
Q 819 25 488 141 
L 488 750 
Q 750 597 1062 519 
Q 1375 441 1716 441 
Q 2309 441 2620 675 
Q 2931 909 2931 1356 
Q 2931 1769 2642 2001 
Q 2353 2234 1838 2234 
L 1294 2234 
L 1294 2753 
L 1863 2753 
Q 2328 2753 2575 2939 
Q 2822 3125 2822 3475 
Q 2822 3834 2567 4026 
Q 2313 4219 1838 4219 
Q 1578 4219 1281 4162 
Q 984 4106 628 3988 
L 628 4550 
Q 988 4650 1302 4700 
Q 1616 4750 1894 4750 
Q 2613 4750 3031 4423 
Q 3450 4097 3450 3541 
Q 3450 3153 3228 2886 
Q 3006 2619 2597 2516 
z
" id="DejaVuSans-33" transform="scale(0.015625)"/>
       </defs>
       <use xlink:href="#DejaVuSans-33"/>
       <use x="63.623047" xlink:href="#DejaVuSans-30"/>
       <use x="127.246094" xlink:href="#DejaVuSans-30"/>
       <use x="190.869141" xlink:href="#DejaVuSans-30"/>
       <use x="254.492188" xlink:href="#DejaVuSans-30"/>
       <use x="318.115234" xlink:href="#DejaVuSans-30"/>
      </g>
     </g>
    </g>
    <g id="ytick_8">
     <g id="line2d_14">
      <g>
       <use style="stroke:#000000;stroke-width:0.8;" x="55.69" xlink:href="#ma3295ecf99" y="100.278316"/>
      </g>
     </g>
     <g id="text_14">
      <!-- 350000 -->
      <g transform="translate(10.515 104.077535)scale(0.1 -0.1)">
       <use xlink:href="#DejaVuSans-33"/>
       <use x="63.623047" xlink:href="#DejaVuSans-35"/>
       <use x="127.246094" xlink:href="#DejaVuSans-30"/>
       <use x="190.869141" xlink:href="#DejaVuSans-30"/>
       <use x="254.492188" xlink:href="#DejaVuSans-30"/>
       <use x="318.115234" xlink:href="#DejaVuSans-30"/>
      </g>
     </g>
    </g>
    <g id="ytick_9">
     <g id="line2d_15">
      <g>
       <use style="stroke:#000000;stroke-width:0.8;" x="55.69" xlink:href="#ma3295ecf99" y="22.608206"/>
      </g>
     </g>
     <g id="text_15">
      <!-- 400000 -->
      <g transform="translate(10.515 26.407425)scale(0.1 -0.1)">
       <defs>
        <path d="M 2419 4116 
L 825 1625 
L 2419 1625 
L 2419 4116 
z
M 2253 4666 
L 3047 4666 
L 3047 1625 
L 3713 1625 
L 3713 1100 
L 3047 1100 
L 3047 0 
L 2419 0 
L 2419 1100 
L 313 1100 
L 313 1709 
L 2253 4666 
z
" id="DejaVuSans-34" transform="scale(0.015625)"/>
       </defs>
       <use xlink:href="#DejaVuSans-34"/>
       <use x="63.623047" xlink:href="#DejaVuSans-30"/>
       <use x="127.246094" xlink:href="#DejaVuSans-30"/>
       <use x="190.869141" xlink:href="#DejaVuSans-30"/>
       <use x="254.492188" xlink:href="#DejaVuSans-30"/>
       <use x="318.115234" xlink:href="#DejaVuSans-30"/>
      </g>
     </g>
    </g>
   </g>
   <g id="line2d_16">
    <path clip-path="url(#p132659554e)" d="M 115.504091 440.545918 
L 119.701571 376.979883 
L 123.899051 338.03281 
L 128.096531 287.972707 
L 136.491491 179.313888 
L 140.688971 132.979728 
L 144.886451 99.414872 
L 149.083931 104.555381 
L 153.281411 138.76343 
L 157.478892 216.722598 
L 161.676372 290.276195 
L 165.873852 385.303146 
L 170.071332 513.823985 
L 174.268812 524.220471 
L 178.466292 389.249317 
L 182.663772 323.200526 
L 186.861252 285.393403 
L 191.058732 244.985991 
L 195.256212 206.649868 
L 199.453692 169.920029 
L 203.651172 147.499036 
L 207.848652 143.548157 
L 212.046132 191.957901 
L 216.243612 264.522474 
L 220.441093 342.258171 
L 224.638573 444.705801 
L 228.836053 643.969091 
L 233.033533 441.014989 
L 237.231013 351.755587 
L 241.428493 274.790604 
L 245.625973 221.003387 
L 254.020933 133.041043 
L 258.218413 103.841256 
L 262.415893 105.965018 
L 266.613373 161.588867 
L 270.810853 242.264468 
L 275.008333 335.245988 
L 279.205813 433.545598 
L 283.403293 583.672321 
L 287.600774 460.560663 
L 291.798254 370.470242 
L 295.995734 303.836903 
L 300.193214 246.198115 
L 304.390694 196.568574 
L 308.588174 142.655849 
L 312.785654 97.205643 
L 316.983134 72.668412 
L 321.180614 83.577916 
L 325.378094 105.327983 
L 329.575574 164.10189 
L 333.773054 214.383216 
L 342.168014 403.593843 
L 346.365494 465.390481 
L 350.562974 391.826411 
L 354.760455 347.822682 
L 358.957935 288.35443 
L 363.155415 238.994997 
L 367.352895 196.645339 
L 371.550375 142.272258 
L 375.747855 93.051627 
L 379.945335 80.372113 
L 384.142815 99.034972 
L 388.340295 147.078599 
L 392.537775 223.109449 
L 396.735255 296.088954 
L 400.932735 410.451496 
L 405.130215 550.810921 
L 409.327695 457.879382 
L 413.525175 388.818033 
L 417.722656 306.752789 
L 421.920136 246.681383 
L 426.117616 201.546855 
L 430.315096 138.053149 
L 434.512576 87.485795 
L 438.710056 70.620308 
L 442.907536 93.329014 
L 447.105016 121.403982 
L 451.302496 186.270101 
L 455.499976 254.5061 
L 459.697456 358.607821 
L 463.894936 495.954018 
L 468.092416 494.846922 
L 476.487376 315.482623 
L 480.684856 254.754084 
L 484.882337 210.21261 
L 489.079817 153.710792 
L 493.277297 107.793054 
L 497.474777 81.480102 
L 501.672257 88.893603 
L 505.869737 125.592332 
L 510.067217 191.851655 
L 514.264697 271.863618 
L 518.462177 387.279559 
L 522.659657 532.441736 
L 526.857137 472.183621 
L 531.054617 384.093311 
L 535.252097 286.558699 
L 539.449577 217.541697 
L 543.647057 168.090884 
L 547.844537 102.89462 
L 552.042018 60.57039 
L 556.239498 56.691533 
L 560.436978 73.552684 
L 564.634458 85.89169 
L 568.831938 139.455061 
L 573.029418 168.190837 
L 577.226898 192.367372 
L 581.424378 211.131385 
L 585.621858 232.404498 
L 589.819338 259.259746 
L 594.016818 299.37487 
L 598.214298 349.431959 
L 602.411778 401.034178 
L 606.609258 424.708177 
L 610.806738 363.987046 
L 615.004219 330.302825 
L 619.201699 274.827905 
L 623.399179 211.22075 
L 627.596659 157.998414 
L 631.794139 102.439188 
L 635.991619 73.548744 
L 640.189099 101.960361 
L 644.386579 151.394027 
L 648.584059 227.112304 
L 652.781539 312.190755 
L 656.979019 417.456424 
L 661.176499 526.398741 
L 665.373979 466.913055 
L 669.571459 373.326421 
L 673.768939 291.530108 
L 677.966419 231.981359 
L 682.1639 183.021986 
L 686.36138 113.45057 
L 690.55886 61.246537 
L 694.75634 55.359735 
L 698.95382 68.603089 
L 703.1513 118.724849 
L 711.54626 301.77579 
L 715.74374 422.46826 
L 719.94122 517.490058 
L 724.1387 423.137175 
L 728.33618 339.310068 
L 732.53366 271.756634 
L 736.73114 207.68522 
L 740.92862 161.086478 
L 745.1261 110.8323 
L 749.323581 77.170443 
L 753.521061 93.290231 
L 757.718541 114.69627 
L 761.916021 172.835198 
L 766.113501 239.568474 
L 770.310981 333.530189 
L 774.508461 450.926826 
L 778.705941 522.608888 
L 782.903421 406.263646 
L 787.100901 341.726052 
L 791.298381 280.486147 
L 795.495861 209.890143 
L 799.693341 155.057082 
L 803.890821 89.463321 
L 808.088301 54.223469 
L 812.285781 71.312092 
L 816.483262 102.234117 
L 820.680742 146.162538 
L 824.878222 235.300545 
L 829.075702 339.67252 
L 833.273182 472.644716 
L 837.470662 513.826111 
L 841.668142 408.965126 
L 845.865622 315.762785 
L 850.063102 252.295758 
L 854.260582 195.562126 
L 858.458062 130.942657 
L 862.655542 72.873244 
L 866.853022 48.077359 
L 871.050502 62.385765 
L 875.247982 105.089885 
L 879.445463 177.654591 
L 883.642943 260.236922 
L 887.840423 373.776666 
L 892.037903 501.92609 
L 896.235383 454.581456 
L 900.432863 379.890963 
L 904.630343 291.058203 
L 908.827823 222.934258 
L 913.025303 170.143595 
L 917.222783 99.524351 
L 921.420263 47.401581 
L 925.617743 40.950909 
L 929.815223 62.522161 
L 934.012703 97.972024 
L 942.407663 285.29682 
L 946.605144 412.991681 
L 950.802624 501.857387 
L 955.000104 422.711149 
L 959.197584 333.328446 
L 963.395064 251.648185 
L 967.592544 189.019511 
L 971.790024 134.79905 
L 975.987504 86.590683 
L 980.184984 63.345678 
L 984.382464 78.836829 
L 988.579944 132.009161 
L 996.974904 307.980747 
L 1001.172384 432.182907 
L 1005.369864 524.980246 
L 1009.567344 430.012913 
L 1013.764825 359.899296 
L 1017.962305 292.789401 
L 1022.159785 214.596663 
L 1026.357265 151.581007 
L 1030.554745 81.077563 
L 1034.752225 50.275405 
L 1038.949705 63.393457 
L 1043.147185 113.571848 
L 1047.344665 174.580136 
L 1051.542145 268.314732 
L 1055.739625 387.803087 
L 1059.937105 518.527892 
L 1068.332065 374.929471 
L 1076.727026 214.794676 
L 1080.924506 159.858063 
L 1085.121986 101.454945 
L 1089.319466 73.126888 
L 1093.516946 93.876676 
L 1097.714426 150.97453 
L 1101.911906 217.394591 
L 1106.109386 308.876465 
L 1110.306866 420.403799 
L 1114.504346 546.252206 
L 1118.701826 442.379558 
L 1122.899306 371.732438 
L 1127.096786 292.730607 
L 1131.294266 219.527518 
L 1135.491746 164.626913 
L 1139.689226 114.65879 
L 1143.886707 89.889579 
L 1148.084187 110.982297 
L 1152.281667 168.450077 
L 1156.479147 240.314712 
L 1160.676627 326.684855 
L 1164.874107 434.455661 
L 1169.071587 547.563211 
L 1173.269067 436.61232 
L 1177.466547 366.040274 
L 1185.861507 200.035611 
L 1190.058987 143.892241 
L 1194.256467 95.572251 
L 1198.453947 80.263843 
L 1202.651427 116.290508 
L 1206.848907 175.663663 
L 1211.046388 259.967094 
L 1215.243868 359.262631 
L 1219.441348 469.560866 
L 1223.638828 501.193959 
L 1227.836308 406.893154 
L 1232.033788 323.700777 
L 1236.231268 272.47802 
L 1240.428748 230.730591 
L 1244.626228 201.075355 
L 1248.823708 165.917595 
L 1257.218668 133.03538 
L 1261.416148 140.810445 
L 1265.613628 159.497114 
L 1269.811108 163.040999 
L 1274.008589 185.66768 
L 1278.206069 201.102441 
L 1282.403549 219.928367 
L 1286.601029 224.05852 
L 1290.798509 246.52481 
L 1294.995989 255.96462 
L 1299.193469 254.503664 
L 1303.390949 249.865264 
L 1307.588429 248.955415 
L 1311.785909 643.969091 
L 1311.785909 643.969091 
" style="fill:none;stroke:#1f77b4;stroke-linecap:square;stroke-width:1.5;"/>
   </g>
   <g id="patch_3">
    <path d="M 55.69 674.12 
L 55.69 10.8 
" style="fill:none;stroke:#000000;stroke-linecap:square;stroke-linejoin:miter;stroke-width:0.8;"/>
   </g>
   <g id="patch_4">
    <path d="M 1371.6 674.12 
L 1371.6 10.8 
" style="fill:none;stroke:#000000;stroke-linecap:square;stroke-linejoin:miter;stroke-width:0.8;"/>
   </g>
   <g id="patch_5">
    <path d="M 55.69 674.12 
L 1371.6 674.12 
" style="fill:none;stroke:#000000;stroke-linecap:square;stroke-linejoin:miter;stroke-width:0.8;"/>
   </g>
   <g id="patch_6">
    <path d="M 55.69 10.8 
L 1371.6 10.8 
" style="fill:none;stroke:#000000;stroke-linecap:square;stroke-linejoin:miter;stroke-width:0.8;"/>
   </g>
  </g>
 </g>
 <defs>
  <clipPath id="p132659554e">
   <rect height="663.32" width="1315.91" x="55.69" y="10.8"/>
  </clipPath>
 </defs>
</svg>
