<?xml version="1.0" encoding="utf-8" standalone="no"?>
<!DOCTYPE svg PUBLIC "-//W3C//DTD SVG 1.1//EN"
  "http://www.w3.org/Graphics/SVG/1.1/DTD/svg11.dtd">
<svg height="345.6pt" version="1.1" viewBox="0 0 460.8 345.6" width="460.8pt" xmlns="http://www.w3.org/2000/svg" xmlns:xlink="http://www.w3.org/1999/xlink">
 <metadata>
  <rdf:RDF xmlns:cc="http://creativecommons.org/ns#" xmlns:dc="http://purl.org/dc/elements/1.1/" xmlns:rdf="http://www.w3.org/1999/02/22-rdf-syntax-ns#">
   <cc:Work>
    <dc:type rdf:resource="http://purl.org/dc/dcmitype/StillImage"/>
    <dc:date>2022-06-16T22:45:17.937022</dc:date>
    <dc:format>image/svg+xml</dc:format>
    <dc:creator>
     <cc:Agent>
      <dc:title>Matplotlib v3.4.2, https://matplotlib.org/</dc:title>
     </cc:Agent>
    </dc:creator>
   </cc:Work>
  </rdf:RDF>
 </metadata>
 <defs>
  <style type="text/css">*{stroke-linecap:butt;stroke-linejoin:round;}</style>
 </defs>
 <g id="figure_1">
  <g id="patch_1">
   <path d="M 0 345.6 
L 460.8 345.6 
L 460.8 0 
L 0 0 
z
" style="fill:#ffffff;"/>
  </g>
  <g id="axes_1">
   <g id="patch_2">
    <path d="M 57.6 307.584 
L 414.72 307.584 
L 414.72 41.472 
L 57.6 41.472 
z
" style="fill:#ffffff;"/>
   </g>
   <g id="matplotlib.axis_1">
    <g id="xtick_1">
     <g id="line2d_1">
      <defs>
       <path d="M 0 0 
L 0 3.5 
" id="m212a2f9f62" style="stroke:#000000;stroke-width:0.8;"/>
      </defs>
      <g>
       <use style="stroke:#000000;stroke-width:0.8;" x="73.832727" xlink:href="#m212a2f9f62" y="307.584"/>
      </g>
     </g>
     <g id="text_1">
      <!-- 0 -->
      <g transform="translate(70.651477 322.182437)scale(0.1 -0.1)">
       <defs>
        <path d="M 2034 4250 
Q 1547 4250 1301 3770 
Q 1056 3291 1056 2328 
Q 1056 1369 1301 889 
Q 1547 409 2034 409 
Q 2525 409 2770 889 
Q 3016 1369 3016 2328 
Q 3016 3291 2770 3770 
Q 2525 4250 2034 4250 
z
M 2034 4750 
Q 2819 4750 3233 4129 
Q 3647 3509 3647 2328 
Q 3647 1150 3233 529 
Q 2819 -91 2034 -91 
Q 1250 -91 836 529 
Q 422 1150 422 2328 
Q 422 3509 836 4129 
Q 1250 4750 2034 4750 
z
" id="DejaVuSans-30" transform="scale(0.015625)"/>
       </defs>
       <use xlink:href="#DejaVuSans-30"/>
      </g>
     </g>
    </g>
    <g id="xtick_2">
     <g id="line2d_2">
      <g>
       <use style="stroke:#000000;stroke-width:0.8;" x="119.270732" xlink:href="#m212a2f9f62" y="307.584"/>
      </g>
     </g>
     <g id="text_2">
      <!-- 200 -->
      <g transform="translate(109.726982 322.182437)scale(0.1 -0.1)">
       <defs>
        <path d="M 1228 531 
L 3431 531 
L 3431 0 
L 469 0 
L 469 531 
Q 828 903 1448 1529 
Q 2069 2156 2228 2338 
Q 2531 2678 2651 2914 
Q 2772 3150 2772 3378 
Q 2772 3750 2511 3984 
Q 2250 4219 1831 4219 
Q 1534 4219 1204 4116 
Q 875 4013 500 3803 
L 500 4441 
Q 881 4594 1212 4672 
Q 1544 4750 1819 4750 
Q 2544 4750 2975 4387 
Q 3406 4025 3406 3419 
Q 3406 3131 3298 2873 
Q 3191 2616 2906 2266 
Q 2828 2175 2409 1742 
Q 1991 1309 1228 531 
z
" id="DejaVuSans-32" transform="scale(0.015625)"/>
       </defs>
       <use xlink:href="#DejaVuSans-32"/>
       <use x="63.623047" xlink:href="#DejaVuSans-30"/>
       <use x="127.246094" xlink:href="#DejaVuSans-30"/>
      </g>
     </g>
    </g>
    <g id="xtick_3">
     <g id="line2d_3">
      <g>
       <use style="stroke:#000000;stroke-width:0.8;" x="164.708737" xlink:href="#m212a2f9f62" y="307.584"/>
      </g>
     </g>
     <g id="text_3">
      <!-- 400 -->
      <g transform="translate(155.164987 322.182437)scale(0.1 -0.1)">
       <defs>
        <path d="M 2419 4116 
L 825 1625 
L 2419 1625 
L 2419 4116 
z
M 2253 4666 
L 3047 4666 
L 3047 1625 
L 3713 1625 
L 3713 1100 
L 3047 1100 
L 3047 0 
L 2419 0 
L 2419 1100 
L 313 1100 
L 313 1709 
L 2253 4666 
z
" id="DejaVuSans-34" transform="scale(0.015625)"/>
       </defs>
       <use xlink:href="#DejaVuSans-34"/>
       <use x="63.623047" xlink:href="#DejaVuSans-30"/>
       <use x="127.246094" xlink:href="#DejaVuSans-30"/>
      </g>
     </g>
    </g>
    <g id="xtick_4">
     <g id="line2d_4">
      <g>
       <use style="stroke:#000000;stroke-width:0.8;" x="210.146742" xlink:href="#m212a2f9f62" y="307.584"/>
      </g>
     </g>
     <g id="text_4">
      <!-- 600 -->
      <g transform="translate(200.602992 322.182437)scale(0.1 -0.1)">
       <defs>
        <path d="M 2113 2584 
Q 1688 2584 1439 2293 
Q 1191 2003 1191 1497 
Q 1191 994 1439 701 
Q 1688 409 2113 409 
Q 2538 409 2786 701 
Q 3034 994 3034 1497 
Q 3034 2003 2786 2293 
Q 2538 2584 2113 2584 
z
M 3366 4563 
L 3366 3988 
Q 3128 4100 2886 4159 
Q 2644 4219 2406 4219 
Q 1781 4219 1451 3797 
Q 1122 3375 1075 2522 
Q 1259 2794 1537 2939 
Q 1816 3084 2150 3084 
Q 2853 3084 3261 2657 
Q 3669 2231 3669 1497 
Q 3669 778 3244 343 
Q 2819 -91 2113 -91 
Q 1303 -91 875 529 
Q 447 1150 447 2328 
Q 447 3434 972 4092 
Q 1497 4750 2381 4750 
Q 2619 4750 2861 4703 
Q 3103 4656 3366 4563 
z
" id="DejaVuSans-36" transform="scale(0.015625)"/>
       </defs>
       <use xlink:href="#DejaVuSans-36"/>
       <use x="63.623047" xlink:href="#DejaVuSans-30"/>
       <use x="127.246094" xlink:href="#DejaVuSans-30"/>
      </g>
     </g>
    </g>
    <g id="xtick_5">
     <g id="line2d_5">
      <g>
       <use style="stroke:#000000;stroke-width:0.8;" x="255.584747" xlink:href="#m212a2f9f62" y="307.584"/>
      </g>
     </g>
     <g id="text_5">
      <!-- 800 -->
      <g transform="translate(246.040997 322.182437)scale(0.1 -0.1)">
       <defs>
        <path d="M 2034 2216 
Q 1584 2216 1326 1975 
Q 1069 1734 1069 1313 
Q 1069 891 1326 650 
Q 1584 409 2034 409 
Q 2484 409 2743 651 
Q 3003 894 3003 1313 
Q 3003 1734 2745 1975 
Q 2488 2216 2034 2216 
z
M 1403 2484 
Q 997 2584 770 2862 
Q 544 3141 544 3541 
Q 544 4100 942 4425 
Q 1341 4750 2034 4750 
Q 2731 4750 3128 4425 
Q 3525 4100 3525 3541 
Q 3525 3141 3298 2862 
Q 3072 2584 2669 2484 
Q 3125 2378 3379 2068 
Q 3634 1759 3634 1313 
Q 3634 634 3220 271 
Q 2806 -91 2034 -91 
Q 1263 -91 848 271 
Q 434 634 434 1313 
Q 434 1759 690 2068 
Q 947 2378 1403 2484 
z
M 1172 3481 
Q 1172 3119 1398 2916 
Q 1625 2713 2034 2713 
Q 2441 2713 2670 2916 
Q 2900 3119 2900 3481 
Q 2900 3844 2670 4047 
Q 2441 4250 2034 4250 
Q 1625 4250 1398 4047 
Q 1172 3844 1172 3481 
z
" id="DejaVuSans-38" transform="scale(0.015625)"/>
       </defs>
       <use xlink:href="#DejaVuSans-38"/>
       <use x="63.623047" xlink:href="#DejaVuSans-30"/>
       <use x="127.246094" xlink:href="#DejaVuSans-30"/>
      </g>
     </g>
    </g>
    <g id="xtick_6">
     <g id="line2d_6">
      <g>
       <use style="stroke:#000000;stroke-width:0.8;" x="301.022752" xlink:href="#m212a2f9f62" y="307.584"/>
      </g>
     </g>
     <g id="text_6">
      <!-- 1000 -->
      <g transform="translate(288.297752 322.182437)scale(0.1 -0.1)">
       <defs>
        <path d="M 794 531 
L 1825 531 
L 1825 4091 
L 703 3866 
L 703 4441 
L 1819 4666 
L 2450 4666 
L 2450 531 
L 3481 531 
L 3481 0 
L 794 0 
L 794 531 
z
" id="DejaVuSans-31" transform="scale(0.015625)"/>
       </defs>
       <use xlink:href="#DejaVuSans-31"/>
       <use x="63.623047" xlink:href="#DejaVuSans-30"/>
       <use x="127.246094" xlink:href="#DejaVuSans-30"/>
       <use x="190.869141" xlink:href="#DejaVuSans-30"/>
      </g>
     </g>
    </g>
    <g id="xtick_7">
     <g id="line2d_7">
      <g>
       <use style="stroke:#000000;stroke-width:0.8;" x="346.460757" xlink:href="#m212a2f9f62" y="307.584"/>
      </g>
     </g>
     <g id="text_7">
      <!-- 1200 -->
      <g transform="translate(333.735757 322.182437)scale(0.1 -0.1)">
       <use xlink:href="#DejaVuSans-31"/>
       <use x="63.623047" xlink:href="#DejaVuSans-32"/>
       <use x="127.246094" xlink:href="#DejaVuSans-30"/>
       <use x="190.869141" xlink:href="#DejaVuSans-30"/>
      </g>
     </g>
    </g>
    <g id="xtick_8">
     <g id="line2d_8">
      <g>
       <use style="stroke:#000000;stroke-width:0.8;" x="391.898762" xlink:href="#m212a2f9f62" y="307.584"/>
      </g>
     </g>
     <g id="text_8">
      <!-- 1400 -->
      <g transform="translate(379.173762 322.182437)scale(0.1 -0.1)">
       <use xlink:href="#DejaVuSans-31"/>
       <use x="63.623047" xlink:href="#DejaVuSans-34"/>
       <use x="127.246094" xlink:href="#DejaVuSans-30"/>
       <use x="190.869141" xlink:href="#DejaVuSans-30"/>
      </g>
     </g>
    </g>
   </g>
   <g id="matplotlib.axis_2">
    <g id="ytick_1">
     <g id="line2d_9">
      <defs>
       <path d="M 0 0 
L -3.5 0 
" id="m5ce62bb096" style="stroke:#000000;stroke-width:0.8;"/>
      </defs>
      <g>
       <use style="stroke:#000000;stroke-width:0.8;" x="57.6" xlink:href="#m5ce62bb096" y="305.622868"/>
      </g>
     </g>
     <g id="text_9">
      <!-- −6000 -->
      <g transform="translate(16.770313 309.422087)scale(0.1 -0.1)">
       <defs>
        <path d="M 678 2272 
L 4684 2272 
L 4684 1741 
L 678 1741 
L 678 2272 
z
" id="DejaVuSans-2212" transform="scale(0.015625)"/>
       </defs>
       <use xlink:href="#DejaVuSans-2212"/>
       <use x="83.789062" xlink:href="#DejaVuSans-36"/>
       <use x="147.412109" xlink:href="#DejaVuSans-30"/>
       <use x="211.035156" xlink:href="#DejaVuSans-30"/>
       <use x="274.658203" xlink:href="#DejaVuSans-30"/>
      </g>
     </g>
    </g>
    <g id="ytick_2">
     <g id="line2d_10">
      <g>
       <use style="stroke:#000000;stroke-width:0.8;" x="57.6" xlink:href="#m5ce62bb096" y="261.556387"/>
      </g>
     </g>
     <g id="text_10">
      <!-- −4000 -->
      <g transform="translate(16.770313 265.355605)scale(0.1 -0.1)">
       <use xlink:href="#DejaVuSans-2212"/>
       <use x="83.789062" xlink:href="#DejaVuSans-34"/>
       <use x="147.412109" xlink:href="#DejaVuSans-30"/>
       <use x="211.035156" xlink:href="#DejaVuSans-30"/>
       <use x="274.658203" xlink:href="#DejaVuSans-30"/>
      </g>
     </g>
    </g>
    <g id="ytick_3">
     <g id="line2d_11">
      <g>
       <use style="stroke:#000000;stroke-width:0.8;" x="57.6" xlink:href="#m5ce62bb096" y="217.489905"/>
      </g>
     </g>
     <g id="text_11">
      <!-- −2000 -->
      <g transform="translate(16.770313 221.289124)scale(0.1 -0.1)">
       <use xlink:href="#DejaVuSans-2212"/>
       <use x="83.789062" xlink:href="#DejaVuSans-32"/>
       <use x="147.412109" xlink:href="#DejaVuSans-30"/>
       <use x="211.035156" xlink:href="#DejaVuSans-30"/>
       <use x="274.658203" xlink:href="#DejaVuSans-30"/>
      </g>
     </g>
    </g>
    <g id="ytick_4">
     <g id="line2d_12">
      <g>
       <use style="stroke:#000000;stroke-width:0.8;" x="57.6" xlink:href="#m5ce62bb096" y="173.423424"/>
      </g>
     </g>
     <g id="text_12">
      <!-- 0 -->
      <g transform="translate(44.2375 177.222643)scale(0.1 -0.1)">
       <use xlink:href="#DejaVuSans-30"/>
      </g>
     </g>
    </g>
    <g id="ytick_5">
     <g id="line2d_13">
      <g>
       <use style="stroke:#000000;stroke-width:0.8;" x="57.6" xlink:href="#m5ce62bb096" y="129.356942"/>
      </g>
     </g>
     <g id="text_13">
      <!-- 2000 -->
      <g transform="translate(25.15 133.156161)scale(0.1 -0.1)">
       <use xlink:href="#DejaVuSans-32"/>
       <use x="63.623047" xlink:href="#DejaVuSans-30"/>
       <use x="127.246094" xlink:href="#DejaVuSans-30"/>
       <use x="190.869141" xlink:href="#DejaVuSans-30"/>
      </g>
     </g>
    </g>
    <g id="ytick_6">
     <g id="line2d_14">
      <g>
       <use style="stroke:#000000;stroke-width:0.8;" x="57.6" xlink:href="#m5ce62bb096" y="85.290461"/>
      </g>
     </g>
     <g id="text_14">
      <!-- 4000 -->
      <g transform="translate(25.15 89.08968)scale(0.1 -0.1)">
       <use xlink:href="#DejaVuSans-34"/>
       <use x="63.623047" xlink:href="#DejaVuSans-30"/>
       <use x="127.246094" xlink:href="#DejaVuSans-30"/>
       <use x="190.869141" xlink:href="#DejaVuSans-30"/>
      </g>
     </g>
    </g>
   </g>
   <g id="line2d_15">
    <path clip-path="url(#p41a4ae9535)" d="M 73.832727 155.755173 
L 74.287107 158.562072 
L 74.968677 171.384871 
L 75.650247 187.730032 
L 75.877437 209.962992 
L 76.331818 223.421571 
L 76.559008 214.5962 
L 76.786198 210.306782 
L 77.240578 194.098038 
L 77.467768 184.841877 
L 77.694958 157.622933 
L 77.922148 144.181258 
L 78.149338 142.030776 
L 78.376528 134.75394 
L 78.603718 133.544298 
L 78.830908 135.22119 
L 79.058098 134.84167 
L 79.285288 133.730032 
L 79.739668 117.215683 
L 80.194048 129.639779 
L 80.648428 101.204818 
L 80.875618 107.837198 
L 81.329998 111.677546 
L 81.557188 115.304047 
L 82.011568 130.515683 
L 82.238758 142.424721 
L 82.693138 175.541779 
L 82.920328 183.339085 
L 83.147518 187.017058 
L 83.374708 187.333403 
L 83.601898 185.30425 
L 83.829088 207.668016 
L 84.283468 222.205062 
L 84.510658 221.107898 
L 85.419419 192.894636 
L 85.873799 150.511175 
L 86.100989 145.183082 
L 86.328179 144.492959 
L 86.782559 136.386133 
L 87.009749 136.321455 
L 87.236939 135.755797 
L 87.464129 129.671819 
L 87.691319 112.598837 
L 88.145699 125.368284 
L 88.600079 94.396952 
L 89.054459 105.704367 
L 89.508839 107.221137 
L 89.736029 113.561049 
L 90.417599 146.173043 
L 90.871979 171.173408 
L 91.326359 185.358399 
L 91.553549 185.688499 
L 91.780739 183.696894 
L 92.235119 215.783351 
L 92.462309 222.526915 
L 92.689499 221.917857 
L 92.916689 216.082044 
L 93.598259 192.568525 
L 94.052639 147.666785 
L 94.73421 132.639361 
L 94.9614 132.765895 
L 95.18859 132.418057 
L 95.64297 127.348809 
L 95.87016 109.583567 
L 96.32454 118.047917 
L 96.55173 110.290969 
L 96.77892 90.16957 
L 97.00611 91.322376 
L 97.2333 93.982598 
L 97.46049 94.918724 
L 97.68768 98.414135 
L 98.14206 111.857797 
L 98.36925 119.592123 
L 98.82363 157.216961 
L 99.05082 168.233963 
L 99.27801 172.360102 
L 99.5052 169.028618 
L 99.73239 191.25769 
L 99.95958 200.151698 
L 100.18677 203.302748 
L 100.64115 191.536709 
L 101.32272 165.551141 
L 101.54991 141.938766 
L 102.23148 129.280309 
L 102.45867 127.95754 
L 102.68586 125.940187 
L 102.91305 126.092378 
L 103.14024 126.421285 
L 103.36743 121.568738 
L 103.594621 112.725528 
L 104.049001 121.844645 
L 104.503381 87.399519 
L 104.730571 90.385958 
L 104.957761 95.265706 
L 105.184951 97.378397 
L 105.412141 100.98491 
L 105.866521 115.188406 
L 106.775281 171.345717 
L 107.002471 176.093448 
L 107.229661 175.194673 
L 107.456851 178.211289 
L 107.684041 200.481976 
L 107.911231 206.948183 
L 108.138421 210.036189 
L 108.365611 206.430511 
L 108.592801 199.984012 
L 109.047181 177.931534 
L 109.274371 174.579999 
L 109.501561 146.878042 
L 109.955941 130.986256 
L 110.183131 131.869249 
L 110.410321 131.253351 
L 110.637511 130.020749 
L 110.864701 129.465658 
L 111.091891 129.782324 
L 111.546271 111.26996 
L 111.773461 116.816036 
L 112.000651 118.464006 
L 112.455031 83.494855 
L 112.682222 88.603648 
L 112.909412 88.991918 
L 113.136602 89.891687 
L 113.363792 92.324033 
L 113.590982 98.471359 
L 114.272552 133.377404 
L 114.726932 161.143817 
L 115.181312 177.199664 
L 115.408502 175.602884 
L 115.635692 199.336232 
L 116.090072 209.383101 
L 116.544452 203.009476 
L 116.998832 183.207609 
L 117.226022 177.329397 
L 117.453212 152.899211 
L 117.680402 142.186199 
L 117.907592 140.330808 
L 118.134782 132.990474 
L 118.361972 129.804911 
L 118.816352 128.170432 
L 119.043542 127.896903 
L 119.270732 121.935102 
L 119.497922 105.889009 
L 119.952302 115.544407 
L 120.406682 78.71054 
L 120.633872 80.309728 
L 120.861062 77.933944 
L 121.088252 78.22244 
L 121.315442 82.237424 
L 121.542632 88.786393 
L 121.997013 108.709558 
L 122.678583 161.378784 
L 122.905773 172.298889 
L 123.132963 172.645081 
L 123.814533 204.858602 
L 124.041723 203.985025 
L 124.268913 200.252323 
L 124.496103 187.268965 
L 124.723293 185.31448 
L 124.950483 179.195981 
L 125.632053 144.318868 
L 125.859243 141.102859 
L 126.086433 142.853018 
L 126.313623 142.087613 
L 126.540813 142.809282 
L 126.768003 142.97407 
L 126.995193 141.66418 
L 127.449573 119.235583 
L 127.676763 121.75857 
L 127.903953 122.426165 
L 128.131143 121.423787 
L 128.358333 124.459158 
L 128.585523 138.373144 
L 128.812713 119.583518 
L 129.039903 119.129699 
L 129.494283 120.705396 
L 129.721473 120.799371 
L 129.948663 119.63701 
L 130.175853 119.485194 
L 130.403043 120.507387 
L 130.630233 119.801191 
L 130.857424 121.262529 
L 131.084614 119.982836 
L 131.311804 121.58 
L 131.766184 118.026749 
L 131.993374 118.719066 
L 132.220564 115.588507 
L 132.447754 116.625573 
L 132.674944 127.241968 
L 132.902134 122.24595 
L 133.129324 121.366126 
L 133.356514 118.217088 
L 133.583704 117.948504 
L 133.810894 118.689456 
L 134.038084 120.794488 
L 134.492464 117.163173 
L 134.719654 122.281952 
L 134.946844 122.128903 
L 135.174034 122.909794 
L 135.401224 125.153399 
L 135.628414 126.168738 
L 136.309984 134.90141 
L 136.537174 147.713206 
L 136.764364 143.234472 
L 137.218744 145.183759 
L 137.673124 145.791931 
L 137.900314 145.24628 
L 138.127504 145.572359 
L 138.354694 144.655324 
L 138.581884 144.843222 
L 138.809074 144.660952 
L 139.036264 145.174911 
L 139.263454 144.55499 
L 139.490644 143.359266 
L 139.717834 142.983043 
L 139.945024 141.443447 
L 140.172215 139.00866 
L 140.399405 139.935518 
L 140.626595 161.976673 
L 140.853785 154.253766 
L 141.308165 148.548606 
L 141.762545 146.623798 
L 142.216925 139.103532 
L 142.444115 129.339039 
L 142.898495 119.378199 
L 143.580065 97.687675 
L 143.807255 95.14748 
L 144.034445 95.439166 
L 144.261635 92.455886 
L 144.488825 84.727911 
L 144.716015 81.19813 
L 144.943205 83.424249 
L 145.170395 87.492352 
L 145.851965 113.898592 
L 146.533535 164.605729 
L 146.760725 168.592645 
L 146.987915 168.429879 
L 147.215105 190.098867 
L 147.442295 199.894916 
L 147.669485 204.077318 
L 147.896675 200.61678 
L 148.123865 194.803837 
L 148.578245 157.249597 
L 148.805435 148.212222 
L 149.032625 123.975914 
L 149.714196 109.992028 
L 149.941386 108.43567 
L 150.168576 112.640499 
L 150.395766 111.630538 
L 150.622956 113.076324 
L 151.077336 95.502307 
L 151.531716 106.380094 
L 151.986096 79.951551 
L 152.440476 89.468211 
L 152.667666 91.202157 
L 152.894856 95.948819 
L 153.803616 149.590262 
L 154.030806 164.175573 
L 154.257996 167.856591 
L 154.485186 179.1659 
L 154.712376 180.66464 
L 154.939566 178.940733 
L 155.166756 200.349025 
L 155.393946 209.191896 
L 155.621136 211.19654 
L 156.075516 199.065613 
L 156.529896 168.225681 
L 156.757086 160.297205 
L 156.984276 134.927911 
L 157.665846 117.499929 
L 158.120226 114.453674 
L 158.347417 116.609566 
L 158.574607 117.485476 
L 158.801797 111.109021 
L 159.028987 93.802339 
L 159.483367 105.934224 
L 159.710557 98.569001 
L 159.937747 82.212463 
L 160.164937 78.975426 
L 160.619317 85.873721 
L 160.846507 86.551642 
L 161.300887 101.288687 
L 161.755267 124.388427 
L 162.209647 150.865025 
L 162.664027 170.579643 
L 162.891217 174.094105 
L 163.118407 175.774056 
L 163.345597 197.712218 
L 163.799977 206.475206 
L 164.254357 197.044332 
L 164.708737 163.714795 
L 164.935927 153.603948 
L 165.163117 128.065198 
L 165.617497 119.226611 
L 166.071877 113.337654 
L 166.299067 116.298087 
L 166.526257 116.805833 
L 166.753447 116.20099 
L 167.207827 94.494108 
L 167.662208 105.308503 
L 168.116588 77.951771 
L 168.343778 83.016157 
L 168.570968 83.178752 
L 168.798158 87.110724 
L 169.025348 93.202101 
L 169.706918 124.181497 
L 170.388488 172.346903 
L 170.615678 179.327245 
L 170.842868 176.395356 
L 171.297248 205.350917 
L 171.524438 207.229704 
L 171.751628 207.968695 
L 173.114768 126.361391 
L 173.341958 122.596081 
L 173.796338 113.346335 
L 174.023528 114.036315 
L 174.250718 115.58532 
L 174.477908 115.90103 
L 174.705098 114.666607 
L 174.932288 96.787752 
L 175.386668 108.245133 
L 175.613858 105.225705 
L 175.841048 84.786944 
L 176.522618 97.52211 
L 176.749809 98.866522 
L 177.431379 127.747009 
L 177.885759 164.014293 
L 178.340139 181.138017 
L 178.567329 183.52065 
L 178.794519 183.658898 
L 179.021709 186.58373 
L 179.248899 207.730872 
L 179.703279 222.913153 
L 179.930469 217.559597 
L 180.157659 209.354091 
L 180.612039 174.700528 
L 180.839229 166.201831 
L 181.066419 135.814815 
L 181.520799 124.656894 
L 181.975179 116.133145 
L 182.429559 118.642851 
L 182.656749 119.321797 
L 183.111129 90.983921 
L 183.565509 107.162306 
L 184.019889 85.566375 
L 184.247079 90.8282 
L 184.474269 98.916378 
L 184.928649 104.848678 
L 185.610219 141.700545 
L 186.0646 169.198032 
L 186.29179 180.594043 
L 186.74617 189.906487 
L 186.97336 189.772087 
L 187.20055 192.15231 
L 187.42774 212.239774 
L 187.88212 228.24165 
L 188.10931 227.592965 
L 188.3365 223.691635 
L 188.79088 182.850682 
L 189.01807 174.537639 
L 189.24526 142.933848 
L 189.69964 129.357281 
L 189.92683 125.60915 
L 190.15402 119.088585 
L 190.38121 121.093088 
L 190.6084 120.435557 
L 190.83559 119.419018 
L 191.28997 92.529002 
L 191.74435 109.564056 
L 192.19873 90.257646 
L 192.65311 101.237542 
L 192.8803 104.775933 
L 193.56187 128.206439 
L 194.69782 185.519136 
L 194.92501 187.657727 
L 195.152201 187.23792 
L 195.379391 195.34697 
L 195.606581 212.063522 
L 196.060961 225.221582 
L 196.515341 212.173871 
L 197.651291 137.932904 
L 198.105671 121.963523 
L 198.332861 122.230942 
L 198.560051 122.105886 
L 198.787241 122.850424 
L 199.014431 122.527876 
L 199.241621 107.529592 
L 199.468811 101.026772 
L 199.696001 108.596439 
L 199.923191 110.812961 
L 200.150381 94.280577 
L 200.604761 96.822157 
L 200.831951 96.519381 
L 201.059141 100.526497 
L 201.286331 106.849583 
L 201.740711 125.704145 
L 202.195091 160.375276 
L 202.422281 169.403066 
L 202.649471 183.722133 
L 202.876661 183.770023 
L 203.103851 186.678783 
L 203.331041 206.305108 
L 203.558231 214.258755 
L 203.785421 214.648108 
L 204.012611 212.05988 
L 204.239802 205.302 
L 204.694182 173.316268 
L 204.921372 162.859542 
L 205.148562 132.813645 
L 205.375752 125.346218 
L 205.830132 118.224504 
L 206.057322 112.024817 
L 206.284512 117.91253 
L 206.511702 116.953061 
L 206.738892 116.515833 
L 207.193272 91.6768 
L 207.647652 108.891048 
L 207.874842 97.057428 
L 208.102032 93.480526 
L 209.010792 114.518337 
L 210.373932 178.319714 
L 210.828312 188.826163 
L 211.055502 187.615258 
L 211.282692 208.772588 
L 211.509882 217.837071 
L 211.737072 222.032084 
L 211.964262 222.263601 
L 212.191452 219.413826 
L 212.873022 173.297769 
L 213.100212 139.144067 
L 213.554593 126.419991 
L 213.781783 125.206696 
L 214.008973 118.273396 
L 214.236163 118.45422 
L 214.463353 120.393909 
L 214.690543 120.175841 
L 214.917733 111.487309 
L 215.144923 87.893214 
L 215.599303 107.478933 
L 215.826493 103.814238 
L 216.053683 93.198379 
L 216.735253 109.790856 
L 216.962443 110.678345 
L 217.644013 138.89842 
L 218.325583 174.414266 
L 218.779963 190.154676 
L 219.007153 189.662737 
L 219.234343 194.494231 
L 219.461533 214.006964 
L 219.915913 225.27319 
L 220.143103 224.68824 
L 220.370293 218.81575 
L 220.597483 202.314767 
L 221.051863 184.216692 
L 221.279053 146.584107 
L 221.506243 144.218142 
L 221.960623 135.948022 
L 222.187813 134.957932 
L 222.415003 135.913757 
L 222.869384 139.943849 
L 223.096574 133.035211 
L 223.323764 108.003675 
L 223.778144 120.99103 
L 224.005334 122.868575 
L 224.459714 140.02762 
L 224.686904 134.15663 
L 225.368474 132.742179 
L 225.595664 132.847304 
L 225.822854 131.16424 
L 226.050044 130.330727 
L 226.277234 130.335799 
L 226.731614 130.078296 
L 226.958804 129.140791 
L 227.185994 125.792616 
L 227.413184 126.08397 
L 227.640374 124.881217 
L 227.867564 121.092579 
L 228.094754 120.252823 
L 228.321944 144.861515 
L 228.549134 129.818525 
L 229.003514 122.51207 
L 229.230704 122.008869 
L 229.685084 124.940182 
L 229.912274 128.817437 
L 230.139464 130.392441 
L 230.366654 135.662812 
L 230.593844 134.875329 
L 230.821034 137.022926 
L 231.275414 144.776036 
L 231.502604 145.829541 
L 231.956985 151.060632 
L 232.184175 154.137602 
L 232.411365 154.226863 
L 233.092935 158.708123 
L 233.320125 159.42773 
L 233.547315 158.369107 
L 233.774505 159.698067 
L 234.001695 158.151838 
L 234.228885 157.571648 
L 234.456075 155.998804 
L 234.683265 159.058793 
L 235.137645 157.1377 
L 235.364835 156.078502 
L 235.592025 154.322787 
L 235.819215 155.74171 
L 236.046405 155.898535 
L 236.273595 172.752215 
L 236.500785 171.536508 
L 236.955165 162.677521 
L 237.182355 160.631988 
L 237.409545 160.802521 
L 237.863925 144.955644 
L 238.091115 141.609358 
L 238.545495 118.96611 
L 238.772685 104.114427 
L 239.454255 85.281335 
L 239.681445 80.695012 
L 240.363015 74.149064 
L 241.271776 96.639974 
L 241.726156 121.023382 
L 241.953346 140.123845 
L 242.407726 154.643662 
L 242.634916 154.862532 
L 243.089296 184.173067 
L 243.316486 186.283778 
L 243.543676 175.325528 
L 243.770866 171.044705 
L 244.452436 136.067469 
L 244.679626 113.064759 
L 245.134006 104.099444 
L 245.588386 96.595023 
L 245.815576 98.594659 
L 246.269956 100.197225 
L 246.724336 80.294724 
L 247.178716 92.158523 
L 247.633096 74.987097 
L 247.860286 73.445679 
L 248.087476 74.150846 
L 248.541856 77.200863 
L 249.223426 102.313818 
L 250.132187 157.106103 
L 250.586567 161.961434 
L 250.813757 179.511683 
L 251.040947 187.399655 
L 251.722517 170.724655 
L 251.949707 159.52075 
L 252.631277 109.856905 
L 252.858467 106.39702 
L 253.085657 100.730428 
L 253.312847 98.552322 
L 253.540037 98.891642 
L 253.994417 102.530908 
L 254.221607 103.482948 
L 254.448797 90.584062 
L 254.675987 84.735133 
L 254.903177 90.386328 
L 255.130367 93.020507 
L 255.357557 76.84532 
L 255.584747 70.598584 
L 255.811937 70.372845 
L 256.039127 68.090178 
L 256.493507 76.67097 
L 256.947887 85.755005 
L 257.175077 95.262037 
L 257.629457 128.084052 
L 257.856647 138.662236 
L 258.083837 138.192578 
L 258.311027 144.845375 
L 258.538217 163.813428 
L 258.765407 169.818211 
L 258.992597 167.792768 
L 259.219788 163.891178 
L 259.901358 128.705522 
L 260.128548 112.76126 
L 260.355738 105.417628 
L 260.582928 102.481417 
L 260.810118 101.015596 
L 261.037308 96.213733 
L 261.264498 94.583914 
L 261.491688 97.943632 
L 261.718878 97.5978 
L 261.946068 96.40321 
L 262.173258 77.320013 
L 262.400448 81.067131 
L 262.627638 88.693843 
L 262.854828 89.544588 
L 263.082018 74.364876 
L 263.309208 67.929006 
L 263.536398 69.702394 
L 263.763588 69.851724 
L 263.990778 72.386249 
L 264.217968 77.895738 
L 264.899538 104.967916 
L 265.808298 153.705918 
L 266.035488 157.472603 
L 266.262678 157.050254 
L 266.717058 185.843687 
L 266.944248 185.689255 
L 267.398628 174.142886 
L 267.853008 143.150475 
L 268.080198 134.383025 
L 268.307389 112.729921 
L 269.216149 98.788224 
L 269.670529 101.603039 
L 269.897719 101.629769 
L 270.124909 93.255769 
L 270.352099 79.435398 
L 270.806479 91.291088 
L 271.033669 83.947677 
L 271.260859 72.22395 
L 271.488049 70.772705 
L 271.715239 72.208319 
L 271.942429 71.64358 
L 272.169619 72.686107 
L 272.851189 91.994605 
L 273.078379 102.8958 
L 273.532759 138.111686 
L 273.987139 155.990169 
L 274.214329 160.42661 
L 274.441519 159.590448 
L 274.895899 187.159114 
L 275.123089 190.411351 
L 275.350279 186.002709 
L 275.804659 163.561194 
L 276.259039 138.050376 
L 276.486229 113.763646 
L 277.39499 97.777978 
L 278.07656 101.201553 
L 278.30375 95.992909 
L 278.53094 77.326853 
L 278.75813 79.748397 
L 278.98532 86.168426 
L 279.21251 79.261211 
L 279.4397 65.678079 
L 279.66689 67.471826 
L 279.89408 64.475843 
L 280.57565 74.215713 
L 280.80284 78.178607 
L 281.03003 84.36859 
L 281.93879 132.180421 
L 282.16598 131.015169 
L 282.62036 160.543742 
L 283.30193 149.879419 
L 283.52912 142.435905 
L 283.75631 128.745725 
L 283.9835 125.257551 
L 284.21069 103.694516 
L 284.43788 97.053566 
L 284.66507 95.512151 
L 284.89226 92.823409 
L 285.11945 92.201189 
L 285.34664 95.928113 
L 285.57383 96.311862 
L 285.80102 97.069369 
L 286.2554 79.986937 
L 286.709781 90.108888 
L 287.164161 67.829509 
L 287.391351 68.279728 
L 287.618541 66.67647 
L 287.845731 68.245162 
L 288.072921 70.871353 
L 288.300111 78.753449 
L 288.527301 81.741402 
L 288.754491 89.142968 
L 288.981681 101.554391 
L 289.208871 120.121922 
L 289.663251 137.344951 
L 289.890441 136.347516 
L 290.117631 147.912135 
L 290.344821 166.155238 
L 290.572011 170.528812 
L 290.799201 166.669036 
L 291.707961 129.214097 
L 292.162341 103.346305 
L 292.843911 96.299254 
L 293.071101 97.357021 
L 293.298291 100.083323 
L 293.525481 100.592645 
L 293.752671 97.243368 
L 293.979861 78.32286 
L 294.207051 81.71963 
L 294.434241 87.211183 
L 294.661431 83.840445 
L 294.888621 66.650686 
L 295.115811 62.488682 
L 295.343001 64.871718 
L 295.570191 62.489153 
L 295.797382 61.688261 
L 296.024572 64.86895 
L 296.706142 82.200145 
L 297.160522 111.516682 
L 297.387712 127.948971 
L 297.614902 135.012035 
L 297.842092 134.037386 
L 298.296472 162.710691 
L 298.523662 164.167527 
L 298.750852 153.466476 
L 298.978042 150.210143 
L 299.432422 128.216729 
L 299.659612 122.674807 
L 299.886802 103.092939 
L 300.113992 96.928925 
L 300.341182 95.895688 
L 300.795562 92.768822 
L 301.249942 96.800184 
L 301.477132 95.966096 
L 301.704322 89.235892 
L 301.931512 77.600879 
L 302.385892 86.579803 
L 302.840272 62.182292 
L 303.067462 59.928834 
L 303.294652 59.621632 
L 303.521842 57.76697 
L 303.749032 57.703421 
L 304.203412 68.970092 
L 304.430602 71.070191 
L 304.657792 79.220158 
L 305.339363 119.236255 
L 305.566553 117.92541 
L 305.793743 126.928124 
L 306.020933 144.049022 
L 306.248123 141.546353 
L 306.702503 129.988081 
L 307.384073 108.13113 
L 307.611263 91.23994 
L 307.838453 89.31948 
L 308.065643 86.435083 
L 308.292833 86.71768 
L 308.520023 85.108658 
L 308.747213 88.518606 
L 308.974403 89.240994 
L 309.201593 91.689306 
L 309.428783 86.108633 
L 309.655973 76.494248 
L 310.110353 82.834912 
L 310.564733 59.373548 
L 311.019113 53.771344 
L 311.246303 53.568 
L 311.473493 55.780637 
L 312.155063 72.139991 
L 312.609443 96.467356 
L 313.063823 112.499906 
L 313.291013 109.902536 
L 313.518203 120.869143 
L 313.745393 139.476244 
L 313.972583 140.706704 
L 314.199774 136.148353 
L 314.426964 134.713687 
L 314.881344 116.370725 
L 315.108534 111.645942 
L 315.335724 97.442662 
L 315.790104 91.403747 
L 316.244484 88.700957 
L 316.471674 91.492241 
L 316.698864 91.970306 
L 316.926054 93.541613 
L 317.380434 75.998425 
L 317.834814 84.852683 
L 318.516384 58.103728 
L 318.743574 62.738719 
L 318.970764 62.494619 
L 319.197954 60.679381 
L 319.425144 61.905259 
L 320.106714 78.941766 
L 320.333904 97.830919 
L 321.015474 123.701468 
L 321.242664 122.306178 
L 321.469854 132.138423 
L 321.697044 147.1326 
L 321.924234 147.446942 
L 322.151424 136.707312 
L 322.378614 135.519567 
L 322.605804 128.616828 
L 322.832994 116.467778 
L 323.060184 112.887108 
L 323.287375 95.244381 
L 323.514565 91.428052 
L 323.968945 88.949485 
L 324.196135 88.649 
L 324.423325 91.887345 
L 324.650515 91.15034 
L 324.877705 91.807217 
L 325.104895 85.659549 
L 325.332085 75.139985 
L 325.786465 83.656587 
L 326.013655 75.903612 
L 326.240845 62.579341 
L 326.468035 59.091589 
L 326.695225 60.510497 
L 326.922415 60.920246 
L 327.149605 59.693293 
L 328.058365 90.07527 
L 328.512745 120.012788 
L 328.967125 140.007698 
L 329.194315 142.235376 
L 329.421505 142.81081 
L 329.648695 157.347066 
L 329.875885 163.819989 
L 330.103075 163.05431 
L 330.330265 151.954141 
L 330.557455 146.406553 
L 331.011835 121.452449 
L 331.239025 117.528199 
L 331.466215 96.121098 
L 331.693405 92.413478 
L 331.920595 91.435084 
L 332.147785 88.86323 
L 332.374976 88.537007 
L 332.602166 91.023812 
L 332.829356 90.90715 
L 333.056546 91.76354 
L 333.510926 73.32588 
L 333.738116 78.026216 
L 333.965306 79.392224 
L 334.192496 63.844387 
L 334.419686 56.458955 
L 334.646876 57.672135 
L 334.874066 55.120502 
L 335.101256 57.660807 
L 335.328446 56.653569 
L 335.555636 63.693633 
L 335.782826 63.575672 
L 336.010016 69.234972 
L 336.237206 224.09693 
L 336.691586 249.393229 
L 337.145966 259.678379 
L 337.600346 266.568007 
L 338.054726 270.122318 
L 338.281916 275.005878 
L 338.736296 278.65017 
L 338.963486 279.060686 
L 339.190676 278.956531 
L 339.417866 277.74926 
L 339.645056 275.900687 
L 339.872246 272.489807 
L 340.326626 252.614225 
L 340.553816 252.228944 
L 340.781006 252.128519 
L 341.235386 274.807842 
L 341.689767 284.625001 
L 341.916957 288.342659 
L 342.144147 289.047843 
L 342.371337 288.992847 
L 342.825717 284.820829 
L 343.052907 277.945482 
L 343.280097 275.433383 
L 343.734477 266.513414 
L 343.961667 255.10557 
L 344.188857 253.674989 
L 344.416047 253.078819 
L 344.643237 253.494052 
L 344.870427 254.847479 
L 345.097617 253.912283 
L 345.324807 264.759424 
L 346.006377 277.945528 
L 346.233567 288.335456 
L 346.687947 294.023247 
L 346.915137 294.985852 
L 347.369517 293.889725 
L 347.596707 290.929445 
L 347.823897 285.020691 
L 348.051087 274.97916 
L 348.278277 251.841922 
L 348.505467 251.52493 
L 348.732657 251.685975 
L 348.959847 252.045006 
L 349.187037 269.341668 
L 349.641417 282.860486 
L 350.095797 288.373604 
L 350.322987 289.667314 
L 350.550177 289.251315 
L 351.004558 285.399077 
L 351.231748 278.947404 
L 351.686128 271.898992 
L 351.913318 266.745955 
L 352.140508 254.669077 
L 352.367698 255.39321 
L 352.594888 255.115402 
L 352.822078 255.77942 
L 353.049268 251.806245 
L 353.503648 268.120086 
L 353.958028 277.229745 
L 354.185218 280.013551 
L 354.412408 290.448882 
L 354.866788 294.986734 
L 355.093978 295.488 
L 355.321168 294.964047 
L 355.548358 293.341854 
L 355.775548 289.655723 
L 356.002738 282.842465 
L 356.457118 252.485178 
L 356.911498 251.48599 
L 357.138688 253.899162 
L 357.365878 270.658581 
L 357.820258 282.303586 
L 358.274638 286.809359 
L 358.501828 287.41546 
L 358.729018 286.218777 
L 358.956208 283.944487 
L 359.183398 276.626234 
L 359.637778 270.005694 
L 360.092159 259.357164 
L 360.319349 246.337639 
L 360.546539 249.494398 
L 360.773729 249.512998 
L 361.000919 250.549375 
L 361.228109 246.756165 
L 361.455299 258.842413 
L 362.136869 273.881341 
L 362.364059 276.751448 
L 362.591249 287.956719 
L 363.045629 292.660475 
L 363.272819 293.384511 
L 363.500009 293.364695 
L 363.727199 291.704462 
L 363.954389 287.34907 
L 364.181579 279.561579 
L 364.408769 249.480004 
L 364.635959 251.808152 
L 364.863149 251.638088 
L 365.090339 251.749016 
L 365.544719 274.109863 
L 365.999099 283.932742 
L 366.453479 288.463305 
L 366.680669 288.453356 
L 366.907859 287.356704 
L 367.135049 284.654302 
L 367.362239 278.081219 
L 367.816619 271.154648 
L 368.043809 266.653098 
L 368.270999 255.755575 
L 368.498189 253.253195 
L 368.725379 252.372735 
L 368.95257 252.687392 
L 369.17976 253.964335 
L 369.40695 252.106954 
L 369.63414 263.104946 
L 370.31571 276.704367 
L 370.5429 286.888649 
L 370.99728 292.828467 
L 371.22447 293.793342 
L 371.45166 294.012351 
L 371.67885 293.467536 
L 371.90604 290.820986 
L 372.13323 285.479166 
L 372.36042 276.706272 
L 372.58761 250.814685 
L 373.26918 251.079452 
L 373.72356 275.981216 
L 374.17794 284.333638 
L 374.40513 287.254294 
L 374.63232 287.800978 
L 374.85951 287.409225 
L 375.31389 283.405238 
L 375.54108 276.342338 
L 375.99546 268.962783 
L 376.22265 264.300388 
L 376.90422 232.811294 
L 377.13141 221.603732 
L 377.3586 189.617398 
L 377.58579 128.356759 
L 377.81298 127.560083 
L 378.04017 128.03946 
L 378.267361 130.671604 
L 378.494551 130.552003 
L 378.948931 122.069686 
L 379.176121 120.046793 
L 379.630501 118.662469 
L 379.857691 121.178971 
L 380.084881 121.39529 
L 380.312071 123.678103 
L 380.539261 128.706685 
L 380.766451 129.685361 
L 381.220831 114.976077 
L 381.675211 119.392643 
L 381.902401 120.611642 
L 382.129591 123.800442 
L 382.583971 134.929532 
L 383.265541 160.437851 
L 383.492731 158.817124 
L 383.719921 177.286074 
L 383.947111 184.76095 
L 384.174301 186.226377 
L 384.628681 181.036194 
L 385.310251 165.530811 
L 385.537441 142.270198 
L 385.764631 137.172369 
L 385.991821 135.042331 
L 386.219011 130.825245 
L 386.446201 129.633966 
L 386.673391 130.737685 
L 386.900581 130.879729 
L 387.582152 121.57135 
L 388.036532 129.71782 
L 388.718102 108.954184 
L 388.945292 110.147908 
L 389.172482 109.202276 
L 389.854052 123.851637 
L 390.535622 152.955159 
L 390.762812 158.255575 
L 390.990002 156.81181 
L 391.217192 163.370678 
L 391.444382 181.206317 
L 391.671572 186.439671 
L 391.898762 187.387094 
L 392.125952 185.383934 
L 392.807522 168.264343 
L 393.034712 158.376255 
L 393.261902 138.592627 
L 393.489092 130.791523 
L 393.716282 129.189314 
L 393.943472 130.517746 
L 394.170662 130.048176 
L 394.397852 131.63432 
L 394.625042 131.371208 
L 394.852232 128.849009 
L 395.079422 120.483126 
L 395.306612 118.742612 
L 395.533802 123.022121 
L 395.760992 123.679755 
L 396.215372 104.711994 
L 396.669753 109.549925 
L 396.896943 109.354007 
L 397.124133 106.636547 
L 397.351323 108.572009 
L 397.578513 109.429772 
L 397.805703 105.514362 
L 398.032893 106.256165 
L 398.260083 106.484665 
L 398.487273 247.84882 
L 398.487273 247.84882 
" style="fill:none;stroke:#1f77b4;stroke-linecap:square;stroke-width:1.5;"/>
   </g>
   <g id="patch_3">
    <path d="M 57.6 307.584 
L 57.6 41.472 
" style="fill:none;stroke:#000000;stroke-linecap:square;stroke-linejoin:miter;stroke-width:0.8;"/>
   </g>
   <g id="patch_4">
    <path d="M 414.72 307.584 
L 414.72 41.472 
" style="fill:none;stroke:#000000;stroke-linecap:square;stroke-linejoin:miter;stroke-width:0.8;"/>
   </g>
   <g id="patch_5">
    <path d="M 57.6 307.584 
L 414.72 307.584 
" style="fill:none;stroke:#000000;stroke-linecap:square;stroke-linejoin:miter;stroke-width:0.8;"/>
   </g>
   <g id="patch_6">
    <path d="M 57.6 41.472 
L 414.72 41.472 
" style="fill:none;stroke:#000000;stroke-linecap:square;stroke-linejoin:miter;stroke-width:0.8;"/>
   </g>
  </g>
 </g>
 <defs>
  <clipPath id="p41a4ae9535">
   <rect height="266.112" width="357.12" x="57.6" y="41.472"/>
  </clipPath>
 </defs>
</svg>
