<?xml version="1.0" encoding="UTF-8" standalone="no"?>
<svg
   xmlns:dc="http://purl.org/dc/elements/1.1/"
   xmlns:cc="http://creativecommons.org/ns#"
   xmlns:rdf="http://www.w3.org/1999/02/22-rdf-syntax-ns#"
   xmlns:svg="http://www.w3.org/2000/svg"
   xmlns="http://www.w3.org/2000/svg"
   xmlns:sodipodi="http://sodipodi.sourceforge.net/DTD/sodipodi-0.dtd"
   xmlns:inkscape="http://www.inkscape.org/namespaces/inkscape"
   width="1189mm"
   height="841mm"
   viewBox="0 0 1189 841"
   version="1.1"
   id="svg8"
   inkscape:version="1.0.2-2 (e86c870879, 2021-01-15)"
   sodipodi:docname="rascunho1.svg">
  <defs
     id="defs2">
    <style
       type="text/css"
       id="style1540">*{stroke-linecap:butt;stroke-linejoin:round;}</style>
    <path
       d="M 0 0  L 0 3.5  "
       id="mef04b89143"
       style="stroke:#000000;stroke-width:0.8;" />
    <path
       d="M 2034 4250  Q 1547 4250 1301 3770  Q 1056 3291 1056 2328  Q 1056 1369 1301 889  Q 1547 409 2034 409  Q 2525 409 2770 889  Q 3016 1369 3016 2328  Q 3016 3291 2770 3770  Q 2525 4250 2034 4250  z M 2034 4750  Q 2819 4750 3233 4129  Q 3647 3509 3647 2328  Q 3647 1150 3233 529  Q 2819 -91 2034 -91  Q 1250 -91 836 529  Q 422 1150 422 2328  Q 422 3509 836 4129  Q 1250 4750 2034 4750  z "
       id="DejaVuSans-30"
       transform="scale(0.015625)" />
    <path
       d="M 794 531  L 1825 531  L 1825 4091  L 703 3866  L 703 4441  L 1819 4666  L 2450 4666  L 2450 531  L 3481 531  L 3481 0  L 794 0  L 794 531  z "
       id="DejaVuSans-31"
       transform="scale(0.015625)" />
    <path
       d="M 1228 531  L 3431 531  L 3431 0  L 469 0  L 469 531  Q 828 903 1448 1529  Q 2069 2156 2228 2338  Q 2531 2678 2651 2914  Q 2772 3150 2772 3378  Q 2772 3750 2511 3984  Q 2250 4219 1831 4219  Q 1534 4219 1204 4116  Q 875 4013 500 3803  L 500 4441  Q 881 4594 1212 4672  Q 1544 4750 1819 4750  Q 2544 4750 2975 4387  Q 3406 4025 3406 3419  Q 3406 3131 3298 2873  Q 3191 2616 2906 2266  Q 2828 2175 2409 1742  Q 1991 1309 1228 531  z "
       id="DejaVuSans-32"
       transform="scale(0.015625)" />
    <path
       d="M 2597 2516  Q 3050 2419 3304 2112  Q 3559 1806 3559 1356  Q 3559 666 3084 287  Q 2609 -91 1734 -91  Q 1441 -91 1130 -33  Q 819 25 488 141  L 488 750  Q 750 597 1062 519  Q 1375 441 1716 441  Q 2309 441 2620 675  Q 2931 909 2931 1356  Q 2931 1769 2642 2001  Q 2353 2234 1838 2234  L 1294 2234  L 1294 2753  L 1863 2753  Q 2328 2753 2575 2939  Q 2822 3125 2822 3475  Q 2822 3834 2567 4026  Q 2313 4219 1838 4219  Q 1578 4219 1281 4162  Q 984 4106 628 3988  L 628 4550  Q 988 4650 1302 4700  Q 1616 4750 1894 4750  Q 2613 4750 3031 4423  Q 3450 4097 3450 3541  Q 3450 3153 3228 2886  Q 3006 2619 2597 2516  z "
       id="DejaVuSans-33"
       transform="scale(0.015625)" />
    <path
       d="M 2419 4116  L 825 1625  L 2419 1625  L 2419 4116  z M 2253 4666  L 3047 4666  L 3047 1625  L 3713 1625  L 3713 1100  L 3047 1100  L 3047 0  L 2419 0  L 2419 1100  L 313 1100  L 313 1709  L 2253 4666  z "
       id="DejaVuSans-34"
       transform="scale(0.015625)" />
    <path
       d="M 691 4666  L 3169 4666  L 3169 4134  L 1269 4134  L 1269 2991  Q 1406 3038 1543 3061  Q 1681 3084 1819 3084  Q 2600 3084 3056 2656  Q 3513 2228 3513 1497  Q 3513 744 3044 326  Q 2575 -91 1722 -91  Q 1428 -91 1123 -41  Q 819 9 494 109  L 494 744  Q 775 591 1075 516  Q 1375 441 1709 441  Q 2250 441 2565 725  Q 2881 1009 2881 1497  Q 2881 1984 2565 2268  Q 2250 2553 1709 2553  Q 1456 2553 1204 2497  Q 953 2441 691 2322  L 691 4666  z "
       id="DejaVuSans-35"
       transform="scale(0.015625)" />
    <path
       d="M 0 0  L -3.5 0  "
       id="m7d75742489"
       style="stroke:#000000;stroke-width:0.8;" />
    <path
       d="M 678 2272  L 4684 2272  L 4684 1741  L 678 1741  L 678 2272  z "
       id="DejaVuSans-2212"
       transform="scale(0.015625)" />
    <path
       d="M 684 794  L 1344 794  L 1344 0  L 684 0  L 684 794  z "
       id="DejaVuSans-2e"
       transform="scale(0.015625)" />
    <path
       d="M 2113 2584  Q 1688 2584 1439 2293  Q 1191 2003 1191 1497  Q 1191 994 1439 701  Q 1688 409 2113 409  Q 2538 409 2786 701  Q 3034 994 3034 1497  Q 3034 2003 2786 2293  Q 2538 2584 2113 2584  z M 3366 4563  L 3366 3988  Q 3128 4100 2886 4159  Q 2644 4219 2406 4219  Q 1781 4219 1451 3797  Q 1122 3375 1075 2522  Q 1259 2794 1537 2939  Q 1816 3084 2150 3084  Q 2853 3084 3261 2657  Q 3669 2231 3669 1497  Q 3669 778 3244 343  Q 2819 -91 2113 -91  Q 1303 -91 875 529  Q 447 1150 447 2328  Q 447 3434 972 4092  Q 1497 4750 2381 4750  Q 2619 4750 2861 4703  Q 3103 4656 3366 4563  z "
       id="DejaVuSans-36"
       transform="scale(0.015625)" />
    <clipPath
       id="pb46b2f9440">
      <rect
         height="266.112"
         width="357.12"
         x="57.6"
         y="41.472"
         id="rect1780" />
    </clipPath>
    <clipPath
       id="pb46b2f9440-0">
      <rect
         height="266.112"
         width="357.12"
         x="57.599998"
         y="41.472"
         id="rect1780-5" />
    </clipPath>
    <clipPath
       id="pb46b2f9440-6">
      <rect
         height="266.112"
         width="357.12"
         x="57.599998"
         y="41.472"
         id="rect1780-4" />
    </clipPath>
    <clipPath
       id="pb46b2f9440-6-5">
      <rect
         height="266.112"
         width="357.12"
         x="57.599998"
         y="41.472"
         id="rect1780-4-3" />
    </clipPath>
    <style
       type="text/css"
       id="style2504">*{stroke-linecap:butt;stroke-linejoin:round;}</style>
    <path
       d="M 0 0  L 0 3.5  "
       id="me8c9a68ef8"
       style="stroke:#000000;stroke-width:0.8;" />
    <path
       d="M 2597 2516  Q 3050 2419 3304 2112  Q 3559 1806 3559 1356  Q 3559 666 3084 287  Q 2609 -91 1734 -91  Q 1441 -91 1130 -33  Q 819 25 488 141  L 488 750  Q 750 597 1062 519  Q 1375 441 1716 441  Q 2309 441 2620 675  Q 2931 909 2931 1356  Q 2931 1769 2642 2001  Q 2353 2234 1838 2234  L 1294 2234  L 1294 2753  L 1863 2753  Q 2328 2753 2575 2939  Q 2822 3125 2822 3475  Q 2822 3834 2567 4026  Q 2313 4219 1838 4219  Q 1578 4219 1281 4162  Q 984 4106 628 3988  L 628 4550  Q 988 4650 1302 4700  Q 1616 4750 1894 4750  Q 2613 4750 3031 4423  Q 3450 4097 3450 3541  Q 3450 3153 3228 2886  Q 3006 2619 2597 2516  z "
       id="DejaVuSans-33-8"
       transform="scale(0.015625)" />
    <path
       d="M 1228 531  L 3431 531  L 3431 0  L 469 0  L 469 531  Q 828 903 1448 1529  Q 2069 2156 2228 2338  Q 2531 2678 2651 2914  Q 2772 3150 2772 3378  Q 2772 3750 2511 3984  Q 2250 4219 1831 4219  Q 1534 4219 1204 4116  Q 875 4013 500 3803  L 500 4441  Q 881 4594 1212 4672  Q 1544 4750 1819 4750  Q 2544 4750 2975 4387  Q 3406 4025 3406 3419  Q 3406 3131 3298 2873  Q 3191 2616 2906 2266  Q 2828 2175 2409 1742  Q 1991 1309 1228 531  z "
       id="DejaVuSans-32-9"
       transform="scale(0.015625)" />
    <path
       d="M 2034 4250  Q 1547 4250 1301 3770  Q 1056 3291 1056 2328  Q 1056 1369 1301 889  Q 1547 409 2034 409  Q 2525 409 2770 889  Q 3016 1369 3016 2328  Q 3016 3291 2770 3770  Q 2525 4250 2034 4250  z M 2034 4750  Q 2819 4750 3233 4129  Q 3647 3509 3647 2328  Q 3647 1150 3233 529  Q 2819 -91 2034 -91  Q 1250 -91 836 529  Q 422 1150 422 2328  Q 422 3509 836 4129  Q 1250 4750 2034 4750  z "
       id="DejaVuSans-30-4"
       transform="scale(0.015625)" />
    <path
       d="M 2419 4116  L 825 1625  L 2419 1625  L 2419 4116  z M 2253 4666  L 3047 4666  L 3047 1625  L 3713 1625  L 3713 1100  L 3047 1100  L 3047 0  L 2419 0  L 2419 1100  L 313 1100  L 313 1709  L 2253 4666  z "
       id="DejaVuSans-34-8"
       transform="scale(0.015625)" />
    <path
       d="M 2113 2584  Q 1688 2584 1439 2293  Q 1191 2003 1191 1497  Q 1191 994 1439 701  Q 1688 409 2113 409  Q 2538 409 2786 701  Q 3034 994 3034 1497  Q 3034 2003 2786 2293  Q 2538 2584 2113 2584  z M 3366 4563  L 3366 3988  Q 3128 4100 2886 4159  Q 2644 4219 2406 4219  Q 1781 4219 1451 3797  Q 1122 3375 1075 2522  Q 1259 2794 1537 2939  Q 1816 3084 2150 3084  Q 2853 3084 3261 2657  Q 3669 2231 3669 1497  Q 3669 778 3244 343  Q 2819 -91 2113 -91  Q 1303 -91 875 529  Q 447 1150 447 2328  Q 447 3434 972 4092  Q 1497 4750 2381 4750  Q 2619 4750 2861 4703  Q 3103 4656 3366 4563  z "
       id="DejaVuSans-36-8"
       transform="scale(0.015625)" />
    <path
       d="M 2034 2216  Q 1584 2216 1326 1975  Q 1069 1734 1069 1313  Q 1069 891 1326 650  Q 1584 409 2034 409  Q 2484 409 2743 651  Q 3003 894 3003 1313  Q 3003 1734 2745 1975  Q 2488 2216 2034 2216  z M 1403 2484  Q 997 2584 770 2862  Q 544 3141 544 3541  Q 544 4100 942 4425  Q 1341 4750 2034 4750  Q 2731 4750 3128 4425  Q 3525 4100 3525 3541  Q 3525 3141 3298 2862  Q 3072 2584 2669 2484  Q 3125 2378 3379 2068  Q 3634 1759 3634 1313  Q 3634 634 3220 271  Q 2806 -91 2034 -91  Q 1263 -91 848 271  Q 434 634 434 1313  Q 434 1759 690 2068  Q 947 2378 1403 2484  z M 1172 3481  Q 1172 3119 1398 2916  Q 1625 2713 2034 2713  Q 2441 2713 2670 2916  Q 2900 3119 2900 3481  Q 2900 3844 2670 4047  Q 2441 4250 2034 4250  Q 1625 4250 1398 4047  Q 1172 3844 1172 3481  z "
       id="DejaVuSans-38"
       transform="scale(0.015625)" />
    <path
       d="M 0 0  L -3.5 0  "
       id="m58c5982523"
       style="stroke:#000000;stroke-width:0.8;" />
    <path
       d="M 678 2272  L 4684 2272  L 4684 1741  L 678 1741  L 678 2272  z "
       id="DejaVuSans-2212-3"
       transform="scale(0.015625)" />
    <path
       d="M 794 531  L 1825 531  L 1825 4091  L 703 3866  L 703 4441  L 1819 4666  L 2450 4666  L 2450 531  L 3481 531  L 3481 0  L 794 0  L 794 531  z "
       id="DejaVuSans-31-7"
       transform="scale(0.015625)" />
    <clipPath
       id="p6b37f14cc6">
      <rect
         height="43.2432"
         width="395.622"
         x="63.81"
         y="6.7392"
         id="rect2681" />
    </clipPath>
    <clipPath
       id="p6b37f14cc6-8">
      <rect
         height="43.243198"
         width="395.62201"
         x="63.810001"
         y="6.7392001"
         id="rect2681-7" />
    </clipPath>
    <clipPath
       id="pb46b2f9440-6-5-4">
      <rect
         height="266.112"
         width="357.12"
         x="57.599998"
         y="41.472"
         id="rect1780-4-3-7" />
    </clipPath>
    <clipPath
       id="pb46b2f9440-6-5-6">
      <rect
         height="266.112"
         width="357.12"
         x="57.599998"
         y="41.472"
         id="rect1780-4-3-9" />
    </clipPath>
    <clipPath
       id="pb46b2f9440-6-5-4-7">
      <rect
         height="266.112"
         width="357.12"
         x="57.599998"
         y="41.472"
         id="rect1780-4-3-7-0" />
    </clipPath>
    <clipPath
       id="pb46b2f9440-6-5-6-9">
      <rect
         height="266.112"
         width="357.12"
         x="57.599998"
         y="41.472"
         id="rect1780-4-3-9-7" />
    </clipPath>
    <style
       type="text/css"
       id="style3292">*{stroke-linecap:butt;stroke-linejoin:round;}</style>
    <path
       d="M 0 0  L 0 3.5  "
       id="mee82b73e42"
       style="stroke:#000000;stroke-width:0.8;" />
    <path
       d="M 1228 531  L 3431 531  L 3431 0  L 469 0  L 469 531  Q 828 903 1448 1529  Q 2069 2156 2228 2338  Q 2531 2678 2651 2914  Q 2772 3150 2772 3378  Q 2772 3750 2511 3984  Q 2250 4219 1831 4219  Q 1534 4219 1204 4116  Q 875 4013 500 3803  L 500 4441  Q 881 4594 1212 4672  Q 1544 4750 1819 4750  Q 2544 4750 2975 4387  Q 3406 4025 3406 3419  Q 3406 3131 3298 2873  Q 3191 2616 2906 2266  Q 2828 2175 2409 1742  Q 1991 1309 1228 531  z "
       id="DejaVuSans-32-0"
       transform="scale(0.015625)" />
    <path
       d="M 2419 4116  L 825 1625  L 2419 1625  L 2419 4116  z M 2253 4666  L 3047 4666  L 3047 1625  L 3713 1625  L 3713 1100  L 3047 1100  L 3047 0  L 2419 0  L 2419 1100  L 313 1100  L 313 1709  L 2253 4666  z "
       id="DejaVuSans-34-6"
       transform="scale(0.015625)" />
    <path
       d="M 2034 4250  Q 1547 4250 1301 3770  Q 1056 3291 1056 2328  Q 1056 1369 1301 889  Q 1547 409 2034 409  Q 2525 409 2770 889  Q 3016 1369 3016 2328  Q 3016 3291 2770 3770  Q 2525 4250 2034 4250  z M 2034 4750  Q 2819 4750 3233 4129  Q 3647 3509 3647 2328  Q 3647 1150 3233 529  Q 2819 -91 2034 -91  Q 1250 -91 836 529  Q 422 1150 422 2328  Q 422 3509 836 4129  Q 1250 4750 2034 4750  z "
       id="DejaVuSans-30-8"
       transform="scale(0.015625)" />
    <path
       d="M 691 4666  L 3169 4666  L 3169 4134  L 1269 4134  L 1269 2991  Q 1406 3038 1543 3061  Q 1681 3084 1819 3084  Q 2600 3084 3056 2656  Q 3513 2228 3513 1497  Q 3513 744 3044 326  Q 2575 -91 1722 -91  Q 1428 -91 1123 -41  Q 819 9 494 109  L 494 744  Q 775 591 1075 516  Q 1375 441 1709 441  Q 2250 441 2565 725  Q 2881 1009 2881 1497  Q 2881 1984 2565 2268  Q 2250 2553 1709 2553  Q 1456 2553 1204 2497  Q 953 2441 691 2322  L 691 4666  z "
       id="DejaVuSans-35-5"
       transform="scale(0.015625)" />
    <path
       d="M 2113 2584  Q 1688 2584 1439 2293  Q 1191 2003 1191 1497  Q 1191 994 1439 701  Q 1688 409 2113 409  Q 2538 409 2786 701  Q 3034 994 3034 1497  Q 3034 2003 2786 2293  Q 2538 2584 2113 2584  z M 3366 4563  L 3366 3988  Q 3128 4100 2886 4159  Q 2644 4219 2406 4219  Q 1781 4219 1451 3797  Q 1122 3375 1075 2522  Q 1259 2794 1537 2939  Q 1816 3084 2150 3084  Q 2853 3084 3261 2657  Q 3669 2231 3669 1497  Q 3669 778 3244 343  Q 2819 -91 2113 -91  Q 1303 -91 875 529  Q 447 1150 447 2328  Q 447 3434 972 4092  Q 1497 4750 2381 4750  Q 2619 4750 2861 4703  Q 3103 4656 3366 4563  z "
       id="DejaVuSans-36-0"
       transform="scale(0.015625)" />
    <path
       d="M 0 0  L -3.5 0  "
       id="m36c345609f"
       style="stroke:#000000;stroke-width:0.8;" />
    <clipPath
       id="p7680c07678">
      <rect
         height="44.352"
         width="357.12"
         x="57.6"
         y="6.912"
         id="rect3467" />
    </clipPath>
    <clipPath
       id="p7680c07678-1">
      <rect
         height="44.352001"
         width="357.12"
         x="57.599998"
         y="6.9120002"
         id="rect3467-9" />
    </clipPath>
    <clipPath
       id="p7680c07678-1-5">
      <rect
         height="44.352001"
         width="357.12"
         x="57.599998"
         y="6.9120002"
         id="rect3467-9-1" />
    </clipPath>
    <clipPath
       id="p7680c07678-0">
      <rect
         height="44.352001"
         width="357.12"
         x="57.599998"
         y="6.9120002"
         id="rect3467-91" />
    </clipPath>
    <clipPath
       id="p6b37f14cc6-8-4">
      <rect
         height="43.243198"
         width="395.62201"
         x="63.810001"
         y="6.7392001"
         id="rect2681-7-1" />
    </clipPath>
    <clipPath
       id="p6b37f14cc6-3">
      <rect
         height="43.243198"
         width="395.62201"
         x="63.810001"
         y="6.7392001"
         id="rect2681-8" />
    </clipPath>
    <style
       type="text/css"
       id="style4054">*{stroke-linecap:butt;stroke-linejoin:round;}</style>
    <path
       d="M 0 0  L 0 3.5  "
       id="m098d6f2f97"
       style="stroke:#000000;stroke-width:0.8;" />
    <path
       d="M 2034 4250  Q 1547 4250 1301 3770  Q 1056 3291 1056 2328  Q 1056 1369 1301 889  Q 1547 409 2034 409  Q 2525 409 2770 889  Q 3016 1369 3016 2328  Q 3016 3291 2770 3770  Q 2525 4250 2034 4250  z M 2034 4750  Q 2819 4750 3233 4129  Q 3647 3509 3647 2328  Q 3647 1150 3233 529  Q 2819 -91 2034 -91  Q 1250 -91 836 529  Q 422 1150 422 2328  Q 422 3509 836 4129  Q 1250 4750 2034 4750  z "
       id="DejaVuSans-30-42"
       transform="scale(0.015625)" />
    <path
       d="M 794 531  L 1825 531  L 1825 4091  L 703 3866  L 703 4441  L 1819 4666  L 2450 4666  L 2450 531  L 3481 531  L 3481 0  L 794 0  L 794 531  z "
       id="DejaVuSans-31-4"
       transform="scale(0.015625)" />
    <path
       d="M 1228 531  L 3431 531  L 3431 0  L 469 0  L 469 531  Q 828 903 1448 1529  Q 2069 2156 2228 2338  Q 2531 2678 2651 2914  Q 2772 3150 2772 3378  Q 2772 3750 2511 3984  Q 2250 4219 1831 4219  Q 1534 4219 1204 4116  Q 875 4013 500 3803  L 500 4441  Q 881 4594 1212 4672  Q 1544 4750 1819 4750  Q 2544 4750 2975 4387  Q 3406 4025 3406 3419  Q 3406 3131 3298 2873  Q 3191 2616 2906 2266  Q 2828 2175 2409 1742  Q 1991 1309 1228 531  z "
       id="DejaVuSans-32-08"
       transform="scale(0.015625)" />
    <path
       d="M 0 0  L -3.5 0  "
       id="m9ddac49346"
       style="stroke:#000000;stroke-width:0.8;" />
    <path
       d="M 678 2272  L 4684 2272  L 4684 1741  L 678 1741  L 678 2272  z "
       id="DejaVuSans-2212-5"
       transform="scale(0.015625)" />
    <path
       d="M 2419 4116  L 825 1625  L 2419 1625  L 2419 4116  z M 2253 4666  L 3047 4666  L 3047 1625  L 3713 1625  L 3713 1100  L 3047 1100  L 3047 0  L 2419 0  L 2419 1100  L 313 1100  L 313 1709  L 2253 4666  z "
       id="DejaVuSans-34-84"
       transform="scale(0.015625)" />
    <clipPath
       id="p9300823fcd">
      <rect
         height="82.0512"
         width="167.958"
         x="27.09"
         y="12.7872"
         id="rect4191" />
    </clipPath>
    <style
       type="text/css"
       id="style4307">*{stroke-linecap:butt;stroke-linejoin:round;}</style>
    <path
       d="M 0 0  L 0 3.5  "
       id="mbfc80c439d"
       style="stroke:#000000;stroke-width:0.8;" />
    <path
       d="M 2034 4250  Q 1547 4250 1301 3770  Q 1056 3291 1056 2328  Q 1056 1369 1301 889  Q 1547 409 2034 409  Q 2525 409 2770 889  Q 3016 1369 3016 2328  Q 3016 3291 2770 3770  Q 2525 4250 2034 4250  z M 2034 4750  Q 2819 4750 3233 4129  Q 3647 3509 3647 2328  Q 3647 1150 3233 529  Q 2819 -91 2034 -91  Q 1250 -91 836 529  Q 422 1150 422 2328  Q 422 3509 836 4129  Q 1250 4750 2034 4750  z "
       id="DejaVuSans-30-7"
       transform="scale(0.015625)" />
    <path
       d="M 794 531  L 1825 531  L 1825 4091  L 703 3866  L 703 4441  L 1819 4666  L 2450 4666  L 2450 531  L 3481 531  L 3481 0  L 794 0  L 794 531  z "
       id="DejaVuSans-31-3"
       transform="scale(0.015625)" />
    <path
       d="M 1228 531  L 3431 531  L 3431 0  L 469 0  L 469 531  Q 828 903 1448 1529  Q 2069 2156 2228 2338  Q 2531 2678 2651 2914  Q 2772 3150 2772 3378  Q 2772 3750 2511 3984  Q 2250 4219 1831 4219  Q 1534 4219 1204 4116  Q 875 4013 500 3803  L 500 4441  Q 881 4594 1212 4672  Q 1544 4750 1819 4750  Q 2544 4750 2975 4387  Q 3406 4025 3406 3419  Q 3406 3131 3298 2873  Q 3191 2616 2906 2266  Q 2828 2175 2409 1742  Q 1991 1309 1228 531  z "
       id="DejaVuSans-32-02"
       transform="scale(0.015625)" />
    <path
       d="M 0 0  L -3.5 0  "
       id="mbe33f07726"
       style="stroke:#000000;stroke-width:0.8;" />
    <path
       d="M 678 2272  L 4684 2272  L 4684 1741  L 678 1741  L 678 2272  z "
       id="DejaVuSans-2212-36"
       transform="scale(0.015625)" />
    <clipPath
       id="p9a380bba78">
      <rect
         height="138.6"
         width="184.14"
         x="29.7"
         y="21.6"
         id="rect4454" />
    </clipPath>
  </defs>
  <sodipodi:namedview
     id="base"
     pagecolor="#ffffff"
     bordercolor="#666666"
     borderopacity="1.0"
     inkscape:pageopacity="0.0"
     inkscape:pageshadow="2"
     inkscape:zoom="1.9413963"
     inkscape:cx="1758.5127"
     inkscape:cy="662.39195"
     inkscape:document-units="mm"
     inkscape:current-layer="layer1"
     inkscape:document-rotation="0"
     showgrid="false"
     inkscape:window-width="2400"
     inkscape:window-height="1261"
     inkscape:window-x="2391"
     inkscape:window-y="-9"
     inkscape:window-maximized="1" />
  <metadata
     id="metadata5">
    <rdf:RDF>
      <cc:Work
         rdf:about="">
        <dc:format>image/svg+xml</dc:format>
        <dc:type
           rdf:resource="http://purl.org/dc/dcmitype/StillImage" />
        <dc:title></dc:title>
      </cc:Work>
    </rdf:RDF>
  </metadata>
  <g
     inkscape:label="Camada 1"
     inkscape:groupmode="layer"
     id="layer1">
    <g
       id="line2d_13"
       transform="matrix(0.26645326,0,0,0.12566444,525.21829,82.62499)"
       style="stroke:#5377d1;stroke-opacity:1;stroke-width:2.63955315;stroke-miterlimit:4;stroke-dasharray:none"
       inkscape:export-xdpi="500"
       inkscape:export-ydpi="500">
      <path
         clip-path="url(#pb46b2f9440)"
         d="m 73.832727,191.69425 0.650611,-0.58331 0.65061,-0.11666 1.301221,-5.01641 0.65061,-0.5833 1.30122,-2.21655 0.650611,-0.58331 1.30122,11.89939 0.650611,-3.8498 0.65061,-6.06635 1.301221,0.23332 0.65061,8.51623 0.65061,1.74991 0.650611,2.21655 0.65061,-0.46664 1.301221,-5.48305 0.65061,2.56653 0.65061,1.28327 0.65061,2.33321 h 0.650611 l 0.65061,2.33322 0.65061,1.1666 0.650611,-0.5833 0.65061,-3.49982 0.65061,3.14984 0.650611,0.11666 0.65061,0.69996 0.65061,-3.14984 0.650611,0.34999 0.65061,1.63324 0.65061,-0.11666 0.65061,-1.1666 1.301221,-3.03318 0.65061,-15.04923 0.650611,-21.69889 0.65061,-13.99928 0.65061,-20.53228 0.65061,-33.131631 0.65061,-13.182657 0.65061,-24.265422 0.65061,48.29752 1.30122,144.19261 0.65061,35.81483 0.65061,-0.23333 0.65061,1.86658 0.65061,-9.91616 0.65061,-13.18266 0.65061,-18.89903 0.65061,-25.54869 0.65061,-20.1823 0.65061,-7.58294 0.65061,-1.51659 0.65062,-0.81663 0.65061,-2.44987 0.65061,-1.51659 0.65061,-1.98323 0.65061,-0.11666 0.65061,-2.56654 0.65061,-1.04994 0.65061,-3.14984 0.65061,2.33321 0.65061,-1.39993 1.30122,-4.78308 0.65061,1.04994 1.30122,-3.61648 0.65061,-3.03318 0.65061,1.04995 0.65061,-2.21655 0.65061,-0.58331 0.65061,-3.96646 0.65061,1.28327 0.65061,-2.79986 0.65061,-1.51659 0.65061,-3.14984 0.65061,-1.98323 0.65061,1.28327 1.95183,-9.44952 0.65061,-0.34998 0.65061,-4.19978 0.65061,-1.63325 0.65062,-4.43311 0.65061,0.23332 0.65061,-3.49982 0.65061,-1.63325 0.65061,-4.78308 0.65061,-0.34999 1.30122,-3.8498 0.65061,-3.8498 0.65061,-0.23332 1.95183,-5.01641 0.65061,-0.46664 1.30122,4.89974 0.65061,-1.86657 0.65061,4.66643 0.65061,8.16625 1.30122,9.33285 0.65061,5.9497 0.65061,9.56617 0.65061,5.13307 1.95183,19.13236 0.65061,3.03317 0.65061,4.19979 0.65061,0.23332 0.65061,5.94969 0.65061,1.86657 0.65062,2.44988 0.65061,-2.21655 0.65061,3.61648 0.65061,2.21655 h 0.65061 l 0.65061,-1.63325 0.65061,3.14984 0.65061,-0.23332 0.65061,0.69996 0.65061,-2.56653 0.65061,1.28326 0.65061,1.74991 0.65061,-0.5833 0.65061,0.34998 0.65061,-1.98323 0.65061,2.79986 0.65061,-1.39993 0.65061,1.86657 0.65061,-1.74991 0.65061,1.74991 0.65061,-1.51659 0.65061,1.16661 0.65061,-1.86657 0.65061,1.1666 0.65061,0.69997 0.65061,-0.23332 0.65061,-0.81663 0.65061,1.39993 0.65061,-0.93329 0.65061,1.74992 0.65061,-4.08313 0.65061,2.91652 0.65062,0.23332 0.65061,0.5833 0.65061,-1.51659 0.65061,0.34999 0.65061,2.56653 0.65061,-0.11666 0.65061,0.11666 h 0.65061 l 0.65061,0.46664 0.65061,1.63325 0.65061,0.46665 0.65061,-0.93329 0.65061,2.33321 0.65061,-1.28326 0.65061,1.04994 0.65061,-1.51659 0.65061,0.81663 0.65061,1.16661 0.65061,1.51658 0.65061,-1.1666 0.65061,0.11666 0.65061,0.5833 0.65061,0.81663 0.65061,-0.81663 0.65061,1.04995 0.65061,1.39993 0.65061,0.11666 0.65061,-3.73314 0.65061,1.39992 0.65061,1.86657 0.65061,-0.34998 0.65061,0.81663 0.65062,-1.51659 0.65061,1.16661 0.65061,0.81662 0.65061,-0.23332 0.65061,-0.46664 0.65061,2.21655 0.65061,-1.63325 0.65061,1.28327 0.65061,-2.44988 0.65061,3.73314 0.65061,-1.51658 0.65061,-0.34999"
         style="fill:none;stroke:#5377d1;stroke-width:2.63955315;stroke-linecap:square;stroke-opacity:1;stroke-miterlimit:4;stroke-dasharray:none"
         id="path1763"
         sodipodi:nodetypes="ccccccccccccccccccccccccccccccccccccccccccccccccccccccccccccccccccccccccccccccccccccccccccccccccccccccccccccccccccccccccccccccccccccccccccccccccccccccccccccccccccccccccccccccccccccc" />
    </g>
    <g
       id="line2d_13-3"
       transform="matrix(0.26645326,0,0,0.12566444,568.55341,84.335516)"
       style="stroke:#e75f4a;stroke-linecap:butt;stroke-linejoin:round;stroke-opacity:1;stroke-width:1.54657048;stroke-miterlimit:4;stroke-dasharray:none"
       inkscape:export-xdpi="500"
       inkscape:export-ydpi="500">
      <path
         clip-path="url(#pb46b2f9440-0)"
         d="m 202.65357,208.02674 0.65061,-1.04994 0.65061,-16.21071 0.65061,-21.27857 0.65061,-36.62686 0.65061,98.29781 0.65061,-145.355257 0.65061,166.425437 0.65061,-74.57087 0.65061,-95.643819 0.65061,95.006009 0.65061,67.00517 0.65061,-51.94323 0.65061,37.97779 0.65061,-140.26306 0.65061,81.9032 1.30122,-40.02887 0.65061,65.37551 0.65061,-49.32763 0.65061,110.77457 0.65061,-159.668365 0.65062,133.261695 0.65061,-141.525585 0.65061,197.651315 0.65061,-129.76354 0.65061,135.56805 0.65061,-139.81207 0.65061,-67.237987 0.65061,66.538487 0.65061,-40.1535 0.65061,63.52957 0.65061,8.25999 0.65061,66.39085 0.65061,-62.34182 0.65061,46.60469 0.65061,-58.57058 0.65061,63.25116 0.65061,-90.63448 0.65061,-10.64031 0.65061,87.73248 0.65061,-43.62968 0.65061,57.02111 0.65061,2.01297 0.65061,-151.604103 0.65061,152.250743 0.65061,-68.77227 0.65061,56.01456 1.30122,-131.973237 0.65061,-5.064859 0.65061,-23.454344 0.65061,98.69416 0.65061,66.10605 0.65062,-163.894779 0.65061,10.349083 0.65061,179.844276 0.65061,-41.80949 0.65061,-51.44679 0.65061,87.52841 0.65061,-103.25781 0.65061,52.72166 0.65061,9.84648 0.65061,48.44134 0.65061,-88.18484 0.65061,94.46274 0.65061,-144.94035 0.65061,-10.12224 0.65061,-1.15548 0.65061,64.4195 0.65061,37.4422 0.65061,-94.47526 0.65061,31.88445 0.65061,72.31771 0.65061,-146.591884 0.65061,49.331904 0.65061,101.81624 0.65061,17.9562 0.65061,-170.322592 0.65061,78.993282 0.65061,33.92809 0.65061,-30.75801 0.65062,-40.77336 0.6506,166.43856 0.65062,-132.6919 0.6506,-46.82115 0.65062,108.60099 0.65061,-65.55602 0.65061,-43.2244 0.65061,-34.964015 0.65061,177.786575 0.65061,-44.68994 0.65061,-56.89541 0.65061,123.87565 1.30122,-116.24037 0.65061,-11.30808 0.65061,-54.220067 0.65061,192.561037 0.65061,-66.71427 0.65061,81.46556 0.65061,-102.98295 0.65061,-0.8108 0.65061,-0.58331 0.65061,-0.11666 1.30122,-5.01641 0.65061,-0.5833 1.30122,-2.21655"
         style="fill:none;stroke:#e75f4a;stroke-width:1.54657048;stroke-linecap:square;stroke-opacity:1;stroke-miterlimit:4;stroke-dasharray:none"
         id="path1763-5"
         sodipodi:nodetypes="ccccccccccccccccccccccccccccccccccccccccccccccccccccccccccccccccccccccccccccccccccccccccccccccccccccccccc"
         transform="translate(-163.28747,-12.561915)" />
    </g>
    <g
       id="line2d_13-2"
       transform="matrix(0.26645326,0,0,0.12566444,578.2656,81.686743)"
       style="stroke:#5377d1;stroke-linecap:butt;stroke-linejoin:round;stroke-opacity:1;stroke-width:2.63955315;stroke-miterlimit:4;stroke-dasharray:none"
       inkscape:export-xdpi="500"
       inkscape:export-ydpi="500">
      <path
         clip-path="url(#pb46b2f9440-6)"
         d="m 73.832727,191.69425 0.650611,-0.58331 0.65061,-0.11666 1.301221,-5.01641 0.65061,-0.5833 1.30122,-2.21655 0.650611,-0.58331 1.30122,11.89939 0.650611,-3.8498 0.65061,-6.06635 1.301221,0.23332 0.65061,8.51623 0.65061,1.74991 0.650611,2.21655 0.65061,-0.46664 1.301221,-5.48305 0.65061,2.56653 0.65061,1.28327 0.65061,2.33321 h 0.650611 l 0.65061,2.33322 0.65061,1.1666 0.650611,-0.5833 0.65061,-3.49982 0.65061,3.14984 0.650611,0.11666 0.65061,0.69996 0.65061,-3.14984 0.650611,0.34999 0.65061,1.63324 0.65061,-0.11666 0.65061,-1.1666 1.301221,-3.03318 0.65061,-15.04923 0.650611,-21.69889 0.65061,-13.99928 0.65061,-20.53228 0.65061,-33.131631 0.65061,-13.182657 0.65061,-24.265422 0.65061,48.29752 1.30122,144.19261 0.65061,35.81483 0.65061,-0.23333 0.65061,1.86658 0.65061,-9.91616 0.65061,-13.18266 0.65061,-18.89903 0.65061,-25.54869 0.65061,-20.1823 0.65061,-7.58294 0.65061,-1.51659 0.65062,-0.81663 0.65061,-2.44987 0.65061,-1.51659 0.65061,-1.98323 0.65061,-0.11666 0.65061,-2.56654 0.65061,-1.04994 0.65061,-3.14984 0.65061,2.33321 0.65061,-1.39993 1.30122,-4.78308 0.65061,1.04994 1.30122,-3.61648 0.65061,-3.03318 0.65061,1.04995 0.65061,-2.21655 0.65061,-0.58331 0.65061,-3.96646 0.65061,1.28327 0.65061,-2.79986 0.65061,-1.51659 0.65061,-3.14984 0.65061,-1.98323 0.65061,1.28327 1.95183,-9.44952 0.65061,-0.34998 0.65061,-4.19978 0.65061,-1.63325 0.65062,-4.43311 0.65061,0.23332 0.65061,-3.49982 0.65061,-1.63325 0.65061,-4.78308 0.65061,-0.34999 1.30122,-3.8498 0.65061,-3.8498 0.65061,-0.23332 1.95183,-5.01641 0.65061,-0.46664 1.30122,4.89974 0.65061,-1.86657 0.65061,4.66643 0.65061,8.16625 1.30122,9.33285 0.65061,5.9497 0.65061,9.56617 0.65061,5.13307 1.95183,19.13236 0.65061,3.03317 0.65061,4.19979 0.65061,0.23332 0.65061,5.94969 0.65061,1.86657 0.65062,2.44988 0.65061,-2.21655 0.65061,3.61648 0.65061,2.21655 h 0.65061 l 0.65061,-1.63325 0.65061,3.14984 0.65061,-0.23332 0.65061,0.69996 0.65061,-2.56653 0.65061,1.28326 0.65061,1.74991 0.65061,-0.5833 0.65061,0.34998 0.65061,-1.98323 0.65061,2.79986 0.65061,-1.39993 0.65061,1.86657 0.65061,-1.74991 0.65061,1.74991 0.65061,-1.51659 0.65061,1.16661 0.65061,-1.86657 0.65061,1.1666 0.65061,0.69997 0.65061,-0.23332 0.65061,-0.81663 0.65061,1.39993 0.65061,-0.93329 0.65061,1.74992 0.65061,-4.08313 0.65061,2.91652 0.65062,0.23332 0.65061,0.5833 0.65061,-1.51659 0.65061,0.34999 0.65061,2.56653 0.65061,-0.11666 0.65061,0.11666 h 0.65061 l 0.65061,0.46664 0.65061,1.63325 0.65061,0.46665 0.65061,-0.93329 0.65061,2.33321 0.65061,-1.28326 0.65061,1.04994 0.65061,-1.51659 0.65061,0.81663 0.65061,1.16661 0.65061,1.51658 0.65061,-1.1666 0.65061,0.11666 0.65061,0.5833 0.65061,0.81663 0.65061,-0.81663 0.65061,1.04995 0.65061,1.39993 0.65061,0.11666 0.65061,-3.73314 0.65061,1.39992 0.65061,1.86657 0.65061,-0.34998 0.65061,0.81663 0.65062,-1.51659 0.65061,1.16661 0.65061,0.81662 0.65061,-0.23332 0.65061,-0.46664 0.65061,2.21655 0.65061,-1.63325 0.65061,1.28327 0.65061,-2.44988 0.65061,3.73314 0.65061,-1.51658 0.65061,-0.34999"
         style="fill:none;stroke:#5377d1;stroke-width:2.63955315;stroke-linecap:square;stroke-opacity:1;stroke-miterlimit:4;stroke-dasharray:none"
         id="path1763-7"
         sodipodi:nodetypes="ccccccccccccccccccccccccccccccccccccccccccccccccccccccccccccccccccccccccccccccccccccccccccccccccccccccccccccccccccccccccccccccccccccccccccccccccccccccccccccccccccccccccccccccccccccc" />
    </g>
    <g
       id="line2d_13-2-2"
       transform="matrix(0.26645326,0,0,0.12566444,394.5724,100.15124)"
       style="stroke:#5377d1;stroke-width:4.82551849;stroke-linecap:butt;stroke-linejoin:round;stroke-miterlimit:4;stroke-dasharray:none;stroke-opacity:0.51697129"
       inkscape:export-xdpi="500"
       inkscape:export-ydpi="500">
      <path
         clip-path="url(#pb46b2f9440-6-5)"
         d="m 73.832727,191.69425 0.650611,-0.58331 0.65061,-0.11666 1.301221,-5.01641 0.65061,-0.5833 1.30122,-2.21655 0.650611,-0.58331 1.30122,11.89939 0.650611,-3.8498 0.65061,-6.06635 1.301221,0.23332 0.65061,8.51623 0.65061,1.74991 0.650611,2.21655 0.65061,-0.46664 1.301221,-5.48305 0.65061,2.56653 0.65061,1.28327 0.65061,2.33321 h 0.650611 l 0.65061,2.33322 0.65061,1.1666 0.650611,-0.5833 0.65061,-3.49982 0.65061,3.14984 0.650611,0.11666 0.65061,0.69996 0.65061,-3.14984 0.650611,0.34999 0.65061,1.63324 0.65061,-0.11666 0.65061,-1.1666 1.301221,-3.03318 0.65061,-15.04923 0.650611,-21.69889 0.65061,-13.99928 0.65061,-20.53228 0.65061,-33.131631 0.65061,-13.182657 0.65061,-24.265422 0.65061,48.29752 1.30122,144.19261 0.65061,35.81483 0.65061,-0.23333 0.65061,1.86658 0.65061,-9.91616 0.65061,-13.18266 0.65061,-18.89903 0.65061,-25.54869 0.65061,-20.1823 0.65061,-7.58294 0.65061,-1.51659 0.65062,-0.81663 0.65061,-2.44987 0.65061,-1.51659 0.65061,-1.98323 0.65061,-0.11666 0.65061,-2.56654 0.65061,-1.04994 0.65061,-3.14984 0.65061,2.33321 0.65061,-1.39993 1.30122,-4.78308 0.65061,1.04994 1.30122,-3.61648 0.65061,-3.03318 0.65061,1.04995 0.65061,-2.21655 0.65061,-0.58331 0.65061,-3.96646 0.65061,1.28327 0.65061,-2.79986 0.65061,-1.51659 0.65061,-3.14984 0.65061,-1.98323 0.65061,1.28327 1.95183,-9.44952 0.65061,-0.34998 0.65061,-4.19978 0.65061,-1.63325 0.65062,-4.43311 0.65061,0.23332 0.65061,-3.49982 0.65061,-1.63325 0.65061,-4.78308 0.65061,-0.34999 1.30122,-3.8498 0.65061,-3.8498 0.65061,-0.23332 1.95183,-5.01641 0.65061,-0.46664 1.30122,4.89974 0.65061,-1.86657 0.65061,4.66643 0.65061,8.16625 1.30122,9.33285 0.65061,5.9497 0.65061,9.56617 0.65061,5.13307 1.95183,19.13236 0.65061,3.03317 0.65061,4.19979 0.65061,0.23332 0.65061,5.94969 0.65061,1.86657 0.65062,2.44988 0.65061,-2.21655 0.65061,3.61648 0.65061,2.21655 h 0.65061 l 0.65061,-1.63325 0.65061,3.14984 0.65061,-0.23332 0.65061,0.69996 0.65061,-2.56653 0.65061,1.28326 0.65061,1.74991 0.65061,-0.5833 0.65061,0.34998 0.65061,-1.98323 0.65061,2.79986 0.65061,-1.39993 0.65061,1.86657 0.65061,-1.74991 0.65061,1.74991 0.65061,-1.51659 0.65061,1.16661 0.65061,-1.86657 0.65061,1.1666 0.65061,0.69997 0.65061,-0.23332 0.65061,-0.81663 0.65061,1.39993 0.65061,-0.93329 0.65061,1.74992 0.65061,-4.08313 0.65061,2.91652 0.65062,0.23332 0.65061,0.5833 0.65061,-1.51659 0.65061,0.34999 0.65061,2.56653 0.65061,-0.11666 0.65061,0.11666 h 0.65061 l 0.65061,0.46664 0.65061,1.63325 0.65061,0.46665 0.65061,-0.93329 0.65061,2.33321 0.65061,-1.28326 0.65061,1.04994 0.65061,-1.51659 0.65061,0.81663 0.65061,1.16661 0.65061,1.51658 0.65061,-1.1666 0.65061,0.11666 0.65061,0.5833 0.65061,0.81663 0.65061,-0.81663 0.65061,1.04995 0.65061,1.39993 0.65061,0.11666 0.65061,-3.73314 0.65061,1.39992 0.65061,1.86657 0.65061,-0.34998 0.65061,0.81663 0.65062,-1.51659 0.65061,1.16661 0.65061,0.81662 0.65061,-0.23332 0.65061,-0.46664 0.65061,2.21655 0.65061,-1.63325 0.65061,1.28327 0.65061,-2.44988 0.65061,3.73314 0.65061,-1.51658 0.65061,-0.34999"
         style="fill:none;stroke:#5377d1;stroke-width:4.82551849;stroke-linecap:square;stroke-miterlimit:4;stroke-dasharray:none;stroke-opacity:0.51697129"
         id="path1763-7-7"
         sodipodi:nodetypes="ccccccccccccccccccccccccccccccccccccccccccccccccccccccccccccccccccccccccccccccccccccccccccccccccccccccccccccccccccccccccccccccccccccccccccccccccccccccccccccccccccccccccccccccccccccc" />
    </g>
    <g
       id="line2d_9"
       transform="matrix(0.1267985,0,0,0.35277778,432.93419,37.69854)"
       style="stroke:#5377d1;stroke-width:2.36408;stroke-miterlimit:4;stroke-dasharray:none;stroke-opacity:1">
      <path
         clip-path="url(#p6b37f14cc6)"
         d="m 64.130421,37.563372 0.405431,-1.045181 0.405431,0.90068 1.621723,-10.724458 0.405431,1.126702 0.405431,-2.226821 0.40543,-0.63617 0.405431,0.422599 0.405431,-0.05498 0.405431,0.825203 0.405431,1.508631 0.40543,1.008693 0.405431,0.141911 0.810862,-0.446137 0.405431,-0.117873 0.405431,0.215162 0.810861,0.917993 1.216293,-0.07466 2.027154,1.023051 0.810861,0.252333 0.405431,0.09343 0.405431,-0.07698 0.810861,0.0463 0.405431,-0.0723 0.405431,0.189851 0.405431,0.04676 0.810862,-0.248924 0.40543,-0.354756 0.405431,-0.168903 0.405431,-0.730277 0.405431,-0.324583 0.405431,-0.780989 0.40543,-0.304498 0.405431,-0.674931 0.405431,-0.353529 0.405431,0.423508 0.405431,0.139957 0.810861,1.619006 0.405431,-1.747603 0.405431,-0.980156 0.810861,4.288693 0.810862,2.654145 0.810862,1.268295 0.405431,0.969932 1.621723,2.084137 0.810861,1.524081 0.405431,0.45986 0.405431,0.0518 1.216292,-2.003934 0.810862,-2.152935 0.405431,0.376022 0.405431,-1.697301 1.216292,-8.173145 0.405431,1.24871 1.216292,-2.80778 0.405431,-0.913358 0.405431,0.98061 0.810862,2.971367 0.40543,0.985291 0.405428,0.411738 0.40543,0.09165 0.40544,-0.136368 0.40543,-0.400423 0.40543,0.216752 0.81086,1.211949 0.81086,-0.379703 0.40543,0.25156 0.40543,0.452135 0.81086,0.10006 1.2163,0.461405 1.21629,-0.163677 1.21629,0.186806 0.40543,-0.03004 0.40543,0.106831 4.45974,-2.327927 0.40543,0.0046 0.40543,0.173084 0.40543,-0.641077 0.40543,-0.06989 0.40544,-0.31963 0.40543,0.318358 0.40543,-0.0031 0.81086,-3.009674 0.40543,0.722053 0.40543,2.086091 0.40543,0.723189 0.40543,1.743695 0.81086,4.608186 0.40543,1.178777 1.2163,4.326954 0.40543,1.341409 0.40543,0.26083 1.21629,-0.04908 0.40543,0.26401 0.40543,0.460315 0.40543,0.05453 0.40543,-0.08361 0.81086,-3.528016 0.40544,-0.707511 0.40543,0.647075 0.81086,-7.80144 0.40543,-5.238221 0.40543,-2.656463 0.40543,2.860946 0.40543,-1.575883 0.40543,1.611327 0.81086,-2.2375 0.40543,1.195999 0.40544,0.179945 0.40543,0.848378 0.40543,1.425293 0.40543,0.515615 0.40543,0.274916 0.40543,-0.09274 0.81086,-0.619493 0.40543,0.42587 0.40543,1.184957 0.40543,0.529157 0.81086,-0.006 0.81087,1.089759 0.40543,0.06589 0.81086,-0.137095 0.40543,0.06416 2.02715,-0.31963 0.81087,0.07371 1.21629,-0.07998 1.21629,0.04512 0.40543,-0.311905 0.40543,-0.09543 0.40543,-0.211572 0.81086,-0.108012 1.2163,-0.598227 0.40543,0.180763 0.40543,-0.278097 0.40543,0.160724 0.40543,-0.742592 0.40543,0.04812 0.40543,-0.341033 0.40543,0.260739 0.40543,-0.969114 0.40543,-1.82517 0.40543,-1.195091 0.40544,0.456225 0.40543,2.320656 0.81086,1.872656 0.40543,2.080775 0.40543,3.494435 1.62172,5.435025 0.81086,1.658131 0.40544,0.174946 0.40543,-0.446682 0.40543,-0.695697 0.40543,-0.138594 1.21629,1.094667 0.81086,-2.421535 0.40543,-1.879427 0.40543,0.986518 0.40543,-1.192364 1.62173,-12.000433 0.40543,3.501069 0.40543,-2.702221 0.81086,-1.059223 0.40543,-0.737048 1.21629,2.85004 0.40543,0.573053 0.81087,0.505073 0.81086,-0.08697 0.40543,0.124643 0.81086,1.104982 0.40543,0.12169 0.81086,-0.322175 0.40543,0.119055 0.40543,0.293229 1.2163,0.288685 0.40543,0.09479 0.40543,0.407921 1.62172,0.05544 0.81086,-0.126644 2.02716,-0.610223 1.62172,-1.179004 0.40543,-0.377476 0.40543,0.263147 0.40543,-0.990516 0.40543,0.120191 0.40543,-0.595182 0.81087,-0.616176 0.81086,1.371718 0.40543,0.483852 0.40543,-2.153661 0.40543,-0.604816 0.40543,0.148137 0.40543,3.417821 0.81086,4.186406 0.40543,0.846287 0.40544,1.247029 0.40543,1.676262 1.21629,2.915929 0.40543,0.374886 0.40543,0.06135 0.40543,0.24538 0.40543,1.241439 0.40543,0.459406 0.40543,-0.560738 0.81086,-6.725495 0.40544,0.157406 0.40543,0.358664 0.40543,-3.81187 0.40543,-5.368105 0.40543,0.712056 0.40543,-1.76219 0.40543,-0.855194 0.40543,0.01227 0.40543,-0.629808 0.40543,0.16086 1.2163,4.514806 0.40543,-0.0066 1.21629,-0.729414 0.40543,0.133869 0.81086,1.8757 0.40543,-0.166812 0.40543,-0.402105 1.2163,0.947348 0.81086,0.03331 0.40543,0.352892 0.81086,0.13714 0.40543,-0.144501 1.21629,0.03753 0.81086,-0.318812 0.40543,-0.426916 1.2163,-0.548423 0.81086,-1.047681 1.62172,-0.60736 0.40543,0.01095 0.40543,0.529611 0.40543,1.753102 0.81087,-3.591496 0.40543,1.742878 0.40543,2.449117 0.81086,2.72935 0.40543,0.532883 1.21629,3.099373 1.2163,1.903511 1.21629,3.042709 0.40543,-0.156771 0.81086,-3.845191 0.81086,-2.270081 0.40543,-3.136053 0.40543,-4.358162 0.81086,-2.42517 0.40544,-2.060735 0.40543,-0.222205 0.40543,0.0359 0.40543,1.218265 0.40543,0.775672 0.40543,1.756283 0.40543,1.12852 0.40543,0.235473 0.40543,-0.314813 0.81086,-0.121099 0.40543,0.303498 0.40544,0.572144 0.40543,0.797439 0.81086,-0.493532 0.40543,-0.204347 0.81086,0.698106 0.40543,0.20421 0.40543,-0.161723 0.40543,0.03099 0.40543,0.219843 0.81087,-0.04512 0.40543,0.04426 0.40543,-0.149545 0.81086,-0.576415 0.81086,-1.310737 0.40543,-0.526976 0.40543,-0.228385 0.40543,0.05453 0.40543,-0.498939 0.40543,0.03499 0.40543,-0.134959 0.40544,0.504391 0.40543,0.729324 0.40543,1.598012 0.40543,-3.611944 0.40543,-1.931684 0.40543,1.811266 0.40543,3.659884 0.40543,1.259889 0.40543,1.99521 0.40543,0.398697 0.40543,1.083033 0.81087,2.916656 1.21629,1.918506 0.40543,0.403968 0.40543,0.753861 0.40543,0.199485 0.40543,-0.342623 0.40543,-0.611177 0.40543,-1.234169 0.40543,-1.836032 0.81087,-2.024337 0.40543,-0.435413 0.40543,-1.909036 1.21629,-6.93345 0.40543,3.610763 0.40543,-2.190287 0.40543,-0.990607 0.40543,0.169494 0.40543,-0.673886 0.40543,0.23811 1.2163,2.624245 0.81086,-0.365343 0.40543,-0.353574 0.40543,0.243108 0.81086,1.297786 0.40543,0.05835 0.40543,-0.12219 1.2163,1.516265 0.40543,0.04412 1.21629,0.720643 0.40543,-0.107467 1.21629,-0.784442 1.2163,-2.362144 0.40543,-2.122171 0.40543,1.932456 0.40543,-1.706161 0.40543,1.896603 0.40543,-1.637592 0.40543,2.01893 0.40543,-2.799146 0.40543,1.863977 0.40543,4.364442 0.81086,4.552794 1.2163,2.666051 0.81086,0.787033 0.40543,-0.384429 0.81086,-0.1495 0.40543,-1.346862 0.40543,-11.300645 0.40543,4.836025 0.81086,-7.958255 0.40543,0.808844 0.40544,2.884575 0.40543,0.264919 1.21629,1.484411 0.40543,1.245621 0.81086,1.015872 0.40543,0.50989 0.40543,0.07125 0.40543,0.274266"
         style="fill:none;stroke:#5377d1;stroke-width:2.36408;stroke-linecap:square;stroke-miterlimit:4;stroke-dasharray:none;stroke-opacity:1"
         id="path2664"
         sodipodi:nodetypes="cccccccccccccccccccccccccccccccccccccccccccccccccccccccccccccccccccccccccccccccccccccccccccccccccccccccccccccccccccccccccccccccccccccccccccccccccccccccccccccccccccccccccccccccccccccccccccccccccccccccccccccccccccccccccccccccccccccccccccccccccccccccccccccccccccccccccccccccccccccccccccccccccccccccccccccccccccccccccccccccccccccccccccccccccccccccccccccc"
         transform="translate(-1.894036,37.123106)" />
    </g>
    <g
       id="line2d_9-2"
       transform="matrix(0.1267985,0,0,0.35277778,461.79314,52.336826)"
       style="stroke:#01a3a5;stroke-width:2.36408;stroke-linecap:butt;stroke-linejoin:round;stroke-miterlimit:4;stroke-dasharray:none;stroke-opacity:1"
       inkscape:export-xdpi="500"
       inkscape:export-ydpi="500">
      <path
         clip-path="url(#p6b37f14cc6-8)"
         d="m 319.55183,42.906225 0.40543,0.934715 0.81086,-1.198271 0.40544,0.374431 0.81086,-5.89593 0.40543,-11.534665 0.40543,2.051465 0.40543,-0.875006 0.40543,-5.485146 0.81086,3.531196 0.40543,0.867918 0.40543,2.024655 0.81086,2.656509 0.40544,0.693561 0.40543,0.158906 0.81086,0.87302 1.21629,0.134714 0.40543,-0.445774 0.81086,-1.97512 1.62173,-5.439615 0.40543,0.767948 0.40543,0.256286 0.40543,1.797179 0.40543,-3.37897 0.40543,2.922746 0.40543,2.029426 0.40543,4.318048 0.81086,4.714153 0.81086,4.927135 0.40543,1.205996 0.40544,0.283549"
         style="fill:none;stroke:#01a3a5;stroke-width:2.36408;stroke-linecap:square;stroke-miterlimit:4;stroke-dasharray:none;stroke-opacity:1"
         id="path2664-0"
         sodipodi:nodetypes="ccccccccccccccccccccccccccccccc"
         transform="translate(-591.14886,-0.19315994)" />
    </g>
    <g
       id="line2d_13-2-2-5"
       transform="matrix(0.26645326,0,0,0.12566444,394.5724,100.15124)"
       style="stroke:#53dad1;stroke-width:4.82551849;stroke-linecap:butt;stroke-linejoin:round;stroke-miterlimit:4;stroke-dasharray:none;stroke-opacity:1"
       inkscape:export-xdpi="500"
       inkscape:export-ydpi="500">
      <path
         clip-path="url(#pb46b2f9440-6-5-4)"
         d="m 110.91751,188.19443 0.65061,-1.51659 0.65062,-0.81663 0.65061,-2.44987 0.65061,-1.51659 0.65061,-1.98323 0.65061,-0.11666 0.65061,-2.56654 0.65061,-1.04994 0.65061,-3.14984 0.65061,2.33321 0.65061,-1.39993 1.30122,-4.78308 0.65061,1.04994 1.30122,-3.61648 0.65061,-3.03318 0.65061,1.04995 0.65061,-2.21655 0.65061,-0.58331 0.65061,-3.96646 0.65061,1.28327 0.65061,-2.79986 0.65061,-1.51659 0.65061,-3.14984 0.65061,-1.98323 0.65061,1.28327 1.95183,-9.44952 0.65061,-0.34998 0.65061,-4.19978 0.65061,-1.63325 0.65062,-4.43311 0.65061,0.23332 0.65061,-3.49982 0.65061,-1.63325 0.65061,-4.78308 0.65061,-0.34999 1.30122,-3.8498 0.65061,-3.8498 0.65061,-0.23332 1.95183,-5.01641 0.65061,-0.46664 1.30122,4.89974 0.65061,-1.86657 0.65061,4.66643 0.65061,8.16625 1.30122,9.33285 0.65061,5.9497 0.65061,9.56617 0.65061,5.13307 1.95183,19.13236 0.65061,3.03317 0.65061,4.19979 0.65061,0.23332"
         style="fill:none;stroke:#53dad1;stroke-width:4.82551849;stroke-linecap:square;stroke-miterlimit:4;stroke-dasharray:none;stroke-opacity:1"
         id="path1763-7-7-6"
         sodipodi:nodetypes="ccccccccccccccccccccccccccccccccccccccccccccccccccccc" />
    </g>
    <g
       id="line2d_13-2-2-51"
       transform="matrix(0.26645326,0,0,0.12566444,436.93161,98.118754)"
       style="stroke:#5377d1;stroke-width:4.27902716;stroke-linecap:butt;stroke-linejoin:round;stroke-miterlimit:4;stroke-dasharray:none;stroke-opacity:0.516971"
       inkscape:export-xdpi="500"
       inkscape:export-ydpi="500">
      <path
         clip-path="url(#pb46b2f9440-6-5-6)"
         d="m 73.832727,191.69425 0.650611,-0.58331 0.65061,-0.11666 1.301221,-5.01641 0.65061,-0.5833 1.30122,-2.21655 0.650611,-0.58331 1.30122,11.89939 0.650611,-3.8498 0.65061,-6.06635 1.301221,0.23332 0.65061,8.51623 0.65061,1.74991 0.650611,2.21655 0.65061,-0.46664 1.301221,-5.48305 0.65061,2.56653 0.65061,1.28327 0.65061,2.33321 h 0.650611 l 0.65061,2.33322 0.65061,1.1666 0.650611,-0.5833 0.65061,-3.49982 0.65061,3.14984 0.650611,0.11666 0.65061,0.69996 0.65061,-3.14984 0.650611,0.34999 0.65061,1.63324 0.65061,-0.11666 0.65061,-1.1666 1.301221,-3.03318 0.65061,-15.04923 0.650611,-21.69889 0.65061,-13.99928 0.65061,-20.53228 0.65061,-33.131631 0.65061,-13.182657 0.65061,-24.265422 0.65061,48.29752 1.30122,144.19261 0.65061,35.81483 0.65061,-0.23333 0.65061,1.86658 0.65061,-9.91616 0.65061,-13.18266 0.65061,-18.89903 0.65061,-25.54869 0.65061,-20.1823 0.65061,-7.58294 0.65061,-1.51659 0.65062,-0.81663 0.65061,-2.44987 0.65061,-1.51659 0.65061,-1.98323 0.65061,-0.11666 0.65061,-2.56654 0.65061,-1.04994 0.65061,-3.14984 0.65061,2.33321 0.65061,-1.39993 1.30122,-4.78308 0.65061,1.04994 1.30122,-3.61648 0.65061,-3.03318 0.65061,1.04995 0.65061,-2.21655 0.65061,-0.58331 0.65061,-3.96646 0.65061,1.28327 0.65061,-2.79986 0.65061,-1.51659 0.65061,-3.14984 0.65061,-1.98323 0.65061,1.28327 1.95183,-9.44952 0.65061,-0.34998 0.65061,-4.19978 0.65061,-1.63325 0.65062,-4.43311 0.65061,0.23332 0.65061,-3.49982 0.65061,-1.63325 0.65061,-4.78308 0.65061,-0.34999 1.30122,-3.8498 0.65061,-3.8498 0.65061,-0.23332 1.95183,-5.01641 0.65061,-0.46664 1.30122,4.89974 0.65061,-1.86657 0.65061,4.66643 0.65061,8.16625 1.30122,9.33285 0.65061,5.9497 0.65061,9.56617 0.65061,5.13307 1.95183,19.13236 0.65061,3.03317 0.65061,4.19979 0.65061,0.23332 0.65061,5.94969 0.65061,1.86657 0.65062,2.44988 0.65061,-2.21655 0.65061,3.61648 0.65061,2.21655 h 0.65061 l 0.65061,-1.63325 0.65061,3.14984 0.65061,-0.23332 0.65061,0.69996 0.65061,-2.56653 0.65061,1.28326 0.65061,1.74991 0.65061,-0.5833 0.65061,0.34998 0.65061,-1.98323 0.65061,2.79986 0.65061,-1.39993 0.65061,1.86657 0.65061,-1.74991 0.65061,1.74991 0.65061,-1.51659 0.65061,1.16661 0.65061,-1.86657 0.65061,1.1666 0.65061,0.69997 0.65061,-0.23332 0.65061,-0.81663 0.65061,1.39993 0.65061,-0.93329 0.65061,1.74992 0.65061,-4.08313 0.65061,2.91652 0.65062,0.23332 0.65061,0.5833 0.65061,-1.51659 0.65061,0.34999 0.65061,2.56653 0.65061,-0.11666 0.65061,0.11666 h 0.65061 l 0.65061,0.46664 0.65061,1.63325 0.65061,0.46665 0.65061,-0.93329 0.65061,2.33321 0.65061,-1.28326 0.65061,1.04994 0.65061,-1.51659 0.65061,0.81663 0.65061,1.16661 0.65061,1.51658 0.65061,-1.1666 0.65061,0.11666 0.65061,0.5833 0.65061,0.81663 0.65061,-0.81663 0.65061,1.04995 0.65061,1.39993 0.65061,0.11666 0.65061,-3.73314 0.65061,1.39992 0.65061,1.86657 0.65061,-0.34998 0.65061,0.81663 0.65062,-1.51659 0.65061,1.16661 0.65061,0.81662 0.65061,-0.23332 0.65061,-0.46664 0.65061,2.21655 0.65061,-1.63325 0.65061,1.28327 0.65061,-2.44988 0.65061,3.73314 0.65061,-1.51658 0.65061,-0.34999"
         style="fill:none;stroke:#5377d1;stroke-width:4.27902716;stroke-linecap:square;stroke-miterlimit:4;stroke-dasharray:none;stroke-opacity:0.516971"
         id="path1763-7-7-9"
         sodipodi:nodetypes="ccccccccccccccccccccccccccccccccccccccccccccccccccccccccccccccccccccccccccccccccccccccccccccccccccccccccccccccccccccccccccccccccccccccccccccccccccccccccccccccccccccccccccccccccccccc" />
    </g>
    <g
       id="line2d_13-2-2-51-6"
       transform="matrix(0.26645326,0,0,0.12566444,436.93161,98.118754)"
       style="stroke:#53dad1;stroke-width:4.27902716;stroke-linecap:butt;stroke-linejoin:round;stroke-miterlimit:4;stroke-dasharray:none;stroke-opacity:1"
       inkscape:export-xdpi="500"
       inkscape:export-ydpi="500">
      <path
         clip-path="url(#pb46b2f9440-6-5-6-9)"
         d="m 98.555919,195.42739 0.65061,-15.04923 0.650611,-21.69889 0.65061,-13.99928 0.65061,-20.53228 0.65061,-33.131631 0.65061,-13.182657 0.65061,-24.265422 0.65061,48.29752 1.30122,144.19261 0.65061,35.81483 0.65061,-0.23333 0.65061,1.86658 0.65061,-9.91616 0.65061,-13.18266 0.65061,-18.89903 0.65061,-25.54869 0.65061,-20.1823"
         style="fill:none;stroke:#53dad1;stroke-width:4.27902716;stroke-linecap:square;stroke-miterlimit:4;stroke-dasharray:none;stroke-opacity:1"
         id="path1763-7-7-9-8"
         sodipodi:nodetypes="cccccccccccccccccc" />
    </g>
    <g
       id="line2d_8"
       transform="matrix(0.15331316,0,0,0.20689542,438.48277,74.929326)"
       style="fill:none;fill-opacity:0.75;stroke:#5377d1;stroke-width:2.80740357;stroke-miterlimit:4;stroke-dasharray:none;stroke-opacity:1"
       inkscape:export-xdpi="500"
       inkscape:export-ydpi="500">
      <path
         clip-path="url(#p7680c07678)"
         d="m 57.553051,21.85963 0.529713,-8.49599 0.264856,-2.391087 0.264856,-0.712239 0.264857,0.05088 0.397284,1.882345 1.721567,12.820296 0.662141,2.187591 0.397284,0.813987 0.529713,0.305245 0.529713,-0.305245 0.132428,0.203496 0.132428,-0.305245 h 0.132428 l 0.264857,0.559616 0.132428,-0.05087 0.132428,0.203497 0.926998,3.1542 0.132428,0.152623 0.397284,0.813987 0.264857,0.254371 0.132428,-0.203497 0.132428,0.203497 0.264856,-0.457868 1.191854,-1.271855 0.132428,-0.05087 0.132429,-0.254371 0.132428,0.05087 0.132428,0.203497 0.132428,-0.152623 0.529713,0.661365 h 0.132428 l 0.264856,0.661364 1.324282,3.306823 0.132429,0.101748 0.794569,1.5771 0.132428,0.101749 0.397284,0.661364 0.529713,0.457868 0.264857,0.508742 0.132428,-0.05087 0.264856,0.305246 0.132428,0.152622 0.132429,-0.101748 0.264856,0.203497 0.132428,0.203496 h 0.264857 l 0.794569,0.508742 0.132428,-0.101748 0.132428,0.101748 0.132428,0.254371 0.397285,-0.203497 0.264856,0.203497 0.132428,0.101749 0.132429,-0.254371 0.397284,0.305245 0.132428,-0.203497 0.264857,0.152623 0.132428,0.152622 0.132428,-0.203497 0.264856,0.406994 0.132429,-0.254371 0.264856,0.05087 0.132428,-0.101748 0.264857,0.203497 0.132428,0.254371 0.397284,-0.05087 0.397285,0.508742 0.264856,-0.05087 0.132429,0.05087 0.264856,0.457868 0.132428,-0.152623 0.132428,0.406994 0.264857,-0.101748 0.529712,0.661364 0.132429,0.05087 0.132428,0.457868 0.132428,0.05087 0.132428,-0.152622 0.529713,0.712238 0.132428,-0.203496 0.132428,0.254371 0.132429,-0.152623 0.397284,-1.271855 0.264857,-1.933219 0.264856,-3.103326 0.397284,-6.715393 1.059426,-18.670829 0.397285,-2.696332 0.264856,-0.508742 0.132428,0.254371 0.397285,2.238464 1.853994,13.023794 0.662141,1.984093 0.132429,0.305245 0.132428,-0.05087 0.264856,0.254371 0.132428,-0.101748 0.132429,0.152622 0.926997,-0.254371 h 0.132428 l 0.662141,1.780597 0.397285,1.526226 0.397284,1.170106 0.132428,0.152623 0.264857,0.661364 0.264856,-0.152622 0.132428,0.05087 0.264857,-0.406994 0.132428,0.254371 0.132428,-0.101748 0.264856,-0.406994 0.662141,-0.915735 0.132429,-0.05087 0.132428,0.152622 0.132428,-0.05087 0.132428,-0.254371 0.264857,0.457868 h 0.132428 l 0.926997,1.5771 0.529713,1.424477 0.132428,0.203497 0.397285,1.271855 0.132428,0.101748 0.397284,0.763113 0.529713,1.068358 0.132428,0.101749 0.397285,0.864861 0.132428,-0.05087 0.132428,0.254371 0.132428,-0.05087 0.264857,0.406994 0.794569,0.763113 0.132428,-0.05087 0.13243,0.254371 0.13243,-0.05088 0.26485,0.254371 0.13243,-0.05087 0.13243,0.101749 0.13243,-0.101749 0.26485,0.406994 0.26486,-0.203497 0.39728,0.203497 0.66215,0.05087 0.26485,0.203497 0.13243,-0.203497 0.26486,0.152622 0.66214,0.254371 0.13243,-0.101748 0.26485,0.152623 0.13243,-0.152623 0.39729,0.356119 0.52971,0.152623 0.13243,0.254371 0.13242,-0.101748 0.26486,0.254371 0.26486,0.25437 0.13243,0.203497 0.13242,-0.203497 0.26486,0.35612 0.26486,0.203497 0.26485,0.203496 0.13243,0.254371 0.13243,-0.152622 0.26486,0.559616 0.13242,-0.05087 0.927,0.661364 h 0.52971 l 0.13243,-0.152622 0.39729,-1.984094 0.26485,-2.441961 0.52972,-8.85211 0.92699,-17.348099 0.39729,-4.069936 0.26485,-0.966609 0.13243,0.203496 0.13243,-0.050874 0.66214,4.12081 0.79457,6.3084 0.39729,2.696332 0.66214,2.747206 0.66214,1.271855 0.13243,-0.05087 0.13242,0.203497 0.13243,-0.203497 0.13243,0.203497 0.26486,-0.203497 0.13242,-0.203497 0.26486,0.101749 0.13243,-0.101749 0.52971,0.254371 0.39729,1.017484 1.19185,4.324306 0.52971,0.35612 0.927,-0.305245 0.13243,-0.305246 0.26485,-0.101748 0.52972,-0.356119 0.39728,0.05087 0.26486,0.508742 0.79457,1.424477 2.11885,4.7313 0.52971,0.457868 0.26486,0.406993 0.26485,0.305245 0.79457,0.915736 h 0.26486 l 0.39728,0.356119 0.26486,-0.101748 0.26486,0.406993 0.26485,-0.101748 0.13243,0.305245 0.13243,-0.152622 0.26486,0.101748 0.52971,0.101748 0.13243,0.152623 0.13242,-0.05087 0.13243,0.101748 0.13243,-0.101748 0.26486,0.101748 0.13243,0.203497 0.13242,-0.101748 0.66214,0.254371 0.13243,-0.101749 0.26486,0.305245 h 0.13243 l 0.26485,0.305245 0.26486,-0.203496 0.66214,0.61049 0.26486,-0.101748 0.39728,0.406993 0.13243,-0.152622 0.13243,0.406993 0.13243,-0.101748 0.66214,0.559616 0.26485,0.305245 0.26486,0.203497 0.26486,0.305245 0.26485,0.203497 0.13243,0.254371 h 0.13243 l 0.39728,0.305245 0.52972,0.305245 0.26485,-0.101748 0.26486,-0.457868 0.39728,-2.54371 0.39729,-4.934796 0.66214,-12.718549 0.52971,-9.615222 0.39729,-4.324306 0.39728,-1.017484 0.39729,1.170106 0.52971,3.815565 0.66214,5.545287 0.66214,4.222558 0.66214,2.441961 0.13243,-0.05087 0.39728,0.61049 0.13243,0.101748 0.927,-0.254371 0.13243,0.101749 0.13243,-0.305245 0.13242,0.305245 h 0.13243 l 0.52972,1.22098 0.66214,2.899829 0.39728,0.915736 0.39729,0.61049 0.26485,-0.254371 0.13243,0.254371 0.26486,-0.254371 0.26485,0.05087 0.13243,-0.203496 0.13243,0.203496 0.26486,-0.457867 0.26485,-0.254371 0.13243,0.101748 0.13243,-0.203497 0.26485,0.305245 0.13243,-0.152622 0.66214,0.813987 0.52972,1.475352 0.26485,0.305245 1.32429,2.899829 0.26485,0.457867 0.39729,0.712239 0.13242,0.05087 0.52972,0.915736 0.26485,0.203497 0.26486,0.356119 0.13243,-0.152623 0.39728,0.457868 0.13243,-0.152623 0.66214,0.508742 0.13243,0.254371 0.13243,-0.101748 0.13243,0.152623 0.39728,-0.203497 0.26486,0.406993 0.13243,0.152623 0.39728,-0.05087 h 0.26486 0.13242 l 0.13243,0.305245 0.13243,-0.05087 0.26486,0.152622 0.26485,-0.05087 0.13243,0.305245 0.39729,-0.101748 0.13242,0.457868 0.13243,-0.152623 0.13243,0.254371 0.13243,-0.254371 0.66214,0.559616 0.13243,-0.101748 0.26485,0.101748 0.39729,0.61049 0.13243,-0.203496 0.66214,0.508742 0.26485,-0.152623 0.26486,0.356119 0.26486,0.152623 0.52971,0.406993 0.39729,0.610491 0.13242,0.101748 0.26486,0.305245 h 0.26486 l 0.13242,0.305245 0.13243,-0.05087 0.26486,0.305245 0.39728,-0.712238 0.39729,-2.289339 0.39728,-4.7313 0.52972,-9.869593 0.79456,-13.430787 0.39729,-3.357697 0.26486,-0.457868 0.26485,0.610491 0.26486,1.322729 0.79457,7.020638 0.66214,4.7313 0.79457,3.408571 0.26485,0.915736 h 0.13243 l 0.26486,0.356119 1.05942,-0.05087 0.13243,-0.101749 0.52971,0.457868 0.39729,0.661365 0.26486,1.322729 0.26485,0.661364 0.26486,0.763113 0.39728,0.813987 0.26486,0.152623 h 0.26486 l 0.13242,-0.203497 0.13243,0.05087 0.26486,-0.305245 0.26486,-0.356119 h 0.13242 l 0.52972,-0.712239 0.39728,-0.254371 0.13243,-0.101748 0.13243,0.457867 0.13243,-0.101748 0.39728,0.712239 0.13243,0.05087 0.52971,1.170106 0.52971,1.526226 0.13243,0.05087 0.26486,0.813987 0.13243,0.101749 0.39728,1.271855 0.13243,-0.05087 0.26486,0.457868 0.26485,0.457868 0.79457,1.068358 0.26486,0.305245 0.13243,0.254371 0.26485,0.101748 0.13243,0.305246 0.26486,-0.05087 0.26485,0.203497 0.66214,0.305245 0.13243,0.254371 0.13243,-0.203497 0.13243,0.203497 0.13243,-0.203497 0.26485,0.457868 0.13243,-0.152622 0.13243,0.101748 0.13243,-0.152623 0.13243,0.254371 h 0.39728 l 0.26486,0.35612 0.26485,-0.101749 0.13243,0.101749 0.13243,-0.203497 0.13243,0.101748 0.13243,-0.05087 0.39728,0.305245 0.13243,-0.101748 0.13243,0.152622 0.13242,-0.101748 0.13243,0.101748 0.13243,-0.05087 0.39729,0.406994 0.13242,-0.152623 0.26486,0.152623 h 0.13243 l 0.26485,0.305245 0.13243,-0.101748 0.13243,0.457867 0.26486,-0.203496 0.26485,0.305245 0.13243,-0.05087 0.26486,0.254371 0.13243,0.305245 0.26485,0.05087 0.39729,0.305245 0.66214,0.508742 0.13243,-0.05087 0.39728,-0.661365 0.39729,-2.085842 0.39728,-4.37518 0.66214,-12.209806 0.66214,-12.057184 0.39729,-3.713816 0.26485,-0.712239 0.13243,-0.050874 0.39729,1.933219 0.79457,6.206652 0.39728,3.306822 0.79457,4.476929 0.39728,1.373603 0.26486,0.661365 0.52971,0.508742 h 0.52972 l 0.66214,-0.661365 0.13242,0.05088 0.66215,1.22098 0.39728,1.780597 0.66214,1.882345 0.26486,0.152623 h 0.13243 l 0.13242,0.254371 0.13243,-0.05087 0.52971,-0.661364 0.13243,-0.05087 0.79457,-1.220981 0.26486,0.305245 0.13243,-0.203497 0.39728,0.763113 0.13243,0.05087 1.45671,4.222558 1.05943,1.933219 0.26485,0.05087 0.26486,0.508742 h 0.39728 l 0.26486,0.203497 0.927,0.356119 0.26485,0.406994 0.13243,0.05087 0.52971,0.661364 0.13243,-0.05087 0.13243,0.356119 h 0.26486 l 0.39728,0.305246 h 0.26486 l 1.58914,0.05087 0.66214,0.406993 0.13242,-0.203496 0.26486,0.356119 0.26486,-0.203497 0.13243,0.203497 0.26485,-0.101748 0.26486,0.203496 h 0.26485 0.13243 l 0.39729,0.508742 0.13243,-0.101748 0.26485,0.305245 h 0.13243 l 0.26486,0.356119 0.13243,0.101749 0.13242,-0.05087 0.39729,0.559616 0.26486,-0.152623 0.26485,0.457868 0.39729,0.457868 0.13242,-0.05087 0.13243,0.101749 0.13243,-0.05087 0.13243,0.152622 0.26485,-0.406993 0.39729,-1.220981 0.26486,-1.882345 0.39728,-4.629552 1.45671,-21.875902 0.26486,-1.729723 0.13242,-0.457868 0.39729,0.254371 0.26486,1.068358 0.39728,2.492836 0.52971,3.612067 0.79457,3.968187 0.52971,1.475352 0.13243,-0.101748 0.13243,0.101748 0.13243,-0.254371 h 0.13243 l 0.26485,-0.406994 0.13243,-0.152622 0.79457,-2.645458 0.26486,-0.305245 h 0.13243 l 0.52971,1.017484 0.26485,1.271854 0.52972,1.322729 0.39728,0.712239 0.26486,0.254371 0.26486,0.457868 0.13242,-0.05087 0.26486,0.661364 0.52971,0.508742 0.66214,0.813987 0.13243,0.305245 h 0.13243 l 0.52971,1.017484 0.66214,1.831471 0.13243,0.101748 0.927,2.747207 0.13243,0.05087 0.13243,0.305245 h 0.26485 l 0.26486,0.406994 0.39728,-0.05087 0.26486,0.305245 0.13243,0.101748 h 0.26485 l 0.927,2.747206 0.26486,0.915736 0.92699,2.340213 0.13243,-0.05087 0.26486,0.152622 0.52971,0.406994 0.26486,-0.101749 0.39728,0.35612 1.32428,2.747206 0.26486,0.457868 0.52971,0.508742 0.39729,0.406993 0.26485,-0.203496 0.39729,0.05087 0.13243,-0.203497"
         style="fill:none;fill-opacity:0.75;stroke:#5377d1;stroke-width:2.80740357;stroke-linecap:square;stroke-miterlimit:4;stroke-dasharray:none;stroke-opacity:1"
         id="path3450"
         sodipodi:nodetypes="ccccccccccccccccccccccccccccccccccccccccccccccccccccccccccccccccccccccccccccccccccccccccccccccccccccccccccccccccccccccccccccccccccccccccccccccccccccccccccccccccccccccccccccccccccccccccccccccccccccccccccccccccccccccccccccccccccccccccccccccccccccccccccccccccccccccccccccccccccccccccccccccccccccccccccccccccccccccccccccccccccccccccccccccccccccccccccccccccccccccccccccccccccccccccccccccccccccccccccccccccccccccccccccccccccccccccccccccccccccccccccccccccccccccccccccccccccccccccccccccccccccccccccccccccccccccccccccccccccccccccccccccccccccccccccccccccccccccccccc"
         transform="translate(-44.899693,-13.434554)" />
    </g>
    <path
       clip-path="url(#p7680c07678-1)"
       d="m 245.86594,45.719694 0.66214,-7.682003 1.19185,-16.330616 0.39729,-2.136716 0.26485,-0.864862 0.13243,0.05088 0.79457,3.103325 1.72157,11.751939 0.39728,1.831471 0.927,2.848955 0.39728,0.966609 0.26486,0.35612 0.52971,1.170106 0.13243,0.152623 0.39729,0.813987 0.13242,0.152622 0.26486,0.610491 0.66214,-0.35612 0.13243,-0.101748 0.13243,-0.457868 0.13243,-0.05087 0.26485,-0.457868 0.26486,-0.813987 0.39728,-0.813987 0.52972,-1.271855 0.26485,-0.356119 0.52972,-0.712239 0.52971,-0.101748 0.13243,0.101748 0.13242,-0.05087 0.39729,0.305245 0.26486,0.305245 0.13242,0.254371 0.13243,-0.05087 0.13243,0.508742 0.13243,-0.101748 0.52971,0.813987 0.39729,0.559616 0.26485,0.61049 h 0.13243 l 0.39728,0.813987 0.13243,-0.101748 0.52972,1.119232 0.52971,0.406994 0.26486,0.356119 0.26485,0.101748 0.13243,0.35612 0.13243,-0.152623 0.26485,0.254371 0.26486,0.05087 0.26486,0.203497 0.66214,0.457868 0.13243,-0.05087 0.13242,0.254371 0.26486,-0.152623 0.39728,0.457868 h 0.26486 l 0.13243,0.305245 0.39729,0.101748 0.39728,0.05087 0.52971,0.101749 0.26486,0.203497 0.13243,-0.101749 0.13242,0.406994 0.13243,-0.254371 0.52972,0.559616 0.13242,-0.05087 0.26486,0.305245 0.39728,0.406993 0.26486,0.101749 0.26486,0.05087 0.52971,0.356119 h 0.66214 l 0.13243,0.203497 0.26486,-0.152623 0.52971,-1.373603 0.13243,-0.61049 0.92699,-10.734455 0.66214,-8.852109 0.39729,-3.561194 0.26486,-1.170106 0.26485,0.203497 0.13243,0.203496 0.26486,1.271855 0.66214,4.324307 1.32428,8.953858 0.13243,0.406993 0.26485,1.271855 1.05943,2.696332 0.13243,0.05087 0.52971,0.96661 0.52971,1.271855 0.26486,0.203497 0.26486,0.406993 0.26485,0.254371 0.26486,0.203497 0.26486,-0.35612 0.26485,-0.152622 1.45671,-3.103326 0.927,-0.96661 0.52971,-0.203496 0.52971,0.305245 0.13243,-0.05087 0.26486,0.406993 0.26486,0.305245 0.26485,0.406994 0.26486,0.661364 0.13243,0.05087 0.26485,0.457867 0.26486,0.457868 0.26486,0.457868 0.39728,0.763113 0.26486,0.356119 0.13243,-0.05087 0.66214,0.61049 0.13242,0.05087 0.13243,0.305246 0.13243,-0.05087 0.52971,0.406994 0.13243,0.254371 h 0.13243 l 0.13243,0.152622 0.13243,-0.05087 0.39728,0.406994 0.13243,-0.101749 0.26485,0.406994 0.26486,0.254371 h 0.13243 l 0.26486,0.406993 0.13242,-0.05087 0.39729,0.508742 0.13243,-0.203497 0.39728,0.35612 0.13243,-0.05087 0.26486,0.101748 h 0.13242 l 0.13243,0.305245 h 0.13243 l 0.13243,0.152623 0.13243,-0.05088 0.26485,0.406994 0.26486,0.152623 0.13243,0.203496 0.13243,-0.305245 0.26485,0.305245 0.79457,0.35612 0.13243,0.305245 0.26486,0.101748 0.52971,0.203497 0.13243,0.356119 0.52971,0.101749 0.52971,0.152622 0.39729,-1.068358 0.26485,-1.22098 0.39729,-3.51032 0.52971,-8.445116 0.927,-14.244774 0.39728,-2.899829 0.13243,-0.508741 h 0.26486 l 0.26485,0.864861 0.39729,1.984093 1.58914,11.65019 0.13242,0.254371 0.39729,1.882346 0.79457,2.136716 1.19185,1.678848 0.26486,0.254371 0.26486,0.406993 1.58913,3.408571 h 0.26486 l 0.26486,-0.101748 0.39728,-0.661365 0.79457,-1.322729 0.26486,-0.406993 0.39728,-0.813987 0.13243,0.305245 0.26486,-0.457868 0.13242,-0.101748 0.26486,0.101748 0.66214,0.101749 1.19185,2.034967 0.39729,0.864862 0.66214,0.915735 0.26486,0.61049 0.26485,0.35612 0.13243,0.05087 0.13243,0.406994 h 0.13243 l 0.13243,0.406993 h 0.13242 l 0.39729,0.661365 h 0.13243 l 0.13242,0.406993 0.13243,-0.101748 0.26486,0.305245 0.26486,0.05087 0.39728,0.254371 0.13243,-0.05087 0.26485,0.254371 0.13243,-0.101749 0.13243,0.305246 0.13243,-0.203497 0.927,0.712238 0.13242,-0.152622 0.26486,0.152622 0.13243,-0.101748 0.927,0.712239 0.13243,-0.254371 0.26485,0.203497 h 0.13243 l 0.26486,0.203496 0.13242,0.152623 0.13243,-0.305245 0.26486,0.406993 0.39728,0.203497 0.39729,0.05087 0.26485,0.203497 h 0.13243 l 0.26486,0.305245 0.39728,0.254371 0.13243,0.101749 0.13243,-0.101749 0.13243,0.35612 0.13243,-0.05088 0.26485,0.101749 0.39729,-0.610491 0.52971,-2.950703 0.39728,-4.833048 1.58914,-23.554751 0.26486,-1.119232 0.13243,-0.152623 0.26485,0.457868 0.13243,0.203496 2.11885,14.753516 0.52972,2.340213 1.05942,2.594584 0.13243,0.101748 0.66214,1.068358 1.19186,2.034968 0.39728,1.220981 0.39728,1.119232 0.13243,0.05087 0.39729,0.559616 0.79457,-0.305245 0.26485,-0.457868 0.26486,-0.406993 0.39728,-0.712239 0.13243,-0.05087 0.52971,-0.864861 0.66214,-0.35612 0.13243,0.305246 0.13243,-0.152623 0.39729,0.406993 0.39728,0.508742 0.52971,1.068358 0.13243,-0.05087 0.13243,0.610491 h 0.13243 l 0.39728,0.763112 0.26486,0.406994 1.19185,2.340213 0.13243,-0.05087 0.26486,0.559616 h 0.13242 l 0.66215,1.119232 0.13242,-0.101748 0.13243,-0.05088 0.26486,0.406994 h 0.26485 l 0.13243,0.305245 0.26486,0.101749 0.26486,0.152622 0.13242,-0.203497 0.13243,0.254371 0.13243,-0.152622 0.13243,0.05087 0.26486,0.406993 0.13242,-0.356119 0.13243,0.356119 0.26486,-0.05087 0.26485,0.152623 0.52972,0.05087 0.26485,0.203497 0.13243,-0.05087 0.13243,0.152622 0.13243,-0.05087 0.39728,0.203497 0.26486,0.203497 0.13243,0.356119 0.13243,-0.305245 0.13242,0.05087 0.13243,0.254371 0.13243,-0.101748 0.26486,0.356119 0.13243,-0.254371 0.39728,0.508742 h 0.13243 l 0.26485,0.254371 0.13243,0.05087 0.26486,0.203497 0.13243,0.101748 0.13242,0.356119 0.13243,-0.101748 0.13243,0.152623 0.13243,-0.05088 0.13243,0.152623 0.26485,-0.61049 0.26486,-0.305245 0.39728,-2.187591 0.39729,-3.815564 1.72157,-25.2336 0.39728,-1.170106 0.39729,1.424477 0.26485,1.627974 0.52971,4.019062 0.79457,6.3084 1.05943,5.850532 0.13243,0.203496 0.26485,0.763113 0.66215,1.729723 0.13242,0.101748 0.13243,0.406994 0.13243,-0.101749 0.26486,0.35612 0.13242,0.305245 0.26486,0.101748 0.26486,0.508742 h 0.13242 l 0.26486,0.661365 0.26486,0.661364 0.79457,1.831471 0.66214,-0.101748 0.26485,-0.406994 0.13243,0.152623 0.66214,-1.220981 0.52972,-0.966609 0.26485,-0.457868 0.26486,-0.559616 0.13243,0.101748 0.26485,-0.406993 0.26486,-0.152623 0.13243,0.101748 0.13243,-0.101748 0.79456,0.915735 0.26486,0.406994 0.13243,0.254371 0.13243,0.508742 0.13243,-0.05087 0.92699,2.18759 0.13243,0.101748 0.927,2.085842 0.13243,-0.101748 0.52971,1.017484 0.26486,0.305245 0.13242,-0.101748 0.13243,0.356119 0.13243,-0.152623 0.26486,0.508742 h 0.26485 0.13243 l 0.26486,0.406994 0.66214,-0.05087 0.26486,0.406993 0.13242,-0.152622 0.79457,0.203496 0.13243,-0.152622 0.39729,0.203496 0.13242,-0.101748 0.13243,0.203497 0.13243,-0.101749 0.26486,0.152623 0.13243,-0.101748 0.26485,0.406993 0.13243,-0.254371 0.26486,0.152623 1.19185,0.508742 0.52971,0.661364 0.13243,-0.05087 0.26486,0.152623 0.39728,0.203496 0.26486,-0.203496 0.66214,-4.12081 0.26485,-3.205074 0.52972,-9.208229 0.79457,-13.22729 0.39728,-3.662942 0.39729,-0.813987 0.13242,0.05087 0.26486,0.96661 2.64857,16.686735 0.52971,1.831471 0.13242,0.101748 0.79457,1.678849 0.13243,0.101748 0.13243,0.406994 0.13243,-0.05088 1.19185,1.984094 0.66214,1.882345 0.26486,0.96661 0.26486,0.406993 0.52971,0.96661 0.79457,-0.356119 1.32428,-1.424478 0.39729,-0.203497 0.13242,-0.254371 0.66214,0.254371 0.13243,-0.101748 0.39729,0.356119 1.85399,3.001578 0.26486,0.712238 0.13243,0.101749 0.26485,0.457868 0.52971,0.915735 0.13243,0.101748 0.52972,1.068358 h 0.26485 l 0.26486,0.406994 1.32428,0.96661"
       style="fill:none;stroke:#01a3a5;stroke-width:2.80740341;stroke-linecap:square;stroke-linejoin:round;stroke-miterlimit:4;stroke-dasharray:none;stroke-opacity:1"
       id="path3450-2"
       sodipodi:nodetypes="ccccccccccccccccccccccccccccccccccccccccccccccccccccccccccccccccccccccccccccccccccccccccccccccccccccccccccccccccccccccccccccccccccccccccccccccccccccccccccccccccccccccccccccccccccccccccccccccccccccccccccccccccccccccccccccccccccccccccccccccccccccccccccccccccccccccccccccccccccccccccccccccccccccccccccccccccccccccccccccccccccccccccccccccccccccccccccccccccccccccccccccccccccccccccccccccccccccccccccccccccccccccccccccccccccc"
       transform="matrix(0.15331317,0,0,0.20689543,430.92906,71.834009)"
       inkscape:export-xdpi="500"
       inkscape:export-ydpi="500" />
    <path
       clip-path="url(#p7680c07678-1-5)"
       d="m 269.83544,46.788069 0.26486,0.05087 0.52971,0.356119 h 0.66214 l 0.13243,0.203497 0.26486,-0.152623 0.52971,-1.373603 0.13243,-0.61049 0.92699,-10.734455 0.66214,-8.852109 0.39729,-3.561194 0.26486,-1.170106 0.26485,0.203497 0.13243,0.203496 0.26486,1.271855 0.66214,4.324307 1.32428,8.953858 0.13243,0.406993 0.26485,1.271855 1.05943,2.696332 0.13243,0.05087 0.52971,0.96661 0.52971,1.271855 0.26486,0.203497 0.26486,0.406993 0.26485,0.254371 0.26486,0.203497 0.26486,-0.35612 0.26485,-0.152622 1.45671,-3.103326 0.927,-0.96661 0.52971,-0.203496 0.52971,0.305245 0.13243,-0.05087 0.26486,0.406993 0.26486,0.305245 0.26485,0.406994 0.26486,0.661364 0.13243,0.05087 0.26485,0.457867 0.26486,0.457868 0.26486,0.457868 0.39728,0.763113 0.26486,0.356119 0.13243,-0.05087 0.66214,0.61049 0.13242,0.05087 0.13243,0.305246 0.13243,-0.05087 0.52971,0.406994 0.13243,0.254371 h 0.13243 l 0.13243,0.152622 0.13243,-0.05087 0.39728,0.406994 0.13243,-0.101749 0.26485,0.406994 0.26486,0.254371 h 0.13243 l 0.26486,0.406993 0.13242,-0.05087 0.39729,0.508742 0.13243,-0.203497 0.39728,0.35612 0.13243,-0.05087 0.26486,0.101748 h 0.13242 l 0.13243,0.305245 h 0.13243 l 0.13243,0.152623 0.13243,-0.05088 0.26485,0.406994 0.26486,0.152623 0.13243,0.203496 0.13243,-0.305245 0.26485,0.305245"
       style="fill:none;stroke:#01a3a5;stroke-width:2.8074;stroke-linecap:square;stroke-linejoin:round;stroke-miterlimit:4;stroke-dasharray:none;stroke-opacity:1"
       id="path3450-2-6"
       sodipodi:nodetypes="cccccccccccccccccccccccccccccccccccccccccccccccccccccccccccccccccccccccccccc"
       transform="matrix(0.15331317,0,0,0.20689543,432.09546,85.539855)"
       inkscape:export-xdpi="500"
       inkscape:export-ydpi="500" />
    <g
       id="line2d_8-1"
       transform="matrix(0.15331316,0,0,0.20689542,432.38948,88.317618)"
       style="fill:none;fill-opacity:0.75;stroke:#5377d1;stroke-width:2.8074;stroke-linecap:butt;stroke-linejoin:round;stroke-miterlimit:4;stroke-dasharray:none;stroke-opacity:1"
       inkscape:export-xdpi="500"
       inkscape:export-ydpi="500">
      <path
         clip-path="url(#p7680c07678-0)"
         d="m 80.860412,42.921561 0.132429,0.05087 0.132428,0.457868 0.132428,0.05087 0.132428,-0.152622 0.529713,0.712238 0.132428,-0.203496 0.132428,0.254371 0.132429,-0.152623 0.397284,-1.271855 0.264857,-1.933219 0.264856,-3.103326 0.397284,-6.715393 1.059426,-18.670829 0.397285,-2.696332 0.264856,-0.508742 0.132428,0.254371 0.397285,2.238464 1.853994,13.023794 0.662141,1.984093 0.132429,0.305245 0.132428,-0.05087 0.264856,0.254371 0.132428,-0.101748 0.132429,0.152622 0.926997,-0.254371 h 0.132428 l 0.662141,1.780597 0.397285,1.526226 0.397284,1.170106 0.132428,0.152623 0.264857,0.661364 0.264856,-0.152622 0.132428,0.05087 0.264857,-0.406994 0.132428,0.254371 0.132428,-0.101748 0.264856,-0.406994 0.662141,-0.915735 0.132429,-0.05087 0.132428,0.152622 0.132428,-0.05087 0.132428,-0.254371 0.264857,0.457868 h 0.132428 l 0.926997,1.5771 0.529713,1.424477 0.132428,0.203497 0.397285,1.271855 0.132428,0.101748 0.397284,0.763113 0.529713,1.068358 0.132428,0.101749 0.397285,0.864861 0.132428,-0.05087 0.132428,0.254371 0.132428,-0.05087 0.264857,0.406994 0.794569,0.763113 0.132428,-0.05087 0.13243,0.254371 0.13243,-0.05088 0.26485,0.254371 0.13243,-0.05087 0.13243,0.101749 0.13243,-0.101749 0.26485,0.406994 0.26486,-0.203497 0.39728,0.203497 0.66215,0.05087 0.26485,0.203497 0.13243,-0.203497 0.26486,0.152622 0.66214,0.254371 0.13243,-0.101748 0.26485,0.152623 0.13243,-0.152623 0.39729,0.356119 0.52971,0.152623 0.13243,0.254371 0.13242,-0.101748 0.26486,0.254371 0.26486,0.25437 0.13243,0.203497 0.13242,-0.203497 0.26486,0.35612 0.26486,0.203497 0.26485,0.203496 0.13243,0.254371 0.13243,-0.152622 0.26486,0.559616 0.13242,-0.05087"
         style="fill:none;fill-opacity:0.75;stroke:#5377d1;stroke-width:2.8074;stroke-linecap:square;stroke-miterlimit:4;stroke-dasharray:none;stroke-opacity:1"
         id="path3450-3"
         sodipodi:nodetypes="cccccccccccccccccccccccccccccccccccccccccccccccccccccccccccccccccccccccccccccccccccccccccccc"
         transform="translate(-44.899693,-13.434554)" />
    </g>
    <g
       id="line2d_9-2-2"
       transform="matrix(0.1267985,0,0,0.35277778,431.17162,51.82984)"
       style="stroke:#01a3a5;stroke-width:2.36408;stroke-linecap:butt;stroke-linejoin:round;stroke-miterlimit:4;stroke-dasharray:none;stroke-opacity:1">
      <path
         clip-path="url(#p6b37f14cc6-8-4)"
         d="m 277.38703,31.583649 0.81086,-0.848986 1.21629,-3.350979 0.40543,-1.715386 0.40543,3.322078 0.40543,-2.77679 0.40543,0.621629 0.40543,-2.388363 0.40544,1.407299 0.81086,8.108618 1.62172,8.892108 0.40543,0.334898 0.40543,-0.229476 0.40543,0.03181 0.40543,0.468948 0.40544,-0.422144 0.40543,0.215843 0.40543,-1.968491 0.40543,-3.448948 0.40543,-5.496148 0.40543,-13.339928 0.40543,5.850489 0.40543,-4.245978 0.40543,3.356703 0.40543,0.580278 0.81086,3.487028 0.81087,0.956299 0.40543,1.125703 0.81086,1.153512 1.21629,0.308024 0.40543,-0.268264 0.40543,0.145547 0.40543,-0.526385 0.40543,-0.257149 0.40543,-0.51248 0.40543,-0.291048 0.40544,-0.820023 0.81086,-2.353237 0.40543,-0.552104 0.40543,-0.853831 0.40543,0.02272 0.40543,1.803995 0.40543,-1.596331 0.40543,-2.671913 0.40543,1.80445 0.40543,3.581544 0.40543,1.168553 0.81087,6.752305 1.21629,6.525738 0.40543,1.595423 0.40543,0.775218 0.40543,-0.179036 0.81086,-2.190242 0.40543,-2.779152 0.40543,-6.664514 0.40543,-9.627792 0.40544,6.444081 0.40543,-4.588283 0.40543,-1.723566 0.40543,-0.661617 0.40543,1.056042 0.81086,2.908659 1.21629,3.222381 0.40543,0.769902 0.81087,0.660144 0.81086,-1.063703 0.40543,-0.386564 0.40543,-0.759132 0.40543,-1.033776 0.40543,-1.44924 0.81086,-1.243712 0.40543,0.938351 0.40543,-0.473947 0.40543,-1.654041 0.40544,1.457738 0.81086,6.255152 1.62172,9.239669 0.40543,1.386396 0.40543,0.934715 0.81086,-1.198271 0.40544,0.374431 0.81086,-5.89593 0.40543,-11.534665 0.40543,2.051465 0.40543,-0.875006 0.40543,-5.485146 0.81086,3.531196 0.40543,0.867918 0.40543,2.024655 0.81086,2.656509 0.40544,0.693561 0.40543,0.158906 0.81086,0.87302 1.21629,0.134714 0.40543,-0.445774 0.81086,-1.97512 1.62173,-5.439615 0.40543,0.767948 0.40543,0.256286 0.40543,1.797179 0.40543,-3.37897 0.40543,2.922746 0.40543,2.029426 0.40543,4.318048 0.81086,4.714153 0.81086,4.927135 0.40543,1.205996 0.40544,0.283549 0.40543,-0.85383 0.81086,-1.140107 0.40543,-0.06498 0.40543,-0.67025 0.81086,-5.744295 0.40543,-2.769928 0.40543,-3.875228 0.40543,-9.197605 0.40543,5.461062 0.40544,-3.60799 0.40543,2.327017 0.40543,0.633898 0.40543,1.305966 2.43258,5.288615 0.40543,0.446627 0.40544,-0.356655 0.81086,-0.271417 0.81086,-0.673658 2.83801,-4.994705 0.40543,-1.131928 0.40544,0.03499 0.40543,-0.462587 0.40543,0.469403 0.40543,-1.163736 0.40543,0.912903 0.40543,1.999845 0.81086,8.283475 2.02715,11.345995 0.81087,1.580428 0.40543,-0.197667 0.40543,-1.609055 0.40543,-2.493331 0.81086,-6.356244 0.40543,-23.706863 0.40543,20.139087 0.40543,-17.025946 0.40543,6.73113 0.40543,-1.815356 0.40544,3.987421 0.40543,1.03832 0.40543,1.787273 0.81086,1.876337 0.40543,0.339215 0.40543,0.652846 0.81086,0.928199 0.81086,-0.254813 0.81086,-1.346453 0.40544,-1.069765 0.81086,-3.467216 0.40543,-0.966069 0.40543,-0.389427 0.40543,2.154798 0.40543,-2.151617 0.40543,0.889729 0.40543,2.640831 0.40543,4.937268 1.2163,8.859163 0.81086,1.808994 0.40543,0.515752 0.40543,-0.523477 0.81086,0.460314 0.40543,-1.196908 0.40543,-2.155706 0.40543,-3.270821 0.40543,-1.865068 0.40543,-9.85954 0.40544,0.875642 0.40543,-7.557241 0.40543,1.762644 0.40543,-0.447136 0.40543,3.498479 0.81086,4.333451 0.40543,2.090318 0.40543,0.390017 0.40543,-0.178991 0.81086,0.694243 0.81087,0.706512 0.40543,-0.351211 0.81086,-1.630594 0.40543,-1.884334 0.81086,-2.344513 0.40543,1.086487 0.40543,0.24538 0.40543,-0.709329 0.40543,-2.312477 0.81087,7.391428 0.40543,2.120081 0.81086,5.480284 0.40543,2.420626 0.40543,0.967432 0.81086,0.05726 0.40543,0.342623 0.40543,0.810207 0.40543,0.0409 0.40543,-0.424416 0.40544,-1.180095 0.40543,-2.311113 0.40543,-4.062035 0.40543,-6.703093 0.40543,-17.666659 0.40543,12.198099 0.40543,-6.658879 0.40543,5.400627 0.40543,3.368518 0.40543,1.839894 0.40543,2.760931 0.40543,1.721429 0.40543,-0.05844 0.40544,0.881058 0.81086,0.672286 0.81086,-1.016371 0.40543,-1.103937 0.81086,-3.360294 0.81086,-2.966368 0.40543,-0.636624 0.40543,-0.105422 0.40544,1.157828 0.40543,-2.002571 0.40543,0.215389 0.81086,6.124451 0.40543,5.950959 1.21629,9.346696 0.81086,2.975002 0.81087,-2.386091 0.40543,0.241745 0.40543,-0.687518 0.40543,-2.166612 0.40543,-0.597545 0.40543,-2.886393 1.62172,-24.733369 0.40543,1.662675 0.40543,4.356399 0.40544,0.984245 0.40543,3.269458 0.40543,0.458042 0.81086,4.078757 0.40543,2.176518 0.40543,0.371069 0.40543,-0.09166 0.40543,-0.443492 0.40543,0.416918 0.40543,1.246393 0.40543,-1.842211 0.40543,-0.194259 0.40544,-0.728914 0.81086,-3.40778 0.40543,-1.560433 0.40543,-0.52484 0.40543,0.843379 0.40543,-0.966978 0.40543,-1.420021 0.81086,5.420574 0.40543,3.82014 0.40543,2.261824 0.81087,6.127542 0.40543,1.119204 0.40543,0.54029 0.81086,-0.436685 0.40543,0.0718 0.40543,0.342168 0.40543,-0.896999 0.81086,-3.984694 0.81086,-6.610031 0.40544,-9.446892 0.40543,1.39821 0.40543,-3.867003 0.81086,2.863672 0.40543,2.407903 0.40543,1.411387 0.40543,1.85698 0.40543,2.764521 0.40543,0.669568 0.40543,-0.366752 0.40543,0.08034 0.40544,-0.243335 0.40543,0.653619 0.81086,-1.144697 0.40543,-0.542607 0.81086,-2.473473 1.21629,-0.781126 0.40543,-0.887911 0.40543,-0.446228 0.40543,1.972126 0.40544,4.706611 0.40543,1.542621 1.21629,7.878734 0.40543,0.779308 0.40543,-0.05407 0.81086,-0.704331 0.40543,-0.0827 0.40543,-0.995151 0.40543,0.214025 0.40544,-1.006511 0.40543,-2.333834 0.40543,-3.529833 0.81086,-15.088128 0.40543,-1.01469 0.40543,-0.29173 0.40543,4.664942 0.40543,3.122684 0.81086,3.722502 0.40544,2.071005 0.40543,0.348666 0.40543,0.643668 0.81086,0.609409 0.40543,0.807204 0.81086,-1.187138 2.02715,-5.637554 0.40544,-0.679793 0.40543,2.062099 0.40543,-3.048162 0.40543,0.469857 0.40543,4.84625 0.40543,3.169216 0.40543,1.433063 0.40543,3.328031 0.40543,2.386999 0.40543,0.936987 0.40543,0.09361 0.40543,-0.458951"
         style="fill:none;stroke:#01a3a5;stroke-width:2.36408;stroke-linecap:square;stroke-miterlimit:4;stroke-dasharray:none;stroke-opacity:1"
         id="path2664-0-3"
         sodipodi:nodetypes="cccccccccccccccccccccccccccccccccccccccccccccccccccccccccccccccccccccccccccccccccccccccccccccccccccccccccccccccccccccccccccccccccccccccccccccccccccccccccccccccccccccccccccccccccccccccccccccccccccccccccccccccccccccccccccccccccccccccccccccccccccccccccccccccccccccccccccccccccccccccccccccccccccccccccccccccccccccccccccccccccccccccc" />
    </g>
    <g
       id="line2d_9-4"
       transform="matrix(0.1267985,0,0,0.35277778,403.13527,38.937204)"
       style="stroke:#5377d1;stroke-width:2.36408;stroke-linecap:butt;stroke-linejoin:round;stroke-miterlimit:4;stroke-dasharray:none;stroke-opacity:1"
       inkscape:export-xdpi="500"
       inkscape:export-ydpi="500">
      <path
         clip-path="url(#p6b37f14cc6-3)"
         d="m 124.13418,42.146456 0.40543,0.460315 0.40543,0.05453 0.40543,-0.08361 0.81086,-3.528016 0.40544,-0.707511 0.40543,0.647075 0.81086,-7.80144 0.40543,-5.238221 0.40543,-2.656463 0.40543,2.860946 0.40543,-1.575883 0.40543,1.611327 0.81086,-2.2375 0.40543,1.195999 0.40544,0.179945 0.40543,0.848378 0.40543,1.425293 0.40543,0.515615 0.40543,0.274916 0.40543,-0.09274 0.81086,-0.619493 0.40543,0.42587 0.40543,1.184957 0.40543,0.529157 0.81086,-0.006 0.81087,1.089759 0.40543,0.06589 0.81086,-0.137095 0.40543,0.06416 2.02715,-0.31963 0.81087,0.07371 1.21629,-0.07998 1.21629,0.04512 0.40543,-0.311905 0.40543,-0.09543 0.40543,-0.211572 0.81086,-0.108012 1.2163,-0.598227 0.40543,0.180763 0.40543,-0.278097 0.40543,0.160724 0.40543,-0.742592 0.40543,0.04812 0.40543,-0.341033 0.40543,0.260739 0.40543,-0.969114 0.40543,-1.82517 0.40543,-1.195091 0.40544,0.456225 0.40543,2.320656 0.81086,1.872656 0.40543,2.080775 0.40543,3.494435 1.62172,5.435025"
         style="fill:none;stroke:#5377d1;stroke-width:2.36408;stroke-linecap:square;stroke-miterlimit:4;stroke-dasharray:none;stroke-opacity:1"
         id="path2664-1"
         sodipodi:nodetypes="ccccccccccccccccccccccccccccccccccccccccccccccccccccccc"
         transform="translate(-1.894036,37.123106)" />
    </g>
    <g
       id="line2d_8-5"
       transform="matrix(0.24556395,0,0,0.35360255,397.59517,180.96615)"
       style="stroke:#5377d1;stroke-width:5.09039238;stroke-miterlimit:4;stroke-dasharray:none;stroke-opacity:1"
       inkscape:export-xdpi="500"
       inkscape:export-ydpi="500">
      <path
         clip-path="url(#p9300823fcd)"
         d="m 38.055853,58.667936 0.555233,-0.213822 0.555233,0.257423 0.555233,-0.432428 0.555233,-0.127773 0.555233,-0.382058 0.555233,0.514064 0.555233,-1.158864 0.555233,1.166973 0.555233,0.240871 1.110467,0.206468 0.555233,0.233587 0.555233,-0.499587 1.665699,-0.06627 0.555233,-0.363405 0.555233,0.398378 1.110466,-0.435144 0.555233,1.098965 1.665699,-0.84344 0.555233,0.274511 0.555233,-0.743184 0.555233,0.757394 0.555234,-0.705846 0.555233,0.18561 0.555233,1.090498 0.555233,-1.039236 0.555233,0.175603 0.555233,0.912603 0.555233,-0.836256 0.555233,-0.382148 1.110466,0.60472 0.555233,-0.528758 1.110466,0.753054 0.555233,0.01242 0.555233,-0.558537 0.555233,0.732057 0.555233,-0.928688 0.555233,0.427821 0.555234,0.05418 0.555233,0.648769 0.555233,-1.133647 0.555233,-0.451632 0.555233,0.195184 0.555233,0.737898 0.555233,-0.201368 0.555233,0.223034 0.555233,-0.30622 0.555233,0.246322 1.110466,-0.507577 0.555233,0.944592 0.555233,-0.278386 0.555233,-0.561019 0.555233,0.09769 0.555233,0.471297 0.555234,-0.650703 0.555233,-0.02342 0.555233,-0.292383 0.555233,1.697596 0.555233,-1.049479 0.555233,0.574894 0.555233,-0.557189 0.555233,0.209276 0.555233,-0.601888 0.555233,0.71864 0.555233,-1.008857 0.555233,0.188815 0.555233,-0.04852 0.555233,0.847451 0.555233,-1.192737 1.110466,0.902513 0.555234,-0.513543 0.555233,0.975744 0.555233,-1.71958 0.555233,-3.802185 1.110466,-32.026897 0.555233,-4.755385 0.555233,1.011626 0.555233,7.349821 1.110466,56.249413 0.555233,8.70087 0.555233,-0.21924 0.555233,0.200216 0.555233,1.090432 0.555233,0.208862 0.555233,-0.36744 0.555234,-0.208842 0.555233,-0.488088 0.555233,0.350256 0.555233,-0.861788 0.555233,0.651137 0.555233,-0.696952 0.555233,0.467296 0.555233,0.05735 0.555233,-0.320622 0.555233,-0.849974 0.555233,0.429331 0.555233,0.901826 0.555233,-1.250665 1.110466,0.157064 0.555238,-0.453056 0.55523,0.616976 0.55523,-0.03564 0.55524,-1.001377 0.55523,-0.01828 0.55523,-0.237154 0.55523,0.08964 0.55524,-0.4465 0.55523,-0.281934 0.55523,-0.09261 0.55524,-0.555305 0.55523,0.06724 0.55523,-0.187091 0.55524,0.140661 0.55523,0.261252 0.55523,-1.20206 0.55523,0.318938 0.55524,-0.293758 0.55523,-0.105445 0.55523,-0.345177 0.55524,-0.638821 0.55523,0.273757 1.11047,-1.204328 0.55523,-1.175737 0.55523,1.401676 0.55524,-1.085442 0.55523,-0.342652 0.55523,-0.124453 1.11047,-1.301771 0.55523,0.219138 0.55523,-0.837674 0.55524,0.204172 0.55523,-1.268988 0.55523,0.247064 0.55524,-0.123966 0.55523,-1.071189 1.11047,-0.860526 0.55523,-0.1159 0.55523,-0.512477 0.55523,-0.01976 0.55524,-0.349481 0.55523,-0.119843 1.11047,-2.394653 0.55523,0.366684 1.11047,-1.183082 0.55523,1.272635 0.55523,-1.298124 0.55523,-0.190887 0.55524,0.204249 0.55523,-1.699207 0.55523,0.390587 1.11047,-1.273635 0.55523,-0.939959 0.55524,0.804767 0.55523,-0.955267 0.55523,0.39325 0.55523,-1.049861 0.55524,0.462574 0.55523,-0.272452 0.55523,-1.778162 0.55524,0.11975 0.55523,-0.332631 0.55523,-0.127654 1.11047,-1.001941 1.11047,0.676203 0.55523,-1.554955 0.55523,-0.207446 0.55523,-0.04827 0.55524,-0.979495 0.55523,0.420293 0.55523,0.105586 0.55524,-0.354898 0.55523,-1.006817 0.55523,0.455857 0.55524,0.03058 0.55523,-0.550481 0.55523,0.148791 0.55523,-0.321872 0.55524,-0.730279 0.55523,0.805414 0.55523,-0.438621 0.55524,-0.225661 0.55523,-0.719486 0.55523,1.170662 1.11047,-1.404751 0.55523,0.465458 0.55524,-1.586515 0.55523,0.67689 0.55523,-0.585648 0.55523,1.210829 0.55524,-0.914694 1.11046,0.597991 0.55524,-0.759982 0.55523,-0.173701 0.55523,0.191988 0.55524,-0.367972 0.55523,-0.04102 0.55523,0.290427 0.55524,0.04065 0.55523,-0.862786 0.55523,-0.287925 0.55523,1.080463 0.55524,-0.38597 0.55523,0.120959 0.55523,-0.119315 0.55524,0.03105 0.55523,-0.512342 0.55523,0.481454 0.55524,-0.867655 0.55523,0.690028 0.55523,-0.34093 0.55523,-0.541568 0.55524,0.476508 0.55523,0.257807 0.55523,-0.601129 0.55524,0.265262 0.55523,0.544465 0.55523,-0.865069 2.22094,0.281425 0.55523,-0.750018 0.55523,-0.118502 1.11047,0.916968 0.55523,0.260891 0.55523,-0.531938 1.11047,-0.341996 0.55523,-0.03062 0.55524,0.255541 0.55523,-0.238523 0.55523,0.853955 0.55524,-1.214362 0.55523,0.324699 0.55523,0.639667 0.55523,-0.470398 0.55524,0.09742 0.55523,-0.115559 0.55523,-0.556634 0.55524,1.28593 1.11046,-1.356529 0.55524,1.226264 0.55523,-0.519067 0.55523,-0.191044 0.55523,-0.06005 v 0"
         style="fill:none;stroke:#5377d1;stroke-width:5.09039238;stroke-linecap:square;stroke-miterlimit:4;stroke-dasharray:none;stroke-opacity:1"
         id="path4174"
         sodipodi:nodetypes="cccccccccccccccccccccccccccccccccccccccccccccccccccccccccccccccccccccccccccccccccccccccccccccccccccccccccccccccccccccccccccccccccccccccccccccccccccccccccccccccccccccccccccccccccccccccccccccccccccccccccccccccccccccccccccccccccccccccccccccccccc" />
    </g>
    <g
       id="line2d_9-5"
       transform="matrix(0.22401352,0,0,0.21100961,441.94674,181.33861)"
       style="stroke:#53dad1;stroke-width:6.89926818;stroke-miterlimit:4;stroke-dasharray:none;stroke-opacity:1"
       inkscape:export-xdpi="500"
       inkscape:export-ydpi="500">
      <path
         clip-path="url(#p9a380bba78)"
         d="m 49.027091,66.04428 0.608727,0.08708 0.608727,2.020132 0.608728,-2.620868 0.608727,0.665692 0.608727,0.0877 0.608728,-2.16751 0.608727,0.983113 0.608727,-0.996127 0.608727,2.480434 0.608728,-1.58563 0.608727,0.530558 0.608727,3.192571 1.217455,-2.269079 0.608727,-0.567032 0.608727,0.791624 0.608728,-2.708884 0.608727,1.525524 0.608727,1.041304 0.608727,-3.50558 0.608728,4.820684 0.608727,-2.31826 0.608727,0.05211 0.608727,1.253034 0.608728,-3.209188 0.608727,-0.220433 0.608727,4.580884 0.608728,-4.436808 0.608727,2.557048 0.608727,0.518152 0.608727,-0.822813 0.608728,-0.576921 0.608727,-0.860372 0.608727,1.107087 0.608727,-0.351047 0.608728,0.322797 1.217454,-0.981876 0.608728,2.034568 0.608727,-1.437662 0.608727,0.679721 0.608727,0.111164 0.608728,-2.184827 0.608727,0.366659 1.217454,-0.459701 1.217455,1.357127 0.608727,-1.292526 1.217455,1.330939 0.608727,-1.670524 1.217455,1.886361 0.608727,-1.097065 0.608727,0.324816 0.608727,-0.716545 0.608728,0.921677 0.608727,8.317763 1.217455,70.330905 0.608727,7.40323 0.608727,3.14955 0.608727,-1.87774 0.608728,-0.2708 0.608727,0.85157 0.608727,-1.12539 0.608727,0.70444 0.608728,1.7989 0.608727,-1.43099 0.608727,-0.7499 0.608728,1.53139 0.608727,-0.18825 0.608727,-1.01836 0.608727,-1.40604 1.217455,0.36983 0.608727,-2.19947 0.608727,1.03431 0.608728,-1.04372 0.608727,1.168 0.608727,-3.69344 0.608728,2.75303 0.608725,-0.10151 0.60873,-0.28078 0.60873,-1.6811 0.60872,-0.31982 0.60873,4.14797 0.60873,-2.75363 0.60873,-3.67375 0.60872,1.83784 0.60873,-0.14519 0.60873,-1.48969 0.60873,-2.00214 1.21745,1.10874 0.60873,-2.38448 0.60872,0.76725 0.60873,-1.63807 0.60873,1.0629 0.60872,-0.88021 1.21746,-2.66917 0.60873,-2.19492 1.21745,0.79136 0.60873,0.18049 0.60873,-0.92488 0.60872,1.0522 1.21746,-3.88215 0.60872,0.24448 0.60873,-1.3899 0.60873,-0.5459 0.60873,1.89916 1.21745,-2.33433 0.60873,-3.10778 1.21745,1.04091 0.60873,-1.56185 0.60873,1.01473 0.60872,-3.82249 0.60873,-1.05169 0.60873,0.47785 1.21745,-1.74749 0.60873,-1.69007 0.60873,0.21206 0.60873,-2.55685 0.60872,-0.99348 0.60873,0.16167 0.60873,-0.55806 0.60872,-3.88348 0.60873,0.42693 0.60873,-2.1888 0.60873,1.15103 0.60872,-0.54711 0.60873,-2.81803 0.60873,-2.17929 0.60873,0.59039 0.60872,-1.86392 1.21746,-0.66285 0.60872,0.77976 0.60873,-4.4877 0.60873,-0.58381 0.60873,0.83758 0.60872,-0.0561 0.60873,-1.1069 0.60873,-2.766257 0.60873,-0.07644 0.60872,-2.808511 1.21746,-0.367272 0.60872,0.720538 0.60873,-1.97141 0.60873,-0.713633 0.60873,-0.448124 0.60872,-2.516095 0.60873,-0.36448 0.60873,-0.172539 0.60873,-3.205942 0.60872,-0.234223 1.21746,0.177227 0.60873,-2.656291 0.60872,-0.655331 1.21746,1.583436 1.21745,-4.30319 0.60873,3.23143 0.60873,-2.377907 1.21745,-0.223452 1.21745,-1.21762 0.60873,0.718084 0.60873,-2.422638 0.60873,-0.547877 0.60872,0.390773 0.60873,1.099738 0.60873,-3.209006 0.60873,3.169357 0.60872,-2.368782 0.60873,0.548866 0.60873,-0.774388 0.60872,-0.403315 0.60873,-2.176622 0.60873,1.329271 0.60873,-3.36803 0.60872,2.150899 0.60873,-1.98765 0.60873,1.655293 0.60873,-0.09992 0.60872,-1.598189 0.60873,1.438047 0.60873,-0.112248 1.21745,-1.166701 0.60873,-1.56966 0.60873,-1.097631 0.60872,1.966743 0.60873,-0.599781 0.60873,0.990748 1.21745,-1.450698 0.60873,0.79164 1.21745,0.352744 0.60873,-1.021548 0.60873,0.494699 0.60873,-3.934747 1.21745,3.242949 0.60873,-0.712162 0.60873,1.037623 0.60872,-0.250076 0.60873,-2.316079 0.60873,-0.912246 0.60872,2.278627 0.60873,-2.982854 0.60873,1.327963 1.21745,1.087566 0.60873,-1.411662 0.60873,2.596628 0.60873,0.864911 0.60872,-2.358037 0.60873,-0.06905 0.60873,0.446412 1.21745,-1.113796 0.60873,1.368027 0.60873,-1.09027 0.60872,1.404649 0.60873,-0.779235 0.60873,-1.012598 0.60873,0.232466 0.60872,-0.04591 0.60873,0.482416 0.60873,-2.305432 0.60872,2.961053 0.60873,-2.336635 0.60873,3.780219 1.21745,-1.957208 0.60873,0.296207 0.60873,1.02156 0.60873,-2.353708 0.60872,1.061564 0.60873,-0.08606 0.60873,-1.382623 0.60872,-0.281342 0.60873,0.854276 0.60873,0.340961 v 0"
         style="fill:none;stroke:#53dad1;stroke-width:6.89926818;stroke-linecap:square;stroke-miterlimit:4;stroke-dasharray:none;stroke-opacity:1"
         id="path4437"
         sodipodi:nodetypes="cccccccccccccccccccccccccccccccccccccccccccccccccccccccccccccccccccccccccccccccccccccccccccccccccccccccccccccccccccccccccccccccccccccccccccccccccccccccccccccccccccccccccccccccccccccccccccccccccccccccccccccccccccccccccccccccccccccc" />
    </g>
  </g>
</svg>
