<?xml version="1.0" encoding="utf-8" standalone="no"?>
<!DOCTYPE svg PUBLIC "-//W3C//DTD SVG 1.1//EN"
  "http://www.w3.org/Graphics/SVG/1.1/DTD/svg11.dtd">
<svg height="546.48pt" version="1.1" viewBox="0 0 1105.92 546.48" width="1105.92pt" xmlns="http://www.w3.org/2000/svg" xmlns:xlink="http://www.w3.org/1999/xlink">
 <metadata>
  <rdf:RDF xmlns:cc="http://creativecommons.org/ns#" xmlns:dc="http://purl.org/dc/elements/1.1/" xmlns:rdf="http://www.w3.org/1999/02/22-rdf-syntax-ns#">
   <cc:Work>
    <dc:type rdf:resource="http://purl.org/dc/dcmitype/StillImage"/>
    <dc:date>2022-11-26T16:01:06.722136</dc:date>
    <dc:format>image/svg+xml</dc:format>
    <dc:creator>
     <cc:Agent>
      <dc:title>Matplotlib v3.4.2, https://matplotlib.org/</dc:title>
     </cc:Agent>
    </dc:creator>
   </cc:Work>
  </rdf:RDF>
 </metadata>
 <defs>
  <style type="text/css">*{stroke-linecap:butt;stroke-linejoin:round;}</style>
 </defs>
 <g id="figure_1">
  <g id="patch_1">
   <path d="M 0 546.48 
L 1105.92 546.48 
L 1105.92 0 
L 0 0 
z
" style="fill:#ffffff;"/>
  </g>
  <g id="axes_1">
   <g id="patch_2">
    <path d="M 138.24 486.3672 
L 995.328 486.3672 
L 995.328 65.5776 
L 138.24 65.5776 
z
" style="fill:#ffffff;"/>
   </g>
   <g id="PolyCollection_1">
    <defs>
     <path d="M 202.694364 -255.794677 
L 173.779236 -255.794677 
L 173.76281 -257.875292 
L 173.758238 -259.955908 
L 173.765298 -262.036523 
L 173.783721 -264.117138 
L 173.813186 -266.197754 
L 173.853325 -268.278369 
L 173.903721 -270.358985 
L 173.963909 -272.4396 
L 174.03338 -274.520215 
L 174.11158 -276.600831 
L 174.197911 -278.681446 
L 174.291735 -280.762062 
L 174.392374 -282.842677 
L 174.499113 -284.923292 
L 174.611204 -287.003908 
L 174.727866 -289.084523 
L 174.848288 -291.165138 
L 174.971633 -293.245754 
L 175.097043 -295.326369 
L 175.223635 -297.406985 
L 175.350512 -299.4876 
L 175.476763 -301.568215 
L 175.601465 -303.648831 
L 175.723689 -305.729446 
L 175.842503 -307.810062 
L 175.956975 -309.890677 
L 176.066175 -311.971292 
L 176.169182 -314.051908 
L 176.265087 -316.132523 
L 176.352992 -318.213138 
L 176.432022 -320.293754 
L 176.50132 -322.374369 
L 176.560056 -324.454985 
L 176.607429 -326.5356 
L 176.642671 -328.616215 
L 176.665048 -330.696831 
L 176.673866 -332.777446 
L 176.668475 -334.858062 
L 176.648266 -336.938677 
L 176.612683 -339.019292 
L 176.561218 -341.099908 
L 176.493418 -343.180523 
L 176.408884 -345.261138 
L 176.30728 -347.341754 
L 176.188326 -349.422369 
L 176.051807 -351.502985 
L 175.897574 -353.5836 
L 175.72554 -355.664215 
L 175.535689 -357.744831 
L 175.328073 -359.825446 
L 175.102812 -361.906062 
L 174.860096 -363.986677 
L 174.600189 -366.067292 
L 174.323421 -368.147908 
L 174.030195 -370.228523 
L 173.720985 -372.309138 
L 173.396333 -374.389754 
L 173.05685 -376.470369 
L 172.703214 -378.550985 
L 172.33617 -380.6316 
L 171.956525 -382.712215 
L 171.56515 -384.792831 
L 171.162975 -386.873446 
L 170.750985 -388.954062 
L 170.330223 -391.034677 
L 169.901779 -393.115292 
L 169.466792 -395.195908 
L 169.026444 -397.276523 
L 168.581959 -399.357138 
L 168.134593 -401.437754 
L 167.685635 -403.518369 
L 167.2364 -405.598985 
L 166.788226 -407.6796 
L 166.342467 -409.760215 
L 165.900487 -411.840831 
L 165.463659 -413.921446 
L 165.033357 -416.002062 
L 164.610949 -418.082677 
L 164.197795 -420.163292 
L 163.79524 -422.243908 
L 163.404608 -424.324523 
L 163.027197 -426.405138 
L 162.664274 -428.485754 
L 162.317072 -430.566369 
L 161.986778 -432.646985 
L 161.674536 -434.7276 
L 161.381439 -436.808215 
L 161.108521 -438.888831 
L 160.85676 -440.969446 
L 160.627067 -443.050062 
L 160.420285 -445.130677 
L 160.237187 -447.211292 
L 160.078471 -449.291908 
L 159.944756 -451.372523 
L 159.836583 -453.453138 
L 159.754409 -455.533754 
L 159.698609 -457.614369 
L 159.669472 -459.694985 
L 159.6672 -461.7756 
L 216.8064 -461.7756 
L 216.8064 -461.7756 
L 216.804128 -459.694985 
L 216.774991 -457.614369 
L 216.719191 -455.533754 
L 216.637017 -453.453138 
L 216.528844 -451.372523 
L 216.395129 -449.291908 
L 216.236413 -447.211292 
L 216.053315 -445.130677 
L 215.846533 -443.050062 
L 215.61684 -440.969446 
L 215.365079 -438.888831 
L 215.092161 -436.808215 
L 214.799064 -434.7276 
L 214.486822 -432.646985 
L 214.156528 -430.566369 
L 213.809326 -428.485754 
L 213.446403 -426.405138 
L 213.068992 -424.324523 
L 212.67836 -422.243908 
L 212.275805 -420.163292 
L 211.862651 -418.082677 
L 211.440243 -416.002062 
L 211.009941 -413.921446 
L 210.573113 -411.840831 
L 210.131133 -409.760215 
L 209.685374 -407.6796 
L 209.2372 -405.598985 
L 208.787965 -403.518369 
L 208.339007 -401.437754 
L 207.891641 -399.357138 
L 207.447156 -397.276523 
L 207.006808 -395.195908 
L 206.571821 -393.115292 
L 206.143377 -391.034677 
L 205.722615 -388.954062 
L 205.310625 -386.873446 
L 204.90845 -384.792831 
L 204.517075 -382.712215 
L 204.13743 -380.6316 
L 203.770386 -378.550985 
L 203.41675 -376.470369 
L 203.077267 -374.389754 
L 202.752615 -372.309138 
L 202.443405 -370.228523 
L 202.150179 -368.147908 
L 201.873411 -366.067292 
L 201.613504 -363.986677 
L 201.370788 -361.906062 
L 201.145527 -359.825446 
L 200.937911 -357.744831 
L 200.74806 -355.664215 
L 200.576026 -353.5836 
L 200.421793 -351.502985 
L 200.285274 -349.422369 
L 200.16632 -347.341754 
L 200.064716 -345.261138 
L 199.980182 -343.180523 
L 199.912382 -341.099908 
L 199.860917 -339.019292 
L 199.825334 -336.938677 
L 199.805125 -334.858062 
L 199.799734 -332.777446 
L 199.808552 -330.696831 
L 199.830929 -328.616215 
L 199.866171 -326.5356 
L 199.913544 -324.454985 
L 199.97228 -322.374369 
L 200.041578 -320.293754 
L 200.120608 -318.213138 
L 200.208513 -316.132523 
L 200.304418 -314.051908 
L 200.407425 -311.971292 
L 200.516625 -309.890677 
L 200.631097 -307.810062 
L 200.749911 -305.729446 
L 200.872135 -303.648831 
L 200.996837 -301.568215 
L 201.123088 -299.4876 
L 201.249965 -297.406985 
L 201.376557 -295.326369 
L 201.501967 -293.245754 
L 201.625312 -291.165138 
L 201.745734 -289.084523 
L 201.862396 -287.003908 
L 201.974487 -284.923292 
L 202.081226 -282.842677 
L 202.181865 -280.762062 
L 202.275689 -278.681446 
L 202.36202 -276.600831 
L 202.44022 -274.520215 
L 202.509691 -272.4396 
L 202.569879 -270.358985 
L 202.620275 -268.278369 
L 202.660414 -266.197754 
L 202.689879 -264.117138 
L 202.708302 -262.036523 
L 202.715362 -259.955908 
L 202.71079 -257.875292 
L 202.694364 -255.794677 
z
" id="ma3c75749b0" style="stroke:#3c3c3c;stroke-width:1.5;"/>
    </defs>
    <g clip-path="url(#pe1667b0b06)">
     <use style="fill:#c8e2bb;stroke:#3c3c3c;stroke-width:1.5;" x="0" xlink:href="#ma3c75749b0" y="546.48"/>
    </g>
   </g>
   <g id="PolyCollection_2">
    <defs>
     <path d="M 248.947753 -379.383231 
L 241.804247 -379.383231 
L 241.808057 -380.215477 
L 241.819702 -381.047723 
L 241.839098 -381.879969 
L 241.866108 -382.712215 
L 241.900541 -383.544462 
L 241.942162 -384.376708 
L 241.990683 -385.208954 
L 242.045775 -386.0412 
L 242.107064 -386.873446 
L 242.17414 -387.705692 
L 242.246556 -388.537938 
L 242.323835 -389.370185 
L 242.405472 -390.202431 
L 242.490938 -391.034677 
L 242.579684 -391.866923 
L 242.671145 -392.699169 
L 242.764746 -393.531415 
L 242.859898 -394.363662 
L 242.956013 -395.195908 
L 243.052493 -396.028154 
L 243.148745 -396.8604 
L 243.244175 -397.692646 
L 243.338192 -398.524892 
L 243.430209 -399.357138 
L 243.519645 -400.189385 
L 243.605923 -401.021631 
L 243.688468 -401.853877 
L 243.766713 -402.686123 
L 243.840088 -403.518369 
L 243.908028 -404.350615 
L 243.969961 -405.182862 
L 244.025315 -406.015108 
L 244.073508 -406.847354 
L 244.113949 -407.6796 
L 244.146032 -408.511846 
L 244.169136 -409.344092 
L 244.182621 -410.176338 
L 244.185822 -411.008585 
L 244.178051 -411.840831 
L 244.158591 -412.673077 
L 244.126697 -413.505323 
L 244.081593 -414.337569 
L 244.02247 -415.169815 
L 243.94849 -416.002062 
L 243.858782 -416.834308 
L 243.75245 -417.666554 
L 243.62857 -418.4988 
L 243.486198 -419.331046 
L 243.324372 -420.163292 
L 243.142121 -420.995538 
L 242.938473 -421.827785 
L 242.712459 -422.660031 
L 242.46313 -423.492277 
L 242.189561 -424.324523 
L 241.890869 -425.156769 
L 241.566223 -425.989015 
L 241.214859 -426.821262 
L 240.836094 -427.653508 
L 240.429345 -428.485754 
L 239.994141 -429.318 
L 239.530141 -430.150246 
L 239.037151 -430.982492 
L 238.51514 -431.814738 
L 237.964255 -432.646985 
L 237.384834 -433.479231 
L 236.777426 -434.311477 
L 236.142799 -435.143723 
L 235.48195 -435.975969 
L 234.796118 -436.808215 
L 234.086789 -437.640462 
L 233.355702 -438.472708 
L 232.60485 -439.304954 
L 231.83648 -440.1372 
L 231.053087 -440.969446 
L 230.257411 -441.801692 
L 229.452424 -442.633938 
L 228.64132 -443.466185 
L 227.827494 -444.298431 
L 227.014524 -445.130677 
L 226.206149 -445.962923 
L 225.406245 -446.795169 
L 224.618789 -447.627415 
L 223.847837 -448.459662 
L 223.097485 -449.291908 
L 222.371834 -450.124154 
L 221.674959 -450.9564 
L 221.010863 -451.788646 
L 220.383449 -452.620892 
L 219.796475 -453.453138 
L 219.253518 -454.285385 
L 218.757943 -455.117631 
L 218.312861 -455.949877 
L 217.921103 -456.782123 
L 217.585187 -457.614369 
L 217.307291 -458.446615 
L 217.089231 -459.278862 
L 216.932441 -460.111108 
L 216.837955 -460.943354 
L 216.8064 -461.7756 
L 273.9456 -461.7756 
L 273.9456 -461.7756 
L 273.914045 -460.943354 
L 273.819559 -460.111108 
L 273.662769 -459.278862 
L 273.444709 -458.446615 
L 273.166813 -457.614369 
L 272.830897 -456.782123 
L 272.439139 -455.949877 
L 271.994057 -455.117631 
L 271.498482 -454.285385 
L 270.955525 -453.453138 
L 270.368551 -452.620892 
L 269.741137 -451.788646 
L 269.077041 -450.9564 
L 268.380166 -450.124154 
L 267.654515 -449.291908 
L 266.904163 -448.459662 
L 266.133211 -447.627415 
L 265.345755 -446.795169 
L 264.545851 -445.962923 
L 263.737476 -445.130677 
L 262.924506 -444.298431 
L 262.11068 -443.466185 
L 261.299576 -442.633938 
L 260.494589 -441.801692 
L 259.698913 -440.969446 
L 258.91552 -440.1372 
L 258.14715 -439.304954 
L 257.396298 -438.472708 
L 256.665211 -437.640462 
L 255.955882 -436.808215 
L 255.27005 -435.975969 
L 254.609201 -435.143723 
L 253.974574 -434.311477 
L 253.367166 -433.479231 
L 252.787745 -432.646985 
L 252.23686 -431.814738 
L 251.714849 -430.982492 
L 251.221859 -430.150246 
L 250.757859 -429.318 
L 250.322655 -428.485754 
L 249.915906 -427.653508 
L 249.537141 -426.821262 
L 249.185777 -425.989015 
L 248.861131 -425.156769 
L 248.562439 -424.324523 
L 248.28887 -423.492277 
L 248.039541 -422.660031 
L 247.813527 -421.827785 
L 247.609879 -420.995538 
L 247.427628 -420.163292 
L 247.265802 -419.331046 
L 247.12343 -418.4988 
L 246.99955 -417.666554 
L 246.893218 -416.834308 
L 246.80351 -416.002062 
L 246.72953 -415.169815 
L 246.670407 -414.337569 
L 246.625303 -413.505323 
L 246.593409 -412.673077 
L 246.573949 -411.840831 
L 246.566178 -411.008585 
L 246.569379 -410.176338 
L 246.582864 -409.344092 
L 246.605968 -408.511846 
L 246.638051 -407.6796 
L 246.678492 -406.847354 
L 246.726685 -406.015108 
L 246.782039 -405.182862 
L 246.843972 -404.350615 
L 246.911912 -403.518369 
L 246.985287 -402.686123 
L 247.063532 -401.853877 
L 247.146077 -401.021631 
L 247.232355 -400.189385 
L 247.321791 -399.357138 
L 247.413808 -398.524892 
L 247.507825 -397.692646 
L 247.603255 -396.8604 
L 247.699507 -396.028154 
L 247.795987 -395.195908 
L 247.892102 -394.363662 
L 247.987254 -393.531415 
L 248.080855 -392.699169 
L 248.172316 -391.866923 
L 248.261062 -391.034677 
L 248.346528 -390.202431 
L 248.428165 -389.370185 
L 248.505444 -388.537938 
L 248.57786 -387.705692 
L 248.644936 -386.873446 
L 248.706225 -386.0412 
L 248.761317 -385.208954 
L 248.809838 -384.376708 
L 248.851459 -383.544462 
L 248.885892 -382.712215 
L 248.912902 -381.879969 
L 248.932298 -381.047723 
L 248.943943 -380.215477 
L 248.947753 -379.383231 
z
" id="m2a0f89c251" style="stroke:#3c3c3c;stroke-width:1.5;"/>
    </defs>
    <g clip-path="url(#pe1667b0b06)">
     <use style="fill:#51a9b3;stroke:#3c3c3c;stroke-width:1.5;" x="0" xlink:href="#m2a0f89c251" y="546.48"/>
    </g>
   </g>
   <g id="PolyCollection_3">
    <defs>
     <path d="M 331.070325 -255.794677 
L 273.960075 -255.794677 
L 273.9456 -257.875292 
L 273.95394 -259.955908 
L 273.984856 -262.036523 
L 274.038037 -264.117138 
L 274.113103 -266.197754 
L 274.209601 -268.278369 
L 274.327011 -270.358985 
L 274.464746 -272.4396 
L 274.622152 -274.520215 
L 274.798514 -276.600831 
L 274.993056 -278.681446 
L 275.204944 -280.762062 
L 275.43329 -282.842677 
L 275.677152 -284.923292 
L 275.935544 -287.003908 
L 276.207433 -289.084523 
L 276.491746 -291.165138 
L 276.787374 -293.245754 
L 277.093175 -295.326369 
L 277.407981 -297.406985 
L 277.730599 -299.4876 
L 278.059817 -301.568215 
L 278.394408 -303.648831 
L 278.733139 -305.729446 
L 279.074766 -307.810062 
L 279.41805 -309.890677 
L 279.761753 -311.971292 
L 280.104647 -314.051908 
L 280.445518 -316.132523 
L 280.783169 -318.213138 
L 281.116425 -320.293754 
L 281.44414 -322.374369 
L 281.765197 -324.454985 
L 282.078515 -326.5356 
L 282.383049 -328.616215 
L 282.677801 -330.696831 
L 282.961816 -332.777446 
L 283.23419 -334.858062 
L 283.49407 -336.938677 
L 283.74066 -339.019292 
L 283.973222 -341.099908 
L 284.191079 -343.180523 
L 284.393616 -345.261138 
L 284.580283 -347.341754 
L 284.750597 -349.422369 
L 284.904144 -351.502985 
L 285.040577 -353.5836 
L 285.159622 -355.664215 
L 285.261074 -357.744831 
L 285.3448 -359.825446 
L 285.410739 -361.906062 
L 285.458899 -363.986677 
L 285.489361 -366.067292 
L 285.502277 -368.147908 
L 285.497866 -370.228523 
L 285.476418 -372.309138 
L 285.438286 -374.389754 
L 285.383891 -376.470369 
L 285.313718 -378.550985 
L 285.22831 -380.6316 
L 285.128272 -382.712215 
L 285.014262 -384.792831 
L 284.886995 -386.873446 
L 284.747233 -388.954062 
L 284.595789 -391.034677 
L 284.433518 -393.115292 
L 284.261316 -395.195908 
L 284.080117 -397.276523 
L 283.890887 -399.357138 
L 283.694624 -401.437754 
L 283.49235 -403.518369 
L 283.285108 -405.598985 
L 283.073961 -407.6796 
L 282.859985 -409.760215 
L 282.644264 -411.840831 
L 282.427888 -413.921446 
L 282.211949 -416.002062 
L 281.997535 -418.082677 
L 281.785726 -420.163292 
L 281.577593 -422.243908 
L 281.37419 -424.324523 
L 281.176551 -426.405138 
L 280.985689 -428.485754 
L 280.802589 -430.566369 
L 280.628204 -432.646985 
L 280.463457 -434.7276 
L 280.309229 -436.808215 
L 280.166365 -438.888831 
L 280.035664 -440.969446 
L 279.91788 -443.050062 
L 279.813718 -445.130677 
L 279.723832 -447.211292 
L 279.648823 -449.291908 
L 279.589239 -451.372523 
L 279.545568 -453.453138 
L 279.518244 -455.533754 
L 279.50764 -457.614369 
L 279.514069 -459.694985 
L 279.537786 -461.7756 
L 325.492614 -461.7756 
L 325.492614 -461.7756 
L 325.516331 -459.694985 
L 325.52276 -457.614369 
L 325.512156 -455.533754 
L 325.484832 -453.453138 
L 325.441161 -451.372523 
L 325.381577 -449.291908 
L 325.306568 -447.211292 
L 325.216682 -445.130677 
L 325.11252 -443.050062 
L 324.994736 -440.969446 
L 324.864035 -438.888831 
L 324.721171 -436.808215 
L 324.566943 -434.7276 
L 324.402196 -432.646985 
L 324.227811 -430.566369 
L 324.044711 -428.485754 
L 323.853849 -426.405138 
L 323.65621 -424.324523 
L 323.452807 -422.243908 
L 323.244674 -420.163292 
L 323.032865 -418.082677 
L 322.818451 -416.002062 
L 322.602512 -413.921446 
L 322.386136 -411.840831 
L 322.170415 -409.760215 
L 321.956439 -407.6796 
L 321.745292 -405.598985 
L 321.53805 -403.518369 
L 321.335776 -401.437754 
L 321.139513 -399.357138 
L 320.950283 -397.276523 
L 320.769084 -395.195908 
L 320.596882 -393.115292 
L 320.434611 -391.034677 
L 320.283167 -388.954062 
L 320.143405 -386.873446 
L 320.016138 -384.792831 
L 319.902128 -382.712215 
L 319.80209 -380.6316 
L 319.716682 -378.550985 
L 319.646509 -376.470369 
L 319.592114 -374.389754 
L 319.553982 -372.309138 
L 319.532534 -370.228523 
L 319.528123 -368.147908 
L 319.541039 -366.067292 
L 319.571501 -363.986677 
L 319.619661 -361.906062 
L 319.6856 -359.825446 
L 319.769326 -357.744831 
L 319.870778 -355.664215 
L 319.989823 -353.5836 
L 320.126256 -351.502985 
L 320.279803 -349.422369 
L 320.450117 -347.341754 
L 320.636784 -345.261138 
L 320.839321 -343.180523 
L 321.057178 -341.099908 
L 321.28974 -339.019292 
L 321.53633 -336.938677 
L 321.79621 -334.858062 
L 322.068584 -332.777446 
L 322.352599 -330.696831 
L 322.647351 -328.616215 
L 322.951885 -326.5356 
L 323.265203 -324.454985 
L 323.58626 -322.374369 
L 323.913975 -320.293754 
L 324.247231 -318.213138 
L 324.584882 -316.132523 
L 324.925753 -314.051908 
L 325.268647 -311.971292 
L 325.61235 -309.890677 
L 325.955634 -307.810062 
L 326.297261 -305.729446 
L 326.635992 -303.648831 
L 326.970583 -301.568215 
L 327.299801 -299.4876 
L 327.622419 -297.406985 
L 327.937225 -295.326369 
L 328.243026 -293.245754 
L 328.538654 -291.165138 
L 328.822967 -289.084523 
L 329.094856 -287.003908 
L 329.353248 -284.923292 
L 329.59711 -282.842677 
L 329.825456 -280.762062 
L 330.037344 -278.681446 
L 330.231886 -276.600831 
L 330.408248 -274.520215 
L 330.565654 -272.4396 
L 330.703389 -270.358985 
L 330.820799 -268.278369 
L 330.917297 -266.197754 
L 330.992363 -264.117138 
L 331.045544 -262.036523 
L 331.07646 -259.955908 
L 331.0848 -257.875292 
L 331.070325 -255.794677 
z
" id="meb6b59b425" style="stroke:#3c3c3c;stroke-width:1.5;"/>
    </defs>
    <g clip-path="url(#pe1667b0b06)">
     <use style="fill:#335f97;stroke:#3c3c3c;stroke-width:1.5;" x="0" xlink:href="#meb6b59b425" y="546.48"/>
    </g>
   </g>
   <g id="PolyCollection_4">
    <defs>
     <path d="M 419.731458 -191.869563 
L 385.286142 -191.869563 
L 385.094846 -194.452396 
L 384.920964 -197.035229 
L 384.764759 -199.618062 
L 384.626415 -202.200894 
L 384.50603 -204.783727 
L 384.40362 -207.36656 
L 384.319115 -209.949393 
L 384.252357 -212.532226 
L 384.203106 -215.115059 
L 384.171035 -217.697892 
L 384.155732 -220.280725 
L 384.156702 -222.863558 
L 384.173367 -225.44639 
L 384.20507 -228.029223 
L 384.251078 -230.612056 
L 384.310581 -233.194889 
L 384.382698 -235.777722 
L 384.46648 -238.360555 
L 384.560911 -240.943388 
L 384.664918 -243.526221 
L 384.777369 -246.109054 
L 384.897079 -248.691886 
L 385.022819 -251.274719 
L 385.153316 -253.857552 
L 385.28726 -256.440385 
L 385.423311 -259.023218 
L 385.560103 -261.606051 
L 385.696251 -264.188884 
L 385.830357 -266.771717 
L 385.961015 -269.35455 
L 386.086821 -271.937382 
L 386.206377 -274.520215 
L 386.318298 -277.103048 
L 386.421221 -279.685881 
L 386.513811 -282.268714 
L 386.594766 -284.851547 
L 386.662831 -287.43438 
L 386.716799 -290.017213 
L 386.755518 -292.600046 
L 386.777906 -295.182879 
L 386.782951 -297.765711 
L 386.769719 -300.348544 
L 386.737366 -302.931377 
L 386.685138 -305.51421 
L 386.612386 -308.097043 
L 386.518562 -310.679876 
L 386.403233 -313.262709 
L 386.266086 -315.845542 
L 386.106926 -318.428375 
L 385.92569 -321.011207 
L 385.722443 -323.59404 
L 385.497386 -326.176873 
L 385.250857 -328.759706 
L 384.98333 -331.342539 
L 384.695422 -333.925372 
L 384.387887 -336.508205 
L 384.061619 -339.091038 
L 383.717647 -341.673871 
L 383.357137 -344.256703 
L 382.981382 -346.839536 
L 382.591803 -349.422369 
L 382.189941 -352.005202 
L 381.77745 -354.588035 
L 381.356088 -357.170868 
L 380.927713 -359.753701 
L 380.494271 -362.336534 
L 380.057785 -364.919367 
L 379.620345 -367.502199 
L 379.184097 -370.085032 
L 378.751229 -372.667865 
L 378.32396 -375.250698 
L 377.904527 -377.833531 
L 377.49517 -380.416364 
L 377.098117 -382.999197 
L 376.715575 -385.58203 
L 376.349709 -388.164863 
L 376.002636 -390.747695 
L 375.676404 -393.330528 
L 375.372984 -395.913361 
L 375.094253 -398.496194 
L 374.841986 -401.079027 
L 374.61784 -403.66186 
L 374.423347 -406.244693 
L 374.259901 -408.827526 
L 374.12875 -411.410359 
L 374.030988 -413.993192 
L 373.967549 -416.576024 
L 373.9392 -419.158857 
L 373.946536 -421.74169 
L 373.989978 -424.324523 
L 374.06977 -426.907356 
L 374.18598 -429.490189 
L 374.338498 -432.073022 
L 374.527039 -434.655855 
L 374.751149 -437.238688 
L 375.010203 -439.82152 
L 375.303416 -442.404353 
L 375.629848 -444.987186 
L 375.98841 -447.570019 
L 429.02919 -447.570019 
L 429.02919 -447.570019 
L 429.387752 -444.987186 
L 429.714184 -442.404353 
L 430.007397 -439.82152 
L 430.266451 -437.238688 
L 430.490561 -434.655855 
L 430.679102 -432.073022 
L 430.83162 -429.490189 
L 430.94783 -426.907356 
L 431.027622 -424.324523 
L 431.071064 -421.74169 
L 431.0784 -419.158857 
L 431.050051 -416.576024 
L 430.986612 -413.993192 
L 430.88885 -411.410359 
L 430.757699 -408.827526 
L 430.594253 -406.244693 
L 430.39976 -403.66186 
L 430.175614 -401.079027 
L 429.923347 -398.496194 
L 429.644616 -395.913361 
L 429.341196 -393.330528 
L 429.014964 -390.747695 
L 428.667891 -388.164863 
L 428.302025 -385.58203 
L 427.919483 -382.999197 
L 427.52243 -380.416364 
L 427.113073 -377.833531 
L 426.69364 -375.250698 
L 426.266371 -372.667865 
L 425.833503 -370.085032 
L 425.397255 -367.502199 
L 424.959815 -364.919367 
L 424.523329 -362.336534 
L 424.089887 -359.753701 
L 423.661512 -357.170868 
L 423.24015 -354.588035 
L 422.827659 -352.005202 
L 422.425797 -349.422369 
L 422.036218 -346.839536 
L 421.660463 -344.256703 
L 421.299953 -341.673871 
L 420.955981 -339.091038 
L 420.629713 -336.508205 
L 420.322178 -333.925372 
L 420.03427 -331.342539 
L 419.766743 -328.759706 
L 419.520214 -326.176873 
L 419.295157 -323.59404 
L 419.09191 -321.011207 
L 418.910674 -318.428375 
L 418.751514 -315.845542 
L 418.614367 -313.262709 
L 418.499038 -310.679876 
L 418.405214 -308.097043 
L 418.332462 -305.51421 
L 418.280234 -302.931377 
L 418.247881 -300.348544 
L 418.234649 -297.765711 
L 418.239694 -295.182879 
L 418.262082 -292.600046 
L 418.300801 -290.017213 
L 418.354769 -287.43438 
L 418.422834 -284.851547 
L 418.503789 -282.268714 
L 418.596379 -279.685881 
L 418.699302 -277.103048 
L 418.811223 -274.520215 
L 418.930779 -271.937382 
L 419.056585 -269.35455 
L 419.187243 -266.771717 
L 419.321349 -264.188884 
L 419.457497 -261.606051 
L 419.594289 -259.023218 
L 419.73034 -256.440385 
L 419.864284 -253.857552 
L 419.994781 -251.274719 
L 420.120521 -248.691886 
L 420.240231 -246.109054 
L 420.352682 -243.526221 
L 420.456689 -240.943388 
L 420.55112 -238.360555 
L 420.634902 -235.777722 
L 420.707019 -233.194889 
L 420.766522 -230.612056 
L 420.81253 -228.029223 
L 420.844233 -225.44639 
L 420.860898 -222.863558 
L 420.861868 -220.280725 
L 420.846565 -217.697892 
L 420.814494 -215.115059 
L 420.765243 -212.532226 
L 420.698485 -209.949393 
L 420.61398 -207.36656 
L 420.51157 -204.783727 
L 420.391185 -202.200894 
L 420.252841 -199.618062 
L 420.096636 -197.035229 
L 419.922754 -194.452396 
L 419.731458 -191.869563 
z
" id="m0c3e0ab7ac" style="stroke:#3c3c3c;stroke-width:1.5;"/>
    </defs>
    <g clip-path="url(#pe1667b0b06)">
     <use style="fill:#c8e2bb;stroke:#3c3c3c;stroke-width:1.5;" x="0" xlink:href="#m0c3e0ab7ac" y="546.48"/>
    </g>
   </g>
   <g id="PolyCollection_5">
    <defs>
     <path d="M 470.714333 -199.618062 
L 448.581667 -199.618062 
L 448.351055 -202.266117 
L 448.129977 -204.914173 
L 447.91894 -207.562229 
L 447.718403 -210.210285 
L 447.528764 -212.858341 
L 447.350364 -215.506397 
L 447.183481 -218.154453 
L 447.028327 -220.802509 
L 446.885048 -223.450565 
L 446.753722 -226.098621 
L 446.634356 -228.746677 
L 446.526887 -231.394733 
L 446.431181 -234.042789 
L 446.347035 -236.690845 
L 446.274175 -239.338901 
L 446.212257 -241.986957 
L 446.160872 -244.635013 
L 446.119542 -247.283069 
L 446.087729 -249.931124 
L 446.064831 -252.57918 
L 446.050189 -255.227236 
L 446.043089 -257.875292 
L 446.042765 -260.523348 
L 446.048401 -263.171404 
L 446.059141 -265.81946 
L 446.074083 -268.467516 
L 446.092293 -271.115572 
L 446.112803 -273.763628 
L 446.13462 -276.411684 
L 446.156724 -279.05974 
L 446.178082 -281.707796 
L 446.197643 -284.355852 
L 446.214351 -287.003908 
L 446.227143 -289.651964 
L 446.234961 -292.30002 
L 446.236751 -294.948076 
L 446.231469 -297.596131 
L 446.218092 -300.244187 
L 446.195614 -302.892243 
L 446.163057 -305.540299 
L 446.119475 -308.188355 
L 446.06396 -310.836411 
L 445.995643 -313.484467 
L 445.913706 -316.132523 
L 445.81738 -318.780579 
L 445.705956 -321.428635 
L 445.578786 -324.076691 
L 445.435292 -326.724747 
L 445.274967 -329.372803 
L 445.097382 -332.020859 
L 444.902192 -334.668915 
L 444.689138 -337.316971 
L 444.458054 -339.965027 
L 444.208869 -342.613083 
L 443.941615 -345.261138 
L 443.656425 -347.909194 
L 443.353543 -350.55725 
L 443.03332 -353.205306 
L 442.696225 -355.853362 
L 442.342839 -358.501418 
L 441.973862 -361.149474 
L 441.590112 -363.79753 
L 441.192524 -366.445586 
L 440.782153 -369.093642 
L 440.360171 -371.741698 
L 439.927864 -374.389754 
L 439.486631 -377.03781 
L 439.037979 -379.685866 
L 438.58352 -382.333922 
L 438.124963 -384.981978 
L 437.664111 -387.630034 
L 437.202848 -390.27809 
L 436.743139 -392.926145 
L 436.287011 -395.574201 
L 435.836551 -398.222257 
L 435.393889 -400.870313 
L 434.961191 -403.518369 
L 434.540643 -406.166425 
L 434.134438 -408.814481 
L 433.744763 -411.462537 
L 433.373788 -414.110593 
L 433.023644 -416.758649 
L 432.696415 -419.406705 
L 432.394121 -422.054761 
L 432.1187 -424.702817 
L 431.872 -427.350873 
L 431.655758 -429.998929 
L 431.471592 -432.646985 
L 431.320984 -435.295041 
L 431.205269 -437.943097 
L 431.125624 -440.591152 
L 431.083057 -443.239208 
L 431.0784 -445.887264 
L 431.112299 -448.53532 
L 431.185207 -451.183376 
L 431.297384 -453.831432 
L 431.448888 -456.479488 
L 431.639576 -459.127544 
L 431.869105 -461.7756 
L 487.426895 -461.7756 
L 487.426895 -461.7756 
L 487.656424 -459.127544 
L 487.847112 -456.479488 
L 487.998616 -453.831432 
L 488.110793 -451.183376 
L 488.183701 -448.53532 
L 488.2176 -445.887264 
L 488.212943 -443.239208 
L 488.170376 -440.591152 
L 488.090731 -437.943097 
L 487.975016 -435.295041 
L 487.824408 -432.646985 
L 487.640242 -429.998929 
L 487.424 -427.350873 
L 487.1773 -424.702817 
L 486.901879 -422.054761 
L 486.599585 -419.406705 
L 486.272356 -416.758649 
L 485.922212 -414.110593 
L 485.551237 -411.462537 
L 485.161562 -408.814481 
L 484.755357 -406.166425 
L 484.334809 -403.518369 
L 483.902111 -400.870313 
L 483.459449 -398.222257 
L 483.008989 -395.574201 
L 482.552861 -392.926145 
L 482.093152 -390.27809 
L 481.631889 -387.630034 
L 481.171037 -384.981978 
L 480.71248 -382.333922 
L 480.258021 -379.685866 
L 479.809369 -377.03781 
L 479.368136 -374.389754 
L 478.935829 -371.741698 
L 478.513847 -369.093642 
L 478.103476 -366.445586 
L 477.705888 -363.79753 
L 477.322138 -361.149474 
L 476.953161 -358.501418 
L 476.599775 -355.853362 
L 476.26268 -353.205306 
L 475.942457 -350.55725 
L 475.639575 -347.909194 
L 475.354385 -345.261138 
L 475.087131 -342.613083 
L 474.837946 -339.965027 
L 474.606862 -337.316971 
L 474.393808 -334.668915 
L 474.198618 -332.020859 
L 474.021033 -329.372803 
L 473.860708 -326.724747 
L 473.717214 -324.076691 
L 473.590044 -321.428635 
L 473.47862 -318.780579 
L 473.382294 -316.132523 
L 473.300357 -313.484467 
L 473.23204 -310.836411 
L 473.176525 -308.188355 
L 473.132943 -305.540299 
L 473.100386 -302.892243 
L 473.077908 -300.244187 
L 473.064531 -297.596131 
L 473.059249 -294.948076 
L 473.061039 -292.30002 
L 473.068857 -289.651964 
L 473.081649 -287.003908 
L 473.098357 -284.355852 
L 473.117918 -281.707796 
L 473.139276 -279.05974 
L 473.16138 -276.411684 
L 473.183197 -273.763628 
L 473.203707 -271.115572 
L 473.221917 -268.467516 
L 473.236859 -265.81946 
L 473.247599 -263.171404 
L 473.253235 -260.523348 
L 473.252911 -257.875292 
L 473.245811 -255.227236 
L 473.231169 -252.57918 
L 473.208271 -249.931124 
L 473.176458 -247.283069 
L 473.135128 -244.635013 
L 473.083743 -241.986957 
L 473.021825 -239.338901 
L 472.948965 -236.690845 
L 472.864819 -234.042789 
L 472.769113 -231.394733 
L 472.661644 -228.746677 
L 472.542278 -226.098621 
L 472.410952 -223.450565 
L 472.267673 -220.802509 
L 472.112519 -218.154453 
L 471.945636 -215.506397 
L 471.767236 -212.858341 
L 471.577597 -210.210285 
L 471.37706 -207.562229 
L 471.166023 -204.914173 
L 470.944945 -202.266117 
L 470.714333 -199.618062 
z
" id="mbac5226f65" style="stroke:#3c3c3c;stroke-width:1.5;"/>
    </defs>
    <g clip-path="url(#pe1667b0b06)">
     <use style="fill:#51a9b3;stroke:#3c3c3c;stroke-width:1.5;" x="0" xlink:href="#mbac5226f65" y="546.48"/>
    </g>
   </g>
   <g id="PolyCollection_6">
    <defs>
     <path d="M 537.521517 -79.2396 
L 496.052883 -79.2396 
L 495.622895 -82.806369 
L 495.211899 -86.373138 
L 494.821077 -89.939908 
L 494.451521 -93.506677 
L 494.104225 -97.073446 
L 493.780073 -100.640215 
L 493.479841 -104.206985 
L 493.204181 -107.773754 
L 492.95362 -111.340523 
L 492.728556 -114.907292 
L 492.529252 -118.474062 
L 492.355833 -122.040831 
L 492.208288 -125.6076 
L 492.086465 -129.174369 
L 491.990074 -132.741138 
L 491.918686 -136.307908 
L 491.871741 -139.874677 
L 491.848543 -143.441446 
L 491.848272 -147.008215 
L 491.869987 -150.574985 
L 491.912631 -154.141754 
L 491.97504 -157.708523 
L 492.055949 -161.275292 
L 492.154004 -164.842062 
L 492.267767 -168.408831 
L 492.395731 -171.9756 
L 492.536325 -175.542369 
L 492.687928 -179.109138 
L 492.848876 -182.675908 
L 493.017479 -186.242677 
L 493.192026 -189.809446 
L 493.370799 -193.376215 
L 493.552082 -196.942985 
L 493.734174 -200.509754 
L 493.915396 -204.076523 
L 494.094102 -207.643292 
L 494.26869 -211.210062 
L 494.437609 -214.776831 
L 494.599367 -218.3436 
L 494.752541 -221.910369 
L 494.895781 -225.477138 
L 495.027818 -229.043908 
L 495.147473 -232.610677 
L 495.253655 -236.177446 
L 495.345371 -239.744215 
L 495.421731 -243.310985 
L 495.481946 -246.877754 
L 495.525335 -250.444523 
L 495.551324 -254.011292 
L 495.559453 -257.578062 
L 495.549371 -261.144831 
L 495.520839 -264.7116 
L 495.473732 -268.278369 
L 495.408036 -271.845138 
L 495.323849 -275.411908 
L 495.221382 -278.978677 
L 495.100952 -282.545446 
L 494.962986 -286.112215 
L 494.808019 -289.678985 
L 494.636687 -293.245754 
L 494.449729 -296.812523 
L 494.247986 -300.379292 
L 494.032391 -303.946062 
L 493.803972 -307.512831 
L 493.563848 -311.0796 
L 493.313221 -314.646369 
L 493.053376 -318.213138 
L 492.785675 -321.779908 
L 492.511552 -325.346677 
L 492.232507 -328.913446 
L 491.950103 -332.480215 
L 491.665955 -336.046985 
L 491.381727 -339.613754 
L 491.099126 -343.180523 
L 490.819891 -346.747292 
L 490.545786 -350.314062 
L 490.278592 -353.880831 
L 490.020101 -357.4476 
L 489.7721 -361.014369 
L 489.53637 -364.581138 
L 489.314668 -368.147908 
L 489.108722 -371.714677 
L 488.92022 -375.281446 
L 488.750798 -378.848215 
L 488.602032 -382.414985 
L 488.475425 -385.981754 
L 488.372399 -389.548523 
L 488.294285 -393.115292 
L 488.242312 -396.682062 
L 488.2176 -400.248831 
L 488.22115 -403.8156 
L 488.253837 -407.382369 
L 488.316403 -410.949138 
L 488.409449 -414.515908 
L 488.533434 -418.082677 
L 488.688665 -421.649446 
L 488.8753 -425.216215 
L 489.093339 -428.782985 
L 489.34263 -432.349754 
L 544.23177 -432.349754 
L 544.23177 -432.349754 
L 544.481061 -428.782985 
L 544.6991 -425.216215 
L 544.885735 -421.649446 
L 545.040966 -418.082677 
L 545.164951 -414.515908 
L 545.257997 -410.949138 
L 545.320563 -407.382369 
L 545.35325 -403.8156 
L 545.3568 -400.248831 
L 545.332088 -396.682062 
L 545.280115 -393.115292 
L 545.202001 -389.548523 
L 545.098975 -385.981754 
L 544.972368 -382.414985 
L 544.823602 -378.848215 
L 544.65418 -375.281446 
L 544.465678 -371.714677 
L 544.259732 -368.147908 
L 544.03803 -364.581138 
L 543.8023 -361.014369 
L 543.554299 -357.4476 
L 543.295808 -353.880831 
L 543.028614 -350.314062 
L 542.754509 -346.747292 
L 542.475274 -343.180523 
L 542.192673 -339.613754 
L 541.908445 -336.046985 
L 541.624297 -332.480215 
L 541.341893 -328.913446 
L 541.062848 -325.346677 
L 540.788725 -321.779908 
L 540.521024 -318.213138 
L 540.261179 -314.646369 
L 540.010552 -311.0796 
L 539.770428 -307.512831 
L 539.542009 -303.946062 
L 539.326414 -300.379292 
L 539.124671 -296.812523 
L 538.937713 -293.245754 
L 538.766381 -289.678985 
L 538.611414 -286.112215 
L 538.473448 -282.545446 
L 538.353018 -278.978677 
L 538.250551 -275.411908 
L 538.166364 -271.845138 
L 538.100668 -268.278369 
L 538.053561 -264.7116 
L 538.025029 -261.144831 
L 538.014947 -257.578062 
L 538.023076 -254.011292 
L 538.049065 -250.444523 
L 538.092454 -246.877754 
L 538.152669 -243.310985 
L 538.229029 -239.744215 
L 538.320745 -236.177446 
L 538.426927 -232.610677 
L 538.546582 -229.043908 
L 538.678619 -225.477138 
L 538.821859 -221.910369 
L 538.975033 -218.3436 
L 539.136791 -214.776831 
L 539.30571 -211.210062 
L 539.480298 -207.643292 
L 539.659004 -204.076523 
L 539.840226 -200.509754 
L 540.022318 -196.942985 
L 540.203601 -193.376215 
L 540.382374 -189.809446 
L 540.556921 -186.242677 
L 540.725524 -182.675908 
L 540.886472 -179.109138 
L 541.038075 -175.542369 
L 541.178669 -171.9756 
L 541.306633 -168.408831 
L 541.420396 -164.842062 
L 541.518451 -161.275292 
L 541.59936 -157.708523 
L 541.661769 -154.141754 
L 541.704413 -150.574985 
L 541.726128 -147.008215 
L 541.725857 -143.441446 
L 541.702659 -139.874677 
L 541.655714 -136.307908 
L 541.584326 -132.741138 
L 541.487935 -129.174369 
L 541.366112 -125.6076 
L 541.218567 -122.040831 
L 541.045148 -118.474062 
L 540.845844 -114.907292 
L 540.62078 -111.340523 
L 540.370219 -107.773754 
L 540.094559 -104.206985 
L 539.794327 -100.640215 
L 539.470175 -97.073446 
L 539.122879 -93.506677 
L 538.753323 -89.939908 
L 538.362501 -86.373138 
L 537.951505 -82.806369 
L 537.521517 -79.2396 
z
" id="m51b384dc7e" style="stroke:#3c3c3c;stroke-width:1.5;"/>
    </defs>
    <g clip-path="url(#pe1667b0b06)">
     <use style="fill:#335f97;stroke:#3c3c3c;stroke-width:1.5;" x="0" xlink:href="#m51b384dc7e" y="546.48"/>
    </g>
   </g>
   <g id="PolyCollection_7">
    <defs>
     <path d="M 630.142077 -130.196553 
L 603.419523 -130.196553 
L 602.493038 -132.835382 
L 601.55266 -135.474212 
L 600.603805 -138.113041 
L 599.652267 -140.75187 
L 598.704147 -143.390699 
L 597.765758 -146.029529 
L 596.843529 -148.668358 
L 595.94389 -151.307187 
L 595.073156 -153.946017 
L 594.237411 -156.584846 
L 593.442383 -159.223675 
L 592.693336 -161.862504 
L 591.994953 -164.501334 
L 591.351249 -167.140163 
L 590.765486 -169.778992 
L 590.240109 -172.417821 
L 589.776704 -175.056651 
L 589.375979 -177.69548 
L 589.037759 -180.334309 
L 588.761018 -182.973138 
L 588.543921 -185.611968 
L 588.38389 -188.250797 
L 588.277693 -190.889626 
L 588.221541 -193.528456 
L 588.2112 -196.167285 
L 588.242116 -198.806114 
L 588.309535 -201.444943 
L 588.408633 -204.083773 
L 588.534632 -206.722602 
L 588.682921 -209.361431 
L 588.849155 -212.00026 
L 589.02935 -214.63909 
L 589.219955 -217.277919 
L 589.417914 -219.916748 
L 589.620706 -222.555577 
L 589.82637 -225.194407 
L 590.033509 -227.833236 
L 590.241277 -230.472065 
L 590.449356 -233.110895 
L 590.657914 -235.749724 
L 590.867549 -238.388553 
L 591.07923 -241.027382 
L 591.294228 -243.666212 
L 591.514037 -246.305041 
L 591.740301 -248.94387 
L 591.974732 -251.582699 
L 592.219039 -254.221529 
L 592.474854 -256.860358 
L 592.743665 -259.499187 
L 593.026759 -262.138017 
L 593.325169 -264.776846 
L 593.639634 -267.415675 
L 593.970564 -270.054504 
L 594.318025 -272.693334 
L 594.681719 -275.332163 
L 595.060988 -277.970992 
L 595.454823 -280.609821 
L 595.861876 -283.248651 
L 596.28049 -285.88748 
L 596.708732 -288.526309 
L 597.144429 -291.165138 
L 597.585219 -293.803968 
L 598.028594 -296.442797 
L 598.471959 -299.081626 
L 598.912679 -301.720456 
L 599.348144 -304.359285 
L 599.775816 -306.998114 
L 600.19329 -309.636943 
L 600.598341 -312.275773 
L 600.988975 -314.914602 
L 601.363475 -317.553431 
L 601.720438 -320.19226 
L 602.058809 -322.83109 
L 602.377908 -325.469919 
L 602.677449 -328.108748 
L 602.957551 -330.747577 
L 603.21874 -333.386407 
L 603.461942 -336.025236 
L 603.688468 -338.664065 
L 603.899989 -341.302895 
L 604.098501 -343.941724 
L 604.286285 -346.580553 
L 604.465858 -349.219382 
L 604.639911 -351.858212 
L 604.811255 -354.497041 
L 604.982751 -357.13587 
L 605.157243 -359.774699 
L 605.337491 -362.413529 
L 605.526099 -365.052358 
L 605.725459 -367.691187 
L 605.937686 -370.330017 
L 606.164568 -372.968846 
L 606.407521 -375.607675 
L 606.667559 -378.246504 
L 606.945264 -380.885334 
L 607.240782 -383.524163 
L 607.553814 -386.162992 
L 607.883635 -388.801821 
L 608.229111 -391.440651 
L 625.332489 -391.440651 
L 625.332489 -391.440651 
L 625.677965 -388.801821 
L 626.007786 -386.162992 
L 626.320818 -383.524163 
L 626.616336 -380.885334 
L 626.894041 -378.246504 
L 627.154079 -375.607675 
L 627.397032 -372.968846 
L 627.623914 -370.330017 
L 627.836141 -367.691187 
L 628.035501 -365.052358 
L 628.224109 -362.413529 
L 628.404357 -359.774699 
L 628.578849 -357.13587 
L 628.750345 -354.497041 
L 628.921689 -351.858212 
L 629.095742 -349.219382 
L 629.275315 -346.580553 
L 629.463099 -343.941724 
L 629.661611 -341.302895 
L 629.873132 -338.664065 
L 630.099658 -336.025236 
L 630.34286 -333.386407 
L 630.604049 -330.747577 
L 630.884151 -328.108748 
L 631.183692 -325.469919 
L 631.502791 -322.83109 
L 631.841162 -320.19226 
L 632.198125 -317.553431 
L 632.572625 -314.914602 
L 632.963259 -312.275773 
L 633.36831 -309.636943 
L 633.785784 -306.998114 
L 634.213456 -304.359285 
L 634.648921 -301.720456 
L 635.089641 -299.081626 
L 635.533006 -296.442797 
L 635.976381 -293.803968 
L 636.417171 -291.165138 
L 636.852868 -288.526309 
L 637.28111 -285.88748 
L 637.699724 -283.248651 
L 638.106777 -280.609821 
L 638.500612 -277.970992 
L 638.879881 -275.332163 
L 639.243575 -272.693334 
L 639.591036 -270.054504 
L 639.921966 -267.415675 
L 640.236431 -264.776846 
L 640.534841 -262.138017 
L 640.817935 -259.499187 
L 641.086746 -256.860358 
L 641.342561 -254.221529 
L 641.586868 -251.582699 
L 641.821299 -248.94387 
L 642.047563 -246.305041 
L 642.267372 -243.666212 
L 642.48237 -241.027382 
L 642.694051 -238.388553 
L 642.903686 -235.749724 
L 643.112244 -233.110895 
L 643.320323 -230.472065 
L 643.528091 -227.833236 
L 643.73523 -225.194407 
L 643.940894 -222.555577 
L 644.143686 -219.916748 
L 644.341645 -217.277919 
L 644.53225 -214.63909 
L 644.712445 -212.00026 
L 644.878679 -209.361431 
L 645.026968 -206.722602 
L 645.152967 -204.083773 
L 645.252065 -201.444943 
L 645.319484 -198.806114 
L 645.3504 -196.167285 
L 645.340059 -193.528456 
L 645.283907 -190.889626 
L 645.17771 -188.250797 
L 645.017679 -185.611968 
L 644.800582 -182.973138 
L 644.523841 -180.334309 
L 644.185621 -177.69548 
L 643.784896 -175.056651 
L 643.321491 -172.417821 
L 642.796114 -169.778992 
L 642.210351 -167.140163 
L 641.566647 -164.501334 
L 640.868264 -161.862504 
L 640.119217 -159.223675 
L 639.324189 -156.584846 
L 638.488444 -153.946017 
L 637.61771 -151.307187 
L 636.718071 -148.668358 
L 635.795842 -146.029529 
L 634.857453 -143.390699 
L 633.909333 -140.75187 
L 632.957795 -138.113041 
L 632.00894 -135.474212 
L 631.068562 -132.835382 
L 630.142077 -130.196553 
z
" id="m2defbd5809" style="stroke:#3c3c3c;stroke-width:1.5;"/>
    </defs>
    <g clip-path="url(#pe1667b0b06)">
     <use style="fill:#c8e2bb;stroke:#3c3c3c;stroke-width:1.5;" x="0" xlink:href="#m2defbd5809" y="546.48"/>
    </g>
   </g>
   <g id="PolyCollection_8">
    <defs>
     <path d="M 683.624345 -390.130062 
L 664.215655 -390.130062 
L 663.936323 -390.853754 
L 663.675454 -391.577446 
L 663.433481 -392.301138 
L 663.210485 -393.024831 
L 663.006188 -393.748523 
L 662.819948 -394.472215 
L 662.650771 -395.195908 
L 662.497316 -395.9196 
L 662.357925 -396.643292 
L 662.230641 -397.366985 
L 662.113247 -398.090677 
L 662.003301 -398.814369 
L 661.898183 -399.538062 
L 661.795135 -400.261754 
L 661.691319 -400.985446 
L 661.583858 -401.709138 
L 661.469897 -402.432831 
L 661.346647 -403.156523 
L 661.21144 -403.880215 
L 661.06177 -404.603908 
L 660.895343 -405.3276 
L 660.710111 -406.051292 
L 660.504308 -406.774985 
L 660.276477 -407.498677 
L 660.025497 -408.222369 
L 659.750591 -408.946062 
L 659.451342 -409.669754 
L 659.127694 -410.393446 
L 658.779942 -411.117138 
L 658.408733 -411.840831 
L 658.015038 -412.564523 
L 657.60014 -413.288215 
L 657.165603 -414.011908 
L 656.713246 -414.7356 
L 656.245106 -415.459292 
L 655.763406 -416.182985 
L 655.270521 -416.906677 
L 654.768934 -417.630369 
L 654.261209 -418.354062 
L 653.749947 -419.077754 
L 653.237757 -419.801446 
L 652.727224 -420.525138 
L 652.220878 -421.248831 
L 651.721167 -421.972523 
L 651.230437 -422.696215 
L 650.750908 -423.419908 
L 650.28466 -424.1436 
L 649.833616 -424.867292 
L 649.399534 -425.590985 
L 648.983993 -426.314677 
L 648.588392 -427.038369 
L 648.21394 -427.762062 
L 647.861658 -428.485754 
L 647.53237 -429.209446 
L 647.226711 -429.933138 
L 646.945121 -430.656831 
L 646.687849 -431.380523 
L 646.454957 -432.104215 
L 646.24632 -432.827908 
L 646.061635 -433.5516 
L 645.900424 -434.275292 
L 645.762046 -434.998985 
L 645.645706 -435.722677 
L 645.550467 -436.446369 
L 645.475267 -437.170062 
L 645.418939 -437.893754 
L 645.380231 -438.617446 
L 645.357832 -439.341138 
L 645.3504 -440.064831 
L 645.356593 -440.788523 
L 645.375103 -441.512215 
L 645.404689 -442.235908 
L 645.444217 -442.9596 
L 645.492695 -443.683292 
L 645.549308 -444.406985 
L 645.613453 -445.130677 
L 645.684773 -445.854369 
L 645.763178 -446.578062 
L 645.848874 -447.301754 
L 645.942373 -448.025446 
L 646.044502 -448.749138 
L 646.156404 -449.472831 
L 646.279526 -450.196523 
L 646.415601 -450.920215 
L 646.566618 -451.643908 
L 646.734789 -452.3676 
L 646.922495 -453.091292 
L 647.132238 -453.814985 
L 647.366574 -454.538677 
L 647.628053 -455.262369 
L 647.919141 -455.986062 
L 648.242157 -456.709754 
L 648.599194 -457.433446 
L 648.992055 -458.157138 
L 649.422184 -458.880831 
L 649.890614 -459.604523 
L 650.397913 -460.328215 
L 650.944145 -461.051908 
L 651.528845 -461.7756 
L 696.311155 -461.7756 
L 696.311155 -461.7756 
L 696.895855 -461.051908 
L 697.442087 -460.328215 
L 697.949386 -459.604523 
L 698.417816 -458.880831 
L 698.847945 -458.157138 
L 699.240806 -457.433446 
L 699.597843 -456.709754 
L 699.920859 -455.986062 
L 700.211947 -455.262369 
L 700.473426 -454.538677 
L 700.707762 -453.814985 
L 700.917505 -453.091292 
L 701.105211 -452.3676 
L 701.273382 -451.643908 
L 701.424399 -450.920215 
L 701.560474 -450.196523 
L 701.683596 -449.472831 
L 701.795498 -448.749138 
L 701.897627 -448.025446 
L 701.991126 -447.301754 
L 702.076822 -446.578062 
L 702.155227 -445.854369 
L 702.226547 -445.130677 
L 702.290692 -444.406985 
L 702.347305 -443.683292 
L 702.395783 -442.9596 
L 702.435311 -442.235908 
L 702.464897 -441.512215 
L 702.483407 -440.788523 
L 702.4896 -440.064831 
L 702.482168 -439.341138 
L 702.459769 -438.617446 
L 702.421061 -437.893754 
L 702.364733 -437.170062 
L 702.289533 -436.446369 
L 702.194294 -435.722677 
L 702.077954 -434.998985 
L 701.939576 -434.275292 
L 701.778365 -433.5516 
L 701.59368 -432.827908 
L 701.385043 -432.104215 
L 701.152151 -431.380523 
L 700.894879 -430.656831 
L 700.613289 -429.933138 
L 700.30763 -429.209446 
L 699.978342 -428.485754 
L 699.62606 -427.762062 
L 699.251608 -427.038369 
L 698.856007 -426.314677 
L 698.440466 -425.590985 
L 698.006384 -424.867292 
L 697.55534 -424.1436 
L 697.089092 -423.419908 
L 696.609563 -422.696215 
L 696.118833 -421.972523 
L 695.619122 -421.248831 
L 695.112776 -420.525138 
L 694.602243 -419.801446 
L 694.090053 -419.077754 
L 693.578791 -418.354062 
L 693.071066 -417.630369 
L 692.569479 -416.906677 
L 692.076594 -416.182985 
L 691.594894 -415.459292 
L 691.126754 -414.7356 
L 690.674397 -414.011908 
L 690.23986 -413.288215 
L 689.824962 -412.564523 
L 689.431267 -411.840831 
L 689.060058 -411.117138 
L 688.712306 -410.393446 
L 688.388658 -409.669754 
L 688.089409 -408.946062 
L 687.814503 -408.222369 
L 687.563523 -407.498677 
L 687.335692 -406.774985 
L 687.129889 -406.051292 
L 686.944657 -405.3276 
L 686.77823 -404.603908 
L 686.62856 -403.880215 
L 686.493353 -403.156523 
L 686.370103 -402.432831 
L 686.256142 -401.709138 
L 686.148681 -400.985446 
L 686.044865 -400.261754 
L 685.941817 -399.538062 
L 685.836699 -398.814369 
L 685.726753 -398.090677 
L 685.609359 -397.366985 
L 685.482075 -396.643292 
L 685.342684 -395.9196 
L 685.189229 -395.195908 
L 685.020052 -394.472215 
L 684.833812 -393.748523 
L 684.629515 -393.024831 
L 684.406519 -392.301138 
L 684.164546 -391.577446 
L 683.903677 -390.853754 
L 683.624345 -390.130062 
z
" id="m96bc17d527" style="stroke:#3c3c3c;stroke-width:1.5;"/>
    </defs>
    <g clip-path="url(#pe1667b0b06)">
     <use style="fill:#51a9b3;stroke:#3c3c3c;stroke-width:1.5;" x="0" xlink:href="#m96bc17d527" y="546.48"/>
    </g>
   </g>
   <g id="PolyCollection_9">
    <defs>
     <path d="M 734.416993 -317.588954 
L 727.701407 -317.588954 
L 727.473774 -318.956848 
L 727.232696 -320.324742 
L 726.976385 -321.692636 
L 726.702971 -323.06053 
L 726.410563 -324.428424 
L 726.097331 -325.796318 
L 725.761585 -327.164211 
L 725.40186 -328.532105 
L 725.017 -329.899999 
L 724.606242 -331.267893 
L 724.169291 -332.635787 
L 723.706377 -334.003681 
L 723.218308 -335.371575 
L 722.706497 -336.739469 
L 722.17297 -338.107363 
L 721.620352 -339.475257 
L 721.051827 -340.843151 
L 720.471075 -342.211045 
L 719.882186 -343.578939 
L 719.289549 -344.946833 
L 718.697729 -346.314727 
L 718.11132 -347.682621 
L 717.5348 -349.050515 
L 716.972373 -350.418409 
L 716.427819 -351.786302 
L 715.904351 -353.154196 
L 715.404489 -354.52209 
L 714.929957 -355.889984 
L 714.481606 -357.257878 
L 714.059365 -358.625772 
L 713.662237 -359.993666 
L 713.288323 -361.36156 
L 712.934888 -362.729454 
L 712.598459 -364.097348 
L 712.27496 -365.465242 
L 711.959873 -366.833136 
L 711.648419 -368.20103 
L 711.335761 -369.568924 
L 711.01721 -370.936818 
L 710.688426 -372.304712 
L 710.345623 -373.672606 
L 709.985743 -375.0405 
L 709.606612 -376.408393 
L 709.207063 -377.776287 
L 708.787023 -379.144181 
L 708.347554 -380.512075 
L 707.890855 -381.879969 
L 707.420214 -383.247863 
L 706.939924 -384.615757 
L 706.45515 -385.983651 
L 705.971768 -387.351545 
L 705.49617 -388.719439 
L 705.035055 -390.087333 
L 704.595202 -391.455227 
L 704.183242 -392.823121 
L 703.805447 -394.191015 
L 703.467524 -395.558909 
L 703.174444 -396.926803 
L 702.930299 -398.294697 
L 702.7382 -399.662591 
L 702.600217 -401.030484 
L 702.517359 -402.398378 
L 702.4896 -403.766272 
L 702.515943 -405.134166 
L 702.594514 -406.50206 
L 702.722691 -407.869954 
L 702.897247 -409.237848 
L 703.114513 -410.605742 
L 703.370542 -411.973636 
L 703.66127 -413.34153 
L 703.982675 -414.709424 
L 704.330913 -416.077318 
L 704.702446 -417.445212 
L 705.094141 -418.813106 
L 705.503344 -420.181 
L 705.927939 -421.548894 
L 706.366373 -422.916788 
L 706.817658 -424.284682 
L 707.281356 -425.652575 
L 707.757538 -427.020469 
L 708.246724 -428.388363 
L 708.749809 -429.756257 
L 709.267972 -431.124151 
L 709.802575 -432.492045 
L 710.355055 -433.859939 
L 710.926812 -435.227833 
L 711.519094 -436.595727 
L 712.132887 -437.963621 
L 712.768815 -439.331515 
L 713.42705 -440.699409 
L 714.107238 -442.067303 
L 714.80845 -443.435197 
L 715.529143 -444.803091 
L 716.267164 -446.170985 
L 717.01976 -447.538879 
L 717.783626 -448.906773 
L 718.554968 -450.274666 
L 719.329596 -451.64256 
L 720.103022 -453.010454 
L 742.015378 -453.010454 
L 742.015378 -453.010454 
L 742.788804 -451.64256 
L 743.563432 -450.274666 
L 744.334774 -448.906773 
L 745.09864 -447.538879 
L 745.851236 -446.170985 
L 746.589257 -444.803091 
L 747.30995 -443.435197 
L 748.011162 -442.067303 
L 748.69135 -440.699409 
L 749.349585 -439.331515 
L 749.985513 -437.963621 
L 750.599306 -436.595727 
L 751.191588 -435.227833 
L 751.763345 -433.859939 
L 752.315825 -432.492045 
L 752.850428 -431.124151 
L 753.368591 -429.756257 
L 753.871676 -428.388363 
L 754.360862 -427.020469 
L 754.837044 -425.652575 
L 755.300742 -424.284682 
L 755.752027 -422.916788 
L 756.190461 -421.548894 
L 756.615056 -420.181 
L 757.024259 -418.813106 
L 757.415954 -417.445212 
L 757.787487 -416.077318 
L 758.135725 -414.709424 
L 758.45713 -413.34153 
L 758.747858 -411.973636 
L 759.003887 -410.605742 
L 759.221153 -409.237848 
L 759.395709 -407.869954 
L 759.523886 -406.50206 
L 759.602457 -405.134166 
L 759.6288 -403.766272 
L 759.601041 -402.398378 
L 759.518183 -401.030484 
L 759.3802 -399.662591 
L 759.188101 -398.294697 
L 758.943956 -396.926803 
L 758.650876 -395.558909 
L 758.312953 -394.191015 
L 757.935158 -392.823121 
L 757.523198 -391.455227 
L 757.083345 -390.087333 
L 756.62223 -388.719439 
L 756.146632 -387.351545 
L 755.66325 -385.983651 
L 755.178476 -384.615757 
L 754.698186 -383.247863 
L 754.227545 -381.879969 
L 753.770846 -380.512075 
L 753.331377 -379.144181 
L 752.911337 -377.776287 
L 752.511788 -376.408393 
L 752.132657 -375.0405 
L 751.772777 -373.672606 
L 751.429974 -372.304712 
L 751.10119 -370.936818 
L 750.782639 -369.568924 
L 750.469981 -368.20103 
L 750.158527 -366.833136 
L 749.84344 -365.465242 
L 749.519941 -364.097348 
L 749.183512 -362.729454 
L 748.830077 -361.36156 
L 748.456163 -359.993666 
L 748.059035 -358.625772 
L 747.636794 -357.257878 
L 747.188443 -355.889984 
L 746.713911 -354.52209 
L 746.214049 -353.154196 
L 745.690581 -351.786302 
L 745.146027 -350.418409 
L 744.5836 -349.050515 
L 744.00708 -347.682621 
L 743.420671 -346.314727 
L 742.828851 -344.946833 
L 742.236214 -343.578939 
L 741.647325 -342.211045 
L 741.066573 -340.843151 
L 740.498048 -339.475257 
L 739.94543 -338.107363 
L 739.411903 -336.739469 
L 738.900092 -335.371575 
L 738.412023 -334.003681 
L 737.949109 -332.635787 
L 737.512158 -331.267893 
L 737.1014 -329.899999 
L 736.71654 -328.532105 
L 736.356815 -327.164211 
L 736.021069 -325.796318 
L 735.707837 -324.428424 
L 735.415429 -323.06053 
L 735.142015 -321.692636 
L 734.885704 -320.324742 
L 734.644626 -318.956848 
L 734.416993 -317.588954 
z
" id="mf50b44a52c" style="stroke:#3c3c3c;stroke-width:1.5;"/>
    </defs>
    <g clip-path="url(#pe1667b0b06)">
     <use style="fill:#335f97;stroke:#3c3c3c;stroke-width:1.5;" x="0" xlink:href="#mf50b44a52c" y="546.48"/>
    </g>
   </g>
   <g id="PolyCollection_10">
    <defs>
     <path d="M 856.230204 -329.636895 
L 805.875396 -329.636895 
L 805.735357 -329.813348 
L 805.598336 -329.989802 
L 805.464344 -330.166256 
L 805.33339 -330.342709 
L 805.205482 -330.519163 
L 805.080624 -330.695617 
L 804.958819 -330.87207 
L 804.840068 -331.048524 
L 804.724373 -331.224978 
L 804.61173 -331.401431 
L 804.502137 -331.577885 
L 804.395588 -331.754339 
L 804.292079 -331.930792 
L 804.191601 -332.107246 
L 804.094147 -332.2837 
L 803.999706 -332.460153 
L 803.908268 -332.636607 
L 803.819821 -332.813061 
L 803.734353 -332.989514 
L 803.651851 -333.165968 
L 803.572301 -333.342422 
L 803.495688 -333.518875 
L 803.421998 -333.695329 
L 803.351216 -333.871783 
L 803.283325 -334.048236 
L 803.218309 -334.22469 
L 803.156154 -334.401144 
L 803.096843 -334.577597 
L 803.040359 -334.754051 
L 802.986687 -334.930505 
L 802.935811 -335.106958 
L 802.887716 -335.283412 
L 802.842386 -335.459866 
L 802.799808 -335.636319 
L 802.759965 -335.812773 
L 802.722846 -335.989227 
L 802.688437 -336.16568 
L 802.656725 -336.342134 
L 802.627698 -336.518588 
L 802.601347 -336.695041 
L 802.57766 -336.871495 
L 802.55663 -337.047949 
L 802.538246 -337.224402 
L 802.522502 -337.400856 
L 802.509393 -337.57731 
L 802.498911 -337.753763 
L 802.491054 -337.930217 
L 802.485818 -338.106671 
L 802.4832 -338.283124 
L 802.4832 -338.459578 
L 802.485818 -338.636032 
L 802.491054 -338.812485 
L 802.498911 -338.988939 
L 802.509393 -339.165393 
L 802.522502 -339.341846 
L 802.538246 -339.5183 
L 802.55663 -339.694754 
L 802.57766 -339.871207 
L 802.601347 -340.047661 
L 802.627698 -340.224115 
L 802.656725 -340.400568 
L 802.688437 -340.577022 
L 802.722846 -340.753476 
L 802.759965 -340.929929 
L 802.799808 -341.106383 
L 802.842386 -341.282837 
L 802.887716 -341.45929 
L 802.935811 -341.635744 
L 802.986687 -341.812198 
L 803.040359 -341.988651 
L 803.096843 -342.165105 
L 803.156154 -342.341559 
L 803.218309 -342.518012 
L 803.283325 -342.694466 
L 803.351216 -342.87092 
L 803.421998 -343.047373 
L 803.495688 -343.223827 
L 803.572301 -343.400281 
L 803.651851 -343.576734 
L 803.734353 -343.753188 
L 803.819821 -343.929642 
L 803.908268 -344.106095 
L 803.999706 -344.282549 
L 804.094147 -344.459003 
L 804.191601 -344.635456 
L 804.292079 -344.81191 
L 804.395588 -344.988364 
L 804.502137 -345.164817 
L 804.61173 -345.341271 
L 804.724373 -345.517725 
L 804.840068 -345.694178 
L 804.958819 -345.870632 
L 805.080624 -346.047086 
L 805.205482 -346.223539 
L 805.33339 -346.399993 
L 805.464344 -346.576447 
L 805.598336 -346.7529 
L 805.735357 -346.929354 
L 805.875396 -347.105808 
L 856.230204 -347.105808 
L 856.230204 -347.105808 
L 856.370243 -346.929354 
L 856.507264 -346.7529 
L 856.641256 -346.576447 
L 856.77221 -346.399993 
L 856.900118 -346.223539 
L 857.024976 -346.047086 
L 857.146781 -345.870632 
L 857.265532 -345.694178 
L 857.381227 -345.517725 
L 857.49387 -345.341271 
L 857.603463 -345.164817 
L 857.710012 -344.988364 
L 857.813521 -344.81191 
L 857.913999 -344.635456 
L 858.011453 -344.459003 
L 858.105894 -344.282549 
L 858.197332 -344.106095 
L 858.285779 -343.929642 
L 858.371247 -343.753188 
L 858.453749 -343.576734 
L 858.533299 -343.400281 
L 858.609912 -343.223827 
L 858.683602 -343.047373 
L 858.754384 -342.87092 
L 858.822275 -342.694466 
L 858.887291 -342.518012 
L 858.949446 -342.341559 
L 859.008757 -342.165105 
L 859.065241 -341.988651 
L 859.118913 -341.812198 
L 859.169789 -341.635744 
L 859.217884 -341.45929 
L 859.263214 -341.282837 
L 859.305792 -341.106383 
L 859.345635 -340.929929 
L 859.382754 -340.753476 
L 859.417163 -340.577022 
L 859.448875 -340.400568 
L 859.477902 -340.224115 
L 859.504253 -340.047661 
L 859.52794 -339.871207 
L 859.54897 -339.694754 
L 859.567354 -339.5183 
L 859.583098 -339.341846 
L 859.596207 -339.165393 
L 859.606689 -338.988939 
L 859.614546 -338.812485 
L 859.619782 -338.636032 
L 859.6224 -338.459578 
L 859.6224 -338.283124 
L 859.619782 -338.106671 
L 859.614546 -337.930217 
L 859.606689 -337.753763 
L 859.596207 -337.57731 
L 859.583098 -337.400856 
L 859.567354 -337.224402 
L 859.54897 -337.047949 
L 859.52794 -336.871495 
L 859.504253 -336.695041 
L 859.477902 -336.518588 
L 859.448875 -336.342134 
L 859.417163 -336.16568 
L 859.382754 -335.989227 
L 859.345635 -335.812773 
L 859.305792 -335.636319 
L 859.263214 -335.459866 
L 859.217884 -335.283412 
L 859.169789 -335.106958 
L 859.118913 -334.930505 
L 859.065241 -334.754051 
L 859.008757 -334.577597 
L 858.949446 -334.401144 
L 858.887291 -334.22469 
L 858.822275 -334.048236 
L 858.754384 -333.871783 
L 858.683602 -333.695329 
L 858.609912 -333.518875 
L 858.533299 -333.342422 
L 858.453749 -333.165968 
L 858.371247 -332.989514 
L 858.285779 -332.813061 
L 858.197332 -332.636607 
L 858.105894 -332.460153 
L 858.011453 -332.2837 
L 857.913999 -332.107246 
L 857.813521 -331.930792 
L 857.710012 -331.754339 
L 857.603463 -331.577885 
L 857.49387 -331.401431 
L 857.381227 -331.224978 
L 857.265532 -331.048524 
L 857.146781 -330.87207 
L 857.024976 -330.695617 
L 856.900118 -330.519163 
L 856.77221 -330.342709 
L 856.641256 -330.166256 
L 856.507264 -329.989802 
L 856.370243 -329.813348 
L 856.230204 -329.636895 
z
" id="m272769f38d" style="stroke:#3c3c3c;stroke-width:1.5;"/>
    </defs>
    <g clip-path="url(#pe1667b0b06)">
     <use style="fill:#c8e2bb;stroke:#3c3c3c;stroke-width:1.5;" x="0" xlink:href="#m272769f38d" y="546.48"/>
    </g>
   </g>
   <g id="PolyCollection_11">
    <defs>
     <path d="M 913.369404 -426.020421 
L 863.014596 -426.020421 
L 862.874557 -426.121507 
L 862.737536 -426.222594 
L 862.603544 -426.32368 
L 862.47259 -426.424767 
L 862.344682 -426.525853 
L 862.219824 -426.62694 
L 862.098019 -426.728026 
L 861.979268 -426.829113 
L 861.863573 -426.930199 
L 861.75093 -427.031286 
L 861.641337 -427.132372 
L 861.534788 -427.233459 
L 861.431279 -427.334545 
L 861.330801 -427.435632 
L 861.233347 -427.536718 
L 861.138906 -427.637805 
L 861.047468 -427.738891 
L 860.959021 -427.839978 
L 860.873553 -427.941064 
L 860.791051 -428.042151 
L 860.711501 -428.143237 
L 860.634888 -428.244324 
L 860.561198 -428.34541 
L 860.490416 -428.446497 
L 860.422525 -428.547583 
L 860.357509 -428.64867 
L 860.295354 -428.749756 
L 860.236043 -428.850843 
L 860.179559 -428.951929 
L 860.125887 -429.053016 
L 860.075011 -429.154102 
L 860.026916 -429.255189 
L 859.981586 -429.356275 
L 859.939008 -429.457362 
L 859.899165 -429.558448 
L 859.862046 -429.659535 
L 859.827637 -429.760621 
L 859.795925 -429.861708 
L 859.766898 -429.962794 
L 859.740547 -430.063881 
L 859.71686 -430.164967 
L 859.69583 -430.266054 
L 859.677446 -430.36714 
L 859.661702 -430.468227 
L 859.648593 -430.569313 
L 859.638111 -430.6704 
L 859.630254 -430.771487 
L 859.625018 -430.872573 
L 859.6224 -430.97366 
L 859.6224 -431.074746 
L 859.625018 -431.175833 
L 859.630254 -431.276919 
L 859.638111 -431.378006 
L 859.648593 -431.479092 
L 859.661702 -431.580179 
L 859.677446 -431.681265 
L 859.69583 -431.782352 
L 859.71686 -431.883438 
L 859.740547 -431.984525 
L 859.766898 -432.085611 
L 859.795925 -432.186698 
L 859.827637 -432.287784 
L 859.862046 -432.388871 
L 859.899165 -432.489957 
L 859.939008 -432.591044 
L 859.981586 -432.69213 
L 860.026916 -432.793217 
L 860.075011 -432.894303 
L 860.125887 -432.99539 
L 860.179559 -433.096476 
L 860.236043 -433.197563 
L 860.295354 -433.298649 
L 860.357509 -433.399736 
L 860.422525 -433.500822 
L 860.490416 -433.601909 
L 860.561198 -433.702995 
L 860.634888 -433.804082 
L 860.711501 -433.905168 
L 860.791051 -434.006255 
L 860.873553 -434.107341 
L 860.959021 -434.208428 
L 861.047468 -434.309514 
L 861.138906 -434.410601 
L 861.233347 -434.511687 
L 861.330801 -434.612774 
L 861.431279 -434.71386 
L 861.534788 -434.814947 
L 861.641337 -434.916033 
L 861.75093 -435.01712 
L 861.863573 -435.118206 
L 861.979268 -435.219293 
L 862.098019 -435.320379 
L 862.219824 -435.421466 
L 862.344682 -435.522552 
L 862.47259 -435.623639 
L 862.603544 -435.724725 
L 862.737536 -435.825812 
L 862.874557 -435.926898 
L 863.014596 -436.027985 
L 913.369404 -436.027985 
L 913.369404 -436.027985 
L 913.509443 -435.926898 
L 913.646464 -435.825812 
L 913.780456 -435.724725 
L 913.91141 -435.623639 
L 914.039318 -435.522552 
L 914.164176 -435.421466 
L 914.285981 -435.320379 
L 914.404732 -435.219293 
L 914.520427 -435.118206 
L 914.63307 -435.01712 
L 914.742663 -434.916033 
L 914.849212 -434.814947 
L 914.952721 -434.71386 
L 915.053199 -434.612774 
L 915.150653 -434.511687 
L 915.245094 -434.410601 
L 915.336532 -434.309514 
L 915.424979 -434.208428 
L 915.510447 -434.107341 
L 915.592949 -434.006255 
L 915.672499 -433.905168 
L 915.749112 -433.804082 
L 915.822802 -433.702995 
L 915.893584 -433.601909 
L 915.961475 -433.500822 
L 916.026491 -433.399736 
L 916.088646 -433.298649 
L 916.147957 -433.197563 
L 916.204441 -433.096476 
L 916.258113 -432.99539 
L 916.308989 -432.894303 
L 916.357084 -432.793217 
L 916.402414 -432.69213 
L 916.444992 -432.591044 
L 916.484835 -432.489957 
L 916.521954 -432.388871 
L 916.556363 -432.287784 
L 916.588075 -432.186698 
L 916.617102 -432.085611 
L 916.643453 -431.984525 
L 916.66714 -431.883438 
L 916.68817 -431.782352 
L 916.706554 -431.681265 
L 916.722298 -431.580179 
L 916.735407 -431.479092 
L 916.745889 -431.378006 
L 916.753746 -431.276919 
L 916.758982 -431.175833 
L 916.7616 -431.074746 
L 916.7616 -430.97366 
L 916.758982 -430.872573 
L 916.753746 -430.771487 
L 916.745889 -430.6704 
L 916.735407 -430.569313 
L 916.722298 -430.468227 
L 916.706554 -430.36714 
L 916.68817 -430.266054 
L 916.66714 -430.164967 
L 916.643453 -430.063881 
L 916.617102 -429.962794 
L 916.588075 -429.861708 
L 916.556363 -429.760621 
L 916.521954 -429.659535 
L 916.484835 -429.558448 
L 916.444992 -429.457362 
L 916.402414 -429.356275 
L 916.357084 -429.255189 
L 916.308989 -429.154102 
L 916.258113 -429.053016 
L 916.204441 -428.951929 
L 916.147957 -428.850843 
L 916.088646 -428.749756 
L 916.026491 -428.64867 
L 915.961475 -428.547583 
L 915.893584 -428.446497 
L 915.822802 -428.34541 
L 915.749112 -428.244324 
L 915.672499 -428.143237 
L 915.592949 -428.042151 
L 915.510447 -427.941064 
L 915.424979 -427.839978 
L 915.336532 -427.738891 
L 915.245094 -427.637805 
L 915.150653 -427.536718 
L 915.053199 -427.435632 
L 914.952721 -427.334545 
L 914.849212 -427.233459 
L 914.742663 -427.132372 
L 914.63307 -427.031286 
L 914.520427 -426.930199 
L 914.404732 -426.829113 
L 914.285981 -426.728026 
L 914.164176 -426.62694 
L 914.039318 -426.525853 
L 913.91141 -426.424767 
L 913.780456 -426.32368 
L 913.646464 -426.222594 
L 913.509443 -426.121507 
L 913.369404 -426.020421 
z
" id="m161a051043" style="stroke:#3c3c3c;stroke-width:1.5;"/>
    </defs>
    <g clip-path="url(#pe1667b0b06)">
     <use style="fill:#51a9b3;stroke:#3c3c3c;stroke-width:1.5;" x="0" xlink:href="#m161a051043" y="546.48"/>
    </g>
   </g>
   <g id="PolyCollection_12">
    <defs>
     <path d="M 970.508604 -439.762372 
L 920.153796 -439.762372 
L 920.013757 -439.765715 
L 919.876736 -439.769059 
L 919.742744 -439.772403 
L 919.61179 -439.775746 
L 919.483882 -439.77909 
L 919.359024 -439.782434 
L 919.237219 -439.785777 
L 919.118468 -439.789121 
L 919.002773 -439.792465 
L 918.89013 -439.795809 
L 918.780537 -439.799152 
L 918.673988 -439.802496 
L 918.570479 -439.80584 
L 918.470001 -439.809183 
L 918.372547 -439.812527 
L 918.278106 -439.815871 
L 918.186668 -439.819214 
L 918.098221 -439.822558 
L 918.012753 -439.825902 
L 917.930251 -439.829246 
L 917.850701 -439.832589 
L 917.774088 -439.835933 
L 917.700398 -439.839277 
L 917.629616 -439.84262 
L 917.561725 -439.845964 
L 917.496709 -439.849308 
L 917.434554 -439.852651 
L 917.375243 -439.855995 
L 917.318759 -439.859339 
L 917.265087 -439.862682 
L 917.214211 -439.866026 
L 917.166116 -439.86937 
L 917.120786 -439.872714 
L 917.078208 -439.876057 
L 917.038365 -439.879401 
L 917.001246 -439.882745 
L 916.966837 -439.886088 
L 916.935125 -439.889432 
L 916.906098 -439.892776 
L 916.879747 -439.896119 
L 916.85606 -439.899463 
L 916.83503 -439.902807 
L 916.816646 -439.906151 
L 916.800902 -439.909494 
L 916.787793 -439.912838 
L 916.777311 -439.916182 
L 916.769454 -439.919525 
L 916.764218 -439.922869 
L 916.7616 -439.926213 
L 916.7616 -439.929556 
L 916.764218 -439.9329 
L 916.769454 -439.936244 
L 916.777311 -439.939588 
L 916.787793 -439.942931 
L 916.800902 -439.946275 
L 916.816646 -439.949619 
L 916.83503 -439.952962 
L 916.85606 -439.956306 
L 916.879747 -439.95965 
L 916.906098 -439.962993 
L 916.935125 -439.966337 
L 916.966837 -439.969681 
L 917.001246 -439.973024 
L 917.038365 -439.976368 
L 917.078208 -439.979712 
L 917.120786 -439.983056 
L 917.166116 -439.986399 
L 917.214211 -439.989743 
L 917.265087 -439.993087 
L 917.318759 -439.99643 
L 917.375243 -439.999774 
L 917.434554 -440.003118 
L 917.496709 -440.006461 
L 917.561725 -440.009805 
L 917.629616 -440.013149 
L 917.700398 -440.016493 
L 917.774088 -440.019836 
L 917.850701 -440.02318 
L 917.930251 -440.026524 
L 918.012753 -440.029867 
L 918.098221 -440.033211 
L 918.186668 -440.036555 
L 918.278106 -440.039898 
L 918.372547 -440.043242 
L 918.470001 -440.046586 
L 918.570479 -440.04993 
L 918.673988 -440.053273 
L 918.780537 -440.056617 
L 918.89013 -440.059961 
L 919.002773 -440.063304 
L 919.118468 -440.066648 
L 919.237219 -440.069992 
L 919.359024 -440.073335 
L 919.483882 -440.076679 
L 919.61179 -440.080023 
L 919.742744 -440.083366 
L 919.876736 -440.08671 
L 920.013757 -440.090054 
L 920.153796 -440.093398 
L 970.508604 -440.093398 
L 970.508604 -440.093398 
L 970.648643 -440.090054 
L 970.785664 -440.08671 
L 970.919656 -440.083366 
L 971.05061 -440.080023 
L 971.178518 -440.076679 
L 971.303376 -440.073335 
L 971.425181 -440.069992 
L 971.543932 -440.066648 
L 971.659627 -440.063304 
L 971.77227 -440.059961 
L 971.881863 -440.056617 
L 971.988412 -440.053273 
L 972.091921 -440.04993 
L 972.192399 -440.046586 
L 972.289853 -440.043242 
L 972.384294 -440.039898 
L 972.475732 -440.036555 
L 972.564179 -440.033211 
L 972.649647 -440.029867 
L 972.732149 -440.026524 
L 972.811699 -440.02318 
L 972.888312 -440.019836 
L 972.962002 -440.016493 
L 973.032784 -440.013149 
L 973.100675 -440.009805 
L 973.165691 -440.006461 
L 973.227846 -440.003118 
L 973.287157 -439.999774 
L 973.343641 -439.99643 
L 973.397313 -439.993087 
L 973.448189 -439.989743 
L 973.496284 -439.986399 
L 973.541614 -439.983056 
L 973.584192 -439.979712 
L 973.624035 -439.976368 
L 973.661154 -439.973024 
L 973.695563 -439.969681 
L 973.727275 -439.966337 
L 973.756302 -439.962993 
L 973.782653 -439.95965 
L 973.80634 -439.956306 
L 973.82737 -439.952962 
L 973.845754 -439.949619 
L 973.861498 -439.946275 
L 973.874607 -439.942931 
L 973.885089 -439.939588 
L 973.892946 -439.936244 
L 973.898182 -439.9329 
L 973.9008 -439.929556 
L 973.9008 -439.926213 
L 973.898182 -439.922869 
L 973.892946 -439.919525 
L 973.885089 -439.916182 
L 973.874607 -439.912838 
L 973.861498 -439.909494 
L 973.845754 -439.906151 
L 973.82737 -439.902807 
L 973.80634 -439.899463 
L 973.782653 -439.896119 
L 973.756302 -439.892776 
L 973.727275 -439.889432 
L 973.695563 -439.886088 
L 973.661154 -439.882745 
L 973.624035 -439.879401 
L 973.584192 -439.876057 
L 973.541614 -439.872714 
L 973.496284 -439.86937 
L 973.448189 -439.866026 
L 973.397313 -439.862682 
L 973.343641 -439.859339 
L 973.287157 -439.855995 
L 973.227846 -439.852651 
L 973.165691 -439.849308 
L 973.100675 -439.845964 
L 973.032784 -439.84262 
L 972.962002 -439.839277 
L 972.888312 -439.835933 
L 972.811699 -439.832589 
L 972.732149 -439.829246 
L 972.649647 -439.825902 
L 972.564179 -439.822558 
L 972.475732 -439.819214 
L 972.384294 -439.815871 
L 972.289853 -439.812527 
L 972.192399 -439.809183 
L 972.091921 -439.80584 
L 971.988412 -439.802496 
L 971.881863 -439.799152 
L 971.77227 -439.795809 
L 971.659627 -439.792465 
L 971.543932 -439.789121 
L 971.425181 -439.785777 
L 971.303376 -439.782434 
L 971.178518 -439.77909 
L 971.05061 -439.775746 
L 970.919656 -439.772403 
L 970.785664 -439.769059 
L 970.648643 -439.765715 
L 970.508604 -439.762372 
z
" id="m0a1f41e700" style="stroke:#3c3c3c;stroke-width:1.5;"/>
    </defs>
    <g clip-path="url(#pe1667b0b06)">
     <use style="fill:#335f97;stroke:#3c3c3c;stroke-width:1.5;" x="0" xlink:href="#m0a1f41e700" y="546.48"/>
    </g>
   </g>
   <g id="patch_3">
    <path clip-path="url(#pe1667b0b06)" d="M 245.376 496.666246 
L 245.376 496.666246 
L 245.376 496.666246 
L 245.376 496.666246 
z
" style="fill:#c8e2bb;stroke:#3c3c3c;stroke-linejoin:miter;stroke-width:0.75;"/>
   </g>
   <g id="patch_4">
    <path clip-path="url(#pe1667b0b06)" d="M 245.376 496.666246 
L 245.376 496.666246 
L 245.376 496.666246 
L 245.376 496.666246 
z
" style="fill:#51a9b3;stroke:#3c3c3c;stroke-linejoin:miter;stroke-width:0.75;"/>
   </g>
   <g id="patch_5">
    <path clip-path="url(#pe1667b0b06)" d="M 245.376 496.666246 
L 245.376 496.666246 
L 245.376 496.666246 
L 245.376 496.666246 
z
" style="fill:#335f97;stroke:#3c3c3c;stroke-linejoin:miter;stroke-width:0.75;"/>
   </g>
   <g id="matplotlib.axis_1">
    <g id="xtick_1">
     <g id="line2d_1">
      <defs>
       <path d="M 0 0 
L 0 3.5 
" id="mb7d46e5a06" style="stroke:#000000;stroke-width:0.8;"/>
      </defs>
      <g>
       <use style="stroke:#000000;stroke-width:0.8;" x="245.376" xlink:href="#mb7d46e5a06" y="486.3672"/>
      </g>
     </g>
     <g id="text_1">
      <!-- ECG1 -->
      <g transform="translate(231.66975 500.965638)scale(0.1 -0.1)">
       <defs>
        <path d="M 628 4666 
L 3578 4666 
L 3578 4134 
L 1259 4134 
L 1259 2753 
L 3481 2753 
L 3481 2222 
L 1259 2222 
L 1259 531 
L 3634 531 
L 3634 0 
L 628 0 
L 628 4666 
z
" id="DejaVuSans-45" transform="scale(0.015625)"/>
        <path d="M 4122 4306 
L 4122 3641 
Q 3803 3938 3442 4084 
Q 3081 4231 2675 4231 
Q 1875 4231 1450 3742 
Q 1025 3253 1025 2328 
Q 1025 1406 1450 917 
Q 1875 428 2675 428 
Q 3081 428 3442 575 
Q 3803 722 4122 1019 
L 4122 359 
Q 3791 134 3420 21 
Q 3050 -91 2638 -91 
Q 1578 -91 968 557 
Q 359 1206 359 2328 
Q 359 3453 968 4101 
Q 1578 4750 2638 4750 
Q 3056 4750 3426 4639 
Q 3797 4528 4122 4306 
z
" id="DejaVuSans-43" transform="scale(0.015625)"/>
        <path d="M 3809 666 
L 3809 1919 
L 2778 1919 
L 2778 2438 
L 4434 2438 
L 4434 434 
Q 4069 175 3628 42 
Q 3188 -91 2688 -91 
Q 1594 -91 976 548 
Q 359 1188 359 2328 
Q 359 3472 976 4111 
Q 1594 4750 2688 4750 
Q 3144 4750 3555 4637 
Q 3966 4525 4313 4306 
L 4313 3634 
Q 3963 3931 3569 4081 
Q 3175 4231 2741 4231 
Q 1884 4231 1454 3753 
Q 1025 3275 1025 2328 
Q 1025 1384 1454 906 
Q 1884 428 2741 428 
Q 3075 428 3337 486 
Q 3600 544 3809 666 
z
" id="DejaVuSans-47" transform="scale(0.015625)"/>
        <path d="M 794 531 
L 1825 531 
L 1825 4091 
L 703 3866 
L 703 4441 
L 1819 4666 
L 2450 4666 
L 2450 531 
L 3481 531 
L 3481 0 
L 794 0 
L 794 531 
z
" id="DejaVuSans-31" transform="scale(0.015625)"/>
       </defs>
       <use xlink:href="#DejaVuSans-45"/>
       <use x="63.183594" xlink:href="#DejaVuSans-43"/>
       <use x="133.007812" xlink:href="#DejaVuSans-47"/>
       <use x="210.498047" xlink:href="#DejaVuSans-31"/>
      </g>
     </g>
    </g>
    <g id="xtick_2">
     <g id="line2d_2">
      <g>
       <use style="stroke:#000000;stroke-width:0.8;" x="459.648" xlink:href="#mb7d46e5a06" y="486.3672"/>
      </g>
     </g>
     <g id="text_2">
      <!-- ECG2 -->
      <g transform="translate(445.94175 500.965638)scale(0.1 -0.1)">
       <defs>
        <path d="M 1228 531 
L 3431 531 
L 3431 0 
L 469 0 
L 469 531 
Q 828 903 1448 1529 
Q 2069 2156 2228 2338 
Q 2531 2678 2651 2914 
Q 2772 3150 2772 3378 
Q 2772 3750 2511 3984 
Q 2250 4219 1831 4219 
Q 1534 4219 1204 4116 
Q 875 4013 500 3803 
L 500 4441 
Q 881 4594 1212 4672 
Q 1544 4750 1819 4750 
Q 2544 4750 2975 4387 
Q 3406 4025 3406 3419 
Q 3406 3131 3298 2873 
Q 3191 2616 2906 2266 
Q 2828 2175 2409 1742 
Q 1991 1309 1228 531 
z
" id="DejaVuSans-32" transform="scale(0.015625)"/>
       </defs>
       <use xlink:href="#DejaVuSans-45"/>
       <use x="63.183594" xlink:href="#DejaVuSans-43"/>
       <use x="133.007812" xlink:href="#DejaVuSans-47"/>
       <use x="210.498047" xlink:href="#DejaVuSans-32"/>
      </g>
     </g>
    </g>
    <g id="xtick_3">
     <g id="line2d_3">
      <g>
       <use style="stroke:#000000;stroke-width:0.8;" x="673.92" xlink:href="#mb7d46e5a06" y="486.3672"/>
      </g>
     </g>
     <g id="text_3">
      <!-- EMG -->
      <g transform="translate(662.572344 500.965638)scale(0.1 -0.1)">
       <defs>
        <path d="M 628 4666 
L 1569 4666 
L 2759 1491 
L 3956 4666 
L 4897 4666 
L 4897 0 
L 4281 0 
L 4281 4097 
L 3078 897 
L 2444 897 
L 1241 4097 
L 1241 0 
L 628 0 
L 628 4666 
z
" id="DejaVuSans-4d" transform="scale(0.015625)"/>
       </defs>
       <use xlink:href="#DejaVuSans-45"/>
       <use x="63.183594" xlink:href="#DejaVuSans-4d"/>
       <use x="149.462891" xlink:href="#DejaVuSans-47"/>
      </g>
     </g>
    </g>
    <g id="xtick_4">
     <g id="line2d_4">
      <g>
       <use style="stroke:#000000;stroke-width:0.8;" x="888.192" xlink:href="#mb7d46e5a06" y="486.3672"/>
      </g>
     </g>
     <g id="text_4">
      <!-- HAR -->
      <g transform="translate(877.537312 500.965638)scale(0.1 -0.1)">
       <defs>
        <path d="M 628 4666 
L 1259 4666 
L 1259 2753 
L 3553 2753 
L 3553 4666 
L 4184 4666 
L 4184 0 
L 3553 0 
L 3553 2222 
L 1259 2222 
L 1259 0 
L 628 0 
L 628 4666 
z
" id="DejaVuSans-48" transform="scale(0.015625)"/>
        <path d="M 2188 4044 
L 1331 1722 
L 3047 1722 
L 2188 4044 
z
M 1831 4666 
L 2547 4666 
L 4325 0 
L 3669 0 
L 3244 1197 
L 1141 1197 
L 716 0 
L 50 0 
L 1831 4666 
z
" id="DejaVuSans-41" transform="scale(0.015625)"/>
        <path d="M 2841 2188 
Q 3044 2119 3236 1894 
Q 3428 1669 3622 1275 
L 4263 0 
L 3584 0 
L 2988 1197 
Q 2756 1666 2539 1819 
Q 2322 1972 1947 1972 
L 1259 1972 
L 1259 0 
L 628 0 
L 628 4666 
L 2053 4666 
Q 2853 4666 3247 4331 
Q 3641 3997 3641 3322 
Q 3641 2881 3436 2590 
Q 3231 2300 2841 2188 
z
M 1259 4147 
L 1259 2491 
L 2053 2491 
Q 2509 2491 2742 2702 
Q 2975 2913 2975 3322 
Q 2975 3731 2742 3939 
Q 2509 4147 2053 4147 
L 1259 4147 
z
" id="DejaVuSans-52" transform="scale(0.015625)"/>
       </defs>
       <use xlink:href="#DejaVuSans-48"/>
       <use x="75.195312" xlink:href="#DejaVuSans-41"/>
       <use x="143.603516" xlink:href="#DejaVuSans-52"/>
      </g>
     </g>
    </g>
    <g id="text_5">
     <!-- dataset -->
     <g transform="translate(547.880094 514.643762)scale(0.1 -0.1)">
      <defs>
       <path d="M 2906 2969 
L 2906 4863 
L 3481 4863 
L 3481 0 
L 2906 0 
L 2906 525 
Q 2725 213 2448 61 
Q 2172 -91 1784 -91 
Q 1150 -91 751 415 
Q 353 922 353 1747 
Q 353 2572 751 3078 
Q 1150 3584 1784 3584 
Q 2172 3584 2448 3432 
Q 2725 3281 2906 2969 
z
M 947 1747 
Q 947 1113 1208 752 
Q 1469 391 1925 391 
Q 2381 391 2643 752 
Q 2906 1113 2906 1747 
Q 2906 2381 2643 2742 
Q 2381 3103 1925 3103 
Q 1469 3103 1208 2742 
Q 947 2381 947 1747 
z
" id="DejaVuSans-64" transform="scale(0.015625)"/>
       <path d="M 2194 1759 
Q 1497 1759 1228 1600 
Q 959 1441 959 1056 
Q 959 750 1161 570 
Q 1363 391 1709 391 
Q 2188 391 2477 730 
Q 2766 1069 2766 1631 
L 2766 1759 
L 2194 1759 
z
M 3341 1997 
L 3341 0 
L 2766 0 
L 2766 531 
Q 2569 213 2275 61 
Q 1981 -91 1556 -91 
Q 1019 -91 701 211 
Q 384 513 384 1019 
Q 384 1609 779 1909 
Q 1175 2209 1959 2209 
L 2766 2209 
L 2766 2266 
Q 2766 2663 2505 2880 
Q 2244 3097 1772 3097 
Q 1472 3097 1187 3025 
Q 903 2953 641 2809 
L 641 3341 
Q 956 3463 1253 3523 
Q 1550 3584 1831 3584 
Q 2591 3584 2966 3190 
Q 3341 2797 3341 1997 
z
" id="DejaVuSans-61" transform="scale(0.015625)"/>
       <path d="M 1172 4494 
L 1172 3500 
L 2356 3500 
L 2356 3053 
L 1172 3053 
L 1172 1153 
Q 1172 725 1289 603 
Q 1406 481 1766 481 
L 2356 481 
L 2356 0 
L 1766 0 
Q 1100 0 847 248 
Q 594 497 594 1153 
L 594 3053 
L 172 3053 
L 172 3500 
L 594 3500 
L 594 4494 
L 1172 4494 
z
" id="DejaVuSans-74" transform="scale(0.015625)"/>
       <path d="M 2834 3397 
L 2834 2853 
Q 2591 2978 2328 3040 
Q 2066 3103 1784 3103 
Q 1356 3103 1142 2972 
Q 928 2841 928 2578 
Q 928 2378 1081 2264 
Q 1234 2150 1697 2047 
L 1894 2003 
Q 2506 1872 2764 1633 
Q 3022 1394 3022 966 
Q 3022 478 2636 193 
Q 2250 -91 1575 -91 
Q 1294 -91 989 -36 
Q 684 19 347 128 
L 347 722 
Q 666 556 975 473 
Q 1284 391 1588 391 
Q 1994 391 2212 530 
Q 2431 669 2431 922 
Q 2431 1156 2273 1281 
Q 2116 1406 1581 1522 
L 1381 1569 
Q 847 1681 609 1914 
Q 372 2147 372 2553 
Q 372 3047 722 3315 
Q 1072 3584 1716 3584 
Q 2034 3584 2315 3537 
Q 2597 3491 2834 3397 
z
" id="DejaVuSans-73" transform="scale(0.015625)"/>
       <path d="M 3597 1894 
L 3597 1613 
L 953 1613 
Q 991 1019 1311 708 
Q 1631 397 2203 397 
Q 2534 397 2845 478 
Q 3156 559 3463 722 
L 3463 178 
Q 3153 47 2828 -22 
Q 2503 -91 2169 -91 
Q 1331 -91 842 396 
Q 353 884 353 1716 
Q 353 2575 817 3079 
Q 1281 3584 2069 3584 
Q 2775 3584 3186 3129 
Q 3597 2675 3597 1894 
z
M 3022 2063 
Q 3016 2534 2758 2815 
Q 2500 3097 2075 3097 
Q 1594 3097 1305 2825 
Q 1016 2553 972 2059 
L 3022 2063 
z
" id="DejaVuSans-65" transform="scale(0.015625)"/>
      </defs>
      <use xlink:href="#DejaVuSans-64"/>
      <use x="63.476562" xlink:href="#DejaVuSans-61"/>
      <use x="124.755859" xlink:href="#DejaVuSans-74"/>
      <use x="163.964844" xlink:href="#DejaVuSans-61"/>
      <use x="225.244141" xlink:href="#DejaVuSans-73"/>
      <use x="277.34375" xlink:href="#DejaVuSans-65"/>
      <use x="338.867188" xlink:href="#DejaVuSans-74"/>
     </g>
    </g>
   </g>
   <g id="matplotlib.axis_2">
    <g id="ytick_1">
     <g id="line2d_5">
      <defs>
       <path d="M 0 0 
L -3.5 0 
" id="mb004b63c21" style="stroke:#000000;stroke-width:0.8;"/>
      </defs>
      <g>
       <use style="stroke:#000000;stroke-width:0.8;" x="138.24" xlink:href="#mb004b63c21" y="414.273877"/>
      </g>
     </g>
     <g id="text_6">
      <!-- 0.2 -->
      <g transform="translate(115.336875 418.073096)scale(0.1 -0.1)">
       <defs>
        <path d="M 2034 4250 
Q 1547 4250 1301 3770 
Q 1056 3291 1056 2328 
Q 1056 1369 1301 889 
Q 1547 409 2034 409 
Q 2525 409 2770 889 
Q 3016 1369 3016 2328 
Q 3016 3291 2770 3770 
Q 2525 4250 2034 4250 
z
M 2034 4750 
Q 2819 4750 3233 4129 
Q 3647 3509 3647 2328 
Q 3647 1150 3233 529 
Q 2819 -91 2034 -91 
Q 1250 -91 836 529 
Q 422 1150 422 2328 
Q 422 3509 836 4129 
Q 1250 4750 2034 4750 
z
" id="DejaVuSans-30" transform="scale(0.015625)"/>
        <path d="M 684 794 
L 1344 794 
L 1344 0 
L 684 0 
L 684 794 
z
" id="DejaVuSans-2e" transform="scale(0.015625)"/>
       </defs>
       <use xlink:href="#DejaVuSans-30"/>
       <use x="63.623047" xlink:href="#DejaVuSans-2e"/>
       <use x="95.410156" xlink:href="#DejaVuSans-32"/>
      </g>
     </g>
    </g>
    <g id="ytick_2">
     <g id="line2d_6">
      <g>
       <use style="stroke:#000000;stroke-width:0.8;" x="138.24" xlink:href="#mb004b63c21" y="331.881508"/>
      </g>
     </g>
     <g id="text_7">
      <!-- 0.4 -->
      <g transform="translate(115.336875 335.680726)scale(0.1 -0.1)">
       <defs>
        <path d="M 2419 4116 
L 825 1625 
L 2419 1625 
L 2419 4116 
z
M 2253 4666 
L 3047 4666 
L 3047 1625 
L 3713 1625 
L 3713 1100 
L 3047 1100 
L 3047 0 
L 2419 0 
L 2419 1100 
L 313 1100 
L 313 1709 
L 2253 4666 
z
" id="DejaVuSans-34" transform="scale(0.015625)"/>
       </defs>
       <use xlink:href="#DejaVuSans-30"/>
       <use x="63.623047" xlink:href="#DejaVuSans-2e"/>
       <use x="95.410156" xlink:href="#DejaVuSans-34"/>
      </g>
     </g>
    </g>
    <g id="ytick_3">
     <g id="line2d_7">
      <g>
       <use style="stroke:#000000;stroke-width:0.8;" x="138.24" xlink:href="#mb004b63c21" y="249.489138"/>
      </g>
     </g>
     <g id="text_8">
      <!-- 0.6 -->
      <g transform="translate(115.336875 253.288357)scale(0.1 -0.1)">
       <defs>
        <path d="M 2113 2584 
Q 1688 2584 1439 2293 
Q 1191 2003 1191 1497 
Q 1191 994 1439 701 
Q 1688 409 2113 409 
Q 2538 409 2786 701 
Q 3034 994 3034 1497 
Q 3034 2003 2786 2293 
Q 2538 2584 2113 2584 
z
M 3366 4563 
L 3366 3988 
Q 3128 4100 2886 4159 
Q 2644 4219 2406 4219 
Q 1781 4219 1451 3797 
Q 1122 3375 1075 2522 
Q 1259 2794 1537 2939 
Q 1816 3084 2150 3084 
Q 2853 3084 3261 2657 
Q 3669 2231 3669 1497 
Q 3669 778 3244 343 
Q 2819 -91 2113 -91 
Q 1303 -91 875 529 
Q 447 1150 447 2328 
Q 447 3434 972 4092 
Q 1497 4750 2381 4750 
Q 2619 4750 2861 4703 
Q 3103 4656 3366 4563 
z
" id="DejaVuSans-36" transform="scale(0.015625)"/>
       </defs>
       <use xlink:href="#DejaVuSans-30"/>
       <use x="63.623047" xlink:href="#DejaVuSans-2e"/>
       <use x="95.410156" xlink:href="#DejaVuSans-36"/>
      </g>
     </g>
    </g>
    <g id="ytick_4">
     <g id="line2d_8">
      <g>
       <use style="stroke:#000000;stroke-width:0.8;" x="138.24" xlink:href="#mb004b63c21" y="167.096769"/>
      </g>
     </g>
     <g id="text_9">
      <!-- 0.8 -->
      <g transform="translate(115.336875 170.895988)scale(0.1 -0.1)">
       <defs>
        <path d="M 2034 2216 
Q 1584 2216 1326 1975 
Q 1069 1734 1069 1313 
Q 1069 891 1326 650 
Q 1584 409 2034 409 
Q 2484 409 2743 651 
Q 3003 894 3003 1313 
Q 3003 1734 2745 1975 
Q 2488 2216 2034 2216 
z
M 1403 2484 
Q 997 2584 770 2862 
Q 544 3141 544 3541 
Q 544 4100 942 4425 
Q 1341 4750 2034 4750 
Q 2731 4750 3128 4425 
Q 3525 4100 3525 3541 
Q 3525 3141 3298 2862 
Q 3072 2584 2669 2484 
Q 3125 2378 3379 2068 
Q 3634 1759 3634 1313 
Q 3634 634 3220 271 
Q 2806 -91 2034 -91 
Q 1263 -91 848 271 
Q 434 634 434 1313 
Q 434 1759 690 2068 
Q 947 2378 1403 2484 
z
M 1172 3481 
Q 1172 3119 1398 2916 
Q 1625 2713 2034 2713 
Q 2441 2713 2670 2916 
Q 2900 3119 2900 3481 
Q 2900 3844 2670 4047 
Q 2441 4250 2034 4250 
Q 1625 4250 1398 4047 
Q 1172 3844 1172 3481 
z
" id="DejaVuSans-38" transform="scale(0.015625)"/>
       </defs>
       <use xlink:href="#DejaVuSans-30"/>
       <use x="63.623047" xlink:href="#DejaVuSans-2e"/>
       <use x="95.410156" xlink:href="#DejaVuSans-38"/>
      </g>
     </g>
    </g>
    <g id="ytick_5">
     <g id="line2d_9">
      <g>
       <use style="stroke:#000000;stroke-width:0.8;" x="138.24" xlink:href="#mb004b63c21" y="84.7044"/>
      </g>
     </g>
     <g id="text_10">
      <!-- 1.0 -->
      <g transform="translate(115.336875 88.503619)scale(0.1 -0.1)">
       <use xlink:href="#DejaVuSans-31"/>
       <use x="63.623047" xlink:href="#DejaVuSans-2e"/>
       <use x="95.410156" xlink:href="#DejaVuSans-30"/>
      </g>
     </g>
    </g>
    <g id="text_11">
     <!-- f1 -->
     <g transform="translate(109.257188 280.913806)rotate(-90)scale(0.1 -0.1)">
      <defs>
       <path d="M 2375 4863 
L 2375 4384 
L 1825 4384 
Q 1516 4384 1395 4259 
Q 1275 4134 1275 3809 
L 1275 3500 
L 2222 3500 
L 2222 3053 
L 1275 3053 
L 1275 0 
L 697 0 
L 697 3053 
L 147 3053 
L 147 3500 
L 697 3500 
L 697 3744 
Q 697 4328 969 4595 
Q 1241 4863 1831 4863 
L 2375 4863 
z
" id="DejaVuSans-66" transform="scale(0.015625)"/>
      </defs>
      <use xlink:href="#DejaVuSans-66"/>
      <use x="35.205078" xlink:href="#DejaVuSans-31"/>
     </g>
    </g>
   </g>
   <g id="line2d_10">
    <path clip-path="url(#pe1667b0b06)" d="M 188.2368 290.685323 
L 188.2368 84.7044 
" style="fill:none;stroke:#3c3c3c;stroke-linecap:square;stroke-width:1.5;"/>
   </g>
   <g id="line2d_11">
    <path clip-path="url(#pe1667b0b06)" d="M 188.2368 290.685323 
L 188.2368 84.7044 
" style="fill:none;stroke:#3c3c3c;stroke-linecap:square;stroke-width:4.5;"/>
   </g>
   <g id="line2d_12">
    <path clip-path="url(#pe1667b0b06)" d="M 245.376 84.7044 
L 245.376 84.7044 
" style="fill:none;stroke:#3c3c3c;stroke-linecap:square;stroke-width:1.5;"/>
   </g>
   <g id="line2d_13">
    <path clip-path="url(#pe1667b0b06)" d="M 245.376 84.7044 
L 245.376 84.7044 
" style="fill:none;stroke:#3c3c3c;stroke-linecap:square;stroke-width:4.5;"/>
   </g>
   <g id="line2d_14">
    <path clip-path="url(#pe1667b0b06)" d="M 302.5152 290.685323 
L 302.5152 84.7044 
" style="fill:none;stroke:#3c3c3c;stroke-linecap:square;stroke-width:1.5;"/>
   </g>
   <g id="line2d_15">
    <path clip-path="url(#pe1667b0b06)" d="M 302.5152 290.685323 
L 302.5152 84.7044 
" style="fill:none;stroke:#3c3c3c;stroke-linecap:square;stroke-width:4.5;"/>
   </g>
   <g id="line2d_16">
    <path clip-path="url(#pe1667b0b06)" d="M 402.5088 354.610437 
L 402.5088 98.909981 
" style="fill:none;stroke:#3c3c3c;stroke-linecap:square;stroke-width:1.5;"/>
   </g>
   <g id="line2d_17">
    <path clip-path="url(#pe1667b0b06)" d="M 402.5088 311.993694 
L 402.5088 127.321143 
" style="fill:none;stroke:#3c3c3c;stroke-linecap:square;stroke-width:4.5;"/>
   </g>
   <g id="line2d_18">
    <path clip-path="url(#pe1667b0b06)" d="M 459.648 346.861938 
L 459.648 84.7044 
" style="fill:none;stroke:#3c3c3c;stroke-linecap:square;stroke-width:1.5;"/>
   </g>
   <g id="line2d_19">
    <path clip-path="url(#pe1667b0b06)" d="M 459.648 252.0639 
L 459.648 84.7044 
" style="fill:none;stroke:#3c3c3c;stroke-linecap:square;stroke-width:4.5;"/>
   </g>
   <g id="line2d_20">
    <path clip-path="url(#pe1667b0b06)" d="M 516.7872 467.2404 
L 516.7872 114.130246 
" style="fill:none;stroke:#3c3c3c;stroke-linecap:square;stroke-width:1.5;"/>
   </g>
   <g id="line2d_21">
    <path clip-path="url(#pe1667b0b06)" d="M 516.7872 408.388708 
L 516.7872 114.130246 
" style="fill:none;stroke:#3c3c3c;stroke-linecap:square;stroke-width:4.5;"/>
   </g>
   <g id="line2d_22">
    <path clip-path="url(#pe1667b0b06)" d="M 616.7808 416.283447 
L 616.7808 155.039349 
" style="fill:none;stroke:#3c3c3c;stroke-linecap:square;stroke-width:1.5;"/>
   </g>
   <g id="line2d_23">
    <path clip-path="url(#pe1667b0b06)" d="M 616.7808 376.092047 
L 616.7808 255.517848 
" style="fill:none;stroke:#3c3c3c;stroke-linecap:square;stroke-width:4.5;"/>
   </g>
   <g id="line2d_24">
    <path clip-path="url(#pe1667b0b06)" d="M 673.92 156.349938 
L 673.92 84.7044 
" style="fill:none;stroke:#3c3c3c;stroke-linecap:square;stroke-width:1.5;"/>
   </g>
   <g id="line2d_25">
    <path clip-path="url(#pe1667b0b06)" d="M 673.92 125.900585 
L 673.92 94.75225 
" style="fill:none;stroke:#3c3c3c;stroke-linecap:square;stroke-width:4.5;"/>
   </g>
   <g id="line2d_26">
    <path clip-path="url(#pe1667b0b06)" d="M 731.0592 228.891046 
L 731.0592 93.469546 
" style="fill:none;stroke:#3c3c3c;stroke-linecap:square;stroke-width:1.5;"/>
   </g>
   <g id="line2d_27">
    <path clip-path="url(#pe1667b0b06)" d="M 731.0592 170.265707 
L 731.0592 125.900585 
" style="fill:none;stroke:#3c3c3c;stroke-linecap:square;stroke-width:4.5;"/>
   </g>
   <g id="line2d_28">
    <path clip-path="url(#pe1667b0b06)" d="M 831.0528 216.843105 
L 831.0528 199.374192 
" style="fill:none;stroke:#3c3c3c;stroke-linecap:square;stroke-width:1.5;"/>
   </g>
   <g id="line2d_29">
    <path clip-path="url(#pe1667b0b06)" d="M 831.0528 212.475877 
L 831.0528 203.741421 
" style="fill:none;stroke:#3c3c3c;stroke-linecap:square;stroke-width:4.5;"/>
   </g>
   <g id="line2d_30">
    <path clip-path="url(#pe1667b0b06)" d="M 888.192 120.459579 
L 888.192 110.452015 
" style="fill:none;stroke:#3c3c3c;stroke-linecap:square;stroke-width:1.5;"/>
   </g>
   <g id="line2d_31">
    <path clip-path="url(#pe1667b0b06)" d="M 888.192 117.957688 
L 888.192 112.953906 
" style="fill:none;stroke:#3c3c3c;stroke-linecap:square;stroke-width:4.5;"/>
   </g>
   <g id="line2d_32">
    <path clip-path="url(#pe1667b0b06)" d="M 945.3312 106.717628 
L 945.3312 106.386602 
" style="fill:none;stroke:#3c3c3c;stroke-linecap:square;stroke-width:1.5;"/>
   </g>
   <g id="line2d_33">
    <path clip-path="url(#pe1667b0b06)" d="M 945.3312 106.634872 
L 945.3312 106.469359 
" style="fill:none;stroke:#3c3c3c;stroke-linecap:square;stroke-width:4.5;"/>
   </g>
   <g id="patch_6">
    <path d="M 138.24 486.3672 
L 138.24 65.5776 
" style="fill:none;stroke:#000000;stroke-linecap:square;stroke-linejoin:miter;stroke-width:0.8;"/>
   </g>
   <g id="patch_7">
    <path d="M 995.328 486.3672 
L 995.328 65.5776 
" style="fill:none;stroke:#000000;stroke-linecap:square;stroke-linejoin:miter;stroke-width:0.8;"/>
   </g>
   <g id="patch_8">
    <path d="M 138.24 486.3672 
L 995.328 486.3672 
" style="fill:none;stroke:#000000;stroke-linecap:square;stroke-linejoin:miter;stroke-width:0.8;"/>
   </g>
   <g id="patch_9">
    <path d="M 138.24 65.5776 
L 995.328 65.5776 
" style="fill:none;stroke:#000000;stroke-linecap:square;stroke-linejoin:miter;stroke-width:0.8;"/>
   </g>
   <g id="PathCollection_1">
    <defs>
     <path d="M 0 1.5 
C 0.397805 1.5 0.77937 1.341951 1.06066 1.06066 
C 1.341951 0.77937 1.5 0.397805 1.5 0 
C 1.5 -0.397805 1.341951 -0.77937 1.06066 -1.06066 
C 0.77937 -1.341951 0.397805 -1.5 0 -1.5 
C -0.397805 -1.5 -0.77937 -1.341951 -1.06066 -1.06066 
C -1.341951 -0.77937 -1.5 -0.397805 -1.5 0 
C -1.5 0.397805 -1.341951 0.77937 -1.06066 1.06066 
C -0.77937 1.341951 -0.397805 1.5 0 1.5 
z
" id="m0f83f8172f" style="stroke:#3c3c3c;"/>
    </defs>
    <g clip-path="url(#pe1667b0b06)">
     <use style="fill:#ffffff;stroke:#3c3c3c;" x="188.2368" xlink:href="#m0f83f8172f" y="84.7044"/>
    </g>
   </g>
   <g id="PathCollection_2">
    <g clip-path="url(#pe1667b0b06)">
     <use style="fill:#ffffff;stroke:#3c3c3c;" x="245.376" xlink:href="#m0f83f8172f" y="84.7044"/>
    </g>
   </g>
   <g id="PathCollection_3">
    <g clip-path="url(#pe1667b0b06)">
     <use style="fill:#ffffff;stroke:#3c3c3c;" x="302.5152" xlink:href="#m0f83f8172f" y="290.685323"/>
    </g>
   </g>
   <g id="PathCollection_4">
    <g clip-path="url(#pe1667b0b06)">
     <use style="fill:#ffffff;stroke:#3c3c3c;" x="402.5088" xlink:href="#m0f83f8172f" y="141.526724"/>
    </g>
   </g>
   <g id="PathCollection_5">
    <g clip-path="url(#pe1667b0b06)">
     <use style="fill:#ffffff;stroke:#3c3c3c;" x="459.648" xlink:href="#m0f83f8172f" y="119.271314"/>
    </g>
   </g>
   <g id="PathCollection_6">
    <g clip-path="url(#pe1667b0b06)">
     <use style="fill:#ffffff;stroke:#3c3c3c;" x="516.7872" xlink:href="#m0f83f8172f" y="246.546554"/>
    </g>
   </g>
   <g id="PathCollection_7">
    <g clip-path="url(#pe1667b0b06)">
     <use style="fill:#ffffff;stroke:#3c3c3c;" x="616.7808" xlink:href="#m0f83f8172f" y="315.804948"/>
    </g>
   </g>
   <g id="PathCollection_8">
    <g clip-path="url(#pe1667b0b06)">
     <use style="fill:#ffffff;stroke:#3c3c3c;" x="673.92" xlink:href="#m0f83f8172f" y="109.374208"/>
    </g>
   </g>
   <g id="PathCollection_9">
    <g clip-path="url(#pe1667b0b06)">
     <use style="fill:#ffffff;stroke:#3c3c3c;" x="731.0592" xlink:href="#m0f83f8172f" y="146.498677"/>
    </g>
   </g>
   <g id="PathCollection_10">
    <g clip-path="url(#pe1667b0b06)">
     <use style="fill:#ffffff;stroke:#3c3c3c;" x="831.0528" xlink:href="#m0f83f8172f" y="208.108649"/>
    </g>
   </g>
   <g id="PathCollection_11">
    <g clip-path="url(#pe1667b0b06)">
     <use style="fill:#ffffff;stroke:#3c3c3c;" x="888.192" xlink:href="#m0f83f8172f" y="115.455797"/>
    </g>
   </g>
   <g id="PathCollection_12">
    <g clip-path="url(#pe1667b0b06)">
     <use style="fill:#ffffff;stroke:#3c3c3c;" x="945.3312" xlink:href="#m0f83f8172f" y="106.552115"/>
    </g>
   </g>
   <g id="legend_1">
    <g id="patch_10">
     <path d="M 145.24 481.3672 
L 215.529063 481.3672 
Q 217.529063 481.3672 217.529063 479.3672 
L 217.529063 421.6547 
Q 217.529063 419.6547 215.529063 419.6547 
L 145.24 419.6547 
Q 143.24 419.6547 143.24 421.6547 
L 143.24 479.3672 
Q 143.24 481.3672 145.24 481.3672 
z
" style="fill:#ffffff;opacity:0.8;stroke:#cccccc;stroke-linejoin:miter;"/>
    </g>
    <g id="text_12">
     <!-- method -->
     <g transform="translate(161.075156 431.253138)scale(0.1 -0.1)">
      <defs>
       <path d="M 3328 2828 
Q 3544 3216 3844 3400 
Q 4144 3584 4550 3584 
Q 5097 3584 5394 3201 
Q 5691 2819 5691 2113 
L 5691 0 
L 5113 0 
L 5113 2094 
Q 5113 2597 4934 2840 
Q 4756 3084 4391 3084 
Q 3944 3084 3684 2787 
Q 3425 2491 3425 1978 
L 3425 0 
L 2847 0 
L 2847 2094 
Q 2847 2600 2669 2842 
Q 2491 3084 2119 3084 
Q 1678 3084 1418 2786 
Q 1159 2488 1159 1978 
L 1159 0 
L 581 0 
L 581 3500 
L 1159 3500 
L 1159 2956 
Q 1356 3278 1631 3431 
Q 1906 3584 2284 3584 
Q 2666 3584 2933 3390 
Q 3200 3197 3328 2828 
z
" id="DejaVuSans-6d" transform="scale(0.015625)"/>
       <path d="M 3513 2113 
L 3513 0 
L 2938 0 
L 2938 2094 
Q 2938 2591 2744 2837 
Q 2550 3084 2163 3084 
Q 1697 3084 1428 2787 
Q 1159 2491 1159 1978 
L 1159 0 
L 581 0 
L 581 4863 
L 1159 4863 
L 1159 2956 
Q 1366 3272 1645 3428 
Q 1925 3584 2291 3584 
Q 2894 3584 3203 3211 
Q 3513 2838 3513 2113 
z
" id="DejaVuSans-68" transform="scale(0.015625)"/>
       <path d="M 1959 3097 
Q 1497 3097 1228 2736 
Q 959 2375 959 1747 
Q 959 1119 1226 758 
Q 1494 397 1959 397 
Q 2419 397 2687 759 
Q 2956 1122 2956 1747 
Q 2956 2369 2687 2733 
Q 2419 3097 1959 3097 
z
M 1959 3584 
Q 2709 3584 3137 3096 
Q 3566 2609 3566 1747 
Q 3566 888 3137 398 
Q 2709 -91 1959 -91 
Q 1206 -91 779 398 
Q 353 888 353 1747 
Q 353 2609 779 3096 
Q 1206 3584 1959 3584 
z
" id="DejaVuSans-6f" transform="scale(0.015625)"/>
      </defs>
      <use xlink:href="#DejaVuSans-6d"/>
      <use x="97.412109" xlink:href="#DejaVuSans-65"/>
      <use x="158.935547" xlink:href="#DejaVuSans-74"/>
      <use x="198.144531" xlink:href="#DejaVuSans-68"/>
      <use x="261.523438" xlink:href="#DejaVuSans-6f"/>
      <use x="322.705078" xlink:href="#DejaVuSans-64"/>
     </g>
    </g>
    <g id="patch_11">
     <path d="M 147.24 445.931263 
L 167.24 445.931263 
L 167.24 438.931263 
L 147.24 438.931263 
z
" style="fill:#c8e2bb;stroke:#3c3c3c;stroke-linejoin:miter;stroke-width:0.75;"/>
    </g>
    <g id="text_13">
     <!-- BS -->
     <g transform="translate(175.24 445.931263)scale(0.1 -0.1)">
      <defs>
       <path d="M 1259 2228 
L 1259 519 
L 2272 519 
Q 2781 519 3026 730 
Q 3272 941 3272 1375 
Q 3272 1813 3026 2020 
Q 2781 2228 2272 2228 
L 1259 2228 
z
M 1259 4147 
L 1259 2741 
L 2194 2741 
Q 2656 2741 2882 2914 
Q 3109 3088 3109 3444 
Q 3109 3797 2882 3972 
Q 2656 4147 2194 4147 
L 1259 4147 
z
M 628 4666 
L 2241 4666 
Q 2963 4666 3353 4366 
Q 3744 4066 3744 3513 
Q 3744 3084 3544 2831 
Q 3344 2578 2956 2516 
Q 3422 2416 3680 2098 
Q 3938 1781 3938 1306 
Q 3938 681 3513 340 
Q 3088 0 2303 0 
L 628 0 
L 628 4666 
z
" id="DejaVuSans-42" transform="scale(0.015625)"/>
       <path d="M 3425 4513 
L 3425 3897 
Q 3066 4069 2747 4153 
Q 2428 4238 2131 4238 
Q 1616 4238 1336 4038 
Q 1056 3838 1056 3469 
Q 1056 3159 1242 3001 
Q 1428 2844 1947 2747 
L 2328 2669 
Q 3034 2534 3370 2195 
Q 3706 1856 3706 1288 
Q 3706 609 3251 259 
Q 2797 -91 1919 -91 
Q 1588 -91 1214 -16 
Q 841 59 441 206 
L 441 856 
Q 825 641 1194 531 
Q 1563 422 1919 422 
Q 2459 422 2753 634 
Q 3047 847 3047 1241 
Q 3047 1584 2836 1778 
Q 2625 1972 2144 2069 
L 1759 2144 
Q 1053 2284 737 2584 
Q 422 2884 422 3419 
Q 422 4038 858 4394 
Q 1294 4750 2059 4750 
Q 2388 4750 2728 4690 
Q 3069 4631 3425 4513 
z
" id="DejaVuSans-53" transform="scale(0.015625)"/>
      </defs>
      <use xlink:href="#DejaVuSans-42"/>
      <use x="66.853516" xlink:href="#DejaVuSans-53"/>
     </g>
    </g>
    <g id="patch_12">
     <path d="M 147.24 460.609388 
L 167.24 460.609388 
L 167.24 453.609388 
L 147.24 453.609388 
z
" style="fill:#51a9b3;stroke:#3c3c3c;stroke-linejoin:miter;stroke-width:0.75;"/>
    </g>
    <g id="text_14">
     <!-- Novelty -->
     <g transform="translate(175.24 460.609388)scale(0.1 -0.1)">
      <defs>
       <path d="M 628 4666 
L 1478 4666 
L 3547 763 
L 3547 4666 
L 4159 4666 
L 4159 0 
L 3309 0 
L 1241 3903 
L 1241 0 
L 628 0 
L 628 4666 
z
" id="DejaVuSans-4e" transform="scale(0.015625)"/>
       <path d="M 191 3500 
L 800 3500 
L 1894 563 
L 2988 3500 
L 3597 3500 
L 2284 0 
L 1503 0 
L 191 3500 
z
" id="DejaVuSans-76" transform="scale(0.015625)"/>
       <path d="M 603 4863 
L 1178 4863 
L 1178 0 
L 603 0 
L 603 4863 
z
" id="DejaVuSans-6c" transform="scale(0.015625)"/>
       <path d="M 2059 -325 
Q 1816 -950 1584 -1140 
Q 1353 -1331 966 -1331 
L 506 -1331 
L 506 -850 
L 844 -850 
Q 1081 -850 1212 -737 
Q 1344 -625 1503 -206 
L 1606 56 
L 191 3500 
L 800 3500 
L 1894 763 
L 2988 3500 
L 3597 3500 
L 2059 -325 
z
" id="DejaVuSans-79" transform="scale(0.015625)"/>
      </defs>
      <use xlink:href="#DejaVuSans-4e"/>
      <use x="74.804688" xlink:href="#DejaVuSans-6f"/>
      <use x="135.986328" xlink:href="#DejaVuSans-76"/>
      <use x="195.166016" xlink:href="#DejaVuSans-65"/>
      <use x="256.689453" xlink:href="#DejaVuSans-6c"/>
      <use x="284.472656" xlink:href="#DejaVuSans-74"/>
      <use x="323.681641" xlink:href="#DejaVuSans-79"/>
     </g>
    </g>
    <g id="patch_13">
     <path d="M 147.24 475.287513 
L 167.24 475.287513 
L 167.24 468.287513 
L 147.24 468.287513 
z
" style="fill:#335f97;stroke:#3c3c3c;stroke-linejoin:miter;stroke-width:0.75;"/>
    </g>
    <g id="text_15">
     <!-- WL -->
     <g transform="translate(175.24 475.287513)scale(0.1 -0.1)">
      <defs>
       <path d="M 213 4666 
L 850 4666 
L 1831 722 
L 2809 4666 
L 3519 4666 
L 4500 722 
L 5478 4666 
L 6119 4666 
L 4947 0 
L 4153 0 
L 3169 4050 
L 2175 0 
L 1381 0 
L 213 4666 
z
" id="DejaVuSans-57" transform="scale(0.015625)"/>
       <path d="M 628 4666 
L 1259 4666 
L 1259 531 
L 3531 531 
L 3531 0 
L 628 0 
L 628 4666 
z
" id="DejaVuSans-4c" transform="scale(0.015625)"/>
      </defs>
      <use xlink:href="#DejaVuSans-57"/>
      <use x="98.876953" xlink:href="#DejaVuSans-4c"/>
     </g>
    </g>
   </g>
  </g>
 </g>
 <defs>
  <clipPath id="pe1667b0b06">
   <rect height="420.7896" width="857.088" x="138.24" y="65.5776"/>
  </clipPath>
 </defs>
</svg>
