<?xml version="1.0" encoding="utf-8" standalone="no"?>
<!DOCTYPE svg PUBLIC "-//W3C//DTD SVG 1.1//EN"
  "http://www.w3.org/Graphics/SVG/1.1/DTD/svg11.dtd">
<svg height="546.48pt" version="1.1" viewBox="0 0 1105.92 546.48" width="1105.92pt" xmlns="http://www.w3.org/2000/svg" xmlns:xlink="http://www.w3.org/1999/xlink">
 <metadata>
  <rdf:RDF xmlns:cc="http://creativecommons.org/ns#" xmlns:dc="http://purl.org/dc/elements/1.1/" xmlns:rdf="http://www.w3.org/1999/02/22-rdf-syntax-ns#">
   <cc:Work>
    <dc:type rdf:resource="http://purl.org/dc/dcmitype/StillImage"/>
    <dc:date>2022-11-26T16:03:15.275423</dc:date>
    <dc:format>image/svg+xml</dc:format>
    <dc:creator>
     <cc:Agent>
      <dc:title>Matplotlib v3.4.2, https://matplotlib.org/</dc:title>
     </cc:Agent>
    </dc:creator>
   </cc:Work>
  </rdf:RDF>
 </metadata>
 <defs>
  <style type="text/css">*{stroke-linecap:butt;stroke-linejoin:round;}</style>
 </defs>
 <g id="figure_1">
  <g id="patch_1">
   <path d="M 0 546.48 
L 1105.92 546.48 
L 1105.92 0 
L 0 0 
z
" style="fill:#ffffff;"/>
  </g>
  <g id="axes_1">
   <g id="patch_2">
    <path d="M 138.24 486.3672 
L 995.328 486.3672 
L 995.328 65.5776 
L 138.24 65.5776 
z
" style="fill:#ffffff;"/>
   </g>
   <g id="PolyCollection_1">
    <defs>
     <path d="M 202.100574 -79.565718 
L 174.373026 -79.565718 
L 173.728987 -79.766659 
L 173.091118 -79.9676 
L 172.462096 -80.168541 
L 171.844553 -80.369482 
L 171.241044 -80.570424 
L 170.654021 -80.771365 
L 170.085812 -80.972306 
L 169.538594 -81.173247 
L 169.014368 -81.374188 
L 168.514945 -81.575129 
L 168.041923 -81.776071 
L 167.596676 -81.977012 
L 167.180336 -82.177953 
L 166.793791 -82.378894 
L 166.437673 -82.579835 
L 166.11236 -82.780776 
L 165.817972 -82.981718 
L 165.554381 -83.182659 
L 165.321212 -83.3836 
L 165.117861 -83.584541 
L 164.943502 -83.785482 
L 164.797109 -83.986424 
L 164.677477 -84.187365 
L 164.583238 -84.388306 
L 164.512894 -84.589247 
L 164.464839 -84.790188 
L 164.437385 -84.991129 
L 164.4288 -85.192071 
L 164.437329 -85.393012 
L 164.461229 -85.593953 
L 164.498798 -85.794894 
L 164.548406 -85.995835 
L 164.608519 -86.196776 
L 164.67773 -86.397718 
L 164.75478 -86.598659 
L 164.838581 -86.7996 
L 164.928233 -87.000541 
L 165.023041 -87.201482 
L 165.122523 -87.402424 
L 165.226421 -87.603365 
L 165.3347 -87.804306 
L 165.447547 -88.005247 
L 165.565367 -88.206188 
L 165.688769 -88.407129 
L 165.818551 -88.608071 
L 165.955681 -88.809012 
L 166.101272 -89.009953 
L 166.256557 -89.210894 
L 166.422854 -89.411835 
L 166.601535 -89.612776 
L 166.79399 -89.813718 
L 167.001591 -90.014659 
L 167.22565 -90.2156 
L 167.467388 -90.416541 
L 167.727895 -90.617482 
L 168.008094 -90.818424 
L 168.308712 -91.019365 
L 168.630251 -91.220306 
L 168.972964 -91.421247 
L 169.336832 -91.622188 
L 169.721557 -91.823129 
L 170.126547 -92.024071 
L 170.550919 -92.225012 
L 170.993501 -92.425953 
L 171.452841 -92.626894 
L 171.92723 -92.827835 
L 172.414718 -93.028776 
L 172.913148 -93.229718 
L 173.420183 -93.430659 
L 173.93335 -93.6316 
L 174.450075 -93.832541 
L 174.967731 -94.033482 
L 175.483676 -94.234424 
L 175.995305 -94.435365 
L 176.500088 -94.636306 
L 176.995617 -94.837247 
L 177.479641 -95.038188 
L 177.950106 -95.239129 
L 178.405186 -95.440071 
L 178.843308 -95.641012 
L 179.263172 -95.841953 
L 179.663771 -96.042894 
L 180.044394 -96.243835 
L 180.40463 -96.444776 
L 180.744363 -96.645718 
L 181.063764 -96.846659 
L 181.363273 -97.0476 
L 181.643574 -97.248541 
L 181.905578 -97.449482 
L 182.150383 -97.650424 
L 182.379249 -97.851365 
L 182.59356 -98.052306 
L 182.794787 -98.253247 
L 182.984455 -98.454188 
L 183.164104 -98.655129 
L 183.335258 -98.856071 
L 183.49939 -99.057012 
L 183.657897 -99.257953 
L 183.812071 -99.458894 
L 192.661529 -99.458894 
L 192.661529 -99.458894 
L 192.815703 -99.257953 
L 192.97421 -99.057012 
L 193.138342 -98.856071 
L 193.309496 -98.655129 
L 193.489145 -98.454188 
L 193.678813 -98.253247 
L 193.88004 -98.052306 
L 194.094351 -97.851365 
L 194.323217 -97.650424 
L 194.568022 -97.449482 
L 194.830026 -97.248541 
L 195.110327 -97.0476 
L 195.409836 -96.846659 
L 195.729237 -96.645718 
L 196.06897 -96.444776 
L 196.429206 -96.243835 
L 196.809829 -96.042894 
L 197.210428 -95.841953 
L 197.630292 -95.641012 
L 198.068414 -95.440071 
L 198.523494 -95.239129 
L 198.993959 -95.038188 
L 199.477983 -94.837247 
L 199.973512 -94.636306 
L 200.478295 -94.435365 
L 200.989924 -94.234424 
L 201.505869 -94.033482 
L 202.023525 -93.832541 
L 202.54025 -93.6316 
L 203.053417 -93.430659 
L 203.560452 -93.229718 
L 204.058882 -93.028776 
L 204.54637 -92.827835 
L 205.020759 -92.626894 
L 205.480099 -92.425953 
L 205.922681 -92.225012 
L 206.347053 -92.024071 
L 206.752043 -91.823129 
L 207.136768 -91.622188 
L 207.500636 -91.421247 
L 207.843349 -91.220306 
L 208.164888 -91.019365 
L 208.465506 -90.818424 
L 208.745705 -90.617482 
L 209.006212 -90.416541 
L 209.24795 -90.2156 
L 209.472009 -90.014659 
L 209.67961 -89.813718 
L 209.872065 -89.612776 
L 210.050746 -89.411835 
L 210.217043 -89.210894 
L 210.372328 -89.009953 
L 210.517919 -88.809012 
L 210.655049 -88.608071 
L 210.784831 -88.407129 
L 210.908233 -88.206188 
L 211.026053 -88.005247 
L 211.1389 -87.804306 
L 211.247179 -87.603365 
L 211.351077 -87.402424 
L 211.450559 -87.201482 
L 211.545367 -87.000541 
L 211.635019 -86.7996 
L 211.71882 -86.598659 
L 211.79587 -86.397718 
L 211.865081 -86.196776 
L 211.925194 -85.995835 
L 211.974802 -85.794894 
L 212.012371 -85.593953 
L 212.036271 -85.393012 
L 212.0448 -85.192071 
L 212.036215 -84.991129 
L 212.008761 -84.790188 
L 211.960706 -84.589247 
L 211.890362 -84.388306 
L 211.796123 -84.187365 
L 211.676491 -83.986424 
L 211.530098 -83.785482 
L 211.355739 -83.584541 
L 211.152388 -83.3836 
L 210.919219 -83.182659 
L 210.655628 -82.981718 
L 210.36124 -82.780776 
L 210.035927 -82.579835 
L 209.679809 -82.378894 
L 209.293264 -82.177953 
L 208.876924 -81.977012 
L 208.431677 -81.776071 
L 207.958655 -81.575129 
L 207.459232 -81.374188 
L 206.935006 -81.173247 
L 206.387788 -80.972306 
L 205.819579 -80.771365 
L 205.232556 -80.570424 
L 204.629047 -80.369482 
L 204.011504 -80.168541 
L 203.382482 -79.9676 
L 202.744613 -79.766659 
L 202.100574 -79.565718 
z
" id="mf1d1110074" style="stroke:#3c3c3c;stroke-width:1.5;"/>
    </defs>
    <g clip-path="url(#p595a7991cf)">
     <use style="fill:#c8e2bb;stroke:#3c3c3c;stroke-width:1.5;" x="0" xlink:href="#mf1d1110074" y="546.48"/>
    </g>
   </g>
   <g id="PolyCollection_2">
    <defs>
     <path d="M 265.972655 -79.402659 
L 224.779345 -79.402659 
L 223.886246 -79.501482 
L 223.024824 -79.600306 
L 222.200886 -79.699129 
L 221.419974 -79.797953 
L 220.687296 -79.896776 
L 220.007657 -79.9956 
L 219.385402 -80.094424 
L 218.824362 -80.193247 
L 218.327819 -80.292071 
L 217.898464 -80.390894 
L 217.53838 -80.489718 
L 217.249027 -80.588541 
L 217.03124 -80.687365 
L 216.885231 -80.786188 
L 216.810609 -80.885012 
L 216.8064 -80.983835 
L 216.871079 -81.082659 
L 217.002608 -81.181482 
L 217.198477 -81.280306 
L 217.455752 -81.379129 
L 217.771128 -81.477953 
L 218.140979 -81.576776 
L 218.561414 -81.6756 
L 219.02833 -81.774424 
L 219.537472 -81.873247 
L 220.084479 -81.972071 
L 220.66494 -82.070894 
L 221.274439 -82.169718 
L 221.908604 -82.268541 
L 222.563145 -82.367365 
L 223.233895 -82.466188 
L 223.916839 -82.565012 
L 224.608149 -82.663835 
L 225.304199 -82.762659 
L 226.001596 -82.861482 
L 226.697185 -82.960306 
L 227.388063 -83.059129 
L 228.071588 -83.157953 
L 228.745375 -83.256776 
L 229.407298 -83.3556 
L 230.055484 -83.454424 
L 230.688303 -83.553247 
L 231.304355 -83.652071 
L 231.90246 -83.750894 
L 232.481642 -83.849718 
L 233.04111 -83.948541 
L 233.580243 -84.047365 
L 234.09857 -84.146188 
L 234.595757 -84.245012 
L 235.071589 -84.343835 
L 235.525954 -84.442659 
L 235.958831 -84.541482 
L 236.370276 -84.640306 
L 236.760417 -84.739129 
L 237.12944 -84.837953 
L 237.477588 -84.936776 
L 237.805154 -85.0356 
L 238.112478 -85.134424 
L 238.399948 -85.233247 
L 238.667999 -85.332071 
L 238.917112 -85.430894 
L 239.147816 -85.529718 
L 239.360688 -85.628541 
L 239.556354 -85.727365 
L 239.735489 -85.826188 
L 239.898815 -85.925012 
L 240.047099 -86.023835 
L 240.181153 -86.122659 
L 240.301823 -86.221482 
L 240.409994 -86.320306 
L 240.506573 -86.419129 
L 240.592494 -86.517953 
L 240.6687 -86.616776 
L 240.736145 -86.7156 
L 240.795782 -86.814424 
L 240.848557 -86.913247 
L 240.895404 -87.012071 
L 240.93724 -87.110894 
L 240.974959 -87.209718 
L 241.009428 -87.308541 
L 241.041487 -87.407365 
L 241.071944 -87.506188 
L 241.101572 -87.605012 
L 241.131113 -87.703835 
L 241.161275 -87.802659 
L 241.192729 -87.901482 
L 241.22611 -88.000306 
L 241.262018 -88.099129 
L 241.301011 -88.197953 
L 241.34361 -88.296776 
L 241.390287 -88.3956 
L 241.441469 -88.494424 
L 241.49753 -88.593247 
L 241.558787 -88.692071 
L 241.625496 -88.790894 
L 241.697844 -88.889718 
L 241.775948 -88.988541 
L 241.859847 -89.087365 
L 241.949504 -89.186188 
L 248.802496 -89.186188 
L 248.802496 -89.186188 
L 248.892153 -89.087365 
L 248.976052 -88.988541 
L 249.054156 -88.889718 
L 249.126504 -88.790894 
L 249.193213 -88.692071 
L 249.25447 -88.593247 
L 249.310531 -88.494424 
L 249.361713 -88.3956 
L 249.40839 -88.296776 
L 249.450989 -88.197953 
L 249.489982 -88.099129 
L 249.52589 -88.000306 
L 249.559271 -87.901482 
L 249.590725 -87.802659 
L 249.620887 -87.703835 
L 249.650428 -87.605012 
L 249.680056 -87.506188 
L 249.710513 -87.407365 
L 249.742572 -87.308541 
L 249.777041 -87.209718 
L 249.81476 -87.110894 
L 249.856596 -87.012071 
L 249.903443 -86.913247 
L 249.956218 -86.814424 
L 250.015855 -86.7156 
L 250.0833 -86.616776 
L 250.159506 -86.517953 
L 250.245427 -86.419129 
L 250.342006 -86.320306 
L 250.450177 -86.221482 
L 250.570847 -86.122659 
L 250.704901 -86.023835 
L 250.853185 -85.925012 
L 251.016511 -85.826188 
L 251.195646 -85.727365 
L 251.391312 -85.628541 
L 251.604184 -85.529718 
L 251.834888 -85.430894 
L 252.084001 -85.332071 
L 252.352052 -85.233247 
L 252.639522 -85.134424 
L 252.946846 -85.0356 
L 253.274412 -84.936776 
L 253.62256 -84.837953 
L 253.991583 -84.739129 
L 254.381724 -84.640306 
L 254.793169 -84.541482 
L 255.226046 -84.442659 
L 255.680411 -84.343835 
L 256.156243 -84.245012 
L 256.65343 -84.146188 
L 257.171757 -84.047365 
L 257.71089 -83.948541 
L 258.270358 -83.849718 
L 258.84954 -83.750894 
L 259.447645 -83.652071 
L 260.063697 -83.553247 
L 260.696516 -83.454424 
L 261.344702 -83.3556 
L 262.006625 -83.256776 
L 262.680412 -83.157953 
L 263.363937 -83.059129 
L 264.054815 -82.960306 
L 264.750404 -82.861482 
L 265.447801 -82.762659 
L 266.143851 -82.663835 
L 266.835161 -82.565012 
L 267.518105 -82.466188 
L 268.188855 -82.367365 
L 268.843396 -82.268541 
L 269.477561 -82.169718 
L 270.08706 -82.070894 
L 270.667521 -81.972071 
L 271.214528 -81.873247 
L 271.72367 -81.774424 
L 272.190586 -81.6756 
L 272.611021 -81.576776 
L 272.980872 -81.477953 
L 273.296248 -81.379129 
L 273.553523 -81.280306 
L 273.749392 -81.181482 
L 273.880921 -81.082659 
L 273.9456 -80.983835 
L 273.941391 -80.885012 
L 273.866769 -80.786188 
L 273.72076 -80.687365 
L 273.502973 -80.588541 
L 273.21362 -80.489718 
L 272.853536 -80.390894 
L 272.424181 -80.292071 
L 271.927638 -80.193247 
L 271.366598 -80.094424 
L 270.744343 -79.9956 
L 270.064704 -79.896776 
L 269.332026 -79.797953 
L 268.551114 -79.699129 
L 267.727176 -79.600306 
L 266.865754 -79.501482 
L 265.972655 -79.402659 
z
" id="m475c61b912" style="stroke:#3c3c3c;stroke-width:1.5;"/>
    </defs>
    <g clip-path="url(#p595a7991cf)">
     <use style="fill:#51a9b3;stroke:#3c3c3c;stroke-width:1.5;" x="0" xlink:href="#m475c61b912" y="546.48"/>
    </g>
   </g>
   <g id="PolyCollection_3">
    <defs>
     <path d="M 313.919007 -79.891835 
L 291.111393 -79.891835 
L 290.548953 -80.204776 
L 289.986598 -80.517718 
L 289.426604 -80.830659 
L 288.871291 -81.1436 
L 288.323011 -81.456541 
L 287.784121 -81.769482 
L 287.256968 -82.082424 
L 286.743864 -82.395365 
L 286.247068 -82.708306 
L 285.768768 -83.021247 
L 285.311056 -83.334188 
L 284.875915 -83.647129 
L 284.465199 -83.960071 
L 284.080617 -84.273012 
L 283.723719 -84.585953 
L 283.395886 -84.898894 
L 283.098313 -85.211835 
L 282.832007 -85.524776 
L 282.597778 -85.837718 
L 282.396231 -86.150659 
L 282.227769 -86.4636 
L 282.092588 -86.776541 
L 281.990683 -87.089482 
L 281.921848 -87.402424 
L 281.885682 -87.715365 
L 281.8816 -88.028306 
L 281.908839 -88.341247 
L 281.966469 -88.654188 
L 282.053406 -88.967129 
L 282.168427 -89.280071 
L 282.310183 -89.593012 
L 282.477213 -89.905953 
L 282.667967 -90.218894 
L 282.880814 -90.531835 
L 283.114067 -90.844776 
L 283.365999 -91.157718 
L 283.634857 -91.470659 
L 283.918883 -91.7836 
L 284.21633 -92.096541 
L 284.525477 -92.409482 
L 284.844645 -92.722424 
L 285.172209 -93.035365 
L 285.506615 -93.348306 
L 285.846386 -93.661247 
L 286.190132 -93.974188 
L 286.53656 -94.287129 
L 286.884479 -94.600071 
L 287.2328 -94.913012 
L 287.580542 -95.225953 
L 287.926829 -95.538894 
L 288.270889 -95.851835 
L 288.612052 -96.164776 
L 288.949739 -96.477718 
L 289.283462 -96.790659 
L 289.612814 -97.1036 
L 289.937458 -97.416541 
L 290.257121 -97.729482 
L 290.571585 -98.042424 
L 290.880674 -98.355365 
L 291.184248 -98.668306 
L 291.482193 -98.981247 
L 291.774415 -99.294188 
L 292.06083 -99.607129 
L 292.341359 -99.920071 
L 292.615925 -100.233012 
L 292.884448 -100.545953 
L 293.146842 -100.858894 
L 293.403017 -101.171835 
L 293.652878 -101.484776 
L 293.896324 -101.797718 
L 294.133256 -102.110659 
L 294.363577 -102.4236 
L 294.5872 -102.736541 
L 294.804049 -103.049482 
L 295.014066 -103.362424 
L 295.21722 -103.675365 
L 295.413507 -103.988306 
L 295.60296 -104.301247 
L 295.785651 -104.614188 
L 295.961695 -104.927129 
L 296.131257 -105.240071 
L 296.294547 -105.553012 
L 296.451827 -105.865953 
L 296.603407 -106.178894 
L 296.749647 -106.491835 
L 296.890947 -106.804776 
L 297.027751 -107.117718 
L 297.160534 -107.430659 
L 297.289802 -107.7436 
L 297.416076 -108.056541 
L 297.539892 -108.369482 
L 297.661787 -108.682424 
L 297.782288 -108.995365 
L 297.901908 -109.308306 
L 298.021132 -109.621247 
L 298.140408 -109.934188 
L 298.260142 -110.247129 
L 298.380686 -110.560071 
L 298.502335 -110.873012 
L 306.528065 -110.873012 
L 306.528065 -110.873012 
L 306.649714 -110.560071 
L 306.770258 -110.247129 
L 306.889992 -109.934188 
L 307.009268 -109.621247 
L 307.128492 -109.308306 
L 307.248112 -108.995365 
L 307.368613 -108.682424 
L 307.490508 -108.369482 
L 307.614324 -108.056541 
L 307.740598 -107.7436 
L 307.869866 -107.430659 
L 308.002649 -107.117718 
L 308.139453 -106.804776 
L 308.280753 -106.491835 
L 308.426993 -106.178894 
L 308.578573 -105.865953 
L 308.735853 -105.553012 
L 308.899143 -105.240071 
L 309.068705 -104.927129 
L 309.244749 -104.614188 
L 309.42744 -104.301247 
L 309.616893 -103.988306 
L 309.81318 -103.675365 
L 310.016334 -103.362424 
L 310.226351 -103.049482 
L 310.4432 -102.736541 
L 310.666823 -102.4236 
L 310.897144 -102.110659 
L 311.134076 -101.797718 
L 311.377522 -101.484776 
L 311.627383 -101.171835 
L 311.883558 -100.858894 
L 312.145952 -100.545953 
L 312.414475 -100.233012 
L 312.689041 -99.920071 
L 312.96957 -99.607129 
L 313.255985 -99.294188 
L 313.548207 -98.981247 
L 313.846152 -98.668306 
L 314.149726 -98.355365 
L 314.458815 -98.042424 
L 314.773279 -97.729482 
L 315.092942 -97.416541 
L 315.417586 -97.1036 
L 315.746938 -96.790659 
L 316.080661 -96.477718 
L 316.418348 -96.164776 
L 316.759511 -95.851835 
L 317.103571 -95.538894 
L 317.449858 -95.225953 
L 317.7976 -94.913012 
L 318.145921 -94.600071 
L 318.49384 -94.287129 
L 318.840268 -93.974188 
L 319.184014 -93.661247 
L 319.523785 -93.348306 
L 319.858191 -93.035365 
L 320.185755 -92.722424 
L 320.504923 -92.409482 
L 320.81407 -92.096541 
L 321.111517 -91.7836 
L 321.395543 -91.470659 
L 321.664401 -91.157718 
L 321.916333 -90.844776 
L 322.149586 -90.531835 
L 322.362433 -90.218894 
L 322.553187 -89.905953 
L 322.720217 -89.593012 
L 322.861973 -89.280071 
L 322.976994 -88.967129 
L 323.063931 -88.654188 
L 323.121561 -88.341247 
L 323.1488 -88.028306 
L 323.144718 -87.715365 
L 323.108552 -87.402424 
L 323.039717 -87.089482 
L 322.937812 -86.776541 
L 322.802631 -86.4636 
L 322.634169 -86.150659 
L 322.432622 -85.837718 
L 322.198393 -85.524776 
L 321.932087 -85.211835 
L 321.634514 -84.898894 
L 321.306681 -84.585953 
L 320.949783 -84.273012 
L 320.565201 -83.960071 
L 320.154485 -83.647129 
L 319.719344 -83.334188 
L 319.261632 -83.021247 
L 318.783332 -82.708306 
L 318.286536 -82.395365 
L 317.773432 -82.082424 
L 317.246279 -81.769482 
L 316.707389 -81.456541 
L 316.159109 -81.1436 
L 315.603796 -80.830659 
L 315.043802 -80.517718 
L 314.481447 -80.204776 
L 313.919007 -79.891835 
z
" id="m4a48323894" style="stroke:#3c3c3c;stroke-width:1.5;"/>
    </defs>
    <g clip-path="url(#p595a7991cf)">
     <use style="fill:#335f97;stroke:#3c3c3c;stroke-width:1.5;" x="0" xlink:href="#m4a48323894" y="546.48"/>
    </g>
   </g>
   <g id="PolyCollection_4">
    <defs>
     <path d="M 426.80333 -79.565718 
L 378.21427 -79.565718 
L 377.396642 -83.426424 
L 377.067258 -87.287129 
L 377.237786 -91.147835 
L 377.889053 -95.008541 
L 378.973442 -98.869247 
L 380.420047 -102.729953 
L 382.141838 -106.590659 
L 384.043827 -110.451365 
L 386.031194 -114.312071 
L 388.016453 -118.172776 
L 389.924956 -122.033482 
L 391.698384 -125.894188 
L 393.296164 -129.754894 
L 394.695055 -133.6156 
L 395.887298 -137.476306 
L 396.877847 -141.337012 
L 397.681156 -145.197718 
L 398.317964 -149.058424 
L 398.812369 -152.919129 
L 399.189398 -156.779835 
L 399.473128 -160.640541 
L 399.685374 -164.501247 
L 399.844876 -168.361953 
L 399.96691 -172.222659 
L 400.063235 -176.083365 
L 400.142315 -179.944071 
L 400.209731 -183.804776 
L 400.268753 -187.665482 
L 400.320989 -191.526188 
L 400.367077 -195.386894 
L 400.407337 -199.2476 
L 400.44233 -203.108306 
L 400.47326 -206.969012 
L 400.50218 -210.829718 
L 400.531975 -214.690424 
L 400.566141 -218.551129 
L 400.608405 -222.411835 
L 400.662243 -226.272541 
L 400.730384 -230.133247 
L 400.814392 -233.993953 
L 400.914383 -237.854659 
L 401.028926 -241.715365 
L 401.155147 -245.576071 
L 401.289013 -249.436776 
L 401.425747 -253.297482 
L 401.560316 -257.158188 
L 401.687927 -261.018894 
L 401.804458 -264.8796 
L 401.906787 -268.740306 
L 401.992997 -272.601012 
L 402.062424 -276.461718 
L 402.115597 -280.322424 
L 402.15406 -284.183129 
L 402.180127 -288.043835 
L 402.196597 -291.904541 
L 402.206456 -295.765247 
L 402.212607 -299.625953 
L 402.217632 -303.486659 
L 402.22362 -307.347365 
L 402.232054 -311.208071 
L 402.243771 -315.068776 
L 402.258983 -318.929482 
L 402.277352 -322.790188 
L 402.298105 -326.650894 
L 402.320167 -330.5116 
L 402.342301 -334.372306 
L 402.363238 -338.233012 
L 402.381782 -342.093718 
L 402.396894 -345.954424 
L 402.407743 -349.815129 
L 402.413741 -353.675835 
L 402.414554 -357.536541 
L 402.41011 -361.397247 
L 402.400592 -365.257953 
L 402.38643 -369.118659 
L 402.368283 -372.979365 
L 402.347004 -376.840071 
L 402.32359 -380.700776 
L 402.29911 -384.561482 
L 402.274613 -388.422188 
L 402.251022 -392.282894 
L 402.22903 -396.1436 
L 402.209014 -400.004306 
L 402.19098 -403.865012 
L 402.174561 -407.725718 
L 402.15907 -411.586424 
L 402.143617 -415.447129 
L 402.127268 -419.307835 
L 402.109233 -423.168541 
L 402.089047 -427.029247 
L 402.066721 -430.889953 
L 402.042831 -434.750659 
L 402.018519 -438.611365 
L 401.995411 -442.472071 
L 401.97545 -446.332776 
L 401.960671 -450.193482 
L 401.95295 -454.054188 
L 401.953764 -457.914894 
L 401.963997 -461.7756 
L 403.053603 -461.7756 
L 403.053603 -461.7756 
L 403.063836 -457.914894 
L 403.06465 -454.054188 
L 403.056929 -450.193482 
L 403.04215 -446.332776 
L 403.022189 -442.472071 
L 402.999081 -438.611365 
L 402.974769 -434.750659 
L 402.950879 -430.889953 
L 402.928553 -427.029247 
L 402.908367 -423.168541 
L 402.890332 -419.307835 
L 402.873983 -415.447129 
L 402.85853 -411.586424 
L 402.843039 -407.725718 
L 402.82662 -403.865012 
L 402.808586 -400.004306 
L 402.78857 -396.1436 
L 402.766578 -392.282894 
L 402.742987 -388.422188 
L 402.71849 -384.561482 
L 402.69401 -380.700776 
L 402.670596 -376.840071 
L 402.649317 -372.979365 
L 402.63117 -369.118659 
L 402.617008 -365.257953 
L 402.60749 -361.397247 
L 402.603046 -357.536541 
L 402.603859 -353.675835 
L 402.609857 -349.815129 
L 402.620706 -345.954424 
L 402.635818 -342.093718 
L 402.654362 -338.233012 
L 402.675299 -334.372306 
L 402.697433 -330.5116 
L 402.719495 -326.650894 
L 402.740248 -322.790188 
L 402.758617 -318.929482 
L 402.773829 -315.068776 
L 402.785546 -311.208071 
L 402.79398 -307.347365 
L 402.799968 -303.486659 
L 402.804993 -299.625953 
L 402.811144 -295.765247 
L 402.821003 -291.904541 
L 402.837473 -288.043835 
L 402.86354 -284.183129 
L 402.902003 -280.322424 
L 402.955176 -276.461718 
L 403.024603 -272.601012 
L 403.110813 -268.740306 
L 403.213142 -264.8796 
L 403.329673 -261.018894 
L 403.457284 -257.158188 
L 403.591853 -253.297482 
L 403.728587 -249.436776 
L 403.862453 -245.576071 
L 403.988674 -241.715365 
L 404.103217 -237.854659 
L 404.203208 -233.993953 
L 404.287216 -230.133247 
L 404.355357 -226.272541 
L 404.409195 -222.411835 
L 404.451459 -218.551129 
L 404.485625 -214.690424 
L 404.51542 -210.829718 
L 404.54434 -206.969012 
L 404.57527 -203.108306 
L 404.610263 -199.2476 
L 404.650523 -195.386894 
L 404.696611 -191.526188 
L 404.748847 -187.665482 
L 404.807869 -183.804776 
L 404.875285 -179.944071 
L 404.954365 -176.083365 
L 405.05069 -172.222659 
L 405.172724 -168.361953 
L 405.332226 -164.501247 
L 405.544472 -160.640541 
L 405.828202 -156.779835 
L 406.205231 -152.919129 
L 406.699636 -149.058424 
L 407.336444 -145.197718 
L 408.139753 -141.337012 
L 409.130302 -137.476306 
L 410.322545 -133.6156 
L 411.721436 -129.754894 
L 413.319216 -125.894188 
L 415.092644 -122.033482 
L 417.001147 -118.172776 
L 418.986406 -114.312071 
L 420.973773 -110.451365 
L 422.875762 -106.590659 
L 424.597553 -102.729953 
L 426.044158 -98.869247 
L 427.128547 -95.008541 
L 427.779814 -91.147835 
L 427.950342 -87.287129 
L 427.620958 -83.426424 
L 426.80333 -79.565718 
z
" id="m7c7847b262" style="stroke:#3c3c3c;stroke-width:1.5;"/>
    </defs>
    <g clip-path="url(#p595a7991cf)">
     <use style="fill:#c8e2bb;stroke:#3c3c3c;stroke-width:1.5;" x="0" xlink:href="#m7c7847b262" y="546.48"/>
    </g>
   </g>
   <g id="PolyCollection_5">
    <defs>
     <path d="M 476.987721 -80.054894 
L 442.308279 -80.054894 
L 439.616969 -83.851365 
L 437.094029 -87.647835 
L 434.876875 -91.444306 
L 433.088757 -95.240776 
L 431.826347 -99.037247 
L 431.150058 -102.833718 
L 431.0784 -106.630188 
L 431.587136 -110.426659 
L 432.613293 -114.223129 
L 434.0634 -118.0196 
L 435.824699 -121.816071 
L 437.777635 -125.612541 
L 439.807829 -129.409012 
L 441.815928 -133.205482 
L 443.724201 -137.001953 
L 445.479399 -140.798424 
L 447.052064 -144.594894 
L 448.433058 -148.391365 
L 449.628421 -152.187835 
L 450.653773 -155.984306 
L 451.529324 -159.780776 
L 452.27621 -163.577247 
L 452.914413 -167.373718 
L 453.462109 -171.170188 
L 453.935965 -174.966659 
L 454.351778 -178.763129 
L 454.7249 -182.5596 
L 455.070106 -186.356071 
L 455.400862 -190.152541 
L 455.72817 -193.949012 
L 456.05939 -197.745482 
L 456.397417 -201.541953 
L 456.74052 -205.338424 
L 457.082933 -209.134894 
L 457.416103 -212.931365 
L 457.730299 -216.727835 
L 458.016272 -220.524306 
L 458.266628 -224.320776 
L 458.476746 -228.117247 
L 458.645138 -231.913718 
L 458.773326 -235.710188 
L 458.865345 -239.506659 
L 458.92702 -243.303129 
L 458.965163 -247.0996 
L 458.9868 -250.896071 
L 458.998507 -254.692541 
L 459.005902 -258.489012 
L 459.0133 -262.285482 
L 459.023541 -266.081953 
L 459.037971 -269.878424 
L 459.056576 -273.674894 
L 459.078256 -277.471365 
L 459.101216 -281.267835 
L 459.123457 -285.064306 
L 459.143271 -288.860776 
L 459.159649 -292.657247 
L 459.172502 -296.453718 
L 459.182624 -300.250188 
L 459.191392 -304.046659 
L 459.20028 -307.843129 
L 459.210343 -311.6396 
L 459.221833 -315.436071 
L 459.234084 -319.232541 
L 459.245723 -323.029012 
L 459.255142 -326.825482 
L 459.261099 -330.621953 
L 459.263248 -334.418424 
L 459.262434 -338.214894 
L 459.260645 -342.011365 
L 459.260628 -345.807835 
L 459.26528 -349.604306 
L 459.276979 -353.400776 
L 459.297043 -357.197247 
L 459.32544 -360.993718 
L 459.360832 -364.790188 
L 459.40088 -368.586659 
L 459.442739 -372.383129 
L 459.483581 -376.1796 
L 459.521029 -379.976071 
L 459.553421 -383.772541 
L 459.579882 -387.569012 
L 459.600217 -391.365482 
L 459.614698 -395.161953 
L 459.623813 -398.958424 
L 459.628025 -402.754894 
L 459.627597 -406.551365 
L 459.622502 -410.347835 
L 459.612439 -414.144306 
L 459.596936 -417.940776 
L 459.575549 -421.737247 
L 459.54812 -425.533718 
L 459.515035 -429.330188 
L 459.477451 -433.126659 
L 459.437395 -436.923129 
L 459.39769 -440.7196 
L 459.361692 -444.516071 
L 459.332848 -448.312541 
L 459.314163 -452.109012 
L 459.307692 -455.905482 
L 459.988308 -455.905482 
L 459.988308 -455.905482 
L 459.981837 -452.109012 
L 459.963152 -448.312541 
L 459.934308 -444.516071 
L 459.89831 -440.7196 
L 459.858605 -436.923129 
L 459.818549 -433.126659 
L 459.780965 -429.330188 
L 459.74788 -425.533718 
L 459.720451 -421.737247 
L 459.699064 -417.940776 
L 459.683561 -414.144306 
L 459.673498 -410.347835 
L 459.668403 -406.551365 
L 459.667975 -402.754894 
L 459.672187 -398.958424 
L 459.681302 -395.161953 
L 459.695783 -391.365482 
L 459.716118 -387.569012 
L 459.742579 -383.772541 
L 459.774971 -379.976071 
L 459.812419 -376.1796 
L 459.853261 -372.383129 
L 459.89512 -368.586659 
L 459.935168 -364.790188 
L 459.97056 -360.993718 
L 459.998957 -357.197247 
L 460.019021 -353.400776 
L 460.03072 -349.604306 
L 460.035372 -345.807835 
L 460.035355 -342.011365 
L 460.033566 -338.214894 
L 460.032752 -334.418424 
L 460.034901 -330.621953 
L 460.040858 -326.825482 
L 460.050277 -323.029012 
L 460.061916 -319.232541 
L 460.074167 -315.436071 
L 460.085657 -311.6396 
L 460.09572 -307.843129 
L 460.104608 -304.046659 
L 460.113376 -300.250188 
L 460.123498 -296.453718 
L 460.136351 -292.657247 
L 460.152729 -288.860776 
L 460.172543 -285.064306 
L 460.194784 -281.267835 
L 460.217744 -277.471365 
L 460.239424 -273.674894 
L 460.258029 -269.878424 
L 460.272459 -266.081953 
L 460.2827 -262.285482 
L 460.290098 -258.489012 
L 460.297493 -254.692541 
L 460.3092 -250.896071 
L 460.330837 -247.0996 
L 460.36898 -243.303129 
L 460.430655 -239.506659 
L 460.522674 -235.710188 
L 460.650862 -231.913718 
L 460.819254 -228.117247 
L 461.029372 -224.320776 
L 461.279728 -220.524306 
L 461.565701 -216.727835 
L 461.879897 -212.931365 
L 462.213067 -209.134894 
L 462.55548 -205.338424 
L 462.898583 -201.541953 
L 463.23661 -197.745482 
L 463.56783 -193.949012 
L 463.895138 -190.152541 
L 464.225894 -186.356071 
L 464.5711 -182.5596 
L 464.944222 -178.763129 
L 465.360035 -174.966659 
L 465.833891 -171.170188 
L 466.381587 -167.373718 
L 467.01979 -163.577247 
L 467.766676 -159.780776 
L 468.642227 -155.984306 
L 469.667579 -152.187835 
L 470.862942 -148.391365 
L 472.243936 -144.594894 
L 473.816601 -140.798424 
L 475.571799 -137.001953 
L 477.480072 -133.205482 
L 479.488171 -129.409012 
L 481.518365 -125.612541 
L 483.471301 -121.816071 
L 485.2326 -118.0196 
L 486.682707 -114.223129 
L 487.708864 -110.426659 
L 488.2176 -106.630188 
L 488.145942 -102.833718 
L 487.469653 -99.037247 
L 486.207243 -95.240776 
L 484.419125 -91.444306 
L 482.201971 -87.647835 
L 479.679031 -83.851365 
L 476.987721 -80.054894 
z
" id="m51ac49e607" style="stroke:#3c3c3c;stroke-width:1.5;"/>
    </defs>
    <g clip-path="url(#p595a7991cf)">
     <use style="fill:#51a9b3;stroke:#3c3c3c;stroke-width:1.5;" x="0" xlink:href="#m51ac49e607" y="546.48"/>
    </g>
   </g>
   <g id="PolyCollection_6">
    <defs>
     <path d="M 535.163698 -79.402659 
L 498.410702 -79.402659 
L 497.494026 -82.4316 
L 497.184701 -85.460541 
L 497.499983 -88.489482 
L 498.396599 -91.518424 
L 499.779604 -94.547365 
L 501.518707 -97.576306 
L 503.468221 -100.605247 
L 505.486436 -103.634188 
L 507.45102 -106.663129 
L 509.268484 -109.692071 
L 510.877428 -112.721012 
L 512.2466 -115.749953 
L 513.369529 -118.778894 
L 514.257685 -121.807835 
L 514.933713 -124.836776 
L 515.425792 -127.865718 
L 515.763554 -130.894659 
L 515.975553 -133.9236 
L 516.087998 -136.952541 
L 516.124335 -139.981482 
L 516.105265 -143.010424 
L 516.048908 -146.039365 
L 515.9709 -149.068306 
L 515.884387 -152.097247 
L 515.799971 -155.126188 
L 515.725711 -158.155129 
L 515.667261 -161.184071 
L 515.62818 -164.213012 
L 515.610354 -167.241953 
L 515.614398 -170.270894 
L 515.63994 -173.299835 
L 515.685703 -176.328776 
L 515.74943 -179.357718 
L 515.827766 -182.386659 
L 515.916251 -185.4156 
L 516.009557 -188.444541 
L 516.102 -191.473482 
L 516.18826 -194.502424 
L 516.264136 -197.531365 
L 516.32715 -200.560306 
L 516.376833 -203.589247 
L 516.414618 -206.618188 
L 516.443367 -209.647129 
L 516.466664 -212.676071 
L 516.488041 -215.705012 
L 516.510321 -218.733953 
L 516.5352 -221.762894 
L 516.563135 -224.791835 
L 516.5935 -227.820776 
L 516.624934 -230.849718 
L 516.655766 -233.878659 
L 516.684415 -236.9076 
L 516.709667 -239.936541 
L 516.730821 -242.965482 
L 516.747696 -245.994424 
L 516.760534 -249.023365 
L 516.769862 -252.052306 
L 516.776343 -255.081247 
L 516.780652 -258.110188 
L 516.783397 -261.139129 
L 516.785073 -264.168071 
L 516.786055 -267.197012 
L 516.786606 -270.225953 
L 516.786903 -273.254894 
L 516.787057 -276.283835 
L 516.787134 -279.312776 
L 516.787171 -282.341718 
L 516.787187 -285.370659 
L 516.787195 -288.3996 
L 516.787198 -291.428541 
L 516.787199 -294.457482 
L 516.787199 -297.486424 
L 516.787199 -300.515365 
L 516.787198 -303.544306 
L 516.787195 -306.573247 
L 516.787189 -309.602188 
L 516.787173 -312.631129 
L 516.78714 -315.660071 
L 516.787069 -318.689012 
L 516.786926 -321.717953 
L 516.78665 -324.746894 
L 516.786134 -327.775835 
L 516.785213 -330.804776 
L 516.783632 -333.833718 
L 516.781031 -336.862659 
L 516.77693 -339.8916 
L 516.770734 -342.920541 
L 516.76178 -345.949482 
L 516.749411 -348.978424 
L 516.733105 -352.007365 
L 516.712632 -355.036306 
L 516.68822 -358.065247 
L 516.660685 -361.094188 
L 516.631482 -364.123129 
L 516.602641 -367.152071 
L 516.576564 -370.181012 
L 516.555711 -373.209953 
L 516.54222 -376.238894 
L 516.537551 -379.267835 
L 517.036849 -379.267835 
L 517.036849 -379.267835 
L 517.03218 -376.238894 
L 517.018689 -373.209953 
L 516.997836 -370.181012 
L 516.971759 -367.152071 
L 516.942918 -364.123129 
L 516.913715 -361.094188 
L 516.88618 -358.065247 
L 516.861768 -355.036306 
L 516.841295 -352.007365 
L 516.824989 -348.978424 
L 516.81262 -345.949482 
L 516.803666 -342.920541 
L 516.79747 -339.8916 
L 516.793369 -336.862659 
L 516.790768 -333.833718 
L 516.789187 -330.804776 
L 516.788266 -327.775835 
L 516.78775 -324.746894 
L 516.787474 -321.717953 
L 516.787331 -318.689012 
L 516.78726 -315.660071 
L 516.787227 -312.631129 
L 516.787211 -309.602188 
L 516.787205 -306.573247 
L 516.787202 -303.544306 
L 516.787201 -300.515365 
L 516.787201 -297.486424 
L 516.787201 -294.457482 
L 516.787202 -291.428541 
L 516.787205 -288.3996 
L 516.787213 -285.370659 
L 516.787229 -282.341718 
L 516.787266 -279.312776 
L 516.787343 -276.283835 
L 516.787497 -273.254894 
L 516.787794 -270.225953 
L 516.788345 -267.197012 
L 516.789327 -264.168071 
L 516.791003 -261.139129 
L 516.793748 -258.110188 
L 516.798057 -255.081247 
L 516.804538 -252.052306 
L 516.813866 -249.023365 
L 516.826704 -245.994424 
L 516.843579 -242.965482 
L 516.864733 -239.936541 
L 516.889985 -236.9076 
L 516.918634 -233.878659 
L 516.949466 -230.849718 
L 516.9809 -227.820776 
L 517.011265 -224.791835 
L 517.0392 -221.762894 
L 517.064079 -218.733953 
L 517.086359 -215.705012 
L 517.107736 -212.676071 
L 517.131033 -209.647129 
L 517.159782 -206.618188 
L 517.197567 -203.589247 
L 517.24725 -200.560306 
L 517.310264 -197.531365 
L 517.38614 -194.502424 
L 517.4724 -191.473482 
L 517.564843 -188.444541 
L 517.658149 -185.4156 
L 517.746634 -182.386659 
L 517.82497 -179.357718 
L 517.888697 -176.328776 
L 517.93446 -173.299835 
L 517.960002 -170.270894 
L 517.964046 -167.241953 
L 517.94622 -164.213012 
L 517.907139 -161.184071 
L 517.848689 -158.155129 
L 517.774429 -155.126188 
L 517.690013 -152.097247 
L 517.6035 -149.068306 
L 517.525492 -146.039365 
L 517.469135 -143.010424 
L 517.450065 -139.981482 
L 517.486402 -136.952541 
L 517.598847 -133.9236 
L 517.810846 -130.894659 
L 518.148608 -127.865718 
L 518.640687 -124.836776 
L 519.316715 -121.807835 
L 520.204871 -118.778894 
L 521.3278 -115.749953 
L 522.696972 -112.721012 
L 524.305916 -109.692071 
L 526.12338 -106.663129 
L 528.087964 -103.634188 
L 530.106179 -100.605247 
L 532.055693 -97.576306 
L 533.794796 -94.547365 
L 535.177801 -91.518424 
L 536.074417 -88.489482 
L 536.389699 -85.460541 
L 536.080374 -82.4316 
L 535.163698 -79.402659 
z
" id="md7488bd33b" style="stroke:#3c3c3c;stroke-width:1.5;"/>
    </defs>
    <g clip-path="url(#p595a7991cf)">
     <use style="fill:#335f97;stroke:#3c3c3c;stroke-width:1.5;" x="0" xlink:href="#md7488bd33b" y="546.48"/>
    </g>
   </g>
   <g id="PolyCollection_7">
    <defs>
     <path d="M 627.242191 -79.2396 
L 606.319409 -79.2396 
L 605.355526 -80.876776 
L 604.497025 -82.513953 
L 603.768331 -84.151129 
L 603.186157 -85.788306 
L 602.758472 -87.425482 
L 602.484298 -89.062659 
L 602.354313 -90.699835 
L 602.352124 -92.337012 
L 602.456029 -93.974188 
L 602.641035 -95.611365 
L 602.88094 -97.248541 
L 603.150265 -98.885718 
L 603.425932 -100.522894 
L 603.688564 -102.160071 
L 603.923388 -103.797247 
L 604.120705 -105.434424 
L 604.275957 -107.0716 
L 604.389412 -108.708776 
L 604.465539 -110.345953 
L 604.512124 -111.983129 
L 604.539238 -113.620306 
L 604.55814 -115.257482 
L 604.580216 -116.894659 
L 604.616056 -118.531835 
L 604.674731 -120.169012 
L 604.763311 -121.806188 
L 604.886637 -123.443365 
L 605.047315 -125.080541 
L 605.245896 -126.717718 
L 605.481169 -128.354894 
L 605.750504 -129.992071 
L 606.050206 -131.629247 
L 606.375827 -133.266424 
L 606.722442 -134.9036 
L 607.084873 -136.540776 
L 607.457889 -138.177953 
L 607.836389 -139.815129 
L 608.215582 -141.452306 
L 608.591156 -143.089482 
L 608.959436 -144.726659 
L 609.317493 -146.363835 
L 609.663202 -148.001012 
L 609.995229 -149.638188 
L 610.312939 -151.275365 
L 610.61625 -152.912541 
L 610.90546 -154.549718 
L 611.181065 -156.186894 
L 611.443615 -157.824071 
L 611.693623 -159.461247 
L 611.931532 -161.098424 
L 612.157737 -162.7356 
L 612.372643 -164.372776 
L 612.576724 -166.009953 
L 612.770574 -167.647129 
L 612.95492 -169.284306 
L 613.130593 -170.921482 
L 613.298482 -172.558659 
L 613.459458 -174.195835 
L 613.614311 -175.833012 
L 613.763707 -177.470188 
L 613.908175 -179.107365 
L 614.04812 -180.744541 
L 614.183867 -182.381718 
L 614.315706 -184.018894 
L 614.443936 -185.656071 
L 614.568892 -187.293247 
L 614.690946 -188.930424 
L 614.810492 -190.5676 
L 614.92791 -192.204776 
L 615.043523 -193.841953 
L 615.157562 -195.479129 
L 615.270125 -197.116306 
L 615.381159 -198.753482 
L 615.490432 -200.390659 
L 615.597521 -202.027835 
L 615.701797 -203.665012 
L 615.802406 -205.302188 
L 615.898265 -206.939365 
L 615.988067 -208.576541 
L 616.070302 -210.213718 
L 616.143319 -211.850894 
L 616.205415 -213.488071 
L 616.254963 -215.125247 
L 616.290568 -216.762424 
L 616.311237 -218.3996 
L 616.316559 -220.036776 
L 616.306846 -221.673953 
L 616.283246 -223.311129 
L 616.247779 -224.948306 
L 616.203305 -226.585482 
L 616.15339 -228.222659 
L 616.102099 -229.859835 
L 616.053712 -231.497012 
L 616.012391 -233.134188 
L 615.981839 -234.771365 
L 615.964987 -236.408541 
L 615.963743 -238.045718 
L 615.978843 -239.682894 
L 616.00982 -241.320071 
L 617.55178 -241.320071 
L 617.55178 -241.320071 
L 617.582757 -239.682894 
L 617.597857 -238.045718 
L 617.596613 -236.408541 
L 617.579761 -234.771365 
L 617.549209 -233.134188 
L 617.507888 -231.497012 
L 617.459501 -229.859835 
L 617.40821 -228.222659 
L 617.358295 -226.585482 
L 617.313821 -224.948306 
L 617.278354 -223.311129 
L 617.254754 -221.673953 
L 617.245041 -220.036776 
L 617.250363 -218.3996 
L 617.271032 -216.762424 
L 617.306637 -215.125247 
L 617.356185 -213.488071 
L 617.418281 -211.850894 
L 617.491298 -210.213718 
L 617.573533 -208.576541 
L 617.663335 -206.939365 
L 617.759194 -205.302188 
L 617.859803 -203.665012 
L 617.964079 -202.027835 
L 618.071168 -200.390659 
L 618.180441 -198.753482 
L 618.291475 -197.116306 
L 618.404038 -195.479129 
L 618.518077 -193.841953 
L 618.63369 -192.204776 
L 618.751108 -190.5676 
L 618.870654 -188.930424 
L 618.992708 -187.293247 
L 619.117664 -185.656071 
L 619.245894 -184.018894 
L 619.377733 -182.381718 
L 619.51348 -180.744541 
L 619.653425 -179.107365 
L 619.797893 -177.470188 
L 619.947289 -175.833012 
L 620.102142 -174.195835 
L 620.263118 -172.558659 
L 620.431007 -170.921482 
L 620.60668 -169.284306 
L 620.791026 -167.647129 
L 620.984876 -166.009953 
L 621.188957 -164.372776 
L 621.403863 -162.7356 
L 621.630068 -161.098424 
L 621.867977 -159.461247 
L 622.117985 -157.824071 
L 622.380535 -156.186894 
L 622.65614 -154.549718 
L 622.94535 -152.912541 
L 623.248661 -151.275365 
L 623.566371 -149.638188 
L 623.898398 -148.001012 
L 624.244107 -146.363835 
L 624.602164 -144.726659 
L 624.970444 -143.089482 
L 625.346018 -141.452306 
L 625.725211 -139.815129 
L 626.103711 -138.177953 
L 626.476727 -136.540776 
L 626.839158 -134.9036 
L 627.185773 -133.266424 
L 627.511394 -131.629247 
L 627.811096 -129.992071 
L 628.080431 -128.354894 
L 628.315704 -126.717718 
L 628.514285 -125.080541 
L 628.674963 -123.443365 
L 628.798289 -121.806188 
L 628.886869 -120.169012 
L 628.945544 -118.531835 
L 628.981384 -116.894659 
L 629.00346 -115.257482 
L 629.022362 -113.620306 
L 629.049476 -111.983129 
L 629.096061 -110.345953 
L 629.172188 -108.708776 
L 629.285643 -107.0716 
L 629.440895 -105.434424 
L 629.638212 -103.797247 
L 629.873036 -102.160071 
L 630.135668 -100.522894 
L 630.411335 -98.885718 
L 630.68066 -97.248541 
L 630.920565 -95.611365 
L 631.105571 -93.974188 
L 631.209476 -92.337012 
L 631.207287 -90.699835 
L 631.077302 -89.062659 
L 630.803128 -87.425482 
L 630.375443 -85.788306 
L 629.793269 -84.151129 
L 629.064575 -82.513953 
L 628.206074 -80.876776 
L 627.242191 -79.2396 
z
" id="m504ea3ba9f" style="stroke:#3c3c3c;stroke-width:1.5;"/>
    </defs>
    <g clip-path="url(#p595a7991cf)">
     <use style="fill:#c8e2bb;stroke:#3c3c3c;stroke-width:1.5;" x="0" xlink:href="#m504ea3ba9f" y="546.48"/>
    </g>
   </g>
   <g id="PolyCollection_8">
    <defs>
     <path d="M 687.017965 -79.2396 
L 660.822035 -79.2396 
L 659.358611 -80.878424 
L 657.983574 -82.517247 
L 656.724633 -84.156071 
L 655.597749 -85.794894 
L 654.606171 -87.433718 
L 653.741138 -89.072541 
L 652.984096 -90.711365 
L 652.310015 -92.350188 
L 651.691302 -93.989012 
L 651.101674 -95.627835 
L 650.519508 -97.266659 
L 649.93026 -98.905482 
L 649.327758 -100.544306 
L 648.714366 -102.183129 
L 648.10014 -103.821953 
L 647.501215 -105.460776 
L 646.937698 -107.0996 
L 646.431354 -108.738424 
L 646.003315 -110.377247 
L 645.672018 -112.016071 
L 645.451538 -113.654894 
L 645.3504 -115.293718 
L 645.370934 -116.932541 
L 645.509194 -118.571365 
L 645.755392 -120.210188 
L 646.094784 -121.849012 
L 646.508884 -123.487835 
L 646.976887 -125.126659 
L 647.477132 -126.765482 
L 647.988513 -128.404306 
L 648.491691 -130.043129 
L 648.970077 -131.681953 
L 649.410528 -133.320776 
L 649.803779 -134.9596 
L 650.144624 -136.598424 
L 650.431889 -138.237247 
L 650.668223 -139.876071 
L 650.859745 -141.514894 
L 651.015544 -143.153718 
L 651.147059 -144.792541 
L 651.267334 -146.431365 
L 651.390193 -148.070188 
L 651.529342 -149.709012 
L 651.697478 -151.347835 
L 651.905467 -152.986659 
L 652.161639 -154.625482 
L 652.47128 -156.264306 
L 652.836364 -157.903129 
L 653.255529 -159.541953 
L 653.724327 -161.180776 
L 654.235709 -162.8196 
L 654.780727 -164.458424 
L 655.349389 -166.097247 
L 655.931601 -167.736071 
L 656.518115 -169.374894 
L 657.101353 -171.013718 
L 657.676036 -172.652541 
L 658.239494 -174.291365 
L 658.791621 -175.930188 
L 659.334449 -177.569012 
L 659.87142 -179.207835 
L 660.406447 -180.846659 
L 660.942941 -182.485482 
L 661.482955 -184.124306 
L 662.026613 -185.763129 
L 662.571901 -187.401953 
L 663.114862 -189.040776 
L 663.650135 -190.6796 
L 664.171715 -192.318424 
L 664.673798 -193.957247 
L 665.151529 -195.596071 
L 665.601527 -197.234894 
L 666.02212 -198.873718 
L 666.413261 -200.512541 
L 666.776192 -202.151365 
L 667.112953 -203.790188 
L 667.425864 -205.429012 
L 667.717097 -207.067835 
L 667.988432 -208.706659 
L 668.24122 -210.345482 
L 668.476551 -211.984306 
L 668.695549 -213.623129 
L 668.899711 -215.261953 
L 669.091189 -216.900776 
L 669.272937 -218.5396 
L 669.448683 -220.178424 
L 669.622715 -221.817247 
L 669.799531 -223.456071 
L 669.983404 -225.094894 
L 670.177937 -226.733718 
L 670.385678 -228.372541 
L 670.607843 -230.011365 
L 670.844181 -231.650188 
L 671.092978 -233.289012 
L 671.351206 -234.927835 
L 671.614778 -236.566659 
L 671.87889 -238.205482 
L 672.138405 -239.844306 
L 672.388251 -241.483129 
L 675.451749 -241.483129 
L 675.451749 -241.483129 
L 675.701595 -239.844306 
L 675.96111 -238.205482 
L 676.225222 -236.566659 
L 676.488794 -234.927835 
L 676.747022 -233.289012 
L 676.995819 -231.650188 
L 677.232157 -230.011365 
L 677.454322 -228.372541 
L 677.662063 -226.733718 
L 677.856596 -225.094894 
L 678.040469 -223.456071 
L 678.217285 -221.817247 
L 678.391317 -220.178424 
L 678.567063 -218.5396 
L 678.748811 -216.900776 
L 678.940289 -215.261953 
L 679.144451 -213.623129 
L 679.363449 -211.984306 
L 679.59878 -210.345482 
L 679.851568 -208.706659 
L 680.122903 -207.067835 
L 680.414136 -205.429012 
L 680.727047 -203.790188 
L 681.063808 -202.151365 
L 681.426739 -200.512541 
L 681.81788 -198.873718 
L 682.238473 -197.234894 
L 682.688471 -195.596071 
L 683.166202 -193.957247 
L 683.668285 -192.318424 
L 684.189865 -190.6796 
L 684.725138 -189.040776 
L 685.268099 -187.401953 
L 685.813387 -185.763129 
L 686.357045 -184.124306 
L 686.897059 -182.485482 
L 687.433553 -180.846659 
L 687.96858 -179.207835 
L 688.505551 -177.569012 
L 689.048379 -175.930188 
L 689.600506 -174.291365 
L 690.163964 -172.652541 
L 690.738647 -171.013718 
L 691.321885 -169.374894 
L 691.908399 -167.736071 
L 692.490611 -166.097247 
L 693.059273 -164.458424 
L 693.604291 -162.8196 
L 694.115673 -161.180776 
L 694.584471 -159.541953 
L 695.003636 -157.903129 
L 695.36872 -156.264306 
L 695.678361 -154.625482 
L 695.934533 -152.986659 
L 696.142522 -151.347835 
L 696.310658 -149.709012 
L 696.449807 -148.070188 
L 696.572666 -146.431365 
L 696.692941 -144.792541 
L 696.824456 -143.153718 
L 696.980255 -141.514894 
L 697.171777 -139.876071 
L 697.408111 -138.237247 
L 697.695376 -136.598424 
L 698.036221 -134.9596 
L 698.429472 -133.320776 
L 698.869923 -131.681953 
L 699.348309 -130.043129 
L 699.851487 -128.404306 
L 700.362868 -126.765482 
L 700.863113 -125.126659 
L 701.331116 -123.487835 
L 701.745216 -121.849012 
L 702.084608 -120.210188 
L 702.330806 -118.571365 
L 702.469066 -116.932541 
L 702.4896 -115.293718 
L 702.388462 -113.654894 
L 702.167982 -112.016071 
L 701.836685 -110.377247 
L 701.408646 -108.738424 
L 700.902302 -107.0996 
L 700.338785 -105.460776 
L 699.73986 -103.821953 
L 699.125634 -102.183129 
L 698.512242 -100.544306 
L 697.90974 -98.905482 
L 697.320492 -97.266659 
L 696.738326 -95.627835 
L 696.148698 -93.989012 
L 695.529985 -92.350188 
L 694.855904 -90.711365 
L 694.098862 -89.072541 
L 693.233829 -87.433718 
L 692.242251 -85.794894 
L 691.115367 -84.156071 
L 689.856426 -82.517247 
L 688.481389 -80.878424 
L 687.017965 -79.2396 
z
" id="m525832553b" style="stroke:#3c3c3c;stroke-width:1.5;"/>
    </defs>
    <g clip-path="url(#p595a7991cf)">
     <use style="fill:#51a9b3;stroke:#3c3c3c;stroke-width:1.5;" x="0" xlink:href="#m525832553b" y="546.48"/>
    </g>
   </g>
   <g id="PolyCollection_9">
    <defs>
     <path d="M 746.162044 -79.2396 
L 715.956356 -79.2396 
L 714.163638 -80.883365 
L 712.489124 -82.527129 
L 710.980795 -84.170894 
L 709.674525 -85.814659 
L 708.592246 -87.458424 
L 707.741874 -89.102188 
L 707.118788 -90.745953 
L 706.708389 -92.389718 
L 706.489195 -94.033482 
L 706.435904 -95.677247 
L 706.522059 -97.321012 
L 706.722061 -98.964776 
L 707.012498 -100.608541 
L 707.372881 -102.252306 
L 707.785902 -103.896071 
L 708.237416 -105.539835 
L 708.716244 -107.1836 
L 709.213915 -108.827365 
L 709.724394 -110.471129 
L 710.243836 -112.114894 
L 710.770357 -113.758659 
L 711.303805 -115.402424 
L 711.845496 -117.046188 
L 712.397857 -118.689953 
L 712.963941 -120.333718 
L 713.546817 -121.977482 
L 714.148854 -123.621247 
L 714.771005 -125.265012 
L 715.412195 -126.908776 
L 716.068937 -128.552541 
L 716.735274 -130.196306 
L 717.403051 -131.840071 
L 718.062515 -133.483835 
L 718.703108 -135.1276 
L 719.314362 -136.771365 
L 719.886756 -138.415129 
L 720.412446 -140.058894 
L 720.885833 -141.702659 
L 721.303951 -143.346424 
L 721.666685 -144.990188 
L 721.976835 -146.633953 
L 722.240009 -148.277718 
L 722.464324 -149.921482 
L 722.659877 -151.565247 
L 722.83798 -153.209012 
L 723.010181 -154.852776 
L 723.187169 -156.496541 
L 723.377682 -158.140306 
L 723.587594 -159.784071 
L 723.819328 -161.427835 
L 724.071711 -163.0716 
L 724.340309 -164.715365 
L 724.618184 -166.359129 
L 724.896952 -168.002894 
L 725.167963 -169.646659 
L 725.423413 -171.290424 
L 725.657226 -172.934188 
L 725.865609 -174.577953 
L 726.047234 -176.221718 
L 726.203115 -177.865482 
L 726.336232 -179.509247 
L 726.451041 -181.153012 
L 726.552954 -182.796776 
L 726.647867 -184.440541 
L 726.741768 -186.084306 
L 726.84042 -187.728071 
L 726.949086 -189.371835 
L 727.072275 -191.0156 
L 727.213479 -192.659365 
L 727.374918 -194.303129 
L 727.557302 -195.946894 
L 727.759683 -197.590659 
L 727.979422 -199.234424 
L 728.212312 -200.878188 
L 728.452864 -202.521953 
L 728.694726 -204.165718 
L 728.931187 -205.809482 
L 729.155703 -207.453247 
L 729.362371 -209.097012 
L 729.546314 -210.740776 
L 729.703937 -212.384541 
L 729.833063 -214.028306 
L 729.932953 -215.672071 
L 730.004253 -217.315835 
L 730.048884 -218.9596 
L 730.069902 -220.603365 
L 730.071324 -222.247129 
L 730.057935 -223.890894 
L 730.035045 -225.534659 
L 730.008219 -227.178424 
L 729.98295 -228.822188 
L 729.964326 -230.465953 
L 729.95669 -232.109718 
L 729.963344 -233.753482 
L 729.986329 -235.397247 
L 730.026307 -237.041012 
L 730.082574 -238.684776 
L 730.153185 -240.328541 
L 730.235201 -241.972306 
L 731.883199 -241.972306 
L 731.883199 -241.972306 
L 731.965215 -240.328541 
L 732.035826 -238.684776 
L 732.092093 -237.041012 
L 732.132071 -235.397247 
L 732.155056 -233.753482 
L 732.16171 -232.109718 
L 732.154074 -230.465953 
L 732.13545 -228.822188 
L 732.110181 -227.178424 
L 732.083355 -225.534659 
L 732.060465 -223.890894 
L 732.047076 -222.247129 
L 732.048498 -220.603365 
L 732.069516 -218.9596 
L 732.114147 -217.315835 
L 732.185447 -215.672071 
L 732.285337 -214.028306 
L 732.414463 -212.384541 
L 732.572086 -210.740776 
L 732.756029 -209.097012 
L 732.962697 -207.453247 
L 733.187213 -205.809482 
L 733.423674 -204.165718 
L 733.665536 -202.521953 
L 733.906088 -200.878188 
L 734.138978 -199.234424 
L 734.358717 -197.590659 
L 734.561098 -195.946894 
L 734.743482 -194.303129 
L 734.904921 -192.659365 
L 735.046125 -191.0156 
L 735.169314 -189.371835 
L 735.27798 -187.728071 
L 735.376632 -186.084306 
L 735.470533 -184.440541 
L 735.565446 -182.796776 
L 735.667359 -181.153012 
L 735.782168 -179.509247 
L 735.915285 -177.865482 
L 736.071166 -176.221718 
L 736.252791 -174.577953 
L 736.461174 -172.934188 
L 736.694987 -171.290424 
L 736.950437 -169.646659 
L 737.221448 -168.002894 
L 737.500216 -166.359129 
L 737.778091 -164.715365 
L 738.046689 -163.0716 
L 738.299072 -161.427835 
L 738.530806 -159.784071 
L 738.740718 -158.140306 
L 738.931231 -156.496541 
L 739.108219 -154.852776 
L 739.28042 -153.209012 
L 739.458523 -151.565247 
L 739.654076 -149.921482 
L 739.878391 -148.277718 
L 740.141565 -146.633953 
L 740.451715 -144.990188 
L 740.814449 -143.346424 
L 741.232567 -141.702659 
L 741.705954 -140.058894 
L 742.231644 -138.415129 
L 742.804038 -136.771365 
L 743.415292 -135.1276 
L 744.055885 -133.483835 
L 744.715349 -131.840071 
L 745.383126 -130.196306 
L 746.049463 -128.552541 
L 746.706205 -126.908776 
L 747.347395 -125.265012 
L 747.969546 -123.621247 
L 748.571583 -121.977482 
L 749.154459 -120.333718 
L 749.720543 -118.689953 
L 750.272904 -117.046188 
L 750.814595 -115.402424 
L 751.348043 -113.758659 
L 751.874564 -112.114894 
L 752.394006 -110.471129 
L 752.904485 -108.827365 
L 753.402156 -107.1836 
L 753.880984 -105.539835 
L 754.332498 -103.896071 
L 754.745519 -102.252306 
L 755.105902 -100.608541 
L 755.396339 -98.964776 
L 755.596341 -97.321012 
L 755.682496 -95.677247 
L 755.629205 -94.033482 
L 755.410011 -92.389718 
L 754.999612 -90.745953 
L 754.376526 -89.102188 
L 753.526154 -87.458424 
L 752.443875 -85.814659 
L 751.137605 -84.170894 
L 749.629276 -82.527129 
L 747.954762 -80.883365 
L 746.162044 -79.2396 
z
" id="m65b57e9fe7" style="stroke:#3c3c3c;stroke-width:1.5;"/>
    </defs>
    <g clip-path="url(#p595a7991cf)">
     <use style="fill:#335f97;stroke:#3c3c3c;stroke-width:1.5;" x="0" xlink:href="#m65b57e9fe7" y="546.48"/>
    </g>
   </g>
   <g id="PolyCollection_10">
    <defs>
     <path d="M 847.667483 -79.402659 
L 814.438117 -79.402659 
L 813.432144 -79.985718 
L 812.525758 -80.568776 
L 811.736506 -81.151835 
L 811.078899 -81.734894 
L 810.563832 -82.317953 
L 810.198182 -82.901012 
L 809.984589 -83.484071 
L 809.921439 -84.067129 
L 810.003047 -84.650188 
L 810.220012 -85.233247 
L 810.55973 -85.816306 
L 811.007017 -86.399365 
L 811.544817 -86.982424 
L 812.154939 -87.565482 
L 812.818776 -88.148541 
L 813.517997 -88.7316 
L 814.235142 -89.314659 
L 814.954126 -89.897718 
L 815.660624 -90.480776 
L 816.342331 -91.063835 
L 816.989106 -91.646894 
L 817.593003 -92.229953 
L 818.148206 -92.813012 
L 818.650896 -93.396071 
L 819.099054 -93.979129 
L 819.492244 -94.562188 
L 819.831379 -95.145247 
L 820.11849 -95.728306 
L 820.35652 -96.311365 
L 820.549138 -96.894424 
L 820.700592 -97.477482 
L 820.815576 -98.060541 
L 820.899138 -98.6436 
L 820.95659 -99.226659 
L 820.993437 -99.809718 
L 821.015294 -100.392776 
L 821.027811 -100.975835 
L 821.036565 -101.558894 
L 821.04696 -102.141953 
L 821.064091 -102.725012 
L 821.092614 -103.308071 
L 821.136606 -103.891129 
L 821.199429 -104.474188 
L 821.283613 -105.057247 
L 821.390756 -105.640306 
L 821.521466 -106.223365 
L 821.675337 -106.806424 
L 821.850969 -107.389482 
L 822.04604 -107.972541 
L 822.257421 -108.5556 
L 822.481333 -109.138659 
L 822.713544 -109.721718 
L 822.949587 -110.304776 
L 823.184994 -110.887835 
L 823.415537 -111.470894 
L 823.637448 -112.053953 
L 823.847624 -112.637012 
L 824.043787 -113.220071 
L 824.2246 -113.803129 
L 824.389724 -114.386188 
L 824.539814 -114.969247 
L 824.676461 -115.552306 
L 824.802067 -116.135365 
L 824.91968 -116.718424 
L 825.032782 -117.301482 
L 825.145059 -117.884541 
L 825.260166 -118.4676 
L 825.381487 -119.050659 
L 825.511937 -119.633718 
L 825.653789 -120.216776 
L 825.808553 -120.799835 
L 825.976911 -121.382894 
L 826.158709 -121.965953 
L 826.353001 -122.549012 
L 826.558142 -123.132071 
L 826.771925 -123.715129 
L 826.991733 -124.298188 
L 827.214719 -124.881247 
L 827.43797 -125.464306 
L 827.658676 -126.047365 
L 827.874265 -126.630424 
L 828.082513 -127.213482 
L 828.28162 -127.796541 
L 828.470258 -128.3796 
L 828.647573 -128.962659 
L 828.813169 -129.545718 
L 828.967065 -130.128776 
L 829.109631 -130.711835 
L 829.241516 -131.294894 
L 829.363573 -131.877953 
L 829.47678 -132.461012 
L 829.582171 -133.044071 
L 829.680774 -133.627129 
L 829.77356 -134.210188 
L 829.861402 -134.793247 
L 829.945049 -135.376306 
L 830.025113 -135.959365 
L 830.102056 -136.542424 
L 830.1762 -137.125482 
L 831.9294 -137.125482 
L 831.9294 -137.125482 
L 832.003544 -136.542424 
L 832.080487 -135.959365 
L 832.160551 -135.376306 
L 832.244198 -134.793247 
L 832.33204 -134.210188 
L 832.424826 -133.627129 
L 832.523429 -133.044071 
L 832.62882 -132.461012 
L 832.742027 -131.877953 
L 832.864084 -131.294894 
L 832.995969 -130.711835 
L 833.138535 -130.128776 
L 833.292431 -129.545718 
L 833.458027 -128.962659 
L 833.635342 -128.3796 
L 833.82398 -127.796541 
L 834.023087 -127.213482 
L 834.231335 -126.630424 
L 834.446924 -126.047365 
L 834.66763 -125.464306 
L 834.890881 -124.881247 
L 835.113867 -124.298188 
L 835.333675 -123.715129 
L 835.547458 -123.132071 
L 835.752599 -122.549012 
L 835.946891 -121.965953 
L 836.128689 -121.382894 
L 836.297047 -120.799835 
L 836.451811 -120.216776 
L 836.593663 -119.633718 
L 836.724113 -119.050659 
L 836.845434 -118.4676 
L 836.960541 -117.884541 
L 837.072818 -117.301482 
L 837.18592 -116.718424 
L 837.303533 -116.135365 
L 837.429139 -115.552306 
L 837.565786 -114.969247 
L 837.715876 -114.386188 
L 837.881 -113.803129 
L 838.061813 -113.220071 
L 838.257976 -112.637012 
L 838.468152 -112.053953 
L 838.690063 -111.470894 
L 838.920606 -110.887835 
L 839.156013 -110.304776 
L 839.392056 -109.721718 
L 839.624267 -109.138659 
L 839.848179 -108.5556 
L 840.05956 -107.972541 
L 840.254631 -107.389482 
L 840.430263 -106.806424 
L 840.584134 -106.223365 
L 840.714844 -105.640306 
L 840.821987 -105.057247 
L 840.906171 -104.474188 
L 840.968994 -103.891129 
L 841.012986 -103.308071 
L 841.041509 -102.725012 
L 841.05864 -102.141953 
L 841.069035 -101.558894 
L 841.077789 -100.975835 
L 841.090306 -100.392776 
L 841.112163 -99.809718 
L 841.14901 -99.226659 
L 841.206462 -98.6436 
L 841.290024 -98.060541 
L 841.405008 -97.477482 
L 841.556462 -96.894424 
L 841.74908 -96.311365 
L 841.98711 -95.728306 
L 842.274221 -95.145247 
L 842.613356 -94.562188 
L 843.006546 -93.979129 
L 843.454704 -93.396071 
L 843.957394 -92.813012 
L 844.512597 -92.229953 
L 845.116494 -91.646894 
L 845.763269 -91.063835 
L 846.444976 -90.480776 
L 847.151474 -89.897718 
L 847.870458 -89.314659 
L 848.587603 -88.7316 
L 849.286824 -88.148541 
L 849.950661 -87.565482 
L 850.560783 -86.982424 
L 851.098583 -86.399365 
L 851.54587 -85.816306 
L 851.885588 -85.233247 
L 852.102553 -84.650188 
L 852.184161 -84.067129 
L 852.121011 -83.484071 
L 851.907418 -82.901012 
L 851.541768 -82.317953 
L 851.026701 -81.734894 
L 850.369094 -81.151835 
L 849.579842 -80.568776 
L 848.673456 -79.985718 
L 847.667483 -79.402659 
z
" id="mbc625eaa35" style="stroke:#3c3c3c;stroke-width:1.5;"/>
    </defs>
    <g clip-path="url(#p595a7991cf)">
     <use style="fill:#c8e2bb;stroke:#3c3c3c;stroke-width:1.5;" x="0" xlink:href="#mbc625eaa35" y="546.48"/>
    </g>
   </g>
   <g id="PolyCollection_11">
    <defs>
     <path d="M 903.318139 -79.2396 
L 873.065861 -79.2396 
L 871.604474 -80.433718 
L 870.174285 -81.627835 
L 868.795192 -82.821953 
L 867.484747 -84.016071 
L 866.257778 -85.210188 
L 865.126271 -86.404306 
L 864.09951 -87.598424 
L 863.184367 -88.792541 
L 862.385697 -89.986659 
L 861.706718 -91.180776 
L 861.149308 -92.374894 
L 860.714156 -93.569012 
L 860.400729 -94.763129 
L 860.207087 -95.957247 
L 860.129553 -97.151365 
L 860.162352 -98.345482 
L 860.297275 -99.5396 
L 860.523476 -100.733718 
L 860.827485 -101.927835 
L 861.193485 -103.121953 
L 861.603885 -104.316071 
L 862.040171 -105.510188 
L 862.483978 -106.704306 
L 862.918302 -107.898424 
L 863.328728 -109.092541 
L 863.704552 -110.286659 
L 864.039675 -111.480776 
L 864.333156 -112.674894 
L 864.589346 -113.869012 
L 864.817561 -115.063129 
L 865.031314 -116.257247 
L 865.247151 -117.451365 
L 865.483192 -118.645482 
L 865.757525 -119.8396 
L 866.086593 -121.033718 
L 866.483747 -122.227835 
L 866.958093 -123.421953 
L 867.51376 -124.616071 
L 868.149639 -125.810188 
L 868.859617 -127.004306 
L 869.633246 -128.198424 
L 870.456773 -129.392541 
L 871.314382 -130.586659 
L 872.18951 -131.780776 
L 873.066091 -132.974894 
L 873.929591 -134.169012 
L 874.767747 -135.363129 
L 875.570963 -136.557247 
L 876.332367 -137.751365 
L 877.047571 -138.945482 
L 877.714223 -140.1396 
L 878.331445 -141.333718 
L 878.89928 -142.527835 
L 879.418208 -143.721953 
L 879.888828 -144.916071 
L 880.311719 -146.110188 
L 880.687476 -147.304306 
L 881.016889 -148.498424 
L 881.301211 -149.692541 
L 881.542432 -150.886659 
L 881.743513 -152.080776 
L 881.908504 -153.274894 
L 882.042544 -154.469012 
L 882.151703 -155.663129 
L 882.242716 -156.857247 
L 882.322618 -158.051365 
L 882.398347 -159.245482 
L 882.476354 -160.4396 
L 882.562266 -161.633718 
L 882.660636 -162.827835 
L 882.774799 -164.021953 
L 882.906829 -165.216071 
L 883.057587 -166.410188 
L 883.226844 -167.604306 
L 883.413439 -168.798424 
L 883.615464 -169.992541 
L 883.830439 -171.186659 
L 884.055475 -172.380776 
L 884.287417 -173.574894 
L 884.522964 -174.769012 
L 884.758778 -175.963129 
L 884.991588 -177.157247 
L 885.218285 -178.351365 
L 885.436034 -179.545482 
L 885.642377 -180.7396 
L 885.835333 -181.933718 
L 886.013492 -183.127835 
L 886.176071 -184.321953 
L 886.322952 -185.516071 
L 886.45467 -186.710188 
L 886.572353 -187.904306 
L 886.677628 -189.098424 
L 886.772484 -190.292541 
L 886.859112 -191.486659 
L 886.939737 -192.680776 
L 887.016448 -193.874894 
L 887.091057 -195.069012 
L 887.164986 -196.263129 
L 887.239194 -197.457247 
L 889.144806 -197.457247 
L 889.144806 -197.457247 
L 889.219014 -196.263129 
L 889.292943 -195.069012 
L 889.367552 -193.874894 
L 889.444263 -192.680776 
L 889.524888 -191.486659 
L 889.611516 -190.292541 
L 889.706372 -189.098424 
L 889.811647 -187.904306 
L 889.92933 -186.710188 
L 890.061048 -185.516071 
L 890.207929 -184.321953 
L 890.370508 -183.127835 
L 890.548667 -181.933718 
L 890.741623 -180.7396 
L 890.947966 -179.545482 
L 891.165715 -178.351365 
L 891.392412 -177.157247 
L 891.625222 -175.963129 
L 891.861036 -174.769012 
L 892.096583 -173.574894 
L 892.328525 -172.380776 
L 892.553561 -171.186659 
L 892.768536 -169.992541 
L 892.970561 -168.798424 
L 893.157156 -167.604306 
L 893.326413 -166.410188 
L 893.477171 -165.216071 
L 893.609201 -164.021953 
L 893.723364 -162.827835 
L 893.821734 -161.633718 
L 893.907646 -160.4396 
L 893.985653 -159.245482 
L 894.061382 -158.051365 
L 894.141284 -156.857247 
L 894.232297 -155.663129 
L 894.341456 -154.469012 
L 894.475496 -153.274894 
L 894.640487 -152.080776 
L 894.841568 -150.886659 
L 895.082789 -149.692541 
L 895.367111 -148.498424 
L 895.696524 -147.304306 
L 896.072281 -146.110188 
L 896.495172 -144.916071 
L 896.965792 -143.721953 
L 897.48472 -142.527835 
L 898.052555 -141.333718 
L 898.669777 -140.1396 
L 899.336429 -138.945482 
L 900.051633 -137.751365 
L 900.813037 -136.557247 
L 901.616253 -135.363129 
L 902.454409 -134.169012 
L 903.317909 -132.974894 
L 904.19449 -131.780776 
L 905.069618 -130.586659 
L 905.927227 -129.392541 
L 906.750754 -128.198424 
L 907.524383 -127.004306 
L 908.234361 -125.810188 
L 908.87024 -124.616071 
L 909.425907 -123.421953 
L 909.900253 -122.227835 
L 910.297407 -121.033718 
L 910.626475 -119.8396 
L 910.900808 -118.645482 
L 911.136849 -117.451365 
L 911.352686 -116.257247 
L 911.566439 -115.063129 
L 911.794654 -113.869012 
L 912.050844 -112.674894 
L 912.344325 -111.480776 
L 912.679448 -110.286659 
L 913.055272 -109.092541 
L 913.465698 -107.898424 
L 913.900022 -106.704306 
L 914.343829 -105.510188 
L 914.780115 -104.316071 
L 915.190515 -103.121953 
L 915.556515 -101.927835 
L 915.860524 -100.733718 
L 916.086725 -99.5396 
L 916.221648 -98.345482 
L 916.254447 -97.151365 
L 916.176913 -95.957247 
L 915.983271 -94.763129 
L 915.669844 -93.569012 
L 915.234692 -92.374894 
L 914.677282 -91.180776 
L 913.998303 -89.986659 
L 913.199633 -88.792541 
L 912.28449 -87.598424 
L 911.257729 -86.404306 
L 910.126222 -85.210188 
L 908.899253 -84.016071 
L 907.588808 -82.821953 
L 906.209715 -81.627835 
L 904.779526 -80.433718 
L 903.318139 -79.2396 
z
" id="m54abc33ea0" style="stroke:#3c3c3c;stroke-width:1.5;"/>
    </defs>
    <g clip-path="url(#p595a7991cf)">
     <use style="fill:#51a9b3;stroke:#3c3c3c;stroke-width:1.5;" x="0" xlink:href="#m54abc33ea0" y="546.48"/>
    </g>
   </g>
   <g id="PolyCollection_12">
    <defs>
     <path d="M 966.552152 -79.565718 
L 924.110248 -79.565718 
L 922.373175 -80.588541 
L 920.812799 -81.611365 
L 919.470697 -82.634188 
L 918.379211 -83.657012 
L 917.559652 -84.679835 
L 917.021347 -85.702659 
L 916.7616 -86.725482 
L 916.766517 -87.748306 
L 917.012588 -88.771129 
L 917.468819 -89.793953 
L 918.099197 -90.816776 
L 918.865248 -91.8396 
L 919.728462 -92.862424 
L 920.65242 -93.885247 
L 921.604486 -94.908071 
L 922.556993 -95.930894 
L 923.487924 -96.953718 
L 924.381097 -97.976541 
L 925.225925 -98.999365 
L 926.016842 -100.022188 
L 926.752478 -101.045012 
L 927.434697 -102.067835 
L 928.067578 -103.090659 
L 928.656453 -104.113482 
L 929.207053 -105.136306 
L 929.724841 -106.159129 
L 930.214557 -107.181953 
L 930.68001 -108.204776 
L 931.124077 -109.2276 
L 931.548903 -110.250424 
L 931.956221 -111.273247 
L 932.347738 -112.296071 
L 932.725494 -113.318894 
L 933.092141 -114.341718 
L 933.451079 -115.364541 
L 933.806414 -116.387365 
L 934.162746 -117.410188 
L 934.524809 -118.433012 
L 934.897013 -119.455835 
L 935.282949 -120.478659 
L 935.684935 -121.501482 
L 936.103663 -122.524306 
L 936.537993 -123.547129 
L 936.984926 -124.569953 
L 937.439756 -125.592776 
L 937.896382 -126.6156 
L 938.347738 -127.638424 
L 938.786288 -128.661247 
L 939.204539 -129.684071 
L 939.595522 -130.706894 
L 939.953196 -131.729718 
L 940.272753 -132.752541 
L 940.550821 -133.775365 
L 940.78556 -134.798188 
L 940.976667 -135.821012 
L 941.125318 -136.843835 
L 941.234048 -137.866659 
L 941.306612 -138.889482 
L 941.347816 -139.912306 
L 941.363343 -140.935129 
L 941.359564 -141.957953 
L 941.343336 -142.980776 
L 941.321781 -144.0036 
L 941.302047 -145.026424 
L 941.291038 -146.049247 
L 941.295142 -147.072071 
L 941.319947 -148.094894 
L 941.369971 -149.117718 
L 941.448428 -150.140541 
L 941.557053 -151.163365 
L 941.69599 -152.186188 
L 941.863784 -153.209012 
L 942.057463 -154.231835 
L 942.27271 -155.254659 
L 942.504133 -156.277482 
L 942.745589 -157.300306 
L 942.990557 -158.323129 
L 943.232522 -159.345953 
L 943.465343 -160.368776 
L 943.683576 -161.3916 
L 943.882744 -162.414424 
L 944.059511 -163.437247 
L 944.211789 -164.460071 
L 944.338745 -165.482894 
L 944.440735 -166.505718 
L 944.519177 -167.528541 
L 944.576362 -168.551365 
L 944.615249 -169.574188 
L 944.63923 -170.597012 
L 944.651907 -171.619835 
L 944.656884 -172.642659 
L 944.657578 -173.665482 
L 944.657069 -174.688306 
L 944.657988 -175.711129 
L 944.662438 -176.733953 
L 944.671952 -177.756776 
L 944.687491 -178.7796 
L 944.709463 -179.802424 
L 944.737779 -180.825247 
L 945.924621 -180.825247 
L 945.924621 -180.825247 
L 945.952937 -179.802424 
L 945.974909 -178.7796 
L 945.990448 -177.756776 
L 945.999962 -176.733953 
L 946.004412 -175.711129 
L 946.005331 -174.688306 
L 946.004822 -173.665482 
L 946.005516 -172.642659 
L 946.010493 -171.619835 
L 946.02317 -170.597012 
L 946.047151 -169.574188 
L 946.086038 -168.551365 
L 946.143223 -167.528541 
L 946.221665 -166.505718 
L 946.323655 -165.482894 
L 946.450611 -164.460071 
L 946.602889 -163.437247 
L 946.779656 -162.414424 
L 946.978824 -161.3916 
L 947.197057 -160.368776 
L 947.429878 -159.345953 
L 947.671843 -158.323129 
L 947.916811 -157.300306 
L 948.158267 -156.277482 
L 948.38969 -155.254659 
L 948.604937 -154.231835 
L 948.798616 -153.209012 
L 948.96641 -152.186188 
L 949.105347 -151.163365 
L 949.213972 -150.140541 
L 949.292429 -149.117718 
L 949.342453 -148.094894 
L 949.367258 -147.072071 
L 949.371362 -146.049247 
L 949.360353 -145.026424 
L 949.340619 -144.0036 
L 949.319064 -142.980776 
L 949.302836 -141.957953 
L 949.299057 -140.935129 
L 949.314584 -139.912306 
L 949.355788 -138.889482 
L 949.428352 -137.866659 
L 949.537082 -136.843835 
L 949.685733 -135.821012 
L 949.87684 -134.798188 
L 950.111579 -133.775365 
L 950.389647 -132.752541 
L 950.709204 -131.729718 
L 951.066878 -130.706894 
L 951.457861 -129.684071 
L 951.876112 -128.661247 
L 952.314662 -127.638424 
L 952.766018 -126.6156 
L 953.222644 -125.592776 
L 953.677474 -124.569953 
L 954.124407 -123.547129 
L 954.558737 -122.524306 
L 954.977465 -121.501482 
L 955.379451 -120.478659 
L 955.765387 -119.455835 
L 956.137591 -118.433012 
L 956.499654 -117.410188 
L 956.855986 -116.387365 
L 957.211321 -115.364541 
L 957.570259 -114.341718 
L 957.936906 -113.318894 
L 958.314662 -112.296071 
L 958.706179 -111.273247 
L 959.113497 -110.250424 
L 959.538323 -109.2276 
L 959.98239 -108.204776 
L 960.447843 -107.181953 
L 960.937559 -106.159129 
L 961.455347 -105.136306 
L 962.005947 -104.113482 
L 962.594822 -103.090659 
L 963.227703 -102.067835 
L 963.909922 -101.045012 
L 964.645558 -100.022188 
L 965.436475 -98.999365 
L 966.281303 -97.976541 
L 967.174476 -96.953718 
L 968.105407 -95.930894 
L 969.057914 -94.908071 
L 970.00998 -93.885247 
L 970.933938 -92.862424 
L 971.797152 -91.8396 
L 972.563203 -90.816776 
L 973.193581 -89.793953 
L 973.649812 -88.771129 
L 973.895883 -87.748306 
L 973.9008 -86.725482 
L 973.641053 -85.702659 
L 973.102748 -84.679835 
L 972.283189 -83.657012 
L 971.191703 -82.634188 
L 969.849601 -81.611365 
L 968.289225 -80.588541 
L 966.552152 -79.565718 
z
" id="mbc0eed72d3" style="stroke:#3c3c3c;stroke-width:1.5;"/>
    </defs>
    <g clip-path="url(#p595a7991cf)">
     <use style="fill:#335f97;stroke:#3c3c3c;stroke-width:1.5;" x="0" xlink:href="#mbc0eed72d3" y="546.48"/>
    </g>
   </g>
   <g id="patch_3">
    <path clip-path="url(#p595a7991cf)" d="M 245.376 467.2404 
L 245.376 467.2404 
L 245.376 467.2404 
L 245.376 467.2404 
z
" style="fill:#c8e2bb;stroke:#3c3c3c;stroke-linejoin:miter;stroke-width:0.75;"/>
   </g>
   <g id="patch_4">
    <path clip-path="url(#p595a7991cf)" d="M 245.376 467.2404 
L 245.376 467.2404 
L 245.376 467.2404 
L 245.376 467.2404 
z
" style="fill:#51a9b3;stroke:#3c3c3c;stroke-linejoin:miter;stroke-width:0.75;"/>
   </g>
   <g id="patch_5">
    <path clip-path="url(#p595a7991cf)" d="M 245.376 467.2404 
L 245.376 467.2404 
L 245.376 467.2404 
L 245.376 467.2404 
z
" style="fill:#335f97;stroke:#3c3c3c;stroke-linejoin:miter;stroke-width:0.75;"/>
   </g>
   <g id="matplotlib.axis_1">
    <g id="xtick_1">
     <g id="line2d_1">
      <defs>
       <path d="M 0 0 
L 0 3.5 
" id="m7a85a7b9b1" style="stroke:#000000;stroke-width:0.8;"/>
      </defs>
      <g>
       <use style="stroke:#000000;stroke-width:0.8;" x="245.376" xlink:href="#m7a85a7b9b1" y="486.3672"/>
      </g>
     </g>
     <g id="text_1">
      <!-- ECG1 -->
      <g transform="translate(231.66975 500.965638)scale(0.1 -0.1)">
       <defs>
        <path d="M 628 4666 
L 3578 4666 
L 3578 4134 
L 1259 4134 
L 1259 2753 
L 3481 2753 
L 3481 2222 
L 1259 2222 
L 1259 531 
L 3634 531 
L 3634 0 
L 628 0 
L 628 4666 
z
" id="DejaVuSans-45" transform="scale(0.015625)"/>
        <path d="M 4122 4306 
L 4122 3641 
Q 3803 3938 3442 4084 
Q 3081 4231 2675 4231 
Q 1875 4231 1450 3742 
Q 1025 3253 1025 2328 
Q 1025 1406 1450 917 
Q 1875 428 2675 428 
Q 3081 428 3442 575 
Q 3803 722 4122 1019 
L 4122 359 
Q 3791 134 3420 21 
Q 3050 -91 2638 -91 
Q 1578 -91 968 557 
Q 359 1206 359 2328 
Q 359 3453 968 4101 
Q 1578 4750 2638 4750 
Q 3056 4750 3426 4639 
Q 3797 4528 4122 4306 
z
" id="DejaVuSans-43" transform="scale(0.015625)"/>
        <path d="M 3809 666 
L 3809 1919 
L 2778 1919 
L 2778 2438 
L 4434 2438 
L 4434 434 
Q 4069 175 3628 42 
Q 3188 -91 2688 -91 
Q 1594 -91 976 548 
Q 359 1188 359 2328 
Q 359 3472 976 4111 
Q 1594 4750 2688 4750 
Q 3144 4750 3555 4637 
Q 3966 4525 4313 4306 
L 4313 3634 
Q 3963 3931 3569 4081 
Q 3175 4231 2741 4231 
Q 1884 4231 1454 3753 
Q 1025 3275 1025 2328 
Q 1025 1384 1454 906 
Q 1884 428 2741 428 
Q 3075 428 3337 486 
Q 3600 544 3809 666 
z
" id="DejaVuSans-47" transform="scale(0.015625)"/>
        <path d="M 794 531 
L 1825 531 
L 1825 4091 
L 703 3866 
L 703 4441 
L 1819 4666 
L 2450 4666 
L 2450 531 
L 3481 531 
L 3481 0 
L 794 0 
L 794 531 
z
" id="DejaVuSans-31" transform="scale(0.015625)"/>
       </defs>
       <use xlink:href="#DejaVuSans-45"/>
       <use x="63.183594" xlink:href="#DejaVuSans-43"/>
       <use x="133.007812" xlink:href="#DejaVuSans-47"/>
       <use x="210.498047" xlink:href="#DejaVuSans-31"/>
      </g>
     </g>
    </g>
    <g id="xtick_2">
     <g id="line2d_2">
      <g>
       <use style="stroke:#000000;stroke-width:0.8;" x="459.648" xlink:href="#m7a85a7b9b1" y="486.3672"/>
      </g>
     </g>
     <g id="text_2">
      <!-- ECG2 -->
      <g transform="translate(445.94175 500.965638)scale(0.1 -0.1)">
       <defs>
        <path d="M 1228 531 
L 3431 531 
L 3431 0 
L 469 0 
L 469 531 
Q 828 903 1448 1529 
Q 2069 2156 2228 2338 
Q 2531 2678 2651 2914 
Q 2772 3150 2772 3378 
Q 2772 3750 2511 3984 
Q 2250 4219 1831 4219 
Q 1534 4219 1204 4116 
Q 875 4013 500 3803 
L 500 4441 
Q 881 4594 1212 4672 
Q 1544 4750 1819 4750 
Q 2544 4750 2975 4387 
Q 3406 4025 3406 3419 
Q 3406 3131 3298 2873 
Q 3191 2616 2906 2266 
Q 2828 2175 2409 1742 
Q 1991 1309 1228 531 
z
" id="DejaVuSans-32" transform="scale(0.015625)"/>
       </defs>
       <use xlink:href="#DejaVuSans-45"/>
       <use x="63.183594" xlink:href="#DejaVuSans-43"/>
       <use x="133.007812" xlink:href="#DejaVuSans-47"/>
       <use x="210.498047" xlink:href="#DejaVuSans-32"/>
      </g>
     </g>
    </g>
    <g id="xtick_3">
     <g id="line2d_3">
      <g>
       <use style="stroke:#000000;stroke-width:0.8;" x="673.92" xlink:href="#m7a85a7b9b1" y="486.3672"/>
      </g>
     </g>
     <g id="text_3">
      <!-- EMG -->
      <g transform="translate(662.572344 500.965638)scale(0.1 -0.1)">
       <defs>
        <path d="M 628 4666 
L 1569 4666 
L 2759 1491 
L 3956 4666 
L 4897 4666 
L 4897 0 
L 4281 0 
L 4281 4097 
L 3078 897 
L 2444 897 
L 1241 4097 
L 1241 0 
L 628 0 
L 628 4666 
z
" id="DejaVuSans-4d" transform="scale(0.015625)"/>
       </defs>
       <use xlink:href="#DejaVuSans-45"/>
       <use x="63.183594" xlink:href="#DejaVuSans-4d"/>
       <use x="149.462891" xlink:href="#DejaVuSans-47"/>
      </g>
     </g>
    </g>
    <g id="xtick_4">
     <g id="line2d_4">
      <g>
       <use style="stroke:#000000;stroke-width:0.8;" x="888.192" xlink:href="#m7a85a7b9b1" y="486.3672"/>
      </g>
     </g>
     <g id="text_4">
      <!-- HAR -->
      <g transform="translate(877.537312 500.965638)scale(0.1 -0.1)">
       <defs>
        <path d="M 628 4666 
L 1259 4666 
L 1259 2753 
L 3553 2753 
L 3553 4666 
L 4184 4666 
L 4184 0 
L 3553 0 
L 3553 2222 
L 1259 2222 
L 1259 0 
L 628 0 
L 628 4666 
z
" id="DejaVuSans-48" transform="scale(0.015625)"/>
        <path d="M 2188 4044 
L 1331 1722 
L 3047 1722 
L 2188 4044 
z
M 1831 4666 
L 2547 4666 
L 4325 0 
L 3669 0 
L 3244 1197 
L 1141 1197 
L 716 0 
L 50 0 
L 1831 4666 
z
" id="DejaVuSans-41" transform="scale(0.015625)"/>
        <path d="M 2841 2188 
Q 3044 2119 3236 1894 
Q 3428 1669 3622 1275 
L 4263 0 
L 3584 0 
L 2988 1197 
Q 2756 1666 2539 1819 
Q 2322 1972 1947 1972 
L 1259 1972 
L 1259 0 
L 628 0 
L 628 4666 
L 2053 4666 
Q 2853 4666 3247 4331 
Q 3641 3997 3641 3322 
Q 3641 2881 3436 2590 
Q 3231 2300 2841 2188 
z
M 1259 4147 
L 1259 2491 
L 2053 2491 
Q 2509 2491 2742 2702 
Q 2975 2913 2975 3322 
Q 2975 3731 2742 3939 
Q 2509 4147 2053 4147 
L 1259 4147 
z
" id="DejaVuSans-52" transform="scale(0.015625)"/>
       </defs>
       <use xlink:href="#DejaVuSans-48"/>
       <use x="75.195312" xlink:href="#DejaVuSans-41"/>
       <use x="143.603516" xlink:href="#DejaVuSans-52"/>
      </g>
     </g>
    </g>
    <g id="text_5">
     <!-- dataset -->
     <g transform="translate(547.880094 514.643762)scale(0.1 -0.1)">
      <defs>
       <path d="M 2906 2969 
L 2906 4863 
L 3481 4863 
L 3481 0 
L 2906 0 
L 2906 525 
Q 2725 213 2448 61 
Q 2172 -91 1784 -91 
Q 1150 -91 751 415 
Q 353 922 353 1747 
Q 353 2572 751 3078 
Q 1150 3584 1784 3584 
Q 2172 3584 2448 3432 
Q 2725 3281 2906 2969 
z
M 947 1747 
Q 947 1113 1208 752 
Q 1469 391 1925 391 
Q 2381 391 2643 752 
Q 2906 1113 2906 1747 
Q 2906 2381 2643 2742 
Q 2381 3103 1925 3103 
Q 1469 3103 1208 2742 
Q 947 2381 947 1747 
z
" id="DejaVuSans-64" transform="scale(0.015625)"/>
       <path d="M 2194 1759 
Q 1497 1759 1228 1600 
Q 959 1441 959 1056 
Q 959 750 1161 570 
Q 1363 391 1709 391 
Q 2188 391 2477 730 
Q 2766 1069 2766 1631 
L 2766 1759 
L 2194 1759 
z
M 3341 1997 
L 3341 0 
L 2766 0 
L 2766 531 
Q 2569 213 2275 61 
Q 1981 -91 1556 -91 
Q 1019 -91 701 211 
Q 384 513 384 1019 
Q 384 1609 779 1909 
Q 1175 2209 1959 2209 
L 2766 2209 
L 2766 2266 
Q 2766 2663 2505 2880 
Q 2244 3097 1772 3097 
Q 1472 3097 1187 3025 
Q 903 2953 641 2809 
L 641 3341 
Q 956 3463 1253 3523 
Q 1550 3584 1831 3584 
Q 2591 3584 2966 3190 
Q 3341 2797 3341 1997 
z
" id="DejaVuSans-61" transform="scale(0.015625)"/>
       <path d="M 1172 4494 
L 1172 3500 
L 2356 3500 
L 2356 3053 
L 1172 3053 
L 1172 1153 
Q 1172 725 1289 603 
Q 1406 481 1766 481 
L 2356 481 
L 2356 0 
L 1766 0 
Q 1100 0 847 248 
Q 594 497 594 1153 
L 594 3053 
L 172 3053 
L 172 3500 
L 594 3500 
L 594 4494 
L 1172 4494 
z
" id="DejaVuSans-74" transform="scale(0.015625)"/>
       <path d="M 2834 3397 
L 2834 2853 
Q 2591 2978 2328 3040 
Q 2066 3103 1784 3103 
Q 1356 3103 1142 2972 
Q 928 2841 928 2578 
Q 928 2378 1081 2264 
Q 1234 2150 1697 2047 
L 1894 2003 
Q 2506 1872 2764 1633 
Q 3022 1394 3022 966 
Q 3022 478 2636 193 
Q 2250 -91 1575 -91 
Q 1294 -91 989 -36 
Q 684 19 347 128 
L 347 722 
Q 666 556 975 473 
Q 1284 391 1588 391 
Q 1994 391 2212 530 
Q 2431 669 2431 922 
Q 2431 1156 2273 1281 
Q 2116 1406 1581 1522 
L 1381 1569 
Q 847 1681 609 1914 
Q 372 2147 372 2553 
Q 372 3047 722 3315 
Q 1072 3584 1716 3584 
Q 2034 3584 2315 3537 
Q 2597 3491 2834 3397 
z
" id="DejaVuSans-73" transform="scale(0.015625)"/>
       <path d="M 3597 1894 
L 3597 1613 
L 953 1613 
Q 991 1019 1311 708 
Q 1631 397 2203 397 
Q 2534 397 2845 478 
Q 3156 559 3463 722 
L 3463 178 
Q 3153 47 2828 -22 
Q 2503 -91 2169 -91 
Q 1331 -91 842 396 
Q 353 884 353 1716 
Q 353 2575 817 3079 
Q 1281 3584 2069 3584 
Q 2775 3584 3186 3129 
Q 3597 2675 3597 1894 
z
M 3022 2063 
Q 3016 2534 2758 2815 
Q 2500 3097 2075 3097 
Q 1594 3097 1305 2825 
Q 1016 2553 972 2059 
L 3022 2063 
z
" id="DejaVuSans-65" transform="scale(0.015625)"/>
      </defs>
      <use xlink:href="#DejaVuSans-64"/>
      <use x="63.476562" xlink:href="#DejaVuSans-61"/>
      <use x="124.755859" xlink:href="#DejaVuSans-74"/>
      <use x="163.964844" xlink:href="#DejaVuSans-61"/>
      <use x="225.244141" xlink:href="#DejaVuSans-73"/>
      <use x="277.34375" xlink:href="#DejaVuSans-65"/>
      <use x="338.867188" xlink:href="#DejaVuSans-74"/>
     </g>
    </g>
   </g>
   <g id="matplotlib.axis_2">
    <g id="ytick_1">
     <g id="line2d_5">
      <defs>
       <path d="M 0 0 
L -3.5 0 
" id="m9932cfd221" style="stroke:#000000;stroke-width:0.8;"/>
      </defs>
      <g>
       <use style="stroke:#000000;stroke-width:0.8;" x="138.24" xlink:href="#m9932cfd221" y="467.2404"/>
      </g>
     </g>
     <g id="text_6">
      <!-- 0 -->
      <g transform="translate(124.8775 471.039619)scale(0.1 -0.1)">
       <defs>
        <path d="M 2034 4250 
Q 1547 4250 1301 3770 
Q 1056 3291 1056 2328 
Q 1056 1369 1301 889 
Q 1547 409 2034 409 
Q 2525 409 2770 889 
Q 3016 1369 3016 2328 
Q 3016 3291 2770 3770 
Q 2525 4250 2034 4250 
z
M 2034 4750 
Q 2819 4750 3233 4129 
Q 3647 3509 3647 2328 
Q 3647 1150 3233 529 
Q 2819 -91 2034 -91 
Q 1250 -91 836 529 
Q 422 1150 422 2328 
Q 422 3509 836 4129 
Q 1250 4750 2034 4750 
z
" id="DejaVuSans-30" transform="scale(0.015625)"/>
       </defs>
       <use xlink:href="#DejaVuSans-30"/>
      </g>
     </g>
    </g>
    <g id="ytick_2">
     <g id="line2d_6">
      <g>
       <use style="stroke:#000000;stroke-width:0.8;" x="138.24" xlink:href="#m9932cfd221" y="385.710988"/>
      </g>
     </g>
     <g id="text_7">
      <!-- 500 -->
      <g transform="translate(112.1525 389.510207)scale(0.1 -0.1)">
       <defs>
        <path d="M 691 4666 
L 3169 4666 
L 3169 4134 
L 1269 4134 
L 1269 2991 
Q 1406 3038 1543 3061 
Q 1681 3084 1819 3084 
Q 2600 3084 3056 2656 
Q 3513 2228 3513 1497 
Q 3513 744 3044 326 
Q 2575 -91 1722 -91 
Q 1428 -91 1123 -41 
Q 819 9 494 109 
L 494 744 
Q 775 591 1075 516 
Q 1375 441 1709 441 
Q 2250 441 2565 725 
Q 2881 1009 2881 1497 
Q 2881 1984 2565 2268 
Q 2250 2553 1709 2553 
Q 1456 2553 1204 2497 
Q 953 2441 691 2322 
L 691 4666 
z
" id="DejaVuSans-35" transform="scale(0.015625)"/>
       </defs>
       <use xlink:href="#DejaVuSans-35"/>
       <use x="63.623047" xlink:href="#DejaVuSans-30"/>
       <use x="127.246094" xlink:href="#DejaVuSans-30"/>
      </g>
     </g>
    </g>
    <g id="ytick_3">
     <g id="line2d_7">
      <g>
       <use style="stroke:#000000;stroke-width:0.8;" x="138.24" xlink:href="#m9932cfd221" y="304.181576"/>
      </g>
     </g>
     <g id="text_8">
      <!-- 1000 -->
      <g transform="translate(105.79 307.980795)scale(0.1 -0.1)">
       <use xlink:href="#DejaVuSans-31"/>
       <use x="63.623047" xlink:href="#DejaVuSans-30"/>
       <use x="127.246094" xlink:href="#DejaVuSans-30"/>
       <use x="190.869141" xlink:href="#DejaVuSans-30"/>
      </g>
     </g>
    </g>
    <g id="ytick_4">
     <g id="line2d_8">
      <g>
       <use style="stroke:#000000;stroke-width:0.8;" x="138.24" xlink:href="#m9932cfd221" y="222.652165"/>
      </g>
     </g>
     <g id="text_9">
      <!-- 1500 -->
      <g transform="translate(105.79 226.451383)scale(0.1 -0.1)">
       <use xlink:href="#DejaVuSans-31"/>
       <use x="63.623047" xlink:href="#DejaVuSans-35"/>
       <use x="127.246094" xlink:href="#DejaVuSans-30"/>
       <use x="190.869141" xlink:href="#DejaVuSans-30"/>
      </g>
     </g>
    </g>
    <g id="ytick_5">
     <g id="line2d_9">
      <g>
       <use style="stroke:#000000;stroke-width:0.8;" x="138.24" xlink:href="#m9932cfd221" y="141.122753"/>
      </g>
     </g>
     <g id="text_10">
      <!-- 2000 -->
      <g transform="translate(105.79 144.921972)scale(0.1 -0.1)">
       <use xlink:href="#DejaVuSans-32"/>
       <use x="63.623047" xlink:href="#DejaVuSans-30"/>
       <use x="127.246094" xlink:href="#DejaVuSans-30"/>
       <use x="190.869141" xlink:href="#DejaVuSans-30"/>
      </g>
     </g>
    </g>
    <g id="text_11">
     <!-- error -->
     <g transform="translate(99.710313 288.074744)rotate(-90)scale(0.1 -0.1)">
      <defs>
       <path d="M 2631 2963 
Q 2534 3019 2420 3045 
Q 2306 3072 2169 3072 
Q 1681 3072 1420 2755 
Q 1159 2438 1159 1844 
L 1159 0 
L 581 0 
L 581 3500 
L 1159 3500 
L 1159 2956 
Q 1341 3275 1631 3429 
Q 1922 3584 2338 3584 
Q 2397 3584 2469 3576 
Q 2541 3569 2628 3553 
L 2631 2963 
z
" id="DejaVuSans-72" transform="scale(0.015625)"/>
       <path d="M 1959 3097 
Q 1497 3097 1228 2736 
Q 959 2375 959 1747 
Q 959 1119 1226 758 
Q 1494 397 1959 397 
Q 2419 397 2687 759 
Q 2956 1122 2956 1747 
Q 2956 2369 2687 2733 
Q 2419 3097 1959 3097 
z
M 1959 3584 
Q 2709 3584 3137 3096 
Q 3566 2609 3566 1747 
Q 3566 888 3137 398 
Q 2709 -91 1959 -91 
Q 1206 -91 779 398 
Q 353 888 353 1747 
Q 353 2609 779 3096 
Q 1206 3584 1959 3584 
z
" id="DejaVuSans-6f" transform="scale(0.015625)"/>
      </defs>
      <use xlink:href="#DejaVuSans-65"/>
      <use x="61.523438" xlink:href="#DejaVuSans-72"/>
      <use x="100.886719" xlink:href="#DejaVuSans-72"/>
      <use x="139.75" xlink:href="#DejaVuSans-6f"/>
      <use x="200.931641" xlink:href="#DejaVuSans-72"/>
     </g>
    </g>
   </g>
   <g id="line2d_10">
    <path clip-path="url(#p595a7991cf)" d="M 188.2368 466.914282 
L 188.2368 447.021106 
" style="fill:none;stroke:#3c3c3c;stroke-linecap:square;stroke-width:1.5;"/>
   </g>
   <g id="line2d_11">
    <path clip-path="url(#p595a7991cf)" d="M 188.2368 463.163929 
L 188.2368 455.174047 
" style="fill:none;stroke:#3c3c3c;stroke-linecap:square;stroke-width:4.5;"/>
   </g>
   <g id="line2d_12">
    <path clip-path="url(#p595a7991cf)" d="M 245.376 467.077341 
L 245.376 461.6964 
" style="fill:none;stroke:#3c3c3c;stroke-linecap:square;stroke-width:1.5;"/>
   </g>
   <g id="line2d_13">
    <path clip-path="url(#p595a7991cf)" d="M 245.376 466.139753 
L 245.376 463.734635 
" style="fill:none;stroke:#3c3c3c;stroke-linecap:square;stroke-width:4.5;"/>
   </g>
   <g id="line2d_14">
    <path clip-path="url(#p595a7991cf)" d="M 302.5152 466.588165 
L 302.5152 435.606988 
" style="fill:none;stroke:#3c3c3c;stroke-linecap:square;stroke-width:1.5;"/>
   </g>
   <g id="line2d_15">
    <path clip-path="url(#p595a7991cf)" d="M 302.5152 461.207224 
L 302.5152 449.303929 
" style="fill:none;stroke:#3c3c3c;stroke-linecap:square;stroke-width:4.5;"/>
   </g>
   <g id="line2d_16">
    <path clip-path="url(#p595a7991cf)" d="M 402.5088 466.914282 
L 402.5088 421.583929 
" style="fill:none;stroke:#3c3c3c;stroke-linecap:square;stroke-width:1.5;"/>
   </g>
   <g id="line2d_17">
    <path clip-path="url(#p595a7991cf)" d="M 402.5088 463.734635 
L 402.5088 445.308988 
" style="fill:none;stroke:#3c3c3c;stroke-linecap:square;stroke-width:4.5;"/>
   </g>
   <g id="line2d_18">
    <path clip-path="url(#p595a7991cf)" d="M 459.648 466.425106 
L 459.648 362.882753 
" style="fill:none;stroke:#3c3c3c;stroke-linecap:square;stroke-width:1.5;"/>
   </g>
   <g id="line2d_19">
    <path clip-path="url(#p595a7991cf)" d="M 459.648 448.977812 
L 459.648 414.083224 
" style="fill:none;stroke:#3c3c3c;stroke-linecap:square;stroke-width:4.5;"/>
   </g>
   <g id="line2d_20">
    <path clip-path="url(#p595a7991cf)" d="M 516.7872 467.077341 
L 516.7872 437.237576 
" style="fill:none;stroke:#3c3c3c;stroke-linecap:square;stroke-width:1.5;"/>
   </g>
   <g id="line2d_21">
    <path clip-path="url(#p595a7991cf)" d="M 516.7872 464.631459 
L 516.7872 453.624988 
" style="fill:none;stroke:#3c3c3c;stroke-linecap:square;stroke-width:4.5;"/>
   </g>
   <g id="line2d_22">
    <path clip-path="url(#p595a7991cf)" d="M 616.7808 467.2404 
L 616.7808 337.445576 
" style="fill:none;stroke:#3c3c3c;stroke-linecap:square;stroke-width:1.5;"/>
   </g>
   <g id="line2d_23">
    <path clip-path="url(#p595a7991cf)" d="M 616.7808 454.929459 
L 616.7808 407.6424 
" style="fill:none;stroke:#3c3c3c;stroke-linecap:square;stroke-width:4.5;"/>
   </g>
   <g id="line2d_24">
    <path clip-path="url(#p595a7991cf)" d="M 673.92 467.2404 
L 673.92 304.996871 
" style="fill:none;stroke:#3c3c3c;stroke-linecap:square;stroke-width:1.5;"/>
   </g>
   <g id="line2d_25">
    <path clip-path="url(#p595a7991cf)" d="M 673.92 439.112753 
L 673.92 384.243459 
" style="fill:none;stroke:#3c3c3c;stroke-linecap:square;stroke-width:4.5;"/>
   </g>
   <g id="line2d_26">
    <path clip-path="url(#p595a7991cf)" d="M 731.0592 467.2404 
L 731.0592 341.032871 
" style="fill:none;stroke:#3c3c3c;stroke-linecap:square;stroke-width:1.5;"/>
   </g>
   <g id="line2d_27">
    <path clip-path="url(#p595a7991cf)" d="M 731.0592 452.483576 
L 731.0592 407.397812 
" style="fill:none;stroke:#3c3c3c;stroke-linecap:square;stroke-width:4.5;"/>
   </g>
   <g id="line2d_28">
    <path clip-path="url(#p595a7991cf)" d="M 831.0528 467.077341 
L 831.0528 409.354518 
" style="fill:none;stroke:#3c3c3c;stroke-linecap:square;stroke-width:1.5;"/>
   </g>
   <g id="line2d_29">
    <path clip-path="url(#p595a7991cf)" d="M 831.0528 463.490047 
L 831.0528 441.477106 
" style="fill:none;stroke:#3c3c3c;stroke-linecap:square;stroke-width:4.5;"/>
   </g>
   <g id="line2d_30">
    <path clip-path="url(#p595a7991cf)" d="M 888.192 467.2404 
L 888.192 372.666282 
" style="fill:none;stroke:#3c3c3c;stroke-linecap:square;stroke-width:1.5;"/>
   </g>
   <g id="line2d_31">
    <path clip-path="url(#p595a7991cf)" d="M 888.192 452.035165 
L 888.192 420.034871 
" style="fill:none;stroke:#3c3c3c;stroke-linecap:square;stroke-width:4.5;"/>
   </g>
   <g id="line2d_32">
    <path clip-path="url(#p595a7991cf)" d="M 945.3312 466.914282 
L 945.3312 395.657576 
" style="fill:none;stroke:#3c3c3c;stroke-linecap:square;stroke-width:1.5;"/>
   </g>
   <g id="line2d_33">
    <path clip-path="url(#p595a7991cf)" d="M 945.3312 461.044165 
L 945.3312 434.628635 
" style="fill:none;stroke:#3c3c3c;stroke-linecap:square;stroke-width:4.5;"/>
   </g>
   <g id="patch_6">
    <path d="M 138.24 486.3672 
L 138.24 65.5776 
" style="fill:none;stroke:#000000;stroke-linecap:square;stroke-linejoin:miter;stroke-width:0.8;"/>
   </g>
   <g id="patch_7">
    <path d="M 995.328 486.3672 
L 995.328 65.5776 
" style="fill:none;stroke:#000000;stroke-linecap:square;stroke-linejoin:miter;stroke-width:0.8;"/>
   </g>
   <g id="patch_8">
    <path d="M 138.24 486.3672 
L 995.328 486.3672 
" style="fill:none;stroke:#000000;stroke-linecap:square;stroke-linejoin:miter;stroke-width:0.8;"/>
   </g>
   <g id="patch_9">
    <path d="M 138.24 65.5776 
L 995.328 65.5776 
" style="fill:none;stroke:#000000;stroke-linecap:square;stroke-linejoin:miter;stroke-width:0.8;"/>
   </g>
   <g id="PathCollection_1">
    <defs>
     <path d="M 0 1.5 
C 0.397805 1.5 0.77937 1.341951 1.06066 1.06066 
C 1.341951 0.77937 1.5 0.397805 1.5 0 
C 1.5 -0.397805 1.341951 -0.77937 1.06066 -1.06066 
C 0.77937 -1.341951 0.397805 -1.5 0 -1.5 
C -0.397805 -1.5 -0.77937 -1.341951 -1.06066 -1.06066 
C -1.341951 -0.77937 -1.5 -0.397805 -1.5 0 
C -1.5 0.397805 -1.341951 0.77937 -1.06066 1.06066 
C -0.77937 1.341951 -0.397805 1.5 0 1.5 
z
" id="md0da9a0741" style="stroke:#3c3c3c;"/>
    </defs>
    <g clip-path="url(#p595a7991cf)">
     <use style="fill:#ffffff;stroke:#3c3c3c;" x="188.2368" xlink:href="#md0da9a0741" y="459.413576"/>
    </g>
   </g>
   <g id="PathCollection_2">
    <g clip-path="url(#p595a7991cf)">
     <use style="fill:#ffffff;stroke:#3c3c3c;" x="245.376" xlink:href="#md0da9a0741" y="465.120635"/>
    </g>
   </g>
   <g id="PathCollection_3">
    <g clip-path="url(#p595a7991cf)">
     <use style="fill:#ffffff;stroke:#3c3c3c;" x="302.5152" xlink:href="#md0da9a0741" y="455.500165"/>
    </g>
   </g>
   <g id="PathCollection_4">
    <g clip-path="url(#p595a7991cf)">
     <use style="fill:#ffffff;stroke:#3c3c3c;" x="402.5088" xlink:href="#md0da9a0741" y="461.6964"/>
    </g>
   </g>
   <g id="PathCollection_5">
    <g clip-path="url(#p595a7991cf)">
     <use style="fill:#ffffff;stroke:#3c3c3c;" x="459.648" xlink:href="#md0da9a0741" y="436.7484"/>
    </g>
   </g>
   <g id="PathCollection_6">
    <g clip-path="url(#p595a7991cf)">
     <use style="fill:#ffffff;stroke:#3c3c3c;" x="516.7872" xlink:href="#md0da9a0741" y="462.511694"/>
    </g>
   </g>
   <g id="PathCollection_7">
    <g clip-path="url(#p595a7991cf)">
     <use style="fill:#ffffff;stroke:#3c3c3c;" x="616.7808" xlink:href="#md0da9a0741" y="430.552165"/>
    </g>
   </g>
   <g id="PathCollection_8">
    <g clip-path="url(#p595a7991cf)">
     <use style="fill:#ffffff;stroke:#3c3c3c;" x="673.92" xlink:href="#md0da9a0741" y="415.550753"/>
    </g>
   </g>
   <g id="PathCollection_9">
    <g clip-path="url(#p595a7991cf)">
     <use style="fill:#ffffff;stroke:#3c3c3c;" x="731.0592" xlink:href="#md0da9a0741" y="434.791694"/>
    </g>
   </g>
   <g id="PathCollection_10">
    <g clip-path="url(#p595a7991cf)">
     <use style="fill:#ffffff;stroke:#3c3c3c;" x="831.0528" xlink:href="#md0da9a0741" y="456.478518"/>
    </g>
   </g>
   <g id="PathCollection_11">
    <g clip-path="url(#p595a7991cf)">
     <use style="fill:#ffffff;stroke:#3c3c3c;" x="888.192" xlink:href="#md0da9a0741" y="437.645224"/>
    </g>
   </g>
   <g id="PathCollection_12">
    <g clip-path="url(#p595a7991cf)">
     <use style="fill:#ffffff;stroke:#3c3c3c;" x="945.3312" xlink:href="#md0da9a0741" y="451.423694"/>
    </g>
   </g>
   <g id="legend_1">
    <g id="patch_10">
     <path d="M 918.038938 132.2901 
L 988.328 132.2901 
Q 990.328 132.2901 990.328 130.2901 
L 990.328 72.5776 
Q 990.328 70.5776 988.328 70.5776 
L 918.038938 70.5776 
Q 916.038938 70.5776 916.038938 72.5776 
L 916.038938 130.2901 
Q 916.038938 132.2901 918.038938 132.2901 
z
" style="fill:#ffffff;opacity:0.8;stroke:#cccccc;stroke-linejoin:miter;"/>
    </g>
    <g id="text_12">
     <!-- method -->
     <g transform="translate(933.874094 82.176038)scale(0.1 -0.1)">
      <defs>
       <path d="M 3328 2828 
Q 3544 3216 3844 3400 
Q 4144 3584 4550 3584 
Q 5097 3584 5394 3201 
Q 5691 2819 5691 2113 
L 5691 0 
L 5113 0 
L 5113 2094 
Q 5113 2597 4934 2840 
Q 4756 3084 4391 3084 
Q 3944 3084 3684 2787 
Q 3425 2491 3425 1978 
L 3425 0 
L 2847 0 
L 2847 2094 
Q 2847 2600 2669 2842 
Q 2491 3084 2119 3084 
Q 1678 3084 1418 2786 
Q 1159 2488 1159 1978 
L 1159 0 
L 581 0 
L 581 3500 
L 1159 3500 
L 1159 2956 
Q 1356 3278 1631 3431 
Q 1906 3584 2284 3584 
Q 2666 3584 2933 3390 
Q 3200 3197 3328 2828 
z
" id="DejaVuSans-6d" transform="scale(0.015625)"/>
       <path d="M 3513 2113 
L 3513 0 
L 2938 0 
L 2938 2094 
Q 2938 2591 2744 2837 
Q 2550 3084 2163 3084 
Q 1697 3084 1428 2787 
Q 1159 2491 1159 1978 
L 1159 0 
L 581 0 
L 581 4863 
L 1159 4863 
L 1159 2956 
Q 1366 3272 1645 3428 
Q 1925 3584 2291 3584 
Q 2894 3584 3203 3211 
Q 3513 2838 3513 2113 
z
" id="DejaVuSans-68" transform="scale(0.015625)"/>
      </defs>
      <use xlink:href="#DejaVuSans-6d"/>
      <use x="97.412109" xlink:href="#DejaVuSans-65"/>
      <use x="158.935547" xlink:href="#DejaVuSans-74"/>
      <use x="198.144531" xlink:href="#DejaVuSans-68"/>
      <use x="261.523438" xlink:href="#DejaVuSans-6f"/>
      <use x="322.705078" xlink:href="#DejaVuSans-64"/>
     </g>
    </g>
    <g id="patch_11">
     <path d="M 920.038938 96.854163 
L 940.038938 96.854163 
L 940.038938 89.854163 
L 920.038938 89.854163 
z
" style="fill:#c8e2bb;stroke:#3c3c3c;stroke-linejoin:miter;stroke-width:0.75;"/>
    </g>
    <g id="text_13">
     <!-- BS -->
     <g transform="translate(948.038938 96.854163)scale(0.1 -0.1)">
      <defs>
       <path d="M 1259 2228 
L 1259 519 
L 2272 519 
Q 2781 519 3026 730 
Q 3272 941 3272 1375 
Q 3272 1813 3026 2020 
Q 2781 2228 2272 2228 
L 1259 2228 
z
M 1259 4147 
L 1259 2741 
L 2194 2741 
Q 2656 2741 2882 2914 
Q 3109 3088 3109 3444 
Q 3109 3797 2882 3972 
Q 2656 4147 2194 4147 
L 1259 4147 
z
M 628 4666 
L 2241 4666 
Q 2963 4666 3353 4366 
Q 3744 4066 3744 3513 
Q 3744 3084 3544 2831 
Q 3344 2578 2956 2516 
Q 3422 2416 3680 2098 
Q 3938 1781 3938 1306 
Q 3938 681 3513 340 
Q 3088 0 2303 0 
L 628 0 
L 628 4666 
z
" id="DejaVuSans-42" transform="scale(0.015625)"/>
       <path d="M 3425 4513 
L 3425 3897 
Q 3066 4069 2747 4153 
Q 2428 4238 2131 4238 
Q 1616 4238 1336 4038 
Q 1056 3838 1056 3469 
Q 1056 3159 1242 3001 
Q 1428 2844 1947 2747 
L 2328 2669 
Q 3034 2534 3370 2195 
Q 3706 1856 3706 1288 
Q 3706 609 3251 259 
Q 2797 -91 1919 -91 
Q 1588 -91 1214 -16 
Q 841 59 441 206 
L 441 856 
Q 825 641 1194 531 
Q 1563 422 1919 422 
Q 2459 422 2753 634 
Q 3047 847 3047 1241 
Q 3047 1584 2836 1778 
Q 2625 1972 2144 2069 
L 1759 2144 
Q 1053 2284 737 2584 
Q 422 2884 422 3419 
Q 422 4038 858 4394 
Q 1294 4750 2059 4750 
Q 2388 4750 2728 4690 
Q 3069 4631 3425 4513 
z
" id="DejaVuSans-53" transform="scale(0.015625)"/>
      </defs>
      <use xlink:href="#DejaVuSans-42"/>
      <use x="66.853516" xlink:href="#DejaVuSans-53"/>
     </g>
    </g>
    <g id="patch_12">
     <path d="M 920.038938 111.532288 
L 940.038938 111.532288 
L 940.038938 104.532288 
L 920.038938 104.532288 
z
" style="fill:#51a9b3;stroke:#3c3c3c;stroke-linejoin:miter;stroke-width:0.75;"/>
    </g>
    <g id="text_14">
     <!-- Novelty -->
     <g transform="translate(948.038938 111.532288)scale(0.1 -0.1)">
      <defs>
       <path d="M 628 4666 
L 1478 4666 
L 3547 763 
L 3547 4666 
L 4159 4666 
L 4159 0 
L 3309 0 
L 1241 3903 
L 1241 0 
L 628 0 
L 628 4666 
z
" id="DejaVuSans-4e" transform="scale(0.015625)"/>
       <path d="M 191 3500 
L 800 3500 
L 1894 563 
L 2988 3500 
L 3597 3500 
L 2284 0 
L 1503 0 
L 191 3500 
z
" id="DejaVuSans-76" transform="scale(0.015625)"/>
       <path d="M 603 4863 
L 1178 4863 
L 1178 0 
L 603 0 
L 603 4863 
z
" id="DejaVuSans-6c" transform="scale(0.015625)"/>
       <path d="M 2059 -325 
Q 1816 -950 1584 -1140 
Q 1353 -1331 966 -1331 
L 506 -1331 
L 506 -850 
L 844 -850 
Q 1081 -850 1212 -737 
Q 1344 -625 1503 -206 
L 1606 56 
L 191 3500 
L 800 3500 
L 1894 763 
L 2988 3500 
L 3597 3500 
L 2059 -325 
z
" id="DejaVuSans-79" transform="scale(0.015625)"/>
      </defs>
      <use xlink:href="#DejaVuSans-4e"/>
      <use x="74.804688" xlink:href="#DejaVuSans-6f"/>
      <use x="135.986328" xlink:href="#DejaVuSans-76"/>
      <use x="195.166016" xlink:href="#DejaVuSans-65"/>
      <use x="256.689453" xlink:href="#DejaVuSans-6c"/>
      <use x="284.472656" xlink:href="#DejaVuSans-74"/>
      <use x="323.681641" xlink:href="#DejaVuSans-79"/>
     </g>
    </g>
    <g id="patch_13">
     <path d="M 920.038938 126.210413 
L 940.038938 126.210413 
L 940.038938 119.210413 
L 920.038938 119.210413 
z
" style="fill:#335f97;stroke:#3c3c3c;stroke-linejoin:miter;stroke-width:0.75;"/>
    </g>
    <g id="text_15">
     <!-- WL -->
     <g transform="translate(948.038938 126.210413)scale(0.1 -0.1)">
      <defs>
       <path d="M 213 4666 
L 850 4666 
L 1831 722 
L 2809 4666 
L 3519 4666 
L 4500 722 
L 5478 4666 
L 6119 4666 
L 4947 0 
L 4153 0 
L 3169 4050 
L 2175 0 
L 1381 0 
L 213 4666 
z
" id="DejaVuSans-57" transform="scale(0.015625)"/>
       <path d="M 628 4666 
L 1259 4666 
L 1259 531 
L 3531 531 
L 3531 0 
L 628 0 
L 628 4666 
z
" id="DejaVuSans-4c" transform="scale(0.015625)"/>
      </defs>
      <use xlink:href="#DejaVuSans-57"/>
      <use x="98.876953" xlink:href="#DejaVuSans-4c"/>
     </g>
    </g>
   </g>
  </g>
 </g>
 <defs>
  <clipPath id="p595a7991cf">
   <rect height="420.7896" width="857.088" x="138.24" y="65.5776"/>
  </clipPath>
 </defs>
</svg>
