<?xml version="1.0" encoding="utf-8" standalone="no"?>
<!DOCTYPE svg PUBLIC "-//W3C//DTD SVG 1.1//EN"
  "http://www.w3.org/Graphics/SVG/1.1/DTD/svg11.dtd">
<svg height="106.56pt" version="1.1" viewBox="0 0 216.72 106.56" width="216.72pt" xmlns="http://www.w3.org/2000/svg" xmlns:xlink="http://www.w3.org/1999/xlink">
 <metadata>
  <rdf:RDF xmlns:cc="http://creativecommons.org/ns#" xmlns:dc="http://purl.org/dc/elements/1.1/" xmlns:rdf="http://www.w3.org/1999/02/22-rdf-syntax-ns#">
   <cc:Work>
    <dc:type rdf:resource="http://purl.org/dc/dcmitype/StillImage"/>
    <dc:date>2022-05-10T13:23:57.423406</dc:date>
    <dc:format>image/svg+xml</dc:format>
    <dc:creator>
     <cc:Agent>
      <dc:title>Matplotlib v3.4.2, https://matplotlib.org/</dc:title>
     </cc:Agent>
    </dc:creator>
   </cc:Work>
  </rdf:RDF>
 </metadata>
 <defs>
  <style type="text/css">*{stroke-linecap:butt;stroke-linejoin:round;}</style>
 </defs>
 <g id="figure_1">
  <g id="patch_1">
   <path d="M 0 106.56 
L 216.72 106.56 
L 216.72 0 
L 0 0 
z
" style="fill:#ffffff;"/>
  </g>
  <g id="axes_1">
   <g id="patch_2">
    <path d="M 27.09 94.8384 
L 195.048 94.8384 
L 195.048 12.7872 
L 27.09 12.7872 
z
" style="fill:#ffffff;"/>
   </g>
   <g id="matplotlib.axis_1">
    <g id="xtick_1">
     <g id="line2d_1">
      <defs>
       <path d="M 0 0 
L 0 3.5 
" id="m098d6f2f97" style="stroke:#000000;stroke-width:0.8;"/>
      </defs>
      <g>
       <use style="stroke:#000000;stroke-width:0.8;" x="34.724455" xlink:href="#m098d6f2f97" y="94.8384"/>
      </g>
     </g>
     <g id="text_1">
      <!-- 0 -->
      <g transform="translate(31.543205 109.436838)scale(0.1 -0.1)">
       <defs>
        <path d="M 2034 4250 
Q 1547 4250 1301 3770 
Q 1056 3291 1056 2328 
Q 1056 1369 1301 889 
Q 1547 409 2034 409 
Q 2525 409 2770 889 
Q 3016 1369 3016 2328 
Q 3016 3291 2770 3770 
Q 2525 4250 2034 4250 
z
M 2034 4750 
Q 2819 4750 3233 4129 
Q 3647 3509 3647 2328 
Q 3647 1150 3233 529 
Q 2819 -91 2034 -91 
Q 1250 -91 836 529 
Q 422 1150 422 2328 
Q 422 3509 836 4129 
Q 1250 4750 2034 4750 
z
" id="DejaVuSans-30" transform="scale(0.015625)"/>
       </defs>
       <use xlink:href="#DejaVuSans-30"/>
      </g>
     </g>
    </g>
    <g id="xtick_2">
     <g id="line2d_2">
      <g>
       <use style="stroke:#000000;stroke-width:0.8;" x="90.24776" xlink:href="#m098d6f2f97" y="94.8384"/>
      </g>
     </g>
     <g id="text_2">
      <!-- 100 -->
      <g transform="translate(80.70401 109.436838)scale(0.1 -0.1)">
       <defs>
        <path d="M 794 531 
L 1825 531 
L 1825 4091 
L 703 3866 
L 703 4441 
L 1819 4666 
L 2450 4666 
L 2450 531 
L 3481 531 
L 3481 0 
L 794 0 
L 794 531 
z
" id="DejaVuSans-31" transform="scale(0.015625)"/>
       </defs>
       <use xlink:href="#DejaVuSans-31"/>
       <use x="63.623047" xlink:href="#DejaVuSans-30"/>
       <use x="127.246094" xlink:href="#DejaVuSans-30"/>
      </g>
     </g>
    </g>
    <g id="xtick_3">
     <g id="line2d_3">
      <g>
       <use style="stroke:#000000;stroke-width:0.8;" x="145.771066" xlink:href="#m098d6f2f97" y="94.8384"/>
      </g>
     </g>
     <g id="text_3">
      <!-- 200 -->
      <g transform="translate(136.227316 109.436838)scale(0.1 -0.1)">
       <defs>
        <path d="M 1228 531 
L 3431 531 
L 3431 0 
L 469 0 
L 469 531 
Q 828 903 1448 1529 
Q 2069 2156 2228 2338 
Q 2531 2678 2651 2914 
Q 2772 3150 2772 3378 
Q 2772 3750 2511 3984 
Q 2250 4219 1831 4219 
Q 1534 4219 1204 4116 
Q 875 4013 500 3803 
L 500 4441 
Q 881 4594 1212 4672 
Q 1544 4750 1819 4750 
Q 2544 4750 2975 4387 
Q 3406 4025 3406 3419 
Q 3406 3131 3298 2873 
Q 3191 2616 2906 2266 
Q 2828 2175 2409 1742 
Q 1991 1309 1228 531 
z
" id="DejaVuSans-32" transform="scale(0.015625)"/>
       </defs>
       <use xlink:href="#DejaVuSans-32"/>
       <use x="63.623047" xlink:href="#DejaVuSans-30"/>
       <use x="127.246094" xlink:href="#DejaVuSans-30"/>
      </g>
     </g>
    </g>
   </g>
   <g id="matplotlib.axis_2">
    <g id="ytick_1">
     <g id="line2d_4">
      <defs>
       <path d="M 0 0 
L -3.5 0 
" id="m9ddac49346" style="stroke:#000000;stroke-width:0.8;"/>
      </defs>
      <g>
       <use style="stroke:#000000;stroke-width:0.8;" x="27.09" xlink:href="#m9ddac49346" y="91.868524"/>
      </g>
     </g>
     <g id="text_4">
      <!-- −2 -->
      <g transform="translate(5.347812 95.667742)scale(0.1 -0.1)">
       <defs>
        <path d="M 678 2272 
L 4684 2272 
L 4684 1741 
L 678 1741 
L 678 2272 
z
" id="DejaVuSans-2212" transform="scale(0.015625)"/>
       </defs>
       <use xlink:href="#DejaVuSans-2212"/>
       <use x="83.789062" xlink:href="#DejaVuSans-32"/>
      </g>
     </g>
    </g>
    <g id="ytick_2">
     <g id="line2d_5">
      <g>
       <use style="stroke:#000000;stroke-width:0.8;" x="27.09" xlink:href="#m9ddac49346" y="66.151312"/>
      </g>
     </g>
     <g id="text_5">
      <!-- 0 -->
      <g transform="translate(13.7275 69.950531)scale(0.1 -0.1)">
       <use xlink:href="#DejaVuSans-30"/>
      </g>
     </g>
    </g>
    <g id="ytick_3">
     <g id="line2d_6">
      <g>
       <use style="stroke:#000000;stroke-width:0.8;" x="27.09" xlink:href="#m9ddac49346" y="40.434101"/>
      </g>
     </g>
     <g id="text_6">
      <!-- 2 -->
      <g transform="translate(13.7275 44.23332)scale(0.1 -0.1)">
       <use xlink:href="#DejaVuSans-32"/>
      </g>
     </g>
    </g>
    <g id="ytick_4">
     <g id="line2d_7">
      <g>
       <use style="stroke:#000000;stroke-width:0.8;" x="27.09" xlink:href="#m9ddac49346" y="14.71689"/>
      </g>
     </g>
     <g id="text_7">
      <!-- 4 -->
      <g transform="translate(13.7275 18.516108)scale(0.1 -0.1)">
       <defs>
        <path d="M 2419 4116 
L 825 1625 
L 2419 1625 
L 2419 4116 
z
M 2253 4666 
L 3047 4666 
L 3047 1625 
L 3713 1625 
L 3713 1100 
L 3047 1100 
L 3047 0 
L 2419 0 
L 2419 1100 
L 313 1100 
L 313 1709 
L 2253 4666 
z
" id="DejaVuSans-34" transform="scale(0.015625)"/>
       </defs>
       <use xlink:href="#DejaVuSans-34"/>
      </g>
     </g>
    </g>
   </g>
   <g id="line2d_8">
    <path clip-path="url(#p9300823fcd)" d="M 34.724455 53.292707 
L 35.279688 58.89631 
L 35.834921 59.141878 
L 36.390154 59.181347 
L 36.945387 58.909897 
L 37.50062 58.176434 
L 38.055853 58.667935 
L 38.611086 58.454113 
L 39.166319 58.711536 
L 39.721552 58.279108 
L 40.276785 58.151335 
L 40.832018 57.769277 
L 41.387251 58.283341 
L 41.942484 57.124477 
L 42.497717 58.29145 
L 43.05295 58.532321 
L 44.163417 58.738789 
L 44.71865 58.972376 
L 45.273883 58.472789 
L 46.939582 58.406523 
L 47.494815 58.043118 
L 48.050048 58.441496 
L 49.160514 58.006352 
L 49.715747 59.105317 
L 51.381446 58.261877 
L 51.936679 58.536388 
L 52.491912 57.793204 
L 53.047145 58.550598 
L 53.602379 57.844752 
L 54.157612 58.030362 
L 54.712845 59.12086 
L 55.268078 58.081624 
L 55.823311 58.257227 
L 56.378544 59.16983 
L 56.933777 58.333574 
L 57.48901 57.951426 
L 58.599476 58.556146 
L 59.154709 58.027388 
L 60.265175 58.780442 
L 60.820408 58.792862 
L 61.375641 58.234325 
L 61.930874 58.966382 
L 62.486107 58.037694 
L 63.04134 58.465515 
L 63.596574 58.519695 
L 64.151807 59.168464 
L 64.70704 58.034817 
L 65.262273 57.583185 
L 65.817506 57.778369 
L 66.372739 58.516267 
L 66.927972 58.314899 
L 67.483205 58.537933 
L 68.038438 58.231713 
L 68.593671 58.478035 
L 69.704137 57.970458 
L 70.25937 58.91505 
L 70.814603 58.636664 
L 71.369836 58.075645 
L 71.925069 58.173338 
L 72.480302 58.644635 
L 73.035536 57.993932 
L 73.590769 57.970514 
L 74.146002 57.678131 
L 74.701235 59.375727 
L 75.256468 58.326248 
L 75.811701 58.901142 
L 76.366934 58.343953 
L 76.922167 58.553229 
L 77.4774 57.951341 
L 78.032633 58.669981 
L 78.587866 57.661124 
L 79.143099 57.849939 
L 79.698332 57.801419 
L 80.253565 58.64887 
L 80.808798 57.456133 
L 81.919264 58.358646 
L 82.474498 57.845103 
L 83.029731 58.820847 
L 83.584964 57.101267 
L 84.140197 53.299082 
L 85.250663 21.272185 
L 85.805896 16.5168 
L 86.361129 17.528426 
L 86.916362 24.878247 
L 88.026828 81.12766 
L 88.582061 89.82853 
L 89.137294 89.60929 
L 89.692527 89.809506 
L 90.24776 90.899938 
L 90.802993 91.1088 
L 91.358226 90.74136 
L 91.91346 90.532518 
L 92.468693 90.04443 
L 93.023926 90.394686 
L 93.579159 89.532898 
L 94.134392 90.184035 
L 94.689625 89.487083 
L 95.244858 89.954379 
L 95.800091 90.011727 
L 96.355324 89.691105 
L 96.910557 88.841131 
L 97.46579 89.270462 
L 98.021023 90.172288 
L 98.576256 88.921623 
L 99.686722 89.078687 
L 100.241955 88.625631 
L 100.797188 89.242607 
L 101.352421 89.206965 
L 101.907655 88.205588 
L 102.462888 88.187313 
L 103.018121 87.950159 
L 103.573354 88.039798 
L 104.128587 87.593298 
L 104.68382 87.311364 
L 105.239053 87.218758 
L 105.794286 86.663453 
L 106.349519 86.730696 
L 106.904752 86.543605 
L 107.459985 86.684266 
L 108.015218 86.945518 
L 108.570451 85.743458 
L 109.125684 86.062396 
L 109.680917 85.768638 
L 110.23615 85.663193 
L 110.791383 85.318016 
L 111.346617 84.679195 
L 111.90185 84.952952 
L 113.012316 83.748624 
L 113.567549 82.572887 
L 114.122782 83.974563 
L 114.678015 82.889121 
L 115.233248 82.546469 
L 115.788481 82.422016 
L 116.898947 81.120245 
L 117.45418 81.339383 
L 118.009413 80.501709 
L 118.564646 80.705881 
L 119.119879 79.436893 
L 119.675112 79.683957 
L 120.230345 79.559991 
L 120.785579 78.488802 
L 121.896045 77.628276 
L 122.451278 77.512376 
L 123.006511 76.999899 
L 123.561744 76.980139 
L 124.116977 76.630658 
L 124.67221 76.510815 
L 125.782676 74.116162 
L 126.337909 74.482846 
L 127.448375 73.299764 
L 128.003608 74.572399 
L 128.558841 73.274275 
L 129.114074 73.083388 
L 129.669307 73.287637 
L 130.22454 71.58843 
L 130.779774 71.979017 
L 131.89024 70.705382 
L 132.445473 69.765423 
L 133.000706 70.57019 
L 133.555939 69.614923 
L 134.111172 70.008173 
L 134.666405 68.958312 
L 135.221638 69.420886 
L 135.776871 69.148434 
L 136.332104 67.370272 
L 136.887337 67.490022 
L 137.44257 67.157391 
L 137.997803 67.029737 
L 139.108269 66.027796 
L 140.218736 66.703999 
L 140.773969 65.149044 
L 141.329202 64.941598 
L 141.884435 64.893326 
L 142.439668 63.913831 
L 142.994901 64.334124 
L 143.550134 64.43971 
L 144.105367 64.084812 
L 144.6606 63.077995 
L 145.215833 63.533852 
L 145.771066 63.564436 
L 146.326299 63.013955 
L 146.881532 63.162746 
L 147.436765 62.840874 
L 147.991998 62.110595 
L 148.547231 62.916009 
L 149.102464 62.477388 
L 149.657698 62.251727 
L 150.212931 61.532241 
L 150.768164 62.702903 
L 151.87863 61.298152 
L 152.433863 61.76361 
L 152.989096 60.177095 
L 153.544329 60.853985 
L 154.099562 60.268337 
L 154.654795 61.479166 
L 155.210028 60.564472 
L 156.320494 61.162463 
L 156.875727 60.402481 
L 157.43096 60.22878 
L 157.986193 60.420768 
L 158.541426 60.052796 
L 159.09666 60.011779 
L 159.651893 60.302206 
L 160.207126 60.342856 
L 160.762359 59.48007 
L 161.317592 59.192145 
L 161.872825 60.272608 
L 162.428058 59.886638 
L 162.983291 60.007597 
L 163.538524 59.888282 
L 164.093757 59.919329 
L 164.64899 59.406987 
L 165.204223 59.888441 
L 165.759456 59.020786 
L 166.314689 59.710814 
L 166.869922 59.369884 
L 167.425155 58.828316 
L 167.980388 59.304824 
L 168.535621 59.562631 
L 169.090855 58.961502 
L 169.646088 59.226764 
L 170.201321 59.771229 
L 170.756554 58.90616 
L 172.977486 59.187585 
L 173.532719 58.437567 
L 174.087952 58.319065 
L 175.198418 59.236033 
L 175.753651 59.496924 
L 176.308884 58.964986 
L 177.41935 58.62299 
L 177.974583 58.59237 
L 178.529817 58.847911 
L 179.08505 58.609388 
L 179.640283 59.463343 
L 180.195516 58.248981 
L 180.750749 58.57368 
L 181.305982 59.213347 
L 181.861215 58.742949 
L 182.416448 58.840373 
L 182.971681 58.724814 
L 183.526914 58.16818 
L 184.082147 59.45411 
L 185.192613 58.097581 
L 185.747846 59.323845 
L 186.303079 58.804778 
L 186.858312 58.613734 
L 187.413545 58.553682 
L 187.413545 58.553682 
" style="fill:none;stroke:#1f77b4;stroke-linecap:square;stroke-width:1.5;"/>
   </g>
   <g id="patch_3">
    <path d="M 27.09 94.8384 
L 27.09 12.7872 
" style="fill:none;stroke:#000000;stroke-linecap:square;stroke-linejoin:miter;stroke-width:0.8;"/>
   </g>
   <g id="patch_4">
    <path d="M 195.048 94.8384 
L 195.048 12.7872 
" style="fill:none;stroke:#000000;stroke-linecap:square;stroke-linejoin:miter;stroke-width:0.8;"/>
   </g>
   <g id="patch_5">
    <path d="M 27.09 94.8384 
L 195.048 94.8384 
" style="fill:none;stroke:#000000;stroke-linecap:square;stroke-linejoin:miter;stroke-width:0.8;"/>
   </g>
   <g id="patch_6">
    <path d="M 27.09 12.7872 
L 195.048 12.7872 
" style="fill:none;stroke:#000000;stroke-linecap:square;stroke-linejoin:miter;stroke-width:0.8;"/>
   </g>
  </g>
 </g>
 <defs>
  <clipPath id="p9300823fcd">
   <rect height="82.0512" width="167.958" x="27.09" y="12.7872"/>
  </clipPath>
 </defs>
</svg>
