<?xml version="1.0" encoding="utf-8" standalone="no"?>
<!DOCTYPE svg PUBLIC "-//W3C//DTD SVG 1.1//EN"
  "http://www.w3.org/Graphics/SVG/1.1/DTD/svg11.dtd">
<svg height="180pt" version="1.1" viewBox="0 0 237.6 180" width="237.6pt" xmlns="http://www.w3.org/2000/svg" xmlns:xlink="http://www.w3.org/1999/xlink">
 <metadata>
  <rdf:RDF xmlns:cc="http://creativecommons.org/ns#" xmlns:dc="http://purl.org/dc/elements/1.1/" xmlns:rdf="http://www.w3.org/1999/02/22-rdf-syntax-ns#">
   <cc:Work>
    <dc:type rdf:resource="http://purl.org/dc/dcmitype/StillImage"/>
    <dc:date>2022-05-10T13:25:56.496018</dc:date>
    <dc:format>image/svg+xml</dc:format>
    <dc:creator>
     <cc:Agent>
      <dc:title>Matplotlib v3.4.2, https://matplotlib.org/</dc:title>
     </cc:Agent>
    </dc:creator>
   </cc:Work>
  </rdf:RDF>
 </metadata>
 <defs>
  <style type="text/css">*{stroke-linecap:butt;stroke-linejoin:round;}</style>
 </defs>
 <g id="figure_1">
  <g id="patch_1">
   <path d="M 0 180 
L 237.6 180 
L 237.6 0 
L 0 0 
z
" style="fill:#ffffff;"/>
  </g>
  <g id="axes_1">
   <g id="patch_2">
    <path d="M 29.7 160.2 
L 213.84 160.2 
L 213.84 21.6 
L 29.7 21.6 
z
" style="fill:#ffffff;"/>
   </g>
   <g id="matplotlib.axis_1">
    <g id="xtick_1">
     <g id="line2d_1">
      <defs>
       <path d="M 0 0 
L 0 3.5 
" id="mbfc80c439d" style="stroke:#000000;stroke-width:0.8;"/>
      </defs>
      <g>
       <use style="stroke:#000000;stroke-width:0.8;" x="38.07" xlink:href="#mbfc80c439d" y="160.2"/>
      </g>
     </g>
     <g id="text_1">
      <!-- 0 -->
      <g transform="translate(34.88875 174.798438)scale(0.1 -0.1)">
       <defs>
        <path d="M 2034 4250 
Q 1547 4250 1301 3770 
Q 1056 3291 1056 2328 
Q 1056 1369 1301 889 
Q 1547 409 2034 409 
Q 2525 409 2770 889 
Q 3016 1369 3016 2328 
Q 3016 3291 2770 3770 
Q 2525 4250 2034 4250 
z
M 2034 4750 
Q 2819 4750 3233 4129 
Q 3647 3509 3647 2328 
Q 3647 1150 3233 529 
Q 2819 -91 2034 -91 
Q 1250 -91 836 529 
Q 422 1150 422 2328 
Q 422 3509 836 4129 
Q 1250 4750 2034 4750 
z
" id="DejaVuSans-30" transform="scale(0.015625)"/>
       </defs>
       <use xlink:href="#DejaVuSans-30"/>
      </g>
     </g>
    </g>
    <g id="xtick_2">
     <g id="line2d_2">
      <g>
       <use style="stroke:#000000;stroke-width:0.8;" x="98.942727" xlink:href="#mbfc80c439d" y="160.2"/>
      </g>
     </g>
     <g id="text_2">
      <!-- 100 -->
      <g transform="translate(89.398977 174.798438)scale(0.1 -0.1)">
       <defs>
        <path d="M 794 531 
L 1825 531 
L 1825 4091 
L 703 3866 
L 703 4441 
L 1819 4666 
L 2450 4666 
L 2450 531 
L 3481 531 
L 3481 0 
L 794 0 
L 794 531 
z
" id="DejaVuSans-31" transform="scale(0.015625)"/>
       </defs>
       <use xlink:href="#DejaVuSans-31"/>
       <use x="63.623047" xlink:href="#DejaVuSans-30"/>
       <use x="127.246094" xlink:href="#DejaVuSans-30"/>
      </g>
     </g>
    </g>
    <g id="xtick_3">
     <g id="line2d_3">
      <g>
       <use style="stroke:#000000;stroke-width:0.8;" x="159.815455" xlink:href="#mbfc80c439d" y="160.2"/>
      </g>
     </g>
     <g id="text_3">
      <!-- 200 -->
      <g transform="translate(150.271705 174.798438)scale(0.1 -0.1)">
       <defs>
        <path d="M 1228 531 
L 3431 531 
L 3431 0 
L 469 0 
L 469 531 
Q 828 903 1448 1529 
Q 2069 2156 2228 2338 
Q 2531 2678 2651 2914 
Q 2772 3150 2772 3378 
Q 2772 3750 2511 3984 
Q 2250 4219 1831 4219 
Q 1534 4219 1204 4116 
Q 875 4013 500 3803 
L 500 4441 
Q 881 4594 1212 4672 
Q 1544 4750 1819 4750 
Q 2544 4750 2975 4387 
Q 3406 4025 3406 3419 
Q 3406 3131 3298 2873 
Q 3191 2616 2906 2266 
Q 2828 2175 2409 1742 
Q 1991 1309 1228 531 
z
" id="DejaVuSans-32" transform="scale(0.015625)"/>
       </defs>
       <use xlink:href="#DejaVuSans-32"/>
       <use x="63.623047" xlink:href="#DejaVuSans-30"/>
       <use x="127.246094" xlink:href="#DejaVuSans-30"/>
      </g>
     </g>
    </g>
   </g>
   <g id="matplotlib.axis_2">
    <g id="ytick_1">
     <g id="line2d_4">
      <defs>
       <path d="M 0 0 
L -3.5 0 
" id="mbe33f07726" style="stroke:#000000;stroke-width:0.8;"/>
      </defs>
      <g>
       <use style="stroke:#000000;stroke-width:0.8;" x="29.7" xlink:href="#mbe33f07726" y="154.588565"/>
      </g>
     </g>
     <g id="text_4">
      <!-- −2 -->
      <g transform="translate(7.957812 158.387784)scale(0.1 -0.1)">
       <defs>
        <path d="M 678 2272 
L 4684 2272 
L 4684 1741 
L 678 1741 
L 678 2272 
z
" id="DejaVuSans-2212" transform="scale(0.015625)"/>
       </defs>
       <use xlink:href="#DejaVuSans-2212"/>
       <use x="83.789062" xlink:href="#DejaVuSans-32"/>
      </g>
     </g>
    </g>
    <g id="ytick_2">
     <g id="line2d_5">
      <g>
       <use style="stroke:#000000;stroke-width:0.8;" x="29.7" xlink:href="#mbe33f07726" y="122.916424"/>
      </g>
     </g>
     <g id="text_5">
      <!-- −1 -->
      <g transform="translate(7.957812 126.715643)scale(0.1 -0.1)">
       <use xlink:href="#DejaVuSans-2212"/>
       <use x="83.789062" xlink:href="#DejaVuSans-31"/>
      </g>
     </g>
    </g>
    <g id="ytick_3">
     <g id="line2d_6">
      <g>
       <use style="stroke:#000000;stroke-width:0.8;" x="29.7" xlink:href="#mbe33f07726" y="91.244283"/>
      </g>
     </g>
     <g id="text_6">
      <!-- 0 -->
      <g transform="translate(16.3375 95.043501)scale(0.1 -0.1)">
       <use xlink:href="#DejaVuSans-30"/>
      </g>
     </g>
    </g>
    <g id="ytick_4">
     <g id="line2d_7">
      <g>
       <use style="stroke:#000000;stroke-width:0.8;" x="29.7" xlink:href="#mbe33f07726" y="59.572141"/>
      </g>
     </g>
     <g id="text_7">
      <!-- 1 -->
      <g transform="translate(16.3375 63.37136)scale(0.1 -0.1)">
       <use xlink:href="#DejaVuSans-31"/>
      </g>
     </g>
    </g>
    <g id="ytick_5">
     <g id="line2d_8">
      <g>
       <use style="stroke:#000000;stroke-width:0.8;" x="29.7" xlink:href="#mbe33f07726" y="27.9"/>
      </g>
     </g>
     <g id="text_8">
      <!-- 2 -->
      <g transform="translate(16.3375 31.699219)scale(0.1 -0.1)">
       <use xlink:href="#DejaVuSans-32"/>
      </g>
     </g>
    </g>
   </g>
   <g id="line2d_9">
    <path clip-path="url(#p9a380bba78)" d="M 38.07 27.9 
L 38.678727 65.075362 
L 39.896182 65.383164 
L 40.504909 64.909698 
L 41.113636 66.636209 
L 41.722364 67.218607 
L 42.331091 66.04222 
L 42.939818 65.554637 
L 44.157273 67.059517 
L 44.766 66.821848 
L 45.374727 67.277308 
L 46.592182 66.749803 
L 47.200909 65.122055 
L 48.418364 66.540071 
L 49.027091 66.04428 
L 49.635818 66.131364 
L 50.244545 68.151496 
L 50.853273 65.530628 
L 51.462 66.19632 
L 52.070727 66.284024 
L 52.679455 64.116514 
L 53.288182 65.099627 
L 53.896909 64.1035 
L 54.505636 66.583934 
L 55.114364 64.998304 
L 55.723091 65.528862 
L 56.331818 68.721433 
L 57.549273 66.452354 
L 58.158 65.885322 
L 58.766727 66.676946 
L 59.375455 63.968062 
L 59.984182 65.493586 
L 60.592909 66.53489 
L 61.201636 63.02931 
L 61.810364 67.849994 
L 62.419091 65.531734 
L 63.027818 65.583845 
L 63.636545 66.836879 
L 64.245273 63.627691 
L 64.854 63.407258 
L 65.462727 67.988142 
L 66.071455 63.551334 
L 66.680182 66.108382 
L 67.288909 66.626534 
L 67.897636 65.803721 
L 68.506364 65.2268 
L 69.115091 64.366428 
L 69.723818 65.473515 
L 70.332545 65.122468 
L 70.941273 65.445265 
L 72.158727 64.463389 
L 72.767455 66.497957 
L 73.376182 65.060295 
L 73.984909 65.740016 
L 74.593636 65.85118 
L 75.202364 63.666353 
L 75.811091 64.033012 
L 77.028545 63.573311 
L 78.246 64.930438 
L 78.854727 63.637912 
L 80.072182 64.968851 
L 80.680909 63.298327 
L 81.898364 65.184688 
L 82.507091 64.087623 
L 83.115818 64.412439 
L 83.724545 63.695894 
L 84.333273 64.617571 
L 84.942 72.935334 
L 86.159455 143.266237 
L 86.768182 150.669467 
L 87.376909 153.819021 
L 87.985636 151.941281 
L 88.594364 151.670478 
L 89.203091 152.522046 
L 89.811818 151.396656 
L 90.420545 152.101098 
L 91.029273 153.9 
L 91.638 152.469008 
L 92.246727 151.719113 
L 92.855455 153.250499 
L 93.464182 153.06225 
L 94.072909 152.043886 
L 94.681636 150.637852 
L 95.899091 151.007678 
L 96.507818 148.808209 
L 97.116545 149.84252 
L 97.725273 148.798799 
L 98.334 149.966805 
L 98.942727 146.273361 
L 99.551455 149.026395 
L 100.160182 148.92488 
L 100.768909 148.644103 
L 101.377636 146.963 
L 101.986364 146.643178 
L 102.595091 150.791151 
L 103.203818 148.037525 
L 103.812545 144.363768 
L 104.421273 146.201614 
L 105.03 146.05642 
L 105.638727 144.566727 
L 106.247455 142.564594 
L 107.464909 143.673328 
L 108.073636 141.28885 
L 108.682364 142.056105 
L 109.291091 140.418031 
L 109.899818 141.480935 
L 110.508545 140.600719 
L 111.726 137.931549 
L 112.334727 135.736629 
L 113.552182 136.527986 
L 114.160909 136.708479 
L 114.769636 135.783602 
L 115.378364 136.835798 
L 116.595818 132.953652 
L 117.204545 133.198126 
L 117.813273 131.808235 
L 118.422 131.262331 
L 119.030727 133.161494 
L 120.248182 130.827162 
L 120.856909 127.719384 
L 122.074364 128.760289 
L 122.683091 127.198437 
L 123.291818 128.213168 
L 123.900545 124.390676 
L 124.509273 123.338987 
L 125.118 123.816841 
L 126.335455 122.069349 
L 126.944182 120.379282 
L 127.552909 120.591335 
L 128.161636 118.034491 
L 128.770364 117.041014 
L 129.379091 117.202677 
L 129.987818 116.644616 
L 130.596545 112.761143 
L 131.205273 113.188075 
L 131.814 110.999273 
L 132.422727 112.150299 
L 133.031455 111.60319 
L 133.640182 108.785157 
L 134.248909 106.605868 
L 134.857636 107.196259 
L 135.466364 105.332344 
L 136.683818 104.669492 
L 137.292545 105.449245 
L 137.901273 100.961549 
L 138.51 100.377744 
L 139.118727 101.215315 
L 139.727455 101.159185 
L 140.336182 100.05228 
L 140.944909 97.286022 
L 141.553636 97.209587 
L 142.162364 94.401076 
L 143.379818 94.033804 
L 143.988545 94.754342 
L 144.597273 92.782932 
L 145.206 92.069299 
L 145.814727 91.621175 
L 146.423455 89.10508 
L 147.032182 88.7406 
L 147.640909 88.568061 
L 148.249636 85.362119 
L 148.858364 85.127896 
L 150.075818 85.305123 
L 150.684545 82.648832 
L 151.293273 81.993501 
L 152.510727 83.576937 
L 153.728182 79.273747 
L 154.336909 82.505177 
L 154.945636 80.12727 
L 156.163091 79.903818 
L 157.380545 78.686198 
L 157.989273 79.404282 
L 158.598 76.981644 
L 159.206727 76.433767 
L 159.815455 76.82454 
L 160.424182 77.924278 
L 161.032909 74.715272 
L 161.641636 77.884629 
L 162.250364 75.515847 
L 162.859091 76.064713 
L 163.467818 75.290325 
L 164.076545 74.88701 
L 164.685273 72.710388 
L 165.294 74.039659 
L 165.902727 70.671629 
L 166.511455 72.822528 
L 167.120182 70.834878 
L 167.728909 72.490171 
L 168.337636 72.390248 
L 168.946364 70.792059 
L 169.555091 72.230106 
L 170.163818 72.117858 
L 171.381273 70.951157 
L 171.99 69.381497 
L 172.598727 68.283866 
L 173.207455 70.250609 
L 173.816182 69.650828 
L 174.424909 70.641576 
L 175.642364 69.190878 
L 176.251091 69.982518 
L 177.468545 70.335262 
L 178.077273 69.313714 
L 178.686 69.808413 
L 179.294727 65.873666 
L 180.512182 69.116615 
L 181.120909 68.404453 
L 181.729636 69.442076 
L 182.338364 69.192 
L 182.947091 66.875921 
L 183.555818 65.963675 
L 184.164545 68.242302 
L 184.773273 65.259448 
L 185.382 66.587411 
L 186.599455 67.674977 
L 187.208182 66.263315 
L 187.816909 68.859943 
L 188.425636 69.724854 
L 189.034364 67.366817 
L 189.643091 67.297762 
L 190.251818 67.744174 
L 191.469273 66.630378 
L 192.078 67.998405 
L 192.686727 66.908135 
L 193.295455 68.312784 
L 193.904182 67.533549 
L 194.512909 66.520951 
L 195.121636 66.753417 
L 195.730364 66.707506 
L 196.339091 67.189922 
L 196.947818 64.88449 
L 197.556545 67.845543 
L 198.165273 65.508908 
L 198.774 69.289127 
L 199.991455 67.331919 
L 200.600182 67.628126 
L 201.208909 68.649686 
L 201.817636 66.295978 
L 202.426364 67.357542 
L 203.035091 67.271486 
L 203.643818 65.888863 
L 204.252545 65.607521 
L 204.861273 66.461797 
L 205.47 66.802758 
L 205.47 66.802758 
" style="fill:none;stroke:#1f77b4;stroke-linecap:square;stroke-width:1.5;"/>
   </g>
   <g id="patch_3">
    <path d="M 29.7 160.2 
L 29.7 21.6 
" style="fill:none;stroke:#000000;stroke-linecap:square;stroke-linejoin:miter;stroke-width:0.8;"/>
   </g>
   <g id="patch_4">
    <path d="M 213.84 160.2 
L 213.84 21.6 
" style="fill:none;stroke:#000000;stroke-linecap:square;stroke-linejoin:miter;stroke-width:0.8;"/>
   </g>
   <g id="patch_5">
    <path d="M 29.7 160.2 
L 213.84 160.2 
" style="fill:none;stroke:#000000;stroke-linecap:square;stroke-linejoin:miter;stroke-width:0.8;"/>
   </g>
   <g id="patch_6">
    <path d="M 29.7 21.6 
L 213.84 21.6 
" style="fill:none;stroke:#000000;stroke-linecap:square;stroke-linejoin:miter;stroke-width:0.8;"/>
   </g>
  </g>
 </g>
 <defs>
  <clipPath id="p9a380bba78">
   <rect height="138.6" width="184.14" x="29.7" y="21.6"/>
  </clipPath>
 </defs>
</svg>
