<?xml version="1.0" encoding="utf-8" standalone="no"?>
<!DOCTYPE svg PUBLIC "-//W3C//DTD SVG 1.1//EN"
  "http://www.w3.org/Graphics/SVG/1.1/DTD/svg11.dtd">
<svg height="345.6pt" version="1.1" viewBox="0 0 460.8 345.6" width="460.8pt" xmlns="http://www.w3.org/2000/svg" xmlns:xlink="http://www.w3.org/1999/xlink">
 <metadata>
  <rdf:RDF xmlns:cc="http://creativecommons.org/ns#" xmlns:dc="http://purl.org/dc/elements/1.1/" xmlns:rdf="http://www.w3.org/1999/02/22-rdf-syntax-ns#">
   <cc:Work>
    <dc:type rdf:resource="http://purl.org/dc/dcmitype/StillImage"/>
    <dc:date>2022-05-17T17:59:28.375811</dc:date>
    <dc:format>image/svg+xml</dc:format>
    <dc:creator>
     <cc:Agent>
      <dc:title>Matplotlib v3.4.2, https://matplotlib.org/</dc:title>
     </cc:Agent>
    </dc:creator>
   </cc:Work>
  </rdf:RDF>
 </metadata>
 <defs>
  <style type="text/css">*{stroke-linecap:butt;stroke-linejoin:round;}</style>
 </defs>
 <g id="figure_1">
  <g id="patch_1">
   <path d="M 0 345.6 
L 460.8 345.6 
L 460.8 0 
L 0 0 
z
" style="fill:#ffffff;"/>
  </g>
  <g id="axes_1">
   <g id="patch_2">
    <path d="M 57.6 307.584 
L 414.72 307.584 
L 414.72 41.472 
L 57.6 41.472 
z
" style="fill:#ffffff;"/>
   </g>
   <g id="matplotlib.axis_1">
    <g id="xtick_1">
     <g id="line2d_1">
      <defs>
       <path d="M 0 0 
L 0 3.5 
" id="m2f8c091d23" style="stroke:#000000;stroke-width:0.8;"/>
      </defs>
      <g>
       <use style="stroke:#000000;stroke-width:0.8;" x="73.832727" xlink:href="#m2f8c091d23" y="307.584"/>
      </g>
     </g>
     <g id="text_1">
      <!-- 0 -->
      <g transform="translate(70.651477 322.182437)scale(0.1 -0.1)">
       <defs>
        <path d="M 2034 4250 
Q 1547 4250 1301 3770 
Q 1056 3291 1056 2328 
Q 1056 1369 1301 889 
Q 1547 409 2034 409 
Q 2525 409 2770 889 
Q 3016 1369 3016 2328 
Q 3016 3291 2770 3770 
Q 2525 4250 2034 4250 
z
M 2034 4750 
Q 2819 4750 3233 4129 
Q 3647 3509 3647 2328 
Q 3647 1150 3233 529 
Q 2819 -91 2034 -91 
Q 1250 -91 836 529 
Q 422 1150 422 2328 
Q 422 3509 836 4129 
Q 1250 4750 2034 4750 
z
" id="DejaVuSans-30" transform="scale(0.015625)"/>
       </defs>
       <use xlink:href="#DejaVuSans-30"/>
      </g>
     </g>
    </g>
    <g id="xtick_2">
     <g id="line2d_2">
      <g>
       <use style="stroke:#000000;stroke-width:0.8;" x="138.763636" xlink:href="#m2f8c091d23" y="307.584"/>
      </g>
     </g>
     <g id="text_2">
      <!-- 100 -->
      <g transform="translate(129.219886 322.182437)scale(0.1 -0.1)">
       <defs>
        <path d="M 794 531 
L 1825 531 
L 1825 4091 
L 703 3866 
L 703 4441 
L 1819 4666 
L 2450 4666 
L 2450 531 
L 3481 531 
L 3481 0 
L 794 0 
L 794 531 
z
" id="DejaVuSans-31" transform="scale(0.015625)"/>
       </defs>
       <use xlink:href="#DejaVuSans-31"/>
       <use x="63.623047" xlink:href="#DejaVuSans-30"/>
       <use x="127.246094" xlink:href="#DejaVuSans-30"/>
      </g>
     </g>
    </g>
    <g id="xtick_3">
     <g id="line2d_3">
      <g>
       <use style="stroke:#000000;stroke-width:0.8;" x="203.694545" xlink:href="#m2f8c091d23" y="307.584"/>
      </g>
     </g>
     <g id="text_3">
      <!-- 200 -->
      <g transform="translate(194.150795 322.182437)scale(0.1 -0.1)">
       <defs>
        <path d="M 1228 531 
L 3431 531 
L 3431 0 
L 469 0 
L 469 531 
Q 828 903 1448 1529 
Q 2069 2156 2228 2338 
Q 2531 2678 2651 2914 
Q 2772 3150 2772 3378 
Q 2772 3750 2511 3984 
Q 2250 4219 1831 4219 
Q 1534 4219 1204 4116 
Q 875 4013 500 3803 
L 500 4441 
Q 881 4594 1212 4672 
Q 1544 4750 1819 4750 
Q 2544 4750 2975 4387 
Q 3406 4025 3406 3419 
Q 3406 3131 3298 2873 
Q 3191 2616 2906 2266 
Q 2828 2175 2409 1742 
Q 1991 1309 1228 531 
z
" id="DejaVuSans-32" transform="scale(0.015625)"/>
       </defs>
       <use xlink:href="#DejaVuSans-32"/>
       <use x="63.623047" xlink:href="#DejaVuSans-30"/>
       <use x="127.246094" xlink:href="#DejaVuSans-30"/>
      </g>
     </g>
    </g>
    <g id="xtick_4">
     <g id="line2d_4">
      <g>
       <use style="stroke:#000000;stroke-width:0.8;" x="268.625455" xlink:href="#m2f8c091d23" y="307.584"/>
      </g>
     </g>
     <g id="text_4">
      <!-- 300 -->
      <g transform="translate(259.081705 322.182437)scale(0.1 -0.1)">
       <defs>
        <path d="M 2597 2516 
Q 3050 2419 3304 2112 
Q 3559 1806 3559 1356 
Q 3559 666 3084 287 
Q 2609 -91 1734 -91 
Q 1441 -91 1130 -33 
Q 819 25 488 141 
L 488 750 
Q 750 597 1062 519 
Q 1375 441 1716 441 
Q 2309 441 2620 675 
Q 2931 909 2931 1356 
Q 2931 1769 2642 2001 
Q 2353 2234 1838 2234 
L 1294 2234 
L 1294 2753 
L 1863 2753 
Q 2328 2753 2575 2939 
Q 2822 3125 2822 3475 
Q 2822 3834 2567 4026 
Q 2313 4219 1838 4219 
Q 1578 4219 1281 4162 
Q 984 4106 628 3988 
L 628 4550 
Q 988 4650 1302 4700 
Q 1616 4750 1894 4750 
Q 2613 4750 3031 4423 
Q 3450 4097 3450 3541 
Q 3450 3153 3228 2886 
Q 3006 2619 2597 2516 
z
" id="DejaVuSans-33" transform="scale(0.015625)"/>
       </defs>
       <use xlink:href="#DejaVuSans-33"/>
       <use x="63.623047" xlink:href="#DejaVuSans-30"/>
       <use x="127.246094" xlink:href="#DejaVuSans-30"/>
      </g>
     </g>
    </g>
    <g id="xtick_5">
     <g id="line2d_5">
      <g>
       <use style="stroke:#000000;stroke-width:0.8;" x="333.556364" xlink:href="#m2f8c091d23" y="307.584"/>
      </g>
     </g>
     <g id="text_5">
      <!-- 400 -->
      <g transform="translate(324.012614 322.182437)scale(0.1 -0.1)">
       <defs>
        <path d="M 2419 4116 
L 825 1625 
L 2419 1625 
L 2419 4116 
z
M 2253 4666 
L 3047 4666 
L 3047 1625 
L 3713 1625 
L 3713 1100 
L 3047 1100 
L 3047 0 
L 2419 0 
L 2419 1100 
L 313 1100 
L 313 1709 
L 2253 4666 
z
" id="DejaVuSans-34" transform="scale(0.015625)"/>
       </defs>
       <use xlink:href="#DejaVuSans-34"/>
       <use x="63.623047" xlink:href="#DejaVuSans-30"/>
       <use x="127.246094" xlink:href="#DejaVuSans-30"/>
      </g>
     </g>
    </g>
    <g id="xtick_6">
     <g id="line2d_6">
      <g>
       <use style="stroke:#000000;stroke-width:0.8;" x="398.487273" xlink:href="#m2f8c091d23" y="307.584"/>
      </g>
     </g>
     <g id="text_6">
      <!-- 500 -->
      <g transform="translate(388.943523 322.182437)scale(0.1 -0.1)">
       <defs>
        <path d="M 691 4666 
L 3169 4666 
L 3169 4134 
L 1269 4134 
L 1269 2991 
Q 1406 3038 1543 3061 
Q 1681 3084 1819 3084 
Q 2600 3084 3056 2656 
Q 3513 2228 3513 1497 
Q 3513 744 3044 326 
Q 2575 -91 1722 -91 
Q 1428 -91 1123 -41 
Q 819 9 494 109 
L 494 744 
Q 775 591 1075 516 
Q 1375 441 1709 441 
Q 2250 441 2565 725 
Q 2881 1009 2881 1497 
Q 2881 1984 2565 2268 
Q 2250 2553 1709 2553 
Q 1456 2553 1204 2497 
Q 953 2441 691 2322 
L 691 4666 
z
" id="DejaVuSans-35" transform="scale(0.015625)"/>
       </defs>
       <use xlink:href="#DejaVuSans-35"/>
       <use x="63.623047" xlink:href="#DejaVuSans-30"/>
       <use x="127.246094" xlink:href="#DejaVuSans-30"/>
      </g>
     </g>
    </g>
   </g>
   <g id="matplotlib.axis_2">
    <g id="ytick_1">
     <g id="line2d_7">
      <defs>
       <path d="M 0 0 
L -3.5 0 
" id="mf0f6a99841" style="stroke:#000000;stroke-width:0.8;"/>
      </defs>
      <g>
       <use style="stroke:#000000;stroke-width:0.8;" x="57.6" xlink:href="#mf0f6a99841" y="285.652711"/>
      </g>
     </g>
     <g id="text_7">
      <!-- −15 -->
      <g transform="translate(29.495313 289.45193)scale(0.1 -0.1)">
       <defs>
        <path d="M 678 2272 
L 4684 2272 
L 4684 1741 
L 678 1741 
L 678 2272 
z
" id="DejaVuSans-2212" transform="scale(0.015625)"/>
       </defs>
       <use xlink:href="#DejaVuSans-2212"/>
       <use x="83.789062" xlink:href="#DejaVuSans-31"/>
       <use x="147.412109" xlink:href="#DejaVuSans-35"/>
      </g>
     </g>
    </g>
    <g id="ytick_2">
     <g id="line2d_8">
      <g>
       <use style="stroke:#000000;stroke-width:0.8;" x="57.6" xlink:href="#mf0f6a99841" y="227.109327"/>
      </g>
     </g>
     <g id="text_8">
      <!-- −10 -->
      <g transform="translate(29.495313 230.908545)scale(0.1 -0.1)">
       <use xlink:href="#DejaVuSans-2212"/>
       <use x="83.789062" xlink:href="#DejaVuSans-31"/>
       <use x="147.412109" xlink:href="#DejaVuSans-30"/>
      </g>
     </g>
    </g>
    <g id="ytick_3">
     <g id="line2d_9">
      <g>
       <use style="stroke:#000000;stroke-width:0.8;" x="57.6" xlink:href="#mf0f6a99841" y="168.565942"/>
      </g>
     </g>
     <g id="text_9">
      <!-- −5 -->
      <g transform="translate(35.857813 172.36516)scale(0.1 -0.1)">
       <use xlink:href="#DejaVuSans-2212"/>
       <use x="83.789062" xlink:href="#DejaVuSans-35"/>
      </g>
     </g>
    </g>
    <g id="ytick_4">
     <g id="line2d_10">
      <g>
       <use style="stroke:#000000;stroke-width:0.8;" x="57.6" xlink:href="#mf0f6a99841" y="110.022557"/>
      </g>
     </g>
     <g id="text_10">
      <!-- 0 -->
      <g transform="translate(44.2375 113.821776)scale(0.1 -0.1)">
       <use xlink:href="#DejaVuSans-30"/>
      </g>
     </g>
    </g>
    <g id="ytick_5">
     <g id="line2d_11">
      <g>
       <use style="stroke:#000000;stroke-width:0.8;" x="57.6" xlink:href="#mf0f6a99841" y="51.479172"/>
      </g>
     </g>
     <g id="text_11">
      <!-- 5 -->
      <g transform="translate(44.2375 55.278391)scale(0.1 -0.1)">
       <use xlink:href="#DejaVuSans-35"/>
      </g>
     </g>
    </g>
   </g>
   <g id="line2d_12">
    <path clip-path="url(#p4ae7c543ad)" d="M 73.832727 202.200287 
L 74.482036 198.372721 
L 76.429964 234.731675 
L 77.079273 238.244278 
L 78.377891 217.509382 
L 79.0272 215.1173 
L 79.676509 223.888269 
L 80.325818 224.047507 
L 80.975127 215.755422 
L 82.273745 226.918475 
L 82.923055 225.005277 
L 83.572364 220.221112 
L 84.221673 220.539588 
L 84.870982 223.250147 
L 85.520291 221.336949 
L 86.1696 219.901465 
L 86.818909 221.018473 
L 87.468218 223.250147 
L 88.117527 228.514368 
L 88.766836 229.146636 
L 89.416145 233.455429 
L 90.065455 257.376256 
L 90.714764 295.488 
L 91.364073 283.849575 
L 92.013382 250.842815 
L 92.662691 225.482991 
L 93.312 209.376535 
L 93.961309 206.34633 
L 94.610618 213.522578 
L 95.259927 228.830502 
L 95.909236 225.6434 
L 97.207855 199.488558 
L 97.857164 199.647796 
L 98.506473 203.6346 
L 99.155782 209.056888 
L 99.805091 211.60938 
L 100.4544 209.854249 
L 101.103709 205.548969 
L 101.753018 207.941051 
L 102.402327 208.89765 
L 103.051636 208.419936 
L 103.700945 218.785628 
L 104.350255 225.961876 
L 104.999564 225.164515 
L 105.648873 225.961876 
L 106.947491 238.724334 
L 107.5968 239.192681 
L 108.246109 235.844 
L 108.895418 250.198837 
L 109.544727 272.527284 
L 110.194036 282.737251 
L 110.843345 265.513787 
L 111.492655 230.586804 
L 112.141964 214.798824 
L 112.791273 210.812019 
L 113.440582 219.423751 
L 114.089891 226.440761 
L 114.7392 227.238122 
L 115.388509 225.164515 
L 116.037818 217.988267 
L 116.687127 200.605565 
L 117.336436 197.416122 
L 117.985745 195.342515 
L 118.635055 197.096475 
L 119.284364 205.708207 
L 119.933673 212.725217 
L 120.582982 205.548969 
L 121.232291 203.316124 
L 121.8816 205.867445 
L 122.530909 208.89765 
L 123.180218 210.971257 
L 123.829527 214.160701 
L 124.478836 218.306743 
L 125.128145 220.539588 
L 125.777455 220.698826 
L 126.426764 221.815834 
L 127.076073 223.410555 
L 127.725382 223.569793 
L 129.024 223.250147 
L 129.673309 218.785628 
L 130.322618 228.994424 
L 130.971927 270.290927 
L 131.621236 279.224648 
L 132.270545 242.225228 
L 132.919855 235.211731 
L 133.569164 242.553071 
L 134.218473 243.817609 
L 135.517091 212.406741 
L 136.1664 213.36334 
L 136.815709 220.221112 
L 137.465018 222.613195 
L 138.114327 213.522578 
L 138.763636 201.721402 
L 139.412945 197.893836 
L 140.062255 198.691197 
L 140.711564 202.518763 
L 141.360873 204.751608 
L 142.659491 197.416122 
L 143.3088 200.924041 
L 143.958109 208.579174 
L 145.906036 221.336949 
L 146.555345 221.815834 
L 147.204655 216.393545 
L 147.853964 217.829029 
L 148.503273 222.613195 
L 149.152582 221.975072 
L 149.801891 222.931671 
L 150.4512 225.482991 
L 151.100509 232.026971 
L 151.749818 233.303217 
L 152.399127 232.343105 
L 153.048436 232.659239 
L 153.697745 233.771564 
L 154.347055 245.257776 
L 154.996364 262.48124 
L 155.645673 274.763642 
L 156.294982 271.567173 
L 156.944291 243.817609 
L 157.5936 221.018473 
L 158.242909 212.087094 
L 158.892218 213.522578 
L 159.541527 222.931671 
L 160.190836 224.526392 
L 160.840145 218.785628 
L 161.489455 214.638415 
L 162.138764 214.001463 
L 162.788073 212.246332 
L 163.437382 216.234307 
L 164.086691 213.522578 
L 164.736 207.302929 
L 165.385309 206.34633 
L 166.034618 208.419936 
L 166.683927 200.285918 
L 167.333236 196.777999 
L 168.631855 203.316124 
L 169.281164 204.431961 
L 169.930473 209.217297 
L 170.579782 218.944866 
L 171.229091 222.452786 
L 171.8784 222.931671 
L 172.527709 221.815834 
L 173.177018 221.496187 
L 173.826327 219.104104 
L 174.475636 217.829029 
L 175.124945 218.465981 
L 175.774255 220.539588 
L 176.423564 220.38035 
L 177.072873 222.452786 
L 177.722182 228.514368 
L 178.371491 231.066859 
L 179.0208 234.895597 
L 179.670109 261.521128 
L 180.319418 267.750144 
L 180.968727 259.612614 
L 181.618036 253.067463 
L 182.267345 249.566569 
L 182.916655 247.494133 
L 183.565964 241.59296 
L 184.215273 232.179184 
L 184.864582 225.961876 
L 185.513891 230.422882 
L 186.1632 230.422882 
L 186.812509 225.961876 
L 187.461818 214.798824 
L 188.111127 200.12668 
L 188.760436 193.907031 
L 189.409745 191.196473 
L 190.708364 189.441342 
L 191.357673 190.55835 
L 192.656291 199.170082 
L 193.3056 203.954247 
L 193.954909 207.781813 
L 194.604218 222.931671 
L 195.902836 223.569793 
L 196.552145 228.514368 
L 197.201455 222.293548 
L 197.850764 220.060703 
L 198.500073 227.238122 
L 199.149382 226.599999 
L 199.798691 224.207916 
L 200.448 223.250147 
L 201.097309 221.815834 
L 201.746618 225.961876 
L 202.395927 238.724334 
L 203.694545 280.664815 
L 204.343855 275.243698 
L 204.993164 252.435195 
L 205.642473 235.691787 
L 206.291782 224.367154 
L 206.941091 222.452786 
L 207.5904 226.599999 
L 208.239709 222.13431 
L 208.889018 218.465981 
L 210.187636 219.742227 
L 210.836945 219.423751 
L 212.135564 209.854249 
L 212.784873 206.027854 
L 213.434182 200.924041 
L 214.083491 199.010844 
L 214.7328 197.734598 
L 215.382109 198.213483 
L 216.031418 202.518763 
L 216.680727 208.419936 
L 217.330036 208.89765 
L 217.979345 208.89765 
L 218.628655 215.91466 
L 219.277964 218.785628 
L 219.927273 215.755422 
L 220.576582 216.871259 
L 221.225891 220.858064 
L 221.8752 227.718178 
L 222.524509 225.482991 
L 223.173818 221.018473 
L 223.823127 227.077713 
L 225.121745 259.612614 
L 225.771055 257.376256 
L 226.420364 250.842815 
L 227.069673 251.475083 
L 227.718982 247.16629 
L 229.0176 212.565979 
L 229.666909 203.316124 
L 230.316218 208.579174 
L 230.965527 219.423751 
L 231.614836 225.323753 
L 232.264145 219.901465 
L 232.913455 212.725217 
L 233.562764 213.043693 
L 234.212073 210.333134 
L 234.861382 208.100289 
L 236.16 199.488558 
L 236.809309 197.57536 
L 238.107927 204.431961 
L 238.757236 205.548969 
L 240.705164 216.552783 
L 241.354473 213.043693 
L 242.003782 218.465981 
L 242.653091 225.961876 
L 243.951709 217.988267 
L 244.601018 218.785628 
L 245.250327 219.901465 
L 245.899636 222.931671 
L 246.548945 227.554256 
L 247.198255 230.586804 
L 247.847564 230.422882 
L 248.496873 238.396491 
L 249.146182 244.77772 
L 249.795491 265.513787 
L 250.4448 280.348681 
L 251.094109 280.980949 
L 251.743418 257.692391 
L 252.392727 218.62639 
L 253.042036 209.056888 
L 253.691345 213.36334 
L 254.340655 220.38035 
L 254.989964 221.336949 
L 256.288582 209.695011 
L 256.937891 211.448971 
L 257.5872 211.60938 
L 258.885818 204.751608 
L 259.535127 205.867445 
L 260.184436 204.751608 
L 260.833745 201.88064 
L 261.483055 203.316124 
L 262.781673 210.014658 
L 263.430982 211.130495 
L 264.080291 211.60938 
L 264.7296 214.638415 
L 265.378909 213.522578 
L 266.028218 211.130495 
L 266.677527 215.1173 
L 267.326836 222.13431 
L 267.976145 226.599999 
L 269.274764 234.567754 
L 269.924073 255.783876 
L 270.573382 285.441955 
L 271.222691 266.309977 
L 271.872 237.600301 
L 273.170618 218.306743 
L 273.819927 215.276538 
L 274.469236 220.698826 
L 275.118545 221.655425 
L 275.767855 209.695011 
L 276.417164 205.708207 
L 277.066473 203.954247 
L 277.715782 201.721402 
L 278.365091 204.113485 
L 279.0144 205.548969 
L 280.313018 202.200287 
L 280.962327 201.402926 
L 281.611636 201.402926 
L 282.260945 202.518763 
L 282.910255 207.302929 
L 283.559564 209.854249 
L 284.208873 217.988267 
L 284.858182 217.829029 
L 285.507491 224.68563 
L 286.1568 224.047507 
L 286.806109 223.250147 
L 287.455418 224.844868 
L 288.754036 230.106748 
L 289.403345 232.179184 
L 290.052655 232.026971 
L 290.701964 234.567754 
L 291.351273 249.086513 
L 292.000582 273.639609 
L 292.649891 280.664815 
L 293.2992 271.567173 
L 293.948509 247.014077 
L 294.597818 227.718178 
L 295.247127 217.988267 
L 295.896436 214.160701 
L 296.545745 217.829029 
L 297.195055 223.888269 
L 297.844364 224.367154 
L 298.493673 218.62639 
L 299.792291 201.88064 
L 300.4416 201.402926 
L 301.090909 205.389731 
L 301.740218 204.910846 
L 302.389527 200.285918 
L 303.038836 194.066269 
L 303.688145 193.907031 
L 304.337455 200.764803 
L 304.986764 208.89765 
L 306.934691 226.599999 
L 307.584 230.750725 
L 308.233309 229.310558 
L 308.882618 220.539588 
L 309.531927 214.638415 
L 310.181236 214.638415 
L 310.830545 218.785628 
L 311.479855 228.514368 
L 312.129164 233.455429 
L 312.778473 232.975374 
L 313.427782 240.79677 
L 314.7264 275.39591 
L 315.375709 266.146056 
L 316.025018 249.882703 
L 316.674327 244.145452 
L 317.323636 232.659239 
L 317.972945 223.729031 
L 318.622255 220.698826 
L 319.271564 223.250147 
L 319.920873 222.293548 
L 320.570182 223.569793 
L 321.219491 220.858064 
L 321.8688 211.927856 
L 322.518109 206.664806 
L 323.167418 199.488558 
L 323.816727 196.139876 
L 324.466036 197.893836 
L 325.115345 196.299114 
L 325.764655 195.820229 
L 326.413964 198.691197 
L 327.063273 207.143691 
L 329.0112 223.569793 
L 329.660509 221.815834 
L 330.309818 219.104104 
L 330.959127 220.221112 
L 331.608436 220.060703 
L 332.257745 218.944866 
L 332.907055 219.901465 
L 334.205673 217.66862 
L 334.854982 222.931671 
L 335.504291 225.482991 
L 336.1536 240.468927 
L 336.802909 248.126402 
L 338.101527 269.014681 
L 338.750836 275.39591 
L 339.400145 270.138714 
L 341.348073 225.005277 
L 341.997382 221.336949 
L 343.945309 207.143691 
L 344.594618 209.695011 
L 345.243927 214.638415 
L 345.893236 214.319939 
L 346.542545 211.927856 
L 347.191855 208.100289 
L 348.490473 201.721402 
L 349.139782 202.039878 
L 350.4384 203.954247 
L 351.087709 206.664806 
L 351.737018 213.36334 
L 352.386327 210.971257 
L 353.035636 220.221112 
L 353.684945 213.36334 
L 354.334255 211.768618 
L 354.983564 211.927856 
L 355.632873 212.565979 
L 356.282182 218.465981 
L 356.931491 223.250147 
L 357.5808 225.164515 
L 358.230109 220.38035 
L 358.879418 222.772433 
L 359.528727 231.066859 
L 360.178036 233.455429 
L 360.827345 239.040468 
L 362.125964 255.303821 
L 362.775273 255.947798 
L 363.424582 261.368915 
L 364.073891 262.961295 
L 364.7232 256.416145 
L 366.021818 223.250147 
L 366.671127 218.465981 
L 367.320436 218.306743 
L 367.969745 219.263342 
L 368.619055 217.988267 
L 369.268364 219.423751 
L 369.917673 217.190906 
L 371.8656 199.808204 
L 372.514909 201.402926 
L 373.164218 203.954247 
L 373.813527 205.070084 
L 374.462836 203.954247 
L 375.112145 200.12668 
L 375.761455 201.88064 
L 376.410764 205.867445 
L 377.060073 213.36334 
L 377.709382 218.306743 
L 379.008 222.452786 
L 379.657309 221.815834 
L 380.306618 220.38035 
L 381.605236 224.844868 
L 382.254545 225.6434 
L 382.903855 225.802638 
L 383.553164 223.729031 
L 384.202473 217.509382 
L 384.851782 218.465981 
L 386.1504 222.13431 
L 386.799709 224.844868 
L 387.449018 222.452786 
L 388.098327 222.772433 
L 389.396945 225.961876 
L 390.046255 223.569793 
L 390.695564 223.250147 
L 391.344873 226.280352 
L 391.994182 235.844 
L 392.643491 240.00058 
L 393.2928 249.402647 
L 393.942109 262.001184 
L 394.591418 269.178603 
L 395.240727 267.106167 
L 395.890036 257.540178 
L 397.188655 231.546915 
L 397.837964 226.918475 
L 397.837964 226.918475 
" style="fill:none;stroke:#1f77b4;stroke-linecap:square;stroke-width:1.5;"/>
   </g>
   <g id="line2d_13">
    <path clip-path="url(#p4ae7c543ad)" d="M 73.832727 102.52713 
L 74.482036 97.264782 
L 75.131345 86.738682 
L 75.780655 99.337687 
L 76.429964 107.311413 
L 77.079273 104.440913 
L 77.728582 100.932408 
L 78.377891 99.178214 
L 79.676509 89.768887 
L 80.325818 92.320208 
L 80.975127 94.075339 
L 81.624436 88.971527 
L 82.923055 88.014928 
L 83.572364 91.204371 
L 84.221673 100.135048 
L 84.870982 103.962497 
L 86.1696 107.151941 
L 86.818909 106.035635 
L 87.468218 105.238274 
L 88.117527 105.557219 
L 88.766836 105.397747 
L 89.416145 93.277978 
L 90.065455 73.502023 
L 90.714764 63.295569 
L 91.364073 87.058329 
L 92.013382 94.553053 
L 92.662691 87.536043 
L 93.312 77.011113 
L 93.961309 71.270349 
L 94.610618 71.10994 
L 95.909236 89.291173 
L 96.558545 93.91493 
L 97.207855 94.234577 
L 97.857164 96.147775 
L 98.506473 94.234577 
L 99.155782 92.799093 
L 99.805091 90.088534 
L 100.4544 87.85569 
L 101.753018 95.350414 
L 102.402327 96.62666 
L 103.051636 97.264782 
L 103.700945 116.082617 
L 104.350255 115.763672 
L 104.999564 113.850006 
L 106.298182 106.35458 
L 107.5968 94.234577 
L 108.246109 98.699798 
L 108.895418 98.380736 
L 110.194036 76.532228 
L 110.843345 83.708476 
L 111.492655 96.147775 
L 112.141964 95.031938 
L 112.791273 87.85569 
L 113.440582 84.666246 
L 114.089891 91.842494 
L 115.388509 103.165136 
L 116.037818 105.557219 
L 117.336436 92.16097 
L 117.985745 87.376805 
L 118.635055 85.14396 
L 119.284364 88.174166 
L 119.933673 90.566248 
L 120.582982 90.088534 
L 121.232291 94.553053 
L 121.8816 95.829299 
L 122.530909 93.91493 
L 123.180218 90.885895 
L 123.829527 92.16097 
L 125.128145 93.91493 
L 125.777455 93.596454 
L 126.426764 87.696452 
L 127.076073 88.014928 
L 127.725382 90.088534 
L 128.374691 89.291173 
L 129.024 88.174166 
L 129.673309 88.174166 
L 130.322618 74.299383 
L 130.971927 54.844246 
L 131.621236 63.295569 
L 132.270545 76.532228 
L 132.919855 72.704662 
L 133.569164 63.615216 
L 134.218473 62.498208 
L 134.867782 72.704662 
L 135.517091 80.200557 
L 136.1664 79.882081 
L 136.815709 75.416391 
L 137.465018 75.257153 
L 138.114327 79.562434 
L 139.412945 85.622845 
L 140.711564 88.014928 
L 141.360873 92.320208 
L 142.010182 98.540209 
L 142.659491 101.410825 
L 143.3088 103.324608 
L 143.958109 106.673524 
L 145.256727 102.52713 
L 145.906036 108.268363 
L 146.555345 109.703601 
L 147.204655 106.992468 
L 147.853964 103.165136 
L 148.503273 102.52713 
L 149.801891 114.168951 
L 150.4512 113.212118 
L 151.749818 96.467422 
L 152.399127 92.16097 
L 153.048436 91.363609 
L 153.697745 92.320208 
L 154.347055 89.130765 
L 154.996364 89.928125 
L 156.294982 79.243958 
L 156.944291 84.028123 
L 157.5936 91.045133 
L 158.242909 88.014928 
L 159.541527 76.054514 
L 160.190836 76.532228 
L 161.489455 92.001732 
L 162.138764 94.712291 
L 162.788073 95.350414 
L 163.437382 95.670061 
L 164.086691 93.117569 
L 164.736 93.437216 
L 165.385309 95.988537 
L 166.034618 97.105544 
L 166.683927 96.467422 
L 167.333236 94.712291 
L 167.982545 92.480617 
L 168.631855 92.320208 
L 169.281164 91.842494 
L 169.930473 88.493813 
L 170.579782 90.566248 
L 171.229091 90.725486 
L 171.8784 90.725486 
L 172.527709 91.522847 
L 173.177018 91.842494 
L 173.826327 92.639855 
L 174.475636 92.639855 
L 175.124945 92.799093 
L 175.774255 94.553053 
L 176.423564 96.785898 
L 177.072873 96.785898 
L 178.371491 110.660457 
L 179.0208 94.234577 
L 179.670109 82.592639 
L 180.319418 87.376805 
L 180.968727 87.058329 
L 181.618036 68.558619 
L 182.267345 53.568 
L 182.916655 55.960083 
L 183.565964 67.60202 
L 184.215273 71.588825 
L 184.864582 71.588825 
L 185.513891 74.61903 
L 186.1632 76.532228 
L 186.812509 79.243958 
L 187.461818 80.997918 
L 188.111127 81.795278 
L 188.760436 84.505837 
L 189.409745 91.045133 
L 190.059055 96.147775 
L 190.708364 98.540209 
L 191.357673 99.975575 
L 192.006982 101.091881 
L 192.656291 105.557219 
L 193.3056 107.630357 
L 193.954909 107.789946 
L 195.253527 97.42402 
L 195.902836 95.829299 
L 196.552145 99.816103 
L 197.201455 103.005547 
L 197.850764 105.397747 
L 198.500073 109.384656 
L 199.149382 109.703601 
L 199.798691 105.876163 
L 200.448 100.453992 
L 201.097309 92.799093 
L 201.746618 79.721672 
L 202.395927 72.226948 
L 203.045236 75.416391 
L 203.694545 76.532228 
L 204.993164 86.100559 
L 205.642473 93.117569 
L 206.291782 90.40701 
L 206.941091 79.562434 
L 207.5904 70.791464 
L 208.239709 73.662431 
L 208.889018 77.170351 
L 210.187636 85.14396 
L 210.836945 86.89792 
L 211.486255 93.596454 
L 212.135564 94.553053 
L 212.784873 94.234577 
L 213.434182 91.204371 
L 214.083491 95.670061 
L 214.7328 96.945136 
L 215.382109 94.712291 
L 216.031418 93.117569 
L 217.330036 93.437216 
L 217.979345 91.204371 
L 218.628655 90.088534 
L 219.277964 89.609649 
L 219.927273 90.725486 
L 220.576582 89.291173 
L 221.225891 89.609649 
L 222.524509 93.755692 
L 223.173818 88.971527 
L 223.823127 92.639855 
L 224.472436 83.071524 
L 225.121745 78.765073 
L 225.771055 85.14396 
L 226.420364 72.865071 
L 227.069673 68.878266 
L 227.718982 67.442782 
L 228.368291 69.834865 
L 229.0176 69.994103 
L 229.666909 65.84806 
L 230.316218 62.817855 
L 230.965527 66.485012 
L 231.614836 74.778268 
L 232.913455 83.549238 
L 234.212073 93.277978 
L 234.861382 95.031938 
L 235.510691 99.816103 
L 236.16 100.29452 
L 236.809309 98.380736 
L 237.458618 97.742496 
L 238.107927 99.178214 
L 238.757236 99.178214 
L 239.406545 102.846075 
L 240.055855 108.587307 
L 240.705164 111.776751 
L 241.354473 110.979413 
L 242.003782 108.268363 
L 242.653091 107.151941 
L 243.3024 106.35458 
L 243.951709 108.108891 
L 244.601018 107.311413 
L 245.250327 101.729769 
L 245.899636 100.613464 
L 246.548945 101.729769 
L 247.198255 104.121969 
L 247.847564 105.078802 
L 248.496873 94.393815 
L 249.146182 93.755692 
L 249.795491 101.729769 
L 251.094109 76.532228 
L 251.743418 78.446597 
L 252.392727 90.40701 
L 253.042036 94.8727 
L 253.691345 95.988537 
L 254.340655 96.147775 
L 254.989964 94.712291 
L 255.639273 92.958331 
L 256.288582 92.320208 
L 256.937891 95.031938 
L 257.5872 94.553053 
L 258.236509 95.031938 
L 258.885818 92.958331 
L 259.535127 90.247772 
L 260.184436 95.031938 
L 260.833745 96.945136 
L 261.483055 98.380736 
L 262.132364 97.902905 
L 262.781673 96.467422 
L 263.430982 94.553053 
L 264.080291 95.350414 
L 264.7296 94.234577 
L 265.378909 88.971527 
L 266.028218 85.622845 
L 266.677527 84.825484 
L 267.976145 95.350414 
L 268.625455 94.075339 
L 269.274764 89.291173 
L 269.924073 80.041319 
L 270.573382 78.12695 
L 271.222691 76.851875 
L 271.872 71.270349 
L 272.521309 66.963897 
L 273.170618 66.166536 
L 273.819927 68.399381 
L 274.469236 74.299383 
L 275.118545 77.649236 
L 275.767855 77.011113 
L 277.066473 85.941321 
L 277.715782 88.971527 
L 278.365091 89.768887 
L 279.0144 91.204371 
L 279.663709 93.596454 
L 280.313018 94.553053 
L 280.962327 96.467422 
L 281.611636 96.308184 
L 282.260945 95.829299 
L 282.910255 97.105544 
L 283.559564 98.85927 
L 284.208873 104.121969 
L 284.858182 104.121969 
L 286.1568 112.574229 
L 286.806109 112.414757 
L 287.455418 111.617279 
L 288.104727 112.733701 
L 288.754036 112.095695 
L 289.403345 103.643553 
L 290.052655 98.062143 
L 290.701964 86.89792 
L 291.351273 90.725486 
L 292.000582 80.200557 
L 292.649891 75.096744 
L 293.2992 80.679442 
L 293.948509 91.204371 
L 294.597818 93.596454 
L 295.247127 93.596454 
L 295.896436 93.755692 
L 297.195055 96.147775 
L 297.844364 96.467422 
L 298.493673 96.945136 
L 299.142982 101.410825 
L 299.792291 100.613464 
L 301.090909 92.639855 
L 302.389527 95.350414 
L 303.038836 97.105544 
L 303.688145 93.117569 
L 304.337455 86.100559 
L 304.986764 81.157156 
L 305.636073 81.795278 
L 306.285382 84.346599 
L 306.934691 89.291173 
L 307.584 96.945136 
L 308.233309 102.208186 
L 308.882618 99.656631 
L 309.531927 92.799093 
L 310.181236 92.799093 
L 310.830545 94.234577 
L 312.129164 110.660457 
L 312.778473 102.52713 
L 314.077091 72.386186 
L 314.7264 79.08472 
L 315.375709 88.493813 
L 316.025018 82.592639 
L 316.674327 74.299383 
L 317.323636 72.06771 
L 319.271564 87.376805 
L 319.920873 89.450411 
L 320.570182 89.130765 
L 321.219491 90.725486 
L 321.8688 92.799093 
L 323.167418 99.497159 
L 323.816727 99.975575 
L 324.466036 98.699798 
L 325.115345 101.091881 
L 325.764655 100.932408 
L 326.413964 99.656631 
L 327.063273 101.410825 
L 327.712582 104.121969 
L 329.0112 108.746779 
L 329.660509 111.457806 
L 330.959127 111.776751 
L 331.608436 112.893173 
L 332.257745 110.500985 
L 332.907055 109.384656 
L 333.556364 108.587307 
L 334.205673 108.587307 
L 334.854982 107.789946 
L 335.504291 102.846075 
L 336.1536 94.234577 
L 336.802909 98.380736 
L 337.452218 100.613464 
L 338.101527 95.509652 
L 338.750836 87.536043 
L 339.400145 88.971527 
L 340.049455 92.958331 
L 340.698764 93.596454 
L 341.997382 80.200557 
L 342.646691 86.100559 
L 343.296 94.393815 
L 343.945309 101.251353 
L 344.594618 100.772936 
L 345.243927 99.975575 
L 345.893236 97.583258 
L 347.191855 95.509652 
L 347.841164 89.768887 
L 348.490473 87.536043 
L 349.139782 90.088534 
L 349.789091 95.988537 
L 350.4384 93.755692 
L 351.087709 92.001732 
L 351.737018 92.320208 
L 352.386327 91.522847 
L 353.035636 90.088534 
L 353.684945 91.522847 
L 354.334255 94.393815 
L 354.983564 94.712291 
L 355.632873 90.40701 
L 356.282182 85.14396 
L 356.931491 90.247772 
L 357.5808 96.945136 
L 358.230109 97.583258 
L 358.879418 95.031938 
L 359.528727 99.018742 
L 360.178036 92.958331 
L 360.827345 92.320208 
L 361.476655 95.509652 
L 362.125964 96.945136 
L 362.775273 94.393815 
L 364.073891 68.878266 
L 364.7232 64.412577 
L 366.021818 74.61903 
L 366.671127 70.791464 
L 367.320436 70.791464 
L 368.619055 80.041319 
L 369.268364 81.954516 
L 369.917673 83.230762 
L 370.566982 82.911115 
L 371.216291 84.666246 
L 372.514909 91.204371 
L 373.164218 92.639855 
L 373.813527 90.885895 
L 374.462836 92.958331 
L 375.761455 98.380736 
L 377.060073 109.863085 
L 377.709382 110.500985 
L 378.358691 107.470885 
L 379.008 106.35458 
L 379.657309 108.108891 
L 380.306618 110.341513 
L 380.955927 109.703601 
L 381.605236 108.268363 
L 382.254545 107.311413 
L 382.903855 106.673524 
L 383.553164 106.992468 
L 384.202473 109.544129 
L 384.851782 108.906228 
L 385.501091 107.630357 
L 386.799709 108.906228 
L 387.449018 111.457806 
L 388.098327 105.716691 
L 388.747636 105.238274 
L 389.396945 109.703601 
L 390.046255 113.052645 
L 390.695564 109.0657 
L 391.344873 101.570297 
L 391.994182 96.308184 
L 392.643491 95.670061 
L 393.2928 96.945136 
L 393.942109 95.509652 
L 394.591418 90.40701 
L 395.240727 86.260968 
L 395.890036 87.85569 
L 396.539345 84.825484 
L 397.188655 79.882081 
L 397.837964 79.721672 
L 397.837964 79.721672 
" style="fill:none;stroke:#ff7f0e;stroke-linecap:square;stroke-width:1.5;"/>
   </g>
   <g id="line2d_14">
    <path clip-path="url(#p4ae7c543ad)" d="M 73.832727 124.6947 
L 75.131345 147.977404 
L 75.780655 132.189424 
L 76.429964 134.581507 
L 77.079273 144.469484 
L 77.728582 138.72872 
L 78.377891 130.276226 
L 79.0272 125.492061 
L 79.676509 125.492061 
L 80.325818 128.522266 
L 80.975127 124.853938 
L 81.624436 127.884144 
L 82.273745 124.6947 
L 82.923055 119.591122 
L 83.572364 118.315344 
L 84.221673 120.388483 
L 84.870982 121.185844 
L 85.520291 119.272177 
L 86.1696 115.923145 
L 86.818909 114.168951 
L 87.468218 116.401561 
L 88.117527 120.707427 
L 88.766836 125.969775 
L 89.416145 141.598517 
L 90.065455 164.723154 
L 90.714764 175.726969 
L 92.013382 144.469484 
L 92.662691 147.658928 
L 93.312 145.74573 
L 93.961309 147.49969 
L 94.610618 151.965379 
L 95.259927 157.227259 
L 95.909236 153.399692 
L 96.558545 141.280041 
L 97.207855 132.986785 
L 97.857164 137.611712 
L 98.506473 139.365672 
L 99.155782 140.163033 
L 99.805091 141.598517 
L 100.4544 139.365672 
L 101.103709 139.047196 
L 101.753018 136.814351 
L 102.402327 136.016991 
L 103.051636 134.263031 
L 103.700945 131.71171 
L 104.350255 135.539277 
L 104.999564 132.030186 
L 105.648873 127.884144 
L 106.298182 133.147194 
L 106.947491 139.365672 
L 107.5968 143.193239 
L 108.246109 148.456289 
L 108.895418 151.327257 
L 109.544727 166.317876 
L 110.194036 174.291485 
L 111.492655 155.791775 
L 112.141964 162.808785 
L 112.791273 162.011424 
L 113.440582 145.904968 
L 114.089891 138.249835 
L 114.7392 137.931359 
L 115.388509 129.319627 
L 116.037818 126.927545 
L 116.687127 120.069538 
L 117.336436 129.956579 
L 117.985745 132.986785 
L 118.635055 130.435464 
L 119.284364 129.478865 
L 119.933673 135.060392 
L 120.582982 129.638103 
L 121.232291 125.969775 
L 121.8816 125.172414 
L 122.530909 125.651299 
L 125.128145 117.836928 
L 125.777455 117.517984 
L 126.426764 119.750594 
L 127.076073 119.750594 
L 127.725382 124.056577 
L 129.024 135.539277 
L 129.673309 132.986785 
L 130.322618 147.020805 
L 130.971927 163.606146 
L 131.621236 163.128432 
L 132.270545 139.206434 
L 132.919855 149.25365 
L 133.569164 163.925793 
L 134.218473 166.79559 
L 134.867782 165.838991 
L 136.1664 149.25365 
L 136.815709 144.628722 
L 137.465018 144.151008 
L 138.114327 144.628722 
L 138.763636 144.787961 
L 139.412945 143.512886 
L 140.062255 141.598517 
L 140.711564 143.034001 
L 141.360873 140.641918 
L 142.010182 139.047196 
L 142.659491 136.016991 
L 143.3088 136.814351 
L 143.958109 142.395878 
L 144.607418 140.163033 
L 145.256727 135.378868 
L 145.906036 135.857753 
L 146.555345 131.870948 
L 147.204655 127.086783 
L 147.853964 126.607898 
L 148.503273 127.086783 
L 149.152582 129.159218 
L 149.801891 126.927545 
L 150.4512 128.043382 
L 151.100509 133.46567 
L 151.749818 134.741916 
L 152.399127 134.422269 
L 153.048436 133.784146 
L 153.697745 136.814351 
L 154.347055 151.327257 
L 154.996364 155.952184 
L 155.645673 157.865382 
L 156.944291 148.456289 
L 157.5936 148.297051 
L 158.892218 157.227259 
L 159.541527 154.197053 
L 160.190836 148.615527 
L 160.840145 141.757755 
L 161.489455 136.973589 
L 162.138764 134.422269 
L 162.788073 132.986785 
L 163.437382 132.827547 
L 164.086691 131.073587 
L 165.385309 124.056577 
L 166.034618 125.492061 
L 166.683927 128.840742 
L 167.333236 127.086783 
L 167.982545 127.724906 
L 168.631855 129.319627 
L 169.281164 125.013176 
L 170.579782 128.522266 
L 171.229091 125.332823 
L 171.8784 123.099978 
L 172.527709 121.664377 
L 173.826327 113.850006 
L 174.475636 112.255167 
L 175.124945 112.733701 
L 175.774255 111.617279 
L 176.423564 113.212118 
L 177.072873 118.474817 
L 177.722182 125.651299 
L 178.371491 140.48268 
L 179.0208 165.838991 
L 179.670109 151.486495 
L 180.319418 142.077402 
L 180.968727 138.249835 
L 181.618036 142.556287 
L 182.267345 149.572126 
L 182.916655 151.804971 
L 183.565964 155.791775 
L 184.215273 155.314061 
L 184.864582 151.804971 
L 185.513891 145.426083 
L 186.1632 142.077402 
L 186.812509 140.48268 
L 187.461818 142.077402 
L 188.760436 134.263031 
L 189.409745 131.870948 
L 190.708364 135.21963 
L 191.357673 134.263031 
L 192.006982 134.422269 
L 192.656291 137.931359 
L 193.3056 138.249835 
L 193.954909 137.133998 
L 194.604218 138.72872 
L 195.253527 132.986785 
L 195.902836 132.509071 
L 196.552145 133.147194 
L 197.201455 128.043382 
L 197.850764 130.116988 
L 198.500073 136.973589 
L 199.149382 139.844557 
L 199.798691 138.72872 
L 200.448 139.365672 
L 201.097309 140.960394 
L 201.746618 146.223444 
L 203.045236 162.808785 
L 203.694545 159.77858 
L 204.343855 159.938989 
L 204.993164 157.706144 
L 205.642473 148.456289 
L 206.291782 148.774765 
L 206.941091 154.037815 
L 207.5904 157.227259 
L 208.239709 152.283856 
L 208.889018 148.456289 
L 209.538327 147.658928 
L 210.187636 143.353648 
L 210.836945 131.551301 
L 211.486255 126.767136 
L 212.135564 131.551301 
L 212.784873 132.509071 
L 213.434182 132.030186 
L 214.083491 126.44866 
L 214.7328 124.6947 
L 215.382109 126.607898 
L 216.031418 129.159218 
L 216.680727 127.246021 
L 217.330036 123.577692 
L 217.979345 123.577692 
L 218.628655 123.418454 
L 219.277964 124.375053 
L 219.927273 121.185844 
L 220.576582 123.099978 
L 221.225891 120.547955 
L 221.8752 124.535462 
L 222.524509 135.698515 
L 223.173818 135.21963 
L 223.823127 136.495875 
L 224.472436 151.804971 
L 225.121745 161.214063 
L 225.771055 148.297051 
L 226.420364 148.935174 
L 227.069673 154.197053 
L 227.718982 162.011424 
L 228.368291 159.141628 
L 229.0176 154.197053 
L 229.666909 150.210249 
L 230.316218 148.456289 
L 231.614836 134.581507 
L 232.264145 135.539277 
L 233.562764 144.310246 
L 234.212073 143.9906 
L 234.861382 143.353648 
L 235.510691 142.23664 
L 236.16 140.641918 
L 236.809309 138.090597 
L 237.458618 140.163033 
L 238.107927 141.120803 
L 238.757236 139.685319 
L 239.406545 140.323442 
L 240.055855 137.452474 
L 240.705164 137.293236 
L 241.354473 136.814351 
L 242.003782 138.568311 
L 242.653091 138.568311 
L 243.3024 133.784146 
L 243.951709 132.030186 
L 244.601018 132.668309 
L 245.250327 132.986785 
L 245.899636 135.539277 
L 246.548945 139.047196 
L 247.198255 140.801156 
L 247.847564 135.698515 
L 248.496873 141.598517 
L 249.146182 148.774765 
L 249.795491 162.808785 
L 250.4448 171.899402 
L 251.094109 178.278289 
L 251.743418 170.463918 
L 252.392727 164.244269 
L 253.042036 167.433713 
L 253.691345 162.171833 
L 254.340655 155.952184 
L 254.989964 157.068021 
L 255.639273 154.5167 
L 256.288582 147.340452 
L 256.937891 137.931359 
L 257.5872 137.133998 
L 258.236509 137.931359 
L 258.885818 137.133998 
L 259.535127 137.133998 
L 260.184436 134.103793 
L 260.833745 127.405259 
L 261.483055 130.116988 
L 262.132364 129.797341 
L 262.781673 125.969775 
L 263.430982 131.073587 
L 264.080291 132.986785 
L 264.7296 132.986785 
L 265.378909 125.172414 
L 266.028218 122.461855 
L 266.677527 124.056577 
L 267.326836 121.026371 
L 267.976145 113.850006 
L 268.625455 124.853938 
L 269.924073 158.662743 
L 270.573382 171.102041 
L 271.222691 166.317876 
L 271.872 159.460104 
L 272.521309 160.736349 
L 273.170618 155.154823 
L 273.819927 153.878577 
L 274.469236 154.675938 
L 275.118545 148.456289 
L 275.767855 138.249835 
L 276.417164 136.814351 
L 277.066473 137.931359 
L 277.715782 138.568311 
L 278.365091 142.077402 
L 279.0144 139.047196 
L 279.663709 137.452474 
L 280.313018 137.931359 
L 280.962327 137.133998 
L 281.611636 139.844557 
L 282.260945 140.48268 
L 282.910255 142.874763 
L 283.559564 143.672124 
L 284.208873 133.784146 
L 284.858182 132.986785 
L 285.507491 135.060392 
L 286.1568 133.624908 
L 286.806109 128.522266 
L 287.455418 131.551301 
L 288.104727 131.551301 
L 288.754036 131.392063 
L 289.403345 135.539277 
L 290.052655 138.409073 
L 292.000582 164.403507 
L 292.649891 167.592951 
L 293.2992 164.563916 
L 293.948509 162.969194 
L 294.597818 160.736349 
L 295.896436 145.74573 
L 296.545745 143.193239 
L 297.195055 148.297051 
L 297.844364 145.585321 
L 299.142982 132.827547 
L 299.792291 127.246021 
L 300.4416 131.551301 
L 301.090909 138.409073 
L 302.389527 129.797341 
L 303.038836 128.99998 
L 303.688145 129.478865 
L 304.337455 131.232825 
L 304.986764 129.159218 
L 305.636073 128.522266 
L 306.285382 132.986785 
L 306.934691 134.741916 
L 307.584 127.246021 
L 308.233309 123.259216 
L 308.882618 124.6947 
L 309.531927 125.810537 
L 310.181236 120.547955 
L 310.830545 118.474817 
L 311.479855 116.879978 
L 312.129164 120.069538 
L 312.778473 141.918164 
L 313.427782 151.00761 
L 314.077091 155.952184 
L 314.7264 143.9906 
L 315.375709 144.310246 
L 316.025018 151.166848 
L 316.674327 156.27066 
L 317.323636 152.76274 
L 317.972945 154.357462 
L 318.622255 159.460104 
L 319.271564 157.068021 
L 319.920873 146.543091 
L 320.570182 140.003795 
L 321.219491 138.887958 
L 321.8688 136.655113 
L 322.518109 134.901154 
L 323.167418 130.75394 
L 323.816727 131.073587 
L 324.466036 136.655113 
L 325.115345 137.931359 
L 325.764655 133.624908 
L 326.413964 132.986785 
L 327.063273 138.72872 
L 327.712582 139.047196 
L 328.361891 135.857753 
L 329.0112 131.073587 
L 329.660509 127.405259 
L 330.309818 128.99998 
L 330.959127 130.116988 
L 331.608436 129.638103 
L 332.257745 134.103793 
L 332.907055 136.336637 
L 333.556364 136.016991 
L 334.854982 132.348662 
L 335.504291 131.073587 
L 336.1536 136.814351 
L 336.802909 138.72872 
L 337.452218 142.23664 
L 338.101527 147.020805 
L 339.400145 162.331071 
L 340.049455 163.446908 
L 341.348073 172.05864 
L 341.997382 169.187672 
L 342.646691 155.952184 
L 343.296 149.572126 
L 343.945309 145.107607 
L 344.594618 143.193239 
L 345.243927 135.698515 
L 345.893236 135.21963 
L 347.191855 132.986785 
L 347.841164 137.133998 
L 348.490473 137.452474 
L 349.139782 132.509071 
L 349.789091 128.840742 
L 350.4384 126.607898 
L 351.087709 122.461855 
L 351.737018 128.20262 
L 352.386327 128.99998 
L 353.035636 122.780331 
L 353.684945 118.155872 
L 354.334255 119.112705 
L 355.632873 125.013176 
L 356.282182 124.6947 
L 356.931491 116.401561 
L 357.5808 110.979413 
L 358.230109 113.690534 
L 358.879418 123.897339 
L 359.528727 125.810537 
L 360.827345 131.232825 
L 361.476655 137.133998 
L 362.125964 137.452474 
L 362.775273 142.556287 
L 363.424582 148.935174 
L 364.073891 147.818166 
L 364.7232 147.340452 
L 365.372509 136.655113 
L 366.671127 150.689134 
L 367.320436 148.456289 
L 367.969745 148.137813 
L 368.619055 147.977404 
L 369.268364 148.456289 
L 370.566982 140.48268 
L 371.216291 135.060392 
L 371.8656 132.827547 
L 373.164218 141.280041 
L 373.813527 143.9906 
L 374.462836 140.960394 
L 375.112145 135.698515 
L 375.761455 135.21963 
L 376.410764 139.365672 
L 377.060073 145.904968 
L 377.709382 147.020805 
L 378.358691 145.107607 
L 379.008 143.9906 
L 379.657309 138.568311 
L 380.306618 136.336637 
L 380.955927 136.336637 
L 381.605236 135.378868 
L 382.254545 139.047196 
L 382.903855 137.452474 
L 383.553164 136.814351 
L 384.202473 132.986785 
L 384.851782 132.348662 
L 385.501091 136.336637 
L 386.1504 133.784146 
L 386.799709 136.016991 
L 387.449018 134.103793 
L 388.098327 130.276226 
L 388.747636 133.784146 
L 389.396945 133.306432 
L 390.046255 128.840742 
L 390.695564 129.478865 
L 391.344873 136.495875 
L 391.994182 139.206434 
L 392.643491 141.120803 
L 393.2928 143.9906 
L 393.942109 141.120803 
L 394.591418 146.064206 
L 395.240727 153.878577 
L 395.890036 154.994414 
L 396.539345 152.921978 
L 397.188655 147.180043 
L 397.837964 148.456289 
L 397.837964 148.456289 
" style="fill:none;stroke:#2ca02c;stroke-linecap:square;stroke-width:1.5;"/>
   </g>
   <g id="line2d_15">
    <path clip-path="url(#p4ae7c543ad)" d="M 73.832727 104.425066 
L 74.484644 104.777028 
L 75.788478 110.579613 
L 76.440394 110.780819 
L 77.092311 109.636784 
L 78.396145 108.558995 
L 79.699978 103.629205 
L 80.351895 104.618183 
L 81.003812 106.076272 
L 81.655728 105.151359 
L 82.307645 104.887589 
L 82.959562 105.545058 
L 83.611479 104.973302 
L 84.263395 103.634618 
L 85.567229 102.198677 
L 86.219146 101.881988 
L 86.871062 102.976156 
L 87.522979 103.805349 
L 88.174896 107.415911 
L 88.826813 114.111915 
L 89.478729 118.835717 
L 90.130646 121.255534 
L 90.782563 122.063591 
L 91.43448 122.045765 
L 92.738313 118.440644 
L 93.39023 116.193878 
L 94.042147 115.091769 
L 95.34598 114.599141 
L 95.997897 112.539728 
L 96.649814 109.592058 
L 97.953647 102.26519 
L 99.257481 102.436162 
L 99.909398 103.348699 
L 100.561314 102.416529 
L 101.213231 101.970418 
L 101.865148 101.227012 
L 102.517065 103.771247 
L 103.168981 103.905344 
L 103.820898 104.259821 
L 104.472815 104.14364 
L 105.124732 104.876277 
L 106.428565 110.6128 
L 107.080482 112.915609 
L 108.384315 119.406322 
L 109.036232 121.405829 
L 109.688149 122.161475 
L 110.340066 122.236708 
L 110.991982 121.383641 
L 111.643899 119.789194 
L 112.295816 117.779196 
L 112.947733 114.491134 
L 114.251566 110.322537 
L 114.903483 107.946458 
L 115.5554 104.086739 
L 116.859233 102.866224 
L 117.51115 102.612412 
L 118.163067 101.61062 
L 118.814984 101.458158 
L 119.4669 101.171213 
L 120.118817 100.484588 
L 120.770734 100.989714 
L 121.422651 100.121434 
L 122.074567 99.794772 
L 122.726484 99.739726 
L 123.378401 100.395976 
L 124.030318 101.332045 
L 124.682234 102.035857 
L 125.334151 103.416202 
L 125.986068 103.870245 
L 126.637985 104.881892 
L 127.289901 105.582065 
L 127.941818 106.752369 
L 128.593735 106.906212 
L 129.245652 111.128225 
L 129.897568 117.947137 
L 130.549485 120.345479 
L 131.201402 121.215748 
L 131.853319 121.747734 
L 132.505235 121.640276 
L 133.157152 121.060604 
L 133.809069 119.993115 
L 134.460986 119.470473 
L 135.764819 117.378512 
L 136.416736 115.188901 
L 137.068653 112.578049 
L 137.72057 111.201598 
L 138.372486 110.185118 
L 139.024403 108.525466 
L 140.328237 103.945425 
L 141.63207 101.753619 
L 142.283987 100.861263 
L 143.58782 100.581852 
L 144.891654 102.023742 
L 145.543571 102.226795 
L 146.195487 102.099681 
L 147.499321 102.60742 
L 148.151238 102.223612 
L 148.803154 103.077028 
L 149.455071 103.020257 
L 150.106988 105.401273 
L 150.758905 106.770628 
L 151.410821 108.452295 
L 152.062738 109.466518 
L 152.714655 111.125212 
L 153.366572 114.317107 
L 154.018488 118.204262 
L 154.670405 119.490494 
L 155.322322 121.200126 
L 155.974239 121.800405 
L 156.626156 121.319012 
L 158.581906 117.188995 
L 159.233823 115.009113 
L 160.537656 113.612569 
L 161.189573 111.79907 
L 161.84149 108.396874 
L 162.493406 104.344798 
L 163.145323 101.150465 
L 163.79724 101.345922 
L 164.449157 100.364635 
L 165.101073 99.599395 
L 165.75299 99.186115 
L 166.404907 98.576272 
L 167.70874 99.134502 
L 168.360657 98.945644 
L 169.012574 99.538307 
L 169.664491 101.08729 
L 170.316407 101.862255 
L 171.620241 103.790994 
L 172.272158 103.851048 
L 173.575991 103.369099 
L 174.227908 103.280381 
L 174.879825 103.596134 
L 175.531742 102.941181 
L 176.183658 103.605025 
L 176.835575 104.437039 
L 177.487492 106.628905 
L 178.791325 115.653153 
L 179.443242 118.470848 
L 180.095159 119.878863 
L 180.747076 120.445223 
L 181.398992 120.606875 
L 182.050909 120.196764 
L 182.702826 120.28385 
L 184.006659 119.243471 
L 184.658576 118.595965 
L 185.310493 117.675322 
L 185.96241 116.314836 
L 187.266243 112.488357 
L 188.570077 106.409836 
L 189.221993 103.371022 
L 189.87391 101.15889 
L 190.525827 99.971979 
L 191.177744 99.500545 
L 191.82966 99.408655 
L 192.481577 99.452813 
L 193.133494 99.959685 
L 194.437327 103.822872 
L 195.089244 103.996438 
L 195.741161 104.939042 
L 196.393078 105.478271 
L 197.044995 104.114075 
L 198.348828 105.41518 
L 199.000745 105.153342 
L 199.652662 106.07421 
L 200.304578 107.572105 
L 200.956495 110.497324 
L 202.260329 119.489495 
L 202.912245 121.152764 
L 203.564162 121.809436 
L 204.216079 121.643251 
L 204.867996 121.637925 
L 205.519912 121.178064 
L 206.171829 120.930983 
L 206.823746 119.642264 
L 207.475663 117.364935 
L 208.127579 116.081195 
L 208.779496 115.750269 
L 209.431413 114.936945 
L 211.387163 105.929867 
L 212.03908 103.664261 
L 212.690997 102.448422 
L 213.342913 100.164075 
L 213.99483 99.144117 
L 214.646747 99.378951 
L 215.298664 98.386392 
L 216.602497 99.379328 
L 217.254414 99.253699 
L 217.906331 100.075468 
L 218.558248 101.842243 
L 219.210164 102.728521 
L 219.862081 102.508026 
L 220.513998 103.866204 
L 221.165915 104.021599 
L 221.817831 105.51694 
L 222.469748 105.714654 
L 223.121665 107.553335 
L 224.425498 118.956702 
L 225.077415 120.790001 
L 225.729332 121.771784 
L 227.033165 121.42306 
L 228.336999 119.58769 
L 229.640832 116.178509 
L 230.292749 114.180746 
L 230.944666 112.970557 
L 231.596583 112.535037 
L 232.248499 112.509675 
L 232.900416 111.973305 
L 233.552333 109.791909 
L 234.856166 104.52372 
L 236.16 101.475882 
L 236.811917 100.597346 
L 237.463834 100.33079 
L 238.11575 100.244757 
L 239.419584 102.762273 
L 240.071501 101.957873 
L 240.723417 102.236232 
L 242.027251 103.752189 
L 242.679168 103.879955 
L 243.331084 103.409522 
L 243.983001 103.33018 
L 244.634918 104.722747 
L 245.286835 103.274173 
L 246.590668 105.85947 
L 247.242585 106.12899 
L 249.198335 117.84005 
L 249.850252 119.958889 
L 250.502169 121.390174 
L 251.154085 122.217086 
L 251.806002 121.618348 
L 252.457919 120.562236 
L 253.109836 118.732871 
L 253.761752 116.145025 
L 254.413669 112.123244 
L 255.065586 111.252521 
L 255.717503 110.588049 
L 257.021336 107.710067 
L 257.673253 104.186965 
L 258.32517 104.026187 
L 258.977087 101.977851 
L 259.629003 102.792931 
L 260.28092 100.281406 
L 260.932837 98.843884 
L 261.584754 99.108996 
L 262.23667 98.31388 
L 262.888587 99.062658 
L 263.540504 99.534587 
L 264.192421 100.22314 
L 264.844337 101.39267 
L 265.496254 101.204036 
L 266.800088 103.914587 
L 267.452004 103.946668 
L 268.103921 105.136364 
L 268.755838 108.485081 
L 269.407755 114.125963 
L 270.059671 118.179133 
L 270.711588 121.170098 
L 271.363505 122.327233 
L 272.015422 122.106417 
L 272.667338 120.977856 
L 273.319255 119.259992 
L 273.971172 116.938236 
L 274.623089 115.656021 
L 275.275005 113.357483 
L 275.926922 112.028005 
L 277.230756 107.860448 
L 277.882673 105.018743 
L 278.534589 103.111281 
L 279.186506 102.247396 
L 279.838423 101.663582 
L 280.49034 100.819165 
L 281.142256 100.243601 
L 281.794173 100.389469 
L 282.44609 101.781374 
L 283.098007 101.542395 
L 283.749923 102.546155 
L 284.40184 101.634755 
L 285.053757 102.701946 
L 285.705674 104.718173 
L 286.35759 103.780399 
L 287.009507 103.932199 
L 287.661424 104.588596 
L 288.313341 104.257194 
L 288.965257 105.962133 
L 289.617174 107.016009 
L 290.921008 115.26592 
L 291.572924 120.101502 
L 292.224841 121.810131 
L 292.876758 122.418572 
L 293.528675 122.204756 
L 294.180591 121.730101 
L 294.832508 120.428756 
L 295.484425 117.920313 
L 296.136342 114.168062 
L 296.788258 111.279167 
L 297.440175 108.919263 
L 298.092092 107.094278 
L 298.744009 106.275175 
L 300.047842 102.469793 
L 300.699759 100.555379 
L 301.351676 99.592651 
L 302.655509 98.963089 
L 303.307426 99.499618 
L 304.61126 101.122595 
L 307.218927 107.255592 
L 307.870843 107.187048 
L 308.52276 106.428426 
L 309.174677 105.196986 
L 309.826594 103.621303 
L 310.47851 103.061401 
L 311.130427 102.967091 
L 311.782344 104.208733 
L 312.434261 106.977394 
L 313.086177 110.490835 
L 313.738094 115.567625 
L 314.390011 119.07689 
L 315.041928 121.391611 
L 315.693844 122.174785 
L 316.345761 122.12885 
L 316.997678 122.283484 
L 317.649595 121.519754 
L 318.953428 118.769354 
L 320.257262 113.692097 
L 321.561095 108.836257 
L 322.864929 102.792783 
L 323.516846 101.044894 
L 324.168762 99.929537 
L 325.472596 99.688232 
L 326.124513 98.402818 
L 326.776429 99.98689 
L 328.080263 100.567702 
L 328.73218 101.659596 
L 329.384096 102.316435 
L 330.036013 102.691646 
L 331.339847 102.914801 
L 331.991763 102.890045 
L 332.64368 102.682009 
L 333.947514 103.414699 
L 334.59943 103.468902 
L 335.251347 104.317056 
L 336.555181 109.838948 
L 337.207097 114.376786 
L 337.859014 117.28957 
L 338.510931 119.663832 
L 339.814765 121.103349 
L 340.466681 121.308951 
L 341.118598 121.081715 
L 341.770515 120.249772 
L 342.422432 118.69231 
L 343.074348 116.224723 
L 344.378182 110.194333 
L 345.030099 105.489985 
L 345.682015 102.399737 
L 346.333932 100.95166 
L 346.985849 101.601976 
L 347.637766 100.999496 
L 348.289682 101.050077 
L 348.941599 100.826245 
L 349.593516 100.149379 
L 350.245433 99.647432 
L 350.897349 99.611818 
L 351.549266 99.987628 
L 352.201183 100.632565 
L 352.8531 100.624971 
L 353.505016 102.190294 
L 354.80885 102.22018 
L 356.112683 102.652243 
L 356.7646 102.322535 
L 357.416517 103.375598 
L 358.72035 104.174151 
L 359.372267 104.855635 
L 360.676101 107.724351 
L 361.979934 114.475083 
L 363.283768 118.292215 
L 363.935685 119.704916 
L 365.239518 120.310683 
L 365.891435 120.241112 
L 366.543352 119.333518 
L 367.195268 117.76258 
L 367.847185 115.324568 
L 368.499102 113.363459 
L 369.151019 112.541234 
L 370.454852 110.214372 
L 371.106769 108.187094 
L 371.758686 106.675786 
L 372.410602 104.127401 
L 373.062519 102.672639 
L 373.714436 101.827084 
L 374.366353 101.556958 
L 375.018269 101.148614 
L 375.670186 100.443857 
L 376.322103 100.432592 
L 376.97402 102.198237 
L 378.277853 104.565555 
L 378.92977 105.192128 
L 379.581687 105.406418 
L 380.233604 104.907795 
L 380.88552 104.72744 
L 381.537437 104.939678 
L 382.189354 104.67809 
L 382.841271 105.334638 
L 384.145104 104.635486 
L 384.797021 103.954292 
L 385.448938 103.65807 
L 386.100854 103.113803 
L 386.752771 103.293141 
L 387.404688 104.493445 
L 388.056605 103.79713 
L 388.708521 104.31407 
L 389.360438 104.169494 
L 390.012355 103.7807 
L 390.664272 103.761175 
L 391.316188 104.687272 
L 391.968105 107.517372 
L 392.620022 109.766846 
L 393.271939 113.453379 
L 394.575772 117.945572 
L 395.227689 119.781952 
L 395.879606 120.613846 
L 396.531522 120.836319 
L 397.183439 121.422615 
L 397.835356 120.946161 
L 398.487273 119.97505 
L 398.487273 119.97505 
" style="fill:none;stroke:#d62728;stroke-linecap:square;stroke-width:1.5;"/>
   </g>
   <g id="patch_3">
    <path d="M 57.6 307.584 
L 57.6 41.472 
" style="fill:none;stroke:#000000;stroke-linecap:square;stroke-linejoin:miter;stroke-width:0.8;"/>
   </g>
   <g id="patch_4">
    <path d="M 414.72 307.584 
L 414.72 41.472 
" style="fill:none;stroke:#000000;stroke-linecap:square;stroke-linejoin:miter;stroke-width:0.8;"/>
   </g>
   <g id="patch_5">
    <path d="M 57.6 307.584 
L 414.72 307.584 
" style="fill:none;stroke:#000000;stroke-linecap:square;stroke-linejoin:miter;stroke-width:0.8;"/>
   </g>
   <g id="patch_6">
    <path d="M 57.6 41.472 
L 414.72 41.472 
" style="fill:none;stroke:#000000;stroke-linecap:square;stroke-linejoin:miter;stroke-width:0.8;"/>
   </g>
  </g>
 </g>
 <defs>
  <clipPath id="p4ae7c543ad">
   <rect height="266.112" width="357.12" x="57.6" y="41.472"/>
  </clipPath>
 </defs>
</svg>
