<?xml version="1.0" encoding="utf-8" standalone="no"?>
<!DOCTYPE svg PUBLIC "-//W3C//DTD SVG 1.1//EN"
  "http://www.w3.org/Graphics/SVG/1.1/DTD/svg11.dtd">
<svg height="345.6pt" version="1.1" viewBox="0 0 460.8 345.6" width="460.8pt" xmlns="http://www.w3.org/2000/svg" xmlns:xlink="http://www.w3.org/1999/xlink">
 <metadata>
  <rdf:RDF xmlns:cc="http://creativecommons.org/ns#" xmlns:dc="http://purl.org/dc/elements/1.1/" xmlns:rdf="http://www.w3.org/1999/02/22-rdf-syntax-ns#">
   <cc:Work>
    <dc:type rdf:resource="http://purl.org/dc/dcmitype/StillImage"/>
    <dc:date>2022-05-18T00:33:06.769616</dc:date>
    <dc:format>image/svg+xml</dc:format>
    <dc:creator>
     <cc:Agent>
      <dc:title>Matplotlib v3.4.2, https://matplotlib.org/</dc:title>
     </cc:Agent>
    </dc:creator>
   </cc:Work>
  </rdf:RDF>
 </metadata>
 <defs>
  <style type="text/css">*{stroke-linecap:butt;stroke-linejoin:round;}</style>
 </defs>
 <g id="figure_1">
  <g id="patch_1">
   <path d="M 0 345.6 
L 460.8 345.6 
L 460.8 0 
L 0 0 
z
" style="fill:#ffffff;"/>
  </g>
  <g id="axes_1">
   <g id="patch_2">
    <path d="M 57.6 307.584 
L 414.72 307.584 
L 414.72 41.472 
L 57.6 41.472 
z
" style="fill:#ffffff;"/>
   </g>
   <g id="matplotlib.axis_1">
    <g id="xtick_1">
     <g id="line2d_1">
      <defs>
       <path d="M 0 0 
L 0 3.5 
" id="m1060661474" style="stroke:#000000;stroke-width:0.8;"/>
      </defs>
      <g>
       <use style="stroke:#000000;stroke-width:0.8;" x="73.832727" xlink:href="#m1060661474" y="307.584"/>
      </g>
     </g>
     <g id="text_1">
      <!-- 0 -->
      <g transform="translate(70.651477 322.182437)scale(0.1 -0.1)">
       <defs>
        <path d="M 2034 4250 
Q 1547 4250 1301 3770 
Q 1056 3291 1056 2328 
Q 1056 1369 1301 889 
Q 1547 409 2034 409 
Q 2525 409 2770 889 
Q 3016 1369 3016 2328 
Q 3016 3291 2770 3770 
Q 2525 4250 2034 4250 
z
M 2034 4750 
Q 2819 4750 3233 4129 
Q 3647 3509 3647 2328 
Q 3647 1150 3233 529 
Q 2819 -91 2034 -91 
Q 1250 -91 836 529 
Q 422 1150 422 2328 
Q 422 3509 836 4129 
Q 1250 4750 2034 4750 
z
" id="DejaVuSans-30" transform="scale(0.015625)"/>
       </defs>
       <use xlink:href="#DejaVuSans-30"/>
      </g>
     </g>
    </g>
    <g id="xtick_2">
     <g id="line2d_2">
      <g>
       <use style="stroke:#000000;stroke-width:0.8;" x="139.685576" xlink:href="#m1060661474" y="307.584"/>
      </g>
     </g>
     <g id="text_2">
      <!-- 100 -->
      <g transform="translate(130.141826 322.182437)scale(0.1 -0.1)">
       <defs>
        <path d="M 794 531 
L 1825 531 
L 1825 4091 
L 703 3866 
L 703 4441 
L 1819 4666 
L 2450 4666 
L 2450 531 
L 3481 531 
L 3481 0 
L 794 0 
L 794 531 
z
" id="DejaVuSans-31" transform="scale(0.015625)"/>
       </defs>
       <use xlink:href="#DejaVuSans-31"/>
       <use x="63.623047" xlink:href="#DejaVuSans-30"/>
       <use x="127.246094" xlink:href="#DejaVuSans-30"/>
      </g>
     </g>
    </g>
    <g id="xtick_3">
     <g id="line2d_3">
      <g>
       <use style="stroke:#000000;stroke-width:0.8;" x="205.538425" xlink:href="#m1060661474" y="307.584"/>
      </g>
     </g>
     <g id="text_3">
      <!-- 200 -->
      <g transform="translate(195.994675 322.182437)scale(0.1 -0.1)">
       <defs>
        <path d="M 1228 531 
L 3431 531 
L 3431 0 
L 469 0 
L 469 531 
Q 828 903 1448 1529 
Q 2069 2156 2228 2338 
Q 2531 2678 2651 2914 
Q 2772 3150 2772 3378 
Q 2772 3750 2511 3984 
Q 2250 4219 1831 4219 
Q 1534 4219 1204 4116 
Q 875 4013 500 3803 
L 500 4441 
Q 881 4594 1212 4672 
Q 1544 4750 1819 4750 
Q 2544 4750 2975 4387 
Q 3406 4025 3406 3419 
Q 3406 3131 3298 2873 
Q 3191 2616 2906 2266 
Q 2828 2175 2409 1742 
Q 1991 1309 1228 531 
z
" id="DejaVuSans-32" transform="scale(0.015625)"/>
       </defs>
       <use xlink:href="#DejaVuSans-32"/>
       <use x="63.623047" xlink:href="#DejaVuSans-30"/>
       <use x="127.246094" xlink:href="#DejaVuSans-30"/>
      </g>
     </g>
    </g>
    <g id="xtick_4">
     <g id="line2d_4">
      <g>
       <use style="stroke:#000000;stroke-width:0.8;" x="271.391274" xlink:href="#m1060661474" y="307.584"/>
      </g>
     </g>
     <g id="text_4">
      <!-- 300 -->
      <g transform="translate(261.847524 322.182437)scale(0.1 -0.1)">
       <defs>
        <path d="M 2597 2516 
Q 3050 2419 3304 2112 
Q 3559 1806 3559 1356 
Q 3559 666 3084 287 
Q 2609 -91 1734 -91 
Q 1441 -91 1130 -33 
Q 819 25 488 141 
L 488 750 
Q 750 597 1062 519 
Q 1375 441 1716 441 
Q 2309 441 2620 675 
Q 2931 909 2931 1356 
Q 2931 1769 2642 2001 
Q 2353 2234 1838 2234 
L 1294 2234 
L 1294 2753 
L 1863 2753 
Q 2328 2753 2575 2939 
Q 2822 3125 2822 3475 
Q 2822 3834 2567 4026 
Q 2313 4219 1838 4219 
Q 1578 4219 1281 4162 
Q 984 4106 628 3988 
L 628 4550 
Q 988 4650 1302 4700 
Q 1616 4750 1894 4750 
Q 2613 4750 3031 4423 
Q 3450 4097 3450 3541 
Q 3450 3153 3228 2886 
Q 3006 2619 2597 2516 
z
" id="DejaVuSans-33" transform="scale(0.015625)"/>
       </defs>
       <use xlink:href="#DejaVuSans-33"/>
       <use x="63.623047" xlink:href="#DejaVuSans-30"/>
       <use x="127.246094" xlink:href="#DejaVuSans-30"/>
      </g>
     </g>
    </g>
    <g id="xtick_5">
     <g id="line2d_5">
      <g>
       <use style="stroke:#000000;stroke-width:0.8;" x="337.244123" xlink:href="#m1060661474" y="307.584"/>
      </g>
     </g>
     <g id="text_5">
      <!-- 400 -->
      <g transform="translate(327.700373 322.182437)scale(0.1 -0.1)">
       <defs>
        <path d="M 2419 4116 
L 825 1625 
L 2419 1625 
L 2419 4116 
z
M 2253 4666 
L 3047 4666 
L 3047 1625 
L 3713 1625 
L 3713 1100 
L 3047 1100 
L 3047 0 
L 2419 0 
L 2419 1100 
L 313 1100 
L 313 1709 
L 2253 4666 
z
" id="DejaVuSans-34" transform="scale(0.015625)"/>
       </defs>
       <use xlink:href="#DejaVuSans-34"/>
       <use x="63.623047" xlink:href="#DejaVuSans-30"/>
       <use x="127.246094" xlink:href="#DejaVuSans-30"/>
      </g>
     </g>
    </g>
    <g id="xtick_6">
     <g id="line2d_6">
      <g>
       <use style="stroke:#000000;stroke-width:0.8;" x="403.096972" xlink:href="#m1060661474" y="307.584"/>
      </g>
     </g>
     <g id="text_6">
      <!-- 500 -->
      <g transform="translate(393.553222 322.182437)scale(0.1 -0.1)">
       <defs>
        <path d="M 691 4666 
L 3169 4666 
L 3169 4134 
L 1269 4134 
L 1269 2991 
Q 1406 3038 1543 3061 
Q 1681 3084 1819 3084 
Q 2600 3084 3056 2656 
Q 3513 2228 3513 1497 
Q 3513 744 3044 326 
Q 2575 -91 1722 -91 
Q 1428 -91 1123 -41 
Q 819 9 494 109 
L 494 744 
Q 775 591 1075 516 
Q 1375 441 1709 441 
Q 2250 441 2565 725 
Q 2881 1009 2881 1497 
Q 2881 1984 2565 2268 
Q 2250 2553 1709 2553 
Q 1456 2553 1204 2497 
Q 953 2441 691 2322 
L 691 4666 
z
" id="DejaVuSans-35" transform="scale(0.015625)"/>
       </defs>
       <use xlink:href="#DejaVuSans-35"/>
       <use x="63.623047" xlink:href="#DejaVuSans-30"/>
       <use x="127.246094" xlink:href="#DejaVuSans-30"/>
      </g>
     </g>
    </g>
   </g>
   <g id="matplotlib.axis_2">
    <g id="ytick_1">
     <g id="line2d_7">
      <defs>
       <path d="M 0 0 
L -3.5 0 
" id="m7731f5359b" style="stroke:#000000;stroke-width:0.8;"/>
      </defs>
      <g>
       <use style="stroke:#000000;stroke-width:0.8;" x="57.6" xlink:href="#m7731f5359b" y="281.028014"/>
      </g>
     </g>
     <g id="text_7">
      <!-- −1.0 -->
      <g transform="translate(26.317187 284.827233)scale(0.1 -0.1)">
       <defs>
        <path d="M 678 2272 
L 4684 2272 
L 4684 1741 
L 678 1741 
L 678 2272 
z
" id="DejaVuSans-2212" transform="scale(0.015625)"/>
        <path d="M 684 794 
L 1344 794 
L 1344 0 
L 684 0 
L 684 794 
z
" id="DejaVuSans-2e" transform="scale(0.015625)"/>
       </defs>
       <use xlink:href="#DejaVuSans-2212"/>
       <use x="83.789062" xlink:href="#DejaVuSans-31"/>
       <use x="147.412109" xlink:href="#DejaVuSans-2e"/>
       <use x="179.199219" xlink:href="#DejaVuSans-30"/>
      </g>
     </g>
    </g>
    <g id="ytick_2">
     <g id="line2d_8">
      <g>
       <use style="stroke:#000000;stroke-width:0.8;" x="57.6" xlink:href="#m7731f5359b" y="224.163011"/>
      </g>
     </g>
     <g id="text_8">
      <!-- −0.5 -->
      <g transform="translate(26.317187 227.962229)scale(0.1 -0.1)">
       <use xlink:href="#DejaVuSans-2212"/>
       <use x="83.789062" xlink:href="#DejaVuSans-30"/>
       <use x="147.412109" xlink:href="#DejaVuSans-2e"/>
       <use x="179.199219" xlink:href="#DejaVuSans-35"/>
      </g>
     </g>
    </g>
    <g id="ytick_3">
     <g id="line2d_9">
      <g>
       <use style="stroke:#000000;stroke-width:0.8;" x="57.6" xlink:href="#m7731f5359b" y="167.298007"/>
      </g>
     </g>
     <g id="text_9">
      <!-- 0.0 -->
      <g transform="translate(34.696875 171.097226)scale(0.1 -0.1)">
       <use xlink:href="#DejaVuSans-30"/>
       <use x="63.623047" xlink:href="#DejaVuSans-2e"/>
       <use x="95.410156" xlink:href="#DejaVuSans-30"/>
      </g>
     </g>
    </g>
    <g id="ytick_4">
     <g id="line2d_10">
      <g>
       <use style="stroke:#000000;stroke-width:0.8;" x="57.6" xlink:href="#m7731f5359b" y="110.433004"/>
      </g>
     </g>
     <g id="text_10">
      <!-- 0.5 -->
      <g transform="translate(34.696875 114.232222)scale(0.1 -0.1)">
       <use xlink:href="#DejaVuSans-30"/>
       <use x="63.623047" xlink:href="#DejaVuSans-2e"/>
       <use x="95.410156" xlink:href="#DejaVuSans-35"/>
      </g>
     </g>
    </g>
    <g id="ytick_5">
     <g id="line2d_11">
      <g>
       <use style="stroke:#000000;stroke-width:0.8;" x="57.6" xlink:href="#m7731f5359b" y="53.568"/>
      </g>
     </g>
     <g id="text_11">
      <!-- 1.0 -->
      <g transform="translate(34.696875 57.367219)scale(0.1 -0.1)">
       <use xlink:href="#DejaVuSans-31"/>
       <use x="63.623047" xlink:href="#DejaVuSans-2e"/>
       <use x="95.410156" xlink:href="#DejaVuSans-30"/>
      </g>
     </g>
    </g>
   </g>
   <g id="line2d_12">
    <path clip-path="url(#p6ca74875a6)" d="M 73.832727 61.716189 
L 75.808313 62.479312 
L 76.466841 62.627014 
L 77.12537 62.922416 
L 79.100955 62.922416 
L 79.759484 62.479312 
L 81.076541 63.414754 
L 81.735069 63.414754 
L 82.393598 62.922416 
L 83.052126 62.922416 
L 83.710655 63.291669 
L 84.369183 63.907092 
L 85.027712 63.907092 
L 85.68624 63.742979 
L 86.344769 63.907092 
L 87.003297 64.448663 
L 87.661826 63.907092 
L 88.978883 63.907092 
L 89.637411 64.448663 
L 90.29594 64.571747 
L 90.954468 64.448663 
L 92.930053 64.448663 
L 93.588582 64.694832 
L 94.24711 64.694832 
L 94.905639 64.448663 
L 95.564167 64.448663 
L 96.222696 65.384105 
L 97.539753 65.384105 
L 98.198281 65.236403 
L 98.85681 63.907092 
L 99.515338 63.414754 
L 100.173867 62.479312 
L 101.490924 61.445403 
L 102.149452 59.164238 
L 102.807981 58.491377 
L 105.442095 58.491377 
L 106.100623 58.86063 
L 107.41768 58.163152 
L 108.076209 57.999039 
L 108.734737 57.999039 
L 109.393266 57.555935 
L 110.051794 55.537351 
L 110.710323 55.906604 
L 111.368851 54.601909 
L 112.02738 56.522026 
L 112.685908 57.666711 
L 113.344437 57.555935 
L 114.002965 57.666711 
L 114.661494 57.999039 
L 115.320022 57.888263 
L 115.978551 57.063598 
L 116.637079 56.029688 
L 117.295608 56.522026 
L 118.612665 56.522026 
L 119.271193 57.063598 
L 119.929722 57.063598 
L 121.246779 57.555935 
L 121.905307 57.555935 
L 123.880892 58.983715 
L 125.197949 61.986975 
L 125.856478 62.922416 
L 126.515006 62.479312 
L 127.173535 63.414754 
L 127.832063 63.414754 
L 128.490592 62.922416 
L 129.807649 62.922416 
L 130.466177 63.907092 
L 131.124706 64.448663 
L 131.783234 64.448663 
L 133.75882 65.876442 
L 135.075877 66.36878 
L 135.734405 66.36878 
L 137.709991 67.238577 
L 138.368519 67.845793 
L 139.685576 68.338131 
L 140.344105 67.624241 
L 141.002633 67.402689 
L 141.661162 67.845793 
L 142.31969 66.910351 
L 142.978219 66.36878 
L 143.636747 66.36878 
L 144.295276 65.876442 
L 144.953804 66.36878 
L 146.270861 66.36878 
L 146.92939 66.122611 
L 147.587918 66.36878 
L 148.246447 66.910351 
L 148.904975 66.910351 
L 149.563504 66.639566 
L 150.222032 66.910351 
L 150.880561 66.639566 
L 151.539089 66.910351 
L 152.197618 67.402689 
L 152.856146 67.402689 
L 154.173203 67.845793 
L 154.831732 67.402689 
L 155.49026 67.845793 
L 156.148788 67.845793 
L 156.807317 67.402689 
L 157.465845 67.968878 
L 158.124374 66.910351 
L 158.782902 64.941001 
L 160.758488 64.448663 
L 162.075545 63.414754 
L 162.734073 62.356228 
L 163.392602 62.233143 
L 164.05113 61.986975 
L 164.709659 61.986975 
L 165.368187 60.313026 
L 166.026716 60.017624 
L 166.685244 60.460728 
L 168.66083 60.460728 
L 169.319358 60.017624 
L 169.977887 60.460728 
L 170.636415 61.322319 
L 171.294944 62.479312 
L 172.612001 60.460728 
L 173.270529 60.165325 
L 174.587586 57.999039 
L 175.904643 57.999039 
L 176.563172 58.491377 
L 177.2217 58.491377 
L 179.197286 60.017624 
L 180.514343 60.1284 
L 181.172871 60.017624 
L 181.8314 60.953065 
L 182.489928 60.460728 
L 183.148457 60.460728 
L 184.465514 63.907092 
L 185.782571 64.941001 
L 187.099628 66.639566 
L 187.758156 66.910351 
L 188.416684 66.910351 
L 189.075213 67.624241 
L 189.733741 67.845793 
L 190.39227 67.845793 
L 191.050798 68.009906 
L 191.709327 67.845793 
L 192.367855 67.845793 
L 193.026384 68.830468 
L 193.684912 68.338131 
L 194.343441 68.830468 
L 200.270197 68.830468 
L 201.587254 69.37204 
L 202.245783 69.37204 
L 202.904311 69.618209 
L 203.56284 69.37204 
L 204.879897 69.37204 
L 205.538425 69.864378 
L 209.489596 69.864378 
L 210.148125 70.196706 
L 212.12371 69.864378 
L 212.782239 70.307482 
L 214.099296 70.307482 
L 214.757824 69.864378 
L 215.416353 70.471594 
L 216.074881 70.307482 
L 216.73341 70.799819 
L 217.391938 70.307482 
L 218.050467 70.799819 
L 218.708995 70.307482 
L 219.367524 70.307482 
L 220.026052 70.799819 
L 221.343109 66.245696 
L 222.660166 62.922416 
L 223.977223 59.525286 
L 224.635751 58.491377 
L 225.29428 57.063598 
L 225.952808 56.522026 
L 226.611337 55.537351 
L 227.269865 54.766022 
L 229.245451 53.568 
L 229.903979 53.568 
L 230.562508 53.691084 
L 231.221036 54.195731 
L 231.879565 55.389649 
L 233.196622 56.657419 
L 235.172207 59.525286 
L 237.806321 63.414754 
L 238.46485 64.448663 
L 239.123378 65.273329 
L 240.440435 66.36878 
L 241.098964 66.36878 
L 241.757492 66.910351 
L 242.416021 66.910351 
L 243.074549 67.402689 
L 243.733078 67.624241 
L 244.391606 68.091962 
L 245.050135 68.091962 
L 245.708663 68.338131 
L 246.367192 68.338131 
L 247.02572 68.830468 
L 248.342777 68.830468 
L 249.001306 69.37204 
L 250.976891 69.37204 
L 251.63542 69.864378 
L 252.952476 69.864378 
L 253.611005 70.307482 
L 254.269533 70.307482 
L 254.928062 70.55365 
L 255.58659 70.307482 
L 256.245119 70.307482 
L 257.562176 71.169073 
L 258.220704 70.799819 
L 259.537761 71.292157 
L 260.19629 71.292157 
L 260.854818 70.963932 
L 261.513347 71.292157 
L 262.171875 71.833728 
L 264.147461 71.833728 
L 264.805989 72.079897 
L 265.464518 71.833728 
L 266.781575 71.833728 
L 267.440103 72.326066 
L 268.098632 72.326066 
L 268.75716 72.079897 
L 269.415689 72.326066 
L 270.074217 72.76917 
L 270.732746 72.326066 
L 271.391274 72.079897 
L 272.049803 72.621469 
L 272.708331 72.76917 
L 274.683917 72.76917 
L 275.342445 73.507677 
L 276.000974 72.76917 
L 277.318031 72.473767 
L 278.635088 72.76917 
L 279.293616 72.436842 
L 279.952145 72.326066 
L 280.610673 72.079897 
L 281.269202 71.698336 
L 281.92773 72.161954 
L 283.244787 72.436842 
L 284.561844 72.547618 
L 285.220372 73.261508 
L 285.878901 73.261508 
L 286.537429 72.76917 
L 287.195958 71.833728 
L 287.854486 70.676735 
L 288.513015 68.830468 
L 289.171543 66.504173 
L 289.830072 65.384105 
L 290.4886 65.384105 
L 291.805657 65.548217 
L 292.464186 65.876442 
L 293.781243 67.402689 
L 295.0983 68.338131 
L 297.073885 70.307482 
L 299.049471 71.653205 
L 299.707999 71.833728 
L 301.025056 71.833728 
L 301.683585 72.326066 
L 302.342113 72.326066 
L 303.000642 71.833728 
L 303.65917 72.473767 
L 304.317699 72.76917 
L 304.976227 71.833728 
L 305.634756 72.326066 
L 306.293284 71.833728 
L 309.585927 71.833728 
L 310.244455 71.292157 
L 317.488268 71.292157 
L 318.146797 71.833728 
L 318.805325 71.833728 
L 319.463854 71.562943 
L 320.122382 71.562943 
L 320.780911 72.079897 
L 321.439439 71.833728 
L 324.073553 71.833728 
L 324.732082 72.079897 
L 325.39061 72.079897 
L 326.049139 72.326066 
L 326.707667 71.833728 
L 327.366196 72.326066 
L 328.683253 71.833728 
L 329.341781 71.292157 
L 330.00031 71.292157 
L 330.658838 71.833728 
L 331.317367 71.292157 
L 332.634424 72.326066 
L 333.292952 72.079897 
L 333.951481 72.079897 
L 334.610009 71.292157 
L 337.244123 71.292157 
L 337.902652 71.169073 
L 338.56118 69.864378 
L 339.219709 67.845793 
L 339.878237 66.910351 
L 340.536766 66.36878 
L 341.195294 65.384105 
L 342.512351 64.448663 
L 343.17088 63.537838 
L 343.829408 63.291669 
L 344.487937 62.479312 
L 345.146465 61.986975 
L 345.804994 61.716189 
L 346.463522 61.07615 
L 347.122051 61.445403 
L 348.439108 61.445403 
L 349.097636 61.986975 
L 349.756164 63.168585 
L 350.414693 62.700864 
L 352.390278 60.460728 
L 353.048807 59.648371 
L 353.707335 59.389893 
L 356.341449 58.737546 
L 356.999978 58.491377 
L 358.975563 58.491377 
L 359.634092 57.666711 
L 360.29262 58.491377 
L 360.951149 58.983715 
L 362.268206 61.986975 
L 364.243791 64.941001 
L 364.90232 65.236403 
L 366.219377 66.36878 
L 370.829076 66.36878 
L 371.487605 66.639566 
L 372.146133 66.36878 
L 373.46319 66.910351 
L 375.438776 66.910351 
L 376.097304 67.402689 
L 380.707004 67.402689 
L 381.365532 67.624241 
L 382.02406 67.624241 
L 382.682589 67.402689 
L 383.341117 67.698092 
L 383.999646 67.402689 
L 384.658174 67.845793 
L 387.292288 67.845793 
L 387.950817 68.338131 
L 388.609345 68.091962 
L 389.267874 68.091962 
L 389.926402 68.338131 
L 391.243459 68.338131 
L 391.901988 68.091962 
L 392.560516 67.402689 
L 396.511687 67.402689 
L 397.170216 66.729828 
L 397.828744 65.630273 
L 397.828744 65.630273 
" style="fill:none;stroke:#1f77b4;stroke-linecap:square;stroke-width:1.5;"/>
   </g>
   <g id="line2d_13">
    <path clip-path="url(#p6ca74875a6)" d="M 73.832727 92.447134 
L 74.491256 92.577967 
L 76.466841 92.67488 
L 77.12537 92.868706 
L 77.783898 93.479259 
L 78.442427 93.479259 
L 79.100955 94.031664 
L 80.418012 94.031664 
L 81.076541 93.159446 
L 81.735069 93.479259 
L 82.393598 94.031664 
L 83.052126 94.322403 
L 83.710655 94.322403 
L 85.027712 94.932956 
L 85.68624 94.826352 
L 86.344769 95.029869 
L 87.003297 94.932956 
L 88.320354 96.06684 
L 90.29594 97.011743 
L 90.954468 97.840351 
L 92.271525 98.974235 
L 93.588582 99.279511 
L 94.905639 100.137192 
L 95.564167 100.427932 
L 96.222696 101.038485 
L 96.881224 101.30015 
L 97.539753 101.881629 
L 98.198281 101.881629 
L 98.85681 98.780408 
L 99.515338 98.305534 
L 100.173867 96.939058 
L 100.832395 96.677393 
L 101.490924 96.677393 
L 102.149452 93.469568 
L 102.807981 91.560379 
L 104.125038 90.106681 
L 104.783566 89.961312 
L 105.442095 91.124269 
L 106.100623 90.789919 
L 107.41768 89.21508 
L 108.734737 88.507614 
L 109.393266 89.190852 
L 110.051794 89.118167 
L 111.368851 91.415009 
L 112.02738 91.415009 
L 112.685908 91.204223 
L 113.344437 91.415009 
L 114.002965 92.025562 
L 115.320022 85.244064 
L 115.978551 85.040546 
L 116.637079 84.97513 
L 117.954136 88.151458 
L 119.929722 90.46526 
L 120.58825 90.571864 
L 121.246779 92.025562 
L 122.563836 95.92147 
L 123.222364 96.764615 
L 123.880892 97.229798 
L 124.539421 98.683495 
L 125.197949 101.314687 
L 125.856478 105.758155 
L 126.515006 106.562534 
L 127.173535 109.053202 
L 127.832063 109.760669 
L 128.490592 110.923626 
L 129.14912 111.214366 
L 129.807649 111.020539 
L 131.124706 109.760669 
L 131.783234 109.150116 
L 132.441763 108.859376 
L 133.100291 107.856325 
L 133.75882 107.405679 
L 134.417348 106.562534 
L 135.075877 105.951982 
L 136.392934 105.399577 
L 137.709991 105.399577 
L 138.368519 105.661242 
L 139.027048 105.530409 
L 141.002633 107.114939 
L 141.661162 107.405679 
L 142.31969 108.859376 
L 144.295276 110.76372 
L 145.612333 111.476031 
L 146.92939 112.217417 
L 147.587918 112.217417 
L 148.246447 112.668063 
L 148.904975 112.929729 
L 149.563504 112.929729 
L 150.222032 113.220468 
L 150.880561 113.220468 
L 151.539089 113.075098 
L 152.197618 112.798896 
L 152.856146 112.798896 
L 153.514675 112.522693 
L 154.831732 113.220468 
L 156.148788 113.220468 
L 156.807317 113.511207 
L 157.465845 113.002413 
L 158.124374 111.301588 
L 158.782902 110.5069 
L 160.099959 109.826085 
L 160.758488 109.760669 
L 161.417016 106.853274 
L 162.075545 106.097351 
L 162.734073 106.322674 
L 164.05113 105.108837 
L 164.709659 106.329943 
L 165.368187 106.446239 
L 166.026716 107.551049 
L 166.685244 107.332994 
L 167.343773 108.016232 
L 168.66083 108.430535 
L 169.319358 108.016232 
L 169.977887 109.150116 
L 170.636415 109.150116 
L 171.294944 110.240389 
L 171.953472 110.843673 
L 172.612001 111.708623 
L 173.270529 111.960597 
L 174.587586 107.696418 
L 175.246115 106.402628 
L 175.904643 104.570969 
L 176.563172 104.498284 
L 177.2217 105.767847 
L 177.880229 105.787229 
L 178.538757 105.302664 
L 179.197286 105.668511 
L 179.855814 103.727825 
L 180.514343 103.945879 
L 181.172871 104.432868 
L 181.8314 105.108837 
L 182.489928 106.097351 
L 183.148457 106.707904 
L 183.806985 107.696418 
L 184.465514 109.150116 
L 185.124042 109.760669 
L 185.782571 110.603813 
L 187.099628 111.345199 
L 187.758156 111.214366 
L 188.416684 111.476031 
L 189.075213 111.345199 
L 190.39227 111.863684 
L 191.050798 111.766771 
L 191.709327 112.217417 
L 192.367855 112.377324 
L 195.001969 112.377324 
L 195.660498 112.668063 
L 196.319026 112.668063 
L 196.977555 112.929729 
L 197.636083 112.929729 
L 198.294612 112.798896 
L 198.95314 112.929729 
L 199.611669 112.929729 
L 200.270197 113.075098 
L 200.928726 112.929729 
L 202.245783 112.522693 
L 202.904311 112.377324 
L 203.56284 112.05751 
L 204.221368 112.377324 
L 204.879897 112.05751 
L 205.538425 112.05751 
L 207.514011 111.214366 
L 208.831068 111.214366 
L 210.148125 110.923626 
L 210.806653 111.214366 
L 212.12371 111.214366 
L 212.782239 110.923626 
L 213.440767 110.923626 
L 214.757824 111.476031 
L 215.416353 111.020539 
L 216.074881 110.923626 
L 216.73341 111.214366 
L 217.391938 110.603813 
L 219.367524 110.603813 
L 220.026052 110.313073 
L 221.343109 112.05751 
L 222.001637 112.522693 
L 223.318694 113.831021 
L 224.635751 115.044858 
L 225.29428 115.837123 
L 225.952808 116.127863 
L 227.269865 116.127863 
L 227.928394 116.273232 
L 229.903979 117.872299 
L 230.562508 118.264798 
L 231.221036 118.264798 
L 233.196622 116.738415 
L 234.513679 115.502773 
L 236.489264 112.929729 
L 239.781907 107.308766 
L 242.416021 103.044587 
L 243.074549 101.59089 
L 245.050135 98.392756 
L 245.708663 96.939058 
L 247.02572 94.419317 
L 247.684249 94.22549 
L 248.342777 93.014076 
L 249.001306 91.415009 
L 251.63542 87.955209 
L 252.293948 86.763177 
L 252.952476 86.501512 
L 253.611005 84.757075 
L 254.928062 83.143471 
L 255.58659 82.838195 
L 256.245119 82.692825 
L 257.562176 81.021073 
L 258.220704 81.045301 
L 258.879233 80.236077 
L 260.19629 79.233026 
L 260.854818 79.591604 
L 261.513347 78.622473 
L 262.171875 78.331733 
L 262.830404 77.779328 
L 263.488932 77.633959 
L 264.147461 76.878036 
L 265.464518 76.878036 
L 266.123046 77.168775 
L 266.781575 76.587296 
L 267.440103 76.325631 
L 268.098632 76.325631 
L 269.415689 75.424339 
L 270.732746 75.424339 
L 271.391274 75.569708 
L 272.708331 75.133599 
L 273.36686 75.424339 
L 274.025388 76.034892 
L 274.683917 76.034892 
L 275.342445 75.874985 
L 276.000974 76.587296 
L 276.659502 76.781123 
L 277.318031 76.68421 
L 278.635088 76.878036 
L 279.293616 76.732666 
L 279.952145 77.168775 
L 281.269202 78.331733 
L 282.586259 78.331733 
L 283.244787 78.477103 
L 284.561844 78.477103 
L 285.220372 77.488589 
L 285.878901 77.071862 
L 287.195958 78.622473 
L 288.513015 80.882972 
L 289.830072 85.60022 
L 290.4886 86.981232 
L 291.147129 89.110899 
L 292.464186 91.318096 
L 293.122714 90.993437 
L 294.439771 91.196954 
L 295.756828 90.571864 
L 297.073885 89.58335 
L 297.732414 89.670572 
L 298.390942 88.95826 
L 299.049471 88.410701 
L 299.707999 88.507614 
L 300.366528 88.216875 
L 301.025056 88.216875 
L 302.342113 87.344656 
L 303.000642 87.66447 
L 303.65917 86.860091 
L 304.317699 86.763177 
L 304.976227 87.344656 
L 305.634756 86.763177 
L 306.293284 87.053917 
L 308.927398 87.66447 
L 310.244455 87.053917 
L 310.902984 87.053917 
L 311.561512 86.763177 
L 312.220041 86.763177 
L 313.537098 86.501512 
L 314.195626 86.763177 
L 314.854155 87.344656 
L 315.512683 88.216875 
L 318.146797 89.408907 
L 318.805325 89.118167 
L 319.463854 88.216875 
L 320.122382 88.086042 
L 320.780911 88.216875 
L 321.439439 88.652984 
L 322.097968 89.311993 
L 323.415025 89.961312 
L 324.073553 89.58335 
L 324.732082 89.408907 
L 325.39061 89.670572 
L 326.707667 89.670572 
L 328.024724 89.118167 
L 329.341781 89.670572 
L 330.00031 89.539739 
L 331.317367 89.815942 
L 331.975895 90.571864 
L 333.292952 91.269639 
L 333.951481 91.705748 
L 335.268538 90.862604 
L 335.927066 90.252051 
L 336.585595 89.961312 
L 337.244123 89.408907 
L 337.902652 88.434929 
L 338.56118 85.113231 
L 339.219709 80.236077 
L 339.878237 77.633959 
L 340.536766 76.52188 
L 341.195294 75.068183 
L 341.853823 74.367985 
L 342.512351 72.887637 
L 343.17088 71.724679 
L 343.829408 71.230422 
L 344.487937 70.985716 
L 345.146465 70.510842 
L 345.804994 70.270982 
L 346.463522 69.624086 
L 347.122051 67.218217 
L 348.439108 70.191028 
L 349.097636 71.157737 
L 349.756164 71.804632 
L 350.414693 71.572041 
L 351.073221 69.769456 
L 351.73175 67.58891 
L 353.048807 61.934028 
L 354.365864 58.41608 
L 355.024392 58.096267 
L 355.682921 56.148313 
L 356.341449 54.585588 
L 356.999978 54.607394 
L 357.658506 54.781837 
L 358.317035 53.844202 
L 358.975563 53.568 
L 362.926734 62.050324 
L 363.585263 62.370137 
L 364.243791 63.504021 
L 365.560848 65.117625 
L 366.219377 65.829937 
L 366.877905 66.731229 
L 367.536434 67.865113 
L 368.194962 68.315759 
L 369.512019 69.638623 
L 370.829076 70.191028 
L 372.146133 71.092321 
L 373.46319 71.353986 
L 374.121719 71.353986 
L 374.780247 71.644726 
L 375.438776 71.353986 
L 376.755833 71.353986 
L 377.414361 71.644726 
L 378.07289 71.353986 
L 378.731418 71.644726 
L 379.389947 71.499356 
L 380.048475 71.644726 
L 380.707004 71.644726 
L 381.365532 71.804632 
L 382.02406 71.804632 
L 382.682589 71.644726 
L 383.341117 71.857935 
L 383.999646 71.644726 
L 385.975231 71.644726 
L 386.63376 71.353986 
L 388.609345 71.353986 
L 389.926402 71.092321 
L 393.219045 71.092321 
L 393.877573 71.353986 
L 394.536102 71.353986 
L 395.19463 71.092321 
L 395.853159 71.092321 
L 396.511687 70.772507 
L 397.170216 69.725845 
L 397.828744 68.025019 
L 397.828744 68.025019 
" style="fill:none;stroke:#ff7f0e;stroke-linecap:square;stroke-width:1.5;"/>
   </g>
   <g id="line2d_14">
    <path clip-path="url(#p6ca74875a6)" d="M 73.832727 167.298007 
L 97.539753 167.298007 
L 98.198281 85.770423 
L 98.85681 87.327035 
L 99.515338 85.770423 
L 100.173867 83.046351 
L 100.832395 80.906009 
L 102.149452 70.269156 
L 103.466509 78.960243 
L 104.125038 77.792783 
L 104.783566 77.98736 
L 105.442095 76.041594 
L 106.100623 77.209054 
L 107.41768 80.906009 
L 108.076209 79.835837 
L 108.734737 77.500918 
L 109.393266 56.681225 
L 110.051794 66.118189 
L 110.710323 57.216311 
L 111.368851 53.568 
L 112.02738 161.266133 
L 112.685908 56.875802 
L 113.344437 80.906009 
L 114.002965 77.98736 
L 114.661494 82.073468 
L 115.320022 76.771256 
L 115.978551 61.642928 
L 116.637079 66.507342 
L 117.295608 78.81431 
L 117.954136 74.58227 
L 118.612665 76.771256 
L 119.271193 80.906009 
L 119.929722 80.906009 
L 120.58825 80.322279 
L 121.246779 80.322279 
L 121.905307 83.046351 
L 123.222364 83.046351 
L 123.880892 167.298007 
L 156.807317 167.298007 
L 157.465845 85.089405 
L 158.124374 87.716189 
L 158.782902 85.770423 
L 159.441431 83.046351 
L 160.099959 83.046351 
L 160.758488 82.365333 
L 161.417016 82.073468 
L 162.075545 78.81431 
L 162.734073 80.906009 
L 164.05113 78.960243 
L 164.709659 73.852608 
L 165.368187 74.420123 
L 166.026716 72.393283 
L 166.685244 73.609387 
L 167.343773 77.257698 
L 168.002301 71.663621 
L 168.66083 63.442761 
L 169.319358 74.095828 
L 169.977887 68.258531 
L 170.636415 157.861043 
L 171.294944 73.17159 
L 171.953472 69.961076 
L 172.612001 58.432414 
L 173.270529 59.632303 
L 173.929058 59.259365 
L 174.587586 60.864621 
L 175.246115 65.437171 
L 175.904643 67.528869 
L 176.563172 70.204297 
L 177.2217 74.095828 
L 177.880229 74.290405 
L 178.538757 76.041594 
L 179.855814 77.792783 
L 180.514343 80.906009 
L 181.8314 83.046351 
L 182.489928 83.046351 
L 183.148457 167.298007 
L 217.391938 167.298007 
L 218.050467 165.481959 
L 218.708995 162.628169 
L 219.367524 161.266133 
L 221.343109 131.982359 
L 222.001637 126.047773 
L 222.660166 114.567756 
L 223.977223 103.671468 
L 224.635751 99.00163 
L 225.29428 101.531125 
L 225.952808 102.893161 
L 226.611337 98.677336 
L 227.928394 106.541472 
L 228.586922 107.271134 
L 229.245451 110.481648 
L 230.562508 118.994373 
L 231.221036 128.771846 
L 231.879565 136.036038 
L 232.538093 139.927569 
L 233.196622 142.781359 
L 233.85515 144.337971 
L 234.513679 153.677647 
L 235.172207 153.726291 
L 235.830736 157.374602 
L 236.489264 160.098674 
L 237.147793 157.958331 
L 237.806321 162.628169 
L 238.46485 165.060376 
L 239.123378 164.573935 
L 239.781907 167.298007 
L 276.659502 167.298007 
L 277.318031 164.573935 
L 277.976559 163.276758 
L 278.635088 164.573935 
L 279.293616 159.514944 
L 279.952145 163.276758 
L 280.610673 138.306098 
L 281.269202 164.573935 
L 281.92773 163.925346 
L 282.586259 162.628169 
L 283.244787 166.130548 
L 283.903316 163.017322 
L 284.561844 166.130548 
L 285.220372 164.573935 
L 285.878901 161.266133 
L 286.537429 159.644662 
L 287.195958 138.062877 
L 287.854486 156.693584 
L 288.513015 111.162666 
L 289.171543 115.735215 
L 289.830072 118.264711 
L 290.4886 136.798129 
L 291.147129 129.306931 
L 292.464186 145.505431 
L 293.122714 156.207142 
L 293.781243 150.629281 
L 294.439771 156.304431 
L 295.0983 160.552686 
L 295.756828 160.098674 
L 296.415357 160.779692 
L 297.073885 161.266133 
L 297.732414 162.141728 
L 298.390942 162.628169 
L 299.049471 166.130548 
L 300.366528 164.573935 
L 301.025056 167.298007 
L 337.244123 167.298007 
L 337.902652 87.132459 
L 338.56118 90.926702 
L 339.219709 85.770423 
L 339.878237 83.046351 
L 340.536766 81.197873 
L 341.195294 82.073468 
L 341.853823 81.489738 
L 342.512351 81.635671 
L 343.17088 78.960243 
L 344.487937 71.501474 
L 345.146465 75.068711 
L 345.804994 77.014477 
L 346.463522 74.095828 
L 347.122051 76.917189 
L 347.780579 70.204297 
L 348.439108 77.014477 
L 349.097636 162.141728 
L 349.756164 96.131625 
L 350.414693 74.971423 
L 351.073221 74.825491 
L 351.73175 74.095828 
L 352.390278 75.068711 
L 353.048807 78.960243 
L 353.707335 80.906009 
L 354.365864 80.906009 
L 355.024392 81.878891 
L 355.682921 81.878891 
L 356.341449 82.073468 
L 356.999978 80.322279 
L 357.658506 83.046351 
L 360.29262 83.046351 
L 360.951149 167.298007 
L 396.511687 167.298007 
L 397.170216 88.494495 
L 397.828744 85.770423 
L 397.828744 85.770423 
" style="fill:none;stroke:#2ca02c;stroke-linecap:square;stroke-width:1.5;"/>
   </g>
   <g id="line2d_15">
    <path clip-path="url(#p6ca74875a6)" d="M 73.832727 139.76263 
L 74.491256 140.078154 
L 75.149784 140.172341 
L 75.808313 140.436062 
L 76.466841 140.888157 
L 77.12537 140.878738 
L 77.783898 140.567923 
L 79.100955 141.528624 
L 79.759484 141.528624 
L 80.418012 141.377926 
L 81.076541 141.811183 
L 81.735069 141.867695 
L 83.052126 142.319789 
L 83.710655 142.10787 
L 84.369183 142.235022 
L 85.027712 142.206766 
L 85.68624 142.602348 
L 86.344769 142.715372 
L 87.003297 142.121998 
L 87.661826 142.150254 
L 88.320354 142.348045 
L 88.978883 142.206766 
L 89.637411 142.263278 
L 90.954468 141.698159 
L 91.612996 141.924207 
L 92.271525 141.924207 
L 92.930053 142.093742 
L 95.564167 141.924207 
L 96.881224 141.547461 
L 97.539753 141.641648 
L 98.198281 140.624435 
L 100.173867 128.149454 
L 100.832395 124.702234 
L 101.490924 122.766705 
L 102.149452 115.00575 
L 102.807981 110.334108 
L 103.466509 109.015499 
L 104.125038 108.214915 
L 104.783566 108.723521 
L 105.442095 110.616667 
L 106.759152 106.415956 
L 107.41768 106.434793 
L 108.076209 103.072341 
L 108.734737 103.863506 
L 109.393266 107.211831 
L 110.051794 104.551066 
L 110.710323 108.66701 
L 111.368851 110.786202 
L 112.02738 113.682432 
L 112.685908 117.369828 
L 114.002965 122.342866 
L 114.661494 119.319485 
L 115.320022 110.969866 
L 115.978551 106.957528 
L 116.637079 105.00787 
L 117.295608 104.979614 
L 117.954136 106.604329 
L 118.612665 106.901016 
L 119.271193 107.593285 
L 119.929722 106.905725 
L 120.58825 106.561945 
L 121.246779 108.723521 
L 122.563836 115.745113 
L 123.222364 117.172036 
L 123.880892 119.149949 
L 124.539421 124.631594 
L 125.856478 132.693945 
L 126.515006 134.634184 
L 127.173535 137.21489 
L 127.832063 138.081404 
L 128.490592 139.324664 
L 129.14912 139.918038 
L 129.807649 140.228853 
L 130.466177 140.200597 
L 131.783234 141.07653 
L 133.100291 141.217809 
L 133.75882 141.641648 
L 134.417348 141.895951 
L 135.075877 141.698159 
L 135.734405 142.093742 
L 137.709991 141.905369 
L 138.368519 142.206766 
L 139.027048 141.867695 
L 139.685576 142.300952 
L 141.661162 142.093742 
L 142.31969 142.80014 
L 142.978219 142.65886 
L 143.636747 142.884907 
L 144.295276 142.687116 
L 144.953804 142.941419 
L 145.612333 143.054443 
L 146.270861 143.026187 
L 147.587918 142.602348 
L 148.246447 142.80014 
L 148.904975 142.743628 
L 149.563504 142.80014 
L 150.222032 142.715372 
L 150.880561 142.913163 
L 151.539089 142.828396 
L 152.197618 143.252234 
L 152.856146 142.602348 
L 154.173203 143.223978 
L 155.49026 142.715372 
L 156.807317 142.65886 
L 157.465845 142.390429 
L 158.782902 135.651396 
L 159.441431 133.89953 
L 160.099959 131.398883 
L 160.758488 130.678358 
L 161.417016 124.518571 
L 162.075545 123.360079 
L 162.734073 121.565829 
L 164.05113 119.022798 
L 164.709659 120.294313 
L 165.368187 118.415296 
L 166.026716 119.997626 
L 166.685244 120.350825 
L 167.343773 122.823217 
L 169.319358 121.448096 
L 170.636415 126.411716 
L 171.294944 129.858936 
L 171.953472 130.268647 
L 172.612001 131.568418 
L 173.270529 130.998591 
L 173.929058 125.860726 
L 175.246115 118.500064 
L 175.904643 115.829881 
L 176.563172 116.814128 
L 177.2217 116.87064 
L 177.880229 118.773204 
L 179.197286 116.296103 
L 179.855814 113.7672 
L 180.514343 114.45947 
L 181.172871 117.256804 
L 181.8314 119.404252 
L 182.489928 122.032051 
L 183.148457 123.303567 
L 185.124042 134.426974 
L 185.782571 136.951168 
L 186.441099 137.949543 
L 187.099628 139.494199 
L 187.758156 140.511412 
L 188.416684 140.822226 
L 189.733741 141.924207 
L 190.39227 141.905369 
L 191.050798 142.074905 
L 191.709327 142.404557 
L 192.367855 142.235022 
L 194.343441 142.602348 
L 195.001969 142.17851 
L 195.660498 142.828396 
L 196.319026 142.376301 
L 196.977555 142.461069 
L 197.636083 142.432813 
L 198.294612 142.715372 
L 198.95314 142.489325 
L 199.611669 142.790721 
L 200.928726 142.602348 
L 201.587254 142.357464 
L 202.245783 142.545837 
L 202.904311 142.489325 
L 204.221368 142.941419 
L 204.879897 142.771884 
L 205.538425 142.263278 
L 206.196954 142.263278 
L 206.855482 142.715372 
L 207.514011 142.545837 
L 208.172539 142.065486 
L 208.831068 142.376301 
L 209.489596 142.291533 
L 210.148125 141.952463 
L 211.465182 142.517581 
L 212.12371 142.206766 
L 212.782239 142.206766 
L 213.440767 142.093742 
L 214.099296 141.867695 
L 214.757824 141.980718 
L 216.074881 141.811183 
L 216.73341 141.867695 
L 217.391938 141.641648 
L 218.050467 141.811183 
L 219.367524 141.443856 
L 220.026052 141.566299 
L 220.68458 141.302577 
L 221.343109 141.585136 
L 222.660166 141.114204 
L 223.318694 141.344961 
L 223.977223 141.321414 
L 225.29428 141.660485 
L 225.952808 141.811183 
L 226.611337 141.49095 
L 227.269865 141.547461 
L 227.928394 141.359089 
L 229.245451 141.952463 
L 229.903979 141.669904 
L 230.562508 141.726415 
L 231.221036 142.121998 
L 231.879565 142.376301 
L 232.538093 142.093742 
L 233.196622 142.432813 
L 233.85515 142.395138 
L 235.172207 142.602348 
L 235.830736 142.348045 
L 237.147793 142.545837 
L 239.123378 142.672988 
L 241.098964 142.432813 
L 241.757492 142.997931 
L 242.416021 142.17851 
L 243.074549 142.771884 
L 243.733078 142.65886 
L 244.391606 142.348045 
L 245.050135 142.348045 
L 245.708663 142.489325 
L 246.367192 142.150254 
L 247.02572 142.074905 
L 247.684249 142.131417 
L 249.001306 142.517581 
L 250.976891 142.291533 
L 251.63542 142.545837 
L 252.293948 142.319789 
L 252.952476 142.602348 
L 253.611005 142.404557 
L 254.269533 142.65886 
L 254.928062 142.517581 
L 255.58659 142.545837 
L 256.245119 142.432813 
L 257.562176 142.58822 
L 259.537761 142.621186 
L 260.19629 142.169091 
L 262.830404 142.602348 
L 263.488932 142.489325 
L 264.147461 142.65886 
L 265.464518 142.602348 
L 266.123046 142.404557 
L 266.781575 142.884907 
L 267.440103 142.461069 
L 268.75716 142.602348 
L 270.074217 142.715372 
L 270.732746 142.884907 
L 271.391274 142.461069 
L 272.049803 142.753046 
L 272.708331 143.167466 
L 273.36686 143.026187 
L 274.025388 142.715372 
L 274.683917 142.574092 
L 275.342445 142.65886 
L 276.000974 142.913163 
L 276.659502 142.884907 
L 277.318031 142.621186 
L 277.976559 142.489325 
L 279.952145 142.640023 
L 281.269202 142.983803 
L 281.92773 142.903745 
L 282.586259 143.148629 
L 283.244787 142.503453 
L 283.903316 143.393514 
L 284.561844 142.602348 
L 285.220372 143.040315 
L 285.878901 142.884907 
L 286.537429 143.242815 
L 287.195958 143.167466 
L 288.513015 143.238106 
L 289.830072 143.054443 
L 291.147129 143.732584 
L 291.805657 143.713747 
L 292.464186 143.223978 
L 293.122714 143.054443 
L 293.781243 143.638398 
L 294.439771 143.619561 
L 295.0983 143.431188 
L 295.756828 143.581886 
L 296.415357 143.563049 
L 297.732414 143.110955 
L 298.390942 143.450025 
L 299.707999 143.252234 
L 300.366528 143.42177 
L 301.025056 143.13921 
L 301.683585 143.374676 
L 302.342113 143.082699 
L 303.65917 143.205141 
L 304.317699 142.461069 
L 305.634756 142.715372 
L 306.293284 142.376301 
L 306.951813 142.17851 
L 307.610341 142.319789 
L 308.26887 142.150254 
L 308.927398 142.263278 
L 309.585927 141.585136 
L 310.244455 142.093742 
L 310.902984 142.206766 
L 311.561512 142.056068 
L 312.220041 141.754671 
L 312.878569 141.867695 
L 313.537098 142.206766 
L 314.854155 141.585136 
L 315.512683 141.698159 
L 316.171212 141.4156 
L 316.82974 141.528624 
L 317.488268 141.472112 
L 318.146797 140.906994 
L 318.805325 141.07653 
L 319.463854 141.387345 
L 320.780911 140.906994 
L 321.439439 141.048274 
L 322.097968 140.963506 
L 322.756496 140.737459 
L 323.415025 140.878738 
L 324.732082 140.624435 
L 325.39061 140.680947 
L 326.049139 140.850482 
L 326.707667 141.161297 
L 327.366196 140.963506 
L 328.024724 141.161297 
L 328.683253 141.161297 
L 329.341781 141.302577 
L 330.00031 141.020018 
L 330.658838 141.302577 
L 331.317367 141.359089 
L 331.975895 141.246065 
L 332.634424 140.850482 
L 334.610009 140.680947 
L 335.268538 140.925831 
L 335.927066 140.567923 
L 336.585595 140.793971 
L 337.244123 140.652691 
L 337.902652 140.228853 
L 338.56118 135.665524 
L 339.878237 117.228548 
L 340.536766 112.59458 
L 341.195294 104.993742 
L 342.512351 97.180985 
L 343.17088 92.137307 
L 343.829408 90.611488 
L 344.487937 87.277292 
L 345.146465 85.186355 
L 345.804994 84.776644 
L 346.463522 89.56602 
L 347.122051 88.661831 
L 347.780579 91.609863 
L 349.097636 99.413202 
L 349.756164 103.948274 
L 350.414693 103.637459 
L 351.073221 100.811869 
L 351.73175 96.036621 
L 352.390278 86.561475 
L 353.707335 72.202768 
L 355.024392 63.975591 
L 356.999978 54.086025 
L 357.658506 55.715449 
L 358.317035 53.582128 
L 358.975563 53.568 
L 359.634092 55.475273 
L 361.609677 75.551092 
L 362.268206 84.451701 
L 362.926734 91.515677 
L 364.90232 107.07526 
L 365.560848 110.560155 
L 366.219377 115.222379 
L 366.877905 118.189249 
L 367.536434 122.295773 
L 368.194962 124.829386 
L 368.853491 126.637764 
L 369.512019 129.378586 
L 370.170548 129.97196 
L 370.829076 132.430223 
L 371.487605 133.956042 
L 372.804662 136.188259 
L 374.121719 137.290239 
L 374.780247 138.250939 
L 375.438776 138.674778 
L 376.097304 139.69199 
L 376.755833 139.720246 
L 377.414361 140.144085 
L 378.731418 140.624435 
L 379.389947 141.133041 
L 380.048475 141.133041 
L 381.365532 141.359089 
L 382.02406 141.387345 
L 382.682589 141.698159 
L 383.341117 141.585136 
L 383.999646 141.980718 
L 384.658174 141.980718 
L 385.316703 142.121998 
L 385.975231 141.980718 
L 387.950817 142.319789 
L 389.267874 141.895951 
L 389.926402 142.376301 
L 390.584931 141.924207 
L 391.243459 142.150254 
L 391.901988 141.811183 
L 392.560516 141.867695 
L 393.219045 142.112579 
L 393.877573 141.726415 
L 394.536102 141.980718 
L 395.19463 141.453275 
L 396.511687 141.613392 
L 397.828744 137.233727 
L 397.828744 137.233727 
" style="fill:none;stroke:#d62728;stroke-linecap:square;stroke-width:1.5;"/>
   </g>
   <g id="line2d_16">
    <path clip-path="url(#p6ca74875a6)" d="M 73.832727 146.874835 
L 75.149784 153.179594 
L 75.808313 155.743021 
L 77.12537 158.956986 
L 77.783898 160.487464 
L 78.442427 161.303982 
L 79.759484 162.011033 
L 80.418012 162.54811 
L 81.076541 162.458676 
L 82.393598 161.128911 
L 83.052126 160.962239 
L 83.710655 161.334701 
L 84.369183 161.468494 
L 85.027712 160.798461 
L 85.68624 160.334362 
L 86.344769 160.31368 
L 87.661826 159.63353 
L 88.320354 159.177509 
L 88.978883 158.517249 
L 89.637411 157.2754 
L 90.29594 155.272082 
L 90.954468 152.608184 
L 91.612996 149.255351 
L 92.271525 144.290461 
L 92.930053 137.643834 
L 93.588582 129.731337 
L 94.24711 119.780693 
L 94.905639 107.321179 
L 96.881224 65.38429 
L 97.539753 60.958548 
L 98.198281 62.376407 
L 98.85681 69.997887 
L 101.490924 115.365804 
L 102.807981 131.912942 
L 104.125038 144.956179 
L 105.442095 154.233631 
L 106.100623 157.572974 
L 106.759152 160.071646 
L 107.41768 161.712044 
L 108.076209 162.767976 
L 108.734737 163.478349 
L 109.393266 163.843503 
L 110.051794 163.971792 
L 110.710323 164.37154 
L 111.368851 165.038801 
L 112.02738 165.346216 
L 112.685908 165.0193 
L 114.002965 163.1479 
L 114.661494 162.56777 
L 115.320022 161.694142 
L 115.978551 160.424426 
L 116.637079 158.573769 
L 117.295608 156.034054 
L 117.954136 152.728594 
L 118.612665 148.347011 
L 119.271193 142.36409 
L 119.929722 134.535981 
L 121.246779 115.024221 
L 123.222364 80.364224 
L 123.880892 71.763249 
L 124.539421 67.56538 
L 125.197949 69.523447 
L 126.515006 81.231873 
L 127.832063 96.813082 
L 130.466177 129.784623 
L 131.124706 135.837852 
L 131.783234 140.259918 
L 132.441763 143.471001 
L 133.75882 147.976446 
L 135.734405 157.019469 
L 136.392934 158.881172 
L 137.051462 159.505477 
L 139.027048 160.436987 
L 140.344105 162.061569 
L 141.002633 162.447564 
L 142.31969 162.515245 
L 144.295276 162.731152 
L 144.953804 162.935246 
L 145.612333 162.594988 
L 146.270861 162.023492 
L 146.92939 161.177287 
L 148.246447 159.785203 
L 149.563504 156.435404 
L 150.222032 154.167511 
L 150.880561 150.906898 
L 151.539089 146.426937 
L 152.197618 140.313087 
L 152.856146 132.715497 
L 153.514675 123.380234 
L 154.173203 112.080553 
L 156.148788 74.508442 
L 156.807317 69.682065 
L 157.465845 69.976411 
L 158.124374 76.194543 
L 161.417016 127.757354 
L 162.734073 142.018382 
L 163.392602 147.788359 
L 164.05113 152.38187 
L 164.709659 156.140886 
L 165.368187 159.019199 
L 166.026716 161.218367 
L 166.685244 162.819384 
L 167.343773 163.758394 
L 168.002301 163.931547 
L 168.66083 163.604702 
L 169.319358 163.86044 
L 169.977887 164.570451 
L 170.636415 164.905853 
L 171.294944 164.745408 
L 172.612001 163.333828 
L 174.587586 161.059333 
L 175.246115 160.059929 
L 175.904643 158.444531 
L 176.563172 156.048844 
L 177.2217 152.643267 
L 177.880229 148.034176 
L 178.538757 142.053588 
L 179.197286 134.535508 
L 180.514343 114.829914 
L 182.489928 79.102806 
L 183.148457 71.90644 
L 183.806985 69.273184 
L 184.465514 73.248513 
L 186.441099 99.79428 
L 187.758156 117.593587 
L 189.733741 139.396109 
L 190.39227 145.05887 
L 191.050798 149.600604 
L 191.709327 152.706843 
L 192.367855 155.033336 
L 193.026384 156.503487 
L 194.343441 157.812011 
L 195.001969 158.24257 
L 195.660498 159.747877 
L 196.319026 162.03293 
L 196.977555 163.508633 
L 197.636083 164.226199 
L 198.294612 164.32009 
L 198.95314 163.746084 
L 199.611669 163.4233 
L 200.928726 163.642896 
L 202.245783 164.481423 
L 202.904311 164.873147 
L 203.56284 164.865401 
L 204.221368 164.686449 
L 204.879897 164.700316 
L 205.538425 165.029358 
L 206.196954 165.086751 
L 206.855482 165.026783 
L 207.514011 165.14129 
L 208.172539 164.665223 
L 209.489596 163.473153 
L 210.148125 162.9954 
L 210.806653 162.216535 
L 212.12371 159.520296 
L 212.782239 157.32606 
L 214.757824 148.396347 
L 215.416353 143.556572 
L 218.050467 118.530839 
L 219.367524 102.305816 
L 220.026052 96.525192 
L 220.68458 94.69147 
L 221.343109 96.862913 
L 222.001637 101.6503 
L 223.318694 115.245031 
L 225.29428 136.719971 
L 225.952808 142.450291 
L 226.611337 146.725501 
L 227.269865 149.617761 
L 227.928394 151.312578 
L 228.586922 151.780718 
L 229.245451 150.96761 
L 229.903979 148.785222 
L 230.562508 145.523856 
L 232.538093 134.305066 
L 233.85515 127.794516 
L 234.513679 125.03486 
L 235.172207 122.862459 
L 235.830736 121.30629 
L 236.489264 120.362136 
L 237.147793 119.9053 
L 237.806321 119.749118 
L 238.46485 120.048966 
L 239.123378 120.629072 
L 239.781907 122.272962 
L 240.440435 124.519943 
L 241.098964 127.236759 
L 241.757492 131.08618 
L 242.416021 134.182196 
L 245.050135 143.262103 
L 245.708663 145.311424 
L 246.367192 146.910498 
L 247.02572 148.003786 
L 248.342777 148.987945 
L 249.659834 150.560925 
L 250.318363 151.101341 
L 251.63542 151.89725 
L 252.952476 153.076974 
L 253.611005 153.411321 
L 254.269533 154.079144 
L 258.220704 161.113487 
L 258.879233 161.891293 
L 260.854818 162.838013 
L 261.513347 162.997259 
L 262.830404 162.285734 
L 264.805989 162.220715 
L 266.781575 163.916201 
L 268.098632 164.399895 
L 268.75716 164.822198 
L 269.415689 164.844754 
L 270.074217 164.421361 
L 270.732746 163.758463 
L 272.049803 162.844262 
L 274.683917 159.868214 
L 275.342445 158.299201 
L 276.000974 157.948943 
L 276.659502 158.527043 
L 277.318031 158.44365 
L 277.976559 158.123208 
L 279.952145 156.205114 
L 281.269202 155.970439 
L 281.92773 155.491019 
L 282.586259 154.184465 
L 283.244787 152.138639 
L 284.561844 146.654082 
L 285.220372 143.616141 
L 285.878901 141.157246 
L 286.537429 139.945094 
L 287.195958 140.858181 
L 287.854486 144.056123 
L 288.513015 148.065975 
L 289.171543 151.06588 
L 289.830072 152.481557 
L 290.4886 152.179898 
L 291.147129 149.969415 
L 291.805657 147.254585 
L 292.464186 145.486098 
L 293.122714 144.873181 
L 293.781243 145.242719 
L 295.0983 147.241107 
L 295.756828 147.418556 
L 296.415357 147.441851 
L 297.732414 148.541906 
L 298.390942 149.298093 
L 299.707999 152.609566 
L 300.366528 153.732986 
L 302.342113 157.78247 
L 303.000642 159.489886 
L 303.65917 160.589758 
L 304.317699 161.39164 
L 304.976227 161.909292 
L 305.634756 161.913773 
L 306.293284 161.527853 
L 306.951813 160.810068 
L 307.610341 161.18552 
L 308.26887 162.786598 
L 308.927398 163.250884 
L 309.585927 162.775928 
L 310.244455 162.863631 
L 310.902984 162.388611 
L 311.561512 162.386061 
L 312.220041 163.441985 
L 312.878569 164.267122 
L 313.537098 164.857983 
L 314.195626 164.946759 
L 314.854155 164.385187 
L 315.512683 163.338814 
L 316.171212 161.766297 
L 316.82974 161.204719 
L 318.805325 162.283609 
L 319.463854 162.721946 
L 320.780911 163.365254 
L 322.097968 164.064182 
L 326.049139 163.581476 
L 326.707667 163.731521 
L 327.366196 163.637086 
L 328.024724 163.039709 
L 328.683253 161.819972 
L 329.341781 159.787537 
L 330.658838 152.975678 
L 331.317367 148.567685 
L 331.975895 142.602369 
L 332.634424 135.494997 
L 333.292952 126.837002 
L 333.951481 115.915461 
L 335.268538 89.008638 
L 335.927066 73.744962 
L 336.585595 61.345135 
L 337.244123 54.377958 
L 337.902652 53.568 
L 338.56118 59.730825 
L 339.878237 80.920994 
L 341.853823 116.228656 
L 343.17088 134.415129 
L 343.829408 141.506012 
L 344.487937 147.370334 
L 345.146465 152.131715 
L 345.804994 155.851624 
L 346.463522 158.612066 
L 347.780579 162.048304 
L 348.439108 163.338282 
L 349.097636 164.079116 
L 349.756164 164.141419 
L 350.414693 163.668554 
L 353.707335 160.086933 
L 355.024392 158.674432 
L 355.682921 157.644002 
L 356.341449 156.266749 
L 356.999978 154.41693 
L 357.658506 151.95681 
L 358.317035 148.761586 
L 360.29262 137.246198 
L 360.951149 134.318702 
L 361.609677 132.06339 
L 362.268206 130.72626 
L 362.926734 129.868686 
L 363.585263 128.810606 
L 365.560848 124.719076 
L 366.219377 123.792154 
L 366.877905 123.091156 
L 367.536434 123.163392 
L 368.194962 124.179262 
L 369.512019 126.695329 
L 370.170548 128.735227 
L 371.487605 134.070115 
L 372.146133 136.508375 
L 372.804662 139.407665 
L 374.780247 149.30209 
L 376.097304 153.275225 
L 377.414361 155.379192 
L 378.07289 157.276994 
L 378.731418 158.677018 
L 379.389947 159.516761 
L 380.048475 159.835029 
L 380.707004 159.501441 
L 381.365532 159.039412 
L 382.02406 159.530999 
L 382.682589 160.430406 
L 383.341117 161.125328 
L 383.999646 161.319572 
L 384.658174 161.778247 
L 385.316703 162.772469 
L 385.975231 163.291011 
L 386.63376 163.633526 
L 387.292288 163.660709 
L 387.950817 163.42307 
L 391.243459 159.697108 
L 391.901988 158.726587 
L 392.560516 156.88555 
L 394.536102 148.95643 
L 395.19463 145.091148 
L 395.853159 143.276315 
L 396.511687 142.941012 
L 397.170216 142.162378 
L 397.170216 142.162378 
" style="fill:none;stroke:#9467bd;stroke-linecap:square;stroke-width:1.5;"/>
   </g>
   <g id="line2d_17">
    <path clip-path="url(#p6ca74875a6)" d="M 73.832727 106.704139 
L 74.493938 104.48211 
L 75.155149 97.084865 
L 77.138782 83.684496 
L 77.799993 98.819705 
L 78.461203 97.790987 
L 79.122414 92.812839 
L 79.783625 81.287635 
L 80.444836 82.621497 
L 81.106047 84.524617 
L 81.767258 84.278283 
L 82.428469 78.481601 
L 83.08968 77.49457 
L 83.750891 82.021737 
L 84.412101 78.443024 
L 85.073312 80.304888 
L 85.734523 88.923224 
L 86.395734 86.127306 
L 87.056945 81.179679 
L 87.718156 87.746754 
L 88.379367 73.637656 
L 89.040578 79.356382 
L 89.701789 73.535837 
L 91.02421 85.981792 
L 91.685421 86.919656 
L 92.346632 86.013373 
L 93.007843 74.075958 
L 93.669054 76.209575 
L 94.330265 76.508 
L 94.991476 77.437247 
L 95.652687 71.774507 
L 96.313897 78.815723 
L 96.975108 126.204586 
L 97.636319 155.595457 
L 98.29753 197.376896 
L 98.958741 231.682507 
L 99.619952 254.21871 
L 100.281163 265.917854 
L 102.264795 283.428242 
L 102.926006 288.009459 
L 103.587217 288.855506 
L 104.909639 288.233772 
L 105.57085 289.290457 
L 106.232061 292.808115 
L 107.554483 295.488 
L 108.215693 293.203146 
L 108.876904 292.028522 
L 109.538115 293.10225 
L 110.199326 292.515542 
L 110.860537 286.088179 
L 111.521748 283.086294 
L 112.84417 272.53102 
L 113.50538 275.769742 
L 114.166591 281.284369 
L 114.827802 285.172447 
L 115.489013 290.057939 
L 116.150224 293.53722 
L 116.811435 294.707807 
L 118.133857 293.841428 
L 118.795068 290.922483 
L 119.456278 291.94184 
L 120.117489 291.383535 
L 120.7787 292.104889 
L 121.439911 293.008751 
L 122.101122 290.322431 
L 122.762333 281.943173 
L 123.423544 267.352898 
L 124.084755 240.786519 
L 124.745966 206.857931 
L 125.407176 166.550871 
L 126.068387 150.982985 
L 127.390809 114.746304 
L 128.05202 105.947696 
L 130.035653 85.868931 
L 130.696864 83.11608 
L 131.358074 86.766054 
L 132.019285 78.780873 
L 132.680496 76.870522 
L 133.341707 75.428692 
L 134.002918 64.293901 
L 134.664129 60.660274 
L 135.32534 67.385219 
L 135.986551 56.916461 
L 136.647762 57.757672 
L 137.308972 61.317359 
L 137.970183 56.808505 
L 138.631394 58.687581 
L 139.292605 63.780215 
L 139.953816 60.809812 
L 140.615027 53.568 
L 141.276238 72.070807 
L 141.937449 60.77944 
L 142.59866 62.404953 
L 143.25987 75.441669 
L 143.921081 64.712047 
L 144.582292 73.276498 
L 145.243503 73.351656 
L 145.904714 64.739926 
L 146.565925 75.746291 
L 147.227136 73.854493 
L 147.888347 63.646968 
L 148.549557 66.997122 
L 149.210768 72.374283 
L 149.871979 74.347473 
L 150.53319 72.822379 
L 151.194401 72.02798 
L 151.855612 72.878838 
L 152.516823 64.941619 
L 153.178034 64.529465 
L 153.839245 64.759807 
L 154.500455 64.412029 
L 155.161666 71.672587 
L 155.822877 73.422522 
L 156.484088 115.868541 
L 157.145299 141.274335 
L 158.467721 210.382341 
L 159.128932 232.896089 
L 159.790143 240.676549 
L 160.451353 246.357097 
L 161.112564 256.615466 
L 161.773775 264.789674 
L 162.434986 267.918014 
L 163.096197 276.824749 
L 163.757408 275.137808 
L 164.418619 275.459634 
L 165.07983 278.25534 
L 165.741041 276.722258 
L 166.402251 276.53526 
L 167.063462 274.405832 
L 167.724673 271.226582 
L 168.385884 268.768692 
L 169.047095 270.448565 
L 169.708306 264.288725 
L 171.030728 258.058192 
L 172.353149 248.801118 
L 173.01436 257.802421 
L 174.997993 273.87065 
L 175.659204 279.788864 
L 176.981626 283.75892 
L 177.642837 281.281315 
L 178.304047 279.740972 
L 178.965258 276.022911 
L 179.626469 283.714859 
L 180.28768 281.670427 
L 180.948891 283.319083 
L 181.610102 281.109451 
L 182.271313 272.103321 
L 182.932524 253.040196 
L 183.593734 226.584671 
L 184.254945 192.357051 
L 184.916156 147.714761 
L 186.238578 107.568174 
L 187.561 85.458402 
L 188.222211 87.527237 
L 188.883422 73.662145 
L 189.544632 66.985049 
L 190.205843 69.514518 
L 190.867054 68.917805 
L 191.528265 73.841472 
L 192.850687 68.618322 
L 193.511898 75.837162 
L 194.173109 74.855401 
L 194.83432 77.954943 
L 195.49553 75.778224 
L 196.156741 68.543161 
L 196.817952 78.030425 
L 197.479163 70.259009 
L 198.140374 78.390512 
L 198.801585 77.197231 
L 199.462796 74.268037 
L 200.124007 73.865469 
L 200.785218 63.8895 
L 201.446428 64.380641 
L 202.107639 57.880759 
L 203.430061 68.810484 
L 204.091272 68.320176 
L 204.752483 61.021658 
L 205.413694 64.433868 
L 206.074905 63.987317 
L 206.736116 68.496207 
L 207.397326 65.815694 
L 208.058537 66.635585 
L 209.380959 69.092803 
L 210.04217 59.305817 
L 210.703381 65.195941 
L 211.364592 59.628503 
L 212.025803 60.142418 
L 212.687014 66.40364 
L 213.348224 63.040516 
L 214.009435 61.456936 
L 214.670646 66.900045 
L 215.331857 69.817621 
L 215.993068 61.156063 
L 216.654279 67.371976 
L 217.31549 80.411901 
L 217.976701 84.253134 
L 218.637911 78.457808 
L 219.960333 93.724523 
L 220.621544 107.923378 
L 221.943966 154.587072 
L 223.266388 185.484327 
L 223.927599 196.805115 
L 224.588809 205.274785 
L 225.25002 212.055952 
L 225.911231 212.137041 
L 226.572442 211.621213 
L 227.233653 208.604629 
L 227.894864 211.041 
L 228.556075 210.962141 
L 229.217286 208.506579 
L 230.539707 200.261966 
L 231.200918 194.742854 
L 231.862129 184.542482 
L 232.52334 176.196288 
L 233.184551 166.332929 
L 233.845762 160.154372 
L 235.168184 144.68651 
L 235.829395 137.322447 
L 236.490605 125.903347 
L 237.151816 124.006409 
L 237.813027 113.899799 
L 238.474238 105.765563 
L 239.135449 99.091545 
L 239.79666 85.517887 
L 240.457871 76.218587 
L 241.119082 90.866604 
L 241.780293 72.13411 
L 242.441503 64.309559 
L 243.102714 69.209579 
L 243.763925 62.252483 
L 244.425136 59.113072 
L 245.086347 65.325328 
L 245.747558 64.701921 
L 246.408769 61.895437 
L 247.06998 62.419723 
L 247.731191 63.812144 
L 248.392401 64.323216 
L 249.053612 57.216349 
L 249.714823 59.954203 
L 251.037245 72.756413 
L 251.698456 56.532644 
L 252.359667 57.573702 
L 253.020878 65.998754 
L 253.682089 59.51877 
L 254.343299 66.410799 
L 255.00451 66.123323 
L 255.665721 75.261486 
L 256.326932 60.352876 
L 256.988143 62.310547 
L 257.649354 65.150001 
L 258.310565 63.009798 
L 258.971776 62.270891 
L 259.632986 66.182546 
L 260.294197 64.140981 
L 260.955408 64.080587 
L 261.616619 68.437721 
L 262.27783 64.858781 
L 262.939041 72.591614 
L 263.600252 76.277899 
L 264.261463 81.175633 
L 264.922674 79.433347 
L 265.583884 79.398052 
L 266.245095 82.234617 
L 266.906306 72.288162 
L 267.567517 74.409366 
L 268.228728 74.570442 
L 268.889939 78.254232 
L 269.55115 80.287769 
L 270.212361 80.281032 
L 270.873572 77.34506 
L 271.534782 73.243151 
L 272.195993 73.779363 
L 272.857204 72.204949 
L 273.518415 78.680388 
L 274.179626 80.526954 
L 274.840837 85.437371 
L 275.502048 84.334875 
L 276.163259 79.408701 
L 276.82447 91.394635 
L 277.48568 88.414425 
L 278.146891 84.17732 
L 278.808102 90.4977 
L 279.469313 91.562782 
L 280.130524 102.484774 
L 280.791735 102.80752 
L 281.452946 96.353784 
L 282.114157 94.151034 
L 282.775368 94.543888 
L 283.436578 79.623808 
L 284.097789 79.083473 
L 284.759 88.031831 
L 285.420211 81.572709 
L 286.081422 77.805591 
L 286.742633 95.362795 
L 287.403844 98.478276 
L 288.726266 143.896197 
L 289.387476 161.142813 
L 290.048687 167.3381 
L 290.709898 178.440017 
L 292.03232 151.014306 
L 292.693531 126.938897 
L 293.354742 117.007469 
L 294.677163 79.941162 
L 295.338374 76.68898 
L 295.999585 75.380463 
L 296.660796 78.229355 
L 297.322007 70.889714 
L 297.983218 72.435434 
L 298.644429 72.952393 
L 299.30564 63.425941 
L 299.966851 63.551282 
L 300.628061 69.956354 
L 301.289272 71.812708 
L 301.950483 68.904195 
L 302.611694 74.232786 
L 303.272905 62.955213 
L 303.934116 64.682643 
L 304.595327 60.254055 
L 305.256538 61.554259 
L 305.917749 70.778364 
L 306.578959 59.983901 
L 307.24017 69.179202 
L 307.901381 71.984547 
L 308.562592 66.828893 
L 309.223803 75.872346 
L 309.885014 71.034503 
L 310.546225 65.270742 
L 311.207436 63.103466 
L 311.868647 68.527517 
L 312.529857 70.517254 
L 313.191068 72.127126 
L 313.852279 68.313107 
L 314.51349 72.098419 
L 315.174701 69.49624 
L 315.835912 67.855238 
L 316.497123 65.82287 
L 317.158334 72.175468 
L 317.819545 69.451664 
L 318.480755 55.109263 
L 319.141966 62.714836 
L 319.803177 55.368342 
L 320.464388 58.359226 
L 321.125599 58.665957 
L 321.78681 60.50086 
L 322.448021 56.792864 
L 323.109232 67.956374 
L 323.770443 67.444509 
L 324.431653 67.669403 
L 325.092864 57.654253 
L 325.754075 62.060934 
L 326.415286 72.882497 
L 327.076497 57.886469 
L 327.737708 65.433159 
L 328.398919 60.337484 
L 329.06013 59.764079 
L 329.72134 60.692947 
L 330.382551 56.561081 
L 331.043762 55.589938 
L 331.704973 67.73485 
L 332.366184 55.812446 
L 333.027395 57.930571 
L 333.688606 65.880286 
L 334.349817 69.034019 
L 335.011028 58.039162 
L 335.672238 65.47573 
L 336.333449 68.258098 
L 336.99466 73.249222 
L 337.655871 115.753274 
L 338.317082 144.22782 
L 338.978293 192.14742 
L 339.639504 223.727578 
L 340.300715 246.1793 
L 341.623136 281.394287 
L 342.284347 288.064911 
L 342.945558 289.588862 
L 343.606769 292.597894 
L 344.26798 294.064449 
L 344.929191 294.220626 
L 345.590402 294.223112 
L 346.251613 294.981492 
L 346.912824 292.96248 
L 347.574034 292.865975 
L 348.235245 293.32004 
L 348.896456 289.160328 
L 349.557667 286.568942 
L 350.218878 284.831222 
L 350.880089 285.237507 
L 351.5413 286.790707 
L 352.202511 291.713884 
L 352.863722 289.878432 
L 353.524932 289.008509 
L 354.186143 289.58839 
L 354.847354 289.831146 
L 355.508565 288.933476 
L 356.169776 287.627229 
L 356.830987 287.020622 
L 357.492198 286.646073 
L 358.153409 284.49687 
L 358.81462 283.266809 
L 359.47583 282.738944 
L 360.137041 283.617935 
L 360.798252 281.40362 
L 361.459463 274.936922 
L 362.781885 253.512881 
L 363.443096 237.532126 
L 364.765517 228.405927 
L 365.426728 222.660194 
L 366.087939 215.940694 
L 367.410361 198.600651 
L 368.732783 178.392464 
L 370.055205 159.335722 
L 370.716415 151.378564 
L 371.377626 145.237115 
L 372.038837 137.20533 
L 372.700048 125.958502 
L 373.361259 117.770428 
L 374.683681 109.496334 
L 375.344892 115.031012 
L 376.006103 115.307878 
L 376.667313 106.685344 
L 377.328524 99.524922 
L 377.989735 106.921025 
L 378.650946 101.898217 
L 379.312157 103.922875 
L 379.973368 97.046385 
L 380.634579 98.116878 
L 381.29579 97.693074 
L 381.957001 93.58397 
L 382.618211 92.5744 
L 383.279422 84.648066 
L 383.940633 89.637773 
L 384.601844 84.74754 
L 385.263055 93.655244 
L 385.924266 94.752949 
L 386.585477 95.384639 
L 387.246688 90.00656 
L 387.907899 95.587081 
L 388.569109 89.399051 
L 389.23032 86.786105 
L 389.891531 80.543351 
L 390.552742 83.365618 
L 391.213953 83.909275 
L 391.875164 93.185779 
L 392.536375 95.44022 
L 393.197586 92.725532 
L 393.858797 96.020786 
L 394.520007 94.176307 
L 395.181218 94.845535 
L 395.842429 93.665542 
L 396.50364 95.803347 
L 397.164851 133.301308 
L 397.826062 161.992523 
L 398.487273 197.373696 
L 398.487273 197.373696 
" style="fill:none;stroke:#8c564b;stroke-linecap:square;stroke-width:1.5;"/>
   </g>
   <g id="patch_3">
    <path d="M 57.6 307.584 
L 57.6 41.472 
" style="fill:none;stroke:#000000;stroke-linecap:square;stroke-linejoin:miter;stroke-width:0.8;"/>
   </g>
   <g id="patch_4">
    <path d="M 414.72 307.584 
L 414.72 41.472 
" style="fill:none;stroke:#000000;stroke-linecap:square;stroke-linejoin:miter;stroke-width:0.8;"/>
   </g>
   <g id="patch_5">
    <path d="M 57.6 307.584 
L 414.72 307.584 
" style="fill:none;stroke:#000000;stroke-linecap:square;stroke-linejoin:miter;stroke-width:0.8;"/>
   </g>
   <g id="patch_6">
    <path d="M 57.6 41.472 
L 414.72 41.472 
" style="fill:none;stroke:#000000;stroke-linecap:square;stroke-linejoin:miter;stroke-width:0.8;"/>
   </g>
  </g>
 </g>
 <defs>
  <clipPath id="p6ca74875a6">
   <rect height="266.112" width="357.12" x="57.6" y="41.472"/>
  </clipPath>
 </defs>
</svg>
