<?xml version="1.0" encoding="utf-8" standalone="no"?>
<!DOCTYPE svg PUBLIC "-//W3C//DTD SVG 1.1//EN"
  "http://www.w3.org/Graphics/SVG/1.1/DTD/svg11.dtd">
<svg height="345.6pt" version="1.1" viewBox="0 0 460.8 345.6" width="460.8pt" xmlns="http://www.w3.org/2000/svg" xmlns:xlink="http://www.w3.org/1999/xlink">
 <metadata>
  <rdf:RDF xmlns:cc="http://creativecommons.org/ns#" xmlns:dc="http://purl.org/dc/elements/1.1/" xmlns:rdf="http://www.w3.org/1999/02/22-rdf-syntax-ns#">
   <cc:Work>
    <dc:type rdf:resource="http://purl.org/dc/dcmitype/StillImage"/>
    <dc:date>2022-05-18T00:21:14.858533</dc:date>
    <dc:format>image/svg+xml</dc:format>
    <dc:creator>
     <cc:Agent>
      <dc:title>Matplotlib v3.4.2, https://matplotlib.org/</dc:title>
     </cc:Agent>
    </dc:creator>
   </cc:Work>
  </rdf:RDF>
 </metadata>
 <defs>
  <style type="text/css">*{stroke-linecap:butt;stroke-linejoin:round;}</style>
 </defs>
 <g id="figure_1">
  <g id="patch_1">
   <path d="M 0 345.6 
L 460.8 345.6 
L 460.8 0 
L 0 0 
z
" style="fill:#ffffff;"/>
  </g>
  <g id="axes_1">
   <g id="patch_2">
    <path d="M 57.6 307.584 
L 414.72 307.584 
L 414.72 41.472 
L 57.6 41.472 
z
" style="fill:#ffffff;"/>
   </g>
   <g id="matplotlib.axis_1">
    <g id="xtick_1">
     <g id="line2d_1">
      <defs>
       <path d="M 0 0 
L 0 3.5 
" id="m97e3970bcc" style="stroke:#000000;stroke-width:0.8;"/>
      </defs>
      <g>
       <use style="stroke:#000000;stroke-width:0.8;" x="73.832727" xlink:href="#m97e3970bcc" y="307.584"/>
      </g>
     </g>
     <g id="text_1">
      <!-- 0 -->
      <g transform="translate(70.651477 322.182437)scale(0.1 -0.1)">
       <defs>
        <path d="M 2034 4250 
Q 1547 4250 1301 3770 
Q 1056 3291 1056 2328 
Q 1056 1369 1301 889 
Q 1547 409 2034 409 
Q 2525 409 2770 889 
Q 3016 1369 3016 2328 
Q 3016 3291 2770 3770 
Q 2525 4250 2034 4250 
z
M 2034 4750 
Q 2819 4750 3233 4129 
Q 3647 3509 3647 2328 
Q 3647 1150 3233 529 
Q 2819 -91 2034 -91 
Q 1250 -91 836 529 
Q 422 1150 422 2328 
Q 422 3509 836 4129 
Q 1250 4750 2034 4750 
z
" id="DejaVuSans-30" transform="scale(0.015625)"/>
       </defs>
       <use xlink:href="#DejaVuSans-30"/>
      </g>
     </g>
    </g>
    <g id="xtick_2">
     <g id="line2d_2">
      <g>
       <use style="stroke:#000000;stroke-width:0.8;" x="139.685576" xlink:href="#m97e3970bcc" y="307.584"/>
      </g>
     </g>
     <g id="text_2">
      <!-- 100 -->
      <g transform="translate(130.141826 322.182437)scale(0.1 -0.1)">
       <defs>
        <path d="M 794 531 
L 1825 531 
L 1825 4091 
L 703 3866 
L 703 4441 
L 1819 4666 
L 2450 4666 
L 2450 531 
L 3481 531 
L 3481 0 
L 794 0 
L 794 531 
z
" id="DejaVuSans-31" transform="scale(0.015625)"/>
       </defs>
       <use xlink:href="#DejaVuSans-31"/>
       <use x="63.623047" xlink:href="#DejaVuSans-30"/>
       <use x="127.246094" xlink:href="#DejaVuSans-30"/>
      </g>
     </g>
    </g>
    <g id="xtick_3">
     <g id="line2d_3">
      <g>
       <use style="stroke:#000000;stroke-width:0.8;" x="205.538425" xlink:href="#m97e3970bcc" y="307.584"/>
      </g>
     </g>
     <g id="text_3">
      <!-- 200 -->
      <g transform="translate(195.994675 322.182437)scale(0.1 -0.1)">
       <defs>
        <path d="M 1228 531 
L 3431 531 
L 3431 0 
L 469 0 
L 469 531 
Q 828 903 1448 1529 
Q 2069 2156 2228 2338 
Q 2531 2678 2651 2914 
Q 2772 3150 2772 3378 
Q 2772 3750 2511 3984 
Q 2250 4219 1831 4219 
Q 1534 4219 1204 4116 
Q 875 4013 500 3803 
L 500 4441 
Q 881 4594 1212 4672 
Q 1544 4750 1819 4750 
Q 2544 4750 2975 4387 
Q 3406 4025 3406 3419 
Q 3406 3131 3298 2873 
Q 3191 2616 2906 2266 
Q 2828 2175 2409 1742 
Q 1991 1309 1228 531 
z
" id="DejaVuSans-32" transform="scale(0.015625)"/>
       </defs>
       <use xlink:href="#DejaVuSans-32"/>
       <use x="63.623047" xlink:href="#DejaVuSans-30"/>
       <use x="127.246094" xlink:href="#DejaVuSans-30"/>
      </g>
     </g>
    </g>
    <g id="xtick_4">
     <g id="line2d_4">
      <g>
       <use style="stroke:#000000;stroke-width:0.8;" x="271.391274" xlink:href="#m97e3970bcc" y="307.584"/>
      </g>
     </g>
     <g id="text_4">
      <!-- 300 -->
      <g transform="translate(261.847524 322.182437)scale(0.1 -0.1)">
       <defs>
        <path d="M 2597 2516 
Q 3050 2419 3304 2112 
Q 3559 1806 3559 1356 
Q 3559 666 3084 287 
Q 2609 -91 1734 -91 
Q 1441 -91 1130 -33 
Q 819 25 488 141 
L 488 750 
Q 750 597 1062 519 
Q 1375 441 1716 441 
Q 2309 441 2620 675 
Q 2931 909 2931 1356 
Q 2931 1769 2642 2001 
Q 2353 2234 1838 2234 
L 1294 2234 
L 1294 2753 
L 1863 2753 
Q 2328 2753 2575 2939 
Q 2822 3125 2822 3475 
Q 2822 3834 2567 4026 
Q 2313 4219 1838 4219 
Q 1578 4219 1281 4162 
Q 984 4106 628 3988 
L 628 4550 
Q 988 4650 1302 4700 
Q 1616 4750 1894 4750 
Q 2613 4750 3031 4423 
Q 3450 4097 3450 3541 
Q 3450 3153 3228 2886 
Q 3006 2619 2597 2516 
z
" id="DejaVuSans-33" transform="scale(0.015625)"/>
       </defs>
       <use xlink:href="#DejaVuSans-33"/>
       <use x="63.623047" xlink:href="#DejaVuSans-30"/>
       <use x="127.246094" xlink:href="#DejaVuSans-30"/>
      </g>
     </g>
    </g>
    <g id="xtick_5">
     <g id="line2d_5">
      <g>
       <use style="stroke:#000000;stroke-width:0.8;" x="337.244123" xlink:href="#m97e3970bcc" y="307.584"/>
      </g>
     </g>
     <g id="text_5">
      <!-- 400 -->
      <g transform="translate(327.700373 322.182437)scale(0.1 -0.1)">
       <defs>
        <path d="M 2419 4116 
L 825 1625 
L 2419 1625 
L 2419 4116 
z
M 2253 4666 
L 3047 4666 
L 3047 1625 
L 3713 1625 
L 3713 1100 
L 3047 1100 
L 3047 0 
L 2419 0 
L 2419 1100 
L 313 1100 
L 313 1709 
L 2253 4666 
z
" id="DejaVuSans-34" transform="scale(0.015625)"/>
       </defs>
       <use xlink:href="#DejaVuSans-34"/>
       <use x="63.623047" xlink:href="#DejaVuSans-30"/>
       <use x="127.246094" xlink:href="#DejaVuSans-30"/>
      </g>
     </g>
    </g>
    <g id="xtick_6">
     <g id="line2d_6">
      <g>
       <use style="stroke:#000000;stroke-width:0.8;" x="403.096972" xlink:href="#m97e3970bcc" y="307.584"/>
      </g>
     </g>
     <g id="text_6">
      <!-- 500 -->
      <g transform="translate(393.553222 322.182437)scale(0.1 -0.1)">
       <defs>
        <path d="M 691 4666 
L 3169 4666 
L 3169 4134 
L 1269 4134 
L 1269 2991 
Q 1406 3038 1543 3061 
Q 1681 3084 1819 3084 
Q 2600 3084 3056 2656 
Q 3513 2228 3513 1497 
Q 3513 744 3044 326 
Q 2575 -91 1722 -91 
Q 1428 -91 1123 -41 
Q 819 9 494 109 
L 494 744 
Q 775 591 1075 516 
Q 1375 441 1709 441 
Q 2250 441 2565 725 
Q 2881 1009 2881 1497 
Q 2881 1984 2565 2268 
Q 2250 2553 1709 2553 
Q 1456 2553 1204 2497 
Q 953 2441 691 2322 
L 691 4666 
z
" id="DejaVuSans-35" transform="scale(0.015625)"/>
       </defs>
       <use xlink:href="#DejaVuSans-35"/>
       <use x="63.623047" xlink:href="#DejaVuSans-30"/>
       <use x="127.246094" xlink:href="#DejaVuSans-30"/>
      </g>
     </g>
    </g>
   </g>
   <g id="matplotlib.axis_2">
    <g id="ytick_1">
     <g id="line2d_7">
      <defs>
       <path d="M 0 0 
L -3.5 0 
" id="m1f0faafcd1" style="stroke:#000000;stroke-width:0.8;"/>
      </defs>
      <g>
       <use style="stroke:#000000;stroke-width:0.8;" x="57.6" xlink:href="#m1f0faafcd1" y="295.366172"/>
      </g>
     </g>
     <g id="text_7">
      <!-- 0 -->
      <g transform="translate(44.2375 299.165391)scale(0.1 -0.1)">
       <use xlink:href="#DejaVuSans-30"/>
      </g>
     </g>
    </g>
    <g id="ytick_2">
     <g id="line2d_8">
      <g>
       <use style="stroke:#000000;stroke-width:0.8;" x="57.6" xlink:href="#m1f0faafcd1" y="265.329132"/>
      </g>
     </g>
     <g id="text_8">
      <!-- 250 -->
      <g transform="translate(31.5125 269.128351)scale(0.1 -0.1)">
       <use xlink:href="#DejaVuSans-32"/>
       <use x="63.623047" xlink:href="#DejaVuSans-35"/>
       <use x="127.246094" xlink:href="#DejaVuSans-30"/>
      </g>
     </g>
    </g>
    <g id="ytick_3">
     <g id="line2d_9">
      <g>
       <use style="stroke:#000000;stroke-width:0.8;" x="57.6" xlink:href="#m1f0faafcd1" y="235.292092"/>
      </g>
     </g>
     <g id="text_9">
      <!-- 500 -->
      <g transform="translate(31.5125 239.091311)scale(0.1 -0.1)">
       <use xlink:href="#DejaVuSans-35"/>
       <use x="63.623047" xlink:href="#DejaVuSans-30"/>
       <use x="127.246094" xlink:href="#DejaVuSans-30"/>
      </g>
     </g>
    </g>
    <g id="ytick_4">
     <g id="line2d_10">
      <g>
       <use style="stroke:#000000;stroke-width:0.8;" x="57.6" xlink:href="#m1f0faafcd1" y="205.255052"/>
      </g>
     </g>
     <g id="text_10">
      <!-- 750 -->
      <g transform="translate(31.5125 209.054271)scale(0.1 -0.1)">
       <defs>
        <path d="M 525 4666 
L 3525 4666 
L 3525 4397 
L 1831 0 
L 1172 0 
L 2766 4134 
L 525 4134 
L 525 4666 
z
" id="DejaVuSans-37" transform="scale(0.015625)"/>
       </defs>
       <use xlink:href="#DejaVuSans-37"/>
       <use x="63.623047" xlink:href="#DejaVuSans-35"/>
       <use x="127.246094" xlink:href="#DejaVuSans-30"/>
      </g>
     </g>
    </g>
    <g id="ytick_5">
     <g id="line2d_11">
      <g>
       <use style="stroke:#000000;stroke-width:0.8;" x="57.6" xlink:href="#m1f0faafcd1" y="175.218012"/>
      </g>
     </g>
     <g id="text_11">
      <!-- 1000 -->
      <g transform="translate(25.15 179.017231)scale(0.1 -0.1)">
       <use xlink:href="#DejaVuSans-31"/>
       <use x="63.623047" xlink:href="#DejaVuSans-30"/>
       <use x="127.246094" xlink:href="#DejaVuSans-30"/>
       <use x="190.869141" xlink:href="#DejaVuSans-30"/>
      </g>
     </g>
    </g>
    <g id="ytick_6">
     <g id="line2d_12">
      <g>
       <use style="stroke:#000000;stroke-width:0.8;" x="57.6" xlink:href="#m1f0faafcd1" y="145.180972"/>
      </g>
     </g>
     <g id="text_12">
      <!-- 1250 -->
      <g transform="translate(25.15 148.980191)scale(0.1 -0.1)">
       <use xlink:href="#DejaVuSans-31"/>
       <use x="63.623047" xlink:href="#DejaVuSans-32"/>
       <use x="127.246094" xlink:href="#DejaVuSans-35"/>
       <use x="190.869141" xlink:href="#DejaVuSans-30"/>
      </g>
     </g>
    </g>
    <g id="ytick_7">
     <g id="line2d_13">
      <g>
       <use style="stroke:#000000;stroke-width:0.8;" x="57.6" xlink:href="#m1f0faafcd1" y="115.143932"/>
      </g>
     </g>
     <g id="text_13">
      <!-- 1500 -->
      <g transform="translate(25.15 118.943151)scale(0.1 -0.1)">
       <use xlink:href="#DejaVuSans-31"/>
       <use x="63.623047" xlink:href="#DejaVuSans-35"/>
       <use x="127.246094" xlink:href="#DejaVuSans-30"/>
       <use x="190.869141" xlink:href="#DejaVuSans-30"/>
      </g>
     </g>
    </g>
    <g id="ytick_8">
     <g id="line2d_14">
      <g>
       <use style="stroke:#000000;stroke-width:0.8;" x="57.6" xlink:href="#m1f0faafcd1" y="85.106892"/>
      </g>
     </g>
     <g id="text_14">
      <!-- 1750 -->
      <g transform="translate(25.15 88.906111)scale(0.1 -0.1)">
       <use xlink:href="#DejaVuSans-31"/>
       <use x="63.623047" xlink:href="#DejaVuSans-37"/>
       <use x="127.246094" xlink:href="#DejaVuSans-35"/>
       <use x="190.869141" xlink:href="#DejaVuSans-30"/>
      </g>
     </g>
    </g>
    <g id="ytick_9">
     <g id="line2d_15">
      <g>
       <use style="stroke:#000000;stroke-width:0.8;" x="57.6" xlink:href="#m1f0faafcd1" y="55.069852"/>
      </g>
     </g>
     <g id="text_15">
      <!-- 2000 -->
      <g transform="translate(25.15 58.869071)scale(0.1 -0.1)">
       <use xlink:href="#DejaVuSans-32"/>
       <use x="63.623047" xlink:href="#DejaVuSans-30"/>
       <use x="127.246094" xlink:href="#DejaVuSans-30"/>
       <use x="190.869141" xlink:href="#DejaVuSans-30"/>
      </g>
     </g>
    </g>
   </g>
   <g id="line2d_16">
    <path clip-path="url(#ped888748d8)" d="M 73.832727 236.823981 
L 74.491256 237.494808 
L 75.149784 237.695055 
L 75.808313 238.255746 
L 76.466841 239.216932 
L 77.12537 239.196907 
L 77.783898 238.536092 
L 79.100955 240.578611 
L 79.759484 240.578611 
L 80.418012 240.258216 
L 81.076541 241.179352 
L 81.735069 241.2995 
L 83.052126 242.260685 
L 83.710655 241.810129 
L 84.369183 242.080463 
L 85.027712 242.020389 
L 85.68624 242.861426 
L 86.344769 243.101722 
L 87.003297 241.840167 
L 87.661826 241.900241 
L 88.320354 242.320759 
L 88.978883 242.020389 
L 89.637411 242.140537 
L 90.29594 241.629907 
L 90.954468 240.939055 
L 91.612996 241.419648 
L 92.271525 241.419648 
L 92.930053 241.780092 
L 93.588582 241.720018 
L 94.24711 241.479722 
L 94.905639 241.820142 
L 96.881224 240.61866 
L 97.539753 240.818907 
L 98.198281 238.65624 
L 100.173867 212.133534 
L 100.832395 204.804496 
L 101.490924 200.689422 
L 102.149452 184.189074 
L 102.807981 174.256827 
L 103.466509 171.45337 
L 104.125038 169.751271 
L 104.783566 170.832604 
L 105.442095 174.857567 
L 106.759152 165.926554 
L 107.41768 165.966604 
L 108.076209 158.817788 
L 108.734737 160.499862 
L 109.393266 167.618641 
L 110.051794 161.961665 
L 110.710323 170.712456 
L 111.368851 175.218012 
L 112.02738 181.375605 
L 112.685908 189.215273 
L 114.002965 199.788311 
L 114.661494 193.360384 
L 115.320022 175.608493 
L 115.978551 167.077974 
L 116.637079 162.932863 
L 117.295608 162.872788 
L 117.954136 166.327048 
L 118.612665 166.957826 
L 119.271193 168.429641 
L 119.929722 166.967838 
L 120.58825 166.236937 
L 121.246779 170.832604 
L 122.563836 185.761013 
L 123.222364 188.794754 
L 123.880892 192.99994 
L 124.539421 204.654311 
L 125.856478 221.795449 
L 126.515006 225.920535 
L 127.173535 231.407301 
L 127.832063 233.249573 
L 128.490592 235.892833 
L 129.14912 237.154388 
L 129.807649 237.815203 
L 130.466177 237.755129 
L 131.783234 239.617426 
L 132.441763 239.857722 
L 133.100291 239.917796 
L 133.75882 240.818907 
L 134.417348 241.359574 
L 135.075877 240.939055 
L 135.734405 241.780092 
L 136.392934 241.720018 
L 137.709991 241.379599 
L 138.368519 242.020389 
L 139.027048 241.2995 
L 139.685576 242.220636 
L 141.002633 242.080463 
L 141.661162 241.780092 
L 142.31969 243.281944 
L 142.978219 242.981574 
L 143.636747 243.462167 
L 144.295276 243.041648 
L 144.953804 243.582315 
L 145.612333 243.822611 
L 146.270861 243.762537 
L 146.92939 243.402093 
L 147.587918 242.861426 
L 148.246447 243.281944 
L 148.904975 243.161796 
L 149.563504 243.281944 
L 150.222032 243.101722 
L 150.880561 243.522241 
L 151.539089 243.342019 
L 152.197618 244.24313 
L 152.856146 242.861426 
L 154.173203 244.183056 
L 155.49026 243.101722 
L 156.148788 242.981574 
L 156.807317 242.981574 
L 157.465845 242.41087 
L 158.782902 228.083202 
L 159.441431 224.358609 
L 160.099959 219.042053 
L 160.758488 217.510164 
L 161.417016 204.414015 
L 162.075545 201.950977 
L 162.734073 198.136273 
L 164.05113 192.729606 
L 164.709659 195.43294 
L 165.368187 191.438013 
L 166.026716 194.802162 
L 166.685244 195.553088 
L 167.343773 200.80957 
L 168.002301 199.758274 
L 168.66083 198.947273 
L 169.319358 197.885965 
L 170.636415 208.438978 
L 171.294944 215.768016 
L 171.953472 216.63909 
L 172.612001 219.402498 
L 173.270529 218.191004 
L 173.929058 207.267534 
L 175.246115 191.618236 
L 175.904643 185.941235 
L 176.563172 188.033816 
L 177.2217 188.153964 
L 177.880229 192.198952 
L 179.197286 186.932457 
L 179.855814 181.555827 
L 180.514343 183.027642 
L 181.172871 188.974976 
L 181.8314 193.540606 
L 182.489928 199.127496 
L 183.148457 201.830829 
L 185.124042 225.479992 
L 185.782571 230.84661 
L 186.441099 232.969227 
L 187.099628 236.253277 
L 187.758156 238.415944 
L 188.416684 239.076759 
L 189.733741 241.419648 
L 190.39227 241.379599 
L 191.050798 241.740043 
L 191.709327 242.440907 
L 192.367855 242.080463 
L 193.026384 242.420883 
L 194.343441 242.861426 
L 195.001969 241.960315 
L 195.660498 243.342019 
L 196.319026 242.380833 
L 196.977555 242.561055 
L 197.636083 242.500981 
L 198.294612 243.101722 
L 198.95314 242.62113 
L 199.611669 243.26192 
L 200.928726 242.861426 
L 201.587254 242.340784 
L 202.245783 242.741278 
L 202.904311 242.62113 
L 203.56284 243.22187 
L 204.221368 243.582315 
L 204.879897 243.22187 
L 205.538425 242.140537 
L 206.196954 242.140537 
L 206.855482 243.101722 
L 207.514011 242.741278 
L 208.172539 241.720018 
L 208.831068 242.380833 
L 209.489596 242.200611 
L 210.148125 241.479722 
L 211.465182 242.681204 
L 212.12371 242.020389 
L 212.782239 242.020389 
L 213.440767 241.780092 
L 214.099296 241.2995 
L 214.757824 241.539796 
L 216.074881 241.179352 
L 216.73341 241.2995 
L 217.391938 240.818907 
L 218.050467 241.179352 
L 219.367524 240.398389 
L 220.026052 240.65871 
L 220.68458 240.098018 
L 221.343109 240.698759 
L 222.001637 240.098018 
L 222.660166 239.697524 
L 223.318694 240.188129 
L 223.977223 240.138068 
L 224.635751 240.398389 
L 225.29428 240.858957 
L 225.952808 241.179352 
L 226.611337 240.498512 
L 227.269865 240.61866 
L 227.928394 240.218166 
L 229.245451 241.479722 
L 229.903979 240.878981 
L 230.562508 240.999129 
L 231.221036 241.840167 
L 231.879565 242.380833 
L 232.538093 241.780092 
L 233.196622 242.500981 
L 233.85515 242.420883 
L 235.172207 242.861426 
L 235.830736 242.320759 
L 236.489264 242.62113 
L 237.806321 242.861426 
L 238.46485 242.861426 
L 239.123378 243.011611 
L 240.440435 242.500981 
L 241.098964 242.500981 
L 241.757492 243.702463 
L 242.416021 241.960315 
L 243.074549 243.22187 
L 243.733078 242.981574 
L 244.391606 242.320759 
L 245.050135 242.320759 
L 245.708663 242.62113 
L 246.367192 241.900241 
L 247.02572 241.740043 
L 247.684249 241.860191 
L 248.342777 242.380833 
L 249.001306 242.681204 
L 250.976891 242.200611 
L 251.63542 242.741278 
L 252.293948 242.260685 
L 252.952476 242.861426 
L 253.611005 242.440907 
L 254.269533 242.981574 
L 254.928062 242.681204 
L 255.58659 242.741278 
L 256.245119 242.500981 
L 256.903647 242.741278 
L 257.562176 242.831389 
L 258.220704 242.781327 
L 258.879233 242.541031 
L 259.537761 242.901475 
L 260.19629 241.94029 
L 260.854818 242.180586 
L 261.513347 242.62113 
L 262.171875 242.500981 
L 262.830404 242.861426 
L 263.488932 242.62113 
L 264.147461 242.981574 
L 265.464518 242.861426 
L 266.123046 242.440907 
L 266.781575 243.462167 
L 267.440103 242.561055 
L 268.098632 242.62113 
L 268.75716 242.861426 
L 270.074217 243.101722 
L 270.732746 243.462167 
L 271.391274 242.561055 
L 272.049803 243.181821 
L 272.708331 244.062907 
L 273.36686 243.762537 
L 274.025388 243.101722 
L 274.683917 242.801352 
L 275.342445 242.981574 
L 276.000974 243.522241 
L 276.659502 243.462167 
L 277.318031 242.901475 
L 277.976559 242.62113 
L 278.635088 242.661179 
L 280.610673 243.281944 
L 281.269202 243.672426 
L 281.92773 243.502216 
L 282.586259 244.022858 
L 283.244787 242.651167 
L 283.903316 244.5435 
L 284.561844 242.861426 
L 285.220372 243.792574 
L 285.878901 243.462167 
L 286.537429 244.223105 
L 287.195958 244.062907 
L 288.513015 244.213093 
L 289.171543 244.092945 
L 289.830072 243.822611 
L 291.147129 245.264389 
L 291.805657 245.22434 
L 292.464186 244.183056 
L 293.122714 243.822611 
L 293.781243 245.064142 
L 294.439771 245.024093 
L 295.0983 244.623599 
L 295.756828 244.943994 
L 296.415357 244.903945 
L 297.073885 244.503451 
L 297.732414 243.942759 
L 298.390942 244.663648 
L 299.049471 244.5435 
L 299.707999 244.24313 
L 300.366528 244.603574 
L 301.025056 244.002833 
L 301.683585 244.503451 
L 302.342113 243.882685 
L 303.65917 244.143006 
L 304.317699 242.561055 
L 305.634756 243.101722 
L 306.293284 242.380833 
L 306.951813 241.960315 
L 307.610341 242.260685 
L 308.26887 241.900241 
L 308.927398 242.140537 
L 309.585927 240.698759 
L 310.244455 241.780092 
L 310.902984 242.020389 
L 311.561512 241.699994 
L 312.220041 241.059203 
L 312.878569 241.2995 
L 313.537098 242.020389 
L 314.195626 241.239426 
L 314.854155 240.698759 
L 315.512683 240.939055 
L 316.171212 240.338315 
L 316.82974 240.578611 
L 317.488268 240.458463 
L 318.146797 239.256981 
L 318.805325 239.617426 
L 319.463854 240.27824 
L 320.780911 239.256981 
L 321.439439 239.557351 
L 322.097968 239.377129 
L 322.756496 238.896537 
L 323.415025 239.196907 
L 324.732082 238.65624 
L 325.39061 238.776388 
L 326.049139 239.136833 
L 326.707667 239.797648 
L 327.366196 239.377129 
L 328.024724 239.797648 
L 328.683253 239.797648 
L 329.341781 240.098018 
L 330.00031 239.497277 
L 330.658838 240.098018 
L 331.317367 240.218166 
L 331.975895 239.97787 
L 332.634424 239.136833 
L 333.292952 239.016685 
L 333.951481 239.076759 
L 334.610009 238.776388 
L 335.268538 239.29703 
L 335.927066 238.536092 
L 336.585595 239.016685 
L 337.244123 238.716314 
L 337.902652 237.815203 
L 338.56118 228.113239 
L 339.878237 188.914902 
L 340.536766 179.062753 
L 341.195294 162.902825 
L 342.512351 146.292342 
L 343.17088 135.569119 
L 343.829408 132.325119 
L 344.487937 125.236377 
L 345.146465 120.790895 
L 345.804994 119.919821 
L 346.463522 130.102378 
L 347.122051 128.180007 
L 347.780579 134.447736 
L 349.097636 151.038195 
L 349.756164 160.680085 
L 350.414693 160.01927 
L 351.073221 154.011862 
L 351.73175 143.859342 
L 352.390278 123.714501 
L 353.707335 93.186856 
L 355.024392 75.695286 
L 356.999978 54.669358 
L 357.658506 58.13363 
L 358.317035 53.598037 
L 358.975563 53.568 
L 359.634092 57.623 
L 361.609677 100.305634 
L 362.268206 119.228969 
L 362.926734 134.247489 
L 364.90232 167.328283 
L 365.560848 174.737419 
L 366.219377 184.649642 
L 366.877905 190.957421 
L 367.536434 199.688187 
L 368.194962 205.07483 
L 368.853491 208.919571 
L 369.512019 214.746756 
L 370.170548 216.008312 
L 370.829076 221.234757 
L 371.487605 224.478757 
L 372.804662 229.22461 
L 374.121719 231.567499 
L 374.780247 233.610018 
L 375.438776 234.511129 
L 376.097304 236.673796 
L 376.755833 236.73387 
L 377.414361 237.634981 
L 378.731418 238.65624 
L 379.389947 239.737574 
L 380.048475 239.737574 
L 380.707004 240.098018 
L 382.02406 240.27824 
L 382.682589 240.939055 
L 383.341117 240.698759 
L 383.999646 241.539796 
L 384.658174 241.539796 
L 385.316703 241.840167 
L 385.975231 241.539796 
L 387.292288 242.020389 
L 387.950817 242.260685 
L 389.267874 241.359574 
L 389.926402 242.380833 
L 390.584931 241.419648 
L 391.243459 241.900241 
L 391.901988 241.179352 
L 392.560516 241.2995 
L 393.219045 241.820142 
L 393.877573 240.999129 
L 394.536102 241.539796 
L 395.19463 240.418413 
L 396.511687 240.758833 
L 397.828744 231.447351 
L 397.828744 231.447351 
" style="fill:none;stroke:#1f77b4;stroke-linecap:square;stroke-width:1.5;"/>
   </g>
   <g id="line2d_17">
    <path clip-path="url(#ped888748d8)" d="M 73.832727 295.349509 
L 80.418012 295.303339 
L 86.344769 295.039304 
L 90.29594 294.61406 
L 94.24711 293.937477 
L 98.198281 293.101471 
L 99.515338 293.125847 
L 101.490924 293.560322 
L 106.100623 294.674471 
L 108.734737 295.08592 
L 111.368851 295.29833 
L 114.002965 295.319073 
L 116.637079 295.121485 
L 119.271193 294.730998 
L 122.563836 293.99285 
L 125.197949 293.354047 
L 126.515006 293.192967 
L 127.832063 293.239844 
L 129.14912 293.44879 
L 132.441763 294.171801 
L 139.027048 295.161953 
L 142.31969 295.332008 
L 145.612333 295.286195 
L 149.563504 294.92774 
L 152.856146 294.39666 
L 157.465845 293.461829 
L 158.782902 293.41325 
L 160.099959 293.544225 
L 162.734073 294.129845 
L 166.026716 294.843573 
L 168.66083 295.182018 
L 171.953472 295.353735 
L 175.246115 295.263423 
L 177.880229 294.958922 
L 180.514343 294.432885 
L 185.124042 293.35239 
L 186.441099 293.30884 
L 188.416684 293.477392 
L 196.977555 294.860744 
L 201.587254 295.167317 
L 206.196954 295.295524 
L 218.050467 295.359444 
L 316.171212 295.330066 
L 322.756496 295.142339 
L 328.024724 294.722572 
L 330.658838 294.35433 
L 334.610009 293.599963 
L 337.902652 292.860103 
L 339.219709 292.978707 
L 341.195294 293.435938 
L 345.146465 294.383465 
L 348.439108 294.922754 
L 351.73175 295.221231 
L 355.024392 295.295705 
L 358.317035 295.124569 
L 362.268206 294.657598 
L 366.219377 293.958257 
L 369.512019 293.354721 
L 371.487605 293.234443 
L 373.46319 293.413269 
L 380.707004 294.332125 
L 382.682589 294.555857 
L 385.316703 294.845458 
L 389.267874 295.118872 
L 394.536102 295.323386 
L 397.170216 295.340153 
L 397.170216 295.340153 
" style="fill:none;stroke:#ff7f0e;stroke-linecap:square;stroke-width:1.5;"/>
   </g>
   <g id="line2d_18">
    <path clip-path="url(#ped888748d8)" d="M 73.832727 295.293408 
L 79.122414 295.254057 
L 97.636319 295.285762 
L 99.619952 295.397722 
L 102.926006 295.479705 
L 126.068387 295.399576 
L 130.035653 295.254416 
L 160.451353 295.404953 
L 164.418619 295.482721 
L 217.31549 295.261678 
L 219.960333 295.247421 
L 237.813027 295.262795 
L 247.06998 295.254093 
L 253.020878 295.280438 
L 255.00451 295.247699 
L 257.649354 295.268107 
L 262.27783 295.247203 
L 264.922674 295.262195 
L 270.873572 295.248581 
L 340.961926 295.455548 
L 345.590402 295.487353 
L 372.038837 295.390588 
L 377.328524 295.279213 
L 391.875164 295.283073 
L 394.520007 295.250236 
L 397.164851 295.279854 
L 398.487273 295.274261 
L 398.487273 295.274261 
" style="fill:none;stroke:#2ca02c;stroke-linecap:square;stroke-width:1.5;"/>
   </g>
   <g id="patch_3">
    <path d="M 57.6 307.584 
L 57.6 41.472 
" style="fill:none;stroke:#000000;stroke-linecap:square;stroke-linejoin:miter;stroke-width:0.8;"/>
   </g>
   <g id="patch_4">
    <path d="M 414.72 307.584 
L 414.72 41.472 
" style="fill:none;stroke:#000000;stroke-linecap:square;stroke-linejoin:miter;stroke-width:0.8;"/>
   </g>
   <g id="patch_5">
    <path d="M 57.6 307.584 
L 414.72 307.584 
" style="fill:none;stroke:#000000;stroke-linecap:square;stroke-linejoin:miter;stroke-width:0.8;"/>
   </g>
   <g id="patch_6">
    <path d="M 57.6 41.472 
L 414.72 41.472 
" style="fill:none;stroke:#000000;stroke-linecap:square;stroke-linejoin:miter;stroke-width:0.8;"/>
   </g>
  </g>
 </g>
 <defs>
  <clipPath id="ped888748d8">
   <rect height="266.112" width="357.12" x="57.6" y="41.472"/>
  </clipPath>
 </defs>
</svg>
