<?xml version="1.0" encoding="utf-8" standalone="no"?>
<!DOCTYPE svg PUBLIC "-//W3C//DTD SVG 1.1//EN"
  "http://www.w3.org/Graphics/SVG/1.1/DTD/svg11.dtd">
<svg height="56.16pt" version="1.1" viewBox="0 0 510.48 56.16" width="510.48pt" xmlns="http://www.w3.org/2000/svg" xmlns:xlink="http://www.w3.org/1999/xlink">
 <metadata>
  <rdf:RDF xmlns:cc="http://creativecommons.org/ns#" xmlns:dc="http://purl.org/dc/elements/1.1/" xmlns:rdf="http://www.w3.org/1999/02/22-rdf-syntax-ns#">
   <cc:Work>
    <dc:type rdf:resource="http://purl.org/dc/dcmitype/StillImage"/>
    <dc:date>2022-05-09T18:54:38.555759</dc:date>
    <dc:format>image/svg+xml</dc:format>
    <dc:creator>
     <cc:Agent>
      <dc:title>Matplotlib v3.4.2, https://matplotlib.org/</dc:title>
     </cc:Agent>
    </dc:creator>
   </cc:Work>
  </rdf:RDF>
 </metadata>
 <defs>
  <style type="text/css">*{stroke-linecap:butt;stroke-linejoin:round;}</style>
 </defs>
 <g id="figure_1">
  <g id="patch_1">
   <path d="M 0 56.16 
L 510.48 56.16 
L 510.48 0 
L 0 0 
z
" style="fill:#ffffff;"/>
  </g>
  <g id="axes_1">
   <g id="patch_2">
    <path d="M 63.81 49.9824 
L 459.432 49.9824 
L 459.432 6.7392 
L 63.81 6.7392 
z
" style="fill:#ffffff;"/>
   </g>
   <g id="matplotlib.axis_1">
    <g id="xtick_1">
     <g id="line2d_1">
      <defs>
       <path d="M 0 0 
L 0 3.5 
" id="me8c9a68ef8" style="stroke:#000000;stroke-width:0.8;"/>
      </defs>
      <g>
       <use style="stroke:#000000;stroke-width:0.8;" x="134.269951" xlink:href="#me8c9a68ef8" y="49.9824"/>
      </g>
     </g>
     <g id="text_1">
      <!-- 3200 -->
      <g transform="translate(121.544951 64.580838)scale(0.1 -0.1)">
       <defs>
        <path d="M 2597 2516 
Q 3050 2419 3304 2112 
Q 3559 1806 3559 1356 
Q 3559 666 3084 287 
Q 2609 -91 1734 -91 
Q 1441 -91 1130 -33 
Q 819 25 488 141 
L 488 750 
Q 750 597 1062 519 
Q 1375 441 1716 441 
Q 2309 441 2620 675 
Q 2931 909 2931 1356 
Q 2931 1769 2642 2001 
Q 2353 2234 1838 2234 
L 1294 2234 
L 1294 2753 
L 1863 2753 
Q 2328 2753 2575 2939 
Q 2822 3125 2822 3475 
Q 2822 3834 2567 4026 
Q 2313 4219 1838 4219 
Q 1578 4219 1281 4162 
Q 984 4106 628 3988 
L 628 4550 
Q 988 4650 1302 4700 
Q 1616 4750 1894 4750 
Q 2613 4750 3031 4423 
Q 3450 4097 3450 3541 
Q 3450 3153 3228 2886 
Q 3006 2619 2597 2516 
z
" id="DejaVuSans-33" transform="scale(0.015625)"/>
        <path d="M 1228 531 
L 3431 531 
L 3431 0 
L 469 0 
L 469 531 
Q 828 903 1448 1529 
Q 2069 2156 2228 2338 
Q 2531 2678 2651 2914 
Q 2772 3150 2772 3378 
Q 2772 3750 2511 3984 
Q 2250 4219 1831 4219 
Q 1534 4219 1204 4116 
Q 875 4013 500 3803 
L 500 4441 
Q 881 4594 1212 4672 
Q 1544 4750 1819 4750 
Q 2544 4750 2975 4387 
Q 3406 4025 3406 3419 
Q 3406 3131 3298 2873 
Q 3191 2616 2906 2266 
Q 2828 2175 2409 1742 
Q 1991 1309 1228 531 
z
" id="DejaVuSans-32" transform="scale(0.015625)"/>
        <path d="M 2034 4250 
Q 1547 4250 1301 3770 
Q 1056 3291 1056 2328 
Q 1056 1369 1301 889 
Q 1547 409 2034 409 
Q 2525 409 2770 889 
Q 3016 1369 3016 2328 
Q 3016 3291 2770 3770 
Q 2525 4250 2034 4250 
z
M 2034 4750 
Q 2819 4750 3233 4129 
Q 3647 3509 3647 2328 
Q 3647 1150 3233 529 
Q 2819 -91 2034 -91 
Q 1250 -91 836 529 
Q 422 1150 422 2328 
Q 422 3509 836 4129 
Q 1250 4750 2034 4750 
z
" id="DejaVuSans-30" transform="scale(0.015625)"/>
       </defs>
       <use xlink:href="#DejaVuSans-33"/>
       <use x="63.623047" xlink:href="#DejaVuSans-32"/>
       <use x="127.246094" xlink:href="#DejaVuSans-30"/>
       <use x="190.869141" xlink:href="#DejaVuSans-30"/>
      </g>
     </g>
    </g>
    <g id="xtick_2">
     <g id="line2d_2">
      <g>
       <use style="stroke:#000000;stroke-width:0.8;" x="215.356113" xlink:href="#me8c9a68ef8" y="49.9824"/>
      </g>
     </g>
     <g id="text_2">
      <!-- 3400 -->
      <g transform="translate(202.631113 64.580838)scale(0.1 -0.1)">
       <defs>
        <path d="M 2419 4116 
L 825 1625 
L 2419 1625 
L 2419 4116 
z
M 2253 4666 
L 3047 4666 
L 3047 1625 
L 3713 1625 
L 3713 1100 
L 3047 1100 
L 3047 0 
L 2419 0 
L 2419 1100 
L 313 1100 
L 313 1709 
L 2253 4666 
z
" id="DejaVuSans-34" transform="scale(0.015625)"/>
       </defs>
       <use xlink:href="#DejaVuSans-33"/>
       <use x="63.623047" xlink:href="#DejaVuSans-34"/>
       <use x="127.246094" xlink:href="#DejaVuSans-30"/>
       <use x="190.869141" xlink:href="#DejaVuSans-30"/>
      </g>
     </g>
    </g>
    <g id="xtick_3">
     <g id="line2d_3">
      <g>
       <use style="stroke:#000000;stroke-width:0.8;" x="296.442275" xlink:href="#me8c9a68ef8" y="49.9824"/>
      </g>
     </g>
     <g id="text_3">
      <!-- 3600 -->
      <g transform="translate(283.717275 64.580838)scale(0.1 -0.1)">
       <defs>
        <path d="M 2113 2584 
Q 1688 2584 1439 2293 
Q 1191 2003 1191 1497 
Q 1191 994 1439 701 
Q 1688 409 2113 409 
Q 2538 409 2786 701 
Q 3034 994 3034 1497 
Q 3034 2003 2786 2293 
Q 2538 2584 2113 2584 
z
M 3366 4563 
L 3366 3988 
Q 3128 4100 2886 4159 
Q 2644 4219 2406 4219 
Q 1781 4219 1451 3797 
Q 1122 3375 1075 2522 
Q 1259 2794 1537 2939 
Q 1816 3084 2150 3084 
Q 2853 3084 3261 2657 
Q 3669 2231 3669 1497 
Q 3669 778 3244 343 
Q 2819 -91 2113 -91 
Q 1303 -91 875 529 
Q 447 1150 447 2328 
Q 447 3434 972 4092 
Q 1497 4750 2381 4750 
Q 2619 4750 2861 4703 
Q 3103 4656 3366 4563 
z
" id="DejaVuSans-36" transform="scale(0.015625)"/>
       </defs>
       <use xlink:href="#DejaVuSans-33"/>
       <use x="63.623047" xlink:href="#DejaVuSans-36"/>
       <use x="127.246094" xlink:href="#DejaVuSans-30"/>
       <use x="190.869141" xlink:href="#DejaVuSans-30"/>
      </g>
     </g>
    </g>
    <g id="xtick_4">
     <g id="line2d_4">
      <g>
       <use style="stroke:#000000;stroke-width:0.8;" x="377.528437" xlink:href="#me8c9a68ef8" y="49.9824"/>
      </g>
     </g>
     <g id="text_4">
      <!-- 3800 -->
      <g transform="translate(364.803437 64.580838)scale(0.1 -0.1)">
       <defs>
        <path d="M 2034 2216 
Q 1584 2216 1326 1975 
Q 1069 1734 1069 1313 
Q 1069 891 1326 650 
Q 1584 409 2034 409 
Q 2484 409 2743 651 
Q 3003 894 3003 1313 
Q 3003 1734 2745 1975 
Q 2488 2216 2034 2216 
z
M 1403 2484 
Q 997 2584 770 2862 
Q 544 3141 544 3541 
Q 544 4100 942 4425 
Q 1341 4750 2034 4750 
Q 2731 4750 3128 4425 
Q 3525 4100 3525 3541 
Q 3525 3141 3298 2862 
Q 3072 2584 2669 2484 
Q 3125 2378 3379 2068 
Q 3634 1759 3634 1313 
Q 3634 634 3220 271 
Q 2806 -91 2034 -91 
Q 1263 -91 848 271 
Q 434 634 434 1313 
Q 434 1759 690 2068 
Q 947 2378 1403 2484 
z
M 1172 3481 
Q 1172 3119 1398 2916 
Q 1625 2713 2034 2713 
Q 2441 2713 2670 2916 
Q 2900 3119 2900 3481 
Q 2900 3844 2670 4047 
Q 2441 4250 2034 4250 
Q 1625 4250 1398 4047 
Q 1172 3844 1172 3481 
z
" id="DejaVuSans-38" transform="scale(0.015625)"/>
       </defs>
       <use xlink:href="#DejaVuSans-33"/>
       <use x="63.623047" xlink:href="#DejaVuSans-38"/>
       <use x="127.246094" xlink:href="#DejaVuSans-30"/>
       <use x="190.869141" xlink:href="#DejaVuSans-30"/>
      </g>
     </g>
    </g>
    <g id="xtick_5">
     <g id="line2d_5">
      <g>
       <use style="stroke:#000000;stroke-width:0.8;" x="458.614599" xlink:href="#me8c9a68ef8" y="49.9824"/>
      </g>
     </g>
     <g id="text_5">
      <!-- 4000 -->
      <g transform="translate(445.889599 64.580838)scale(0.1 -0.1)">
       <use xlink:href="#DejaVuSans-34"/>
       <use x="63.623047" xlink:href="#DejaVuSans-30"/>
       <use x="127.246094" xlink:href="#DejaVuSans-30"/>
       <use x="190.869141" xlink:href="#DejaVuSans-30"/>
      </g>
     </g>
    </g>
   </g>
   <g id="matplotlib.axis_2">
    <g id="ytick_1">
     <g id="line2d_6">
      <defs>
       <path d="M 0 0 
L -3.5 0 
" id="m58c5982523" style="stroke:#000000;stroke-width:0.8;"/>
      </defs>
      <g>
       <use style="stroke:#000000;stroke-width:0.8;" x="63.81" xlink:href="#m58c5982523" y="48.166049"/>
      </g>
     </g>
     <g id="text_6">
      <!-- −10 -->
      <g transform="translate(35.705313 51.965268)scale(0.1 -0.1)">
       <defs>
        <path d="M 678 2272 
L 4684 2272 
L 4684 1741 
L 678 1741 
L 678 2272 
z
" id="DejaVuSans-2212" transform="scale(0.015625)"/>
        <path d="M 794 531 
L 1825 531 
L 1825 4091 
L 703 3866 
L 703 4441 
L 1819 4666 
L 2450 4666 
L 2450 531 
L 3481 531 
L 3481 0 
L 794 0 
L 794 531 
z
" id="DejaVuSans-31" transform="scale(0.015625)"/>
       </defs>
       <use xlink:href="#DejaVuSans-2212"/>
       <use x="83.789062" xlink:href="#DejaVuSans-31"/>
       <use x="147.412109" xlink:href="#DejaVuSans-30"/>
      </g>
     </g>
    </g>
    <g id="ytick_2">
     <g id="line2d_7">
      <g>
       <use style="stroke:#000000;stroke-width:0.8;" x="63.81" xlink:href="#m58c5982523" y="32.000523"/>
      </g>
     </g>
     <g id="text_7">
      <!-- 0 -->
      <g transform="translate(50.4475 35.799741)scale(0.1 -0.1)">
       <use xlink:href="#DejaVuSans-30"/>
      </g>
     </g>
    </g>
    <g id="ytick_3">
     <g id="line2d_8">
      <g>
       <use style="stroke:#000000;stroke-width:0.8;" x="63.81" xlink:href="#m58c5982523" y="15.834996"/>
      </g>
     </g>
     <g id="text_8">
      <!-- 10 -->
      <g transform="translate(44.085 19.634215)scale(0.1 -0.1)">
       <use xlink:href="#DejaVuSans-31"/>
       <use x="63.623047" xlink:href="#DejaVuSans-30"/>
      </g>
     </g>
    </g>
   </g>
   <g id="line2d_9">
    <path clip-path="url(#p6b37f14cc6)" d="M 63.72499 39.371003 
L 64.130421 37.563372 
L 64.535852 36.518191 
L 64.941283 37.418871 
L 66.563006 26.694413 
L 66.968437 27.821115 
L 67.373868 25.594294 
L 67.779298 24.958124 
L 68.184729 25.380723 
L 68.59016 25.325739 
L 68.995591 26.150942 
L 69.401022 27.659573 
L 69.806452 28.668266 
L 70.211883 28.810177 
L 71.022745 28.36404 
L 71.428176 28.246167 
L 71.833607 28.461329 
L 72.644468 29.379322 
L 73.860761 29.304663 
L 75.887915 30.327714 
L 76.698776 30.580047 
L 77.104207 30.673473 
L 77.509638 30.596496 
L 78.320499 30.6428 
L 78.72593 30.570504 
L 79.131361 30.760355 
L 79.536792 30.807114 
L 80.347654 30.55819 
L 80.753084 30.203434 
L 81.158515 30.034531 
L 81.563946 29.304254 
L 81.969377 28.979671 
L 82.374808 28.198682 
L 82.780238 27.894184 
L 83.185669 27.219253 
L 83.5911 26.865724 
L 83.996531 27.289232 
L 84.401962 27.429189 
L 85.212823 29.048195 
L 85.618254 27.300592 
L 86.023685 26.320436 
L 86.834546 30.609129 
L 87.645408 33.263274 
L 88.45627 34.531569 
L 88.861701 35.501501 
L 90.483424 37.585638 
L 91.294285 39.109719 
L 91.699716 39.569579 
L 92.105147 39.621381 
L 93.321439 37.617447 
L 94.132301 35.464512 
L 94.537732 35.840534 
L 94.943163 34.143233 
L 96.159455 25.970088 
L 96.564886 27.218798 
L 97.781178 24.411018 
L 98.186609 23.49766 
L 98.59204 24.47827 
L 99.402902 27.449637 
L 99.808332 28.434928 
L 100.213763 28.846666 
L 100.619194 28.93832 
L 101.024625 28.801952 
L 101.430056 28.401529 
L 101.835486 28.618281 
L 102.646348 29.83023 
L 103.45721 29.450527 
L 103.86264 29.702087 
L 104.268071 30.154222 
L 105.078933 30.254282 
L 106.295225 30.715687 
L 107.511518 30.55201 
L 108.72781 30.738816 
L 109.133241 30.70878 
L 109.538672 30.815611 
L 113.998411 28.487684 
L 114.403842 28.492319 
L 114.809272 28.665403 
L 115.214703 28.024326 
L 115.620134 27.954438 
L 116.025565 27.634808 
L 116.430996 27.953166 
L 116.836426 27.950076 
L 117.647288 24.940402 
L 118.052719 25.662455 
L 118.45815 27.748546 
L 118.86358 28.471735 
L 119.269011 30.21543 
L 120.079873 34.823616 
L 120.485304 36.002393 
L 121.701596 40.329347 
L 122.107027 41.670756 
L 122.512458 41.931586 
L 123.72875 41.88251 
L 124.134181 42.14652 
L 124.539612 42.606835 
L 124.945043 42.661363 
L 125.350473 42.577753 
L 126.161335 39.049737 
L 126.566766 38.342226 
L 126.972197 38.989301 
L 127.783058 31.187861 
L 128.188489 25.94964 
L 128.59392 23.293177 
L 128.999351 26.154123 
L 129.404782 24.57824 
L 129.810212 26.189567 
L 130.621074 23.952067 
L 131.026505 25.148066 
L 131.431936 25.328011 
L 131.837366 26.176389 
L 132.242797 27.601682 
L 132.648228 28.117297 
L 133.053659 28.392213 
L 133.45909 28.299469 
L 134.269951 27.679976 
L 134.675382 28.105846 
L 135.080813 29.290803 
L 135.486244 29.81996 
L 136.297105 29.814007 
L 137.107967 30.903766 
L 137.513398 30.969655 
L 138.324259 30.83256 
L 138.72969 30.896723 
L 140.756844 30.577093 
L 141.567706 30.650798 
L 142.783998 30.570822 
L 144.000291 30.615945 
L 144.405721 30.30404 
L 144.811152 30.208614 
L 145.216583 29.997042 
L 146.027445 29.88903 
L 147.243737 29.290803 
L 147.649168 29.471566 
L 148.054599 29.193469 
L 148.46003 29.354193 
L 148.86546 28.611601 
L 149.270891 28.659723 
L 149.676322 28.31869 
L 150.081753 28.579429 
L 150.487184 27.610315 
L 150.892614 25.785145 
L 151.298045 24.590054 
L 151.703476 25.046279 
L 152.108907 27.366935 
L 152.919768 29.239591 
L 153.325199 31.320366 
L 153.73063 34.814801 
L 155.352353 40.249826 
L 156.163215 41.907957 
L 156.568646 42.082903 
L 156.974077 41.636221 
L 157.379507 40.940524 
L 157.784938 40.80193 
L 159.001231 41.896597 
L 159.812092 39.475062 
L 160.217523 37.595635 
L 160.622954 38.582153 
L 161.028385 37.389789 
L 162.650108 25.389356 
L 163.055539 28.890425 
L 163.46097 26.188204 
L 164.271831 25.128981 
L 164.677262 24.391933 
L 165.893554 27.241973 
L 166.298985 27.815026 
L 167.109847 28.320099 
L 167.920708 28.233126 
L 168.326139 28.357769 
L 169.137001 29.462751 
L 169.542432 29.584441 
L 170.353293 29.262266 
L 170.758724 29.381321 
L 171.164155 29.67455 
L 172.380447 29.963235 
L 172.785878 30.058024 
L 173.191309 30.465945 
L 174.813032 30.521383 
L 175.623894 30.394739 
L 177.651048 29.784516 
L 179.272771 28.605512 
L 179.678202 28.228036 
L 180.083633 28.491183 
L 180.489064 27.500667 
L 180.894494 27.620858 
L 181.299925 27.025676 
L 182.110787 26.4095 
L 182.921648 27.781218 
L 183.327079 28.26507 
L 183.73251 26.111409 
L 184.137941 25.506593 
L 184.543372 25.65473 
L 184.948802 29.072551 
L 185.759664 33.258957 
L 186.165095 34.105244 
L 186.570526 35.352273 
L 186.975957 37.028535 
L 188.192249 39.944464 
L 188.59768 40.31935 
L 189.003111 40.380695 
L 189.408541 40.626075 
L 189.813972 41.867514 
L 190.219403 42.32692 
L 190.624834 41.766182 
L 191.435695 35.040687 
L 191.841126 35.198093 
L 192.246557 35.556757 
L 192.651988 31.744887 
L 193.057419 26.376782 
L 193.462849 27.088838 
L 193.86828 25.326648 
L 194.273711 24.471454 
L 194.679142 24.483723 
L 195.084573 23.853915 
L 195.490004 24.014775 
L 196.706296 28.529581 
L 197.111727 28.522946 
L 198.328019 27.793532 
L 198.73345 27.927401 
L 199.544312 29.803101 
L 199.949742 29.636289 
L 200.355173 29.234184 
L 201.571466 30.181532 
L 202.382327 30.21484 
L 202.787758 30.567732 
L 203.59862 30.704872 
L 204.004051 30.560371 
L 205.220343 30.597905 
L 206.031205 30.279093 
L 206.436635 29.852177 
L 207.652928 29.303754 
L 208.463789 28.256073 
L 210.085513 27.648713 
L 210.490944 27.659664 
L 210.896374 28.189275 
L 211.301805 29.942377 
L 212.112667 26.350881 
L 212.518098 28.093759 
L 212.923528 30.542876 
L 213.73439 33.272226 
L 214.139821 33.805109 
L 215.356113 36.904482 
L 216.572406 38.807993 
L 217.788698 41.850702 
L 218.194129 41.693931 
L 219.004991 37.84874 
L 219.815852 35.578659 
L 220.221283 32.442606 
L 220.626714 28.084444 
L 221.437575 25.659274 
L 221.843006 23.598539 
L 222.248437 23.376334 
L 222.653868 23.412232 
L 223.059299 24.630497 
L 223.464729 25.406169 
L 223.87016 27.162452 
L 224.275591 28.290972 
L 224.681022 28.526445 
L 225.086453 28.211632 
L 225.897314 28.090533 
L 226.302745 28.394031 
L 226.708176 28.966175 
L 227.113607 29.763614 
L 227.924468 29.270082 
L 228.329899 29.065735 
L 229.140761 29.763841 
L 229.546192 29.968051 
L 229.951622 29.806328 
L 230.357053 29.837318 
L 230.762484 30.057161 
L 231.573346 30.012038 
L 231.978776 30.056297 
L 232.384207 29.906752 
L 233.195069 29.330337 
L 234.00593 28.0196 
L 234.411361 27.492624 
L 234.816792 27.264239 
L 235.222223 27.318768 
L 235.627654 26.819829 
L 236.033085 26.854819 
L 236.438515 26.71986 
L 236.843946 27.224251 
L 237.249377 27.953575 
L 237.654808 29.551587 
L 238.060239 25.939643 
L 238.465669 24.007959 
L 238.8711 25.819225 
L 239.276531 29.479109 
L 239.681962 30.738998 
L 240.087393 32.734208 
L 240.492823 33.132905 
L 240.898254 34.215938 
L 241.709116 37.132594 
L 242.925408 39.0511 
L 243.330839 39.455068 
L 243.73627 40.208929 
L 244.141701 40.408414 
L 244.547132 40.065791 
L 244.952562 39.454614 
L 245.357993 38.220445 
L 245.763424 36.384413 
L 246.574286 34.360076 
L 246.979716 33.924663 
L 247.385147 32.015627 
L 248.60144 25.082177 
L 249.00687 28.69294 
L 249.412301 26.502653 
L 249.817732 25.512046 
L 250.223163 25.68154 
L 250.628594 25.007654 
L 251.034024 25.245764 
L 252.250317 27.870009 
L 253.061179 27.504666 
L 253.466609 27.151092 
L 253.87204 27.3942 
L 254.682902 28.691986 
L 255.088333 28.750332 
L 255.493763 28.628142 
L 256.710056 30.144407 
L 257.115487 30.18853 
L 258.331779 30.909173 
L 258.73721 30.801706 
L 259.953502 30.017264 
L 261.169795 27.65512 
L 261.575226 25.532949 
L 261.980656 27.465405 
L 262.386087 25.759244 
L 262.791518 27.655847 
L 263.196949 26.018255 
L 263.60238 28.037185 
L 264.00781 25.238039 
L 264.413241 27.102016 
L 264.818672 31.466458 
L 265.629534 36.019252 
L 266.845826 38.685303 
L 267.656688 39.472336 
L 268.062119 39.087907 
L 268.87298 38.938407 
L 269.278411 37.591545 
L 269.683842 26.2909 
L 270.089273 31.126925 
L 270.900134 23.16867 
L 271.305565 23.977514 
L 271.710996 26.862089 
L 272.116427 27.127008 
L 273.332719 28.611419 
L 273.73815 29.85704 
L 274.549011 30.872912 
L 274.954442 31.382802 
L 275.359873 31.454053 
L 275.765304 31.728319 
L 277.387027 31.583713 
L 278.197889 30.734727 
L 279.414181 27.383748 
L 279.819612 25.668362 
L 280.225043 28.99044 
L 280.630474 26.21365 
L 281.035904 26.835279 
L 281.441335 24.446916 
L 281.846766 25.854215 
L 282.657628 33.962833 
L 284.279351 42.854941 
L 284.684782 43.189839 
L 285.090213 42.960363 
L 285.495643 42.992172 
L 285.901074 43.46112 
L 286.306505 43.038976 
L 286.711936 43.254819 
L 287.117367 41.286328 
L 287.522797 37.83738 
L 287.928228 32.341232 
L 288.333659 19.001304 
L 288.73909 24.851793 
L 289.144521 20.605815 
L 289.549951 23.962518 
L 289.955382 24.542796 
L 290.766244 28.029824 
L 291.577105 28.986123 
L 291.982536 30.111826 
L 292.793398 31.265338 
L 294.00969 31.573362 
L 294.415121 31.305098 
L 294.820552 31.450645 
L 295.225983 30.92426 
L 295.631414 30.667111 
L 296.036844 30.154631 
L 296.442275 29.863583 
L 296.847706 29.04356 
L 297.658568 26.690323 
L 298.063998 26.138219 
L 298.469429 25.284388 
L 298.87486 25.307109 
L 299.280291 27.111104 
L 299.685722 25.514773 
L 300.091152 22.84286 
L 300.496583 24.64731 
L 300.902014 28.228854 
L 301.307445 29.397407 
L 302.118307 36.149712 
L 303.334599 42.67545 
L 303.74003 44.270873 
L 304.145461 45.046091 
L 304.550891 44.867055 
L 305.361753 42.676813 
L 305.767184 39.897661 
L 306.172615 33.233147 
L 306.578045 23.605355 
L 306.983476 30.049436 
L 307.388907 25.461153 
L 307.794338 23.737587 
L 308.199769 23.07597 
L 308.6052 24.132012 
L 309.416061 27.040671 
L 310.632354 30.263052 
L 311.037784 31.032954 
L 311.848646 31.693098 
L 312.659508 30.629395 
L 313.064938 30.242831 
L 313.470369 29.483699 
L 313.8758 28.449923 
L 314.281231 27.000683 
L 315.092092 25.756971 
L 315.497523 26.695322 
L 315.902954 26.221375 
L 316.308385 24.567334 
L 316.713816 26.025072 
L 317.524677 32.280224 
L 319.146401 41.519893 
L 319.551831 42.906289 
L 319.957262 43.841004 
L 320.768124 42.642733 
L 321.173555 43.017164 
L 321.984416 37.121234 
L 322.389847 25.586569 
L 322.795278 27.638034 
L 323.200709 26.763028 
L 323.606139 21.277882 
L 324.417001 24.809078 
L 324.822432 25.676996 
L 325.227863 27.701651 
L 326.038724 30.35816 
L 326.444155 31.051721 
L 326.849586 31.210627 
L 327.660448 32.083647 
L 328.87674 32.218361 
L 329.282171 31.772587 
L 330.093032 29.797467 
L 331.714756 24.357852 
L 332.120186 25.1258 
L 332.525617 25.382086 
L 332.931048 27.179265 
L 333.336479 23.800295 
L 333.74191 26.723041 
L 334.147341 28.752467 
L 334.552771 33.070515 
L 335.363633 37.784668 
L 336.174495 42.711803 
L 336.579925 43.917799 
L 336.985356 44.201348 
L 337.390787 43.347518 
L 338.201649 42.207411 
L 338.607079 42.142431 
L 339.01251 41.472181 
L 339.823372 35.727886 
L 340.228803 32.957958 
L 340.634233 29.08273 
L 341.039664 19.885125 
L 341.445095 25.346187 
L 341.850526 21.738197 
L 342.255957 24.065214 
L 342.661388 24.699112 
L 343.066818 26.005078 
L 345.499403 31.293693 
L 345.904834 31.74032 
L 346.310265 31.383665 
L 347.121126 31.112248 
L 347.931988 30.43859 
L 350.770004 25.443885 
L 351.175435 24.311957 
L 351.580865 24.346947 
L 351.986296 23.88436 
L 352.391727 24.353763 
L 352.797158 23.190027 
L 353.202589 24.10293 
L 353.608019 26.102775 
L 354.418881 34.38625 
L 356.446035 45.732245 
L 357.256897 47.312673 
L 357.662328 47.115006 
L 358.067758 45.505951 
L 358.473189 43.01262 
L 359.284051 36.656376 
L 359.689482 12.949513 
L 360.094912 33.0886 
L 360.500343 16.062654 
L 360.905774 22.793784 
L 361.311205 20.978428 
L 361.716636 24.965849 
L 362.122066 26.004169 
L 362.527497 27.791442 
L 363.338359 29.667779 
L 363.74379 30.006994 
L 364.14922 30.65984 
L 364.960082 31.588039 
L 365.770944 31.333226 
L 366.581805 29.986773 
L 366.987236 28.917008 
L 367.798098 25.449792 
L 368.203529 24.483723 
L 368.608959 24.094296 
L 369.01439 26.249094 
L 369.419821 24.097477 
L 369.825252 24.987206 
L 370.230683 27.628037 
L 370.636113 32.565305 
L 371.852406 41.424468 
L 372.663267 43.233462 
L 373.068698 43.749214 
L 373.474129 43.225737 
L 374.284991 43.686051 
L 374.690422 42.489143 
L 375.095852 40.333437 
L 375.501283 37.062616 
L 375.906714 35.197548 
L 376.312145 25.338008 
L 376.717576 26.21365 
L 377.123006 18.656409 
L 377.528437 20.419053 
L 377.933868 19.971917 
L 378.339299 23.470396 
L 379.15016 27.803847 
L 379.555591 29.894165 
L 379.961022 30.284182 
L 380.366453 30.105191 
L 381.177314 30.799434 
L 381.988176 31.505946 
L 382.393607 31.154735 
L 383.204469 29.524141 
L 383.609899 27.639807 
L 384.420761 25.295294 
L 384.826192 26.381781 
L 385.231623 26.627161 
L 385.637053 25.917832 
L 386.042484 23.605355 
L 386.853346 30.996783 
L 387.258777 33.116864 
L 388.069638 38.597148 
L 388.475069 41.017774 
L 388.8805 41.985206 
L 389.691361 42.042461 
L 390.096792 42.385084 
L 390.502223 43.195291 
L 390.907654 43.236188 
L 391.313085 42.811772 
L 391.718516 41.631677 
L 392.123946 39.320564 
L 392.529377 35.258529 
L 392.934808 28.555436 
L 393.340239 10.888777 
L 393.74567 23.086876 
L 394.1511 16.427997 
L 394.556531 21.828624 
L 394.961962 25.197142 
L 395.367393 27.037036 
L 395.772824 29.797967 
L 396.178254 31.519396 
L 396.583685 31.46096 
L 396.989116 32.342018 
L 397.799978 33.014304 
L 398.610839 31.997933 
L 399.01627 30.893996 
L 399.827132 27.533702 
L 400.637993 24.567334 
L 401.043424 23.93071 
L 401.448855 23.825288 
L 401.854286 24.983116 
L 402.259717 22.980545 
L 402.665147 23.195934 
L 403.476009 29.320385 
L 403.88144 35.271344 
L 405.097732 44.61804 
L 405.908594 47.593042 
L 406.719456 45.206951 
L 407.124886 45.448696 
L 407.530317 44.761178 
L 407.935748 42.594566 
L 408.341179 41.997021 
L 408.74661 39.110628 
L 410.368333 14.377259 
L 410.773764 16.039934 
L 411.179194 20.396333 
L 411.584625 21.380578 
L 411.990056 24.650036 
L 412.395487 25.108078 
L 413.206348 29.186835 
L 413.611779 31.363353 
L 414.01721 31.734422 
L 414.422641 31.642759 
L 414.828072 31.199267 
L 415.233503 31.616185 
L 415.638933 32.862578 
L 416.044364 31.020367 
L 416.449795 30.826108 
L 416.855226 30.097194 
L 417.666087 26.689414 
L 418.071518 25.128981 
L 418.476949 24.604141 
L 418.88238 25.44752 
L 419.287811 24.480542 
L 419.693241 23.060521 
L 420.504103 28.481095 
L 420.909534 32.301235 
L 421.314965 34.563059 
L 422.125826 40.690601 
L 422.531257 41.809805 
L 422.936688 42.350095 
L 423.74755 41.91341 
L 424.15298 41.985206 
L 424.558411 42.327374 
L 424.963842 41.430375 
L 425.774704 37.445681 
L 426.585565 30.83565 
L 426.990996 21.388758 
L 427.396427 22.786968 
L 427.801858 18.919965 
L 428.612719 21.783637 
L 429.01815 24.19154 
L 429.423581 25.602927 
L 429.829012 27.459907 
L 430.234442 30.224428 
L 430.639873 30.893996 
L 431.045304 30.527244 
L 431.450735 30.607584 
L 431.856166 30.364249 
L 432.261597 31.017868 
L 433.072458 29.873171 
L 433.477889 29.330564 
L 434.288751 26.857091 
L 435.505043 26.075965 
L 435.910474 25.188054 
L 436.315905 24.741826 
L 436.721335 26.713952 
L 437.126766 31.420563 
L 437.532197 32.963184 
L 438.748489 40.841918 
L 439.15392 41.621226 
L 439.559351 41.567152 
L 440.370213 40.862821 
L 440.775644 40.780119 
L 441.181074 39.784968 
L 441.586505 39.998993 
L 441.991936 38.992482 
L 442.397367 36.658648 
L 442.802798 33.128815 
L 443.613659 18.040687 
L 444.01909 17.025997 
L 444.424521 16.734267 
L 444.829952 21.399209 
L 445.235382 24.521893 
L 446.046244 28.244395 
L 446.451675 30.3154 
L 446.857106 30.664066 
L 447.262536 31.307734 
L 448.073398 31.917143 
L 448.478829 32.724347 
L 449.289691 31.537209 
L 451.316845 25.899655 
L 451.722275 25.219862 
L 452.127706 27.281961 
L 452.533137 24.233799 
L 452.938568 24.703656 
L 453.343999 29.549906 
L 453.749429 32.719122 
L 454.15486 34.152185 
L 454.560291 37.480216 
L 454.965722 39.867215 
L 455.371153 40.804202 
L 455.776584 40.89781 
L 456.182014 40.438859 
L 456.587445 39.084726 
L 456.992876 39.520048 
L 457.398307 41.909774 
L 457.803738 41.708926 
L 458.209168 39.460521 
L 458.614599 38.440377 
L 459.02003 35.504182 
L 459.425461 31.671723 
L 459.830892 22.328926 
L 459.830892 22.328926 
" style="fill:none;stroke:#1f77b4;stroke-linecap:square;stroke-width:1.5;"/>
   </g>
   <g id="patch_3">
    <path d="M 63.81 49.9824 
L 63.81 6.7392 
" style="fill:none;stroke:#000000;stroke-linecap:square;stroke-linejoin:miter;stroke-width:0.8;"/>
   </g>
   <g id="patch_4">
    <path d="M 459.432 49.9824 
L 459.432 6.7392 
" style="fill:none;stroke:#000000;stroke-linecap:square;stroke-linejoin:miter;stroke-width:0.8;"/>
   </g>
   <g id="patch_5">
    <path d="M 63.81 49.9824 
L 459.432 49.9824 
" style="fill:none;stroke:#000000;stroke-linecap:square;stroke-linejoin:miter;stroke-width:0.8;"/>
   </g>
   <g id="patch_6">
    <path d="M 63.81 6.7392 
L 459.432 6.7392 
" style="fill:none;stroke:#000000;stroke-linecap:square;stroke-linejoin:miter;stroke-width:0.8;"/>
   </g>
  </g>
 </g>
 <defs>
  <clipPath id="p6b37f14cc6">
   <rect height="43.2432" width="395.622" x="63.81" y="6.7392"/>
  </clipPath>
 </defs>
</svg>
